<?xml version="1.0" encoding="UTF-8"?>
<svg version="1.1" id="Layer_1" xmlns="http://www.w3.org/2000/svg" xmlns:xlink="http://www.w3.org/1999/xlink" width="29px" height="41px" xml:space="preserve">
<g id="PathID_71" transform="matrix(1, 0, 0, 1, 14.15, 20.2)">
<path style="fill:#FFFFFF;fill-opacity:1" d="M4 -14.85L10.9 -14.85L9.05 -11.15L6.45 -11.15L9.05 14.65L12.3 14.65L12.3 18.35L-12.3 18.35L-12.3 14.65L-8.95 14.65L-6.35 -11.15L-9.05 -11.15L-10.9 -14.85L-3.8 -14.85Q-3.65 -16.35 -2.55 -17.35Q-1.45 -18.35 0.1 -18.35Q1.6 -18.35 2.7 -17.35Q3.8 -16.35 4 -14.85M2 0.2Q0.75 -2.7 0.2 -4.45L-0.1 -4.45Q-0.6 -2.7 -1.9 0.2Q-2.9 3 -2.95 6.45L-2.95 14.65L3.05 14.65L3.05 6.45Q3 3 2 0.2"/>
<path style="fill:#000000;fill-opacity:1" d="M5.4 -16.7L13.85 -16.7L10.2 -9.3L8.5 -9.3L10.7 12.8L14.15 12.8L14.15 20.2L-14.15 20.2L-14.15 12.8L-10.6 12.8L-8.4 -9.3L-10.2 -9.3L-13.85 -16.7L-5.2 -16.7Q-4.55 -18.3 -3.15 -19.25Q-1.7 -20.2 0.1 -20.2Q1.85 -20.2 3.3 -19.25Q4.7 -18.3 5.4 -16.7M2.7 -17.35Q1.6 -18.35 0.1 -18.35Q-1.45 -18.35 -2.55 -17.35Q-3.65 -16.35 -3.8 -14.85L-10.9 -14.85L-9.05 -11.15L-6.35 -11.15L-8.95 14.65L-12.3 14.65L-12.3 18.35L12.3 18.35L12.3 14.65L9.05 14.65L6.45 -11.15L9.05 -11.15L10.9 -14.85L4 -14.85Q3.8 -16.35 2.7 -17.35M3.05 6.45L3.05 14.65L-2.95 14.65L-2.95 6.45Q-2.9 3 -1.9 0.2Q-0.6 -2.7 -0.1 -4.45L0.2 -4.45Q0.75 -2.7 2 0.2Q3 3 3.05 6.45"/>
</g>
</svg>