<?xml version="1.0" encoding="UTF-8"?>
<svg version="1.1" id="Layer_1" xmlns="http://www.w3.org/2000/svg" xmlns:xlink="http://www.w3.org/1999/xlink" width="31px" height="42px" xml:space="preserve">
<g id="PathID_16" transform="matrix(1, 0, 0, 1, 15.15, 21)">
<path style="fill:#FFFFFF;fill-opacity:1" d="M10.85 -18.8L8.7 -15.05L6.5 -18.8L4.3 -15.05L2.15 -18.8L0.25 -15.55L2.1 -7.9L2.1 -7.7L2 -7.6L1.7 -7.1L4.9 -3.95L5.5 -4.35L5.65 -4.3L13.35 -2.45L13.35 -14.85L13.15 -14.85L10.85 -18.8M13.35 -18.1L15.15 -18.1L15.15 -0.75Q15.15 3.45 12.4 8.8Q8.55 16.4 1.1 20.65L0.75 21L-0.75 21L-1.1 20.65Q-8.55 16.4 -12.4 8.8Q-15.15 3.45 -15.15 -0.75L-15.15 -18.1L-13.5 -18.1L-11.8 -21L-10.1 -21L-8.8 -18.65L-7.45 -21L-5.75 -21L-4.4 -18.65L-3.1 -21L-1.4 -21L-0.05 -18.65L1.3 -21L3 -21L4.3 -18.65L5.65 -21L7.35 -21L8.7 -18.65L10 -21L11.7 -21L13.35 -18.1M5.5 -0.05L4.9 -0.45L1.7 2.95L2.1 3.55L2.1 3.7L0.35 18.15L0.1 19.2Q7 15.25 10.7 8.2Q13.35 3.1 13.35 -0.75L13.35 -1.9L5.65 -0.1L5.5 -0.05M-6.6 -18.8L-8.8 -15.05L-10.95 -18.8L-13.25 -14.85L-13.35 -14.85L-13.35 -2.55L-5.85 -4.3L-5.7 -4.35L-5.1 -3.95L-1.8 -7.1L-2.1 -7.6L-2.2 -7.7L-0.35 -15.55L-2.25 -18.8L-4.4 -15.05L-6.6 -18.8M-13.35 -0.75Q-13.35 3.1 -10.7 8.2Q-7.05 15.2 -0.15 19.15L-0.4 18.15L-2.15 3.7L-2.2 3.55L-1.8 2.95L-5.1 -0.45L-5.7 -0.05L-5.85 -0.1L-13.35 -1.85L-13.35 -0.75M-0.35 -4.95L-3.25 -2.1L-0.05 1L3.2 -2.25L-0.1 -5.25L-0.35 -4.95"/>
<path style="fill:#000000;fill-opacity:1" d="M13.15 -14.85L13.35 -14.85L13.35 -2.45L5.65 -4.3L5.5 -4.35L4.9 -3.95L1.7 -7.1L2 -7.6L2.1 -7.7L2.1 -7.9L0.25 -15.55L2.15 -18.8L4.3 -15.05L6.5 -18.8L8.7 -15.05L10.85 -18.8L13.15 -14.85M5.65 -0.1L13.35 -1.9L13.35 -0.75Q13.35 3.1 10.7 8.2Q7 15.25 0.1 19.2L0.35 18.15L2.1 3.7L2.1 3.55L1.7 2.95L4.9 -0.45L5.5 -0.05L5.65 -0.1M-4.4 -15.05L-2.25 -18.8L-0.35 -15.55L-2.2 -7.7L-2.1 -7.6L-1.8 -7.1L-5.1 -3.95L-5.7 -4.35L-5.85 -4.3L-13.35 -2.55L-13.35 -14.85L-13.25 -14.85L-10.95 -18.8L-8.8 -15.05L-6.6 -18.8L-4.4 -15.05M-13.35 -1.85L-5.85 -0.1L-5.7 -0.05L-5.1 -0.45L-1.8 2.95L-2.2 3.55L-2.15 3.7L-0.4 18.15L-0.15 19.15Q-7.05 15.2 -10.7 8.2Q-13.35 3.1 -13.35 -0.75L-13.35 -1.85M-0.1 -5.25L3.2 -2.25L-0.05 1L-3.25 -2.1L-0.35 -4.95L-0.1 -5.25"/>
</g>
</svg>