<?xml version="1.0" encoding="UTF-8"?>
<svg version="1.1" id="Layer_1" xmlns="http://www.w3.org/2000/svg" xmlns:xlink="http://www.w3.org/1999/xlink" width="30px" height="43px" xml:space="preserve">
<g id="PathID_54" transform="matrix(1, 0, 0, 1, 14.55, 20.95)">
<path style="fill:#000000;fill-opacity:1" d="M6.8 -17.45L3.5 -9L0.05 -3.95L-3.4 -9L-6.7 -17.45L-8.7 -15.6L-4.5 -5.9L-5.4 -3.6Q-7.1 -8.8 -8.45 -9.5L-9.85 -9.7L-10.65 -9.55L-9.2 -8.35Q-8.8 -7.95 -7.3 -2.7L-6.9 2.8L-4.1 4.8L-2.7 9.35Q-3.65 16.2 -3.95 16.4L-1.4 16.9L0.15 18.4L1.5 16.9L4 16.4Q3.75 16.2 2.75 9.35L4.2 4.8L7 2.8L7.4 -2.7L8.25 -5.5Q9.05 -8.1 9.3 -8.35L10.7 -9.55L8.5 -9.5Q7.7 -9.05 6.5 -6.3L5.5 -3.6L4.6 -5.9L8.8 -15.6L6.8 -17.45M9.3 -11.7L11.35 -11.45L14.6 -10.4L10.85 -7.05L9.35 -2.3L9.25 -0.25L8.95 3.2L8.8 3.95L5.9 6.05L4.8 9.5L5.7 15.05L8.6 16.7L4.75 18.25L2.5 18.75L0.4 21.1L-2.35 18.75L-4.65 18.25L-8.5 16.7L-5.6 15.05L-4.75 9.5L-5.8 6.05L-8.7 3.95L-8.9 3.2L-9.15 -0.25L-9.25 -2.3Q-10.45 -6.35 -10.8 -7.05L-14.55 -10.4L-11.25 -11.45L-9.2 -11.7L-11.1 -16.15L-5.95 -20.95L-1.6 -9.95L0.05 -7.5L1.7 -9.95L6 -20.95L11.15 -16.15L9.35 -11.8L9.3 -11.7M4.6 0.65L4 2.8L2.05 3.3L1.85 1.6L4.6 0.65M-1.8 1.6L-2 3.3L-3.9 2.8L-4.5 0.65L-1.8 1.6"/>
<path style="fill:#FFFFFF;fill-opacity:1" d="M8.8 -15.6L4.6 -5.9L5.5 -3.6L6.5 -6.3Q7.7 -9.05 8.5 -9.5L10.7 -9.55L9.3 -8.35Q9.05 -8.1 8.25 -5.5L7.4 -2.7L7 2.8L4.2 4.8L2.75 9.35Q3.75 16.2 4 16.4L1.5 16.9L0.15 18.4L-1.4 16.9L-3.95 16.4Q-3.65 16.2 -2.7 9.35L-4.1 4.8L-6.9 2.8L-7.3 -2.7Q-8.8 -7.95 -9.2 -8.35L-10.65 -9.55L-9.85 -9.7L-8.45 -9.5Q-7.1 -8.8 -5.4 -3.6L-4.5 -5.9L-8.7 -15.6L-6.7 -17.45L-3.4 -9L0.05 -3.95L3.5 -9L6.8 -17.45L8.8 -15.6M1.85 1.6L2.05 3.3L4 2.8L4.6 0.65L1.85 1.6M-4.5 0.65L-3.9 2.8L-2 3.3L-1.8 1.6L-4.5 0.65"/>
</g>
</svg>