<?xml version="1.0" encoding="UTF-8"?>
<svg version="1.1" id="Layer_1" xmlns="http://www.w3.org/2000/svg" xmlns:xlink="http://www.w3.org/1999/xlink" width="33px" height="42px" xml:space="preserve">
<g id="PathID_56" transform="matrix(1, 0, 0, 1, 16.2, 21)">
<path style="fill:#000000;fill-opacity:1" d="M2.2 -8.1L-0.9 -5.95L-9.4 -18L-12.45 -12.75L-5.6 -5.35L-3.45 -6.9L-1.25 -3.8L-13.35 4.75L-8.1 7.8L-0.7 0.9L-2.25 -1.25L0.9 -3.4L9.4 8.65L12.45 3.4L5.6 -4L3.45 -2.45L1.25 -5.55L13.3 -14.05L8.05 -17.1L0.65 -10.25L2.2 -8.1M5.8 -6.15L14.35 3.05L9.55 11.4L6.05 6.5L9.45 17.55L2.9 21L-3.3 21L-9.5 17.6L-6.75 8.55L-7.85 9.6L-16.2 4.75L-3.45 -4.3L-3.8 -4.85L-5.8 -3.45L-14.4 -12.65L-9.55 -21L-0.5 -8.25L0 -8.6L-1.4 -10.6L7.8 -19.15L16.2 -14.35L3.4 -5.3L3.8 -4.75L5.8 -6.15M7.6 16.9L2.8 1.3L0.6 -1.8L-0.6 -0.95L0.85 1.05L-4.25 5.8L-7.65 17L-3.45 19.25L-1.65 19.25L-1.05 12L1.15 11.95L1.65 19.25L3.1 19.25L7.6 16.9"/>
<path style="fill:#FFFFFF;fill-opacity:1" d="M0.65 -10.25L8.05 -17.1L13.3 -14.05L1.25 -5.55L3.45 -2.45L5.6 -4L12.45 3.4L9.4 8.65L0.9 -3.4L-2.25 -1.25L-0.7 0.9L-8.1 7.8L-13.35 4.75L-1.25 -3.8L-3.45 -6.9L-5.6 -5.35L-12.45 -12.75L-9.4 -18L-0.9 -5.95L2.2 -8.1L0.65 -10.25M3.1 19.25L1.65 19.25L1.15 11.95L-1.05 12L-1.65 19.25L-3.45 19.25L-7.65 17L-4.25 5.8L0.85 1.05L-0.6 -0.95L0.6 -1.8L2.8 1.3L7.6 16.9L3.1 19.25"/>
</g>
</svg>