<?xml version="1.0" encoding="UTF-8" standalone="no"?>
<!-- Created with Inkscape (http://www.inkscape.org/) -->

<svg
   xmlns:dc="http://purl.org/dc/elements/1.1/"
   xmlns:cc="http://creativecommons.org/ns#"
   xmlns:rdf="http://www.w3.org/1999/02/22-rdf-syntax-ns#"
   xmlns:svg="http://www.w3.org/2000/svg"
   xmlns="http://www.w3.org/2000/svg"
   version="1.1"
   width="26.074337"
   height="41.999977"
   viewBox="0 0 26.074337 41.999977"
   id="svg3175"
   style="overflow:visible">
  <metadata
     id="metadata3191">
    <rdf:RDF>
      <cc:Work
         rdf:about="">
        <dc:format>image/svg+xml</dc:format>
        <dc:type
           rdf:resource="http://purl.org/dc/dcmitype/StillImage" />
        <dc:title></dc:title>
      </cc:Work>
    </rdf:RDF>
  </metadata>
  <defs
     id="defs3177" />
  <g
     transform="matrix(0.08203125,0,0,0.08203125,11.985755,19.273094)"
     id="g3181">
    <g
       transform="matrix(12.688965,0,0,12.688965,12.5,20.1)"
       id="g3183">
      <path
         d="m 7.5,-14.75 -2.9,0 0,-3.35 -3.1,0 0,3.35 -2.9,0 0,-3.35 -3.1,0 0,3.35 -2.9,0 0,-3.35 -3.1,0 0,6.45 2.45,2.95 0,20.05 8,6.35 8.15,-6.35 0,-20.05 2.45,-2.95 0,-6.45 -3.05,0 0,3.35 z m -20,-5.35 25.05,0 0,9.2 -2.45,2.95 0,20.25 -10.15,7.95 -10,-7.95 0,-20.25 -2.45,-2.95 0,-9.2 z m 11.7,13.7 1.8,0 0,3.4 -1.8,0 0,-3.4 z m 4.5,3.4 0,-3.4 1.8,0 0,3.4 -1.8,0 z m -9.1,0 0,-3.4 1.75,0 0,3.4 -1.75,0 z"
         id="path3185"
         style="fill:#000000;stroke-linecap:round;stroke-linejoin:round" />
      <path
         d="m 4.5395728,-14.55782 2.8616963,0 0,-3.305753 3.0097139,0 0,6.364806 -2.4176387,2.9110363 0,19.7851777 -8.0423537,6.266126 -7.8943349,-6.266126 0,-19.7851777 -2.4176387,-2.9110363 0,-6.364806 3.0590536,0 0,3.305753 2.8616963,0 0,-3.305753 3.0590548,0 0,3.305753 2.8616963,0 0,-3.305753 3.0590548,0 0,3.305753 z m -3.55245075,8.2397104 -1.77622533,0 0,3.3550924 1.77622533,0 0,-3.3550924 z m 2.66433795,0 0,3.3550924 1.7762253,0 0,-3.3550924 -1.7762253,0 z m -8.9798059,0 0,3.3550924 1.7268859,0 0,-3.3550924 -1.7268859,0 z"
         id="path3187"
         style="fill:#ffffff;stroke-linecap:round;stroke-linejoin:round" />
    </g>
  </g>
</svg>
