<?xml version="1.0" encoding="UTF-8"?>
<svg version="1.1" id="Layer_1" xmlns="http://www.w3.org/2000/svg" xmlns:xlink="http://www.w3.org/1999/xlink" width="42px" height="41px" xml:space="preserve">
<g id="PathID_66" transform="matrix(1, 0, 0, 1, 21, 20.25)">
<path style="fill:#FFFFFF;fill-opacity:1" d="M5.5 -15.65Q6.8 -14.35 8.5 -10.1L7.9 -9.25Q7.35 -8.3 7.45 -7.65Q7.65 -6.2 8.75 -3.8Q5.4 -1.1 4.55 7.35Q4.45 8.2 5.2 9.95Q5.9 11.7 6.6 12.3Q8.2 13.8 10.45 13.2Q12.85 12.55 14.4 9.8Q15.95 7.2 16.45 3.1Q16.9 -0.4 16.5 -3.75L15.65 -8.75Q15.25 -10.7 15.45 -10.9Q15.7 -11.2 16.65 -9.45Q17.7 -7.4 18.4 -4.3Q19.3 -0.5 19 3.9Q18.6 8.95 16.7 12.65Q14.65 16.85 11.2 17.9L8 18Q6.5 17.6 5.2 16.6Q3.55 15.2 1.95 12.9L0.65 10.9L2 -3.4L0.7 -5.4L2.05 -7.75L6.7 -8.2L4.3 -10.75L-4.3 -10.75L-6.75 -8.2L-2.05 -7.75L-0.7 -5.4L-2.05 -3.4L-0.7 10.9Q-2.55 14.35 -5.25 16.6Q-6.5 17.6 -8 18L-11.25 17.9Q-12.85 17.4 -14.25 16.05Q-15.75 14.65 -16.7 12.65Q-18.6 8.95 -18.95 3.9Q-19.3 -0.5 -18.4 -4.3Q-17.7 -7.4 -16.65 -9.45Q-15.75 -11.2 -15.45 -10.9Q-15.25 -10.7 -15.65 -8.75L-16.5 -3.75Q-16.9 -0.4 -16.45 3.1Q-15.95 7.2 -14.4 9.8Q-12.85 12.55 -10.45 13.2Q-8.2 13.8 -6.6 12.3Q-5.9 11.7 -5.2 9.95Q-4.5 8.15 -4.6 7.35Q-4.85 4.15 -5.65 1.5Q-6.8 -2.25 -8.75 -3.8Q-7.6 -6.6 -7.45 -7.65Q-7.35 -8.3 -7.9 -9.25L-8.5 -10.1L-7.5 -12.4L-5.55 -15.65Q-4 -17.2 -1.9 -18.2L-1.3 -17.9L0 -17.35Q0.95 -17.65 1.9 -18.2L3.15 -17.5L5.5 -15.65"/>
<path style="fill:#000000;fill-opacity:1" d="M3.15 -17.5L1.9 -18.2Q0.95 -17.65 0 -17.35L-1.3 -17.9L-1.9 -18.2Q-4 -17.2 -5.55 -15.65L-7.5 -12.4L-8.5 -10.1L-7.9 -9.25Q-7.35 -8.3 -7.45 -7.65Q-7.6 -6.6 -8.75 -3.8Q-6.8 -2.25 -5.65 1.5Q-4.85 4.15 -4.6 7.35Q-4.5 8.15 -5.2 9.95Q-5.9 11.7 -6.6 12.3Q-8.2 13.8 -10.45 13.2Q-12.85 12.55 -14.4 9.8Q-15.95 7.2 -16.45 3.1Q-16.9 -0.4 -16.5 -3.75L-15.65 -8.75Q-15.25 -10.7 -15.45 -10.9Q-15.75 -11.2 -16.65 -9.45Q-17.7 -7.4 -18.4 -4.3Q-19.3 -0.5 -18.95 3.9Q-18.6 8.95 -16.7 12.65Q-15.75 14.65 -14.25 16.05Q-12.85 17.4 -11.25 17.9L-8 18Q-6.5 17.6 -5.25 16.6Q-2.55 14.35 -0.7 10.9L-2.05 -3.4L-0.7 -5.4L-2.05 -7.75L-6.75 -8.2L-4.3 -10.75L4.3 -10.75L6.7 -8.2L2.05 -7.75L0.7 -5.4L2 -3.4L0.65 10.9L1.95 12.9Q3.55 15.2 5.2 16.6Q6.5 17.6 8 18L11.2 17.9Q14.65 16.85 16.7 12.65Q18.6 8.95 19 3.9Q19.3 -0.5 18.4 -4.3Q17.7 -7.4 16.65 -9.45Q15.7 -11.2 15.45 -10.9Q15.25 -10.7 15.65 -8.75L16.5 -3.75Q16.9 -0.4 16.45 3.1Q15.95 7.2 14.4 9.8Q12.85 12.55 10.45 13.2Q8.2 13.8 6.6 12.3Q5.9 11.7 5.2 9.95Q4.45 8.2 4.55 7.35Q5.4 -1.1 8.75 -3.8Q7.65 -6.2 7.45 -7.65Q7.35 -8.3 7.9 -9.25L8.5 -10.1Q6.8 -14.35 5.5 -15.65L3.15 -17.5M4.2 -19.05L6.9 -16.9Q8.45 -15.3 10.3 -10.7L10.75 -9.6L9.95 -8.7L9.35 -7.7L10.55 -4.45L11.1 -3.1L9.95 -2.15Q8.65 -1.15 7.75 1.45Q6.85 4.05 6.5 7.6Q6.5 8.3 9.25 9.15Q12.1 10.05 12.65 8.95L12.7 8.95L12.7 8.9Q14.1 6.55 14.55 2.9Q14.95 -0.35 14.55 -3.4L13.75 -8.1Q13.4 -9.85 13.4 -10.5Q13.4 -11.55 14.1 -12.2Q14.65 -12.75 15.5 -12.75Q18.35 -12.75 20.3 -4.65Q21.25 -0.45 20.9 4.3Q20.5 9.7 18.45 13.65Q15.95 18.6 11.8 19.85L9.45 20.25Q6.45 20.25 3.95 18.2Q2.7 17.15 0 17.15Q-2.7 17.15 -4 18.2Q-6.45 20.25 -9.45 20.25L-11.85 19.85Q-13.8 19.25 -15.55 17.65Q-17.3 16 -18.45 13.7Q-20.5 9.7 -20.9 4.3Q-21.3 -0.5 -20.3 -4.6Q-19.75 -7.25 -18.8 -9.4Q-17.25 -12.75 -15.5 -12.75Q-14.75 -12.75 -14.1 -12.2Q-13.4 -11.55 -13.4 -10.5Q-13.4 -9.85 -13.75 -8.1L-14.6 -3.4Q-14.95 -0.3 -14.55 2.9Q-14.05 6.6 -12.7 8.9L-12.7 8.95Q-12.1 10.05 -9.25 9.15Q-6.5 8.3 -6.5 7.65Q-7.3 -0.05 -9.95 -2.15L-11.15 -3.1L-10.55 -4.45Q-9.5 -6.85 -9.4 -7.7L-10 -8.7L-10.75 -9.6L-10.3 -10.7Q-8.45 -15.3 -6.9 -16.9Q-5.15 -18.7 -2.75 -19.85L-1.8 -20.25L0 -19.3L1.8 -20.25L2.75 -19.85L4.2 -19.05"/>
</g>
</svg>