<?xml version="1.0" encoding="UTF-8" standalone="no"?>
<!-- Created with Inkscape (http://www.inkscape.org/) -->

<svg
   xmlns:dc="http://purl.org/dc/elements/1.1/"
   xmlns:cc="http://creativecommons.org/ns#"
   xmlns:rdf="http://www.w3.org/1999/02/22-rdf-syntax-ns#"
   xmlns:svg="http://www.w3.org/2000/svg"
   xmlns="http://www.w3.org/2000/svg"
   xmlns:sodipodi="http://sodipodi.sourceforge.net/DTD/sodipodi-0.dtd"
   xmlns:inkscape="http://www.inkscape.org/namespaces/inkscape"
   version="1.1"
   width="24.75"
   height="42"
   viewBox="0 0 24.75 42"
   id="svg3349"
   style="overflow:visible"
   inkscape:version="0.48.2 r9819"
   sodipodi:docname="lighthouse.svg">
  <sodipodi:namedview
     pagecolor="#ffffff"
     bordercolor="#666666"
     borderopacity="1"
     objecttolerance="10"
     gridtolerance="10"
     guidetolerance="10"
     inkscape:pageopacity="0"
     inkscape:pageshadow="2"
     inkscape:window-width="640"
     inkscape:window-height="480"
     id="namedview3261"
     showgrid="false"
     fit-margin-top="0"
     fit-margin-left="0"
     fit-margin-right="0"
     fit-margin-bottom="0"
     inkscape:zoom="0.4609375"
     inkscape:cx="181.65351"
     inkscape:cy="-154.84664"
     inkscape:window-x="0"
     inkscape:window-y="0"
     inkscape:window-maximized="0"
     inkscape:current-layer="svg3349" />
  <metadata
     id="metadata3367">
    <rdf:RDF>
      <cc:Work
         rdf:about="">
        <dc:format>image/svg+xml</dc:format>
        <dc:type
           rdf:resource="http://purl.org/dc/dcmitype/StillImage" />
        <dc:title />
      </cc:Work>
    </rdf:RDF>
  </metadata>
  <defs
     id="defs3351" />
  <g
     transform="translate(12.35,21)"
     id="g3355">
    <g
       id="g3357">
      <g
         id="g3359">
        <path
           d="m -0.45,-21 1,0 6.75,3.1 0,4.15 1.3,0.4 0,6.3 -1.7,0 1.4,20.75 4.1,0 0,7.3 -24.75,0 0,-7.3 4.1,0 1.4,-20.75 -1.7,0 0,-6.3 1.3,-0.4 0,-4.15 6.8,-3.1 z m 0.55,1.9 -0.15,0 -5.3,2.4 0,1 1,0 0,4.8 -1.65,0 0,-0.55 -0.65,0 0,2.5 1.85,0 -1.65,24.6 -3.95,0 0,3.45 20.85,0 0,-3.45 -3.95,0 -1.65,-24.6 1.85,0 0,-2.5 -0.65,0 0,0.55 -1.65,0 0,-4.8 1,0 0,-1 -5.3,-2.4 z m 3.5,18.3 0,5 -2.25,0 0,-5 2.25,0 z m -4.65,-7.45 0,3.6 -1.65,0 0,-3.6 1.65,0 z m 0.1,17.4 0,6.4 -2.9,0 0,-6.4 2.9,0 z"
           id="path3361"
           style="fill:#000000;stroke-linecap:round;stroke-linejoin:round"
           inkscape:connector-curvature="0" />
        <path
           d="m -0.05,-19.1 0.15,0 5.3,2.4 0,1 -1,0 0,4.8 1.65,0 0,-0.55 0.65,0 0,2.5 -1.85,0 1.65,24.6 3.95,0 0,3.45 -20.85,0 0,-3.45 3.95,0 1.65,-24.6 -1.85,0 0,-2.5 0.65,0 0,0.55 1.65,0 0,-4.8 -1,0 0,-1 5.3,-2.4 z m 3.65,23.3 0,-5 -2.25,0 0,5 2.25,0 z m -4.65,-8.85 0,-3.6 -1.65,0 0,3.6 1.65,0 z m 0.1,20.2 0,-6.4 -2.9,0 0,6.4 2.9,0 z"
           id="path3363"
           style="fill:#ffffff;stroke-linecap:round;stroke-linejoin:round"
           inkscape:connector-curvature="0" />
      </g>
    </g>
  </g>
</svg>
