<?xml version="1.0" encoding="UTF-8" standalone="no"?>
<!-- Created with Inkscape (http://www.inkscape.org/) -->

<svg
   xmlns:dc="http://purl.org/dc/elements/1.1/"
   xmlns:cc="http://creativecommons.org/ns#"
   xmlns:rdf="http://www.w3.org/1999/02/22-rdf-syntax-ns#"
   xmlns:svg="http://www.w3.org/2000/svg"
   xmlns="http://www.w3.org/2000/svg"
   version="1.1"
   width="32.349998"
   height="42"
   viewBox="0 0 32.349998 42"
   id="svg3737"
   style="overflow:visible">
  <metadata
     id="metadata3755">
    <rdf:RDF>
      <cc:Work
         rdf:about="">
        <dc:format>image/svg+xml</dc:format>
        <dc:type
           rdf:resource="http://purl.org/dc/dcmitype/StillImage" />
        <dc:title></dc:title>
      </cc:Work>
    </rdf:RDF>
  </metadata>
  <defs
     id="defs3739" />
  <g
     transform="translate(16.15,21)"
     id="g3743">
    <g
       id="g3745">
      <g
         id="g3747">
        <path
           d="m 1.15,-20.9 0.3,-0.1 0.35,0.1 2.8,2.8 0.15,0.3 -0.15,0.35 -1.2,1.25 6.45,7.6 0.1,0.3 -0.1,0.3 -1.6,1.55 0.05,0.2 0,7.15 4.65,0 0.3,0.1 0.2,0.25 2.75,12.1 0,0.25 -0.15,0.2 -7.95,7.1 -0.25,0.1 -0.2,0 -0.2,-0.15 -3.35,-4 -8.15,0 -3.35,4 -0.15,0.15 -0.3,0 -0.2,-0.1 -7.95,-7.1 -0.1,-0.2 -0.05,-0.25 2.75,-12.1 0.2,-0.25 0.25,-0.1 4.7,0 0,-7.15 0.05,-0.2 -1.6,-1.55 -0.15,-0.3 0.15,-0.3 6.45,-7.6 -1.2,-1.25 -0.15,-0.35 0.15,-0.3 2.8,-2.8 0.2,-0.05 0.25,0 0.25,0.05 1.05,1.2 1.15,-1.2 z m 1.8,3.1 -1.5,-1.45 -1.45,1.55 -1.45,-1.55 -1.5,1.45 1.45,1.5 -6.65,7.9 1.55,1.55 1.55,-1.55 0.3,3.05 -2.1,0 0,7.65 -1.95,0 0,3.4 -0.9,0 0,-3.4 -2.5,0 -2.45,10.8 6.8,6.05 3.15,-3.65 3.1,0 0,-7.55 3.2,0 0,7.55 3.15,0 3.1,3.65 6.85,-6.05 -2.5,-10.8 -2.45,0 0,3.4 -0.95,0 0,-3.4 -1.9,0 0,-7.65 -2.1,0 0.3,-3.05 1.5,1.55 1.65,-1.55 -6.7,-7.9 1.4,-1.5 z m -0.45,16.25 0,-1.8 1.8,0 0,1.8 -1.8,0 z m -4.95,-1.8 0,1.8 -1.85,0 0,-1.8 1.85,0 z"
           id="path3749"
           style="fill:#000000;stroke-linecap:round;stroke-linejoin:round" />
        <path
           d="m 1.45,-19.25 1.5,1.45 -1.4,1.5 6.7,7.9 -1.65,1.55 -1.5,-1.55 -0.3,3.05 2.1,0 0,7.65 1.9,0 0,3.4 0.95,0 0,-3.4 2.45,0 2.5,10.8 -6.85,6.05 -3.1,-3.65 -3.15,0 0,-7.55 -3.2,0 0,7.55 -3.1,0 -3.15,3.65 -6.8,-6.05 2.45,-10.8 2.5,0 0,3.4 0.9,0 0,-3.4 1.95,0 0,-7.65 2.1,0 -0.3,-3.05 -1.55,1.55 -1.55,-1.55 6.65,-7.9 -1.45,-1.5 1.5,-1.45 1.45,1.55 1.45,-1.55 z m 1.05,15.9 0,1.8 1.8,0 0,-1.8 -1.8,0 z m -4.95,1.8 0,-1.8 -1.85,0 0,1.8 1.85,0 z"
           id="path3751"
           style="fill:#ffffff;stroke-linecap:round;stroke-linejoin:round" />
      </g>
    </g>
  </g>
</svg>
