<?xml version="1.0" encoding="UTF-8"?>
<svg version="1.1" id="Layer_1" xmlns="http://www.w3.org/2000/svg" xmlns:xlink="http://www.w3.org/1999/xlink" width="28px" height="42px" xml:space="preserve">
<g id="PathID_68" transform="matrix(1, 0, 0, 1, 13.55, 21)">
<path style="fill:#000000;fill-opacity:1" d="M1.8 -18.05L4.9 -15.65L4.75 -13.2L7.5 -12.6L9.7 -10.65L9.7 -9.8L13.6 -10.4L12.9 -1.65L13.45 1.7L13.4 1.95L13.15 4.85L13.15 5L13.1 5.1L12.6 7.55L13.5 8.25L12.65 16.65L5.05 21L0.05 21L-9.4 15.8L-9.2 11.2L-9.7 8.2L-10.2 6.5L-10.2 6.35L-10.45 4.7L-13.55 -0.95L-10.35 -1.4L-10 -3.65L-10.35 -7.1Q-10.8 -11.05 -10.65 -12.85Q-10.55 -14.1 -10.1 -14.65Q-9.85 -15.25 -9.45 -17.8L-9.3 -19L-3.75 -21L0.95 -19.85L1.8 -18.05M0 -16.75L-0.65 -18.15L-3.85 -18.95L-7.7 -17.55Q-8.2 -13.95 -8.7 -13.45Q-9 -13.15 -8.85 -10.2L-8.6 -7.3L-8.2 -3.6L-8.85 0.35L-10.6 0.6L-8.7 4.05L-8.45 6.1L-7.95 7.75L-7.45 11.1L-7.55 14.65L0.35 19L4.3 19L10.6 15.4L11.2 9.15L10.2 8.4L10.95 4.7L11.2 1.75L10.7 -1.55L11.2 -8.05L9.55 -7.8L8.4 -6.75L7.5 -8.5L7.5 -9.75L6.35 -10.8L4.45 -11.15L2.3 -9.1L2.65 -14.7L0 -16.75M-2.85 -8.45L-4.5 -8.45L-4.5 -11.8L-2.85 -11.8L-2.85 -8.45M5.35 4.25L6.75 4.45L6.75 12.6L0.75 12.6L1.3 9.75Q2.05 6.65 2.9 5.45Q3.8 4.25 5.35 4.25"/>
<path style="fill:#FFFFFF;fill-opacity:1" d="M2.65 -14.7L2.3 -9.1L4.45 -11.15L6.35 -10.8L7.5 -9.75L7.5 -8.5L8.4 -6.75L9.55 -7.8L11.2 -8.05L10.7 -1.55L11.2 1.75L10.95 4.7L10.2 8.4L11.2 9.15L10.6 15.4L4.3 19L0.35 19L-7.55 14.65L-7.45 11.1L-7.95 7.75L-8.45 6.1L-8.7 4.05L-10.6 0.6L-8.85 0.35L-8.2 -3.6L-8.6 -7.3L-8.85 -10.2Q-9 -13.15 -8.7 -13.45Q-8.2 -13.95 -7.7 -17.55L-3.85 -18.95L-0.65 -18.15L0 -16.75L2.65 -14.7M-2.85 -11.8L-4.5 -11.8L-4.5 -8.45L-2.85 -8.45L-2.85 -11.8M2.9 5.45Q2.05 6.65 1.3 9.75L0.75 12.6L6.75 12.6L6.75 4.45L5.35 4.25Q3.8 4.25 2.9 5.45"/>
</g>
</svg>