<?xml version="1.0" encoding="UTF-8"?>
<svg version="1.1" id="Layer_1" xmlns="http://www.w3.org/2000/svg" xmlns:xlink="http://www.w3.org/1999/xlink" width="42px" height="39px" xml:space="preserve">
<g id="PathID_65" transform="matrix(1, 0, 0, 1, 21, 19.2)">
<path style="fill:#FFFFFF;fill-opacity:1" d="M14.8 -0.5Q19.05 5.65 19.25 12.8L17.95 13.3L17.35 9.9Q16.35 5.85 14.45 2.4Q11.6 -2.85 6.05 -6.2L1.05 -8.55L1.05 -4.7L5.05 -3.3Q9.6 -1.2 12.05 2.4Q14.55 5.95 16.05 10.05L17 13.4L3.95 16.6Q3.65 11.5 0 6.85Q-3.65 11.5 -3.95 16.6L-17 13.4L-16 10.05Q-14.55 5.95 -12.05 2.4Q-9.6 -1.2 -5.05 -3.3Q-2.8 -4.35 -1.05 -4.7L-1.05 -8.55Q-3.25 -7.9 -6 -6.2Q-11.55 -2.85 -14.45 2.4Q-16.3 5.85 -17.35 9.9L-18 13.3L-19.25 12.8Q-19.05 5.6 -14.8 -0.5Q-10 -7.45 -1.05 -11.25L-1.05 -12.15L0 -14.6L1.05 -12.15L1.05 -11.25Q9.95 -7.45 14.8 -0.5M-9.8 5.95L-5.5 5.95L-7.65 2.85L-9.8 5.95M9.75 5.95L7.65 2.85L5.5 5.95L9.75 5.95"/>
<path style="fill:#000000;fill-opacity:1" d="M1.05 -11.25L1.05 -12.15L0 -14.6L-1.05 -12.15L-1.05 -11.25Q-10 -7.45 -14.8 -0.5Q-19.05 5.6 -19.25 12.8L-18 13.3L-17.35 9.9Q-16.3 5.85 -14.45 2.4Q-11.55 -2.85 -6 -6.2Q-3.25 -7.9 -1.05 -8.55L-1.05 -4.7Q-2.8 -4.35 -5.05 -3.3Q-9.6 -1.2 -12.05 2.4Q-14.55 5.95 -16 10.05L-17 13.4L-3.95 16.6Q-3.65 11.5 0 6.85Q3.65 11.5 3.95 16.6L17 13.4L16.05 10.05Q14.55 5.95 12.05 2.4Q9.6 -1.2 5.05 -3.3L1.05 -4.7L1.05 -8.55L6.05 -6.2Q11.6 -2.85 14.45 2.4Q16.35 5.85 17.35 9.9L17.95 13.3L19.25 12.8Q19.05 5.65 14.8 -0.5Q9.95 -7.45 1.05 -11.25M15.85 -2.35Q20.7 4.35 20.95 12.5L21 14.1L0.1 19.2L-21 14.1L-20.95 12.5Q-20.7 4.35 -15.9 -2.35Q-11.1 -9.05 -2.75 -12.9L-0.05 -19.2L2.65 -12.9Q11 -9.05 15.85 -2.35M-7.65 2.85L-5.5 5.95L-9.8 5.95L-7.65 2.85M5.5 5.95L7.65 2.85L9.75 5.95L5.5 5.95"/>
</g>
</svg>