<svg width="44" height="35" xmlns="http://www.w3.org/2000/svg" preserveAspectRatio="xMidYMid meet">

 <g>
  <title>background</title>
  <rect fill="none" id="canvas_background" height="41" width="42" y="-1" x="-1"/>
 </g>
 <g>
  <title>Layer 1</title>
  <path d="m19.195585,33.939232c0,0 -0.064976,0 -0.129953,0c-0.129955,0 -0.259909,0 -0.454842,0c-0.194931,0 -0.389862,0 -0.649771,0c-0.194933,0 -0.389864,0 -0.649773,0c-0.194931,0 -0.45484,0 -0.714748,0c-0.324886,0 -0.519817,0 -0.779727,0c-0.194932,0 -0.389863,0 -0.649772,0c-0.259909,0 -0.519817,-0.129955 -0.779727,-0.129955c-0.324885,0 -0.64495,-0.03233 -0.974658,-0.064976c-0.323304,-0.032013 -0.584794,0 -0.779726,0c-0.259909,0 -0.454841,0 -0.714749,0c-0.259909,0 -0.649772,0 -0.90968,0c-0.324886,0 -0.584795,0 -0.844704,0c-0.259909,0 -0.584795,0 -0.909681,0c-0.194931,0 -0.414593,0.059345 -0.714748,-0.06498c-0.169792,-0.070328 -0.327404,-0.098724 -0.519818,-0.129951c-0.202823,-0.032913 -0.465189,-0.169632 -0.649772,-0.259911c-0.210456,-0.102932 -0.262425,-0.163708 -0.45484,-0.194931c-0.202822,-0.032913 -0.329175,-0.186981 -0.454841,-0.259907c-0.202631,-0.117592 -0.389863,-0.324886 -0.389863,-0.324886c-0.194932,-0.06498 -0.298504,-0.163288 -0.45484,-0.259911c-0.174788,-0.108025 -0.39334,-0.165073 -0.519818,-0.194931c-0.141407,-0.033382 -0.246718,-0.211597 -0.324886,-0.259909c-0.174788,-0.108027 -0.436265,-0.208687 -0.584795,-0.389864c-0.058259,-0.071064 -0.092001,-0.244385 -0.194932,-0.45484c-0.090276,-0.184582 0.037504,-0.483953 -0.064977,-0.649773c-0.076385,-0.123594 -0.144523,-0.253595 -0.194932,-0.389862c-0.09295,-0.251266 -0.085134,-0.436583 -0.259909,-0.649773c-0.14853,-0.181177 -0.20837,-0.312714 -0.324886,-0.45484c-0.148531,-0.181179 -0.157171,-0.417082 -0.259909,-0.519819c-0.102737,-0.102737 -0.194932,-0.194931 -0.259909,-0.324884c0,0 -0.115026,-0.001738 -0.129954,-0.064978c-0.033381,-0.141407 -0.064977,-0.194931 -0.064977,-0.259909c0,-0.129955 -0.064977,-0.324886 -0.064977,-0.519817c0,-0.064978 -0.031756,-0.261856 0,-0.519817c0.032734,-0.265902 0.181276,-0.589891 0.259909,-0.779728c0.111202,-0.268467 0.194932,-0.519817 0.324886,-0.909679c0.064977,-0.194933 0.139554,-0.51614 0.259909,-0.844704c0.070675,-0.19294 0.089106,-0.373407 0.259909,-0.649773c0.152771,-0.247189 0.165501,-0.657074 0.259909,-0.974657c0.099707,-0.335407 0.150146,-0.525034 0.194932,-0.71475c0.066763,-0.282814 0.213684,-0.446281 0.324886,-0.714748c0.078632,-0.189837 0.165131,-0.435522 0.259909,-0.649773c0.108383,-0.245005 0.003335,-0.594799 0.064977,-0.779726c0.102738,-0.308214 0.332415,-0.45249 0.389863,-0.649773c0.074903,-0.257223 0.295671,-0.496502 0.45484,-0.779726c0.171431,-0.305042 0.349344,-0.460058 0.454841,-0.714748c0.099463,-0.240124 0.228265,-0.363483 0.324886,-0.519819c0.108025,-0.174788 0.280052,-0.346815 0.45484,-0.45484c0.234503,-0.14493 0.352103,-0.276581 0.454841,-0.584795c0.041095,-0.123285 0.157385,-0.402257 0.259909,-0.649772c0.14499,-0.350038 0.357216,-0.64495 0.389863,-0.974658c0.038416,-0.387966 0.028115,-0.718266 0.064978,-0.90968c0.066171,-0.343599 0.194931,-0.649773 0.194931,-0.909681c0,-0.259909 0.1163,-0.524914 0.194932,-0.714749c0.111203,-0.268467 0.163708,-0.457356 0.194932,-0.649772c0.032913,-0.202822 0.185312,-0.339725 0.259909,-0.519817c0.105495,-0.25469 0.256995,-0.295591 0.324885,-0.519817c0.037659,-0.124378 0.064978,-0.194932 0.064978,-0.324886c0,-0.129954 0.027318,-0.265485 0.064977,-0.389863c0.06789,-0.224227 0.129954,-0.324886 0.129954,-0.454841c0,-0.194931 0,-0.324886 0,-0.519817c0,-0.129954 0,-0.324886 0,-0.519818c0,-0.194932 0,-0.389863 0,-0.519817c0,-0.194932 0.049731,-0.334778 0,-0.454841c-0.035165,-0.084897 -0.064977,-0.194932 -0.064977,-0.259909c0,-0.129954 0,-0.259909 0,-0.389863c0,-0.064977 0,-0.194932 0,-0.324886c0,-0.129954 0.064977,-0.324886 0.064977,-0.45484c0,-0.064977 0.139766,-0.028241 0.25991,-0.194932c0.037992,-0.052712 0.110035,-0.094789 0.194931,-0.129954c0.180094,-0.074597 0.585939,-0.032243 1.039636,0c0.458302,0.03257 0.979682,-0.007122 1.494475,0.064977c0.468469,0.065611 0.971196,0.292315 1.429499,0.324886c0.583323,0.041455 1.236116,0.037515 1.689406,0c0.393895,-0.032599 0.779726,-0.129954 1.039635,-0.129954c0.194933,0 0.383873,-0.032243 0.649773,-0.064977c0.257961,-0.031756 0.649773,-0.064977 0.909681,-0.064977c0.389862,0 0.651409,0.00771 0.974657,-0.064977c0.261381,-0.058776 0.459938,-0.051322 0.649773,-0.129954c0.134233,-0.055601 0.244385,-0.156979 0.45484,-0.259909c0.184584,-0.090277 0.244385,-0.156978 0.454842,-0.259909c0.184582,-0.090276 0.253595,-0.2095 0.389862,-0.259909c0.251266,-0.09295 0.439318,-0.156978 0.649773,-0.259909c0.184582,-0.090276 0.446949,-0.162018 0.649773,-0.194932c0.128275,-0.020816 0.194931,0 0.324884,0c0.129955,0 0.339359,-0.017934 0.584795,0.194932c0.208261,0.180623 0.426004,0.479211 0.649773,0.714749c0.349539,0.367923 0.532034,0.586485 0.844704,0.779727c0.349577,0.216051 0.652693,0.277251 1.039635,0.324886c0.2659,0.032734 0.649773,0.129954 1.104612,0.129954c0.454842,0 0.909681,0 1.364521,0c0.389864,0 0.779726,0 1.16959,0c0.389864,0 0.779726,0.064977 1.16959,0.064977c0.259909,0 0.578804,0.032244 0.844704,0.064978c0.257961,0.031757 0.584795,0 0.844704,0c0.259907,0 0.454842,0 0.649773,0c0.194931,0 0.328362,0.029857 0.454838,0c0.141407,-0.033382 0.175011,-0.09479 0.259911,-0.129955c0.120064,-0.049731 0.175011,-0.094789 0.259907,-0.129954c0.060032,-0.024867 0.168018,0.026915 0.259911,-0.064977c0.045944,-0.045946 0.064976,-0.064977 0.129955,-0.064977c0.064976,0 0.129951,0 0.194931,0c0.064976,0 0.097042,0.122063 0.129955,0.324886c0.031227,0.192415 0.097038,0.44695 0.129951,0.649772c0.031223,0.192415 0,0.454841 0,0.584795c0,0.194932 0.06498,0.389863 0.06498,0.584795c0,0.259909 -0.031223,0.457357 0,0.649772c0.032913,0.202823 0.064976,0.389863 0.064976,0.584795c0,0.259909 0.033222,0.521765 0.06498,0.779726c0.032734,0.265901 0.097038,0.576904 0.129951,0.779726c0.041634,0.256554 0.033222,0.521766 0.06498,0.779727c0.032734,0.265901 0.064976,0.389864 0.129951,0.584795c0.06498,0.194932 0.129955,0.389862 0.194935,0.584794c0.064976,0.194931 0.086903,0.34503 0.194931,0.519818c0.096622,0.156335 0.228264,0.298504 0.324886,0.45484c0.108025,0.174788 0.163284,0.298506 0.259907,0.454841c0.108028,0.174788 0.129955,0.389862 0.259911,0.519817c0.064976,0.064977 0.207294,0.25221 0.324886,0.454841c0.145851,0.25133 0.280064,0.436582 0.454838,0.649772c0.148529,0.181178 0.259911,0.389864 0.454842,0.649773c0.194931,0.259909 0.371925,0.53429 0.584793,0.779726c0.180626,0.20826 0.35191,0.374338 0.454842,0.584795c0.090275,0.184582 0.129955,0.389862 0.194931,0.519817c0.06498,0.129955 0.148708,0.316328 0.259911,0.584795c0.078632,0.189835 0.142315,0.382168 0.259907,0.584795c0.072926,0.125666 0.156979,0.309361 0.259911,0.519817c0.090275,0.184582 0.151882,0.34503 0.259907,0.519817c0.096622,0.156336 0.259911,0.389862 0.389866,0.519817c0.129951,0.129953 0.174953,0.271996 0.259907,0.389864c0.05373,0.074549 0.116299,0.200027 0.194931,0.389862c0.055603,0.134235 0.129955,0.324886 0.194935,0.454842c0.064976,0.129953 0.129951,0.259907 0.194931,0.389862c0.06498,0.129955 0.139328,0.320606 0.194931,0.454842c0.078632,0.189835 0.194927,0.389862 0.259907,0.584795c0.064976,0.194931 0.194931,0.519817 0.324886,0.844704c0.129955,0.324884 0.256996,0.490522 0.324886,0.714748c0.056488,0.186567 0.07251,0.387512 0.129955,0.584795c0.074902,0.257223 0.064976,0.45484 0.064976,0.584795c0,0.064976 0,0.194931 0,0.259909c0,0.194931 0,0.259909 0,0.389862c0,0.129955 0.044785,0.265123 0,0.454842c-0.033382,0.141405 -0.064976,0.324886 -0.129951,0.45484c-0.06498,0.129955 -0.109982,0.336971 -0.194935,0.45484c-0.05373,0.074545 -0.219387,0.20015 -0.324886,0.454842c-0.024868,0.060032 0.024864,0.134899 0,0.194931c-0.035164,0.084896 -0.161549,0.248455 -0.194931,0.389864c-0.029858,0.126476 -0.019028,0.213963 -0.064976,0.259909c-0.045944,0.045944 -0.051323,0.070074 -0.129955,0.259909c-0.055603,0.134232 -0.235039,0.264854 -0.259907,0.324886c-0.035168,0.084896 -0.194931,0.194931 -0.324886,0.324884c-0.129955,0.129955 -0.324886,0.259909 -0.389866,0.324886c-0.064976,0.064976 -0.110813,0.152449 -0.259907,0.259909c-0.11787,0.084955 -0.336971,0.174955 -0.454842,0.259909c-0.149094,0.10746 -0.305748,0.217428 -0.454838,0.324886c-0.11787,0.084955 -0.298508,0.163288 -0.454842,0.259909c-0.174789,0.108025 -0.434921,0.159767 -0.519817,0.194931c-0.120064,0.049732 -0.324886,0.129955 -0.454842,0.194931c-0.129955,0.06498 -0.23999,0.094791 -0.324886,0.129955c-0.060032,0.024864 -0.194931,0 -0.324886,0c-0.194931,0 -0.391541,0.109138 -0.519817,0.129955c-0.202824,0.032913 -0.318893,0.097221 -0.584793,0.129955c-0.257961,0.031757 -0.586433,0.057266 -0.909683,0.129955c-0.261379,0.058777 -0.389862,0.064976 -0.454838,0.064976c-0.129955,0 -0.259911,0.064976 -0.519817,0.064976c-0.324886,0 -0.65229,-0.031227 -0.844704,0c-0.202824,0.032913 -0.391445,0.032967 -0.714748,0.06498c-0.329708,0.032646 -0.656727,0.00526 -0.909683,0.064976c-0.282814,0.066765 -0.39081,0.110748 -0.584795,0.129955c-0.329706,0.032646 -0.584793,0.064976 -0.779726,0.064976c-0.194931,0 -0.389862,0 -0.519817,0c-0.194931,0 -0.389862,0 -0.714748,0c-0.194933,0 -0.389864,0 -0.519817,0c-0.194933,0 -0.456106,0.104343 -0.71475,0.129955c-0.329708,0.032646 -0.519817,0.064976 -0.714748,0.064976c-0.129955,0 -0.326347,0.041164 -0.519817,0.06498c-0.2659,0.032734 -0.454842,0.129951 -0.71475,0.129951c-0.259909,0 -0.457357,-0.031227 -0.649771,0c-0.202824,0.032913 -0.324886,0.06498 -0.519819,0.06498c-0.129953,0 -0.324884,0 -0.519817,0c-0.129953,0 -0.389862,0 -0.584795,0c-0.194931,0 -0.389862,0 -0.584793,0c-0.129955,0 -0.324886,0 -0.454842,0c-0.129953,0 -0.324886,0 -0.45484,0c-0.129955,0 -0.324886,0 -0.389864,0c-0.064978,0 -0.194931,0 -0.324886,0c-0.129953,0 -0.194931,0 -0.259909,0c-0.064976,0 -0.129953,0 -0.259909,0c-0.129953,0 -0.259909,0 -0.324886,0c-0.064976,0 -0.194931,0 -0.259909,0c-0.064976,0 -0.194931,0 -0.324884,0c-0.064978,0 -0.064978,0 -0.129955,0c-0.064978,0 -0.129955,0 -0.194931,0c-0.064978,0 -0.148987,0.045948 -0.194933,0c-0.045948,-0.045948 -0.064976,-0.06498 -0.129953,-0.06498l-0.064978,0" id="svg_9" stroke-opacity="null" stroke-width="null" stroke="null" fill="#3b81f7"/>
  <g id="svg_1" fill="#000000" transform="translate(0,35) scale(0.10000000149011612,-0.10000000149011612) ">
   <path id="svg_2" d="m193,322c-3,-15 -14,-17 -60,-15l-55,2l4,-31c4,-24 -5,-50 -33,-103c-50,-90 -51,-128 -6,-156c29,-18 46,-20 182,-17c131,3 154,6 178,23c25,18 27,25 24,62c-3,25 -19,68 -39,101c-26,44 -34,66 -30,90l4,32l-55,-4c-48,-3 -56,-1 -60,15c-7,25 -47,25 -54,1zm45,-34c14,-14 73,-17 90,-4c10,7 12,4 7,-15c-5,-19 5,-45 34,-100c47,-85 49,-99 20,-125c-22,-19 -22,-19 -10,3c19,36 -6,38 -54,4c-65,-47 -74,-43 -77,37c-3,64 -4,67 -28,67c-23,0 -25,-3 -27,-55c-1,-30 -2,-61 -2,-67c-2,-22 -35,-14 -73,17c-42,35 -75,33 -56,-3c11,-22 11,-22 -11,-3c-29,26 -27,40 20,125c29,55 39,81 34,100c-5,19 -3,22 7,15c17,-13 76,-10 90,4c7,7 15,12 18,12c3,0 11,-5 18,-12z"/>
   <path id="svg_3" d="m160,262c0,-7 -3,-11 -7,-11c-20,3 -23,-3 -12,-23c12,-22 11,-22 -6,-8c-17,14 -18,13 -13,-7c4,-16 2,-20 -10,-16c-12,5 -14,1 -10,-15c3,-12 3,-21 -1,-20c-18,2 -22,-4 -11,-17c17,-20 44,-20 36,1c-4,10 -2,13 6,8c8,-5 9,-1 4,12c-4,10 -4,15 0,11c9,-8 36,42 29,53c-3,5 1,10 7,13c10,4 11,7 1,18c-10,9 -13,10 -13,1z"/>
   <path id="svg_4" d="m264,259c-4,-7 -3,-14 4,-17c6,-2 9,-9 6,-17c-3,-7 -1,-16 5,-19c5,-4 13,4 17,16c8,25 7,28 -2,27c-4,0 -10,5 -14,11c-6,9 -9,9 -16,-1z"/>
   <path id="svg_5" d="m198,223c-21,-24 -34,-52 -42,-88c-6,-28 -5,-27 17,10c17,29 29,40 47,40c18,0 30,-11 47,-40c22,-37 23,-38 17,-10c-11,48 -45,105 -64,105c-4,0 -14,-8 -22,-17z"/>
   <path id="svg_6" d="m299,209c-6,-12 -7,-24 -3,-28c5,-3 9,-12 10,-18c2,-29 5,-33 18,-33c19,0 40,26 27,34c-5,4 -12,2 -16,-4c-3,-5 -12,-10 -18,-10c-7,0 -4,5 6,11c20,12 24,44 3,36c-10,-4 -12,0 -9,14c7,25 -3,24 -18,-2z"/>
   <path id="svg_7" d="m66,124c-10,-27 -7,-34 18,-34c33,0 43,18 20,35c-25,19 -31,18 -38,-1z"/>
   <path id="svg_8" d="m338,126c-20,-15 -6,-36 24,-36c19,0 22,8 12,34c-7,19 -14,20 -36,2z"/>
  </g>
 </g>
</svg>