<?xml version="1.0" encoding="UTF-8" standalone="no"?>
<!-- Created with Inkscape (http://www.inkscape.org/) -->

<svg
   xmlns:dc="http://purl.org/dc/elements/1.1/"
   xmlns:cc="http://creativecommons.org/ns#"
   xmlns:rdf="http://www.w3.org/1999/02/22-rdf-syntax-ns#"
   xmlns:svg="http://www.w3.org/2000/svg"
   xmlns="http://www.w3.org/2000/svg"
   version="1.1"
   width="38.25"
   height="42"
   viewBox="0 0 38.25 42"
   id="svg3537"
   style="overflow:visible">
  <metadata
     id="metadata3555">
    <rdf:RDF>
      <cc:Work
         rdf:about="">
        <dc:format>image/svg+xml</dc:format>
        <dc:type
           rdf:resource="http://purl.org/dc/dcmitype/StillImage" />
        <dc:title></dc:title>
      </cc:Work>
    </rdf:RDF>
  </metadata>
  <defs
     id="defs3539" />
  <g
     transform="translate(19.1,21)"
     id="g3543">
    <g
       id="g3545">
      <g
         id="g3547">
        <path
           d="m 13.65,-19.55 -0.45,0.8 -0.7,1.3 1.9,0 0,16.45 -0.3,3 1.1,0.85 3.95,3.05 -0.45,5.25 -0.2,0.05 -5.25,0.4 L 8.1,4.75 7.6,4.6 7.1,4.75 6.6,4.85 6,4.95 l -0.05,9 c 1.8,-1.8 3.3,-3.8 4.5,-6 l 0.85,1.1 c -2.533334,4.433334 -5.983334,7.9 -10.35,10.4 l -0.3,0.25 -1.05,0 -0.25,-0.25 C -5.15,16.916666 -8.633333,13.366666 -11.1,8.8 l -0.85,1.05 -1.3,1.65 -0.1,0 -0.1,0.05 -5.25,-0.45 -0.4,-5.25 4.3,-3.2 1,-0.65 0,-0.1 -0.35,-2.9 0,-16.45 1.8,0 -0.45,-0.8 -0.7,-1.3 0.7,-0.65 0.7,-0.75 0.1,0.05 0.1,-0.1 4,2.25 2.3,1.3 11.5,0 1.45,-0.8 4.7,-2.65 0.2,-0.05 1.4,1.4 z m -1.6,-1.35 0.05,0.05 z m -6.15,3.45 0.05,0 z m -18.7,-2.75 0,-0.05 z M 6,4.95 l -0.05,0 z m -3,-19.4 c -0.033333,0.566667 -1.0333333,2 -3,4.3 -2,-2.333334 -3.0166667,-3.783333 -3.05,-4.35 l -8.8,-4.95 4.9,8.8 1.3,0.65 3.2,2.5 -3.2,2.85 -0.4,0.3 c -1.6,1.3 -2.7,2.1 -3.3,2.4 -0.1,-1 0.1,-1.8833335 0.6,-2.65 l 0.2,-0.2 0,-0.1 -0.1,-1 -0.05,-0.15 -0.15,0 -1.1,0.15 -0.1,0 -0.2,0.3 c -0.566667,0.8333336 -0.883333,1.7833336 -0.95,2.85 -0.06667,1.0666667 0.133333,2.0666667 0.6,3 -0.366666,0.23333335 -0.516666,0.5666667 -0.45,1 l -6.7,5.05 0.25,3.45 3.45,0.3 5.25,-6.8 0.75,-0.3 0.2,0.05 2.2,0.55 0.75,0 c 1.0333334,-0.1 1.9666668,-0.4333332 2.8,-1 l 0.3,-0.2 0.2,-1.15 0,-0.2 -0.2,0 -1,-0.1 -0.3,0.15 C -3.8666668,1.5833334 -4.7166667,1.8000001 -5.65,1.7 -5.35,1.1 -4.5333333,-1.1920929e-7 -3.2,-1.6 L 0,-5.2 C 3.1000001,-1.8999999 4.9666667,0.4000001 5.6,1.7 4.6,1.8000001 3.7166667,1.6 2.95,1.1 l -0.2,-0.2 -0.1,0.05 -1,0.1 -0.15,0 0,0.15 0.15,1.1 0,0.1 0.3,0.2 C 2.7833333,3.1666667 3.7333333,3.4833333 4.8,3.55 L 6,3.5 7.8,2.95 c 0.233333,0.3666666 0.566666,0.5166667 1,0.45 L 13.85,10.1 17.3,9.85 17.6,6.4 10.8,1.15 10.5,0.4 l 0,-0.2 c 0.466666,-0.9333334 0.65,-1.9166667 0.55,-2.95 -0.06667,-1.0333335 -0.383333,-1.966667 -0.95,-2.8 L 9.9,-5.85 8.7,-6 8.55,-6.05 l 0,0.2 -0.1,1 0.15,0.3 c 0.5,0.7 0.716667,1.5500002 0.65,2.55 L 6,-4.35 2.45,-7.5 6,-10.25 l 0.85,-0.35 5,-8.75 -0.05,-0.1 -8.8,5 z m -14.85,-5 -0.05,0 z m -2.2,29.5 L -14,10 z M -1.8,2.35 -1.75,2.3 z m -1,-1.45 -0.05,0 z M 9.9,-5.85 9.85,-5.9 z m -1.45,1 0,0.05 z m 3.4,-14.5 0,-0.05 z m -4.55,12.1 1.5,0.05 1.3,0.2 0.1,0 0.5,0.1 0.3,0.45 0.15,0.3 c 0.666667,0.9333333 1.066667,2 1.2,3.2 0.133334,1.1666667 -0.01667,2.30000014 -0.45,3.4 l 1,0.8 0.2,-2.25 0,-15.15 -1.55,0 -3.9,6.9 L 7.05,-9.2 6,-8.55 5.95,-5.95 7.1,-5 7.3,-7.25 z m 4.6,7.7 0,0.05 z m -4.25,-9.7 -0.05,0 z M 6,-8.55 5.95,-8.5 z M 7.1,-5 7.15,-4.95 z m -18.65,-11.15 -0.05,0 -1.25,0 0,15.15 0.2,2 -0.15,0.15 0.55,-0.45 0.15,-0.5 c -0.366666,-1.06666673 -0.483333,-2.1666667 -0.35,-3.3 0.133333,-1.1333336 0.516667,-2.166667 1.15,-3.1 l 0.5,-0.7 0.5,-0.1 1.3,-0.2 1.55,-0.1 0.05,1.55 0.1,0.75 1.6,-1.25 0,-2 -1.5,-0.95 -0.55,-0.05 -0.95,-1.7 -2.85,-5.2 z m 1.25,9.15 0.05,-0.05 z m 2.85,-0.3 0.05,0 z m 0.15,2.3 0,0.05 z m -0.65,9.5 -0.05,0 -2.3,3.05 c 1.166667,2.333333 2.7000006,4.466666 4.6,6.4 L -5.7,5 -6.8,4.85 -7.35,4.7 -7.95,4.5 z"
           id="path3549"
           style="fill:#ffffff;stroke-linecap:round;stroke-linejoin:round" />
        <path
           d="m 5.95,-17.45 -0.05,0 -11.5,0 -2.3,-1.3 16.05,0 -0.8,0.5 -1.4,0.8 z m -18.75,-0.8 0.45,0.8 -1.8,0 0,16.45 0.35,2.9 0,0.1 -1,0.65 -0.15,0.1 c -0.333333,-1.3333334 -0.5,-2.58333337 -0.5,-3.75 l 0,-17.75 2.35,0 0.3,0.5 z m 0.85,28.1 0.85,-1.05 c 2.466667,4.566667 5.9500004,8.116668 10.45,10.65 l 0.25,0.25 1.05,0 0.3,-0.25 C 5.3166666,16.95 8.766666,13.483334 11.3,9.05 l 0.8,1.1 C 9.533333,14.516667 6.0666656,17.966667 1.7,20.5 L 1.6,20.65 1.2,21 -0.95,21 -1.45,20.5 C -5.916667,17.9 -9.416667,14.349999 -11.95,9.85 z m 22.4,-1.9 c -1.2,2.2 -2.7,4.2 -4.5,6 l 0,-9 0.65,-0.1 0.5,-0.1 0.5,-0.15 0.45,0.15 2.4,3.2 z m -4.5,-3 0.05,0 z M 15.2,2.85 14.1,2 l 0.3,-3 0,-16.45 -1.9,0 0.7,-1.3 2.5,0 0,17.75 c 0,1.20000005 -0.166667,2.4833333 -0.5,3.85 z M 0,-10.15 c 1.9666667,-2.300001 2.9666667,-3.733334 3,-4.3 l 8.8,-5 0.05,0.05 -5,8.8 L 6,-10.25 2.45,-7.5 6,-4.35 9.25,-2 C 9.316667,-3 9.1,-3.8500001 8.6,-4.55 l -0.15,-0.25 0.1,-1.05 0,-0.2 0.15,0.05 1.15,0.1 0.25,0.35 c 0.566667,0.8333333 0.883334,1.7666667 0.95,2.8 0.1,1.0333333 -0.08333,2.01666665 -0.55,2.95 l 0,0.2 0.3,0.75 L 17.6,6.4 17.3,9.85 13.85,10.1 8.8,3.4 C 8.366667,3.4666667 8.033334,3.3166666 7.8,2.95 L 6,3.5 4.8,3.55 C 3.7333333,3.4833333 2.7833333,3.1666667 1.95,2.6 l -0.3,-0.2 0,-0.1 -0.15,-1.1 0,-0.15 0.15,0 1,-0.1 0.1,-0.05 0.2,0.2 C 3.7166667,1.6 4.6,1.8000001 5.6,1.7 4.9666667,0.39999998 3.1,-1.9 0,-5.2 l -3.2,3.6 C -4.5333333,1.1920929e-7 -5.35,1.1000003 -5.65,1.7 -4.7166667,1.8000001 -3.8666666,1.5833334 -3.1,1.05 L -2.85,0.9 -1.8,1 l 0.2,0 0,0.2 -0.15,1.1 -0.35,0.25 c -0.8333334,0.5666668 -1.7666668,0.9 -2.8,1 l -0.75,0 L -7.85,3 -8.05,2.95 -8.8,3.25 -14,10 -17.5,9.75 -17.75,6.3 l 6.7,-5.05 c -0.06667,-0.43333334 0.08333,-0.76666668 0.45,-1 -0.466667,-0.93333334 -0.666666,-1.9333334 -0.6,-3 0.06667,-1.0666666 0.383333,-2.0166664 0.95,-2.85 l 0.2,-0.3 0.1,0 1.1,-0.15 0.15,0 0.05,0.15 0.1,1 0,0.1 -0.2,0.2 c -0.5,0.7666667 -0.7,1.6500002 -0.6,2.65 0.6,-0.3 1.7000004,-1.1 3.3,-2.4 l 0.4,-0.3 3.2,-2.85 -3.2,-2.5 -1.3,-0.65 -4.95,-8.8 8.85,4.95 c 0.033333,0.566667 1.05,2.016666 3.05,4.35 z m -11.9,-9.3 0.05,0 z M -14,10 -14.05,10.05 z M -1.75,2.3 -1.8,2.35 z m -1.1,-1.4 0.05,0 z m 12.7,-6.8 0.05,0.05 z m -1.4,1.1 0,-0.05 z m 3.4,-14.6 0,0.05 z M 10.1,-7 8.8,-7.2 7.3,-7.25 7.1,-5 5.95,-5.95 l 0,-2.55 1.1,-0.7 0.55,-0.05 3.95,-6.9 1.55,0 0,15.15 -0.2,2.25 -1,-0.75 c 0.433333,-1.13333344 0.583334,-2.2833335 0.45,-3.45 -0.133334,-1.2 -0.533334,-2.2666667 -1.2,-3.2 L 11,-6.45 10.7,-6.9 10.2,-7 10.1,-7 z m 1.8,7.5 0,-0.05 z m -4.3,-9.75 0.05,0 z M 5.95,-8.5 6,-8.55 z m 1.35,1.25 -0.05,0 z m -18.9,-8.9 0.05,0 2.85,5.2 0.9,1.7 0.6,0.05 1.5,0.95 0,2 -1.6,1.3 -0.1,-0.8 0,-1.55 -1.6,0.1 -1.25,0.15 -0.1,0.05 -0.5,0.1 -0.5,0.7 c -0.633334,0.933333 -1.016667,1.9666664 -1.15,3.1 -0.133333,1.1333334 -0.01667,2.23333344 0.35,3.3 l -0.15,0.5 -0.35,0.3 -0.2,-2 0,-15.15 1.25,0 z m 1.35,9.1 -0.05,0 z m 2.85,-0.25 -0.05,0 z m 0.1,2.35 0,-0.05 z m -0.5,-4.3 0.05,0 z M -7.35,4.7 -6.8,4.85 -5.7,5 l 0,8.95 C -7.6000004,12.016666 -9.133334,9.883333 -10.3,7.55 L -8,4.5 -7.35,4.7 z"
           id="path3551"
           style="fill:#000000;stroke-linecap:round;stroke-linejoin:round" />
      </g>
    </g>
  </g>
</svg>
