<?xml version="1.0" encoding="UTF-8" standalone="no"?>
<!-- Created with Inkscape (http://www.inkscape.org/) -->

<svg
   xmlns:dc="http://purl.org/dc/elements/1.1/"
   xmlns:cc="http://creativecommons.org/ns#"
   xmlns:rdf="http://www.w3.org/1999/02/22-rdf-syntax-ns#"
   xmlns:svg="http://www.w3.org/2000/svg"
   xmlns="http://www.w3.org/2000/svg"
   version="1.1"
   width="42"
   height="41.599998"
   viewBox="0 0 42 41.599998"
   id="svg3149"
   style="overflow:visible">
  <metadata
     id="metadata3167">
    <rdf:RDF>
      <cc:Work
         rdf:about="">
        <dc:format>image/svg+xml</dc:format>
        <dc:type
           rdf:resource="http://purl.org/dc/dcmitype/StillImage" />
        <dc:title></dc:title>
      </cc:Work>
    </rdf:RDF>
  </metadata>
  <defs
     id="defs3151" />
  <g
     transform="translate(21,20.8)"
     id="g3155">
    <g
       id="g3157">
      <g
         id="g3159">
        <path
           d="m -1.8,-13.65 15.75,25.05 4,-1.35 -19.15,-28.4 -17.6,13.2 2.05,2.85 14.95,-11.35 z M -17.35,-0.15 -21,-5.25 -0.25,-20.8 21,10.45 -2.6,20.8 l -10.3,-5.05 0,-19.25 -4.45,3.35 z m 6.1,-3.5 0,18.35 8.9,4.35 14.05,-6.25 -13.95,-23.5 -9,7.05 z M -1.3,-2.45 -2.35,5 -5.8,3.55 -7.55,-2.1 -1.3,-2.45 z"
           id="path3161"
           style="fill:#000000;stroke-linecap:round;stroke-linejoin:round" />
        <path
           d="M 13.95,11.4 -1.8,-13.65 -16.75,-2.3 l -2.05,-2.85 17.6,-13.2 19.15,28.4 -4,1.35 z m -25.2,3.3 0,-18.35 9,-7.05 13.95,23.5 -14.05,6.25 -8.9,-4.35 z M -2.35,5 -1.3,-2.45 -7.55,-2.1 -5.8,3.55 -2.35,5 z"
           id="path3163"
           style="fill:#ffffff;stroke-linecap:round;stroke-linejoin:round" />
      </g>
    </g>
  </g>
</svg>
