<svg width="31" height="39" xmlns="http://www.w3.org/2000/svg" preserveAspectRatio="xMidYMid meet">

 <g>
  <title>background</title>
  <rect fill="none" id="canvas_background" height="41" width="42" y="-1" x="-1"/>
 </g>
 <g>
  <title>Layer 1</title>
  <path d="m16.013426,0.573987c0,0 0.019182,0.019181 0.065489,0.065488c0.046307,0.046306 0.084669,0.084669 0.130976,0.130976c0.046307,0.046306 0.065487,0 0.130976,0c0.065487,0 0.04541,0.161022 0.130976,0.196464c0.060503,0.025061 0.084669,-0.046306 0.130976,0c0.092613,0.092614 0.065489,0.196464 0.130976,0.196464c0.065489,0 0.110899,0.161022 0.196465,0.196464c0.060503,0.025061 0.130976,0.065488 0.196463,0.065488c0,0 0.084669,0.084668 0.130978,0.130976c0.046307,0.046307 0.065487,0.065488 0.065487,0.065488c0.065489,0 0.084669,0.084669 0.130976,0.130976c0.046307,0.046307 0.065489,0.065488 0.130976,0.065488c0.065489,0 0.084669,0.08467 0.130976,0.130976c0.046307,0.046307 0.084669,0.019182 0.130976,0.065488c0.046307,0.046307 0.065489,0.065488 0.065489,0.065488c0.065487,0 0.084667,0.084668 0.130976,0.130976c0.046307,0.046307 0.084669,0.019182 0.130976,0.065488c0.092613,0.092614 0,0.196464 0.065489,0.196464c0.065487,0 0.065487,0.130975 0.130976,0.196464c0.065487,0.065487 0.11084,0.077669 0.196463,0.196464c0.054153,0.075133 0.045353,0.07767 0.130976,0.196464c0.054153,0.075133 0.07527,0.03106 0.130976,0.065488c0.124565,0.076986 0.084669,0.150156 0.130978,0.196464c0.046307,0.046307 -0.027126,0.10385 0.065487,0.196464c0.046309,0.046308 0.07527,0.03106 0.130976,0.065488c0.124565,0.076986 0.065489,0.196464 0.130976,0.196464c0,0 0.019182,0.150157 0.065489,0.196464c0.046307,0.046306 0.084667,0.01918 0.130976,0.065488c0.092613,0.092614 0.065487,0.196464 0.065487,0.196464c0.065489,0 0.065489,0.130976 0.130976,0.196464c0,0 0.065489,0.130976 0.065489,0.196464c0,0 0.015368,0.075458 0.065489,0.196464c0.03544,0.085564 0.097332,0.053945 0.130976,0.196464c0.015047,0.063736 0.030046,0.176388 0.065487,0.261951c0.025061,0.060503 0.065489,0.196464 0.065489,0.261952c0,0.130976 0.031843,0.184922 0.065487,0.32744c0.015045,0.063736 -0.092613,0.234826 0,0.32744c0.046309,0.046308 0.065489,0.196464 0.065489,0.196464c0,0.196464 0,0.196464 0,0.32744c0,0.065488 0.031843,0.119434 0.065487,0.261951c0.015045,0.063736 0,0.065488 0,0.196464c0,0.065488 -0.046307,0.215645 0,0.261952c0.046309,0.046308 0.065489,0.196464 0.065489,0.261951c0,0 0,0.196464 0,0.196464c0.065487,0.196464 0.065487,0.261952 0.065487,0.458416c0,0 0,0.196464 0,0.196464c0,0.130976 0,0.196464 0,0.261951c0,0.130977 0.065489,0.196465 0.065489,0.196465c0,0.130976 0,0.196464 0,0.196464c0,0.130976 0,0.196464 0,0.196464c0.065487,0.065488 0.05044,0.198215 0.065487,0.261952c0.033644,0.142518 0.065489,0.196464 0.065489,0.196464c0,0.196464 -0.046307,0.215645 0,0.261951c0.046309,0.046308 0.065489,0.130976 0.065489,0.196464c0,0.130976 0.065487,0.196465 0.065487,0.196465c0,0.196464 -0.015047,0.198215 0,0.261951c0.033644,0.142518 0.065489,0.130976 0.065489,0.327439c0,0.065488 0.031843,0.053946 0.065487,0.196465c0.015045,0.063736 0,0.065488 0,0.261951c0,0 0,0.065488 0,0.196464c0,0.065488 0.031845,0.053946 0.065489,0.196464c0.015047,0.063736 0,0.130976 0,0.261952c0,0.065488 0,0.196464 0,0.261951c0,0 -0.025061,0.135961 0,0.196464c0.03544,0.085564 0.065487,0.196464 0.065487,0.261952c0,0.130976 0,0.196464 0,0.196464c0,0.196464 -0.075184,0.211419 0,0.392927c0.035442,0.085565 0.065489,0.196465 0.065489,0.261952c0,0.196464 0.031843,0.184921 0.065487,0.327439c0.015045,0.063736 0,0.065488 0,0.261951c0,0.065488 0.065489,0.196465 0.065489,0.261952c0,0.130976 0,0.196464 0,0.196464c0,0.065488 0.065487,0.196464 0.065487,0.261951c0,0.130976 0,0.196464 0,0.196464c0,0.196465 0.065489,0.196465 0.065489,0.261952c0,0.130976 0.031845,0.184921 0.065489,0.327439c0.015047,0.063736 0,0.065488 0,0.196465c0,0.065487 0,0.130976 0.065487,0.261951c0,0 0,0.065487 0,0.196463c0,0 0.01918,0.01918 0.065489,0.065489c0.092613,0.092613 0,0.196465 0,0.196465c0,0.065487 0,0.196463 0,0.196463c0,0.065489 0,0.196465 0,0.196465c0,0.065487 0,0.196463 0,0.261951c0,0 0,0.065489 0,0.196465c0,0 0,0.065487 0,0.196463c0,0 0,0.065489 0,0.196465c0,0.065487 0,0.130976 0,0.261951c0,0 0,0.065489 0,0.196465c0,0.065487 0,0.196463 0,0.261951c0,0.065487 0,0.196463 0,0.196463c0,0.065489 0,0.196465 0,0.261953c0,0.130976 0,0.196463 0,0.196463c0,0.196465 0,0.196465 0,0.261951c0,0.130976 0,0.130976 0,0.32744c0,0 0,0.065489 0,0.261951c0,0 0,0.065489 0,0.196465c0,0 0,0.065487 0,0.196463c0,0 0,0.065489 0,0.130978c0,0.130976 0,0.196463 0,0.327438c0,0 0,0.065489 0,0.196465c0,0 0,0.065487 0,0.130976c0,0.130976 0.01918,0.084669 0.065487,0.130976c0.046309,0.046309 0,0.196465 0,0.196465c0,0.065487 0,0.196463 0,0.261951c0,0.065487 0,0.196463 0,0.196463c0,0.065489 0.065489,0.196465 0.065489,0.196465c0,0.196465 0,0.196465 0,0.261951c0,0.130976 0,0.130976 0,0.261951c0,0.130976 0,0.130976 0,0.196465c0,0.130976 0,0.196465 0,0.32744c0,0 0,0.130976 0,0.261951c0,0 0,0.065487 0,0.196465c0,0 0,0.065487 0,0.196463c0,0 0,0.065489 0,0.130976c0,0.130976 0,0.196465 0,0.32744c0,0 0,0.065487 0,0.196465c0,0 0,0.065487 0,0.130976c0,0.130976 0,0.130976 0,0.196463c0,0.130976 -0.130976,0.130976 -0.130976,0.196465c0,0.130976 0,0.130976 0,0.196463c0,0.065489 0,0.196465 0,0.196465c0,0.065489 0,0.196465 0,0.196465c0,0.065487 0,0.196463 0,0.196463c0,0.065489 0,0.130976 0,0.196465c0,0.065487 0,0.130976 0,0.261951c0,0 0,0.065489 0,0.196465c0,0 0.065487,0 0.065487,0.065487c0,0.065489 0,0.130976 0,0.196465c0,0.065487 0,0.196463 0,0.196463c0.065489,0.065489 0.065489,0.196465 0.065489,0.196465c0,0.065489 -0.025061,0.135962 0,0.196465c0.03544,0.085564 0.065487,0.130976 0.065487,0.261951c0,0 0.065489,0.065487 0.065489,0.196463c0,0 0,0.065489 0,0.130978c0,0.065487 0,0.130976 0,0.196463c0,0.130976 0,0.130976 0,0.196465c0,0.130976 0,0.130976 0,0.196463c0,0.065489 0,0.130978 0,0.196465c0,0.065489 0,0.130976 0,0.196465c0,0.065487 0.065487,0.065487 0.065487,0.196463c0,0 0.065489,0 0.065489,0.065489c0,0.065487 0.019178,0.084667 0.065487,0.130976c0.046309,0.046309 0.084669,0.01918 0.130976,0.065487c0.046309,0.046309 0.019182,0.084669 0.065489,0.130976c0.046309,0.046309 0.084667,0.01918 0.130976,0.065489c0.046309,0.046309 0.130976,0.065489 0.196465,0.065489c0.065487,0 0.084667,-0.084669 0.130976,-0.130978c0.046307,-0.046307 0.097332,-0.053944 0.130976,-0.196463c0.015047,-0.063736 0.030046,-0.110901 0.065487,-0.196465c0.025061,-0.060503 0.01918,-0.084667 0.065489,-0.130976c0.046307,-0.046307 -0.046307,-0.150156 0,-0.196463c0.046307,-0.046307 0.065487,-0.065489 0.065487,-0.130976c0,-0.065489 0,-0.130978 0,-0.196465c0,-0.065489 0.031845,-0.119432 0.065489,-0.261951c0.015047,-0.063736 -0.015047,-0.132729 0,-0.196465c0.033644,-0.142519 0.065489,-0.196465 0.065489,-0.261951c0,-0.065489 0.065487,-0.130976 0.065487,-0.261951c0,-0.065489 0.065489,-0.130976 0.065489,-0.196465c0,-0.130976 0.030046,-0.176388 0.065487,-0.261951c0.050121,-0.121006 0,-0.196465 0,-0.32744c0,-0.065487 0.065489,-0.130976 0.065489,-0.261951c0,-0.065487 0,-0.130976 0,-0.196463c0,-0.065489 0,-0.196465 0,-0.261953c0,-0.065487 0,-0.130976 0,-0.196463c0,-0.065489 0.065487,-0.065489 0.065487,-0.130976c0,-0.065489 0,-0.130976 0,-0.196465c0,-0.065487 0,-0.196465 0,-0.261951c0,-0.065489 0,-0.196465 0,-0.261951c0,-0.065489 0,-0.130976 0,-0.196465c0,-0.065487 0.065489,-0.065487 0.065489,-0.130976c0,-0.065487 0,-0.130976 0,-0.196465c0,-0.065487 0.065487,-0.065487 0.065487,-0.130976c0,-0.065487 0.030046,-0.110899 0.065489,-0.196463c0.025063,-0.060503 0.030046,-0.110901 0.065487,-0.196465c0.025061,-0.060503 0.030046,-0.176386 0.065489,-0.261951c0.025061,-0.060503 0.031843,-0.119434 0.065487,-0.261951c0.015045,-0.063738 0,-0.130976 0,-0.196465c0,-0.065487 0.01918,-0.150154 0.065489,-0.196463c0.046309,-0.046309 0,-0.130978 0,-0.196465c0,-0.065489 0.01918,-0.084667 0.065489,-0.130976c0.046309,-0.046309 0.01918,-0.084669 0.065487,-0.130976c0.046309,-0.046309 0.040428,-0.070473 0.065489,-0.130976c0.03544,-0.085564 0.084669,-0.084669 0.130976,-0.130976c0.046307,-0.046307 0.070473,-0.040428 0.130976,-0.065489c0.085564,-0.03544 0.130976,-0.065487 0.196463,-0.065487c0.065489,0 0.135963,0.025061 0.196465,0c0.085566,-0.035442 0.130976,-0.065489 0.196465,-0.065489c0.065487,0 0.206244,-0.03443 0.261951,0c0.124565,0.076986 0.196463,0.130976 0.261951,0.130976c0.130976,0 0.206434,0.015368 0.32744,0.065489c0.171127,0.070883 0.261951,0.130976 0.327438,0.130976c0.065489,0 0.140757,0.031057 0.196465,0.065487c0.124565,0.076986 0.130976,0.130976 0.196465,0.130976c0,0 0.084667,-0.046309 0.130976,0c0.046309,0.046309 0.084667,0.01918 0.130976,0.065489c0.046307,0.046307 0.084667,0.019178 0.130976,0.065487c0.092613,0.092613 0.065487,0.130976 0.130976,0.130976c0,0 0.084667,-0.046309 0.130976,0c0.046309,0.046309 0.084669,0.019182 0.130976,0.065489c0.092613,0.092613 0.065489,0.130976 0.130976,0.130976c0,0 0.01918,0.01918 0.065489,0.065489c0.046307,0.046307 0.130976,0 0.196463,0c0.065489,0 0.065489,0.130976 0.130976,0.130976c0,0 0.130978,0 0.130978,0c0.065487,0 0.130976,0 0.196463,0c0.065489,0 0.084669,0.01918 0.130976,0.065487c0.046309,0.046309 0.150156,-0.046309 0.196465,0c0.046309,0.046309 -0.092613,0.103851 0,0.196465c0.092613,0.092613 0.130976,0 0.130976,0.065487c0,0.130978 0.065487,0.130978 0.065487,0.130978c0,0.065487 0,0.196463 0,0.196463c0.065489,0 0.065489,0.065489 0.065489,0.130976c0,0.130976 0.01918,0.084669 0.065487,0.130976c0.046309,0.046309 0,0.196465 0,0.196465c0,0.065487 0,0.196465 0,0.196465c0.065489,0 0.065489,0.065487 0.065489,0.130976c0,0.130976 -0.046307,0.150156 0,0.196463c0.046309,0.046309 0.065489,0.130976 0.065489,0.130976c0,0.065489 0.065487,0.196465 0.065487,0.196465c0.065489,0.065487 -0.027124,0.169338 0.065489,0.261951c0.046307,0.046307 0.065487,0.065489 0.065487,0.196465c0,0 0,0.065487 0,0.196463c0,0 0.130976,0.065489 0.130976,0.130976c0,0.065489 -0.046309,0.150156 0,0.196465c0.046309,0.046309 0.065489,0.130976 0.065489,0.130976c0,0.065489 -0.015045,0.198215 0,0.261951c0.033644,0.142517 0.065487,0.196465 0.065487,0.261951c0,0.130976 0,0.130976 0,0.196465c0,0.130976 0.031845,0.184921 0.065489,0.32744c0.015045,0.063736 0,0.261951 0,0.327438c0,0.130976 -0.030092,0.330944 0,0.458416c0.033644,0.142517 0.065487,0.32744 0.065487,0.392927c0,0.196465 -0.009695,0.407885 0.065489,0.589392c0.035442,0.085566 0.065489,0.196465 0.065489,0.392927c0,0.130978 0.065487,0.261953 0.065487,0.32744c0,0.130976 -0.015047,0.263704 0,0.32744c0.033644,0.142519 0.065489,0.32744 0.065489,0.458416c0,0.130976 0.030046,0.241875 0.065487,0.327438c0.050121,0.121006 0,0.32744 0,0.32744c0,0.130976 0.065489,0.196465 0.065489,0.32744c0,0.130976 -0.050123,0.206434 0,0.32744c0.03544,0.085564 0.065487,0.130974 0.065487,0.261951c0,0.065487 0.065489,0.130974 0.065489,0.261951c0,0.130974 0.030046,0.110897 0.065487,0.196465c0.025061,0.060501 0,0.130974 0,0.196465c0,0.130974 0.065489,0.196461 0.065489,0.261951c0,0.130974 0,0.196461 0,0.261951c0,0.130974 0.065487,0.196465 0.065487,0.327438c0,0.065487 0,0.196465 0,0.196465c0,0.130974 0,0.261951 0,0.327438c0,0.130978 0,0.327442 0,0.392929c0,0.130974 0,0.196465 0,0.327438c0,0.130978 0,0.261951 0,0.327442c0,0.130974 0,0.196461 0,0.261951c0,0.065487 0,0.130974 0,0.196461c0,0.065491 0,0.130978 0,0.196465c0,0.065487 0.065489,0.065487 0.065489,0.130978c0,0.065487 0.030046,0.110897 0.065487,0.196465c0.025061,0.060501 -0.025061,0.13596 0,0.196461c0.035442,0.085567 0.065489,0.130978 0.065489,0.196465c0,0.065487 0.065489,0.065487 0.065489,0.130978c0,0.065487 0,0.130974 0,0.196465c0,0.065487 0,0.130974 0,0.196461c0,0.065491 0,0.130978 0,0.196465c0,0.065487 0,0.130978 0,0.196465c0,0.065487 -0.01918,0.084671 -0.065489,0.130978c-0.046307,0.046307 -0.065489,0.065487 -0.196465,0.065487c0,0 -0.01918,0.01918 -0.065487,0.065487c-0.092613,0.092613 -0.130976,0 -0.196465,0c-0.130976,0 -0.196463,0 -0.196463,0c-0.065489,0 -0.196465,0 -0.196465,0c-0.196465,0 -0.215645,-0.046307 -0.261951,0c-0.046307,0.046307 -0.130976,0.065487 -0.196465,0.065487c-0.065487,0 -0.196463,0 -0.196463,0c-0.065489,0.065491 -0.196465,0.065491 -0.196465,0.065491c-0.196465,0 -0.261951,0.065487 -0.261951,0.065487c-0.065489,0 -0.196465,0 -0.196465,0c-0.065487,0.065487 -0.196463,0.065487 -0.196463,0.065487c-0.196465,0 -0.261953,0 -0.32744,0c-0.130976,0 -0.130976,0 -0.196465,0c-0.130976,0 -0.196463,0 -0.327438,0c0,0 -0.065489,0.065487 -0.261953,0.065487c0,0 -0.196463,0 -0.196463,0c-0.196465,0 -0.196465,0 -0.261951,0c-0.196465,0 -0.261953,0 -0.392929,0c-0.196463,0 -0.196463,0 -0.327438,0c-0.130976,0 -0.196465,0 -0.32744,0c-0.065489,0 -0.196465,0 -0.261951,0c-0.196465,0 -0.261951,0 -0.392927,0c-0.196465,0 -0.196465,0 -0.32744,0c-0.065489,0 -0.196465,0 -0.32744,0c-0.065487,0 -0.196463,0 -0.261951,0c-0.065489,0 -0.130976,0 -0.196465,0c-0.065487,0 -0.196463,0 -0.196463,0c-0.065489,0 -0.196465,-0.065487 -0.261951,-0.065487c-0.130976,0 -0.196465,0 -0.392929,0c0,0 -0.065487,0 -0.196463,0c-0.130976,0 -0.319494,0.13892 -0.458416,0c-0.046307,-0.046307 -0.196465,-0.065487 -0.261951,-0.065487c-0.130976,0 -0.261951,0 -0.392927,0c0,0 -0.065489,0 -0.196465,0c0,0 -0.065489,0 -0.196465,0c0,0 -0.065487,0 -0.130976,0c-0.065487,0 -0.130976,0 -0.327438,0c0,0 -0.065489,0 -0.196465,0c-0.065489,0 -0.130976,0 -0.196465,0c-0.130976,0 -0.261951,0 -0.261951,0c-0.065487,0 -0.196463,0 -0.196463,0c-0.130978,0 -0.261953,0 -0.32744,0c-0.130976,0 -0.196465,0 -0.32744,0c-0.065487,0 -0.130976,0 -0.261951,0c-0.065489,0 -0.196465,0 -0.392927,0c0,0 -0.130976,0 -0.196465,0c-0.065487,0 -0.130976,0 -0.261951,0c-0.196465,0 -0.196465,0 -0.261951,0c-0.065489,0 -0.130976,0 -0.196465,0c-0.130976,0 -0.261951,0 -0.392927,0c-0.065489,0 -0.130976,0 -0.196465,0c-0.130976,0 -0.196463,0 -0.327438,0c-0.130976,0 -0.196465,-0.065487 -0.261953,-0.065487c-0.065487,0 -0.130976,0 -0.196463,0c-0.065489,0 -0.196465,0 -0.32744,0c-0.130976,0 -0.261951,0 -0.392927,0c-0.130976,0 -0.261951,0 -0.392928,0c-0.196464,0 -0.327439,0 -0.458415,0c-0.130976,0 -0.261951,0 -0.392928,0c-0.130976,0 -0.261951,0 -0.392927,0c-0.065488,0 -0.196464,0 -0.261952,0c-0.130976,0 -0.327439,0 -0.523903,0c-0.196464,0 -0.32744,0 -0.458416,0c-0.065488,0 -0.196464,0 -0.327439,0c-0.196464,0 -0.392928,0 -0.523904,0c-0.130976,0 -0.261951,0 -0.392927,0c-0.130976,0 -0.261952,0 -0.392928,0c-0.196464,0 -0.327439,0 -0.458415,0c-0.196464,0 -0.330944,-0.03009 -0.458416,0c-0.142518,0.033642 -0.327439,0.065487 -0.458415,0.065487c-0.130977,0 -0.261952,0 -0.392928,0c-0.130976,0 -0.330943,-0.03009 -0.458415,0c-0.142519,0.033642 -0.261952,0.065487 -0.392928,0.065487c-0.130976,0 -0.196464,0 -0.261951,0c-0.130976,0 -0.196464,0 -0.261952,0c-0.130976,0 -0.196464,0 -0.32744,0c-0.130976,0 -0.261951,0 -0.392928,0c-0.130976,0 -0.261951,0 -0.392928,0c-0.130976,0 -0.261951,0 -0.392928,0c-0.065488,0 -0.198215,0.015045 -0.261951,0c-0.142518,-0.033642 -0.261952,-0.065487 -0.392928,-0.065487c-0.130976,0 -0.261952,-0.065487 -0.32744,-0.065487c-0.130976,0 -0.198155,0.020981 -0.32744,0c-0.204417,-0.033173 -0.261951,-0.065491 -0.32744,-0.065491c-0.065488,0 -0.196464,-0.065487 -0.261951,-0.065487c-0.130976,0 -0.196464,-0.065487 -0.261952,-0.065487c-0.130976,0 -0.241876,-0.030045 -0.32744,-0.065487c-0.121006,-0.050121 -0.176386,-0.030048 -0.261952,-0.065491c-0.060503,-0.025063 -0.176388,-0.030045 -0.261952,-0.065487c-0.121006,-0.050121 -0.201449,0.025063 -0.261952,0c-0.085564,-0.035442 -0.140946,-0.015362 -0.261952,-0.065487c-0.085566,-0.035442 -0.150157,-0.019184 -0.196464,-0.065491c-0.046306,-0.046307 -0.06724,-0.050442 -0.130976,-0.065487c-0.142518,-0.033642 -0.215645,-0.01918 -0.261952,-0.065487c-0.046306,-0.046307 -0.084669,-0.01918 -0.130976,-0.065487c-0.046309,-0.04631 -0.019181,-0.084671 -0.065488,-0.130978c-0.046306,-0.046307 -0.019181,-0.084667 -0.065488,-0.130974c-0.046309,-0.04631 -0.031844,-0.119434 -0.065488,-0.261955c-0.030091,-0.127472 -0.065488,-0.196461 -0.065488,-0.261951c0,-0.065487 0,-0.196461 0,-0.261951c0,-0.065487 -0.030046,-0.110897 -0.065488,-0.196465c-0.02506,-0.060501 0,-0.130974 0,-0.196461c0,-0.065491 0,-0.130978 0,-0.196465c0,-0.130978 0,-0.196465 0,-0.261951c0,-0.065487 0,-0.196465 0,-0.261951c0,-0.065491 0,-0.196465 0,-0.261951c0,-0.065491 0,-0.130978 0,-0.261951c0,-0.065491 0,-0.130978 0,-0.196465c0,-0.065491 0,-0.196465 0,-0.261951c0,-0.065491 0,-0.130978 0,-0.196465c0,-0.065487 0,-0.130978 0,-0.196465c0,-0.065487 0,-0.130974 0,-0.196465c0,-0.130974 0.065488,-0.196465 0.065488,-0.261951c0,-0.065487 0.030046,-0.110897 0.065488,-0.196465c0.02506,-0.060501 -0.046306,-0.150154 0,-0.196461c0.046307,-0.046307 0.019182,-0.084671 0.065488,-0.130978c0.092614,-0.092613 0.130976,-0.065487 0.130976,-0.130978c0,-0.065487 0,-0.130974 0,-0.196461c0,-0.065491 0,-0.130978 0,-0.196465c0,-0.065487 0.065488,-0.130978 0.065488,-0.261951c0,-0.065491 0.060092,-0.090824 0.130976,-0.261953c0.025061,-0.060501 0,-0.130976 0,-0.196463c0,-0.065489 0,-0.130976 0,-0.196465c0,-0.065487 0.030046,-0.110899 0.065488,-0.196465c0.02506,-0.060503 0,-0.196463 0,-0.261951c0,-0.065487 0,-0.130976 0,-0.196463c0,-0.065489 0,-0.130976 0,-0.261953c0,-0.065487 0.065488,-0.130976 0.065488,-0.261951c0,-0.065487 0,-0.130976 0,-0.196463c0,-0.065489 0,-0.130976 0,-0.196465c0,-0.065487 0,-0.130976 0,-0.196465c0,-0.065487 0.019181,-0.084669 0.065488,-0.130976c0.046306,-0.046307 0,-0.130976 0,-0.196463c0,-0.065489 0.030046,-0.110899 0.065488,-0.196465c0.02506,-0.060503 -0.02506,-0.13596 0,-0.196463c0.035442,-0.085566 0.065488,-0.130976 0.065488,-0.261953c0,-0.065487 0.030046,-0.110899 0.065488,-0.196463c0.050123,-0.121006 0,-0.196465 0,-0.261951c0,-0.065489 0,-0.130976 0,-0.196465c0,-0.065489 0,-0.130976 0,-0.196465c0,-0.065487 0.065488,-0.130976 0.065488,-0.261951c0,-0.065487 0,-0.196463 0,-0.261951c0,-0.065487 0,-0.130976 0,-0.196465c0,-0.130976 0,-0.261951 0,-0.327438c0,-0.130976 0,-0.196465 0,-0.261951c0,-0.130976 0,-0.196465 0,-0.261953c0,-0.065487 0,-0.196463 0,-0.261951c0,-0.130976 0,-0.261951 0,-0.392927c0,-0.065487 0.031844,-0.184921 0.065488,-0.32744c0.015046,-0.063736 0,-0.196463 0,-0.261951c0,-0.065487 0,-0.196463 0,-0.261951c0,-0.065487 0.130976,-0.196465 0.130976,-0.261951c0,-0.065489 0,-0.130976 0,-0.261951c0,-0.065489 0,-0.196465 0,-0.261951c0,-0.130976 0,-0.196465 0,-0.261953c0,-0.130976 -0.050122,-0.206432 0,-0.327438c0.035442,-0.085566 0.065488,-0.196465 0.065488,-0.261951c0,-0.065489 0,-0.196465 0,-0.261953c0,-0.130976 0,-0.261951 0,-0.392927c0,-0.065487 0,-0.196463 0,-0.32744c0,-0.130976 0,-0.196463 0,-0.327438c0,-0.130976 0,-0.261951 0,-0.392929c0,-0.065487 0,-0.196463 0,-0.327438c0,-0.130976 0,-0.261951 0,-0.392927c0,-0.130978 0.032316,-0.254 0.065488,-0.458416c0.02098,-0.129284 0.065488,-0.261951 0.065488,-0.392927c0,-0.065489 0.015366,-0.206434 0.065488,-0.32744c0.035442,-0.085566 0.084669,-0.150158 0.130976,-0.196465c0.13892,-0.13892 0.030046,-0.241875 0.065488,-0.327438c0.025062,-0.060503 0.03106,-0.140759 0.065488,-0.196465c0.076985,-0.124565 0.130976,-0.130976 0.130976,-0.130976c0,0 -0.046308,-0.150156 0,-0.196465c0.046307,-0.046307 0.019181,-0.084667 0.065488,-0.130976c0.046307,-0.046307 0.01918,-0.084667 0.065488,-0.130976c0.046307,-0.046307 0.019182,-0.084669 0.065488,-0.130976c0.046307,-0.046307 0.065488,-0.065489 0.130976,-0.065489c0,0 0.004985,-0.105915 0.065488,-0.130976c0.085564,-0.03544 0.169338,-0.038363 0.261952,-0.130976c0.046306,-0.046307 -0.046308,-0.084667 0,-0.130976c0.046307,-0.046307 0.065488,-0.065487 0.130976,-0.065487c0.065488,0 0.084668,-0.01918 0.130976,-0.065489c0.046307,-0.046307 0.130976,-0.065487 0.196464,-0.065487c0.065488,0 0.196464,0 0.196464,-0.065489c0,0 0.065488,0 0.196464,0c0,0 0.065488,0 0.130976,0c0.065488,0 0.130976,0 0.196464,0c0.130976,0 0.130976,0.065489 0.130976,0.065489c0.065488,0 0.065488,0.130976 0.196464,0.130976c0,0 -0.046306,0.01918 0,0.065487c0.046307,0.046307 0.065488,0.130976 0.130976,0.130976c0,0 0.01918,0.01918 0.065488,0.065489c0.046307,0.046307 0.084669,0.084669 0.130976,0.130976c0.046306,0.046307 0.065488,0.065487 0.065488,0.065487c0.065488,0 0.084669,0.019182 0.130976,0.065489c0.092614,0.092613 0.130976,0.130976 0.130976,0.130976c0,0 0.019181,0.019182 0.065488,0.065489c0.092614,0.092613 0.065488,0.130976 0.065488,0.130976c0,0.065487 0.019181,0.150156 0.065488,0.196463c0.046308,0.046309 0.065488,0.065489 0.065488,0.065489c0,0.065487 0.065488,0.065487 0.065488,0.196463c0,0 0.065488,0 0.065488,0.065489c0,0.130976 0.019181,0.084669 0.065488,0.130976c0.046308,0.046309 0,0.196465 0,0.261951c0,0 0.065488,0.065489 0.065488,0.196465c0,0 0,0.065487 0.130976,0.196463c0,0 0,0.065489 0,0.196465c0,0 0,0.065489 0,0.130976c0,0.130976 -0.046308,0.150156 0,0.196465c0.046307,0.046307 0.065488,0.130976 0.065488,0.130976c0,0.065487 0,0.196463 0,0.196463c0.065488,0.065489 0.065488,0.130978 0.065488,0.261953c0,0 0,0.065487 0.065488,0.196463c0,0 0,0.065489 0,0.196465c0,0 0.019181,0.01918 0.065488,0.065487c0.046308,0.046309 0,0.196465 0,0.196465c0,0.065489 0,0.196465 0,0.196465c0,0.065487 -0.025062,0.201448 0,0.261951c0.035442,0.085564 0.065488,0.196463 0.065488,0.196463c0,0.065489 -0.015046,0.198215 0,0.261953c0.033644,0.142517 0.065488,0.196463 0.065488,0.327438c0,0 0,0.065489 0,0.130976c0,0.130976 -0.046308,0.150156 0,0.196465c0.046307,0.046307 0.065488,0.130976 0.065488,0.130976c0,0.065489 0,0.196465 0,0.196465c0,0.065487 0,0.130976 0,0.261951c0,0 0,0.196465 0,0.196465c0,0.196463 -0.015046,0.263702 0,0.327438c0.033644,0.142517 0.065488,0.32744 0.065488,0.392927c0,0.130978 0,0.196465 0,0.392929c0,0.065487 0,0.196463 0,0.261951c0,0.130976 -0.068858,0.281513 0,0.392927c0.076986,0.124567 0.130976,0.196465 0.130976,0.261951c0,0.130976 0,0.261951 0,0.392927c0,0.196465 0,0.196465 0,0.392929c0,0 0,0.130976 0,0.196463c0,0.130976 0.065488,0.261951 0.065488,0.32744c0,0.130976 -0.025062,0.135962 0,0.196465c0.035442,0.085564 0.065488,0.130976 0.065488,0.196463c0,0.065489 0,0.196465 0,0.196465c0.065488,0.065487 0.065488,0.196463 0.065488,0.196463c0,0.065489 0.065488,0.065489 0.065488,0.130978c0,0.065487 0,0.130976 0,0.196463c0,0.130976 -0.046308,0.150156 0,0.196465c0.046307,0.046307 0.065488,0.130976 0.065488,0.130976c0,0.065487 0.030046,0.110899 0.065488,0.196465c0.025061,0.060503 -0.046307,0.150156 0,0.196463c0.046307,0.046307 0.065488,0.065489 0.065488,0.130976c0,0.130976 0.065488,0.130976 0.065488,0.130976c0,0.065489 0.038362,0.038363 0.130976,0.130976c0.046308,0.046309 0,0.130976 0,0.196465c0,0 0,0.065487 0,0.130976c0,0.065489 0,0.196465 0,0.196465c0.065488,0 0.01918,0.084667 0.065488,0.130976c0.046307,0.046307 0.065488,0.065487 0.065488,0.130976c0,0.065487 0.065488,0.130976 0.065488,0.196463c0,0.065489 -0.027126,0.103851 0.065488,0.196465c0.046308,0.046309 0.019181,0.01918 0.065489,0.065489c0.046307,0.046307 0.065488,0.130976 0.065488,0.130976c0.065488,0 0.084669,0.01918 0.130976,0.065487c0.046308,0.046309 0.084669,0.019182 0.130976,0.065489c0.046307,0.046307 0.019181,0.084669 0.065488,0.130976c0.046307,0.046307 0,0.196463 0.065488,0.196463c0,0 0.019181,0.019182 0.065488,0.065489c0.092614,0.092613 0.019181,0.084669 0.065488,0.130976c0.046308,0.046309 0.019181,0.084669 0.065488,0.130976c0.046307,0.046307 0.130976,0 0.196465,0c0.065488,0 0.150157,0.046307 0.196464,0c0.046307,-0.046307 -0.025061,-0.13596 0,-0.196463c0.035441,-0.085566 0.065488,-0.130978 0.065488,-0.196465c0,-0.065489 0,-0.130976 0,-0.196465c0,-0.065487 0.030046,-0.110899 0.065488,-0.196463c0.025062,-0.060503 0,-0.130976 0,-0.196465c0,-0.065489 0.065488,-0.065489 0.065488,-0.130976c0,-0.065489 0.019181,-0.084669 0.065488,-0.130976c0.046308,-0.046309 0.019181,-0.084669 0.065488,-0.130976c0.046308,-0.046309 0.030046,-0.110899 0.065488,-0.196465c0.025061,-0.060503 0,-0.130976 0,-0.196463c0,-0.065489 0.065488,-0.130978 0.065488,-0.196465c0,-0.065489 0.030046,-0.110899 0.065488,-0.196465c0.025061,-0.060503 0,-0.130976 0,-0.196463c0,-0.065489 0,-0.130976 0,-0.261951c0,-0.065489 0,-0.130976 0,-0.196465c0,-0.065489 -0.025062,-0.135962 0,-0.196465c0.035442,-0.085564 0.065489,-0.130976 0.065489,-0.196463c0,-0.065489 0,-0.196465 0,-0.261951c0,-0.065489 0.030046,-0.176388 0.065488,-0.261953c0.025061,-0.060503 -0.015046,-0.132727 0,-0.196463c0.033644,-0.142517 0.065488,-0.196465 0.065488,-0.261951c0,-0.130976 0.065488,-0.196465 0.065488,-0.32744c0,-0.065489 0.031844,-0.119434 0.065488,-0.261951c0.015046,-0.063738 0.030046,-0.110899 0.065488,-0.196465c0.025061,-0.060503 0,-0.130976 0,-0.196463c0,-0.065489 0.030046,-0.110901 0.065488,-0.196465c0.025062,-0.060503 0,-0.130976 0,-0.196465c0,-0.130976 0.065488,-0.196463 0.065488,-0.327438c0,-0.065489 0.065488,-0.130976 0.065488,-0.196465c0,-0.065489 0.030046,-0.110899 0.065488,-0.196465c0.050122,-0.121006 0.030046,-0.176386 0.065488,-0.261951c0.025061,-0.060503 -0.025062,-0.201448 0,-0.261951c0.035441,-0.085564 0.065488,-0.130976 0.065488,-0.196465c0,-0.065487 0.031844,-0.119434 0.065488,-0.261951c0.015046,-0.063736 0,-0.196463 0,-0.261951c0,-0.130976 0.065489,-0.261951 0.065489,-0.32744c0,-0.065487 0,-0.130976 0,-0.196463c0,-0.065489 0.030046,-0.110899 0.065488,-0.196465c0.025061,-0.060503 0,-0.130976 0,-0.196463c0,-0.065489 -0.025061,-0.135962 0,-0.196465c0.035441,-0.085566 0.065488,-0.130976 0.065488,-0.196465c0,-0.065487 0,-0.130976 0,-0.196463c0,-0.065489 0,-0.130976 0,-0.196465c0,-0.065487 0,-0.130976 0,-0.196465c0,-0.065487 0,-0.130976 0,-0.196463c0,-0.065489 0.030046,-0.110899 0.065488,-0.196465c0.025061,-0.060503 0,-0.130976 0,-0.196463c0,-0.065489 0,-0.130978 0,-0.196465c0,-0.065489 0,-0.130976 0,-0.196465c0,-0.065487 0,-0.130976 0,-0.196463c0,-0.065489 0,-0.130976 0,-0.196465c0,-0.065487 0,-0.130976 0,-0.261951c0,-0.065489 0,-0.130976 0,-0.261951c0,-0.130976 0,-0.196465 0,-0.32744c0,-0.065487 0,-0.196465 0,-0.261951c0,-0.130976 0,-0.261951 0,-0.32744c0,-0.196463 -0.065488,-0.327438 -0.065488,-0.458416c0,-0.130976 0,-0.196463 0,-0.327438c0,-0.130976 0,-0.261951 0,-0.392929c0,-0.130976 0,-0.261951 0,-0.458414c0,-0.196465 0,-0.32744 0,-0.523905c0,-0.130976 0,-0.327438 0,-0.458414c0,-0.196465 0,-0.32744 0,-0.458416c0,-0.130976 0,-0.196465 0,-0.32744c0,-0.065488 0,-0.196464 0,-0.327439c0,-0.065488 0,-0.130976 0,-0.196464c0,-0.130976 0,-0.196465 0,-0.32744c0,-0.196464 0,-0.327439 0,-0.458415c0,-0.065488 0,-0.261952 0,-0.32744c0,-0.196464 0,-0.327439 0,-0.392927c0,-0.130976 0,-0.261951 0,-0.392928c0,-0.130976 0,-0.261951 0,-0.261951c0,-0.196464 0,-0.392927 0,-0.523904c0,-0.065488 0,-0.130976 0,-0.327439c0,-0.196464 0.031844,-0.315897 0.065488,-0.458416c0.030092,-0.127472 0.031844,-0.315897 0.065488,-0.458415c0.030092,-0.127472 0.041483,-0.197936 0.065488,-0.392928c0.032991,-0.26799 0.087589,-0.413229 0.196464,-0.589391c0.04869,-0.078782 0.080853,-0.33741 0.130976,-0.458416c0.035441,-0.085564 0.080854,-0.271921 0.130977,-0.392927c0.035441,-0.085564 0.055793,-0.276907 0.130976,-0.458416c0.035441,-0.085564 0.054997,-0.197309 0.065488,-0.261951c0.033173,-0.204417 0.054997,-0.393774 0.065488,-0.458416c0.033173,-0.204416 0.097332,-0.315897 0.130976,-0.458415c0.030092,-0.127472 0.032315,-0.188511 0.065488,-0.392928c0.03147,-0.193927 0.034018,-0.264488 0.065488,-0.458416c0.033173,-0.204417 0.095534,-0.307364 0.130976,-0.392928c0.075183,-0.181509 0.020351,-0.267207 0.065489,-0.458416c0.033644,-0.142518 0.054996,-0.197309 0.065487,-0.261952c0.033173,-0.204417 0.065489,-0.196464 0.130977,-0.392927c0,0 0.019181,-0.150157 0.065488,-0.196464c0.092614,-0.092614 0.065488,-0.261952 0.065488,-0.261952c0.065488,-0.196464 -0.073433,-0.254006 0.065488,-0.392928c0.046307,-0.046307 0.065488,-0.130976 0.065488,-0.196464c0,-0.065488 0.065488,-0.196464 0.065488,-0.261952c0,-0.130976 0.019181,-0.150156 0.065488,-0.196464c0.092614,-0.092614 0,-0.261952 0,-0.261952c0,-0.130976 0.019181,-0.150157 0.065488,-0.196464c0.092614,-0.092614 0,-0.196464 0,-0.196464c0,-0.130976 0.065488,-0.196464 0.065488,-0.196464c0,-0.065488 0.019181,-0.150157 0.065488,-0.196464c0.046307,-0.046307 -0.092614,-0.10385 0,-0.196464c0.046307,-0.046307 0.065488,-0.065488 0.065488,-0.065488c0.065488,-0.130976 0.065488,-0.196464 0.065488,-0.196464c0,-0.065488 0.065489,-0.065488 0.065489,-0.196464c0,-0.065488 0.050442,-0.198216 0.065488,-0.261952c0.033644,-0.142518 0.084669,-0.150157 0.130976,-0.196464c0.046307,-0.046307 0.054997,-0.197309 0.065488,-0.261952c0.033173,-0.204417 0.084669,-0.150157 0.130976,-0.196464c0.092614,-0.092614 0,-0.196464 0.065488,-0.196464c0,0 0.019181,-0.019181 0.065488,-0.065488c0.092614,-0.092614 0.065488,-0.196464 0.065488,-0.196464c0.065488,0 0.038363,-0.038362 0.130977,-0.130976c0.046307,-0.046307 0.065488,-0.065488 0.130976,-0.065488c0,0 0.084669,0.046307 0.130976,0c0.092614,-0.092614 0.019181,-0.150157 0.065488,-0.196464c0.046307,-0.046307 0.130976,0 0.196464,0c0.065488,0 0.065488,0 0.130976,0c0.065488,0 0.130976,0 0.196465,0l0.065488,0l0.065488,0l0.065488,0" id="svg_4" stroke-opacity="null" stroke-width="null" stroke="null" fill="#3b81f7"/>
  <g id="svg_1" fill="#000000" transform="translate(0,39) scale(0.10000000149011612,-0.10000000149011612) ">
   <path id="svg_2" d="m116,316c-10,-40 -16,-89 -13,-107c3,-19 2,-56 -2,-84l-8,-50l-8,62c-9,74 -36,109 -55,74c-6,-12 -9,-25 -7,-29c6,-10 -8,-143 -18,-164c-7,-17 4,-18 150,-18l158,0l-7,73c-7,74 -20,97 -57,97c-14,0 -19,-10 -22,-47c-3,-35 -4,-28 -5,27c-3,173 -21,240 -65,240c-20,0 -25,-9 -41,-74zm65,42c16,-30 19,-52 26,-180c4,-82 9,-108 19,-108c15,0 17,8 14,59c-1,28 1,33 15,27c9,-3 21,-6 26,-6c5,0 8,-17 7,-37c0,-21 2,-53 6,-71l8,-32l-142,0c-130,0 -141,1 -136,18c2,9 8,54 11,99c4,46 11,83 15,83c12,0 20,-27 20,-65c0,-19 5,-46 10,-61c18,-47 32,-12 37,88c7,174 32,246 64,186z"/>
  </g>
 </g>
</svg>