<?xml version="1.0" encoding="UTF-8"?>
<svg version="1.1" id="Layer_1" xmlns="http://www.w3.org/2000/svg" xmlns:xlink="http://www.w3.org/1999/xlink" width="33px" height="40px" xml:space="preserve">
<g id="PathID_107" transform="matrix(1, 0, 0, 1, 16.5, 19.85)">
<path style="fill:#000000;fill-opacity:1" d="M12.1 -14.05L12.25 -13.85L13.1 -11.85L13.25 -11.4L14.35 -7.15Q15.45 -5.95 16.1 -4.2Q16.75 -2.2 16.3 -0.25Q15.85 1.65 14.55 2.65L13.55 3.2Q15.25 5.4 15.25 7.15Q15.3 8.75 14.55 10L13.2 11.65Q12.3 12.45 12.05 13L11.55 14.3L9.85 17.75Q8.5 19.6 6.55 19.8L4.75 19.9Q2 19.9 -0.2 18.8L-3.55 16.45Q-5.6 14.75 -6.8 14.3L-7.3 14.15Q-13.8 12.3 -15.15 9.05Q-16.1 6.8 -14.8 4.25L-14.5 3.75Q-15.35 3.35 -15.9 2.35Q-16.6 1.1 -16.5 -1Q-16.45 -2.75 -16 -4.2Q-15.35 -5.95 -14.3 -7.1L-13 -11.85L-12.4 -13.55L-12.25 -13.85Q-11.5 -15.15 -10.35 -15.25L-10.15 -15.25Q-9.25 -15.25 -8.65 -14.55Q-7.05 -18.3 -4.7 -18.6L-4.45 -18.6Q-3.75 -18.6 -3.15 -18.1Q-3.05 -18.95 -2.3 -19.5L-1.2 -19.85Q0.35 -19.85 1.9 -17.15L2.15 -17.65Q2.7 -18.45 3.7 -18.45L3.9 -18.45Q6.6 -18.15 8.35 -13.9L8.7 -14.45Q9.35 -15.1 10.2 -15.1L10.35 -15.1Q11.35 -15.05 12.1 -14.05M4.5 -13.45L4.5 -11.85L4.3 -9.35L4 -9.2Q3.1 -8.4 3.15 -5.75Q3.25 -2.95 4.55 -1.95Q5.25 -1.4 6.4 -1.35Q7.6 -1.25 8 -1.85Q8.85 -3 9.05 -5.8Q9.4 -8.4 8.05 -9.5L7.35 -9.7L7.1 -11.85L6.85 -12.5L6.3 -13.85Q5.15 -16.3 3.7 -16.45Q3.55 -16.45 3.9 -15.45L4.4 -13.85L4.5 -13.45M1.05 -14.5L-0.15 -16.75Q-1 -18 -1.25 -17.85L-1.2 -16.65Q-0.95 -15.35 -1.15 -14.4L-1.25 -13.85L-1.7 -12L-1.7 -11.85L-1.95 -10.05L-2.15 -9.85Q-3.25 -8.5 -3.15 -6Q-3 -3.5 -1.9 -3Q-0.1 -2.25 1.4 -3.9Q2.3 -4.9 2.65 -6.9Q3.05 -9 2.35 -10.1L1.45 -10.95L1.45 -11.85L1.25 -13.85L1.05 -14.5M10 -10.8L10.35 -6.55Q9.65 -5.9 9.25 -3.55Q8.95 -1.45 9.1 -0.05Q9.2 1 10.8 1.55Q12.45 2.1 13.45 1.35Q14.3 0.7 14.55 -0.7Q14.8 -2.05 14.35 -3.45Q13.7 -5.25 12.65 -6.1L11.5 -10.7L11.1 -11.85Q10.55 -13.05 10.2 -13.1Q9.9 -13.15 9.95 -11.85L10 -10.8M13.4 7.35Q13.4 4.95 9.15 1.55Q5.25 -1.5 2.65 -2.1Q0.2 -2.65 -2.5 -1.45Q-4.05 -0.8 -6.85 1.15L-10.25 2.7Q-12.2 3.5 -13.15 5.25Q-14.95 8.65 -11.1 10.9Q-9.1 12.05 -6.15 12.75L-0.9 16.4Q2.15 18.6 6.35 18.15Q7.8 18 8.85 16L10.4 12.4Q10.75 11.7 12.3 10.1Q13.45 8.95 13.4 7.35M-5.2 -13.85L-4.65 -15.6Q-4.3 -16.6 -4.45 -16.6Q-5.75 -16.45 -6.85 -13.85L-7.15 -13.2L-7.6 -11.85Q-8.2 -10 -8.2 -8.65Q-8.85 -7.65 -8.85 -6L-8.45 -3.35Q-8.05 -2 -7.45 -1.3Q-6.9 -0.65 -5.7 -1.1Q-4.65 -1.45 -4.1 -2.1Q-3.4 -2.95 -3.4 -5.6Q-3.4 -7.9 -3.95 -9Q-4.4 -9.95 -5.45 -10.1L-5.35 -11.85L-5.25 -13.55L-5.2 -13.85M-12.65 -6.05Q-13.7 -5.05 -14.2 -3.45Q-14.75 -1.85 -14.65 -0.05Q-14.55 2.05 -13.55 2.3L-12.15 2.15L-11.3 1.5L-10.15 1.25L-9.15 0.6Q-8.7 -0.1 -9.1 -3.2Q-9.55 -6.45 -10.55 -6.75L-10.7 -6.75L-10.2 -10.9L-10.05 -11.85Q-9.9 -13.3 -10.2 -13.25L-10.95 -11.85L-12.65 -6.05"/>
<path style="fill:#FFFFFF;fill-opacity:1" d="M4.4 -13.85L3.9 -15.45Q3.55 -16.45 3.7 -16.45Q5.15 -16.3 6.3 -13.85L6.85 -12.5L7.1 -11.85L7.35 -9.7L8.05 -9.5Q9.4 -8.4 9.05 -5.8Q8.85 -3 8 -1.85Q7.6 -1.25 6.4 -1.35Q5.25 -1.4 4.55 -1.95Q3.25 -2.95 3.15 -5.75Q3.1 -8.4 4 -9.2L4.3 -9.35L4.5 -11.85L4.5 -13.45L4.4 -13.85M1.25 -13.85L1.45 -11.85L1.45 -10.95L2.35 -10.1Q3.05 -9 2.65 -6.9Q2.3 -4.9 1.4 -3.9Q-0.1 -2.25 -1.9 -3Q-3 -3.5 -3.15 -6Q-3.25 -8.5 -2.15 -9.85L-1.95 -10.05L-1.7 -11.85L-1.7 -12L-1.25 -13.85L-1.15 -14.4Q-0.95 -15.35 -1.2 -16.65L-1.25 -17.85Q-1 -18 -0.15 -16.75L1.05 -14.5L1.25 -13.85M9.95 -11.85Q9.9 -13.15 10.2 -13.1Q10.55 -13.05 11.1 -11.85L11.5 -10.7L12.65 -6.1Q13.7 -5.25 14.35 -3.45Q14.8 -2.05 14.55 -0.7Q14.3 0.7 13.45 1.35Q12.45 2.1 10.8 1.55Q9.2 1 9.1 -0.05Q8.95 -1.45 9.25 -3.55Q9.65 -5.9 10.35 -6.55L10 -10.8L9.95 -11.85M12.3 10.1Q10.75 11.7 10.4 12.4L8.85 16Q7.8 18 6.35 18.15Q2.15 18.6 -0.9 16.4L-6.15 12.75Q-9.1 12.05 -11.1 10.9Q-14.95 8.65 -13.15 5.25Q-12.2 3.5 -10.25 2.7L-6.85 1.15Q-4.05 -0.8 -2.5 -1.45Q0.2 -2.65 2.65 -2.1Q5.25 -1.5 9.15 1.55Q13.4 4.95 13.4 7.35Q13.45 8.95 12.3 10.1M-5.25 -13.55L-5.35 -11.85L-5.45 -10.1Q-4.4 -9.95 -3.95 -9Q-3.4 -7.9 -3.4 -5.6Q-3.4 -2.95 -4.1 -2.1Q-4.65 -1.45 -5.7 -1.1Q-6.9 -0.65 -7.45 -1.3Q-8.05 -2 -8.45 -3.35L-8.85 -6Q-8.85 -7.65 -8.2 -8.65Q-8.2 -10 -7.6 -11.85L-7.15 -13.2L-6.85 -13.85Q-5.75 -16.45 -4.45 -16.6Q-4.3 -16.6 -4.65 -15.6L-5.2 -13.85L-5.25 -13.55M-10.95 -11.85L-10.2 -13.25Q-9.9 -13.3 -10.05 -11.85L-10.2 -10.9L-10.7 -6.75L-10.55 -6.75Q-9.55 -6.45 -9.1 -3.2Q-8.7 -0.1 -9.15 0.6L-10.15 1.25L-11.3 1.5L-12.15 2.15L-13.55 2.3Q-14.55 2.05 -14.65 -0.05Q-14.75 -1.85 -14.2 -3.45Q-13.7 -5.05 -12.65 -6.05L-10.95 -11.85"/>
</g>
</svg>