<svg width="43" height="35" xmlns="http://www.w3.org/2000/svg" preserveAspectRatio="xMidYMid meet">

 <g>
  <title>background</title>
  <rect fill="none" id="canvas_background" height="402" width="582" y="-1" x="-1"/>
 </g>
 <g>
  <title>Layer 1</title>
  <path id="svg_8" d="m1.78896,11.77105c-0.29851,0.2388 6.02985,-3.58209 5.97223,-3.59195c0.05762,0.00986 9.25581,-4.12926 8.89552,-4.53731c-0.36029,-0.40805 4.83374,-2.55731 4.77612,-2.56716c0.05762,0.00985 7.4009,1.14418 7.34328,1.13432c0.05762,0.00986 6.32628,3.05464 6.26866,3.04478c0.05762,0.00986 4.6588,3.45284 4.89552,3.16418c0.23672,-0.28866 1.13641,1.48267 1.37313,2.26865c0.23672,0.78598 -0.24088,1.4427 -0.36029,1.4427c-0.1194,0 -2.38806,0.59701 -2.38806,0.53731c0,-0.0597 -5.01074,-1.03463 -4.83373,-0.30836c0.17701,0.72627 -3.76328,0.06955 -3.04686,0.84567c0.71642,0.77612 -2.62687,2.08955 -2.68449,2.0797c0.71434,0.72627 -1.97223,1.50239 -2.02985,1.49254c0.95314,1.14418 -0.59909,1.14418 -0.65671,1.13432c0.05762,0.00986 3.3412,5.92031 3.28358,5.91045c0.83374,-0.46775 1.66956,2.27851 1.61194,2.26866c0.41583,-1.00508 1.60986,1.32329 1.55224,1.31343c0.17702,-1.00507 1.43075,0.48747 1.37313,0.47761c-0.12148,-0.94536 1.43075,0.48747 1.37314,0.47761c-0.2409,-0.88566 1.19194,0.24866 1.13432,0.23881c2.32628,1.98 -1.31551,0.90538 -1.37521,0.96508c-0.0597,0.0597 -0.83582,1.85074 -0.89344,1.84089c2.32628,1.02478 -0.6588,0.84568 -0.71642,0.83582c0.05762,0.78598 -4.24089,0.54717 -4.24089,0.54717c0,0 -12.1791,0 -12.23672,-0.00986c0.05762,0.60687 -4.5991,-0.34835 -4.65671,-0.35821c-1.31552,0.36807 -1.07671,-1.00507 -1.13433,-1.01492c-0.8379,0.18895 -1.79313,-2.3185 -1.73343,-2.3185c0.0597,0 2.56716,-1.13433 2.50955,-1.14419c0.41582,-0.64686 2.14717,-1.12447 2.26657,-1.12447c0.1194,0 2.32836,-3.22388 2.27074,-3.23374c-0.36029,-0.40805 1.84866,-3.69163 1.79104,-3.70149c-0.36029,-0.10954 0.83374,-1.78119 0.77612,-1.79104c-0.7185,0.36806 -0.12148,-1.36328 -0.1791,-1.37314c-0.7185,0.42777 -1.73343,-2.01999 -1.79105,-2.02985c-1.07671,0.30837 -1.49462,-1.36327 -1.55223,-1.37313c-0.59911,0.42777 -13.49462,0.24866 -12.41791,-0.2388" stroke-width="1.5" stroke="#3b81f7" fill="#3b81f7"/>
  <g id="svg_1" fill="#000" transform="translate(0,35) scale(0.10000000149011612,-0.10000000149011612) ">
   <path id="svg_2" d="m136,315c-27,-19 -62,-37 -77,-40c-15,-3 -35,-15 -44,-25c-15,-16 -16,-22 -5,-35c10,-12 25,-15 64,-10c40,4 56,2 74,-13l23,-18l-24,-44c-15,-29 -32,-46 -48,-50c-31,-8 -35,-30 -9,-58c19,-20 30,-22 130,-22c115,0 140,4 140,25c0,7 5,15 12,17c18,6 1,38 -21,38c-21,0 -56,38 -67,72c-10,32 19,52 84,58c53,5 57,7 57,30c0,19 -14,34 -58,64c-50,35 -66,41 -120,43c-57,3 -66,0 -111,-32zm202,-11c39,-20 73,-43 76,-51c10,-26 -5,-36 -49,-30c-36,5 -47,2 -75,-21l-33,-28l18,-34c24,-48 45,-70 67,-70c35,0 18,-20 -19,-21c-31,-2 -33,-3 -10,-6c15,-2 27,-9 27,-14c0,-5 -53,-9 -122,-9c-111,0 -142,9 -83,23c11,3 3,5 -18,6c-38,1 -45,21 -7,21c20,0 70,73 70,101c0,9 -13,25 -29,37c-24,18 -38,20 -80,15c-69,-8 -67,11 5,43c31,13 72,36 92,49c50,34 88,31 170,-11z"/>
   <path id="svg_3" d="m160,225c7,-8 17,-15 22,-15c6,0 5,7 -2,15c-7,8 -17,15 -22,15c-6,0 -5,-7 2,-15z"/>
   <path id="svg_4" d="m206,215c17,-27 13,-83 -12,-142l-13,-33l41,0c34,0 39,3 33,18c-20,51 -29,124 -18,152c11,29 10,30 -18,30c-29,0 -29,0 -13,-25z"/>
   <path id="svg_5" d="m264,218l-19,-21l28,18c28,18 33,25 19,25c-5,0 -17,-10 -28,-22z"/>
   <path id="svg_6" d="m176,113c-3,-10 -9,-24 -12,-30c-3,-7 -1,-13 4,-13c5,0 13,12 16,26c8,30 2,44 -8,17z"/>
   <path id="svg_7" d="m260,98c0,-9 5,-20 11,-23c17,-11 18,-2 3,19c-12,17 -14,17 -14,4z"/>
  </g>
 </g>
</svg>