<?xml version="1.0" encoding="UTF-8"?>
<svg version="1.1" id="Layer_1" xmlns="http://www.w3.org/2000/svg" xmlns:xlink="http://www.w3.org/1999/xlink" width="31px" height="42px" xml:space="preserve">
<g id="PathID_100" transform="matrix(1, 0, 0, 1, 15.1, 20.8)">
<path style="fill:#000000;fill-opacity:1" d="M3.6 -17.35L3.6 -8.65L8.85 -2.85L10.5 -2.5L14.1 4.35L15.15 14.9L5.35 15.4L0 21L-5.3 15.4L-15.1 14.9L-14 4.15L-10.45 -2.5L-8.8 -2.85L-3.55 -8.65L-3.55 -17.35L-1.6 -20.8L1.6 -20.8L3.6 -17.35M0.45 -18.8L-0.45 -18.8L-1.6 -16.8L-1.6 -7.9L-7.8 -1L-9.1 -0.75L-12.05 4.75L-12.9 12.9L-7.55 12.9L-8.05 10.85L-7.8 6.7L-5.15 0.55L-3.55 -1.9L-1.6 -3.25L-1.55 -0.55L-3.2 14.7L0 18.1L3.25 14.7L1.6 -0.5L1.6 -3.25L3.6 -1.9L5.15 0.45L7.85 6.7L8.1 10.85L7.6 12.9L12.95 12.9L12.15 4.9L9.15 -0.75L7.85 -1L1.6 -7.9L1.6 -16.8L0.45 -18.8"/>
<path style="fill:#FFFFFF;fill-opacity:1" d="M1.6 -16.8L1.6 -7.9L7.85 -1L9.15 -0.75L12.15 4.9L12.95 12.9L7.6 12.9L8.1 10.85L7.85 6.7L5.15 0.45L3.6 -1.9L1.6 -3.25L1.6 -0.5L3.25 14.7L0 18.1L-3.2 14.7L-1.55 -0.55L-1.6 -3.25L-3.55 -1.9L-5.15 0.55L-7.8 6.7L-8.05 10.85L-7.55 12.9L-12.9 12.9L-12.05 4.75L-9.1 -0.75L-7.8 -1L-1.6 -7.9L-1.6 -16.8L-0.45 -18.8L0.45 -18.8L1.6 -16.8"/>
</g>
</svg>