<?xml version="1.0" encoding="UTF-8"?>
<svg version="1.1" id="Layer_1" xmlns="http://www.w3.org/2000/svg" xmlns:xlink="http://www.w3.org/1999/xlink" width="27px" height="42px" xml:space="preserve">
<g id="PathID_6" transform="matrix(1, 0, 0, 1, 13.25, 21)">
<path style="fill:#000000;fill-opacity:1" d="M1.65 -19.55Q4.9 -19.45 6.6 -17.4Q8.1 -15.65 8.1 -12.85L8.1 -12.2L8.6 -11.15L11.95 -11.15L11.95 2.45Q11.95 5.95 9.55 10.4Q6.4 16.15 0.8 19.35L0.6 19.6L-0.3 19.6L-0.5 19.35Q-6.1 16.15 -9.25 10.4Q-11.7 5.95 -11.7 2.45L-11.7 -11.15L-9.5 -11.15L-7.85 -13.75L-8.15 -14.05L-6.8 -15.7Q-3.4 -19.55 1.45 -19.55L1.65 -19.55M1.65 -13.7L1.6 -13.75L0 -15.1L0.6 -12.35L0.65 -12.2Q0.8 -11.55 1.75 -11.4L2.3 -11.25L1.75 -11.1Q0.45 -10.7 0.25 -10.2Q0.05 -9.6 0 -7.7Q-0.05 -5.55 0.45 -5.05L2.85 -4.25Q5.05 -3.45 5.2 -3.05L5.15 -2.15Q5.05 -1.65 5.2 -1.45L5.95 -0.3Q6.3 -0.1 7.25 -0.5L6.3 -1.9L6.15 -2.2Q5.95 -2.65 6.45 -3.05L7.15 -3.15L7.5 -1.75Q7.8 -0.45 8 -0.35L8.2 -0.35L9.15 -0.5Q9.75 -0.7 9.55 -2.3L9.55 -2.35Q9.75 -2.35 9.75 -3.15L6.1 -11.35Q5.55 -12.25 4.05 -13Q2.6 -13.75 1.7 -13.7L1.65 -13.7M4.1 -14.05Q5.05 -13.6 6.1 -12.55Q6.1 -14.5 5.1 -15.75Q4 -17.05 1.75 -17.15Q-2.15 -17.2 -5.1 -13.95L-5.7 -13.25Q-4.3 -14.55 -2.25 -15.5Q-0.1 -16.4 1.2 -15.55Q2 -15.05 2.2 -14.2L2.8 -14.3L4.1 -14.05M5.75 -9.8L7.45 -6.05L7.1 -6.05L5.5 -8.5L4.6 -8.65Q3.65 -9.05 3.55 -10.3Q2.7 -11.35 3 -12.2L3.15 -11.6Q3.4 -10.95 3.75 -10.65Q4.1 -10.35 4.8 -10.25L5.5 -10.25Q5.8 -10.3 5.75 -9.8M-1.55 -12.9L-3.3 -10.5Q-4.55 -7.4 -2.2 -3.85Q-3.7 -5.25 -4.45 -7.45Q-4.9 -8.8 -4.5 -10.7L-4 -12.35Q-3.1 -12.8 -2.25 -12.9L-1.55 -12.9M-0.3 -15.25Q-5.4 -14.65 -7.75 -9.4Q-8.95 -6.7 -9.2 -3.85Q-7.3 -1.65 -3.6 -0.5Q0.45 0.8 1.4 1.6Q2.5 2.6 3.4 4.1L4.15 5.9Q4.45 4.15 2.45 0.3Q0.8 -2.8 2.2 -3.7Q0.2 -3.85 -0.35 -4.65Q-0.9 -5.45 -0.8 -8.15Q-0.7 -11.05 0.35 -11.25Q-0.1 -12.2 -0.35 -13.45Q-0.6 -14.8 -0.3 -15.25M-7.85 10.75L8.15 10.75L8.75 9.65L9.65 7.8L-9.3 7.8L-8.45 9.65L-7.85 10.75"/>
<path style="fill:#FFFFFF;fill-opacity:1" d="M1.55 -21Q5.45 -20.9 7.6 -18.3Q9.4 -16.05 9.4 -12.9L9.4 -12.6L13.25 -12.6L13.25 2.45Q13.25 6.2 10.7 10.95Q7.45 17.05 1.55 20.5L1.05 21L-1.05 21L-1.55 20.5Q-7.4 17.05 -10.7 10.95Q-13.25 6.15 -13.25 2.45L-13.25 -12.6L-10.5 -12.6L-9.9 -13.55L-10.2 -13.85L-8 -16.65Q-4.1 -21 1.3 -21L1.55 -21M1.45 -19.55Q-3.4 -19.55 -6.8 -15.7L-8.15 -14.05L-7.85 -13.75L-9.5 -11.15L-11.7 -11.15L-11.7 2.45Q-11.7 5.95 -9.25 10.4Q-6.1 16.15 -0.5 19.35L-0.3 19.6L0.6 19.6L0.8 19.35Q6.4 16.15 9.55 10.4Q11.95 5.95 11.95 2.45L11.95 -11.15L8.6 -11.15L8.1 -12.2L8.1 -12.85Q8.1 -15.65 6.6 -17.4Q4.9 -19.45 1.65 -19.55L1.45 -19.55M1.7 -13.7Q2.6 -13.75 4.05 -13Q5.55 -12.25 6.1 -11.35L9.75 -3.15Q9.75 -2.35 9.55 -2.35L9.55 -2.3Q9.75 -0.7 9.15 -0.5L8.2 -0.35L8 -0.35Q7.8 -0.45 7.5 -1.75L7.15 -3.15L6.45 -3.05Q5.95 -2.65 6.15 -2.2L6.3 -1.9L7.25 -0.5Q6.3 -0.1 5.95 -0.3L5.2 -1.45Q5.05 -1.65 5.15 -2.15L5.2 -3.05Q5.05 -3.45 2.85 -4.25L0.45 -5.05Q-0.05 -5.55 0 -7.7Q0.05 -9.6 0.25 -10.2Q0.45 -10.7 1.75 -11.1L2.3 -11.25L1.75 -11.4Q0.8 -11.55 0.65 -12.2L0.6 -12.35L0 -15.1L1.6 -13.75L1.65 -13.7L1.7 -13.7M2.8 -14.3L2.2 -14.2Q2 -15.05 1.2 -15.55Q-0.1 -16.4 -2.25 -15.5Q-4.3 -14.55 -5.7 -13.25L-5.1 -13.95Q-2.15 -17.2 1.75 -17.15Q4 -17.05 5.1 -15.75Q6.1 -14.5 6.1 -12.55Q5.05 -13.6 4.1 -14.05L2.8 -14.3M5.5 -10.25L4.8 -10.25Q4.1 -10.35 3.75 -10.65Q3.4 -10.95 3.15 -11.6L3 -12.2Q2.7 -11.35 3.55 -10.3Q3.65 -9.05 4.6 -8.65L5.5 -8.5L7.1 -6.05L7.45 -6.05L5.75 -9.8Q5.8 -10.3 5.5 -10.25M-2.25 -12.9Q-3.1 -12.8 -4 -12.35L-4.5 -10.7Q-4.9 -8.8 -4.45 -7.45Q-3.7 -5.25 -2.2 -3.85Q-4.55 -7.4 -3.3 -10.5L-1.55 -12.9L-2.25 -12.9M-0.35 -13.45Q-0.1 -12.2 0.35 -11.25Q-0.7 -11.05 -0.8 -8.15Q-0.9 -5.45 -0.35 -4.65Q0.2 -3.85 2.2 -3.7Q0.8 -2.8 2.45 0.3Q4.45 4.15 4.15 5.9L3.4 4.1Q2.5 2.6 1.4 1.6Q0.45 0.8 -3.6 -0.5Q-7.3 -1.65 -9.2 -3.85Q-8.95 -6.7 -7.75 -9.4Q-5.4 -14.65 -0.3 -15.25Q-0.6 -14.8 -0.35 -13.45M-8.45 9.65L-9.3 7.8L9.65 7.8L8.75 9.65L8.15 10.75L-7.85 10.75L-8.45 9.65"/>
</g>
</svg>