<?xml version="1.0" encoding="UTF-8"?>
<svg version="1.1" id="Layer_1" xmlns="http://www.w3.org/2000/svg" xmlns:xlink="http://www.w3.org/1999/xlink" width="27px" height="39px" xml:space="preserve">
<g id="PathID_4" transform="matrix(1, 0, 0, 1, 13.45, 19.35)">
<path style="fill:#000000;fill-opacity:1" d="M0.2 -16.85Q-0.85 -16.85 -1.55 -15.95Q-4.35 -17.3 -6.8 -17.3L-8.1 -17.15L-8.05 -17L-6.65 -16.05L-9 -16.2L-11.3 -15.95L-11.3 -15.8Q-8.05 -14 -6.15 -9.35L-4.45 -5.3Q-3.4 -2.4 -0.45 -0.1Q1 1.05 2.25 1.6L0.95 -2.2L1.7 -2.95L2.7 -3.4L2.75 -3.35L3.95 -2.55Q4.95 -1.8 5.25 -1.7L5.75 -1.6Q6.65 -1.6 6.75 -1.95L6.6 -2.45Q7.3 -2.65 7.2 -2.9L7 -2.9Q6.35 -2.9 6.35 -3.1Q5.85 -4.3 6.3 -4.8L6.75 -5.2L7.4 -5.35L7.65 -5.05L7.75 -4.5L7.8 -4.5Q8.2 -4.5 8.45 -5.55L9.35 -5.85Q9.85 -6.2 9.9 -7.25Q10.6 -7.95 9.85 -8.55L8.7 -8.45L8.3 -8.5Q7.65 -8.55 7.25 -9.4Q7.3 -9.9 5.75 -11.35L4 -12.95Q3.55 -13.5 3.3 -14.5L2.45 -15.3L1.7 -15.65Q1.7 -16.3 1 -16.7L0.2 -16.85M0.45 -13.4L-0.3 -13.2Q-0.85 -13.2 -0.9 -13.5Q-1.3 -14.7 -1 -15.6Q-0.85 -16.15 -0.1 -16.25L-0.05 -16.25Q0.75 -16.25 0.6 -15.75Q0.4 -14.9 0.7 -13.95L0.45 -13.4M4.85 -13.6L5.1 -13.35L12.45 -13.35L12.45 0.7Q12.45 4.3 9.95 8.9Q6.75 14.8 1 18.1L0.75 18.35L-0.3 18.35L-0.55 18.1Q-6.3 14.8 -9.5 8.9Q-12 4.3 -12 0.7L-12 -13.35L-9.9 -13.35L-11.85 -14.9Q-12.5 -15.3 -12.4 -16Q-12.4 -16.75 -11.6 -16.95L-9.2 -17.25Q-9.1 -18 -8.35 -18.2L-6.8 -18.35Q-4.25 -18.35 -1.8 -17.2Q-0.2 -18.35 1.45 -17.65Q2.3 -17.1 2.6 -16.45Q4.1 -15.7 4.35 -14.75Q4.45 -14.1 4.85 -13.6M6.4 -10.2L6.5 -9.5L6.4 -8.85L6.35 -8.7L6.35 -8.2Q6.5 -7.4 6.1 -6.6L6 -6.45L5.75 -6.8L5.85 -7.8L5.5 -8.7L5.1 -9.1L3.75 -9.55Q3.75 -9.65 4.8 -9.95L6.25 -10.25L6.4 -10.2M11.1 2.8L11.35 0.7L11.35 -2.1L0.35 8.85L-10.65 -2.2L-10.65 0.7L-10.4 2.7L0.35 13.5L11.1 2.8"/>
<path style="fill:#FFFFFF;fill-opacity:1" d="M1 -16.7Q1.7 -16.3 1.7 -15.65L2.45 -15.3L3.3 -14.5Q3.55 -13.5 4 -12.95L5.75 -11.35Q7.3 -9.9 7.25 -9.4Q7.65 -8.55 8.3 -8.5L8.7 -8.45L9.85 -8.55Q10.6 -7.95 9.9 -7.25Q9.85 -6.2 9.35 -5.85L8.45 -5.55Q8.2 -4.5 7.8 -4.5L7.75 -4.5L7.65 -5.05L7.4 -5.35L6.75 -5.2L6.3 -4.8Q5.85 -4.3 6.35 -3.1Q6.35 -2.9 7 -2.9L7.2 -2.9Q7.3 -2.65 6.6 -2.45L6.75 -1.95Q6.65 -1.6 5.75 -1.6L5.25 -1.7Q4.95 -1.8 3.95 -2.55L2.75 -3.35L2.7 -3.4L1.7 -2.95L0.95 -2.2L2.25 1.6Q1 1.05 -0.45 -0.1Q-3.4 -2.4 -4.45 -5.3L-6.15 -9.35Q-8.05 -14 -11.3 -15.8L-11.3 -15.95L-9 -16.2L-6.65 -16.05L-8.05 -17L-8.1 -17.15L-6.8 -17.3Q-4.35 -17.3 -1.55 -15.95Q-0.85 -16.85 0.2 -16.85L1 -16.7M0.7 -13.95Q0.4 -14.9 0.6 -15.75Q0.75 -16.25 -0.05 -16.25L-0.1 -16.25Q-0.85 -16.15 -1 -15.6Q-1.3 -14.7 -0.9 -13.5Q-0.85 -13.2 -0.3 -13.2L0.45 -13.4L0.7 -13.95M4.35 -14.75Q4.1 -15.7 2.6 -16.45Q2.3 -17.1 1.45 -17.65Q-0.2 -18.35 -1.8 -17.2Q-4.25 -18.35 -6.8 -18.35L-8.35 -18.2Q-9.1 -18 -9.2 -17.25L-11.6 -16.95Q-12.4 -16.75 -12.4 -16Q-12.5 -15.3 -11.85 -14.9L-9.9 -13.35L-12 -13.35L-12 0.7Q-12 4.3 -9.5 8.9Q-6.3 14.8 -0.55 18.1L-0.3 18.35L0.75 18.35L1 18.1Q6.75 14.8 9.95 8.9Q12.45 4.3 12.45 0.7L12.45 -13.35L5.1 -13.35L4.85 -13.6Q4.45 -14.1 4.35 -14.75M3.35 -17.2Q5 -16.25 5.3 -14.95L5.55 -14.35L13.45 -14.35L13.45 0.7Q13.45 4.45 10.9 9.25Q7.55 15.45 1.6 18.9L1.15 19.35L-0.7 19.35L-1.15 18.9Q-7.1 15.45 -10.45 9.25Q-13 4.45 -13 0.7L-13 -14.35L-12.8 -14.35Q-13.55 -15.2 -13.4 -16.15Q-13.25 -17.55 -11.85 -17.9L-9.9 -18.25Q-9.4 -19 -8.6 -19.15L-6.8 -19.35Q-4.3 -19.35 -1.9 -18.3Q-0.05 -19.4 1.85 -18.55L3.35 -17.2M6.25 -10.25L4.8 -9.95Q3.75 -9.65 3.75 -9.55L5.1 -9.1L5.5 -8.7L5.85 -7.8L5.75 -6.8L6 -6.45L6.1 -6.6Q6.5 -7.4 6.35 -8.2L6.35 -8.7L6.4 -8.85L6.5 -9.5L6.4 -10.2L6.25 -10.25M0.35 13.5L-10.4 2.7L-10.65 0.7L-10.65 -2.2L0.35 8.85L11.35 -2.1L11.35 0.7L11.1 2.8L0.35 13.5"/>
</g>
</svg>