<?xml version="1.0" encoding="UTF-8" standalone="no"?>
<!-- Created with Inkscape (http://www.inkscape.org/) -->

<svg
   xmlns:dc="http://purl.org/dc/elements/1.1/"
   xmlns:cc="http://creativecommons.org/ns#"
   xmlns:rdf="http://www.w3.org/1999/02/22-rdf-syntax-ns#"
   xmlns:svg="http://www.w3.org/2000/svg"
   xmlns="http://www.w3.org/2000/svg"
   version="1.1"
   width="40.799999"
   height="42"
   viewBox="0 0 40.799999 42"
   id="svg3446"
   style="overflow:visible">
  <metadata
     id="metadata3464">
    <rdf:RDF>
      <cc:Work
         rdf:about="">
        <dc:format>image/svg+xml</dc:format>
        <dc:type
           rdf:resource="http://purl.org/dc/dcmitype/StillImage" />
        <dc:title></dc:title>
      </cc:Work>
    </rdf:RDF>
  </metadata>
  <defs
     id="defs3448" />
  <g
     transform="translate(20.4,21)"
     id="g3452">
    <g
       id="g3454">
      <g
         id="g3456">
        <path
           d="M 7.25,-1.7 -0.7,-5 l 7.95,-3.3 0,6.6 z m -1.05,-9.2 -7.95,3.25 3.3,-7.95 4.65,4.7 z m -17.25,-10.1 13.25,0 9.35,9.35 0,13.25 L 8.9,4.25 9.95,4.8 c 1.233333,0.6666667 2.1,1 2.6,1 0.433334,0 1.166667,-0.3166664 2.2,-0.95 1.699999,-1 2.999998,-1.5 3.9,-1.5 l 1.75,0.15 -0.1,8 0.1,0 -0.1,7.1 -1.75,-0.05 c -0.433333,0.03333 -1.166667,0.366668 -2.2,1 -1.5,0.966666 -2.783333,1.45 -3.85,1.45 -0.833333,0 -1.65,-0.2 -2.45,-0.6 l -2.6,-1.35 -1.5,-0.5 c -0.466667,0 -1.2333333,0.333333 -2.3,1 -1.5,0.966666 -2.7666667,1.45 -3.8,1.45 -0.9666667,0 -2.3166667,-0.466667 -4.05,-1.4 -1.2,-0.7 -2.05,-1.05 -2.55,-1.05 -0.4,0 -1.166667,0.333333 -2.3,1 -1.533334,0.966666 -2.816667,1.45 -3.85,1.45 -0.766667,0 -1.583334,-0.2 -2.45,-0.6 l -2.6,-1.35 -1.1,-0.45 -1.1,-0.25 0,-15.3 1.6,0.45 -1.85,-1.9 0,-13.25 9.35,-9.35 z m 12.65,1.5 -12,0 -8.45,8.5 0,12 6.3,6.3 -0.25,0.05 c -0.666667,0 -1.783334,-0.4166666 -3.35,-1.25 C -17.016666,5.633333 -17.833334,5.2666664 -18.6,5 l 0,4.2 1.4,0.55 2.55,1.35 1.8,0.4 c 0.8,0 1.816666,-0.4 3.05,-1.2 l 1.6,-0.85 3.05,0 1.7,0.85 c 1.5,0.8 2.61666675,1.2 3.35,1.2 0.7666666,0 1.7666666,-0.4 3,-1.2 C 4.2333336,9.466667 5.266667,9.05 6,9.05 c 0.5333333,0 1.2666664,0.233334 2.2,0.7 l 2.5,1.35 1.85,0.4 c 0.733333,0 1.749999,-0.4 3.05,-1.2 1.333334,-0.833333 2.366667,-1.25 3.1,-1.25 l 0.15,0.05 0,-4.2 -0.15,0 C 18.033335,4.9 17.000002,5.3 15.6,6.1 14.233334,6.9333334 13.216667,7.35 12.55,7.35 11.916667,7.35 10.816667,6.9333334 9.25,6.1 7.85,5.333333 6.8166666,4.933333 6.15,4.9 L 10.1,1 l 0,-12 -8.5,-8.5 z m -2.65,2.85 -3.35,7.95 -3.25,-7.95 6.6,0 z m -15,8.3 7.95,3.35 -7.95,3.25 0,-6.6 z m 9.05,0.7 -7.95,-3.3 4.65,-4.65 3.3,7.95 z m 0.3,12.55 -0.3,0 2.6,-6.2 3.3,7.95 -1.3,0 L -3.45,6.1 C -4.95,5.3 -6.033333,4.9 -6.7,4.9 z M -14.95,0.85 -7,-2.4 -10.3,5.55 -14.95,0.85 z M -18.6,13 l 0,4.15 1.4,0.55 2.55,1.35 1.8,0.45 c 0.8,0 1.816666,-0.416666 3.05,-1.25 1.366667,-0.800001 2.4000004,-1.2 3.1,-1.2 0.7333333,0 1.816667,0.399999 3.25,1.2 1.4666667,0.833334 2.58333344,1.25 3.35,1.25 0.7666666,0 1.7666666,-0.416666 3,-1.25 1.3666664,-0.800001 2.3999997,-1.2 3.1,-1.2 0.6,0 1.333333,0.216666 2.2,0.65 l 2.5,1.35 1.85,0.45 c 0.766667,0 1.783333,-0.416666 3.05,-1.25 1.366667,-0.800001 2.4,-1.2 3.1,-1.2 l 0.15,0 0,-4.2 -0.15,0 c -0.7,0 -1.733333,0.416667 -3.1,1.25 -1.3,0.800001 -2.316666,1.2 -3.05,1.2 -0.7,0 -1.8,-0.399999 -3.3,-1.2 C 7.7833333,13.266667 6.7,12.85 6,12.85 c -0.7000003,0 -1.7333336,0.416667 -3.1,1.25 -1.2333334,0.800001 -2.2333334,1.2 -3,1.2 -0.7333334,0 -1.8500002,-0.399999 -3.35,-1.2 -1.466667,-0.833333 -2.55,-1.25 -3.25,-1.25 -0.7,0 -1.733333,0.416667 -3.1,1.25 -1.233333,0.800001 -2.233333,1.2 -3,1.2 -0.733333,0 -1.85,-0.399999 -3.35,-1.2 -0.933332,-0.566666 -1.75,-0.933333 -2.45,-1.1 z M 1.5,5.55 -1.8,-2.4 6.15,0.9 1.5,5.55 z"
           id="path3458"
           style="fill:#000000;stroke-linecap:round;stroke-linejoin:round" />
        <path
           d="m -0.7,-5 7.95,3.3 0,-6.6 -7.95,3.3 z m -1.05,-2.65 7.95,-3.25 -4.65,-4.7 -3.3,7.95 z m -8.65,-11.85 12,0 8.5,8.5 0,12 -3.95,3.9 c 0.6666666,0.033333 1.7,0.4333335 3.1,1.2 1.566667,0.8333334 2.666667,1.25 3.3,1.25 0.666667,0 1.683334,-0.4166666 3.05,-1.25 1.4,-0.8 2.433333,-1.2 3.1,-1.2 l 0.15,0 0,4.2 -0.15,-0.05 c -0.733333,0 -1.766666,0.416667 -3.1,1.25 -1.3,0.8 -2.316666,1.2 -3.05,1.2 L 10.7,11.1 8.2,9.75 C 7.266667,9.283334 6.533334,9.05 6,9.05 c -0.733333,0 -1.7666664,0.416667 -3.1,1.25 -1.2333334,0.8 -2.2333334,1.2 -3,1.2 -0.7333334,0 -1.8500002,-0.4 -3.35,-1.2 l -1.7,-0.85 -3.05,0 -1.6,0.85 c -1.233333,0.8 -2.249999,1.2 -3.05,1.2 l -1.8,-0.4 -2.55,-1.35 -1.4,-0.55 0,-4.2 c 0.766666,0.266667 1.583334,0.6333337 2.45,1.1 1.566667,0.8333334 2.683334,1.25 3.35,1.25 l 0.25,-0.05 -6.3,-6.3 0,-12 8.45,-8.5 z m 6,10.8 3.35,-7.95 -6.6,0 3.25,7.95 z m -3.7,3.7 -7.95,-3.35 0,6.6 L -8.1,-5 z m -6.85,-5.95 7.95,3.3 -3.3,-7.95 -4.65,4.65 z M -7,4.9 l 0.3,0 c 0.6666667,0 1.75,0.4 3.25,1.2 l 1.05,0.55 1.3,0 L -4.4,-1.3 -7,4.9 z m 0,-7.3 -7.95,3.25 4.65,4.7 3.3,-7.95 z m -11.6,19.55 0,-4.15 c 0.7,0.166667 1.516668,0.533334 2.45,1.1 1.5,0.800001 2.616667,1.2 3.35,1.2 0.766667,0 1.766667,-0.399999 3,-1.2 1.366667,-0.833333 2.4000004,-1.25 3.1,-1.25 0.7,0 1.783333,0.416667 3.25,1.25 1.5,0.800001 2.61666675,1.2 3.35,1.2 0.7666666,0 1.7666666,-0.399999 3,-1.2 1.3666664,-0.833333 2.3999997,-1.25 3.1,-1.25 0.7000003,0 1.783334,0.416667 3.25,1.25 1.5,0.800001 2.6,1.2 3.3,1.2 0.733333,0 1.749999,-0.399999 3.05,-1.2 1.366667,-0.833333 2.4,-1.25 3.1,-1.25 l 0.15,0 0,4.2 -0.15,0 c -0.7,0 -1.733333,0.399999 -3.1,1.2 -1.266667,0.833334 -2.283333,1.25 -3.05,1.25 L 10.7,19.05 8.2,17.7 C 7.3333335,17.266666 6.6000004,17.05 6,17.05 c -0.7000003,0 -1.7333336,0.399999 -3.1,1.2 -1.2333334,0.833334 -2.2333334,1.25 -3,1.25 -0.7666667,0 -1.8833335,-0.416666 -3.35,-1.25 -1.433333,-0.800001 -2.516666,-1.2 -3.25,-1.2 -0.7,0 -1.733333,0.399999 -3.1,1.2 -1.233333,0.833334 -2.249999,1.25 -3.05,1.25 l -1.8,-0.45 -2.55,-1.35 -1.4,-0.55 z M -1.8,-2.4 1.5,5.55 6.15,0.9 -1.8,-2.4 z"
           id="path3460"
           style="fill:#ffffff;stroke-linecap:round;stroke-linejoin:round" />
      </g>
    </g>
  </g>
</svg>
