<svg width="35" height="41" xmlns="http://www.w3.org/2000/svg" preserveAspectRatio="xMidYMid meet"><rect fill="none" id="canvas_background" height="41" width="42" y="-1" x="-1"/><path d="M1.052 39.73v-1.138c0-.262-.087-.262-.087-.35V36.323l.262-.263s.007-.055.088-.088c.228-.095.175-.262.262-.262 0 0 .113-.026.175-.088a.42.42 0 00.087-.174c.087-.088.194-.101.261-.263.049-.114.14-.138.264-.262.061-.062.054-.094.087-.175.096-.228.263-.262.263-.437v-.348c0-.263.088-.35.088-.525v-.35s.073-.183.176-.35c.091-.148 0-.261 0-.436 0-.087-.062-.112 0-.174a.42.42 0 00.087-.175c.175 0 .262-.086.262-.261 0-.001.218-.073.262-.263.02-.085-.136-.188.088-.35.142-.102.175 0 .175-.087 0-.175.072-.218.262-.263.085-.02.072-.217.262-.262.085-.02.088-.175.35-.262l.262-.262c.262-.262.283-.362.35-.524.047-.114.242-.09.262-.175.045-.19.087-.174.262-.436 0 0-.033-.269 0-.35a1.1 1.1 0 00.088-.35v-1.136c0-.262-.088-.35-.088-.524V22.948c0-.087.026-.2.088-.262.185-.185.083-.31.174-.612.026-.083.088-.262.088-.35 0-.174 0-.261.087-.349.175-.175.175-.262.175-.437 0-.087.087-.262.087-.262 0-.088.174-.175.174-.262 0-.088 0-.175.088-.35l.262-.262c.185-.185.074-.369.175-.611.046-.115.086-.263.174-.35.174-.176.16-.264.174-.35.045-.273.205-.465.35-.7.13-.21.234-.44.262-.612.045-.273.263-.35.263-.437 0-.26.053-.442.087-.523.095-.229.155-.265.175-.35.045-.19.202-.27.262-.524.045-.19.13-.247.175-.437.02-.085.175-.35.175-.35 0-.087.054-.269.087-.35.095-.228.175-.262.175-.35-.001-.174.086-.174.261-.436.001 0 .089-.088.089-.263-.001-.087-.006-.2.086-.35.103-.166.175-.262.175-.35 0-.086.055-.093.088-.174.095-.228.175-.262.175-.35 0-.262.04-.235.087-.35.034-.08.218-.159.263-.349.02-.085 0-.262.087-.437 0 0 .08-.034.175-.262.033-.08.042-.247.087-.437.04-.17.175-.175.175-.35 0-.087.104-.252.262-.524.097-.17.053-.444.087-.525.047-.115.162-.283.262-.525.046-.114.221-.355.261-.525.046-.19.264-.35.35-.612 0 0 .04-.06.088-.174.067-.162.175-.263.175-.35 0-.087-.036-.226.088-.35.124-.123.142-.006.175-.087.048-.114.14-.051.263-.175.061-.062.025-.2.087-.262.062-.062.139.036.262-.088.062-.061.003-.242.088-.262.19-.045.162-.19.262-.262.158-.114.129-.188.175-.262.103-.167.35-.175.35-.35 0 0 .159-.008.262-.175.046-.073.124-.21.262-.348l.35-.35c.138-.138.195-.276.262-.437.047-.114.229-.182.262-.262.047-.115.247-.096.35-.263.046-.074.087-.174.262-.262 0 0 .04-.06.087-.175.033-.08.174-.087.174-.087 0-.087.026-.113.088-.175.061-.06.087-.086.174-.086.088 0 .088-.088.175-.088.176 0 .176-.087.176-.087l.262-.001c.088-.001.088-.089.175-.089l.262.001.263.001.174.001c.088.089.14.053.263.176.061.062 0 .175 0 .263 0 .086-.062.2 0 .26.061.063.06.128.174.176.16.066.174.087.174.087 0 .087.026.113.088.175.123.123.175.087.175.087 0 .088.16.009.262.175.045.074.024.113.086.175.062.062.04.148.088.262.033.08.174.088.174.175s.088.087.088.175c0 .087.175.087.175.175 0 .087-.033.094 0 .174.048.115.14.052.263.175.062.063.04.15.087.263.034.081.026.2.088.263.123.123.175.087.175.175s.025.114.087.175c.062.062-.062.2 0 .263.124.123.175.087.175.174 0 .088.04.148.087.263.034.08.051.05.175.175.062.061 0 .174 0 .262 0 0 .04.06.087.175.034.08.088.174.088.262 0 .086.025.2.087.261.061.063.025.114.087.176.061.062.025.113.087.175.124.124.175.088.175.176-.001 0-.035.094-.001.174.046.115.024.2.086.263.124.123.175.087.175.174.001.088-.032.182.001.263.048.114.129.148.176.262.033.08.087.175.087.262 0 .088.054.182.088.262.048.115.026.2.088.263.124.122.175.086.175.173 0 0 .04.06.087.175.034.08.052.051.175.175.062.062.04.148.088.262.033.081.127.148.174.263.067.161.256.208.35.437.034.08.04.148.088.262.033.08.14.181.174.262.047.113.127.147.174.261.034.082.026.202.088.264.061.061.025.113.087.174.06.062.159.01.261.175.047.075.041.148.089.262.032.081.174.175.174.263 0 .087.087.087.087.175 0 .087.027.113.088.174.062.062.026.113.088.175s.054.094.087.175c.047.114.113.2.175.262.062.06.128.06.175.174.033.08.175.087.175.175 0 .086.113.2.174.261a.807.807 0 01.175.263c.034.081.128.148.175.263.034.08.088.174.175.262.175.175.302.235.35.35.033.08.054.18.087.262.047.114.141.181.175.262.046.114.112.113.174.175.061.062.087.087.087.175.001.087.176.087.176.174v.175c0 .089.054.095.087.176.048.114.054.182.088.262.048.115.128.148.176.263.033.081.053.182.087.263.047.114.13.16.175.35.02.085.04.147.087.262.067.161.175.262.175.437v.437c0 .086.087.261.087.436 0 .087.088.175.088.35 0 .087.087.174.087.262 0 .087-.02.177 0 .262.045.19.088.35.088.524 0 .175.02.363.087.525.047.113.02.275.087.436a1.1 1.1 0 01.088.35c0 .174.087.262.087.437 0 .087.071.183.174.35.092.148 0 .35 0 .436v2.884c0 .087-.087.175-.087.262v.35c0 .087-.026.113-.088.175-.062.063.033.182 0 .263-.048.114-.088.35-.088.437 0 .087.02.265 0 .35-.045.19-.088.175-.088.437v1.224c0 .088 0 .175.088.263 0 0 .026.2.087.262.123.124.174 0 .174.175 0 0 .04.06.088.175.033.08.174.087.174.175 0 0 .04.06.088.174.033.081.025.113.087.175.063.06.131-.016.176.174.02.085.06.215.175.262.082.034.176.088.35.175 0 .001-.012.104.088.176.158.114.275.041.35.087.166.103.214.148.262.263.033.08.175.087.175.087 0 .087.127.148.174.262.033.08.087.175.174.262 0 0 .128.148.175.263.066.161.053.269.087.35.047.114.025.2.087.262.124.123.175.174.175.262l-.001.262-.001.175c-.001.088.086.176.086.176.088 0 .026.2.088.262l.174.175c.062.062.026.113.088.175.062.061.025.113.087.174.062.062.02.101.088.263.048.114.263.087.263.087v.262c0 .088.025.2.087.263l.088.087c.087 0 .087.175.087.262 0 0 .054.27.088.35.047.114.087.262.087.262.087.175.087.262.087.262 0 .175.088.263.088.263v.35s-.026.112-.088.174l-.087.087c-.087 0-.051.052-.175.175-.062.061-.175.087-.262.087-.088 0-.262.174-.437.174-.088.001-.113.027-.175.089-.06.06-.2-.063-.261-.001-.063.06-.089.086-.176.086h-.175c-.088 0-.18.135-.35.175-.19.046-.35.089-.525.089-.087-.001-.183.07-.35.173-.074.046-.16.043-.35.088-.255.06-.35 0-.524 0H28.24c-.175 0-.363-.066-.525 0-.228.095-.35.176-.524.176h-4.546c-.087 0-.148-.04-.262-.088-.08-.033-.261 0-.436 0H13.026c-.175 0-.35.088-.437.088H4.55c-.088 0-.102.067-.263 0a1.14 1.14 0 00-.437-.088c-.088 0-.148-.04-.263-.087-.161-.066-.262 0-.611 0h-.263c-.175 0-.262-.174-.262-.174-.174-.087-.261-.087-.349-.087l-.173-.001v-.176h-.088" id="svg_3" stroke-opacity="null" stroke-width="null" stroke="null" fill="#ffffff"/><g id="svg_1" fill="#000000" transform="translate(0,41) scale(0.10000000149011612,-0.10000000149011612) "><path id="svg_2" d="M102 302c-38-78-52-118-52-148 0-28-5-44-15-48-8-3-15-15-15-26s-4-20-10-20C5 60 0 47 0 30V0h350v30c0 17-4 30-10 30-5 0-10 9-10 20s-7 23-15 26c-11 4-15 21-15 56 0 40-7 62-35 108-20 32-41 76-49 97-10 28-19 39-37 40-21 2-30-10-77-105zm93 66c4-13 24-53 46-90 38-64 53-138 29-138-5 0-10 4-10 9s-12 23-26 40c-36 43-82 43-118 0-14-17-26-35-26-40s-4-9-10-9c-23 0-8 61 37 152 49 98 67 115 78 76zm85-253c0-12-18-15-105-15s-105 3-105 15 18 15 105 15 105-3 105-15zm28-42c3-10-28-13-132-13C61 60 40 62 40 75s19 15 132 13c94-2 133-7 136-15zm22-38c0-13-24-15-155-15S20 22 20 35s24 15 155 15 155-2 155-15z"/></g></svg>