<svg width="35" height="41" xmlns="http://www.w3.org/2000/svg" preserveAspectRatio="xMidYMid meet">

 <g>
  <title>background</title>
  <rect fill="none" id="canvas_background" height="41" width="42" y="-1" x="-1"/>
 </g>
 <g>
  <title>Layer 1</title>
  <path d="m1.05245,39.73077c0,-0.174824 0,-0.262238 0,-0.262238c0,-0.174824 0,-0.262238 0,-0.349651c0,-0.174824 0,-0.262238 0,-0.262238c0,-0.174824 0,-0.262238 0,-0.262238c0,-0.262238 -0.087413,-0.262238 -0.087413,-0.349648c0,-0.174828 0,-0.262241 0,-0.437065c0,-0.087414 0,-0.262238 0,-0.349651c0,-0.262238 0,-0.349648 0,-0.611885c0,0 0,-0.174828 0,-0.262241c0,0 0,-0.08741 0,-0.262238c0,0 0.087413,-0.08741 0.262238,-0.262238c0,0 0.006654,-0.053959 0.087413,-0.08741c0.228421,-0.094616 0.174825,-0.262238 0.262238,-0.262238c0,0 0.113014,-0.025604 0.174825,-0.087414c0.06181,-0.06181 0.087413,-0.174824 0.087413,-0.174824c0.087413,-0.087414 0.195333,-0.100723 0.262238,-0.262241c0.047307,-0.114208 0.138616,-0.138615 0.262238,-0.262238c0.06181,-0.06181 0.053961,-0.094063 0.087413,-0.174824c0.094615,-0.22842 0.262238,-0.262238 0.262238,-0.437061c0,-0.087414 0,-0.262238 0,-0.349651c0,-0.262238 0.087413,-0.349651 0.087413,-0.524475c0,-0.087414 0,-0.262238 0,-0.349651c0,0 0.072066,-0.18338 0.174825,-0.349651c0.09191,-0.148716 0,-0.262238 0,-0.437061c0,-0.087414 -0.061811,-0.113018 0,-0.174828c0.06181,-0.06181 0.087413,-0.174824 0.087413,-0.174824c0.174825,0 0.262238,-0.087412 0.262238,-0.262238c0,0 0.21733,-0.072006 0.262238,-0.262238c0.020083,-0.085073 -0.136834,-0.188023 0.087413,-0.349651c0.141825,-0.102222 0.174825,0 0.174825,-0.087412c0,-0.174826 0.072006,-0.217331 0.262238,-0.262238c0.085074,-0.020082 0.072006,-0.217331 0.262238,-0.262238c0.085074,-0.020082 0.087413,-0.174826 0.34965,-0.262238c0,0 0.262238,-0.262238 0.262238,-0.262238c0.262238,-0.262238 0.282747,-0.362959 0.34965,-0.524477c0.047307,-0.11421 0.242155,-0.08975 0.262238,-0.174824c0.044908,-0.190231 0.087413,-0.174826 0.262238,-0.437063c0,0 -0.033452,-0.268892 0,-0.349651c0.047307,-0.11421 0.087412,-0.262238 0.087412,-0.349649c0,-0.174826 0,-0.262238 0,-0.437063c0,-0.087412 0,-0.087412 0,-0.349651c0,-0.087412 0,-0.262238 0,-0.349649c0,-0.262238 -0.087412,-0.349651 -0.087412,-0.524475c0,-0.262238 0,-0.262238 0,-0.349651c0,-0.174826 0,-0.262238 0,-0.349649c0,-0.174826 0,-0.437063 0,-0.437063c0,-0.087414 0,-0.262238 0,-0.349651c0,0 0,-0.087412 0,-0.262238c0,-0.087412 0,-0.262238 0,-0.262238c0,-0.087412 0,-0.262238 0,-0.262238c0,-0.087412 0,-0.349651 0,-0.349651c0,-0.087412 0,-0.262238 0,-0.524475c0,-0.087412 0,-0.174826 0,-0.349649c0,-0.087414 0.025602,-0.200428 0.087412,-0.262238c0.18543,-0.185431 0.083494,-0.310242 0.174825,-0.611889c0.025331,-0.083662 0.087413,-0.262238 0.087413,-0.349649c0,-0.174826 0,-0.262239 0.087412,-0.349651c0.174826,-0.174826 0.174825,-0.262238 0.174825,-0.437063c0,-0.087412 0.087413,-0.262238 0.087413,-0.262238c0,-0.087412 0.174825,-0.174826 0.174825,-0.262238c0,-0.087412 0,-0.174826 0.087412,-0.349651c0,0 0.200428,-0.200428 0.262238,-0.262238c0.18543,-0.185431 0.074471,-0.369612 0.174825,-0.611887c0.047307,-0.114212 0.087412,-0.262238 0.174825,-0.349651c0.174824,-0.174826 0.160823,-0.263367 0.174825,-0.349649c0.044278,-0.272854 0.204327,-0.464161 0.34965,-0.699301c0.129982,-0.210316 0.234234,-0.439322 0.262238,-0.611889c0.044278,-0.272854 0.262239,-0.349649 0.262239,-0.437063c0,-0.262238 0.053961,-0.443718 0.087412,-0.524475c0.094615,-0.228421 0.154742,-0.264576 0.174826,-0.34965c0.044908,-0.190231 0.201987,-0.269253 0.262238,-0.524475c0.044908,-0.190232 0.129918,-0.246832 0.174826,-0.437063c0.020083,-0.085074 0.174825,-0.34965 0.174825,-0.34965c0,-0.087413 0.053962,-0.268891 0.087413,-0.34965c0.094614,-0.22842 0.174825,-0.262238 0.174825,-0.34965c0,-0.174826 0.087413,-0.174826 0.262239,-0.437063c0,0 0.087412,-0.087413 0.087412,-0.262238c0,-0.087413 -0.004498,-0.200935 0.087413,-0.34965c0.10276,-0.166269 0.174826,-0.262238 0.174826,-0.34965c0,-0.087413 0.053961,-0.094067 0.087412,-0.174826c0.094615,-0.22842 0.174826,-0.262238 0.174826,-0.349649c0,-0.262239 0.040106,-0.235441 0.087413,-0.349651c0.033451,-0.080758 0.21733,-0.159418 0.262238,-0.349649c0.020083,-0.085074 0,-0.262239 0.087413,-0.437063c0,0 0.080211,-0.033818 0.174825,-0.262238c0.033451,-0.080759 0.042505,-0.246832 0.087413,-0.437063c0.040167,-0.170149 0.174825,-0.174826 0.174825,-0.34965c0,-0.087413 0.104046,-0.251881 0.262239,-0.524476c0.098106,-0.169055 0.053961,-0.443716 0.087412,-0.524475c0.047307,-0.11421 0.161884,-0.282199 0.262239,-0.524476c0.047307,-0.114209 0.222071,-0.354327 0.262238,-0.524475c0.044908,-0.190232 0.262238,-0.34965 0.34965,-0.611888c0,0 0.040106,-0.060615 0.087413,-0.174825c0.066902,-0.161517 0.174825,-0.262238 0.174825,-0.34965c0,-0.087412 -0.036207,-0.22603 0.087413,-0.34965c0.12362,-0.12362 0.141374,-0.006654 0.174825,-0.087412c0.047308,-0.11421 0.138618,-0.051205 0.262239,-0.174825c0.06181,-0.06181 0.025602,-0.200428 0.087412,-0.262238c0.06181,-0.06181 0.138618,0.036207 0.262238,-0.087413c0.06181,-0.06181 0.002338,-0.242154 0.087413,-0.262238c0.190232,-0.044908 0.161952,-0.189956 0.262238,-0.262238c0.158566,-0.114288 0.12887,-0.18788 0.174826,-0.262238c0.102759,-0.166268 0.34965,-0.174825 0.34965,-0.34965c0,0 0.159478,-0.008557 0.262238,-0.174825c0.045956,-0.074358 0.124026,-0.21144 0.262238,-0.349651c0.138211,-0.138211 0.211439,-0.211439 0.34965,-0.34965c0.138211,-0.138211 0.195336,-0.275545 0.262239,-0.437063c0.047307,-0.114209 0.228786,-0.181479 0.262238,-0.262238c0.047306,-0.11421 0.246891,-0.09597 0.349649,-0.262238c0.045956,-0.074358 0.087414,-0.174825 0.262239,-0.262238c0,0 0.040106,-0.060616 0.087412,-0.174825c0.033451,-0.080759 0.174826,-0.087413 0.174826,-0.087413c0,-0.087413 0.025602,-0.113015 0.087412,-0.174825c0.06181,-0.06181 0.087412,-0.087413 0.174826,-0.087413c0.087412,0 0.087412,-0.087413 0.174826,-0.087413c0.174824,0 0.174824,-0.087412 0.174824,-0.087412c0.087414,0 0.262238,0 0.262238,0c0.087414,0 0.087414,-0.087413 0.174826,-0.087413c0.087414,0 0.174826,0 0.262238,0c0.174826,0 0.174826,0 0.262238,0c0.174826,0 0.174826,0 0.174826,0c0.087412,0.087413 0.138617,0.051205 0.262238,0.174825c0.06181,0.06181 0,0.174825 0,0.262238c0,0.087413 -0.06181,0.200428 0,0.262238c0.061811,0.061811 0.060616,0.127518 0.174826,0.174825c0.161518,0.066903 0.174826,0.087413 0.174826,0.087413c0,0.087413 0.025602,0.113015 0.087412,0.174825c0.123621,0.123621 0.174826,0.087412 0.174826,0.087412c0,0.087413 0.159477,0.008557 0.262238,0.174825c0.045956,0.074358 0.025602,0.113015 0.087412,0.174825c0.06181,0.06181 0.040106,0.148027 0.087414,0.262238c0.033451,0.080758 0.174824,0.087412 0.174824,0.174825c0,0.087413 0.087414,0.087413 0.087414,0.174825c0,0.087413 0.174826,0.087413 0.174826,0.174825c0,0.087413 -0.033451,0.094066 0,0.174825c0.047306,0.11421 0.138617,0.051205 0.262238,0.174825c0.06181,0.06181 0.040106,0.148028 0.087412,0.262238c0.033451,0.080759 0.025602,0.200428 0.087412,0.262238c0.123621,0.123621 0.174826,0.087413 0.174826,0.174826c0,0.087412 0.025602,0.113014 0.087414,0.174825c0.06181,0.06181 -0.06181,0.200428 0,0.262238c0.123619,0.123619 0.174824,0.087412 0.174824,0.174825c0,0.087413 0.040106,0.148027 0.087414,0.262238c0.033451,0.080759 0.051205,0.051207 0.174824,0.174826c0.06181,0.06181 0,0.174825 0,0.262238c0,0 0.040106,0.060614 0.087414,0.174825c0.033451,0.080759 0.087412,0.174825 0.087412,0.262238c0,0.087412 0.025604,0.200428 0.087414,0.262238c0.06181,0.06181 0.025602,0.113015 0.087412,0.174825c0.06181,0.06181 0.025602,0.113015 0.087412,0.174825c0.123621,0.123621 0.174826,0.087412 0.174826,0.174825c0,0 -0.033451,0.094066 0,0.174825c0.047306,0.11421 0.025602,0.200428 0.087412,0.262238c0.123621,0.12362 0.174826,0.087413 0.174826,0.174826c0,0.087412 -0.033451,0.181479 0,0.262238c0.047308,0.114211 0.12752,0.148027 0.174826,0.262238c0.033451,0.080759 0.087412,0.174826 0.087412,0.262238c0,0.087413 0.053963,0.181479 0.087414,0.262239c0.047306,0.114209 0.025602,0.200427 0.087412,0.262238c0.123621,0.12362 0.174826,0.087413 0.174826,0.174825c0,0 0.040106,0.060616 0.087412,0.174826c0.033451,0.080759 0.051205,0.051205 0.174826,0.174825c0.06181,0.06181 0.040106,0.148028 0.087412,0.262239c0.033451,0.080758 0.12752,0.148027 0.174826,0.262238c0.066902,0.161517 0.255037,0.208642 0.349651,0.437063c0.033451,0.080758 0.040106,0.148027 0.087412,0.262238c0.033451,0.080759 0.141375,0.181479 0.174826,0.262238c0.047306,0.11421 0.127518,0.148027 0.174824,0.262238c0.033451,0.080759 0.025604,0.200428 0.087414,0.262239c0.06181,0.06181 0.025602,0.113014 0.087412,0.174825c0.06181,0.06181 0.159477,0.008556 0.262238,0.174825c0.045956,0.074358 0.040106,0.148027 0.087414,0.262239c0.033451,0.080758 0.174824,0.174825 0.174824,0.262238c0,0.087413 0.087414,0.087413 0.087414,0.174825c0,0.087413 0.025602,0.113015 0.087412,0.174826c0.06181,0.06181 0.025602,0.113015 0.087412,0.174825c0.061811,0.06181 0.053963,0.094067 0.087414,0.174826c0.047306,0.11421 0.113016,0.200427 0.174826,0.262238c0.06181,0.06181 0.127518,0.060616 0.174824,0.174826c0.033451,0.080758 0.174826,0.087412 0.174826,0.174825c0,0.087413 0.113014,0.200427 0.174826,0.262238c0.06181,0.06181 0.127518,0.148027 0.174826,0.262239c0.033451,0.080758 0.127518,0.148027 0.174824,0.262238c0.033451,0.080759 0.087414,0.174825 0.174826,0.262238c0.174826,0.174827 0.302343,0.235439 0.349651,0.34965c0.033451,0.080759 0.053961,0.181479 0.087412,0.262238c0.047306,0.11421 0.141375,0.181479 0.174826,0.262238c0.047306,0.11421 0.113014,0.113016 0.174824,0.174826c0.06181,0.06181 0.087414,0.087412 0.087414,0.174826c0,0.087412 0.174826,0.087412 0.174826,0.174824c0,0.087414 0,0.087414 0,0.174826c0,0.087414 0.053961,0.094069 0.087412,0.174826c0.047306,0.114208 0.053961,0.18148 0.087412,0.262238c0.047308,0.11421 0.12752,0.148029 0.174826,0.262238c0.033451,0.080759 0.053961,0.18148 0.087412,0.262238c0.047308,0.114212 0.129919,0.15942 0.174826,0.349651c0.020082,0.085073 0.040106,0.148027 0.087414,0.262238c0.066904,0.161518 0.174824,0.262238 0.174824,0.437063c0,0.087412 0,0.262238 0,0.437063c0,0.087412 0.087414,0.262238 0.087414,0.437063c0,0.087412 0.087412,0.174824 0.087412,0.349649c0,0.087412 0.087412,0.174826 0.087412,0.262238c0,0.087414 -0.020082,0.177164 0,0.262238c0.044909,0.190233 0.087414,0.349651 0.087414,0.524477c0,0.174824 0.020508,0.362957 0.087412,0.524475c0.047308,0.11421 0.020512,0.275545 0.087414,0.437063c0.047306,0.114208 0.087412,0.262238 0.087412,0.349649c0,0.174826 0.087412,0.262238 0.087412,0.437063c0,0.087412 0.072065,0.18338 0.174826,0.349649c0.091911,0.148716 0,0.349651 0,0.437063c0,0.087414 0,0.262238 0,0.349651c0,0.174826 0,0.349649 0,0.437063c0,0.087412 0,0.262238 0,0.349649c0,0.174826 0,0.262238 0,0.524475c0,0.174826 0,0.349651 0,0.437063c0,0.087414 0,0.174826 0,0.437063c0,0.087414 0,0.262238 0,0.349651c0,0.087412 -0.087412,0.174824 -0.087412,0.262238c0,0 0,0.174826 0,0.349649c0,0.087414 -0.025602,0.113014 -0.087414,0.174826c-0.06181,0.06181 0.033451,0.181479 0,0.262238c-0.047306,0.11421 -0.087412,0.349651 -0.087412,0.437063c0,0.087412 0.020084,0.264576 0,0.349651c-0.044907,0.190229 -0.087412,0.174824 -0.087412,0.437061c0,0.174826 0,0.262239 0,0.437063c0,0.087414 0,0.174826 0,0.349651c0,0.087412 0,0.087412 0,0.262238c0,0.087412 0,0.174826 0,0.174826c0,0.087412 0,0.174824 0.087412,0.262238c0,0 0.0256,0.200426 0.087412,0.262238c0.123621,0.123621 0.174826,0 0.174826,0.174826c0,0 0.040106,0.060616 0.087412,0.174824c0.033451,0.080759 0.174826,0.087414 0.174826,0.174826c0,0 0.040106,0.060614 0.087414,0.174826c0.033451,0.080757 0.0256,0.113014 0.087412,0.174826c0.06181,0.06181 0.129917,-0.015408 0.174826,0.174824c0.020084,0.085075 0.060616,0.214931 0.174824,0.262238c0.080759,0.033451 0.174826,0.087414 0.349651,0.174826c0,0 -0.012873,0.102543 0.087412,0.174824c0.158567,0.114288 0.275293,0.041458 0.349651,0.087414c0.166269,0.10276 0.21493,0.148029 0.262238,0.262238c0.033453,0.080761 0.174826,0.087414 0.174826,0.087414c0,0.087414 0.127518,0.148026 0.174824,0.262238c0.033451,0.080761 0.087414,0.174824 0.174826,0.262238c0,0 0.127518,0.148026 0.174826,0.262238c0.066902,0.161514 0.053959,0.26889 0.087412,0.349651c0.047308,0.114208 0.025602,0.200428 0.087412,0.262238c0.123623,0.123623 0.174828,0.174824 0.174828,0.262238c0,0 0,0.174824 0,0.262238c0,0 0,0.087414 0,0.174824c0,0.087414 0.08741,0.174828 0.08741,0.174828c0.087414,0 0.025604,0.200428 0.087414,0.262238c0.06181,0.06181 0.113014,0.113014 0.174824,0.174824c0.06181,0.06181 0.025604,0.113018 0.087414,0.174828c0.06181,0.06181 0.025604,0.113014 0.087414,0.174824c0.06181,0.06181 0.020508,0.100723 0.08741,0.262238c0.04731,0.114212 0.262241,0.087414 0.262241,0.087414c0,0.174824 0,0.174824 0,0.262238c0,0.08741 0.0256,0.200428 0.08741,0.262238c0.06181,0.06181 0.087414,0.08741 0.087414,0.08741c0.087414,0 0.087414,0.174828 0.087414,0.262241c0,0 0.053959,0.26889 0.08741,0.349648c0.04731,0.114212 0.087414,0.262238 0.087414,0.262238c0.087414,0.174828 0.087414,0.262238 0.087414,0.262238c0,0.174828 0.08741,0.262238 0.08741,0.262238c0,0.174828 0,0.262241 0,0.349651c0,0 -0.0256,0.113018 -0.08741,0.174828c-0.06181,0.06181 -0.087414,0.08741 -0.087414,0.08741c-0.087414,0 -0.051201,0.051205 -0.174824,0.174828c-0.06181,0.06181 -0.174828,0.08741 -0.262238,0.08741c-0.087414,0 -0.262241,0.174828 -0.437065,0.174828c-0.087414,0 -0.113014,0.0256 -0.174824,0.08741c-0.06181,0.06181 -0.200428,-0.06181 -0.262238,0c-0.06181,0.06181 -0.087414,0.087414 -0.174828,0.087414c0,0 -0.087412,0 -0.174824,0c-0.087414,0 -0.179502,0.134655 -0.349651,0.174824c-0.190231,0.044907 -0.349649,0.087414 -0.524475,0.087414c-0.087412,0 -0.18338,0.072067 -0.349649,0.174828c-0.074358,0.045956 -0.15942,0.042503 -0.349651,0.08741c-0.255222,0.060249 -0.349649,0 -0.524475,0c-0.087412,0 -0.262238,0 -0.349651,0c-0.174824,0 -0.262238,0 -0.349649,0c-0.087412,0 -0.262238,0 -0.349651,0c-0.087412,0 -0.174824,0 -0.262238,0c-0.087412,0 -0.174824,0 -0.262238,0c-0.174826,0 -0.362957,-0.066902 -0.524475,0c-0.228422,0.094616 -0.349651,0.174828 -0.524475,0.174828c-0.262238,0 -0.437063,0 -0.699301,0c-0.174826,0 -0.349651,0 -0.524477,0c-0.174824,0 -0.349649,0 -0.437061,0c-0.087414,0 -0.174826,0 -0.349651,0c-0.087412,0 -0.262238,0 -0.437063,0c-0.174826,0 -0.349649,0 -0.524475,0c-0.174826,0 -0.349649,0 -0.437063,0c-0.174826,0 -0.349649,0 -0.437063,0c-0.174824,0 -0.262238,0 -0.349649,0c-0.087414,0 -0.262238,0 -0.349651,0c-0.087412,0 -0.148026,-0.040104 -0.262238,-0.087414c-0.080757,-0.033451 -0.262238,0 -0.437063,0c-0.174824,0 -0.262238,0 -0.437063,0c-0.174824,0 -0.349649,0 -0.524475,0c-0.174826,0 -0.262238,0 -0.349649,0c-0.174826,0 -0.262238,0 -0.349651,0c-0.174826,0 -0.262238,0 -0.349649,0c-0.174826,0 -0.349651,0 -0.524477,0c-0.174824,0 -0.262238,0 -0.437061,0c-0.174826,0 -0.349651,0 -0.524477,0c-0.262238,0 -0.437061,0 -0.699301,0c-0.262238,0 -0.437061,0 -0.699301,0c-0.262238,0 -0.437061,0 -0.699301,0c-0.349649,0 -0.611887,0 -0.874125,0c-0.262238,0 -0.524475,0 -0.786713,0c-0.174826,0 -0.437063,0 -0.699301,0c-0.174826,0 -0.34965,0 -0.524476,0c-0.174825,0 -0.262238,0 -0.437062,0c-0.174826,0 -0.34965,0.087414 -0.437063,0.087414c-0.262238,0 -0.437063,0 -0.699301,0c-0.174826,0 -0.524476,0 -0.874126,0c-0.174825,0 -0.611888,0 -0.961538,0c-0.34965,0 -0.786714,0 -0.961538,0c-0.34965,0 -0.699301,0 -0.874126,0c-0.262238,0 -0.611888,0 -0.874125,0c-0.262238,0 -0.524476,0 -0.874126,0c-0.262238,0 -0.611888,0 -0.874126,0c-0.174825,0 -0.262238,0 -0.524476,0c-0.087412,0 -0.34965,0 -0.524476,0c-0.087412,0 -0.10072,0.066902 -0.262238,0c-0.114211,-0.04731 -0.262238,-0.087414 -0.437063,-0.087414c-0.087413,0 -0.148027,-0.040104 -0.262238,-0.087414c-0.161517,-0.066902 -0.262238,0 -0.611888,0c-0.087413,0 -0.262238,0 -0.262238,0c-0.174825,0 -0.262238,-0.174824 -0.262238,-0.174824c-0.174825,-0.087414 -0.262238,-0.087414 -0.34965,-0.087414c-0.087413,0 -0.087413,0 -0.174825,0l0,-0.174824l-0.087413,0" id="svg_3" stroke-opacity="null" stroke-width="null" stroke="null" fill="#ffffff"/>
  <g id="svg_1" fill="#000000" transform="translate(0,41) scale(0.10000000149011612,-0.10000000149011612) ">
   <path id="svg_2" d="m102,302c-38,-78 -52,-118 -52,-148c0,-28 -5,-44 -15,-48c-8,-3 -15,-15 -15,-26c0,-11 -4,-20 -10,-20c-5,0 -10,-13 -10,-30l0,-30l175,0l175,0l0,30c0,17 -4,30 -10,30c-5,0 -10,9 -10,20c0,11 -7,23 -15,26c-11,4 -15,21 -15,56c0,40 -7,62 -35,108c-20,32 -41,76 -49,97c-10,28 -19,39 -37,40c-21,2 -30,-10 -77,-105zm93,66c4,-13 24,-53 46,-90c38,-64 53,-138 29,-138c-5,0 -10,4 -10,9c0,5 -12,23 -26,40c-36,43 -82,43 -118,0c-14,-17 -26,-35 -26,-40c0,-5 -4,-9 -10,-9c-23,0 -8,61 37,152c49,98 67,115 78,76zm85,-253c0,-12 -18,-15 -105,-15c-87,0 -105,3 -105,15c0,12 18,15 105,15c87,0 105,-3 105,-15zm28,-42c3,-10 -28,-13 -132,-13c-115,0 -136,2 -136,15c0,13 19,15 132,13c94,-2 133,-7 136,-15zm22,-38c0,-13 -24,-15 -155,-15c-131,0 -155,2 -155,15c0,13 24,15 155,15c131,0 155,-2 155,-15z"/>
  </g>
 </g>
</svg>