<svg xmlns="http://www.w3.org/2000/svg" version="1.1" xmlns:xlink="http://www.w3.org/1999/xlink" width="40" height="40" x="0" y="0" viewBox="0 0 60 60" style="enable-background:new 0 0 512 512" xml:space="preserve" class=""><g><path fill="#ffffff" d="M54 26H6C6 12 21 1 30 1s24 11 24 25z" opacity="1" data-original="#b6bbbc" class=""></path><path fill="#ffffff" d="M34 24.04V7.2a1.218 1.218 0 0 1 1.93-.99c4.61 3.44 9.2 10.64 9.96 18.5zM14.11 24.71c.76-7.86 5.35-15.06 9.96-18.5A1.218 1.218 0 0 1 26 7.2v16.84z" opacity="1" data-original="#a1a7a8" class=""></path><path fill="#ffffff" d="M54 26v9h-6l-5.48-3.97h-26L12 35H6v-9s7-2 24-2 24 2 24 2z" opacity="1" data-original="#cfd2d3" class=""></path><path fill="#ffffff" d="M6 34a1 1 0 0 0-1 1v1c0 12.2 1.409 18.7 7.306 22.7a1.731 1.731 0 0 0 2.194-.2 1.715 1.715 0 0 0 .255-2.1A20.011 20.011 0 0 1 12 46V34zM54 34a1 1 0 0 1 1 1v1c0 12.2-1.409 18.7-7.306 22.7a1.731 1.731 0 0 1-2.194-.2 1.715 1.715 0 0 1-.255-2.1A20.011 20.011 0 0 0 48 46V34z" opacity="1" data-original="#f2bc35" class=""></path><path fill="#ffffff" d="M30 30c3 0 5-1 10-1 5.277 0 8.28 1.136 9.44 1.7a.993.993 0 0 1 .56.9V35a1 1 0 0 1-1 1h-2.389a.992.992 0 0 1-.849-.474C45.244 34.68 43.742 33 40 33a11.978 11.978 0 0 0-8 3 3.415 3.415 0 0 1 1 2.414V45a1 1 0 0 1-1 1h-4a1 1 0 0 1-1-1v-6.586A3.415 3.415 0 0 1 28 36a11.978 11.978 0 0 0-8-3c-3.742 0-5.244 1.68-5.762 2.526a.992.992 0 0 1-.849.474H11a1 1 0 0 1-1-1v-3.4a.993.993 0 0 1 .56-.9c1.16-.56 4.163-1.7 9.44-1.7 5 0 7 1 10 1z" opacity="1" data-original="#d3a02d" class=""></path><g fill="#373737"><path d="M44.391 55.877a2.723 2.723 0 0 0 3.865 3.653C54.766 55.112 56 47.852 56 36v-1a1.993 1.993 0 0 0-1-1.722V26C55 11.647 39.872 0 30 0S5 11.647 5 26v4a1 1 0 0 0 2 0v-3.212C9.16 26.309 16.31 25 30 25c13.65 0 20.833 1.31 23 1.789V33h-2v-1.4a1.981 1.981 0 0 0-1.126-1.8C48.485 29.125 45.354 28 40 28a34.754 34.754 0 0 0-6.479.609A20.253 20.253 0 0 1 30 29a20.253 20.253 0 0 1-3.521-.391A34.754 34.754 0 0 0 20 28c-5.354 0-8.485 1.125-9.873 1.8A1.982 1.982 0 0 0 9 31.6V33H6a2 2 0 0 0-2 2v1c0 11.852 1.234 19.112 7.744 23.53a2.722 2.722 0 0 0 3.865-3.653A19.064 19.064 0 0 1 13 46v-9h.389a1.978 1.978 0 0 0 1.7-.951C15.468 35.434 16.7 34 20 34a11.311 11.311 0 0 1 6.619 2.157A4.38 4.38 0 0 0 26 38.414V45a2 2 0 0 0 2 2h4a2 2 0 0 0 2-2v-6.586a4.389 4.389 0 0 0-.618-2.257A11.3 11.3 0 0 1 40 34c3.3 0 4.532 1.434 4.91 2.047a1.978 1.978 0 0 0 1.7.953H47v9a19.064 19.064 0 0 1-2.609 9.877zM25 23.061c-3.875.1-7.1.3-9.739.534 1.1-7.377 5.546-13.7 9.4-16.58A.182.182 0 0 1 24.874 7a.216.216 0 0 1 .126.2zm2-.04V7.2a2.212 2.212 0 0 0-1.225-1.985 2.188 2.188 0 0 0-2.3.193c-4.414 3.294-9.2 10.2-10.254 18.39-2.967.326-4.983.683-6.172.93C7.921 12.276 21.418 2 30 2s22.079 10.276 22.953 22.728c-1.189-.247-3.205-.6-6.172-.93-1.052-8.187-5.84-15.1-10.258-18.393a2.183 2.183 0 0 0-2.3-.19A2.212 2.212 0 0 0 33 7.2v15.821Q31.554 23 30 23t-3 .021zm17.739.574c-2.636-.238-5.864-.438-9.739-.534V7.2a.216.216 0 0 1 .126-.2.182.182 0 0 1 .206.012c3.86 2.88 8.307 9.206 9.407 16.588zM13.9 56.906a.722.722 0 0 1-.105.882.731.731 0 0 1-.923.088C7.732 54.391 6 48.871 6 36v-1h3a2 2 0 0 0 2 2v9a21.053 21.053 0 0 0 2.9 10.906zM40 32a12.924 12.924 0 0 0-8.707 3.293 1 1 0 0 0 0 1.414A2.4 2.4 0 0 1 32 38.414V45h-4v-6.586a2.4 2.4 0 0 1 .707-1.707 1 1 0 0 0 0-1.414A12.924 12.924 0 0 0 20 32c-4.149 0-5.925 1.881-6.611 3H11v-3.4c1-.48 3.863-1.6 9.005-1.6a33.174 33.174 0 0 1 6.143.58A21.985 21.985 0 0 0 30 31a21.985 21.985 0 0 0 3.857-.42A33.174 33.174 0 0 1 40 30c5.142 0 8.01 1.117 9 1.6V35h-2.386c-.689-1.119-2.465-3-6.614-3zm11 3h3v1c0 12.871-1.732 18.391-6.867 21.876a.731.731 0 0 1-.923-.088.722.722 0 0 1-.105-.882A21.053 21.053 0 0 0 49 46v-9a2 2 0 0 0 2-2z" fill="#000000" opacity="1" data-original="#373737" class=""></path><path d="M30 17a1 1 0 0 0-1 1v1a1 1 0 0 0 2 0v-1a1 1 0 0 0-1-1zM30 11a1 1 0 0 0-1 1v1a1 1 0 0 0 2 0v-1a1 1 0 0 0-1-1zM30 5a1 1 0 0 0-1 1v1a1 1 0 0 0 2 0V6a1 1 0 0 0-1-1z" fill="#000000" opacity="1" data-original="#373737" class=""></path></g></g></svg>