<svg xmlns="http://www.w3.org/2000/svg" version="1.1" width="45" height="45" x="0" y="0" viewBox="0 0 60 60" style="" xml:space="preserve"><path fill="#3b81f7" d="M54 26H6C6 12 21 1 30 1s24 11 24 25z" opacity="1" data-original="#b6bbbc"/><path fill="#3b81f7" d="M34 24.04V7.2a1.218 1.218 0 011.93-.99c4.61 3.44 9.2 10.64 9.96 18.5zm-19.89.67c.76-7.86 5.35-15.06 9.96-18.5A1.218 1.218 0 0126 7.2v16.84z" opacity="1" data-original="#a1a7a8"/><path fill="#3b81f7" d="M54 26v9h-6l-5.48-3.97h-26L12 35H6v-9s7-2 24-2 24 2 24 2z" opacity="1" data-original="#cfd2d3"/><path fill="#3b81f7" d="M6 34a1 1 0 00-1 1v1c0 12.2 1.41 18.7 7.306 22.7a1.73 1.73 0 002.194-.2 1.715 1.715 0 00.255-2.1A20.01 20.01 0 0112 46V34zm48 0a1 1 0 011 1v1c0 12.2-1.41 18.7-7.306 22.7a1.73 1.73 0 01-2.194-.2 1.715 1.715 0 01-.255-2.1A20.01 20.01 0 0048 46V34z" opacity="1" data-original="#f2bc35"/><path fill="#3b81f7" d="M30 30c3 0 5-1 10-1 5.277 0 8.28 1.136 9.44 1.7a.993.993 0 01.56.9V35a1 1 0 01-1 1h-2.39a.992.992 0 01-.848-.474C45.244 34.68 43.742 33 40 33a11.978 11.978 0 00-8 3 3.415 3.415 0 011 2.414V45a1 1 0 01-1 1h-4a1 1 0 01-1-1v-6.586A3.415 3.415 0 0128 36a11.978 11.978 0 00-8-3c-3.742 0-5.244 1.68-5.762 2.526a.992.992 0 01-.85.474H11a1 1 0 01-1-1v-3.4a.993.993 0 01.56-.9c1.16-.56 4.163-1.7 9.44-1.7 5 0 7 1 10 1z" opacity="1" data-original="#d3a02d"/><g fill="#373737"><path d="M44.39 55.877a2.723 2.723 0 003.866 3.653C54.766 55.112 56 47.852 56 36v-1a1.993 1.993 0 00-1-1.722V26C55 11.647 39.872 0 30 0S5 11.647 5 26v4a1 1 0 002 0v-3.212C9.16 26.308 16.31 25 30 25c13.65 0 20.833 1.31 23 1.79V33h-2v-1.4a1.98 1.98 0 00-1.126-1.8c-1.39-.675-4.52-1.8-9.874-1.8a34.754 34.754 0 00-6.48.61A20.253 20.253 0 0130 29a20.253 20.253 0 01-3.52-.39A34.754 34.754 0 0020 28c-5.354 0-8.485 1.125-9.873 1.8A1.982 1.982 0 009 31.6V33H6a2 2 0 00-2 2v1c0 11.852 1.234 19.112 7.744 23.53a2.722 2.722 0 003.865-3.653A19.064 19.064 0 0113 46v-9h.39a1.978 1.978 0 001.7-.95C15.467 35.433 16.7 34 20 34a11.31 11.31 0 016.62 2.157A4.38 4.38 0 0026 38.414V45a2 2 0 002 2h4a2 2 0 002-2v-6.586a4.39 4.39 0 00-.618-2.257A11.3 11.3 0 0140 34c3.3 0 4.532 1.434 4.91 2.047a1.978 1.978 0 001.7.953H47v9a19.064 19.064 0 01-2.61 9.877zM25 23.06c-3.875.1-7.1.3-9.74.535 1.1-7.377 5.547-13.7 9.4-16.58A.182.182 0 0124.875 7a.216.216 0 01.126.2zm2-.04V7.2a2.212 2.212 0 00-1.225-1.985 2.188 2.188 0 00-2.3.193c-4.414 3.294-9.2 10.2-10.254 18.39-2.966.326-4.982.683-6.17.93C7.92 12.276 21.417 2 30 2s22.08 10.276 22.953 22.728c-1.19-.247-3.205-.6-6.172-.93-1.05-8.187-5.84-15.1-10.257-18.393a2.183 2.183 0 00-2.3-.19A2.212 2.212 0 0033 7.2v15.82Q31.554 23 30 23t-3 .02zm17.74.575c-2.637-.238-5.865-.438-9.74-.534V7.2a.216.216 0 01.126-.2.182.182 0 01.206.012c3.86 2.88 8.307 9.206 9.407 16.588zM13.9 56.905a.722.722 0 01-.105.883.73.73 0 01-.923.088C7.732 54.39 6 48.87 6 36v-1h3a2 2 0 002 2v9a21.053 21.053 0 002.9 10.906zM40 32a12.924 12.924 0 00-8.707 3.293 1 1 0 000 1.414A2.4 2.4 0 0132 38.414V45h-4v-6.586a2.4 2.4 0 01.707-1.707 1 1 0 000-1.414A12.924 12.924 0 0020 32c-4.15 0-5.925 1.88-6.61 3H11v-3.4c1-.48 3.863-1.6 9.005-1.6a33.174 33.174 0 016.143.58A21.985 21.985 0 0030 31a21.985 21.985 0 003.857-.42A33.174 33.174 0 0140 30c5.142 0 8.01 1.117 9 1.6V35h-2.386c-.69-1.12-2.465-3-6.614-3zm11 3h3v1c0 12.87-1.732 18.39-6.867 21.876a.73.73 0 01-.923-.088.722.722 0 01-.105-.882A21.053 21.053 0 0049 46v-9a2 2 0 002-2z" fill="#000000" opacity="1" data-original="#373737"/><path d="M30 17a1 1 0 00-1 1v1a1 1 0 002 0v-1a1 1 0 00-1-1zm0-6a1 1 0 00-1 1v1a1 1 0 002 0v-1a1 1 0 00-1-1zm0-6a1 1 0 00-1 1v1a1 1 0 002 0V6a1 1 0 00-1-1z" fill="#000000" opacity="1" data-original="#373737"/></g></svg>