<!--version="1.0" encoding="UTF-8" standalone="no"--><!-- Created with Inkscape (http://www.inkscape.org/) --><svg xmlns="http://www.w3.org/2000/svg" version="1.1" width="28.75" height="42" viewBox="0 0 28.75 42" id="svg3640" style="overflow-x: visible; overflow-y: visible;"><g transform="translate(14.35,21)" id="g3646"><g id="g3648"><g id="g3650"><path d="M-.75-21H.8l.5 1.75 4.25 7.3v.15l.7 3.4H7.5l-.45 2.55h.3v8.2h5l.25.25 1.8 11.8-.8.45A1500.1 1500.1 0 01.75 20.6L.1 21l-.7-.4-12.95-5.75-.8-.45 1.8-11.8.2-.25h5v-8.2H-7l-.45-2.55h1.2l.7-3.4v-.1l4.25-7.35.55-1.75zm-4.8 9.1.05-.05zm10.7 5.05-.9-4.5-4.25-7.3-4.2 7.3-.9 4.5h-.75l.5 2.6h-.6v8.2h-4.85l.55 5.5-1.55-2.65-1.05 7.05 9.3 4.25 1.2-8.1h4.7l1.2 8.15 9.35-4.3-1.1-7.05-1.55 2.65.6-5.5H6v-8.2h-.6l.45-2.6h-.7zM1.3 3.1h-2.55v-9H1.3v9z" id="path3652" style="fill: rgb(0, 0, 0); stroke-linecap: round; stroke-linejoin: round;"/><path d="m4.25-11.35.9 4.5h.7l-.45 2.6H6v8.2h4.85l-.6 5.5L11.8 6.8l1.1 7.05-9.35 4.3L2.35 10h-4.7l-1.2 8.1-9.3-4.25 1.05-7.05 1.55 2.65-.55-5.5h4.85v-8.2h.6l-.5-2.6h.75l.9-4.5 4.2-7.3 4.25 7.3zM-1.25 3.1H1.3v-9h-2.55v9z" id="path3654" style="fill: rgb(255, 255, 255); stroke-linecap: round; stroke-linejoin: round;"/></g></g></g></svg>