<?xml version="1.0" encoding="UTF-8" standalone="no"?>
<!-- Created with Inkscape (http://www.inkscape.org/) -->

<svg
   xmlns:dc="http://purl.org/dc/elements/1.1/"
   xmlns:cc="http://creativecommons.org/ns#"
   xmlns:rdf="http://www.w3.org/1999/02/22-rdf-syntax-ns#"
   xmlns:svg="http://www.w3.org/2000/svg"
   xmlns="http://www.w3.org/2000/svg"
   version="1.1"
   width="28.75"
   height="42"
   viewBox="0 0 28.75 42"
   id="svg3640"
   style="overflow:visible">
  <metadata
     id="metadata3658">
    <rdf:RDF>
      <cc:Work
         rdf:about="">
        <dc:format>image/svg+xml</dc:format>
        <dc:type
           rdf:resource="http://purl.org/dc/dcmitype/StillImage" />
        <dc:title></dc:title>
      </cc:Work>
    </rdf:RDF>
  </metadata>
  <defs
     id="defs3642" />
  <g
     transform="translate(14.35,21)"
     id="g3646">
    <g
       id="g3648">
      <g
         id="g3650">
        <path
           d="m -0.75,-21 1.55,0 0.5,1.75 4.25,7.3 0,0.15 0.7,3.4 1.25,0 -0.45,2.55 0.3,0 0,8.2 5,0 0.25,0.25 1.8,11.8 -0.8,0.45 C 9.333333,16.783333 5.049999,18.699999 0.75,20.6 L 0.1,21 l -0.7,-0.4 -12.95,-5.75 -0.8,-0.45 1.8,-11.8 0.2,-0.25 5,0 0,-8.2 0.35,0 -0.45,-2.55 1.2,0 0.7,-3.4 0,-0.1 4.25,-7.35 0.55,-1.75 z m -4.8,9.1 0.05,-0.05 z m 10.7,5.05 -0.9,-4.5 -4.25,-7.3 -4.2,7.3 -0.9,4.5 -0.75,0 0.5,2.6 -0.6,0 0,8.2 -4.85,0 0.55,5.5 -1.55,-2.65 -1.05,7.05 9.3,4.25 1.2,-8.1 4.7,0 1.2,8.15 9.35,-4.3 -1.1,-7.05 -1.55,2.65 0.6,-5.5 -4.85,0 0,-8.2 -0.6,0 0.45,-2.6 -0.7,0 z M 1.3,3.1 l -2.55,0 0,-9 2.55,0 0,9 z"
           id="path3652"
           style="fill:#000000;stroke-linecap:round;stroke-linejoin:round" />
        <path
           d="m 4.25,-11.35 0.9,4.5 0.7,0 -0.45,2.6 0.6,0 0,8.2 4.85,0 -0.6,5.5 1.55,-2.65 1.1,7.05 -9.35,4.3 -1.2,-8.15 -4.7,0 -1.2,8.1 -9.3,-4.25 1.05,-7.05 1.55,2.65 -0.55,-5.5 4.85,0 0,-8.2 0.6,0 -0.5,-2.6 0.75,0 0.9,-4.5 4.2,-7.3 4.25,7.3 z m -5.5,14.45 2.55,0 0,-9 -2.55,0 0,9 z"
           id="path3654"
           style="fill:#ffffff;stroke-linecap:round;stroke-linejoin:round" />
      </g>
    </g>
  </g>
</svg>
