<!--version="1.0" encoding="UTF-8"--><svg version="1.1" id="Layer_1" xmlns="http://www.w3.org/2000/svg" width="29" height="40" xml:space="preserve"><g id="PathID_88" transform="matrix(1, 0, 0, 1, 14.05, 19.7)"><path style="fill: rgb(0, 0, 0); fill-opacity: 1;" d="m-1.15-19.7 1.15 3 1.2-3h5.15L3.45-7.85l10.65 27.7H3.4L0 6.1l-3.35 13.75h-10.7L-3.4-7.85-6.3-19.7h5.15m-2.6 2 2.45 10-9.8 25.55h6.2L0-2.35l4.95 20.2h6.2L1.35-7.7l2.45-10H2.55L0-11.15l-2.5-6.55h-1.25"/><path style="fill: rgb(59, 129, 247); fill-opacity: 1;" d="M-2.5-17.7 0-11.15l2.55-6.55H3.8l-2.45 10 9.8 25.55h-6.2L0-2.35l-4.9 20.2h-6.2L-1.3-7.7l-2.45-10h1.25"/></g></svg>