<?xml version="1.0" encoding="UTF-8"?>
<svg version="1.1" id="Layer_1" xmlns="http://www.w3.org/2000/svg" xmlns:xlink="http://www.w3.org/1999/xlink" width="29px" height="40px" xml:space="preserve">
<g id="PathID_88" transform="matrix(1, 0, 0, 1, 14.05, 19.7)">
<path style="fill:#000000;fill-opacity:1" d="M-1.15 -19.7L0 -16.7L1.2 -19.7L6.35 -19.7L3.45 -7.85L14.1 19.85L3.4 19.85L0 6.1L-3.35 19.85L-14.05 19.85L-3.4 -7.85L-6.3 -19.7L-1.15 -19.7M-3.75 -17.7L-1.3 -7.7L-11.1 17.85L-4.9 17.85L0 -2.35L4.95 17.85L11.15 17.85L1.35 -7.7L3.8 -17.7L2.55 -17.7L0 -11.15L-2.5 -17.7L-3.75 -17.7"/>
<path style="fill:#FFFFFF;fill-opacity:1" d="M-2.5 -17.7L0 -11.15L2.55 -17.7L3.8 -17.7L1.35 -7.7L11.15 17.85L4.95 17.85L0 -2.35L-4.9 17.85L-11.1 17.85L-1.3 -7.7L-3.75 -17.7L-2.5 -17.7"/>
</g>
</svg>