<svg width="38" height="55" xmlns="http://www.w3.org/2000/svg" preserveAspectRatio="xMidYMid meet"><rect fill="none" id="canvas_background" height="41" width="42" y="-1" x="-1"/><path d="M18.985 52.774h-.182c-.091 0-.19.035-.274 0-.12-.05-.119-.118-.183-.183-.065-.063-.057-.097-.092-.181-.049-.12-.117-.12-.182-.184s-.091-.09-.182-.09c-.09 0-.117-.119-.182-.183-.064-.065-.246-.134-.365-.183-.084-.035-.154-.133-.274-.182-.085-.035-.119-.027-.183-.092-.065-.064-.063-.133-.183-.182-.168-.07-.245-.042-.365-.091a1.895 1.895 0 00-.274-.092 2.836 2.836 0 01-.548-.181c-.188-.08-.365-.092-.456-.184-.091-.09-.246-.133-.365-.182-.084-.035-.118-.027-.182-.091-.065-.065-.099-.057-.183-.092a.842.842 0 01-.274-.18c-.064-.066-.133-.064-.182-.184-.035-.084-.19-.147-.274-.182-.12-.05-.246-.316-.365-.365a1.02 1.02 0 01-.273-.183c-.13-.13-.21-.027-.274-.092-.065-.064-.29-.063-.456-.182-.105-.076-.183-.183-.365-.274-.184-.092-.275-.183-.458-.366-.09-.091-.225-.196-.273-.274-.109-.173-.275-.273-.366-.365-.092-.09-.246-.315-.365-.364-.086-.034-.184-.182-.184-.182a2.884 2.884 0 01-.456-.274c-.105-.075-.349-.1-.456-.273-.048-.077-.274-.182-.456-.364-.183-.183-.365-.274-.548-.365-.182-.09-.202-.156-.456-.364-.1-.082-.274-.183-.365-.274-.092-.091-.17-.198-.275-.274-.165-.12-.382-.245-.547-.365-.105-.075-.26-.198-.365-.273a1 1 0 00-.365-.183c-.199-.047-.305-.156-.456-.365-.12-.165-.246-.382-.365-.547-.227-.314-.403-.404-.548-.548-.145-.144-.109-.337-.274-.456-.105-.074-.167-.1-.274-.273-.048-.077-.063-.2-.183-.365-.151-.21-.274-.273-.274-.365 0-.09-.227-.166-.274-.365-.02-.088-.183-.273-.274-.456-.09-.182-.182-.274-.273-.456-.092-.182-.039-.464-.092-.639-.095-.314-.227-.439-.273-.637-.021-.09.048-.196 0-.274-.108-.175-.113-.289-.183-.457-.05-.12-.05-.188-.091-.365-.047-.199-.029-.373-.091-.64-.047-.198-.092-.364-.092-.455 0-.183-.045-.357-.09-.73-.023-.181 0-.365 0-.548v-2.28c0-.274-.092-.548-.092-.822V29.6c0-.093-.083-.22-.182-.458-.07-.168 0-.365 0-.547 0-.183-.09-.365-.09-.548V24.49c0-.183-.049-.288 0-.366.106-.173.117-.3.182-.365.064-.065.09 0 .09 0 .275 0 .275-.183.548-.183.092 0 .092-.092.365-.092 0 0 .274-.09.365-.09.274 0 .548-.092.639-.092.274 0 .547-.091.821-.091s.568.104.821 0c.118-.05.364-.092.455-.092h.457c.09 0 .09 0 .365-.182 0 0 .09 0 .273-.091 0 0 .119.096.274 0 .174-.108.091-.183.365-.274 0 0 .144-.053.273-.182.064-.064.09-.182.274-.364.09-.092.09-.092.273-.274.091-.091.27-.05.365-.365.027-.087.175-.127.274-.365a1.67 1.67 0 00.09-.274c0-.274.227-.44.274-.639.042-.178 0-.274 0-.64v-2.098c0-.182 0-.273-.183-.547.001 0-.04-.246-.09-.365-.07-.169.08-.286 0-.548-.095-.314-.254-.372-.365-.638-.078-.189-.078-.295-.182-.548-.05-.119-.133-.245-.183-.365-.07-.167-.021-.286-.09-.455a1.683 1.683 0 01-.092-.456c0-.001-.183-.275-.183-.457v-.456c0-.274.137-.537.183-.822.044-.27.227-.627.273-.912.045-.27-.096-.603.093-.821.133-.154.084-.42.273-.639.134-.154.312-.343.457-.639.126-.259.331-.64.365-.912.046-.373.169-.66.273-.912.05-.12.215-.394.366-.64.204-.328.4-.554.548-.912.035-.084.129-.343.273-.638.127-.26.232-.485.365-.639.19-.217.33-.449.548-.638.154-.133.156-.475.365-.73.082-.1.22-.22.365-.364.144-.145.274-.274.274-.365 0 0 .026-.118.09-.183.065-.064.183-.091.183-.091l.091-.092.183-.183h.366s.145-.129.274 0c.064.065.002.07.09.091.2.047.19.148.275.183.238.098.384.246.638.455.2.164.438.297.548.365.246.152.237.145.366.274s.19.056.273.09c.238.1.147.19.182.275.05.118.258.099.365.272.048.078.175.31.274.548.07.168.123.247.274.456.12.166.267.218.365.456.07.169.174.218.273.456.07.17.13.252.274.548.126.26.254.372.365.639.078.188.138.419.273.638.152.246.26.552.365.913.08.277.206.437.274.547.152.246.274.365.274.365 0 .183.044.258.091.456.02.09.182.274.182.457 0 .092.144.145.273.274.194.194.091.274.183.548 0 0 .154.315.273.365.17.07.19.238.275.273.239.1.28.24.365.274.239.099.274.274.456.365 0 0 .246.223.365.273.254.105.35.227.549.274.088.02.238.28.272.364.1.24.247.307.457.458.164.12.083.147.272.365.134.154.19.238.274.273.12.05.107.26.183.365.118.167.256.193.364.366.096.156.175.218.273.456.035.085-.07.106 0 .274.05.12.162.094.183.183.047.197.112.286.182.455.05.12.175.035.274.274.035.083-.098.146.091.364a.964.964 0 01.183.365c.09.18.09.272.182.546.091.274.136.354.183.639.044.27.012.376.09.638.096.315.183.548.183.913 0 .273.045.349.092.547.063.267.182.365.182.548 0 .092.042.064.091.183.07.169.022.288.092.456.05.119.22.22.365.364.144.145.257.1.365.274.047.078.182.274.273.365.183.182.247.305.456.456.166.118.35.135.548.182.177.042.365 0 .639 0s.457.182.822.182h.912c.274 0 .723.046 1.186.091.363.036.735.14.913.183.198.047.456.091.547.091.091 0 .183 0 .365.182 0 0 0 .09.091.09 0 0-.037.146.092.275.064.064.112.105.182.273.05.12.136.075.183.274.02.089.07.094.09.182.048.2.145.054.275.183.064.063-.13.144 0 .273.064.064.09.09.182.09 0 0 .056.19.091.275.05.119.12.209.184.273.064.066.042.247.09.366.106.253 0 .274 0 .548v6.022c0 .365.045.642 0 .912a6.252 6.252 0 00-.09.913c0 .274-.045.446-.092.73-.029.18 0 .548 0 .64 0 .273-.045.444-.09.73-.03.18.033.457 0 .73-.047.372-.092.546-.092.82 0 .091.258.38 0 .639-.065.063-.091.273-.091.273-.001.273-.078.274-.092.365-.047.284-.134.245-.183.364-.07.17-.107.443-.182.548-.12.165-.287.359-.365.547-.11.267-.274.365-.365.548-.092.182-.248.384-.457.638-.163.2-.267.421-.456.64-.133.153-.382.245-.547.364-.314.226-.554.536-.73.639-.285.165-.473.246-.639.365-.21.152-.309.358-.547.457-.085.035-.233.178-.548.274-.175.054-.46.245-.64.274-.284.047-.354.2-.638.365-.177.102-.279.231-.456.273-.199.047-.371.263-.548.365-.284.165-.658.34-.912.548-.3.245-.456.365-.73.547-.274.182-.565.337-.73.456-.21.15-.365.273-.547.364-.184.091-.383.155-.549.274-.208.15-.256.3-.546.456-.161.086-.357.1-.457.183-.254.208-.473.245-.638.365-.21.15-.275.364-.457.364-.092 0-.155.134-.274.183-.085.034-.17.106-.275.181-.165.12-.258.228-.456.275-.09.021-.101.167-.275.274-.155.095-.29-.03-.456.09-.106.076-.12.118-.184.183-.064.064-.154.041-.273.09-.085.036-.246.225-.365.275-.084.034-.1.166-.274.273-.078.05-.22.04-.365.184-.145.144-.282.147-.366.182-.12.05-.246.225-.365.274-.085.035-.183.091-.275.274H18.073" id="svg_7" stroke-opacity="null" stroke-width="null" stroke="null" fill="#3b81f7"/><g id="svg_1" fill="#000000" transform="translate(0,55) scale(0.10000000149011612,-0.10000000149011612) "><path id="svg_2" d="M110 533c0-9-14-41-31-71-27-48-29-56-15-64 9-5 16-22 16-38 0-28-2-30-41-30H-3l7-61c3-34 6-80 6-103 1-39 4-43 79-98 42-32 84-60 92-63s52 24 102 60c83 62 87 66 87 103 0 22 3 67 6 101l7 61h-41c-38 0-43 3-67 43-14 24-25 51-25 60 0 11-8 17-21 17-15 0-26 13-42 50-19 42-26 50-49 50-20 0-28-5-28-17zm70-133c-7-16-10-37-8-47 4-14 9-9 23 20 10 20 21 37 25 37 15 0 50-95 52-138 1-41 2-43 5-11 4 34 6 36 39 35 34-1 35-3 30-30-3-16-6-50-6-76 0-48 0-48-75-104l-76-57-74 53c-73 52-74 54-75 98 0 25-3 63-6 85-4 27-3 36 4 26s11-10 17-1 10 9 16-1 9-11 9-1c0 6 4 12 10 12 5 0 11-26 13-57 2-35 4-16 5 48s-2 109-9 116-3 26 16 64l27 53 25-48c21-41 23-52 13-76z"/><path id="svg_3" d="M140 430c0-11 5-20 10-20 6 0 10 9 10 20s-4 20-10 20c-5 0-10-9-10-20z"/><path id="svg_4" d="M190 315c0-14 5-25 10-25 6 0 10 11 10 25s-4 25-10 25c-5 0-10-11-10-25z"/><path id="svg_5" d="M230 316c0-14 5-26 10-26 6 0 10 9 10 19 0 11-4 23-10 26-6 4-10-5-10-19z"/><path id="svg_6" d="M167 172c-10-10-17-35-17-55 0-36 1-37 40-37 40 0 40 0 40 38 0 25-7 45-18 55-23 21-25 21-45-1z"/></g></svg>