<svg width="40" height="40" xmlns="http://www.w3.org/2000/svg" preserveAspectRatio="xMidYMid meet"><rect fill="none" id="canvas_background" height="41" width="42" y="-1" x="-1"/><path d="M11.255 38.626s-.07.024-.128 0c-.084-.035-.335-.112-.579-.193-.304-.102-.486-.3-.77-.45-.18-.094-.526-.173-.642-.257-.222-.159-.331-.159-.386-.192-.122-.076-.109-.158-.193-.193-.059-.024-.064 0-.064 0 0-.063-.128-.192-.192-.192 0 0 .02-.086-.128-.192-.116-.084-.07-.117-.193-.193-.055-.034-.13-.064-.13-.064-.127-.194-.18-.225-.32-.258-.063-.015-.07-.104-.129-.129-.082-.034-.09-.09-.191-.192-.103-.1-.17-.068-.194-.128-.07-.168-.242-.049-.385-.192-.143-.144-.091-.267-.256-.386-.157-.112-.23-.08-.386-.192-.164-.12-.113-.242-.256-.386-.144-.143-.322-.128-.45-.257 0 0-.128 0-.193-.065-.13-.128-.118-.217-.193-.32-.12-.166-.257-.13-.386-.258-.063-.064-.09-.155-.191-.257-.103-.101-.093-.155-.194-.257-.102-.101.072-.185-.064-.32-.091-.092-.148-.02-.193-.065-.137-.136-.04-.198-.065-.257-.07-.167-.16-.18-.193-.32-.015-.063-.16-.185-.193-.385-.01-.064-.146-.244-.193-.322-.107-.172-.028-.453-.065-.642-.065-.339-.192-.577-.192-.77 0-.257-.129-.45-.129-.513l.001-.386.001-.384.001-.45c.001-.192.03-.365.066-.45.073-.177.031-.377.064-.577.01-.065 0-.258 0-.45v-3.018c0-.192.108-.258.128-.385.033-.2.064-.32.064-.45 0-.192-.01-.386 0-.45.033-.2.065-.384.065-.577 0-.193.097-.324.128-.514.033-.2.064-.32.064-.45 0-.128-.008-.184.128-.32.045-.046.076-.121.193-.322.073-.124.016-.202.065-.32.035-.085.232-.198.257-.258.07-.168.192-.192.192-.257 0-.128.158-.173.193-.257.025-.059.027-.09.128-.192.102-.102.027-.22.129-.321.101-.102.102-.166.193-.257.09-.091.159-.074.192-.129.075-.12.101-.165.192-.256.045-.045.183-.075.257-.128a.632.632 0 00.192-.193c.075-.122.092-.202.256-.32a.686.686 0 00.193-.194c.077-.123.194-.193.194-.257 0-.065.143-.203.192-.322.035-.083.224-.116.257-.256.03-.125.144-.266.193-.385.07-.169.172-.26.193-.386.031-.2.162-.325.191-.45.034-.14.226-.25.258-.514.008-.063.144-.266.193-.385.036-.084.194-.257.194-.257.064-.128.279-.238.385-.385.083-.117.127-.193.256-.321.064-.065.29-.165.45-.386.083-.116.206-.238.385-.385.071-.057.31-.136.45-.32.124-.162.27-.25.386-.45.072-.124.22-.284.32-.385.102-.102.233-.148.386-.321.095-.108.175-.277.386-.45.179-.147.257-.257.32-.32.13-.13.092-.22.193-.322.103-.102.268-.092.387-.257.075-.104.124-.296.257-.45.094-.108.221-.157.385-.32.163-.164.231-.277.384-.45.095-.108.173-.27.257-.386a4.58 4.58 0 00.258-.386c.116-.2.193-.257.321-.385.064-.066.222-.174.256-.258.05-.12.123-.154.193-.321.024-.059.116-.134.192-.256.033-.055.09-.156.192-.257.102-.102.188-.154.257-.321.026-.06.118-.135.194-.257.034-.056.03-.14.064-.194.076-.122.193-.128.193-.193 0 0 .02-.083.065-.128.09-.09.128-.064.128-.129 0-.064.065-.128.065-.192 0-.064.128-.064.128-.193 0-.127.04-.26.064-.32.07-.168.193-.257.193-.385 0-.065-.015-.195 0-.257.033-.14.064-.193.064-.257v-.256c0-.129.062-.164.129-.385.018-.063 0-.194 0-.258v-.386c0-.064-.064-.128-.064-.192 0-.065-.065-.065-.065-.129 0-.064-.019-.083-.064-.128-.045-.046 0-.129 0-.193 0-.064-.05-.138 0-.257.035-.084.102-.102.193-.193.045-.045.001-.113.064-.128.14-.033.147-.083.193-.128.045-.046.129-.054.192-.065.2-.032.193-.064.386-.064H20.247c.128 0 .185.03.385.063.063.01.193 0 .385 0h.643c.064 0 .257.129.45.129.192 0 .236.03.32.064.12.05.193 0 .321.064.001 0 .103-.09.194 0 .09.091.064.129.129.129l.064.063c.045.045.166.038.257.128.045.047-.027.103.064.194.09.09.128.064.128.128 0 .065-.072.185.065.322.046.045.096.053.13.192.014.063 0 .129 0 .193V5.29c0 .064.034.132.063.257.033.139.065.192.065.256 0 .064.103.133.128.193.035.083.117.07.193.191.066.11-.021.206.063.323.053.073.15.161.257.256.173.153.204.172.32.256.075.053.12.204.194.257.116.084.156.203.32.321.105.075.26.178.322.193.14.033.193.129.257.193.064.064.204.119.257.192.084.117.197.233.257.257.083.034.108.157.192.192.118.05.128.064.192.128.064.065.14.12.193.193.084.117.133.104.192.129a.426.426 0 01.193.192c.035.084.055.14.128.193.117.084.198.232.257.257.084.035.083.147.129.193.09.09.128.064.128.064 0 .065.094.11.129.193.025.06.067.178.13.193.139.033.182.14.256.193.117.083.104.132.128.191.035.085.193.13.193.13a.558.558 0 00.257.257c.06.024.104.069.129.128.034.084.14.11.256.193.073.053.128.128.192.193.064.065.14.11.257.193.073.053.192.065.192.129 0 .064.108.158.192.192.06.025.129.065.193.129.064.064.14.109.257.193.074.053.119.14.193.192.116.084.192.129.257.193.064.065.168.134.192.194.035.083.158.108.193.192.023.06.094.117.127.257.015.063.094.109.129.193.024.06.03.109.064.193.025.058.064.127.064.191 0 .065.05.131.064.194.033.14.096.181.129.32.015.064.035.133.064.258.034.14.039.23.13.32.045.046.064.065.064.13 0 .064.064.128.064.192 0 .064.04.134.064.193.035.084.04.133.064.193.035.083.094.108.129.192.025.06-.025.134 0 .193.035.084.094.109.128.193.025.059.03.108.065.192.024.06.018.083.064.129.045.044.01.118.064.191.084.118.129.258.193.323.127.128.236.268.32.385.106.147.193.193.257.257l.128.128c.046.046.07.04.129.064.084.035.119.076.192.129.117.084.193.128.257.128.064 0 .064.065.129.065.064-.001.083.017.128.063.046.045.045.093.129.128.058.026.068.04.127.065.084.035.064.129.129.129.064 0 .044.094.128.128.06.025.128.065.193.129.064.065.104.07.128.13.035.083.104.133.129.192.034.084.128.128.192.193.064.064.083.147.129.192.045.046.083.02.128.065.046.045.04.069.064.128.035.084.074.095.129.128.122.076.147.148.193.193.044.047-.001.13.063.258.064.128.16.246.192.385.03.125.065.193.065.322 0 .128.064.256.064.385v2.247c0 .064.03.173.064.257.05.118 0 .192 0 .257v1.091c0 .065-.064.065-.064.129v.193c0 .064-.064.064-.064.128s-.03.173-.065.257a.94.94 0 00-.064.321c.001.13-.127.194-.127.258v.321c0 .128.024.26 0 .32-.035.084-.035.26-.064.386-.034.14-.066.256-.066.32 0 .193-.034.325-.064.45-.033.14-.095.31-.128.45-.045.187-.03.301-.065.385-.073.18 0 .258 0 .322 0 .193-.064.321-.064.45 0 .064-.064.128-.064.257l-.001.384c-.001.129-.054.135-.13.257-.033.056 0 .13 0 .194v.321c0 .064-.064.064-.064.128 0 .065-.064.129-.064.193 0 .064-.064.064-.064.064-.064.129-.094.173-.129.257-.025.06-.02.083-.065.129-.045.045-.027.155-.128.257-.102.101-.129.192-.129.192-.064 0-.093.11-.128.193-.025.06-.02.083-.064.128-.046.046-.094.045-.129.129-.025.06-.044.158-.128.192-.06.025-.135.104-.194.129-.084.035-.091.155-.193.257-.101.101-.197.104-.257.128-.084.036-.192.13-.32.258-.065.064-.134.168-.193.193a1.822 1.822 0 00-.322.194c-.072.053-.146.06-.255.128-.123.075-.148.147-.193.193l-.129.128c-.064.064-.192.129-.257.193-.064.064-.147.06-.256.128-.123.076-.134.168-.193.193-.168.07-.248.204-.321.257-.117.084-.193.128-.257.193-.13.128-.204.143-.322.192-.168.069-.193.192-.257.256a1.843 1.843 0 01-.256.193c-.122.074-.129.191-.193.191-.063.001-.127.13-.191.194-.066.064-.07.104-.13.129-.084.034-.064.128-.064.128-.064 0-.064.13-.129.194 0 0 .027.037-.064.128l-.128.129c-.064.065-.07.104-.129.13-.084.034-.006.116-.128.192-.055.034-.064.064-.129.064 0 0-.045.012-.13.128-.052.074-.082.083-.127.129-.046.045-.084.019-.129.064-.045.046-.083.019-.128.064-.046.047-.129.001-.193.001-.064.001-.133-.023-.193.001-.084.036-.128.066-.192.066h-.578c-.065 0-.084.045-.129 0-.044-.046-.063-.193-.063-.193-.064-.193-.129-.257-.129-.257-.064 0-.064-.128-.128-.193 0 0-.064-.064-.129-.192.001 0-.014-.073-.063-.192-.034-.084-.095-.053-.128-.193a.705.705 0 00-.13-.257c-.053-.073-.14-.183-.192-.257-.084-.115-.083-.146-.129-.191-.046-.047-.096-.054-.13-.194-.014-.062-.044-.222-.128-.257-.06-.025-.104-.134-.128-.193a.934.934 0 00-.129-.193c-.064-.064-.095-.246-.128-.386-.015-.062.027-.166-.064-.256a.555.555 0 01-.129-.193l-.064-.065c-.09-.091 0-.193 0-.193-.064-.193.008-.25-.128-.385-.046-.046-.065-.193-.129-.257 0 0-.05-.002-.064-.064-.034-.14-.05-.13-.065-.193-.033-.14-.114-.13-.129-.193-.033-.14-.064-.193-.128-.193 0 0 .058-.117-.064-.192-.055-.034-.07-.117-.193-.193a.632.632 0 01-.192-.193c-.053-.074-.028-.139-.192-.257a.356.356 0 00-.193-.065c-.064 0-.064-.128-.193-.128-.064 0-.109-.03-.192-.064-.06-.025-.065-.129-.129-.129-.13 0-.174-.076-.258-.193-.053-.073-.138-.015-.257-.064-.084-.034-.138-.143-.257-.192-.084-.035-.192-.193-.257-.193-.127 0-.18-.031-.32-.064a2.668 2.668 0 01-.385-.128.808.808 0 00-.257-.064h-.45c-.192 0-.385-.064-.578-.064-.192 0-.292-.062-.513-.129-.123-.037-.257 0-.322 0-.128 0-.258.015-.32 0-.14-.033-.193-.064-.258-.064-.128.001-.256-.127-.32-.127h-.644c-.128 0-.267-.05-.385 0-.085.034-.197.034-.322.064-.14.033-.262.05-.45.128-.133.055-.194.114-.257.129-.139.033-.134.117-.256.192-.11.068-.245.007-.32.129a.954.954 0 01-.258.257c-.116.084-.193.128-.32.257-.065.063-.205.182-.258.256-.084.116-.193.192-.257.257-.063.064-.132.168-.191.192-.17.07-.185.268-.258.321-.117.084-.193.193-.257.257-.064.064-.129.064-.129.193 0 .064-.108.14-.192.257a.94.94 0 00-.129.257c-.033.14-.104.262-.128.32-.035.085-.158.174-.193.258-.025.06-.038.102-.128.192a.593.593 0 00-.129.193c-.024.06-.04.133-.064.193-.035.084-.129.128-.129.128-.064.129-.147.148-.192.193-.091.09-.053.135-.129.257a.686.686 0 01-.192.193c-.164.118-.128.32-.192.385-.128.128-.205.22-.257.257-.164.118-.122.152-.192.32-.024.06-.093.109-.128.193-.025.059-.019.083-.064.128-.046.046-.065.13-.129.194 0 0-.064 0-.064.128 0 .064-.064.064-.064.129-.001.065-.065.065-.065.13v.256h-.129" id="svg_9" stroke-opacity="null" stroke-width="null" stroke="null" fill="#ffffff"/><g id="svg_1" fill="#000000" transform="translate(0,40) scale(0.10000000149011612,-0.10000000149011612) "><path id="svg_2" d="M160 390c-7-4-9-16-6-27 5-15-6-30-44-62-31-26-49-49-46-57s1-14-4-14c-18 0-51-40-44-52 4-7 7-33 5-58-2-44 0-48 45-85 44-36 48-38 58-21 32 54 49 67 80 64 24-2 35-11 51-40 11-21 25-38 30-38 6 0 30 19 54 42 41 39 43 43 37 84-3 24-1 46 4 49 14 9-6 42-29 50-11 3-18 12-15 19 3 8-17 32-45 56-42 35-50 46-45 66 3 13 2 24-2 25-44 6-74 5-84-1zm56-19c15 12 16 11 10-8-5-17 3-29 44-65 32-28 48-48 45-59-3-10 4-20 20-27 23-10 25-17 25-71 0-57-2-61-37-90l-38-31-17 35c-31 59-107 59-138 0-8-17-16-32-18-34-1-3-18 11-38 30-33 32-35 37-33 92 2 51 5 60 26 70 13 6 22 16 19 22-2 7 18 34 45 61 37 37 47 53 43 69-6 17-5 18 10 6 13-11 19-11 32 0z"/><path id="svg_3" d="M105 241c7-12 183-12 190 0 4 5-35 9-95 9s-99-4-95-9z"/><path id="svg_4" d="M67 193c-4-3-7-14-7-24 0-12 6-16 20-12 22 6 28 43 7 43-8 0-17-3-20-7z"/><path id="svg_5" d="M117 194c-15-15-6-24 24-24 20 0 29 4 27 13-5 14-40 21-51 11z"/><path id="svg_6" d="M187 193c-13-12-7-23 13-23 11 0 20 7 20 15 0 15-21 21-33 8z"/><path id="svg_7" d="M240 186c0-11 9-16 26-16 31 0 28 23-4 28-15 2-22-2-22-12z"/><path id="svg_8" d="M307 193c-13-13-7-31 13-36 16-4 20 0 20 19 0 23-18 32-33 17z"/></g></svg>