<svg width="38" height="55" xmlns="http://www.w3.org/2000/svg" preserveAspectRatio="xMidYMid meet">

 <g>
  <title>background</title>
  <rect fill="none" id="canvas_background" height="41" width="42" y="-1" x="-1"/>
 </g>
 <g>
  <title>Layer 1</title>
  <path d="m18.985405,52.773708c0,0 -0.091242,0 -0.182482,0c-0.091242,0 -0.189426,0.034916 -0.273724,0c-0.119211,-0.049377 -0.117964,-0.117962 -0.182482,-0.18248c-0.064516,-0.064518 -0.056324,-0.098186 -0.09124,-0.18248c-0.049379,-0.119213 -0.117966,-0.117966 -0.182482,-0.182484c-0.064518,-0.064518 -0.091242,-0.09124 -0.182482,-0.09124c-0.091242,0 -0.117962,-0.117966 -0.182482,-0.182484c-0.064518,-0.064518 -0.245752,-0.133102 -0.364964,-0.18248c-0.084295,-0.034916 -0.154509,-0.133102 -0.273722,-0.182484c-0.084295,-0.034916 -0.117966,-0.026722 -0.182482,-0.09124c-0.064516,-0.064518 -0.063271,-0.133102 -0.182482,-0.18248c-0.168591,-0.069832 -0.24575,-0.041862 -0.364964,-0.091244c-0.084295,-0.034916 -0.184923,-0.070278 -0.273724,-0.09124c-0.198562,-0.046875 -0.280878,-0.072067 -0.547444,-0.18248c-0.188491,-0.078075 -0.364963,-0.09124 -0.456204,-0.182484c-0.09124,-0.09124 -0.245751,-0.133102 -0.364963,-0.18248c-0.084295,-0.034916 -0.117965,-0.026722 -0.182482,-0.09124c-0.064519,-0.064518 -0.098186,-0.056328 -0.182482,-0.091244c-0.119211,-0.049377 -0.209206,-0.117962 -0.273723,-0.18248c-0.064516,-0.064518 -0.133102,-0.063271 -0.182482,-0.182484c-0.034915,-0.084293 -0.189427,-0.147564 -0.273723,-0.18248c-0.119211,-0.049377 -0.245752,-0.315586 -0.364964,-0.364964c-0.084294,-0.034916 -0.209206,-0.117962 -0.273722,-0.18248c-0.129034,-0.129036 -0.209204,-0.026726 -0.273723,-0.091244c-0.064517,-0.064518 -0.290694,-0.063187 -0.456204,-0.18248c-0.104678,-0.075447 -0.182482,-0.182484 -0.364964,-0.273724c-0.182482,-0.09124 -0.273721,-0.18248 -0.456203,-0.364964c-0.091241,-0.09124 -0.225753,-0.196106 -0.273723,-0.273724c-0.107261,-0.17355 -0.273722,-0.27372 -0.364964,-0.364964c-0.09124,-0.09124 -0.245752,-0.315582 -0.364964,-0.36496c-0.084295,-0.034916 -0.182482,-0.182484 -0.182482,-0.182484c-0.182482,-0.09124 -0.290692,-0.15443 -0.456203,-0.273724c-0.104677,-0.075447 -0.348944,-0.10017 -0.456204,-0.27372c-0.04797,-0.077618 -0.273724,-0.182484 -0.456204,-0.364964c-0.182483,-0.182484 -0.364964,-0.273724 -0.547445,-0.364964c-0.182481,-0.09124 -0.201794,-0.156399 -0.456203,-0.364964c-0.099787,-0.081806 -0.273723,-0.182484 -0.364964,-0.273724c-0.091241,-0.09124 -0.169044,-0.198273 -0.273723,-0.273724c-0.165509,-0.119293 -0.381934,-0.24567 -0.547445,-0.364964c-0.104677,-0.075447 -0.260286,-0.198273 -0.364964,-0.27372c-0.16551,-0.119293 -0.276163,-0.161522 -0.364963,-0.182484c-0.198563,-0.046875 -0.305309,-0.155605 -0.456204,-0.364964c-0.119292,-0.165508 -0.245671,-0.381935 -0.364963,-0.547443c-0.226344,-0.314034 -0.403181,-0.403179 -0.547445,-0.547443c-0.144266,-0.144264 -0.108212,-0.336914 -0.273723,-0.456207c-0.104677,-0.075447 -0.166462,-0.10017 -0.273723,-0.27372c-0.04797,-0.077618 -0.06319,-0.199455 -0.182482,-0.364964c-0.150896,-0.209358 -0.273723,-0.273724 -0.273723,-0.364964c0,-0.091244 -0.226848,-0.166401 -0.273722,-0.364964c-0.020963,-0.088799 -0.182482,-0.273724 -0.273722,-0.456203c-0.091242,-0.182484 -0.182481,-0.273724 -0.273722,-0.456207c-0.09124,-0.18248 -0.038361,-0.464035 -0.091241,-0.638683c-0.095331,-0.314857 -0.226848,-0.440121 -0.273723,-0.638687c-0.020962,-0.088799 0.04797,-0.196106 0,-0.273724c-0.10726,-0.17355 -0.112648,-0.287609 -0.182482,-0.456203c-0.049379,-0.119213 -0.049314,-0.187363 -0.091241,-0.364964c-0.046874,-0.198563 -0.028354,-0.372284 -0.091241,-0.638683c-0.046874,-0.198566 -0.091241,-0.364964 -0.091241,-0.456207c0,-0.18248 -0.045276,-0.356544 -0.091241,-0.729923c-0.022296,-0.181118 0,-0.364964 0,-0.547447c0,-0.273724 0,-0.547443 0,-0.821167c0,-0.273724 0,-0.456203 0,-0.729927c0,-0.18248 0,-0.364964 0,-0.729927c0,-0.27372 -0.091241,-0.547443 -0.091241,-0.821167c0,-0.273722 0,-0.547445 0,-0.729927c0,-0.09124 0,-0.364962 0,-0.638685c0,-0.182482 0,-0.364964 0,-0.547445c0,-0.182482 0,-0.456203 0,-0.638685c0,-0.091242 -0.083723,-0.217779 -0.182482,-0.456203c-0.069833,-0.168591 0,-0.364964 0,-0.547445c0,-0.182482 -0.091241,-0.364964 -0.091241,-0.547445c0,-0.182482 0,-0.364964 0,-0.547445c0,-0.09124 0,-0.364964 0,-0.547445c0,-0.182482 0,-0.364964 0,-0.456203c0,-0.273722 0,-0.364964 0,-0.547445c0,-0.09124 0,-0.364964 0,-0.547445c0,-0.182482 0,-0.273722 0,-0.456203c0,-0.182482 0,-0.273724 0,-0.456203c0,-0.182482 -0.047968,-0.28735 0,-0.364964c0.10726,-0.173552 0.117965,-0.300447 0.182482,-0.364964c0.064517,-0.064518 0.091241,0 0.091241,0c0.273722,0 0.273722,-0.182482 0.547445,-0.182482c0.091241,0 0.091241,-0.091242 0.364964,-0.091242c0,0 0.273722,-0.09124 0.364963,-0.09124c0.273722,0 0.547445,-0.091242 0.638686,-0.091242c0.273723,0 0.547445,-0.09124 0.821168,-0.09124c0.273722,0 0.568281,0.10475 0.821167,0c0.119212,-0.049379 0.364963,-0.091242 0.456204,-0.091242c0.182482,0 0.273723,0 0.456204,0c0.09124,0 0.09124,0 0.364963,-0.18248c0,0 0.091241,0 0.273723,-0.091242c0,0 0.118495,0.095936 0.273722,0c0.173551,-0.10726 0.091241,-0.182482 0.364964,-0.273722c0,0 0.144689,-0.053448 0.273723,-0.182482c0.064517,-0.064518 0.091241,-0.182482 0.273723,-0.364964c0.091241,-0.091242 0.09124,-0.091242 0.273722,-0.273724c0.091241,-0.09124 0.269632,-0.050104 0.364964,-0.364964c0.02644,-0.087324 0.174964,-0.126537 0.273723,-0.364962c0.069833,-0.168591 0.091241,-0.273724 0.091241,-0.273724c0,-0.273722 0.226849,-0.440123 0.273723,-0.638685c0.041925,-0.177601 0,-0.273724 0,-0.638685c0,-0.273724 0,-0.456205 0,-0.729927c0,-0.091242 0,-0.364964 0,-0.456205c0,-0.182482 0,-0.273722 0,-0.547443c0,-0.182482 0,-0.273724 0,-0.364964c0,-0.182482 0,-0.273724 -0.182482,-0.547445c0,0 -0.041862,-0.245752 -0.091241,-0.364964c-0.069833,-0.168591 0.079321,-0.285467 0,-0.547445c-0.095331,-0.314857 -0.254548,-0.372119 -0.364964,-0.638685c-0.078075,-0.188491 -0.077733,-0.294559 -0.182482,-0.547445c-0.049379,-0.119212 -0.133102,-0.245751 -0.182482,-0.364964c-0.069833,-0.168591 -0.021407,-0.287613 -0.09124,-0.456203c-0.049379,-0.119212 -0.091241,-0.364964 -0.091241,-0.456204c0,0 -0.182482,-0.273723 -0.182482,-0.456204c0,-0.091241 0,-0.364964 0,-0.456204c0,-0.273723 0.136265,-0.536364 0.182482,-0.821167c0.043845,-0.270188 0.227505,-0.627605 0.273722,-0.912409c0.043845,-0.270188 -0.097804,-0.603196 0.091241,-0.821167c0.133675,-0.154128 0.084678,-0.420715 0.273723,-0.638686c0.133675,-0.154128 0.311669,-0.343163 0.456204,-0.638685c0.126765,-0.25919 0.331519,-0.640737 0.364964,-0.912409c0.045965,-0.373377 0.168974,-0.659522 0.273723,-0.912408c0.049379,-0.119212 0.213274,-0.393249 0.364963,-0.638686c0.203511,-0.329288 0.399307,-0.554772 0.547445,-0.912408c0.034916,-0.084296 0.129188,-0.343163 0.273723,-0.638686c0.126765,-0.25919 0.231289,-0.484557 0.364964,-0.638686c0.189045,-0.21797 0.329473,-0.449641 0.547444,-0.638686c0.154128,-0.133675 0.156398,-0.475518 0.364964,-0.729927c0.081806,-0.099787 0.220699,-0.220699 0.364964,-0.364963c0.144264,-0.144264 0.273723,-0.273722 0.273723,-0.364963c0,0 0.026724,-0.117965 0.091241,-0.182482c0.064517,-0.064517 0.182481,-0.091241 0.182481,-0.091241c0,0 0.026724,-0.026724 0.091241,-0.091241c0.129034,-0.129034 0.182482,-0.182482 0.182482,-0.182482c0.091241,0 0.273723,0 0.364964,0c0,0 0.144689,-0.129034 0.273723,0c0.064517,0.064517 0.00244,0.070278 0.091241,0.091241c0.198563,0.046874 0.189427,0.147565 0.273723,0.182482c0.238423,0.098758 0.384276,0.247639 0.638685,0.456204c0.199574,0.163612 0.437682,0.297126 0.547445,0.364964c0.245438,0.151689 0.235929,0.144688 0.364963,0.273722c0.129034,0.129034 0.189426,0.056324 0.273724,0.091241c0.238424,0.098758 0.147566,0.189427 0.182482,0.273722c0.049379,0.119211 0.257704,0.100172 0.364964,0.273723c0.047968,0.077614 0.174963,0.309021 0.273722,0.547445c0.069832,0.168591 0.122828,0.24685 0.273722,0.456204c0.119293,0.165511 0.266205,0.217781 0.364964,0.456204c0.069832,0.168591 0.174965,0.217781 0.273724,0.456204c0.069834,0.168591 0.129187,0.251924 0.273722,0.547445c0.126766,0.25919 0.254549,0.37212 0.364964,0.638686c0.078075,0.188491 0.13805,0.41916 0.273724,0.638686c0.151688,0.245437 0.259783,0.551216 0.364962,0.912408c0.080669,0.277022 0.205887,0.437682 0.273724,0.547445c0.15169,0.245437 0.273722,0.364964 0.273722,0.364964c0,0.182481 0.044367,0.25764 0.091242,0.456203c0.020964,0.0888 0.182482,0.273723 0.182482,0.456204c0,0.091241 0.144688,0.144689 0.273722,0.273723c0.193552,0.193551 0.091242,0.273723 0.182482,0.547444c0,0 0.15451,0.315584 0.273722,0.364964c0.168591,0.069833 0.189426,0.238806 0.273724,0.273723c0.238424,0.098759 0.280666,0.238806 0.364964,0.273723c0.238424,0.098759 0.273722,0.273723 0.456203,0.364964c0,0 0.245752,0.224343 0.364964,0.273722c0.252886,0.104749 0.348883,0.226849 0.547445,0.273723c0.088799,0.020963 0.238806,0.280668 0.273722,0.364964c0.098759,0.238424 0.246849,0.305309 0.456205,0.456204c0.16551,0.119293 0.084677,0.146993 0.273722,0.364964c0.133675,0.154128 0.189426,0.238806 0.273722,0.273722c0.119213,0.049379 0.107035,0.260286 0.182482,0.364964c0.119293,0.165511 0.257704,0.191413 0.364964,0.364964c0.095936,0.155229 0.174965,0.21778 0.273724,0.456204c0.034916,0.084295 -0.069832,0.105131 0,0.273723c0.049379,0.119211 0.161518,0.093681 0.182482,0.182482c0.046873,0.198562 0.11265,0.287612 0.182482,0.456203c0.049379,0.119213 0.174963,0.035299 0.273722,0.273722c0.034918,0.084297 -0.097803,0.146994 0.09124,0.364964c0.133675,0.154129 0.182482,0.364964 0.182482,0.364964c0.091242,0.182482 0.091242,0.273724 0.182482,0.547445c0.091242,0.273724 0.136265,0.353884 0.182482,0.638685c0.043846,0.270189 0.011921,0.376709 0.091242,0.638687c0.095331,0.314857 0.182482,0.547445 0.182482,0.912407c0,0.273724 0.044367,0.348883 0.09124,0.547445c0.062889,0.266401 0.182482,0.364964 0.182482,0.547445c0,0.091242 0.041862,0.063271 0.091242,0.182482c0.069834,0.168591 0.021408,0.287613 0.09124,0.456203c0.049379,0.119213 0.220699,0.220699 0.364964,0.364964c0.144264,0.144264 0.257704,0.100172 0.364964,0.273724c0.047968,0.077614 0.182482,0.273722 0.273722,0.364964c0.18248,0.182482 0.246849,0.305309 0.456205,0.456203c0.16551,0.119293 0.348883,0.135607 0.547443,0.182482c0.177601,0.041927 0.364964,0 0.638687,0c0.273722,0 0.456203,0.182482 0.821167,0.182482c0.182482,0 0.456203,0 0.912409,0c0.273722,0 0.723156,0.045397 1.186131,0.09124c0.363186,0.035963 0.73481,0.140556 0.912407,0.182482c0.198566,0.046875 0.456203,0.091242 0.547447,0.091242c0.09124,0 0.18248,0 0.364964,0.182482c0,0 0,0.09124 0.09124,0.09124c0,0 -0.037796,0.14469 0.09124,0.273724c0.064518,0.064516 0.112652,0.105131 0.182484,0.273722c0.049377,0.119211 0.135605,0.075159 0.18248,0.273722c0.020962,0.0888 0.070278,0.093683 0.09124,0.182482c0.046875,0.198565 0.144691,0.05345 0.273724,0.182482c0.064518,0.064518 -0.129036,0.14469 0,0.273724c0.064518,0.064516 0.09124,0.09124 0.182484,0.09124c0,0 0.056324,0.189426 0.09124,0.273724c0.049377,0.119211 0.117962,0.209206 0.18248,0.273722c0.064518,0.064518 0.041862,0.24575 0.09124,0.364964c0.104748,0.252886 0,0.273722 0,0.547445c0,0.364964 0,0.638685 0,0.912407c0,0.091242 0,0.364964 0,0.638687c0,0.273722 0,0.364964 0,0.547445c0,0.273722 0,0.364962 0,0.638685c0,0.09124 0,0.273722 0,0.364964c0,0.273722 0,0.364964 0,0.547445c0,0.273722 0,0.547445 0,0.729925c0,0.182482 0,0.456205 0,0.729927c0,0.364964 0,0.638687 0,0.912407c0,0.364964 0.043846,0.642223 0,0.912411c-0.046215,0.284805 -0.09124,0.638683 -0.09124,0.912407c0,0.273724 -0.045025,0.445122 -0.09124,0.729927c-0.029232,0.180126 0,0.547447 0,0.638687c0,0.27372 -0.045025,0.445122 -0.09124,0.729927c-0.029228,0.180122 0.033443,0.458256 0,0.729923c-0.045963,0.373379 -0.09124,0.547447 -0.09124,0.821171c0,0.09124 0.258068,0.380615 0,0.638683c-0.064518,0.064518 -0.091244,0.273724 -0.091244,0.273724c0,0.273724 -0.076626,0.274902 -0.09124,0.364964c-0.046215,0.284805 -0.133102,0.245754 -0.18248,0.364964c-0.069832,0.168591 -0.107037,0.442768 -0.182484,0.547443c-0.119293,0.165512 -0.286888,0.358955 -0.364964,0.547447c-0.110413,0.266563 -0.273724,0.364964 -0.364964,0.547443c-0.09124,0.182484 -0.247639,0.384277 -0.456203,0.638687c-0.163609,0.199574 -0.267162,0.420715 -0.456203,0.638683c-0.133675,0.154133 -0.381935,0.24567 -0.547447,0.364964c-0.314034,0.226341 -0.553467,0.536285 -0.729923,0.638687c-0.284534,0.165123 -0.473177,0.24567 -0.638687,0.364964c-0.209356,0.150894 -0.309023,0.357445 -0.547445,0.456203c-0.084297,0.034916 -0.232588,0.178391 -0.547445,0.273724c-0.174652,0.052879 -0.458559,0.244495 -0.638685,0.273724c-0.284803,0.046215 -0.354153,0.199841 -0.638687,0.364964c-0.176458,0.102402 -0.278603,0.231796 -0.456203,0.27372c-0.198563,0.046875 -0.370987,0.262562 -0.547445,0.364964c-0.284533,0.165123 -0.657997,0.338882 -0.912407,0.547447c-0.299362,0.245419 -0.456205,0.364964 -0.729927,0.547443c-0.273724,0.18248 -0.564417,0.33691 -0.729927,0.456203c-0.209356,0.150894 -0.364964,0.273724 -0.547445,0.364964c-0.182482,0.09124 -0.381935,0.15443 -0.547445,0.273724c-0.209356,0.150894 -0.257397,0.300976 -0.547445,0.456203c-0.160889,0.086105 -0.356415,0.100674 -0.456203,0.182484c-0.254408,0.208565 -0.473175,0.245667 -0.638685,0.36496c-0.209356,0.150894 -0.273724,0.364964 -0.456205,0.364964c-0.09124,0 -0.154509,0.133106 -0.273722,0.182484c-0.084295,0.034916 -0.169044,0.107033 -0.273722,0.18248c-0.16551,0.119293 -0.257643,0.226849 -0.456205,0.273724c-0.088799,0.020962 -0.10017,0.166462 -0.273722,0.273724c-0.155228,0.095936 -0.290695,-0.028053 -0.456205,0.09124c-0.104677,0.075447 -0.117964,0.117962 -0.18248,0.18248c-0.064518,0.064518 -0.154509,0.041862 -0.273724,0.091244c-0.084295,0.034916 -0.24575,0.224342 -0.364964,0.27372c-0.084295,0.034916 -0.100174,0.166466 -0.273722,0.273724c-0.077616,0.04797 -0.220699,0.038219 -0.364964,0.182484c-0.144264,0.144264 -0.280666,0.147564 -0.364964,0.18248c-0.119211,0.049377 -0.24575,0.224346 -0.364964,0.273724c-0.084295,0.034916 -0.182482,0.09124 -0.273722,0.27372l-0.091242,0l0,0l-0.09124,0" id="svg_7" stroke-opacity="null" stroke-width="null" stroke="null" fill="#ffffff"/>
  <g id="svg_1" fill="#000000" transform="translate(0,55) scale(0.10000000149011612,-0.10000000149011612) ">
   <path id="svg_2" d="m110,533c0,-9 -14,-41 -31,-71c-27,-48 -29,-56 -15,-64c9,-5 16,-22 16,-38c0,-28 -2,-30 -41,-30l-42,0l7,-61c3,-34 6,-80 6,-103c1,-39 4,-43 79,-98c42,-32 84,-60 92,-63c8,-3 52,24 102,60c83,62 87,66 87,103c0,22 3,67 6,101l7,61l-41,0c-38,0 -43,3 -67,43c-14,24 -25,51 -25,60c0,11 -8,17 -21,17c-15,0 -26,13 -42,50c-19,42 -26,50 -49,50c-20,0 -28,-5 -28,-17zm70,-133c-7,-16 -10,-37 -8,-47c4,-14 9,-9 23,20c10,20 21,37 25,37c15,0 50,-95 52,-138c1,-41 2,-43 5,-11c4,34 6,36 39,35c34,-1 35,-3 30,-30c-3,-16 -6,-50 -6,-76c0,-48 0,-48 -75,-104l-76,-57l-74,53c-73,52 -74,54 -75,98c0,25 -3,63 -6,85c-4,27 -3,36 4,26c7,-10 11,-10 17,-1c6,9 10,9 16,-1c6,-10 9,-11 9,-1c0,6 4,12 10,12c5,0 11,-26 13,-57c2,-35 4,-16 5,48c1,64 -2,109 -9,116c-7,7 -3,26 16,64l27,53l25,-48c21,-41 23,-52 13,-76z"/>
   <path id="svg_3" d="m140,430c0,-11 5,-20 10,-20c6,0 10,9 10,20c0,11 -4,20 -10,20c-5,0 -10,-9 -10,-20z"/>
   <path id="svg_4" d="m190,315c0,-14 5,-25 10,-25c6,0 10,11 10,25c0,14 -4,25 -10,25c-5,0 -10,-11 -10,-25z"/>
   <path id="svg_5" d="m230,316c0,-14 5,-26 10,-26c6,0 10,9 10,19c0,11 -4,23 -10,26c-6,4 -10,-5 -10,-19z"/>
   <path id="svg_6" d="m167,172c-10,-10 -17,-35 -17,-55c0,-36 1,-37 40,-37c40,0 40,0 40,38c0,25 -7,45 -18,55c-23,21 -25,21 -45,-1z"/>
  </g>
 </g>
</svg>