<!--version="1.0" encoding="UTF-8" standalone="no"--><!-- Created with Inkscape (http://www.inkscape.org/) --><svg xmlns="http://www.w3.org/2000/svg" version="1.1" width="42.3" height="42" viewBox="0 0 42.3 42" id="svg3005" style="overflow-x: visible; overflow-y: visible;"><g transform="translate(21.15,21)" id="g3011"><g id="g3013"><g id="g3015"><path d="M.25-19.25.7-21l5.05.9-.35 1.8c-.133.933-.55 1.8-1.25 2.6L15.1-5.35 13.85-3.4c2.233.733 3.85 1.7 4.85 2.9l2.45 2.95H18.2l.75 10.35L9.7 21H8.05l-.45-.35-.1-.05-.5-.35-.15-.65-1.05-2.7a9.796 9.796 0 00-2.05-3c-.667-.667-1.517-1.167-2.55-1.5h-2.95c-1.033.333-1.883.833-2.55 1.5-.8.767-1.5 1.767-2.1 3l-1 2.7-.15.5-.35.3-.55.6h-1.75l-9.25-8.25 1.15-10.3h-2.85L-18.7-.5c.933-1.167 2.55-2.133 4.85-2.9l-1.3-1.95 11-10.35a5.652 5.652 0 01-1.3-2.6l-.3-1.8L-.6-21l.3 1.75.3.3.25-.3zm3.5.45-1.6-.25c-.167.9-.85 1.567-2.05 2-1.2-.433-1.883-1.1-2.05-2l-1.6.25c.2 1.133.967 2.1 2.3 2.9l-11.4 10.65 1.75 2.75c-3.2.8-5.3 1.8-6.3 3h1.05l-1.3 11.4L-9.4 19h.3l1.2-3c.633-1.4 1.45-2.6 2.45-3.6a8.65 8.65 0 013.55-1.95h3.45A8.65 8.65 0 015.1 12.4c1 1 1.817 2.2 2.45 3.6l1.15 2.95.45.05 8-7.1-.8-11.4h1.05c-1-1.2-3.1-2.2-6.3-3l1.8-2.75L1.5-15.9c1.3-.833 2.05-1.8 2.25-2.9zM-9.1 19l.05-.05zm17.8-.05.05.05zM.45-3.75h-.7l-9.05.9.1-.05-1.4-2.1.3-.3h20.8l.3.3-1.4 2.1.1.05-9.05-.9zM14.75.5V5l-4-1.1V.5h4zM2.15 2.8h-4.1V.5h4.1v2.3zM3.75.5h5.4v3.1l-5.4-.7V.5zm-12.7 3.1V.5h5.4v2.4l-5.4.7zm-1.6-3.1v3.4l-4 1.1V.5h4z" id="path3017" style="fill: rgb(0, 0, 0); stroke-linecap: round; stroke-linejoin: round;"/><path d="m2.15-19.05 1.6.25c-.2 1.1-.95 2.067-2.25 2.9L12.9-5.25 11.1-2.5c3.2.8 5.3 1.8 6.3 3h-1.05l.8 11.4-8 7.1h-.4l-1.2-3c-.633-1.4-1.45-2.6-2.45-3.6a8.65 8.65 0 00-3.55-1.95H-1.9a8.65 8.65 0 00-3.55 1.95c-1 1-1.817 2.2-2.45 3.6l-1.15 2.95-.35.05-8.05-7.1 1.3-11.4h-1.05c1-1.2 3.1-2.2 6.3-3l-1.75-2.75 11.4-10.65c-1.333-.8-2.1-1.767-2.3-2.9l1.6-.25c.167.9.85 1.567 2.05 2 1.2-.433 1.883-1.1 2.05-2zm-11.2 38-.05.05zm17.8.05-.05-.05zm-9-22.75h.7l9.05.9-.1-.05L10.8-5l-.3-.3h-20.8l-.3.3 1.4 2.1-.1.05 9.05-.9zm15 8.75V.5h-4v3.4l4 1.1zm-16.7-2.2h4.1V.5h-4.1v2.3zM9.15.5h-5.4v2.4l5.4.7V.5zm-18.1 0v3.1l5.4-.7V.5h-5.4zm-1.6 3.4V.5h-4V5l4-1.1z" id="path3019" style="fill: rgb(255, 255, 255); stroke-linecap: round; stroke-linejoin: round;"/></g></g></g></svg>