<?xml version="1.0" encoding="UTF-8" standalone="no"?>
<!-- Created with Inkscape (http://www.inkscape.org/) -->

<svg
   xmlns:dc="http://purl.org/dc/elements/1.1/"
   xmlns:cc="http://creativecommons.org/ns#"
   xmlns:rdf="http://www.w3.org/1999/02/22-rdf-syntax-ns#"
   xmlns:svg="http://www.w3.org/2000/svg"
   xmlns="http://www.w3.org/2000/svg"
   version="1.1"
   width="42.299999"
   height="42"
   viewBox="0 0 42.299999 42"
   id="svg3005"
   style="overflow:visible">
  <metadata
     id="metadata3023">
    <rdf:RDF>
      <cc:Work
         rdf:about="">
        <dc:format>image/svg+xml</dc:format>
        <dc:type
           rdf:resource="http://purl.org/dc/dcmitype/StillImage" />
        <dc:title></dc:title>
      </cc:Work>
    </rdf:RDF>
  </metadata>
  <defs
     id="defs3007" />
  <g
     transform="translate(21.15,21)"
     id="g3011">
    <g
       id="g3013">
      <g
         id="g3015">
        <path
           d="M 0.25,-19.25 0.7,-21 l 5.05,0.9 -0.35,1.8 c -0.1333336,0.933333 -0.55,1.8 -1.25,2.6 L 15.1,-5.35 13.85,-3.4 c 2.233334,0.7333335 3.85,1.7000002 4.85,2.9 l 2.45,2.95 -2.95,0 L 18.95,12.8 9.7,21 8.05,21 7.6,20.65 7.5,20.6 7,20.25 6.85,19.6 5.8,16.9 C 5.3,15.766666 4.616667,14.766666 3.75,13.9 3.0833333,13.233333 2.233333,12.733333 1.2,12.4 l -2.95,0 c -1.0333333,0.333333 -1.8833334,0.833333 -2.55,1.5 -0.8,0.766667 -1.4999997,1.766667 -2.1,3 l -1,2.7 -0.15,0.5 -0.35,0.3 -0.55,0.6 -1.75,0 -9.25,-8.25 1.15,-10.3 -2.85,0 2.45,-2.95 c 0.933334,-1.1666667 2.55,-2.1333334 4.85,-2.9 l -1.3,-1.95 11,-10.35 c -0.6666666,-0.766667 -1.1,-1.633334 -1.3,-2.6 l -0.3,-1.8 5.15,-0.9 0.3,1.75 0.3,0.3 0.25,-0.3 z m 3.5,0.45 -1.6,-0.25 c -0.1666667,0.9 -0.85,1.566666 -2.05,2 -1.2,-0.433334 -1.8833333,-1.1 -2.05,-2 l -1.6,0.25 c 0.2,1.133334 0.9666667,2.100001 2.3,2.9 l -11.4,10.65 1.75,2.75 c -3.2,0.8000001 -5.3,1.8000001 -6.3,3 l 1.05,0 -1.3,11.4 8.05,7.1 0.3,0 1.2,-3 c 0.6333336,-1.400001 1.45,-2.6 2.45,-3.6 1.0333335,-0.933334 2.216667,-1.583333 3.55,-1.95 l 3.45,0 c 1.3333332,0.366667 2.5166666,1.016666 3.55,1.95 1,1 1.8166665,2.199999 2.45,3.6 l 1.15,2.95 0.45,0.05 8,-7.1 -0.8,-11.4 1.05,0 c -1,-1.20000005 -3.100001,-2.2 -6.3,-3 L 12.9,-5.25 1.5,-15.9 c 1.3000002,-0.833334 2.0500002,-1.8 2.25,-2.9 z M -9.1,19 -9.05,18.95 z M 8.7,18.95 8.75,19 z m -8.25,-22.7 -0.7,0 -9.05,0.9 0.1,-0.05 -1.4,-2.1 0.3,-0.3 20.8,0 0.3,0.3 -1.4,2.1 0.1,0.05 -9.05,-0.9 z m 14.3,4.25 0,4.5 -4,-1.1 0,-3.4 4,0 z m -12.6,2.3 -4.1,0 0,-2.3 4.1,0 0,2.3 z m 1.6,-2.3 5.4,0 0,3.1 -5.4,-0.7 0,-2.4 z m -12.7,3.1 0,-3.1 5.4,0 0,2.4 -5.4,0.7 z m -1.6,-3.1 0,3.4 -4,1.1 0,-4.5 4,0 z"
           id="path3017"
           style="fill:#000000;stroke-linecap:round;stroke-linejoin:round" />
        <path
           d="m 2.15,-19.05 1.6,0.25 c -0.2,1.100001 -0.95,2.066668 -2.25,2.9 l 11.4,10.65 -1.8,2.75 c 3.2,0.8000001 5.3,1.8000001 6.3,3 l -1.05,0 0.8,11.4 -8,7.1 -0.4,0 -1.2,-3 C 6.9166665,14.599999 6.1,13.4 5.1,12.4 4.0666666,11.466666 2.8833332,10.816667 1.55,10.45 l -3.45,0 c -1.3333333,0.366667 -2.5166665,1.016666 -3.55,1.95 -1,1 -1.8166664,2.199999 -2.45,3.6 l -1.15,2.95 -0.35,0.05 -8.05,-7.1 1.3,-11.4 -1.05,0 c 1,-1.20000005 3.1,-2.2 6.3,-3 l -1.75,-2.75 11.4,-10.65 c -1.3333335,-0.8 -2.1000001,-1.766668 -2.3,-2.9 l 1.6,-0.25 c 0.1666666,0.9 0.8499999,1.566666 2.05,2 1.2000001,-0.433334 1.8833335,-1.1 2.05,-2 z m -11.2,38 L -9.1,19 z M 8.75,19 8.7,18.95 z m -9,-22.75 0.7,0 9.05,0.9 -0.1,-0.05 1.4,-2.1 -0.3,-0.3 -20.8,0 -0.3,0.3 1.4,2.1 -0.1,0.05 9.05,-0.9 z m 15,8.75 0,-4.5 -4,0 0,3.4 4,1.1 z m -16.7,-2.2 4.1,0 0,-2.3 -4.1,0 0,2.3 z m 11.1,-2.3 -5.4,0 0,2.4 5.4,0.7 0,-3.1 z m -18.1,0 0,3.1 5.4,-0.7 0,-2.4 -5.4,0 z m -1.6,3.4 0,-3.4 -4,0 0,4.5 4,-1.1 z"
           id="path3019"
           style="fill:#ffffff;stroke-linecap:round;stroke-linejoin:round" />
      </g>
    </g>
  </g>
</svg>
