<svg width="40" height="40" xmlns="http://www.w3.org/2000/svg" preserveAspectRatio="xMidYMid meet">

 <g>
  <title>background</title>
  <rect fill="none" id="canvas_background" height="41" width="42" y="-1" x="-1"/>
 </g>
 <g>
  <title>Layer 1</title>
  <path d="m11.25498,38.625561c0,0 -0.069114,0.024578 -0.128451,0c-0.083915,-0.03476 -0.334314,-0.111435 -0.578035,-0.192677c-0.304651,-0.101551 -0.48626,-0.300545 -0.770713,-0.449585c-0.179901,-0.094261 -0.525755,-0.172932 -0.642261,-0.256905c-0.221052,-0.159328 -0.330722,-0.158913 -0.385356,-0.192677c-0.122166,-0.0755 -0.108762,-0.157921 -0.192678,-0.19268c-0.059337,-0.024578 -0.064226,0 -0.064226,0c0,-0.064224 -0.128452,-0.192677 -0.192678,-0.192677c0,0 0.018917,-0.086456 -0.128451,-0.192677c-0.116506,-0.083973 -0.070513,-0.11718 -0.192678,-0.19268c-0.054634,-0.033764 -0.128452,-0.064224 -0.128452,-0.064224c-0.128452,-0.19268 -0.181359,-0.223911 -0.32113,-0.256905c-0.062508,-0.014755 -0.069115,-0.103874 -0.128452,-0.128452c-0.083916,-0.03476 -0.091127,-0.091129 -0.192678,-0.19268c-0.101551,-0.101551 -0.168099,-0.069115 -0.192678,-0.128452c-0.069518,-0.167831 -0.241742,-0.049065 -0.385356,-0.192677c-0.143613,-0.143612 -0.092139,-0.266602 -0.256905,-0.385357c-0.156308,-0.112659 -0.229048,-0.080013 -0.385356,-0.192677c-0.164765,-0.118755 -0.113292,-0.241745 -0.256904,-0.385357c-0.143614,-0.143616 -0.32113,-0.128452 -0.449583,-0.256905c0,0 -0.128451,0 -0.192678,-0.064228c-0.128451,-0.128452 -0.117571,-0.216923 -0.192678,-0.321129c-0.118755,-0.164764 -0.256903,-0.128452 -0.385356,-0.256905c-0.064225,-0.064224 -0.091127,-0.155354 -0.192678,-0.256905c-0.10155,-0.101551 -0.091128,-0.155354 -0.192678,-0.256905c-0.10155,-0.101551 0.072017,-0.184887 -0.064226,-0.321129c-0.09083,-0.090828 -0.147264,-0.018814 -0.192678,-0.064228c-0.136243,-0.136242 -0.039646,-0.197567 -0.064226,-0.256905c-0.069518,-0.167828 -0.159683,-0.181358 -0.192678,-0.321129c-0.014756,-0.062508 -0.160145,-0.184875 -0.192678,-0.385357c-0.010288,-0.063396 -0.144927,-0.243864 -0.192678,-0.321129c-0.106776,-0.172768 -0.027789,-0.45306 -0.064226,-0.642262c-0.065406,-0.339628 -0.192678,-0.578033 -0.192678,-0.770712c0,-0.256905 -0.128452,-0.449583 -0.128452,-0.513809c0,-0.128452 0,-0.321131 0,-0.385357c0,-0.192678 0,-0.256905 0,-0.385355c0,-0.192678 0,-0.321131 0,-0.449583c0,-0.192678 0.029467,-0.365667 0.064226,-0.449583c0.073735,-0.178011 0.031693,-0.377558 0.064226,-0.578033c0.010288,-0.063396 0,-0.256905 0,-0.449583c0,-0.192678 0,-0.321131 0,-0.449583c0,-0.192678 0,-0.449583 0,-0.64226c0,-0.256905 0,-0.449583 0,-0.706488c0,-0.192678 0,-0.321131 0,-0.449583c0,-0.128452 0,-0.321129 0,-0.321129c0,-0.192678 0,-0.385357 0,-0.449583c0,-0.192678 0.107876,-0.258564 0.128452,-0.385357c0.032533,-0.200478 0.064226,-0.321131 0.064226,-0.449581c0,-0.192678 -0.010288,-0.386187 0,-0.449583c0.032533,-0.200478 0.064226,-0.385357 0.064226,-0.578035c0,-0.192678 0.097589,-0.323618 0.128452,-0.513807c0.032533,-0.200478 0.064226,-0.321131 0.064226,-0.449583c0,-0.128452 -0.007792,-0.184887 0.128452,-0.321131c0.045415,-0.045414 0.076447,-0.120844 0.192678,-0.321131c0.072084,-0.124214 0.01507,-0.202456 0.064226,-0.321129c0.034759,-0.083916 0.232326,-0.197567 0.256904,-0.256905c0.069518,-0.167831 0.192678,-0.192678 0.192678,-0.256905c0,-0.128452 0.157919,-0.172989 0.192678,-0.256905c0.024578,-0.059338 0.026902,-0.091127 0.128452,-0.192678c0.101551,-0.101551 0.026902,-0.21958 0.128452,-0.321131c0.10155,-0.101551 0.10185,-0.166075 0.192678,-0.256903c0.090829,-0.09083 0.158913,-0.073818 0.192678,-0.128452c0.075502,-0.122166 0.101849,-0.166075 0.192678,-0.256905c0.045415,-0.045414 0.18322,-0.075344 0.256904,-0.128452c0.116506,-0.083973 0.158913,-0.138044 0.192678,-0.192678c0.075502,-0.122166 0.09214,-0.202375 0.256904,-0.321131c0.104206,-0.075108 0.158913,-0.138044 0.192678,-0.192678c0.075502,-0.122166 0.192678,-0.192677 0.192678,-0.256903c0,-0.064226 0.143522,-0.202456 0.192678,-0.321131c0.034759,-0.083916 0.223908,-0.117132 0.256904,-0.256905c0.029512,-0.125015 0.143521,-0.266682 0.192678,-0.385357c0.069518,-0.167831 0.172103,-0.258564 0.192678,-0.385356c0.032533,-0.200479 0.163166,-0.324567 0.192678,-0.449582c0.032996,-0.139772 0.224549,-0.250982 0.256905,-0.513809c0.007847,-0.063745 0.143521,-0.266682 0.192678,-0.385356c0.034759,-0.083916 0.192678,-0.256905 0.192678,-0.256905c0.064226,-0.128452 0.279138,-0.237987 0.385356,-0.385356c0.083973,-0.116506 0.128452,-0.192678 0.256905,-0.321131c0.064226,-0.064226 0.290257,-0.164303 0.449582,-0.385356c0.083973,-0.116506 0.206273,-0.238544 0.385357,-0.385357c0.070242,-0.057585 0.30902,-0.137099 0.449582,-0.32113c0.123281,-0.161406 0.269125,-0.249295 0.385357,-0.449583c0.072083,-0.124213 0.21958,-0.283806 0.32113,-0.385356c0.10155,-0.10155 0.232102,-0.147528 0.385357,-0.321131c0.095044,-0.107664 0.174629,-0.276828 0.385356,-0.449582c0.179084,-0.146813 0.256905,-0.256905 0.321131,-0.321131c0.128452,-0.128452 0.091128,-0.219579 0.192678,-0.32113c0.10155,-0.10155 0.266601,-0.09214 0.385356,-0.256905c0.075108,-0.104206 0.123834,-0.296149 0.256905,-0.449582c0.094095,-0.108493 0.221611,-0.157386 0.385356,-0.321131c0.163745,-0.163745 0.232103,-0.275978 0.385357,-0.449582c0.095043,-0.107664 0.172931,-0.268851 0.256904,-0.385357c0.106218,-0.147369 0.184821,-0.261143 0.256905,-0.385356c0.116232,-0.200288 0.192678,-0.256905 0.32113,-0.385356c0.064226,-0.064226 0.222146,-0.172989 0.256905,-0.256905c0.049156,-0.118674 0.12316,-0.153299 0.192678,-0.32113c0.024578,-0.059337 0.117176,-0.134739 0.192678,-0.256904c0.033766,-0.054634 0.091127,-0.155354 0.192677,-0.256904c0.10155,-0.101551 0.187387,-0.1533 0.256905,-0.321131c0.024578,-0.059337 0.117176,-0.134739 0.192678,-0.256904c0.033766,-0.054634 0.03046,-0.138044 0.064226,-0.192678c0.075501,-0.122165 0.192677,-0.128452 0.192677,-0.192678c0,0 0.018812,-0.083037 0.064226,-0.128452c0.09083,-0.090829 0.128452,-0.064226 0.128452,-0.128452c0,-0.064226 0.064226,-0.128452 0.064226,-0.192678c0,-0.064226 0.128452,-0.064226 0.128452,-0.192678c0,-0.128452 0.039648,-0.261793 0.064226,-0.32113c0.069517,-0.167831 0.192678,-0.256904 0.192678,-0.385356c0,-0.064226 -0.014755,-0.194396 0,-0.256904c0.032995,-0.139772 0.064226,-0.192678 0.064226,-0.256904c0,-0.064226 0,-0.128452 0,-0.256904c0,-0.128452 0.061346,-0.163722 0.128452,-0.385356c0.018612,-0.06147 0,-0.192678 0,-0.256904c0,-0.128452 0,-0.256904 0,-0.385356c0,-0.064226 -0.064226,-0.128452 -0.064226,-0.192678c0,-0.064226 -0.064226,-0.064226 -0.064226,-0.128452c0,-0.064226 -0.018812,-0.083037 -0.064226,-0.128452c-0.045414,-0.045415 0,-0.128452 0,-0.192678c0,-0.064226 -0.049156,-0.13823 0,-0.256904c0.03476,-0.083915 0.101849,-0.101849 0.192678,-0.192678c0.045414,-0.045415 0.001719,-0.113696 0.064226,-0.128452c0.139771,-0.032996 0.147263,-0.083037 0.192677,-0.128452c0.045414,-0.045415 0.129282,-0.053938 0.192678,-0.064226c0.200478,-0.032533 0.192678,-0.064226 0.385357,-0.064226c0,0 0.192678,0 0.321131,0c0.192678,0 0.513807,0 0.96339,0c0.321131,0 0.642262,0 0.963392,0c0.321129,0 0.385355,0 0.578033,0c0.128452,0 0.184879,0.031693 0.385357,0.064226c0.063396,0.010288 0.192678,0 0.385357,0c0.064226,0 0.12845,0 0.256903,0c0.064226,0 0.192678,0 0.385357,0c0.064226,0 0.256905,0.128452 0.449583,0.128452c0.192678,0 0.237215,0.029467 0.321131,0.064226c0.118675,0.049157 0.192677,0 0.321129,0.064226c0,0 0.101849,-0.090829 0.192678,0c0.09083,0.090829 0.064226,0.128452 0.128452,0.128452c0,0 0.018812,0.018811 0.064226,0.064226c0.045414,0.045415 0.166075,0.037623 0.256905,0.128452c0.045414,0.045415 -0.026604,0.101849 0.064226,0.192678c0.09083,0.090829 0.128452,0.064226 0.128452,0.128452c0,0.064226 -0.072018,0.184886 0.064226,0.32113c0.045414,0.045415 0.095457,0.052906 0.128452,0.192678c0.014755,0.062508 0,0.128452 0,0.192678c0,0.128452 0,0.256904 0,0.32113c0,0.128452 0,0.256904 0,0.32113c0,0.128452 0,0.256904 0,0.256904c0,0.192678 0,0.192678 0,0.32113c0,0.064226 0,0.192678 0,0.32113c0,0.064226 0,0.192678 0,0.256904c0,0.064226 0,0.128452 0,0.192678c0,0.064226 0,0.128452 0,0.192678c0,0.064226 0,0.192678 0,0.192678c0,0.064226 0,0.192678 0,0.256904c0,0.064226 0.034714,0.131888 0.064226,0.256904c0.032995,0.139772 0.064226,0.192678 0.064226,0.256905c0,0.064226 0.103874,0.133341 0.128452,0.192678c0.034758,0.083915 0.117174,0.070513 0.192677,0.192678c0.067532,0.109268 -0.019747,0.204625 0.064226,0.32113c0.053108,0.073685 0.14924,0.16186 0.256905,0.256904c0.173603,0.153254 0.204624,0.172932 0.321131,0.256904c0.073685,0.053109 0.118994,0.203795 0.192678,0.256905c0.116507,0.083972 0.156366,0.202375 0.321131,0.32113c0.104206,0.075108 0.258621,0.177922 0.321129,0.192678c0.139772,0.032996 0.192678,0.128452 0.256905,0.192678c0.064226,0.064226 0.203796,0.118994 0.256905,0.192678c0.083973,0.116505 0.197567,0.232326 0.256905,0.256904c0.083916,0.034759 0.108763,0.15792 0.192678,0.192678c0.118675,0.049156 0.128452,0.064226 0.192678,0.128452c0.064226,0.064226 0.139568,0.118995 0.192677,0.192678c0.083971,0.116506 0.133341,0.103873 0.192678,0.128451c0.083916,0.034759 0.1681,0.133341 0.192678,0.192678c0.03476,0.083916 0.054768,0.139569 0.128452,0.192678c0.116507,0.083973 0.197567,0.232327 0.256905,0.256905c0.083916,0.034759 0.083038,0.147263 0.128452,0.192677c0.09083,0.09083 0.128452,0.064226 0.128452,0.064226c0,0.064226 0.093693,0.108763 0.128452,0.192678c0.024578,0.059338 0.065945,0.177922 0.128452,0.192678c0.139771,0.032996 0.183218,0.139568 0.256903,0.192677c0.116507,0.083973 0.103874,0.133341 0.128452,0.192678c0.03476,0.083916 0.192678,0.128452 0.192678,0.128452c0.064226,0.128452 0.172989,0.222146 0.256905,0.256905c0.059338,0.024578 0.103874,0.069114 0.128452,0.128451c0.03476,0.083916 0.140398,0.108706 0.256905,0.192678c0.073685,0.053109 0.128452,0.128452 0.192678,0.192678c0.064226,0.064226 0.140398,0.108706 0.256903,0.192678c0.073685,0.053109 0.192678,0.064226 0.192678,0.128451c0,0.064226 0.108763,0.15792 0.192678,0.192678c0.059338,0.024578 0.128452,0.064226 0.192678,0.128452c0.064226,0.064226 0.140398,0.108706 0.256905,0.192678c0.073685,0.053109 0.118994,0.139569 0.192678,0.192678c0.116507,0.083972 0.192678,0.128451 0.256905,0.192677c0.064226,0.064226 0.168098,0.133341 0.192677,0.192678c0.03476,0.083916 0.157919,0.108763 0.192678,0.192678c0.024578,0.059338 0.095457,0.117132 0.128452,0.256904c0.014757,0.062508 0.093693,0.108763 0.128452,0.192678c0.024578,0.059338 0.029467,0.108763 0.064226,0.192678c0.024578,0.059338 0.064228,0.128452 0.064228,0.192678c0,0.064225 0.049469,0.130169 0.064224,0.192677c0.032993,0.139771 0.095455,0.181358 0.128452,0.321131c0.014755,0.062508 0.03471,0.131888 0.064224,0.256904c0.032997,0.139772 0.037624,0.230301 0.128452,0.321131c0.045418,0.045416 0.064228,0.064226 0.064228,0.128452c0,0.064226 0.064224,0.128452 0.064224,0.192678c0,0.064226 0.03965,0.13334 0.064228,0.192677c0.03476,0.083915 0.039646,0.133342 0.064224,0.192678c0.03476,0.083917 0.093693,0.108763 0.128452,0.192677c0.024578,0.059338 -0.024578,0.133341 0,0.192678c0.03476,0.083916 0.093693,0.108765 0.128452,0.192678c0.024578,0.059338 0.029469,0.108763 0.064228,0.192678c0.024578,0.059338 0.01881,0.083038 0.064224,0.128452c0.045414,0.045414 0.01112,0.118992 0.064228,0.192678c0.083973,0.116505 0.128452,0.256905 0.192677,0.321131c0.128452,0.128452 0.237156,0.26885 0.321129,0.385355c0.106216,0.147369 0.19268,0.192678 0.256905,0.256905c0.064228,0.064228 0.083038,0.083038 0.128452,0.128452c0.045418,0.045416 0.069118,0.03965 0.128452,0.064226c0.083916,0.03476 0.118996,0.075342 0.19268,0.128452c0.116505,0.083971 0.192677,0.128452 0.256905,0.128452c0.064224,0 0.064224,0.064226 0.128452,0.064226c0.064224,0 0.083035,0.01881 0.128452,0.064226c0.045414,0.045414 0.044537,0.093693 0.128452,0.128452c0.059334,0.024576 0.069115,0.03965 0.128448,0.064226c0.083916,0.03476 0.064228,0.128452 0.128452,0.128452c0.064228,0 0.044537,0.093691 0.128452,0.12845c0.059338,0.02458 0.128452,0.064224 0.19268,0.128452c0.064224,0.064226 0.103874,0.069115 0.128452,0.128452c0.03476,0.083914 0.103874,0.133341 0.128452,0.192678c0.03476,0.083914 0.128452,0.128452 0.192677,0.192678c0.064228,0.064228 0.083038,0.147264 0.128452,0.192678c0.045418,0.045416 0.083038,0.018812 0.128452,0.064226c0.045414,0.045414 0.03965,0.069115 0.064228,0.128452c0.03476,0.083914 0.073818,0.094685 0.128452,0.128452c0.122166,0.075502 0.147259,0.147263 0.192677,0.192678c0.045414,0.045414 0,0.12845 0.064224,0.256903c0.064228,0.128452 0.159683,0.245584 0.19268,0.385357c0.029514,0.125015 0.064224,0.192678 0.064224,0.321131c0,0.128452 0.064228,0.256905 0.064228,0.385357c0,0.12845 0,0.256903 0,0.449581c0,0.192678 0,0.321131 0,0.449583c0,0.128452 0,0.321131 0,0.449583c0,0.128452 0,0.192678 0,0.321129c0,0.064226 0,0.128452 0,0.192678c0,0.064226 0,0.128452 0,0.192678c0,0.064226 0,0.128452 0,0.192678c0,0.064226 0.029465,0.172991 0.064224,0.256905c0.049156,0.118675 0,0.192678 0,0.256905c0,0.128452 0,0.192678 0,0.321129c0,0.064226 0,0.128452 0,0.256905c0,0.128452 0,0.192678 0,0.321131c0,0.064226 0,0.128452 0,0.192678c0,0.064226 -0.064224,0.064226 -0.064224,0.128452c0,0.064226 0,0.128452 0,0.192678c0,0.064226 -0.064228,0.064226 -0.064228,0.128452c0,0.064226 -0.029465,0.172989 -0.064224,0.256903c-0.049156,0.118675 -0.064228,0.256905 -0.064228,0.321131c0,0.128452 -0.128452,0.192678 -0.128452,0.256905c0,0.064226 0,0.192678 0,0.321131c0,0.128452 0.024578,0.261793 0,0.321131c-0.03476,0.083914 -0.03471,0.260342 -0.064224,0.385355c-0.032997,0.139772 -0.064228,0.256905 -0.064228,0.321131c0,0.192678 -0.034714,0.324566 -0.064224,0.449583c-0.032993,0.139772 -0.095455,0.309811 -0.128452,0.449583c-0.04427,0.187523 -0.029465,0.301441 -0.064224,0.385355c-0.073734,0.178013 0,0.256905 0,0.321131c0,0.192678 -0.064228,0.321131 -0.064228,0.449583c0,0.064226 -0.064224,0.128452 -0.064224,0.256905c0,0.192677 0,0.256903 0,0.385355c0,0.128452 -0.052952,0.134739 -0.128452,0.256905c-0.033764,0.054634 0,0.128452 0,0.192678c0,0.064226 0,0.064226 0,0.064226c0,0.128452 0,0.192678 0,0.256905c0,0.064226 -0.064228,0.064226 -0.064228,0.128452c0,0.064226 -0.064224,0.128452 -0.064224,0.192678c0,0.064226 -0.064228,0.064226 -0.064228,0.064226c-0.064224,0.128452 -0.093693,0.172985 -0.128452,0.256905c-0.024578,0.059334 -0.01881,0.083038 -0.064224,0.128452c-0.045414,0.045414 -0.026901,0.155354 -0.128452,0.256905c-0.101551,0.101551 -0.128452,0.192677 -0.128452,0.192677c-0.064228,0 -0.093693,0.108765 -0.128452,0.192677c-0.024578,0.059338 -0.018814,0.083038 -0.064228,0.128452c-0.045414,0.045414 -0.093693,0.044537 -0.128452,0.128452c-0.024578,0.059338 -0.044533,0.157921 -0.128448,0.19268c-0.059338,0.024578 -0.133343,0.103874 -0.19268,0.128452c-0.083912,0.03476 -0.091125,0.155354 -0.192677,0.256905c-0.101551,0.101551 -0.197567,0.103874 -0.256905,0.128452c-0.083916,0.03476 -0.192684,0.128448 -0.321133,0.256901c-0.064224,0.064228 -0.133339,0.168102 -0.192677,0.19268c-0.083916,0.03476 -0.204628,0.108707 -0.321129,0.192677c-0.073689,0.053112 -0.147636,0.060921 -0.256905,0.128452c-0.122166,0.0755 -0.147263,0.147263 -0.19268,0.19268c-0.045414,0.045414 -0.064224,0.064224 -0.128452,0.128452c-0.064224,0.064224 -0.192677,0.128448 -0.256905,0.192677c-0.064228,0.064228 -0.147636,0.060921 -0.256905,0.128452c-0.122166,0.075504 -0.133343,0.168102 -0.192677,0.19268c-0.167828,0.069515 -0.247448,0.203793 -0.321131,0.256901c-0.116507,0.083973 -0.192678,0.128452 -0.256905,0.19268c-0.128452,0.128452 -0.202456,0.14352 -0.321129,0.192677c-0.167831,0.069519 -0.192678,0.19268 -0.256905,0.256905c-0.064228,0.064228 -0.202271,0.158916 -0.256905,0.19268c-0.122166,0.0755 -0.128452,0.192677 -0.192678,0.192677c-0.064226,0 -0.12845,0.128452 -0.192678,0.19268c-0.064226,0.064224 -0.069115,0.10387 -0.128452,0.128448c-0.083916,0.03476 -0.064226,0.128452 -0.064226,0.128452c-0.064226,0 -0.064226,0.128452 -0.128452,0.19268c0,0 0.026604,0.037624 -0.064226,0.128452c-0.045414,0.045414 -0.064224,0.064224 -0.12845,0.128452c-0.064224,0.064224 -0.069115,0.103874 -0.128452,0.128452c-0.083914,0.03476 -0.006287,0.117176 -0.128452,0.192677c-0.054634,0.033764 -0.064226,0.064228 -0.128452,0.064228c0,0 -0.044479,0.011948 -0.128452,0.128452c-0.053108,0.073685 -0.083036,0.083035 -0.128452,0.128452c-0.045414,0.045414 -0.083038,0.01881 -0.128452,0.064224c-0.045414,0.045414 -0.083036,0.01881 -0.128452,0.064228c-0.045414,0.045414 -0.128452,0 -0.192678,0c-0.064226,0 -0.133341,-0.024578 -0.192678,0c-0.083914,0.03476 -0.128452,0.064224 -0.192678,0.064224c-0.064224,0 -0.12845,0 -0.192677,0c-0.064226,0 -0.128452,0 -0.192678,0c-0.064226,0 -0.128452,0 -0.192678,0c-0.064226,0 -0.083038,0.045414 -0.128452,0c-0.045414,-0.045414 -0.064226,-0.192677 -0.064226,-0.192677c-0.064226,-0.19268 -0.128452,-0.256905 -0.128452,-0.256905c-0.064226,0 -0.064226,-0.128452 -0.128452,-0.19268c0,0 -0.064226,-0.064224 -0.128452,-0.192677c0,0 -0.015068,-0.074005 -0.064226,-0.19268c-0.03476,-0.083916 -0.095457,-0.052906 -0.128452,-0.192677c-0.014757,-0.062511 -0.044477,-0.1404 -0.12845,-0.256905c-0.053108,-0.073685 -0.139568,-0.18322 -0.192678,-0.256905c-0.083971,-0.116505 -0.083038,-0.147263 -0.128452,-0.192677c-0.045416,-0.045418 -0.095457,-0.05291 -0.128452,-0.19268c-0.014755,-0.062508 -0.044537,-0.222145 -0.128452,-0.256905c-0.059338,-0.024578 -0.103876,-0.133343 -0.128452,-0.192677c-0.03476,-0.083916 -0.128452,-0.19268 -0.128452,-0.19268c-0.064226,-0.064224 -0.095457,-0.245583 -0.128452,-0.385353c-0.014757,-0.062511 0.026604,-0.166077 -0.064226,-0.256905c-0.045414,-0.045414 -0.064226,-0.064228 -0.128452,-0.19268c0,0 -0.018812,-0.01881 -0.064226,-0.064224c-0.09083,-0.090828 0,-0.19268 0,-0.19268c-0.064226,-0.192677 0.007793,-0.249111 -0.128452,-0.385357c-0.045414,-0.045414 -0.064226,-0.192677 -0.12845,-0.256901c0,0 -0.049469,-0.001717 -0.064226,-0.064228c-0.032995,-0.139771 -0.049471,-0.130169 -0.064226,-0.192677c-0.032995,-0.139771 -0.113695,-0.130169 -0.128452,-0.19268c-0.032995,-0.139771 -0.064226,-0.192677 -0.128452,-0.192677c0,0 0.05794,-0.11718 -0.064226,-0.19268c-0.054634,-0.033764 -0.070513,-0.117176 -0.192678,-0.192677c-0.054634,-0.033764 -0.108706,-0.076176 -0.192678,-0.19268c-0.053108,-0.073685 -0.027916,-0.138145 -0.192678,-0.256901c-0.052103,-0.037552 -0.128452,-0.064228 -0.192678,-0.064228c-0.064226,0 -0.064226,-0.128452 -0.192678,-0.128452c-0.064224,0 -0.108763,-0.029465 -0.192677,-0.064224c-0.059338,-0.024578 -0.064226,-0.128452 -0.128452,-0.128452c-0.128452,0 -0.172932,-0.076176 -0.256905,-0.19268c-0.053108,-0.073685 -0.138229,-0.015068 -0.256905,-0.064224c-0.083916,-0.03476 -0.138229,-0.143522 -0.256905,-0.192678c-0.083916,-0.03476 -0.192678,-0.192678 -0.256905,-0.192678c-0.128452,0 -0.181356,-0.031231 -0.321129,-0.064226c-0.125015,-0.029512 -0.266682,-0.079296 -0.385357,-0.128452c-0.083916,-0.03476 -0.192678,-0.064226 -0.256905,-0.064226c-0.128452,0 -0.256905,0 -0.449583,0c-0.192678,0 -0.385355,-0.064226 -0.578033,-0.064226c-0.192678,0 -0.292175,-0.061346 -0.513809,-0.128452c-0.12294,-0.037224 -0.256905,0 -0.321131,0c-0.128452,0 -0.258621,0.014755 -0.321129,0c-0.139772,-0.032995 -0.192678,-0.064226 -0.256905,-0.064226c-0.128452,0 -0.256905,-0.128452 -0.321131,-0.128452c-0.128452,0 -0.192678,0 -0.256905,0c-0.128452,0 -0.256905,0 -0.385357,0c-0.128452,0 -0.26668,-0.049156 -0.385355,0c-0.083916,0.03476 -0.196115,0.034714 -0.321131,0.064226c-0.139772,0.032995 -0.261942,0.05073 -0.449583,0.128452c-0.132683,0.054958 -0.194397,0.113697 -0.256905,0.128452c-0.139772,0.032995 -0.134739,0.117176 -0.256905,0.192678c-0.109266,0.06753 -0.245626,0.006287 -0.321129,0.128452c-0.033766,0.054634 -0.109535,0.150686 -0.256905,0.256905c-0.116507,0.083973 -0.192677,0.128452 -0.321131,0.256905c-0.064226,0.064224 -0.203795,0.18322 -0.256904,0.256905c-0.083971,0.116508 -0.192677,0.192677 -0.256905,0.256905c-0.064225,0.064224 -0.133341,0.168098 -0.192678,0.192677c-0.167831,0.069519 -0.18322,0.268021 -0.256904,0.321129c-0.116507,0.083973 -0.192679,0.19268 -0.256905,0.256905c-0.064227,0.064228 -0.128452,0.064228 -0.128452,0.19268c0,0.064224 -0.108705,0.1404 -0.192678,0.256905c-0.053109,0.073685 -0.113695,0.194393 -0.128452,0.256905c-0.032995,0.139767 -0.103872,0.261791 -0.128451,0.321129c-0.03476,0.083916 -0.15792,0.172989 -0.192678,0.256905c-0.024577,0.059334 -0.037622,0.101849 -0.128452,0.192677c-0.045416,0.045418 -0.093694,0.108765 -0.128452,0.19268c-0.024577,0.059334 -0.039649,0.133343 -0.064226,0.192677c-0.034759,0.083916 -0.128451,0.128452 -0.128451,0.128452c-0.064226,0.128452 -0.147264,0.147266 -0.192678,0.19268c-0.090827,0.090828 -0.05295,0.134735 -0.128452,0.256901c-0.033767,0.054634 -0.088472,0.117573 -0.192678,0.19268c-0.164762,0.118755 -0.128451,0.321129 -0.192677,0.385357c-0.128451,0.128452 -0.204802,0.219353 -0.256905,0.256905c-0.164762,0.118755 -0.12316,0.153297 -0.192678,0.321129c-0.024579,0.059338 -0.093693,0.108761 -0.128452,0.192677c-0.024579,0.059338 -0.018813,0.083038 -0.064226,0.128452c-0.045414,0.045414 -0.064225,0.128452 -0.128451,0.19268c0,0 -0.064226,0 -0.064226,0.128452c0,0.064224 -0.064226,0.064224 -0.064226,0.128452c0,0.064224 -0.064226,0.064224 -0.064226,0.128452c0,0.064224 0,0.064224 0,0.192677l0,0.064228l0,0l-0.128452,0" id="svg_9" stroke-opacity="null" stroke-width="null" stroke="null" fill="#3b81f7"/>
  <g id="svg_1" fill="#000000" transform="translate(0,40) scale(0.10000000149011612,-0.10000000149011612) ">
   <path id="svg_2" d="m160,390c-7,-4 -9,-16 -6,-27c5,-15 -6,-30 -44,-62c-31,-26 -49,-49 -46,-57c3,-8 1,-14 -4,-14c-18,0 -51,-40 -44,-52c4,-7 7,-33 5,-58c-2,-44 0,-48 45,-85c44,-36 48,-38 58,-21c32,54 49,67 80,64c24,-2 35,-11 51,-40c11,-21 25,-38 30,-38c6,0 30,19 54,42c41,39 43,43 37,84c-3,24 -1,46 4,49c14,9 -6,42 -29,50c-11,3 -18,12 -15,19c3,8 -17,32 -45,56c-42,35 -50,46 -45,66c3,13 2,24 -2,25c-44,6 -74,5 -84,-1zm56,-19c15,12 16,11 10,-8c-5,-17 3,-29 44,-65c32,-28 48,-48 45,-59c-3,-10 4,-20 20,-27c23,-10 25,-17 25,-71c0,-57 -2,-61 -37,-90l-38,-31l-17,35c-31,59 -107,59 -138,0c-8,-17 -16,-32 -18,-34c-1,-3 -18,11 -38,30c-33,32 -35,37 -33,92c2,51 5,60 26,70c13,6 22,16 19,22c-2,7 18,34 45,61c37,37 47,53 43,69c-6,17 -5,18 10,6c13,-11 19,-11 32,0z"/>
   <path id="svg_3" d="m105,241c7,-12 183,-12 190,0c4,5 -35,9 -95,9c-60,0 -99,-4 -95,-9z"/>
   <path id="svg_4" d="m67,193c-4,-3 -7,-14 -7,-24c0,-12 6,-16 20,-12c22,6 28,43 7,43c-8,0 -17,-3 -20,-7z"/>
   <path id="svg_5" d="m117,194c-15,-15 -6,-24 24,-24c20,0 29,4 27,13c-5,14 -40,21 -51,11z"/>
   <path id="svg_6" d="m187,193c-13,-12 -7,-23 13,-23c11,0 20,7 20,15c0,15 -21,21 -33,8z"/>
   <path id="svg_7" d="m240,186c0,-11 9,-16 26,-16c31,0 28,23 -4,28c-15,2 -22,-2 -22,-12z"/>
   <path id="svg_8" d="m307,193c-13,-13 -7,-31 13,-36c16,-4 20,0 20,19c0,23 -18,32 -33,17z"/>
  </g>
 </g>
</svg>