<!--version="1.0" encoding="UTF-8"--><svg version="1.1" id="Layer_1" xmlns="http://www.w3.org/2000/svg" width="40" height="42" xml:space="preserve"><g id="PathID_108" transform="matrix(1, 0, 0, 1, 19.8, 20.9)"><path style="fill: rgb(0, 0, 0); fill-opacity: 1;" d="M1.55-20.9 6.8-9.4l2.6-4.15L19.8 12.6 4.95 21.1v-3.15Q4.9 11.1 3.7 7.45q-1-3-2.45-3T-1.2 7.5q-1.2 3.7-1.25 10.65v2.9l-17.35-8.2 9.6-18.95 3.1 2.15L-.85-20.9h2.4m-1.25 2L-6.3-1.05l-3.3-2.3-7.8 15.3 13 6.2q0-5.65.85-9.45 1.35-6.1 4.7-6.1 5.4 0 5.55 15.35l10.7-6.15L8.95-9.5l-2.5 4L.3-18.9"/><path style="fill: rgb(255, 255, 255); fill-opacity: 1;" d="m6.45-5.5 2.5-4 8.45 21.3-10.7 6.15Q6.55 2.6 1.15 2.6q-3.35 0-4.7 6.1-.85 3.8-.85 9.45l-13-6.2 7.8-15.3 3.3 2.3L.3-18.9 6.45-5.5"/></g></svg>