<?xml version="1.0" encoding="UTF-8"?>
<svg version="1.1" id="Layer_1" xmlns="http://www.w3.org/2000/svg" xmlns:xlink="http://www.w3.org/1999/xlink" width="40px" height="42px" xml:space="preserve">
<g id="PathID_108" transform="matrix(1, 0, 0, 1, 19.8, 20.9)">
<path style="fill:#000000;fill-opacity:1" d="M1.55 -20.9L6.8 -9.4L9.4 -13.55L19.8 12.6L4.95 21.1L4.95 17.95Q4.9 11.1 3.7 7.45Q2.7 4.45 1.25 4.45Q-0.2 4.45 -1.2 7.5Q-2.4 11.2 -2.45 18.15L-2.45 21.05L-19.8 12.85L-10.2 -6.1L-7.1 -3.95L-0.85 -20.9L1.55 -20.9M0.3 -18.9L-6.3 -1.05L-9.6 -3.35L-17.4 11.95L-4.4 18.15Q-4.4 12.5 -3.55 8.7Q-2.2 2.6 1.15 2.6Q6.55 2.6 6.7 17.95L17.4 11.8L8.95 -9.5L6.45 -5.5L0.3 -18.9"/>
<path style="fill:#FFFFFF;fill-opacity:1" d="M6.45 -5.5L8.95 -9.5L17.4 11.8L6.7 17.95Q6.55 2.6 1.15 2.6Q-2.2 2.6 -3.55 8.7Q-4.4 12.5 -4.4 18.15L-17.4 11.95L-9.6 -3.35L-6.3 -1.05L0.3 -18.9L6.45 -5.5"/>
</g>
</svg>