<?xml version="1.0" encoding="UTF-8" standalone="no"?>
<!-- Created with Inkscape (http://www.inkscape.org/) -->

<svg
   xmlns:dc="http://purl.org/dc/elements/1.1/"
   xmlns:cc="http://creativecommons.org/ns#"
   xmlns:rdf="http://www.w3.org/1999/02/22-rdf-syntax-ns#"
   xmlns:svg="http://www.w3.org/2000/svg"
   xmlns="http://www.w3.org/2000/svg"
   version="1.1"
   width="32.75"
   height="42"
   viewBox="0 0 32.75 42"
   id="svg3543"
   style="overflow:visible">
  <metadata
     id="metadata3561">
    <rdf:RDF>
      <cc:Work
         rdf:about="">
        <dc:format>image/svg+xml</dc:format>
        <dc:type
           rdf:resource="http://purl.org/dc/dcmitype/StillImage" />
        <dc:title></dc:title>
      </cc:Work>
    </rdf:RDF>
  </metadata>
  <defs
     id="defs3545" />
  <g
     transform="translate(16.35,21)"
     id="g3549">
    <g
       id="g3551">
      <g
         id="g3553">
        <path
           d="m 1.9,-16.8 c 0.5333334,-0.5 0.8,-1.133332 0.8,-1.9 l 0,-0.25 -0.25,-2.05 6.1,0 0,13.7 7.85,0 0,19.35 -16.35,8.9 -16.4,-8.9 0,-19.35 7.85,0 0,-13.7 6.1,0 -0.25,2.05 0,0.25 c 0,0.733333 0.2666666,1.366666 0.8,1.9 0.5,0.533334 1.11666665,0.8 1.85,0.8 0.76666665,0 1.4,-0.266666 1.9,-0.8 z M 0,21 0,20.95 0,21 z m 4.55,-39.65 c 0,1.266667 -0.4499996,2.333334 -1.35,3.2 -0.8666667,0.9 -1.9333335,1.35 -3.2,1.35 -1.2333333,0 -2.2833333,-0.45 -3.15,-1.35 -0.9,-0.899998 -1.35,-1.966664 -1.35,-3.2 l 0.05,-0.5 -2.2,0 0,34.4 c 1.6333336,0.9 3.2500004,1.783333 4.85,2.65 L -1.8,7 C -1.8,6.0666666 -1.5,5.2999997 -0.9,4.7 -0.59999996,4.4 -0.29999995,4.2000003 0,4.1 l 0.95,0.6 c 0.6,0.5999997 0.8999999,1.3666666 0.9,2.3 l 0,10.9 4.85,-2.65 0,-34.4 -2.2,0 0.05,0.5 z m 0,12.25 c 0,1.233333 -0.4499996,2.2999996 -1.35,3.2 -0.8666667,0.8666667 -1.9333335,1.3000001 -3.2,1.3 -1.2333333,0 -2.2833333,-0.4333333 -3.15,-1.3 -0.9,-0.9000004 -1.35,-1.966667 -1.35,-3.2 0,-1.233333 0.45,-2.3 1.35,-3.2 0.8666667,-0.9 1.9166668,-1.35 3.15,-1.35 1.2666667,0 2.3333335,0.45 3.2,1.35 0.9000004,0.9 1.35,1.966667 1.35,3.2 z m 3.9,0.95 0,19.75 6.1,-3.3 0,-16.45 -6.1,0 z m -22.95,0 0,16.45 6.1,3.3 0,-19.75 -6.1,0 z"
           id="path3555"
           style="fill:#000000;stroke-linecap:round;stroke-linejoin:round" />
        <path
           d="m 3.2,-15.45 c 0.9000004,-0.866666 1.35,-1.933331 1.35,-3.2 l -0.05,-0.5 2.2,0 0,34.4 L 1.85,17.9 1.85,7 C 1.85,6.0666666 1.55,5.2999997 0.95,4.7 L 0,4.1 C -0.3,4.2 -0.6,4.3999996 -0.9,4.7 -1.5,5.2999997 -1.8,6.0666666 -1.8,7 l 0,10.9 c -1.5999999,-0.866667 -3.2166664,-1.75 -4.85,-2.65 l 0,-34.4 2.2,0 -0.05,0.5 c 0,1.233334 0.45,2.300002 1.35,3.2 0.8666667,0.9 1.9166668,1.35 3.15,1.35 1.2666667,0 2.3333335,-0.45 3.2,-1.35 z m 0,12.25 c 0.9000004,-0.9000004 1.35,-1.966667 1.35,-3.2 0,-1.233333 -0.4499996,-2.3 -1.35,-3.2 -0.8666667,-0.9 -1.9333335,-1.35 -3.2,-1.35 -1.2333333,0 -2.2833333,0.45 -3.15,1.35 -0.9,0.9 -1.35,1.966667 -1.35,3.2 0,1.233333 0.45,2.2999996 1.35,3.2 0.8666667,0.8666667 1.9166668,1.3000001 3.15,1.3 1.2666667,0 2.3333335,-0.4333333 3.2,-1.3 z m 5.25,17.5 0,-19.75 6.1,0 0,16.45 -6.1,3.3 z M -14.5,11 l 0,-16.45 6.1,0 0,19.75 -6.1,-3.3 z"
           id="path3557"
           style="fill:#ffffff;stroke-linecap:round;stroke-linejoin:round" />
      </g>
    </g>
  </g>
</svg>
