<!--version="1.0" encoding="UTF-8" standalone="no"--><!-- Created with Inkscape (http://www.inkscape.org/) --><svg xmlns="http://www.w3.org/2000/svg" version="1.1" width="32.75" height="42" viewBox="0 0 32.75 42" id="svg3543" style="overflow-x: visible; overflow-y: visible;"><g transform="translate(16.35,21)" id="g3549"><g id="g3551"><g id="g3553"><path d="M1.9-16.8c.533-.5.8-1.133.8-1.9v-.25L2.45-21h6.1v13.7h7.85v19.35L.05 20.95l-16.4-8.9V-7.3h7.85V-21h6.1l-.25 2.05v.25c0 .733.267 1.367.8 1.9.5.533 1.117.8 1.85.8.767 0 1.4-.267 1.9-.8zM0 21v-.05.05zm4.55-39.65c0 1.267-.45 2.333-1.35 3.2-.867.9-1.933 1.35-3.2 1.35-1.233 0-2.283-.45-3.15-1.35-.9-.9-1.35-1.967-1.35-3.2l.05-.5h-2.2v34.4c1.633.9 3.25 1.783 4.85 2.65V7c0-.933.3-1.7.9-2.3.3-.3.6-.5.9-.6l.95.6c.6.6.9 1.367.9 2.3v10.9l4.85-2.65v-34.4H4.5l.05.5zm0 12.25c0 1.233-.45 2.3-1.35 3.2-.867.867-1.933 1.3-3.2 1.3-1.233 0-2.283-.433-3.15-1.3-.9-.9-1.35-1.967-1.35-3.2s.45-2.3 1.35-3.2c.867-.9 1.917-1.35 3.15-1.35 1.267 0 2.333.45 3.2 1.35.9.9 1.35 1.967 1.35 3.2zm3.9.95V14.3l6.1-3.3V-5.45h-6.1zm-22.95 0V11l6.1 3.3V-5.45h-6.1z" id="path3555" style="fill: rgb(0, 0, 0); stroke-linecap: round; stroke-linejoin: round;"/><path d="M3.2-15.45c.9-.867 1.35-1.933 1.35-3.2l-.05-.5h2.2v34.4L1.85 17.9V7c0-.933-.3-1.7-.9-2.3L0 4.1c-.3.1-.6.3-.9.6-.6.6-.9 1.367-.9 2.3v10.9c-1.6-.867-3.217-1.75-4.85-2.65v-34.4h2.2l-.05.5c0 1.233.45 2.3 1.35 3.2.867.9 1.917 1.35 3.15 1.35 1.267 0 2.333-.45 3.2-1.35zm0 12.25c.9-.9 1.35-1.967 1.35-3.2S4.1-8.7 3.2-9.6c-.867-.9-1.933-1.35-3.2-1.35-1.233 0-2.283.45-3.15 1.35-.9.9-1.35 1.967-1.35 3.2s.45 2.3 1.35 3.2c.867.867 1.917 1.3 3.15 1.3 1.267 0 2.333-.433 3.2-1.3zm5.25 17.5V-5.45h6.1V11l-6.1 3.3zM-14.5 11V-5.45h6.1V14.3l-6.1-3.3z" id="path3557" style="fill: rgb(255, 255, 255); stroke-linecap: round; stroke-linejoin: round;"/></g></g></g></svg>