<svg version="1.1" xmlns="http://www.w3.org/2000/svg" xmlns:xlink="http://www.w3.org/1999/xlink" width="50px" height="50px" viewBox="0,0,256,256"><g transform="translate(17.92,17.92) scale(0.86,0.86)"><g fill="none" fill-rule="nonzero" stroke="none" stroke-width="none" stroke-linecap="butt" stroke-linejoin="none" stroke-miterlimit="10" stroke-dasharray="" stroke-dashoffset="0" font-family="none" font-weight="none" font-size="none" text-anchor="none" style="mix-blend-mode: normal"><path transform="scale(5.12,5.12)" d="M11.8125,9.40625c2.34375,-0.6875 6.25,-5.54687 7.6875,-7.5c2.51953,4.78516 1.35156,11.06641 -1.8125,14.28125c-1.60156,1.625 -7.79297,5.50781 -11.875,2.90625c-3.97656,-2.52734 -4.24609,-10.78516 4.125,-17.0625c2.10938,-1.58203 4.4375,-1.88672 5.15625,-2c-0.61328,1.32813 -3.48437,7.32031 -3.28125,9.375zM36.5,2.78125c9.35938,3.95703 11.29688,12.21094 8.09375,15.625c-3.28906,3.51172 -9.75391,0.19531 -11.6875,-1c-3.82422,-2.37109 -6.64453,-9.30078 -5.75,-12.5c2.12891,2.66406 8.32813,7.30078 10.75,7.40625c-0.30469,-2.05078 -3.63672,-7.05078 -6.875,-10.15625c0.19922,0 0.48438,-0.04297 0.84375,-0.0625c1.08203,-0.0625 2.8125,-0.07812 4.625,0.6875zM45.5625,22c-0.63672,1.34375 -1.76953,2.35547 -3.375,3.03125c-0.25391,1.22266 -1.01953,2.54688 -2.4375,3.46875c-1.17578,-2.66016 -2.375,-4.66797 -3.84375,-6.125c0.25391,-0.19141 0.49219,-0.34766 0.71875,-0.46875c-0.01953,-0.13672 -0.04687,-0.30859 -0.0625,-0.46875c1.13281,0.32813 2.38672,0.5625 3.625,0.5625c2.31641,0 4.28125,-0.80859 5.71875,-2.34375c0.07422,-0.08203 0.14453,-0.16406 0.21875,-0.25c-0.00781,0.84766 -0.15234,1.73047 -0.5625,2.59375zM4.8125,20.75c1.30859,0.83594 2.82422,1.25 4.5,1.25c1.48047,0 2.92578,-0.33594 4.28125,-0.84375c-0.00781,0.17188 0.01563,0.35156 0,0.5c0.24219,0.11328 0.49609,0.25391 0.78125,0.4375c-1.5625,1.44141 -2.80859,3.46484 -4.03125,6.1875c-1.71094,-1.09375 -2.14453,-2.56641 -2.28125,-3.53125c-2.23047,-0.96484 -3.36719,-2.62891 -3.78125,-4.375c0.17188,0.13281 0.34766,0.25781 0.53125,0.375zM38.71875,31.28125c3.1875,0.17188 5.88281,-0.90234 6.3125,-2.53125c0.14063,-0.53516 0.6875,-0.85937 1.21875,-0.71875c0.53516,0.14063 0.85938,0.68359 0.71875,1.21875c-0.74219,2.80469 -4.11328,4.03125 -7.46875,4.0625c0.05859,0.16016 0.12891,0.27344 0.1875,0.4375c0.48047,1.32813 0.37109,2.48828 -0.09375,3.53125c3.48047,1.01563 4.98438,0.94922 6.90625,-0.15625c0.48047,-0.27344 1.09766,-0.10547 1.375,0.375c0.27344,0.48047 0.10547,1.10156 -0.375,1.375c-1.38672,0.79688 -2.64062,1.125 -4.03125,1.125c-1.42578,0 -3.01562,-0.37109 -5.0625,-1c-0.71094,0.78516 -1.58203,1.55859 -2.5625,2.28125c4.86719,1.49219 7.15625,4.73438 7.15625,6.71875c0,0.55469 -0.44531,1 -1,1c-0.55469,0 -1,-0.44531 -1,-1c0,-1.12891 -2.10547,-4.1875 -7.3125,-5.1875l-0.5625,0.375c-0.75391,0.53125 -1.44922,1.15234 -2.125,1.75c-1.69531,1.50781 -3.4375,3.0625 -6,3.0625c-2.5625,0 -4.30469,-1.55469 -6,-3.0625c-0.67578,-0.60156 -1.37109,-1.22266 -2.125,-1.75l-0.5625,-0.375c-5.20703,0.99609 -7.3125,4.05859 -7.3125,5.1875c0,0.55469 -0.44922,1 -1,1c-0.55078,0 -1,-0.44531 -1,-1c0,-1.98437 2.28516,-5.22656 7.15625,-6.71875c-0.98047,-0.72266 -1.85156,-1.49609 -2.5625,-2.28125c-2.04687,0.62891 -3.63672,1 -5.0625,1c-1.39062,0 -2.64453,-0.32812 -4.03125,-1.125c-0.48047,-0.27344 -0.64844,-0.89844 -0.375,-1.375c0.27734,-0.48047 0.89844,-0.64844 1.375,-0.375c1.92188,1.10547 3.42578,1.17188 6.90625,0.15625c-0.46484,-1.04297 -0.57422,-2.20312 -0.09375,-3.53125c0.05859,-0.16406 0.12891,-0.27734 0.1875,-0.4375c-3.35547,-0.03125 -6.72656,-1.25391 -7.46875,-4.0625c-0.14062,-0.53516 0.18359,-1.07812 0.71875,-1.21875c0.53125,-0.14062 1.07813,0.18359 1.21875,0.71875c0.42969,1.62891 3.125,2.69531 6.3125,2.53125c3.36719,-8.50781 5.98047,-10.28125 13.71875,-10.28125c7.73828,0 10.35156,1.77344 13.71875,10.28125z" id="strokeMainSVG" fill="#000000" stroke="#000000" stroke-width="7" stroke-linejoin="round"></path><g transform="scale(5.12,5.12)" fill="#ffffff" stroke="none" stroke-width="1" stroke-linejoin="miter"><path d="M15.09375,0.03125c-0.71875,0.11328 -3.04687,0.41797 -5.15625,2c-8.37109,6.27734 -8.10156,14.53516 -4.125,17.0625c4.08203,2.60156 10.27344,-1.28125 11.875,-2.90625c3.16406,-3.21484 4.33203,-9.49609 1.8125,-14.28125c-1.4375,1.95313 -5.34375,6.8125 -7.6875,7.5c-0.20312,-2.05469 2.66797,-8.04687 3.28125,-9.375zM31.875,2.09375c-0.35937,0.01953 -0.64453,0.0625 -0.84375,0.0625c3.23828,3.10547 6.57031,8.10547 6.875,10.15625c-2.42187,-0.10547 -8.62109,-4.74219 -10.75,-7.40625c-0.89453,3.19922 1.92578,10.12891 5.75,12.5c1.93359,1.19531 8.39844,4.51172 11.6875,1c3.20313,-3.41406 1.26563,-11.66797 -8.09375,-15.625c-1.8125,-0.76562 -3.54297,-0.75 -4.625,-0.6875zM46.125,19.40625c-0.07422,0.08594 -0.14453,0.16797 -0.21875,0.25c-1.4375,1.53516 -3.40234,2.34375 -5.71875,2.34375c-1.23828,0 -2.49219,-0.23437 -3.625,-0.5625c0.01563,0.16016 0.04297,0.33203 0.0625,0.46875c-0.22656,0.12109 -0.46484,0.27734 -0.71875,0.46875c1.46875,1.45703 2.66797,3.46484 3.84375,6.125c1.41797,-0.92187 2.18359,-2.24609 2.4375,-3.46875c1.60547,-0.67578 2.73828,-1.6875 3.375,-3.03125c0.41016,-0.86328 0.55469,-1.74609 0.5625,-2.59375zM4.28125,20.375c0.41406,1.74609 1.55078,3.41016 3.78125,4.375c0.13672,0.96484 0.57031,2.4375 2.28125,3.53125c1.22266,-2.72266 2.46875,-4.74609 4.03125,-6.1875c-0.28516,-0.18359 -0.53906,-0.32422 -0.78125,-0.4375c0.01563,-0.14844 -0.00781,-0.32812 0,-0.5c-1.35547,0.50781 -2.80078,0.84375 -4.28125,0.84375c-1.67578,0 -3.19141,-0.41406 -4.5,-1.25c-0.18359,-0.11719 -0.35937,-0.24219 -0.53125,-0.375zM25,21c-7.73828,0 -10.35156,1.77344 -13.71875,10.28125c-3.1875,0.16406 -5.88281,-0.90234 -6.3125,-2.53125c-0.14062,-0.53516 -0.6875,-0.85937 -1.21875,-0.71875c-0.53516,0.14063 -0.85937,0.68359 -0.71875,1.21875c0.74219,2.80859 4.11328,4.03125 7.46875,4.0625c-0.05859,0.16016 -0.12891,0.27344 -0.1875,0.4375c-0.48047,1.32813 -0.37109,2.48828 0.09375,3.53125c-3.48047,1.01563 -4.98437,0.94922 -6.90625,-0.15625c-0.47656,-0.27344 -1.09766,-0.10547 -1.375,0.375c-0.27344,0.47656 -0.10547,1.10156 0.375,1.375c1.38672,0.79688 2.64063,1.125 4.03125,1.125c1.42578,0 3.01563,-0.37109 5.0625,-1c0.71094,0.78516 1.58203,1.55859 2.5625,2.28125c-4.87109,1.49219 -7.15625,4.73438 -7.15625,6.71875c0,0.55469 0.44922,1 1,1c0.55078,0 1,-0.44531 1,-1c0,-1.12891 2.10547,-4.19141 7.3125,-5.1875l0.5625,0.375c0.75391,0.52734 1.44922,1.14844 2.125,1.75c1.69531,1.50781 3.4375,3.0625 6,3.0625c2.5625,0 4.30469,-1.55469 6,-3.0625c0.67578,-0.59766 1.37109,-1.21875 2.125,-1.75l0.5625,-0.375c5.20703,1 7.3125,4.05859 7.3125,5.1875c0,0.55469 0.44531,1 1,1c0.55469,0 1,-0.44531 1,-1c0,-1.98437 -2.28906,-5.22656 -7.15625,-6.71875c0.98047,-0.72266 1.85156,-1.49609 2.5625,-2.28125c2.04688,0.62891 3.63672,1 5.0625,1c1.39063,0 2.64453,-0.32812 4.03125,-1.125c0.48047,-0.27344 0.64844,-0.89453 0.375,-1.375c-0.27734,-0.48047 -0.89453,-0.64844 -1.375,-0.375c-1.92187,1.10547 -3.42578,1.17188 -6.90625,0.15625c0.46484,-1.04297 0.57422,-2.20312 0.09375,-3.53125c-0.05859,-0.16406 -0.12891,-0.27734 -0.1875,-0.4375c3.35547,-0.03125 6.72656,-1.25781 7.46875,-4.0625c0.14063,-0.53516 -0.18359,-1.07812 -0.71875,-1.21875c-0.53125,-0.14062 -1.07812,0.18359 -1.21875,0.71875c-0.42969,1.62891 -3.125,2.70313 -6.3125,2.53125c-3.36719,-8.50781 -5.98047,-10.28125 -13.71875,-10.28125z"></path></g></g></g></svg>