<svg version="1.1" xmlns="http://www.w3.org/2000/svg" width="50" height="50" viewBox="0 0 256 256"><g fill="none" fill-rule="nonzero" stroke="none" stroke-width="none" stroke-linecap="butt" stroke-linejoin="none" stroke-miterlimit="10" stroke-dashoffset="0" font-family="none" font-weight="none" font-size="none" text-anchor="none" style="" transform="translate(17.92,17.92) scale(0.86,0.86)"><path transform="scale(5.12,5.12)" d="M11.812 9.406c2.344-.687 6.25-5.547 7.688-7.5 2.52 4.785 1.352 11.067-1.812 14.281-1.602 1.625-7.793 5.508-11.875 2.907C1.836 16.566 1.565 8.309 9.937 2.03 12.047.451 14.375.146 15.094.032c-.614 1.33-3.485 7.322-3.281 9.376zM36.5 2.781c9.36 3.958 11.297 12.212 8.094 15.626-3.29 3.512-9.754.196-11.688-1-3.824-2.37-6.644-9.3-5.75-12.5 2.13 2.664 8.328 7.3 10.75 7.406-.304-2.05-3.636-7.05-6.875-10.156.2 0 .486-.043.845-.062 1.082-.063 2.812-.078 4.625.687zm9.062 19.22c-.636 1.344-1.77 2.355-3.375 3.031-.253 1.224-1.02 2.548-2.437 3.47-1.176-2.66-2.375-4.668-3.844-6.125.254-.191.492-.348.72-.469-.02-.136-.048-.308-.063-.469 1.132.329 2.386.563 3.625.563 2.316 0 4.28-.809 5.718-2.344.074-.082.145-.164.22-.25-.009.848-.153 1.73-.563 2.594zm-40.75-1.25c1.31.836 2.825 1.25 4.5 1.25 1.48 0 2.926-.336 4.282-.844-.008.172.015.352 0 .5.242.114.496.254.78.438-1.561 1.441-2.808 3.465-4.03 6.187-1.711-1.093-2.145-2.565-2.281-3.53-2.23-.965-3.368-2.629-3.782-4.375.173.133.349.258.532.375zM38.72 31.28c3.186.173 5.882-.901 6.311-2.53a1 1 0 011.939.5c-.743 2.805-4.115 4.031-7.47 4.062.059.16.129.274.188.438.48 1.328.37 2.488-.094 3.531 3.48 1.017 4.984.95 6.906-.155a1.014 1.014 0 011.375.375c.273.48.105 1.102-.375 1.375C46.113 39.672 44.86 40 43.47 40c-1.427 0-3.017-.371-5.064-1-.71.785-1.582 1.559-2.562 2.281C40.71 42.774 43 46.017 43 48.001c0 .555-.445 1-1 1s-1-.445-1-1c0-1.129-2.105-4.188-7.312-5.188l-.563.375c-.754.532-1.45 1.153-2.125 1.75C29.305 46.445 27.562 48 25 48s-4.305-1.555-6-3.062c-.676-.602-1.371-1.223-2.125-1.75l-.562-.375C11.104 43.808 9 46.87 9 48a1 1 0 11-2 0c0-1.984 2.285-5.227 7.156-6.719-.98-.721-1.851-1.495-2.562-2.28-2.047.629-3.637 1-5.063 1-1.39 0-2.643-.328-4.03-1.125A1.014 1.014 0 012.125 37.5c.277-.48.898-.648 1.375-.375 1.922 1.105 3.426 1.172 6.906.156-.465-1.042-.574-2.202-.094-3.53.06-.164.13-.277.188-.438-3.355-.03-6.727-1.253-7.469-4.062a1 1 0 111.939-.5c.428 1.629 3.124 2.695 6.311 2.531 3.368-8.507 5.982-10.28 13.72-10.28 7.738 0 10.352 1.773 13.719 10.281z" id="strokeMainSVG" fill="#000000" stroke="#000000" stroke-width="7" stroke-linejoin="round"/><path d="M15.094.031c-.72.115-3.047.42-5.156 2.001C1.566 8.31 1.835 16.567 5.812 19.095c4.082 2.601 10.273-1.281 11.875-2.906C20.851 12.972 22.02 6.69 19.5 1.906c-1.438 1.953-5.344 6.813-7.688 7.5C11.61 7.352 14.48 1.36 15.094.031zm16.78 2.064c-.358.02-.644.062-.843.062 3.24 3.106 6.572 8.106 6.876 10.156-2.422-.105-8.62-4.742-10.75-7.406-.894 3.2 1.926 10.13 5.75 12.5 1.934 1.196 8.399 4.512 11.688 1 3.203-3.414 1.265-11.668-8.094-15.625-1.812-.764-3.543-.749-4.625-.686zm14.25 17.312c-.073.086-.144.168-.218.25C44.47 21.191 42.504 22 40.188 22c-1.239 0-2.493-.234-3.625-.562.015.16.042.332.062.468a5.576 5.576 0 00-.719.47c1.47 1.456 2.668 3.464 3.844 6.124 1.418-.922 2.184-2.246 2.438-3.469 1.605-.675 2.738-1.686 3.375-3.03.41-.863.554-1.746.562-2.594zm-41.843.97c.415 1.745 1.552 3.41 3.782 4.374.137.965.57 2.438 2.282 3.531 1.222-2.721 2.469-4.745 4.03-6.186a6.607 6.607 0 00-.78-.438c.015-.148-.008-.328 0-.5-1.356.508-2.8.844-4.281.844-1.676 0-3.192-.414-4.5-1.25a7.227 7.227 0 01-.532-.375zm20.72.624c-7.738 0-10.352 1.773-13.719 10.281-3.186.165-5.882-.901-6.311-2.53a1 1 0 00-1.939.5c.743 2.809 4.115 4.031 7.47 4.062-.059.16-.129.274-.188.438-.48 1.328-.37 2.488.094 3.531-3.48 1.017-4.984.95-6.906-.155a1.015 1.015 0 00-1.375.375 1.014 1.014 0 00.375 1.375C3.887 39.672 5.14 40 6.53 40c1.427 0 3.017-.371 5.064-1 .71.785 1.582 1.559 2.562 2.281C9.286 42.774 7 46.017 7 48.001a1 1 0 102 0c0-1.129 2.105-4.191 7.312-5.188l.563.375c.754.528 1.45 1.149 2.125 1.75C20.695 46.445 22.438 48 25 48s4.305-1.555 6-3.062c.676-.598 1.371-1.22 2.125-1.75l.562-.375C38.896 43.812 41 46.87 41 48c0 .555.445 1 1 1s1-.445 1-1c0-1.984-2.29-5.227-7.156-6.719.98-.721 1.851-1.495 2.562-2.28 2.047.629 3.637 1 5.063 1 1.39 0 2.643-.328 4.03-1.125.48-.273.648-.895.375-1.375a1.014 1.014 0 00-1.375-.375c-1.922 1.105-3.426 1.172-6.906.156.465-1.042.574-2.202.093-3.53-.058-.164-.128-.277-.187-.438 3.355-.03 6.727-1.257 7.469-4.062a1 1 0 10-1.939-.5c-.428 1.629-3.124 2.703-6.311 2.531-3.368-8.507-5.982-10.28-13.72-10.28z" transform="scale(5.12,5.12)" fill="#3b81f7" stroke="none" stroke-width="1" stroke-linejoin="miter"/></g></svg>