<!--version="1.0" encoding="UTF-8"--><svg version="1.1" id="Layer_1" xmlns="http://www.w3.org/2000/svg" width="29" height="41" xml:space="preserve"><g id="PathID_71" transform="matrix(1, 0, 0, 1, 14.15, 20.2)"><path style="fill: rgb(59, 129, 247); fill-opacity: 1;" d="M4-14.85h6.9l-1.85 3.7h-2.6l2.6 25.8h3.25v3.7h-24.6v-3.7h3.35l2.6-25.8h-2.7l-1.85-3.7h7.1q.15-1.5 1.25-2.5t2.65-1q1.5 0 2.6 1 1.1 1 1.3 2.5M2 .2Q.75-2.7.2-4.45h-.3Q-.6-2.7-1.9.2q-1 2.8-1.05 6.25v8.2h6v-8.2Q3 3 2 .2"/><path style="fill: rgb(0, 0, 0); fill-opacity: 1;" d="M5.4-16.7h8.45L10.2-9.3H8.5l2.2 22.1h3.45v7.4h-28.3v-7.4h3.55l2.2-22.1h-1.8l-3.65-7.4h8.65q.65-1.6 2.05-2.55Q-1.7-20.2.1-20.2q1.75 0 3.2.95 1.4.95 2.1 2.55m-2.7-.65q-1.1-1-2.6-1-1.55 0-2.65 1-1.1 1-1.25 2.5h-7.1l1.85 3.7h2.7l-2.6 25.8h-3.35v3.7h24.6v-3.7H9.05l-2.6-25.8h2.6l1.85-3.7H4q-.2-1.5-1.3-2.5m.35 23.8v8.2h-6v-8.2Q-2.9 3-1.9.2-.6-2.7-.1-4.45h.3Q.75-2.7 2 .2 3 3 3.05 6.45"/></g></svg>