<?xml version="1.0" encoding="UTF-8" standalone="no"?>
<!-- Created with Inkscape (http://www.inkscape.org/) -->

<svg
   xmlns:dc="http://purl.org/dc/elements/1.1/"
   xmlns:cc="http://creativecommons.org/ns#"
   xmlns:rdf="http://www.w3.org/1999/02/22-rdf-syntax-ns#"
   xmlns:svg="http://www.w3.org/2000/svg"
   xmlns="http://www.w3.org/2000/svg"
   version="1.1"
   width="30.299999"
   height="42"
   viewBox="0 0 30.299999 42"
   id="svg3246"
   style="overflow:visible">
  <metadata
     id="metadata3264">
    <rdf:RDF>
      <cc:Work
         rdf:about="">
        <dc:format>image/svg+xml</dc:format>
        <dc:type
           rdf:resource="http://purl.org/dc/dcmitype/StillImage" />
        <dc:title></dc:title>
      </cc:Work>
    </rdf:RDF>
  </metadata>
  <defs
     id="defs3248" />
  <g
     transform="translate(15.15,21)"
     id="g3252">
    <g
       id="g3254">
      <g
         id="g3256">
        <path
           d="m 10,-21 1.7,0 1.65,2.9 1.8,0 0,17.35 c 0,2.8 -0.916667,5.9833336 -2.75,9.55 C 9.833333,13.866667 6.0666666,17.816666 1.1,20.65 L 0.75,21 -0.75,21 -1.1,20.65 C -6.066667,17.816666 -9.833334,13.866666 -12.4,8.8 -14.233333,5.233333 -15.15,2.0499997 -15.15,-0.75 l 0,-17.35 1.65,0 1.7,-2.9 1.7,0 1.3,2.35 1.35,-2.35 1.7,0 1.35,2.35 1.3,-2.35 1.7,0 1.35,2.35 1.35,-2.35 1.7,0 1.3,2.35 1.35,-2.35 1.7,0 1.35,2.35 L 10,-21 z m 0.85,2.2 -2.15,3.75 -2.2,-3.75 -2.2,3.75 -2.15,-3.75 -1.9,3.25 1.85,7.65 0,0.2 -0.1,0.1 -0.3,0.5 3.2,3.15 0.6,-0.4 0.15,0.05 7.7,1.85 0,-12.4 -0.2,0 -2.3,-3.95 z m 2.5,16.9 -7.7,1.8 -0.15,0.05 -0.6,-0.4 -3.2,3.4 0.4,0.6 0,0.15 L 0.35,18.15 0.1,19.2 c 4.6000003,-2.633332 8.133334,-6.299999 10.6,-11 1.766667,-3.4000003 2.65,-6.3833336 2.65,-8.95 l 0,-1.15 z m -13.7,-13.65 -1.9,-3.25 -2.15,3.75 -2.2,-3.75 -2.2,3.75 -2.15,-3.75 -2.3,3.95 -0.1,0 0,12.3 7.5,-1.75 0.15,-0.05 0.6,0.4 3.3,-3.15 -0.3,-0.5 -0.1,-0.1 1.85,-7.85 z m -13,14.8 c 0,2.5666666 0.883333,5.55 2.65,8.95 2.433334,4.666667 5.9500005,8.316666 10.55,10.95 L -0.4,18.15 -2.15,3.7 -2.2,3.55 l 0.4,-0.6 -3.3,-3.4 -0.6,0.4 -0.15,-0.05 -7.5,-1.75 0,1.1 z m 13.25,-4.5 -0.25,0.3 -2.9,2.85 3.2,3.1 3.25,-3.25 -3.3,-3 z"
           id="path3258"
           style="fill:#000000;stroke-linecap:round;stroke-linejoin:round" />
        <path
           d="m 8.7,-15.05 2.15,-3.75 2.3,3.95 0.2,0 0,12.4 L 5.65,-4.3 5.5,-4.35 4.9,-3.95 1.7,-7.1 2,-7.6 l 0.1,-0.1 0,-0.2 -1.85,-7.65 1.9,-3.25 2.15,3.75 2.2,-3.75 2.2,3.75 z m -3.05,14.95 7.7,-1.8 0,1.15 c 0,2.5666666 -0.883333,5.55 -2.65,8.95 -2.466666,4.7 -5.9999997,8.366666 -10.6,11 L 0.35,18.15 2.1,3.7 l 0,-0.15 -0.4,-0.6 3.2,-3.4 0.6,0.4 0.15,-0.05 z m -7.9,-18.7 1.9,3.25 -1.85,7.85 0.1,0.1 0.3,0.5 -3.3,3.15 -0.6,-0.4 -0.15,0.05 -7.5,1.75 0,-12.3 0.1,0 2.3,-3.95 2.15,3.75 2.2,-3.75 2.2,3.75 2.15,-3.75 z m -8.45,27 c -1.766667,-3.4000003 -2.65,-6.3833336 -2.65,-8.95 l 0,-1.1 7.5,1.75 0.15,0.05 0.6,-0.4 3.3,3.4 -0.4,0.6 0.05,0.15 1.75,14.45 0.25,1 C -4.7500005,16.516666 -8.266667,12.866667 -10.7,8.2 z m 10.35,-13.15 0.25,-0.3 3.3,3 -3.25,3.25 -3.2,-3.1 2.9,-2.85 z"
           id="path3260"
           style="fill:#ffffff;stroke-linecap:round;stroke-linejoin:round" />
      </g>
    </g>
  </g>
</svg>
