<!--version="1.0" encoding="UTF-8" standalone="no"--><!-- Created with Inkscape (http://www.inkscape.org/) --><svg xmlns="http://www.w3.org/2000/svg" version="1.1" width="30.3" height="42" viewBox="0 0 30.3 42" id="svg3246" style="overflow-x: visible; overflow-y: visible;"><g transform="translate(15.15,21)" id="g3252"><g id="g3254"><g id="g3256"><path d="M10-21h1.7l1.65 2.9h1.8V-.75c0 2.8-.917 5.983-2.75 9.55-2.567 5.067-6.333 9.017-11.3 11.85L.75 21h-1.5l-.35-.35c-4.967-2.833-8.733-6.783-11.3-11.85-1.833-3.567-2.75-6.75-2.75-9.55V-18.1h1.65l1.7-2.9h1.7l1.3 2.35L-7.45-21h1.7l1.35 2.35L-3.1-21h1.7l1.35 2.35L1.3-21H3l1.3 2.35L5.65-21h1.7l1.35 2.35L10-21zm.85 2.2L8.7-15.05 6.5-18.8l-2.2 3.75-2.15-3.75-1.9 3.25L2.1-7.9v.2l-.1.1-.3.5 3.2 3.15.6-.4.15.05 7.7 1.85v-12.4h-.2l-2.3-3.95zm2.5 16.9L5.65-.1l-.15.05-.6-.4-3.2 3.4.4.6v.15L.35 18.15.1 19.2c4.6-2.633 8.133-6.3 10.6-11 1.767-3.4 2.65-6.383 2.65-8.95V-1.9zM-.35-15.55l-1.9-3.25-2.15 3.75-2.2-3.75-2.2 3.75-2.15-3.75-2.3 3.95h-.1v12.3l7.5-1.75.15-.05.6.4 3.3-3.15-.3-.5-.1-.1 1.85-7.85zm-13 14.8c0 2.567.883 5.55 2.65 8.95 2.433 4.667 5.95 8.317 10.55 10.95l-.25-1L-2.15 3.7l-.05-.15.4-.6-3.3-3.4-.6.4-.15-.05-7.5-1.75v1.1zM-.1-5.25l-.25.3-2.9 2.85L-.05 1 3.2-2.25l-3.3-3z" id="path3258" style="fill: rgb(0, 0, 0); stroke-linecap: round; stroke-linejoin: round;"/><path d="m8.7-15.05 2.15-3.75 2.3 3.95h.2v12.4L5.65-4.3l-.15-.05-.6.4L1.7-7.1l.3-.5.1-.1v-.2L.25-15.55l1.9-3.25 2.15 3.75 2.2-3.75 2.2 3.75zM5.65-.1l7.7-1.8v1.15c0 2.567-.883 5.55-2.65 8.95-2.467 4.7-6 8.367-10.6 11l.25-1.05L2.1 3.7v-.15l-.4-.6 3.2-3.4.6.4.15-.05zm-7.9-18.7 1.9 3.25L-2.2-7.7l.1.1.3.5-3.3 3.15-.6-.4-.15.05-7.5 1.75v-12.3h.1l2.3-3.95 2.15 3.75 2.2-3.75 2.2 3.75 2.15-3.75zm-8.45 27c-1.767-3.4-2.65-6.383-2.65-8.95v-1.1l7.5 1.75.15.05.6-.4 3.3 3.4-.4.6.05.15L-.4 18.15l.25 1c-4.6-2.633-8.117-6.283-10.55-10.95zM-.35-4.95l.25-.3 3.3 3L-.05 1l-3.2-3.1 2.9-2.85z" id="path3260" style="fill: rgb(59, 129, 247); stroke-linecap: round; stroke-linejoin: round;"/></g></g></g></svg>