<!--version="1.0" encoding="UTF-8" standalone="no"--><!-- Created with Inkscape (http://www.inkscape.org/) --><svg xmlns="http://www.w3.org/2000/svg" version="1.1" width="29.2" height="42" viewBox="0 0 29.2 42" id="svg3252" style="overflow-x: visible; overflow-y: visible;"><g transform="translate(14.6,21)" id="g3258"><g id="g3260"><g id="g3262"><path d="M-9.6-11.4 0-21l9.65 9.6-5.5 5.5.25 7.2L8.35.65 14.6 13.4 0 21l-14.6-7.6L-8.25.75l3.95.6.2-7.25-5.5-5.5zm16.25 0L0-18.05l-6.65 6.65L-2-6.75V13l-3-1.55-1.4-9.8-5.4 10.85L0 18.65l11.85-6.15L6.5 1.6l-1.4 9.8L2.05 13V-6.75l4.6-4.65zm-4.3 0L0-9.05l-2.35-2.35L0-13.75l2.35 2.35z" id="path3264" style="fill: rgb(0, 0, 0); stroke-linecap: round; stroke-linejoin: round;"/><path d="m0-18.05 6.65 6.65-4.6 4.65V13l3.05-1.6 1.4-9.8 5.35 10.9L0 18.65l-11.8-6.15 5.4-10.85 1.4 9.8L-2 13V-6.75l-4.65-4.65L0-18.05zm0 9 2.35-2.35L0-13.75l-2.35 2.35L0-9.05z" id="path3266" style="fill: rgb(255, 255, 255); stroke-linecap: round; stroke-linejoin: round;"/></g></g></g></svg>