<!--version="1.0" encoding="UTF-8"--><svg version="1.1" id="Layer_1" xmlns="http://www.w3.org/2000/svg" width="30" height="43" xml:space="preserve"><g id="PathID_54" transform="matrix(1, 0, 0, 1, 14.55, 20.95)"><path style="fill: rgb(0, 0, 0); fill-opacity: 1;" d="M6.8-17.45 3.5-9 .05-3.95-3.4-9l-3.3-8.45-2 1.85 4.2 9.7-.9 2.3q-1.7-5.2-3.05-5.9l-1.4-.2-.8.15 1.45 1.2q.4.4 1.9 5.65l.4 5.5 2.8 2 1.4 4.55q-.95 6.85-1.25 7.05l2.55.5 1.55 1.5 1.35-1.5 2.5-.5q-.25-.2-1.25-7.05L4.2 4.8l2.8-2 .4-5.5.85-2.8q.8-2.6 1.05-2.85l1.4-1.2-2.2.05q-.8.45-2 3.2l-1 2.7-.9-2.3 4.2-9.7-2-1.85m2.5 5.75 2.05.25 3.25 1.05-3.75 3.35-1.5 4.75-.1 2.05-.3 3.45-.15.75-2.9 2.1L4.8 9.5l.9 5.55 2.9 1.65-3.85 1.55-2.25.5L.4 21.1l-2.75-2.35-2.3-.5-3.85-1.55 2.9-1.65.85-5.55-1.05-3.45-2.9-2.1-.2-.75-.25-3.45-.1-2.05q-1.2-4.05-1.55-4.75l-3.75-3.35 3.3-1.05 2.05-.25-1.9-4.45 5.15-4.8 4.35 11L.05-7.5 1.7-9.95l4.3-11 5.15 4.8-1.8 4.35-.05.1M4.6.65 4 2.8l-1.95.5-.2-1.7L4.6.65m-6.4.95L-2 3.3l-1.9-.5-.6-2.15 2.7.95"/><path style="fill: rgb(59, 129, 247); fill-opacity: 1;" d="M8.8-15.6 4.6-5.9l.9 2.3 1-2.7q1.2-2.75 2-3.2l2.2-.05-1.4 1.2q-.25.25-1.05 2.85L7.4-2.7 7 2.8l-2.8 2-1.45 4.55q1 6.85 1.25 7.05l-2.5.5-1.35 1.5-1.55-1.5-2.55-.5q.3-.2 1.25-7.05L-4.1 4.8l-2.8-2-.4-5.5q-1.5-5.25-1.9-5.65l-1.45-1.2.8-.15 1.4.2q1.35.7 3.05 5.9l.9-2.3-4.2-9.7 2-1.85L-3.4-9 .05-3.95 3.5-9l3.3-8.45 2 1.85M1.85 1.6l.2 1.7L4 2.8 4.6.65l-2.75.95M-4.5.65l.6 2.15 1.9.5.2-1.7-2.7-.95"/></g></svg>