<?xml version="1.0" encoding="UTF-8"?>
<svg version="1.1" id="Layer_1" xmlns="http://www.w3.org/2000/svg" xmlns:xlink="http://www.w3.org/1999/xlink" width="26px" height="41px" xml:space="preserve">
<g id="PathID_103" transform="matrix(1, 0, 0, 1, 12.65, 20.1)">
<path style="fill:#000000;fill-opacity:1" d="M8.8 -14.55L12.65 -14.55L12.65 -8.55L11.65 -8.55L11.65 -5.5L10 -3.7L10 12.35L-0.1 20.25L-10 12.35L-10 -3.7L-11.65 -5.5L-11.65 -8.55L-12.65 -8.55L-12.65 -14.55L-8.8 -14.55Q-6.4 -18.8 -2.05 -19.8L-2.05 -20.05L2 -20.1L2 -19.8Q6.4 -18.8 8.8 -14.55M4.55 -16.2Q2.5 -17.7 0 -17.8L-0.05 -17.8Q-2.5 -17.7 -4.55 -16.2Q-5.85 -15.2 -6.75 -13.8L-7.55 -12.25L-10.65 -12.25L-10.65 -10.3L-9.65 -10.3L-9.65 -6L-8 -4.2L-8 11.65L-0.1 17.95L8 11.65L8 -4.2L9.65 -6L9.65 -10.3L10.65 -10.3L10.65 -12.25L7.55 -12.25L6.75 -13.8Q5.85 -15.2 4.55 -16.2M3.3 -1.5L3.3 7.6L-3.35 7.6L-3.35 -1.5Q-3.35 -3.55 -2.35 -5Q-1.4 -6.5 0 -6.6Q1.4 -6.5 2.35 -5Q3.3 -3.55 3.3 -1.5"/>
<path style="fill:#FFFFFF;fill-opacity:1" d="M6.75 -13.8L7.55 -12.25L10.65 -12.25L10.65 -10.3L9.65 -10.3L9.65 -6L8 -4.2L8 11.65L-0.1 17.95L-8 11.65L-8 -4.2L-9.65 -6L-9.65 -10.3L-10.65 -10.3L-10.65 -12.25L-7.55 -12.25L-6.75 -13.8Q-5.85 -15.2 -4.55 -16.2Q-2.5 -17.7 -0.05 -17.8L0 -17.8Q2.5 -17.7 4.55 -16.2Q5.85 -15.2 6.75 -13.8M2.35 -5Q1.4 -6.5 0 -6.6Q-1.4 -6.5 -2.35 -5Q-3.35 -3.55 -3.35 -1.5L-3.35 7.6L3.3 7.6L3.3 -1.5Q3.3 -3.55 2.35 -5"/>
</g>
</svg>