<!--version="1.0" encoding="UTF-8"--><svg version="1.1" id="Layer_1" xmlns="http://www.w3.org/2000/svg" width="26" height="41" xml:space="preserve"><g id="PathID_103" transform="matrix(1, 0, 0, 1, 12.65, 20.1)"><path style="fill: rgb(0, 0, 0); fill-opacity: 1;" d="M8.8-14.55h3.85v6h-1v3.05L10-3.7v16.05l-10.1 7.9-9.9-7.9V-3.7l-1.65-1.8v-3.05h-1v-6h3.85q2.4-4.25 6.75-5.25v-.25L2-20.1v.3q4.4 1 6.8 5.25M4.55-16.2Q2.5-17.7 0-17.8h-.05q-2.45.1-4.5 1.6-1.3 1-2.2 2.4l-.8 1.55h-3.1v1.95h1V-6L-8-4.2v15.85l7.9 6.3 8.1-6.3V-4.2L9.65-6v-4.3h1v-1.95h-3.1l-.8-1.55q-.9-1.4-2.2-2.4M3.3-1.5v9.1h-6.65v-9.1q0-2.05 1-3.5Q-1.4-6.5 0-6.6q1.4.1 2.35 1.6.95 1.45.95 3.5"/><path style="fill: rgb(255, 255, 255); fill-opacity: 1;" d="m6.75-13.8.8 1.55h3.1v1.95h-1V-6L8-4.2v15.85l-8.1 6.3-7.9-6.3V-4.2L-9.65-6v-4.3h-1v-1.95h3.1l.8-1.55q.9-1.4 2.2-2.4 2.05-1.5 4.5-1.6H0q2.5.1 4.55 1.6 1.3 1 2.2 2.4M2.35-5Q1.4-6.5 0-6.6q-1.4.1-2.35 1.6-1 1.45-1 3.5v9.1H3.3v-9.1q0-2.05-.95-3.5"/></g></svg>