<?xml version="1.0" encoding="UTF-8"?>
<svg version="1.1" id="Layer_1" xmlns="http://www.w3.org/2000/svg" xmlns:xlink="http://www.w3.org/1999/xlink" width="27px" height="42px" xml:space="preserve">
<g id="PathID_15" transform="matrix(1, 0, 0, 1, 13, 21)">
<path style="fill:#FFFFFF;fill-opacity:1" d="M10.85 -17.7L10.9 -17.6L11 -17.45L11 -17.3L11.05 -17.25L11.05 -17.15L11.1 -17.1Q11.6 -15.35 11.4 -12.95L11.35 -12.65L13.05 -12.65L13.05 2.3Q13.05 5.9 10.7 10.5Q9.6 12.7 8.15 14.55Q5.3 18.25 1 20.7L0.7 21L-0.6 21L-0.9 20.7Q-5.15 18.25 -8.05 14.55L-10.65 10.5Q-13 5.9 -13 2.3L-13 -12.65L-11.3 -12.65L-11.3 -13Q-11.5 -15.3 -11 -17.1L-11 -17.15L-10.95 -17.2L-10.95 -17.3L-10.9 -17.35L-10.8 -17.7L-10.55 -18.05Q-8.55 -20.6 -6.15 -20.6Q-4.35 -20.6 -3.4 -19.2L-1.4 -19.75L-1.25 -19.75L-0.05 -19.5L1.6 -19.75L3.35 -19.45Q4.15 -21 6 -21Q7.35 -21 8.75 -20Q9.95 -19.1 10.75 -17.85L10.85 -17.7M6 -19.45Q5.05 -19.45 4.65 -18.65Q4.3 -17.95 4.65 -17.1Q2.9 -18.25 1.6 -18.25Q0.55 -18.25 -0.1 -17.75Q-0.55 -18.2 -1.3 -18.2L-1.35 -18.25L-1.4 -18.25Q-2.2 -18.25 -4.5 -16.9Q-4.25 -17.5 -4.5 -18.05Q-4.9 -19.1 -6.15 -19.1Q-7.75 -19.1 -9.35 -17.1L-9.45 -16.95L-9.5 -16.8L-9.5 -16.7L-9.55 -16.7Q-10 -15.05 -9.8 -13.1L-9.75 -12.85L-9.75 -12.6L-9.55 -11.45L-9.7 -11.45L-10.55 -11.1L-11.45 -11.1L-11.45 2.3Q-11.45 5.6 -9.15 10Q-7.85 12.5 -6.05 14.55Q-3.5 17.5 0.05 19.45Q3.6 17.5 6.15 14.55Q7.95 12.5 9.25 10Q11.55 5.6 11.55 2.3L11.55 -11.1L10.65 -11.1L9.8 -11.45L9.65 -11.45L9.85 -12.6L9.85 -13.1Q10.05 -15.2 9.6 -16.7L9.6 -16.8L9.55 -16.9L9.45 -17L7.9 -18.65Q6.85 -19.45 6 -19.45M0.45 -16.35Q0.55 -16.9 1.6 -16.9Q2.7 -16.9 4.6 -15.6L6.45 -14L6.8 -13.65L6.9 -14.05L6.8 -15.5Q4.8 -18.25 6.05 -18.15Q7.35 -18.05 8.5 -16.2Q8.85 -15.05 8.75 -13L8.7 -12.55L8 -9.45Q8.2 -9.25 8.75 -9.45L9 -9.7Q9.55 -10.1 9.7 -10.1L10.05 -9.9Q10.3 -9.3 9.8 -8.55Q9.05 -7.3 7.95 -6.8Q6.35 -6.15 4.7 -4.25L3.35 -2.45L3.1 -1.95L3 -1.35L3.55 -2.05L4.15 -3.2Q5 -4.25 6.3 -4.8L8 -5.5L9 -6L9.95 -5.8L10 -4.7L9.8 -3.65Q9.55 -2.2 8.95 -1.45L7.15 0.4L6.3 1.1Q5.95 1.5 5.9 2L5.85 4.05Q5.85 5.25 5.45 5.95L4.15 8.3Q3.35 9.6 3.3 10.05Q3.15 11.35 3.3 12.65L3.35 13.15L3.3 13.65L2.3 14.55L1.7 14.8L1.25 14.9L0.05 15.1L-1.15 14.9L-1.65 14.8L-2.2 14.55L-3.2 13.65L-3.25 13.15L-3.2 12.65L-3.2 10.05Q-3.25 9.65 -3.55 9.15L-4.05 8.3L-5.35 5.95Q-5.75 5.2 -5.8 4.05L-5.8 2Q-5.85 1.5 -6.25 1.1L-7.05 0.4Q-8.15 -0.45 -8.85 -1.45Q-9.55 -2.35 -9.7 -3.65L-9.9 -4.7L-9.9 -5.8L-8.9 -6L-7.9 -5.5L-6.2 -4.8Q-4.95 -4.25 -4.05 -3.2L-3.45 -2.05L-2.9 -1.35Q-2.75 -1.65 -3.3 -2.45Q-5.3 -5.75 -7.85 -6.8Q-8.9 -7.25 -9.7 -8.55Q-10.25 -9.4 -9.95 -9.9L-9.65 -10.1L-9.6 -10.1L-8.95 -9.7L-8.65 -9.45L-8.25 -9.4L-7.9 -9.45L-8.6 -12.55L-8.65 -13Q-8.85 -14.8 -8.45 -16.2L-8.4 -16.2Q-7.1 -17.9 -6.05 -17.75Q-4.9 -17.6 -5.85 -16.75L-6.75 -15.5L-6.8 -14.05L-6.7 -13.65L-6.4 -14Q-6.15 -14.35 -4.1 -15.6Q-1.95 -16.95 -1.35 -16.9Q-0.5 -16.85 -0.55 -15.8L-1.8 -14.75Q-0.7 -14.55 0.05 -13.7L0.1 -13.7L1.1 -14.2L2.05 -14.65L0.55 -15.85L0.45 -16.35M3.3 -13.55L2.05 -13.05L1.45 -12.3L3.9 -8.95L4.35 -8.2Q4.75 -7.65 5.05 -7.8Q5.8 -8.05 6 -9.7L6 -9.75Q6.1 -10.7 5.3 -12.25L4.4 -13.1Q3.65 -13.6 3.3 -13.55M3.3 -12.6L4.3 -11.85L4.65 -11.1L4 -11.1L3 -12.5L3.3 -12.6M0.3 -10.65L-2.4 -6.6L-2.3 -5.45L-1.75 -3.65L-0.85 -2.15Q-0.3 -1.5 0.05 -1.4Q0.8 -1.6 1.85 -3.6Q2.95 -5.7 2.5 -6.65L1.95 -7.8L0.3 -10.65M7.35 -3.8L6.25 -2.95L4.75 -1.3L4.5 0.1L4.8 -0.15L6.15 -0.6Q7.55 -0.8 7.7 -1.9Q7.15 -0.9 6.4 -1.65Q5.95 -2.1 7 -3.25L8.2 -4.25L7.35 -3.8M4.65 2.2L4.25 2.65L3.25 3.55L2.45 4.75L2.7 5.15L3.45 5.65L4.2 5.45Q4.55 5.15 4.75 3.65L4.8 2.05L4.75 1.95L4.65 2.2M0.05 11.65Q-1 11.65 -1.7 12.1Q-2.45 12.5 -2.45 13.1L-2.35 13.5Q-2.15 13.15 -1.45 13.15L0.05 13.2L1.6 13.15Q2.3 13.15 2.5 13.5L2.6 13.1Q2.6 12.5 1.85 12.1Q1.1 11.65 0.05 11.65M-3.25 -13.55L-4.35 -13.05L-5.2 -12.25Q-6.05 -10.65 -5.95 -9.75L-5.9 -9.7Q-5.7 -8.05 -5 -7.8L-4.9 -7.8L-4.25 -8.2L-1.15 -12.3L-1.95 -13.05Q-2.5 -13.45 -3.2 -13.55L-3.25 -13.55M-2.7 -12.35L-3.6 -11.1L-4.55 -11.1L-4.2 -11.85L-3.2 -12.6Q-2.85 -12.55 -2.75 -12.35L-2.7 -12.35M-6.1 -0.6Q-4.7 -0.35 -4.45 0.1L-4.7 -1.3L-6.15 -2.95L-7.3 -3.8L-8.15 -4.25L-6.95 -3.25Q-5.9 -2.1 -6.35 -1.65Q-7.05 -0.9 -7.65 -1.9L-7.4 -1.3Q-6.95 -0.7 -6.1 -0.6M-4.6 2.2L-4.65 1.95L-4.7 2.05L-4.65 3.65Q-4.45 5.15 -4.1 5.45L-3.35 5.65Q-2.7 5.55 -2.4 4.75L-3.2 3.55L-4.15 2.65L-4.6 2.2"/>
<path style="fill:#000000;fill-opacity:1" d="M7.9 -18.65L9.45 -17L9.55 -16.9L9.6 -16.8L9.6 -16.7Q10.05 -15.2 9.85 -13.1L9.85 -12.6L9.65 -11.45L9.8 -11.45L10.65 -11.1L11.55 -11.1L11.55 2.3Q11.55 5.6 9.25 10Q7.95 12.5 6.15 14.55Q3.6 17.5 0.05 19.45Q-3.5 17.5 -6.05 14.55Q-7.85 12.5 -9.15 10Q-11.45 5.6 -11.45 2.3L-11.45 -11.1L-10.55 -11.1L-9.7 -11.45L-9.55 -11.45L-9.75 -12.6L-9.75 -12.85L-9.8 -13.1Q-10 -15.05 -9.55 -16.7L-9.5 -16.7L-9.5 -16.8L-9.45 -16.95L-9.35 -17.1Q-7.75 -19.1 -6.15 -19.1Q-4.9 -19.1 -4.5 -18.05Q-4.25 -17.5 -4.5 -16.9Q-2.2 -18.25 -1.4 -18.25L-1.35 -18.25L-1.3 -18.2Q-0.55 -18.2 -0.1 -17.75Q0.55 -18.25 1.6 -18.25Q2.9 -18.25 4.65 -17.1Q4.3 -17.95 4.65 -18.65Q5.05 -19.45 6 -19.45Q6.85 -19.45 7.9 -18.65M0.55 -15.85L2.05 -14.65L1.1 -14.2L0.1 -13.7L0.05 -13.7Q-0.7 -14.55 -1.8 -14.75L-0.55 -15.8Q-0.5 -16.85 -1.35 -16.9Q-1.95 -16.95 -4.1 -15.6Q-6.15 -14.35 -6.4 -14L-6.7 -13.65L-6.8 -14.05L-6.75 -15.5L-5.85 -16.75Q-4.9 -17.6 -6.05 -17.75Q-7.1 -17.9 -8.4 -16.2L-8.45 -16.2Q-8.85 -14.8 -8.65 -13L-8.6 -12.55L-7.9 -9.45L-8.25 -9.4L-8.65 -9.45L-8.95 -9.7L-9.6 -10.1L-9.65 -10.1L-9.95 -9.9Q-10.25 -9.4 -9.7 -8.55Q-8.9 -7.25 -7.85 -6.8Q-5.3 -5.75 -3.3 -2.45Q-2.75 -1.65 -2.9 -1.35L-3.45 -2.05L-4.05 -3.2Q-4.95 -4.25 -6.2 -4.8L-7.9 -5.5L-8.9 -6L-9.9 -5.8L-9.9 -4.7L-9.7 -3.65Q-9.55 -2.35 -8.85 -1.45Q-8.15 -0.45 -7.05 0.4L-6.25 1.1Q-5.85 1.5 -5.8 2L-5.8 4.05Q-5.75 5.2 -5.35 5.95L-4.05 8.3L-3.55 9.15Q-3.25 9.65 -3.2 10.05L-3.2 12.65L-3.25 13.15L-3.2 13.65L-2.2 14.55L-1.65 14.8L-1.15 14.9L0.05 15.1L1.25 14.9L1.7 14.8L2.3 14.55L3.3 13.65L3.35 13.15L3.3 12.65Q3.15 11.35 3.3 10.05Q3.35 9.6 4.15 8.3L5.45 5.95Q5.85 5.25 5.85 4.05L5.9 2Q5.95 1.5 6.3 1.1L7.15 0.4L8.95 -1.45Q9.55 -2.2 9.8 -3.65L10 -4.7L9.95 -5.8L9 -6L8 -5.5L6.3 -4.8Q5 -4.25 4.15 -3.2L3.55 -2.05L3 -1.35L3.1 -1.95L3.35 -2.45L4.7 -4.25Q6.35 -6.15 7.95 -6.8Q9.05 -7.3 9.8 -8.55Q10.3 -9.3 10.05 -9.9L9.7 -10.1Q9.55 -10.1 9 -9.7L8.75 -9.45Q8.2 -9.25 8 -9.45L8.7 -12.55L8.75 -13Q8.85 -15.05 8.5 -16.2Q7.35 -18.05 6.05 -18.15Q4.8 -18.25 6.8 -15.5L6.9 -14.05L6.8 -13.65L6.45 -14L4.6 -15.6Q2.7 -16.9 1.6 -16.9Q0.55 -16.9 0.45 -16.35L0.55 -15.85M4.4 -13.1L5.3 -12.25Q6.1 -10.7 6 -9.75L6 -9.7Q5.8 -8.05 5.05 -7.8Q4.75 -7.65 4.35 -8.2L3.9 -8.95L1.45 -12.3L2.05 -13.05L3.3 -13.55Q3.65 -13.6 4.4 -13.1M3 -12.5L4 -11.1L4.65 -11.1L4.3 -11.85L3.3 -12.6L3 -12.5M1.95 -7.8L2.5 -6.65Q2.95 -5.7 1.85 -3.6Q0.8 -1.6 0.05 -1.4Q-0.3 -1.5 -0.85 -2.15L-1.75 -3.65L-2.3 -5.45L-2.4 -6.6L0.3 -10.65L1.95 -7.8M8.2 -4.25L7 -3.25Q5.95 -2.1 6.4 -1.65Q7.15 -0.9 7.7 -1.9Q7.55 -0.8 6.15 -0.6L4.8 -0.15L4.5 0.1L4.75 -1.3L6.25 -2.95L7.35 -3.8L8.2 -4.25M4.75 1.95L4.8 2.05L4.75 3.65Q4.55 5.15 4.2 5.45L3.45 5.65L2.7 5.15L2.45 4.75L3.25 3.55L4.25 2.65L4.65 2.2L4.75 1.95M1.85 12.1Q2.6 12.5 2.6 13.1L2.5 13.5Q2.3 13.15 1.6 13.15L0.05 13.2L-1.45 13.15Q-2.15 13.15 -2.35 13.5L-2.45 13.1Q-2.45 12.5 -1.7 12.1Q-1 11.65 0.05 11.65Q1.1 11.65 1.85 12.1M-3.2 -13.55Q-2.5 -13.45 -1.95 -13.05L-1.15 -12.3L-4.25 -8.2L-4.9 -7.8L-5 -7.8Q-5.7 -8.05 -5.9 -9.7L-5.95 -9.75Q-6.05 -10.65 -5.2 -12.25L-4.35 -13.05L-3.25 -13.55L-3.2 -13.55M-2.75 -12.35Q-2.85 -12.55 -3.2 -12.6L-4.2 -11.85L-4.55 -11.1L-3.6 -11.1L-2.7 -12.35L-2.75 -12.35M-7.4 -1.3L-7.65 -1.9Q-7.05 -0.9 -6.35 -1.65Q-5.9 -2.1 -6.95 -3.25L-8.15 -4.25L-7.3 -3.8L-6.15 -2.95L-4.7 -1.3L-4.45 0.1Q-4.7 -0.35 -6.1 -0.6Q-6.95 -0.7 -7.4 -1.3M-4.15 2.65L-3.2 3.55L-2.4 4.75Q-2.7 5.55 -3.35 5.65L-4.1 5.45Q-4.45 5.15 -4.65 3.65L-4.7 2.05L-4.65 1.95L-4.6 2.2L-4.15 2.65"/>
</g>
</svg>