<!--version="1.0" encoding="UTF-8" standalone="no"--><!-- Created with Inkscape (http://www.inkscape.org/) --><svg xmlns="http://www.w3.org/2000/svg" version="1.1" width="26.05" height="42" viewBox="0 0 26.05 42" id="svg3343" style="overflow-x: visible; overflow-y: visible;"><g transform="translate(13,21)" id="g3349"><g id="g3351"><g id="g3353"><path d="m10.85-17.7.05.1.1.15v.15l.05.15c.367 1.2.483 2.6.35 4.2l-.05.3h1.7V2.3c0 2.4-.783 5.133-2.35 8.2a23.785 23.785 0 01-2.55 4.05C6.25 17.017 3.867 19.067 1 20.7l-.3.3H-.6l-.3-.3c-2.833-1.633-5.217-3.683-7.15-6.15l-2.6-4.05C-12.217 7.433-13 4.7-13 2.3v-14.95h1.7V-13c-.133-1.533-.033-2.9.3-4.1l.05-.1v-.1l.15-.4.25-.35c1.333-1.7 2.8-2.55 4.4-2.55 1.2 0 2.117.467 2.75 1.4l2-.55h.15l1.2.25 1.65-.25 1.75.3C3.883-20.483 4.767-21 6-21c.9 0 1.817.333 2.75 1a8.18 8.18 0 012 2.15l.1.15zm-21.8.4.05-.05zm-.05.2v-.05zm22.05-.05.05.05zM11-17.3l.05.05zm-5-2.15c-.633 0-1.083.267-1.35.8-.233.467-.233.983 0 1.55-1.167-.767-2.183-1.15-3.05-1.15-.7 0-1.267.167-1.7.5-.3-.3-.7-.45-1.2-.45l-.05-.05c-.567 0-1.617.45-3.15 1.35.167-.4.167-.783 0-1.15-.267-.7-.817-1.05-1.65-1.05-1.067 0-2.133.667-3.2 2l-.1.15-.05.15v.1c-.333 1.1-.433 2.3-.3 3.6l.05.25v.25l.2 1.15h-.15l-.85.35h-.9V2.3c0 2.2.767 4.767 2.3 7.7a22.82 22.82 0 003.1 4.55c1.7 1.967 3.733 3.6 6.1 4.9 2.367-1.3 4.4-2.933 6.1-4.9A22.82 22.82 0 009.25 10c1.533-2.933 2.3-5.5 2.3-7.7v-13.4h-.9l-.85-.35h-.15l.2-1.15v-.5c.133-1.4.05-2.6-.25-3.6v-.1l-.05-.1-.1-.1-1.55-1.65c-.7-.533-1.333-.8-1.9-.8zm-7.35 1.2h-.05zM-9.5-16.7h-.05zm11.55 2.05-1.5-1.2-.1-.5c.067-.367.45-.55 1.15-.55.733 0 1.733.433 3 1.3L6.45-14l.35.35.1-.4-.1-1.45c-1.333-1.833-1.583-2.717-.75-2.65.867.067 1.683.717 2.45 1.95.233.767.317 1.833.25 3.2l-.05.45-.7 3.1c.133.133.383.133.75 0L9-9.7c.367-.267.6-.4.7-.4l.35.2c.167.4.083.85-.25 1.35-.5.833-1.117 1.417-1.85 1.75-1.067.433-2.15 1.283-3.25 2.55l-1.35 1.8-.25.5-.1.6.55-.7.6-1.15A5.445 5.445 0 016.3-4.8L8-5.5 9-6l.95.2.05 1.1-.2 1.05c-.167.967-.45 1.7-.85 2.2L7.15.4l-.85.7a1.58 1.58 0 00-.4.9l-.05 2.05c0 .8-.133 1.433-.4 1.9L4.15 8.3c-.533.867-.817 1.45-.85 1.75-.1.867-.1 1.733 0 2.6l.05.5-.05.5-1 .9-.6.25-.45.1-1.2.2-1.2-.2-.5-.1-.55-.25-1-.9-.05-.5.05-.5v-2.6c-.033-.267-.15-.567-.35-.9l-.5-.85-1.3-2.35c-.267-.5-.417-1.133-.45-1.9V2c-.033-.333-.183-.633-.45-.9l-.8-.7c-.733-.567-1.333-1.183-1.8-1.85-.467-.6-.75-1.333-.85-2.2l-.2-1.05v-1.1l1-.2 1 .5 1.7.7c.833.367 1.55.9 2.15 1.6l.6 1.15.55.7c.1-.2-.033-.567-.4-1.1-1.333-2.2-2.85-3.65-4.55-4.35-.7-.3-1.317-.883-1.85-1.75-.367-.567-.45-1.017-.25-1.35l.3-.2.7.4.3.25.4.05.35-.05-.7-3.1-.05-.45c-.133-1.2-.067-2.267.2-3.2.9-1.133 1.7-1.65 2.4-1.55.767.1.833.433.2 1l-.9 1.25-.05 1.45.1.4.3-.35c.167-.233.933-.767 2.3-1.6 1.433-.9 2.35-1.333 2.75-1.3.567.033.833.4.8 1.1l-1.25 1.05c.733.133 1.35.483 1.85 1.05l1.05-.5.95-.45zm-2 .95H.1zm-8.5-2.5h.05zm-1.2 6.1h.05zM5.3-12.25l-.9-.85c-.5-.333-.867-.483-1.1-.45l-1.25.5-.6.75L3.9-8.95l.45.75c.267.367.5.5.7.4.5-.167.817-.8.95-1.9.067-.667-.167-1.517-.7-2.55zM6-9.7v-.05zM2.5-6.65 1.95-7.8.3-10.65-2.4-6.6l.1 1.15.55 1.8.9 1.5c.367.433.667.683.9.75.5-.133 1.1-.867 1.8-2.2.733-1.4.95-2.417.65-3.05zM7.7-1.9c-.367.667-.8.75-1.3.25-.3-.3-.1-.833.6-1.6l1.2-1-.85.45-1.1.85-1.5 1.65L4.5.1l.3-.25L6.15-.6c.933-.133 1.45-.567 1.55-1.3zM4.75 1.95l-.1.25-.4.45-1 .9-.8 1.2.25.4.75.5.75-.2c.233-.2.417-.8.55-1.8l.05-1.6-.05-.1zM2.6 13.1c0-.4-.25-.733-.75-1-.5-.3-1.1-.45-1.8-.45-.7 0-1.283.15-1.75.45-.5.267-.75.6-.75 1l.1.4c.133-.233.433-.35.9-.35l1.5.05 1.55-.05c.467 0 .767.117.9.35l.1-.4zm-3.75-25.4-.8-.75a2.753 2.753 0 00-1.25-.5l-1.15.5-.85.8c-.567 1.067-.817 1.9-.75 2.5.167 1.133.483 1.783.95 1.95h.1l.65-.4 3.1-4.1zm-4.8 2.55.05.05zm2.75-3.8h-.05zM-7.65-1.9l.25.6c.3.4.733.633 1.3.7.933.167 1.483.4 1.65.7l-.25-1.4-1.45-1.65-1.15-.85-.85-.45 1.2 1c.7.767.9 1.3.6 1.6-.467.5-.9.417-1.3-.25zm3.05 4.1-.05-.25-.05.1.05 1.6c.133 1 .317 1.6.55 1.8l.75.2c.433-.067.75-.367.95-.9l-.8-1.2-.95-.9-.45-.45z" id="path3355" style="fill: rgb(0, 0, 0); stroke-linecap: round; stroke-linejoin: round;"/><path d="M4.65-18.65c.267-.533.717-.8 1.35-.8.567 0 1.2.267 1.9.8L9.45-17l.1.1.05.1v.1c.3 1 .383 2.2.25 3.6v.5l-.2 1.15h.15l.85.35h.9V2.3c0 2.2-.767 4.767-2.3 7.7a22.82 22.82 0 01-3.1 4.55c-1.7 1.967-3.733 3.6-6.1 4.9-2.367-1.3-4.4-2.933-6.1-4.9A22.82 22.82 0 01-9.15 10c-1.533-2.933-2.3-5.5-2.3-7.7v-13.4h.9l.85-.35h.15l-.2-1.15v-.25l-.05-.25c-.133-1.3-.05-2.5.25-3.6l.05-.1.05-.15.1-.15c1.067-1.333 2.133-2 3.2-2 .833 0 1.383.35 1.65 1.05.167.367.167.75 0 1.15 1.533-.9 2.567-1.35 3.1-1.35l.1.05c.5 0 .9.15 1.2.45.433-.333 1-.5 1.7-.5.867 0 1.883.383 3.05 1.15-.233-.567-.233-1.083 0-1.55zm-6.05.4h.05zm-8.15 1.55h.05zm10.1.85 1.5 1.2-.95.45-1 .5a3.39 3.39 0 00-1.9-1.05l1.25-1.05c.033-.7-.233-1.067-.8-1.1-.4-.033-1.317.4-2.75 1.3-1.367.833-2.133 1.367-2.3 1.6l-.3.35-.1-.4.05-1.45.9-1.25c.633-.567.567-.9-.2-1-.7-.1-1.483.417-2.35 1.55-.3.933-.383 2-.25 3.2l.05.45.7 3.1-.35.05-.4-.05-.3-.25-.65-.4-.35.2c-.2.333-.117.783.25 1.35.533.867 1.15 1.45 1.85 1.75 1.7.7 3.217 2.15 4.55 4.35.367.533.5.9.4 1.1l-.55-.7-.6-1.15A5.963 5.963 0 00-6.2-4.8l-1.7-.7-1-.5-1 .2v1.1l.2 1.05c.1.867.383 1.6.85 2.2.467.667 1.067 1.283 1.8 1.85l.8.7c.267.267.417.567.45.9v2.05c.033.767.183 1.4.45 1.9l1.3 2.35.5.85c.2.333.317.633.35.9v2.6l-.05.5.05.5 1 .9.55.25.5.1 1.2.2 1.2-.2.45-.1.6-.25 1-.9.05-.5-.05-.5c-.1-.867-.1-1.733 0-2.6.033-.3.317-.883.85-1.75l1.3-2.35c.267-.467.4-1.1.4-1.9L5.9 2a1.58 1.58 0 01.4-.9l.85-.7 1.8-1.85c.4-.5.683-1.233.85-2.2L10-4.7l-.05-1.1L9-6l-1 .5-1.7.7c-.867.367-1.583.9-2.15 1.6l-.6 1.15-.55.7.1-.6.25-.5 1.35-1.8C5.8-5.517 6.883-6.367 7.95-6.8c.733-.333 1.35-.917 1.85-1.75.333-.5.417-.95.25-1.35l-.35-.2c-.1 0-.333.133-.7.4l-.25.25c-.367.133-.617.133-.75 0l.7-3.1.05-.45c.067-1.367-.017-2.433-.25-3.2-.767-1.233-1.583-1.883-2.45-1.95-.833-.067-.583.817.75 2.65l.1 1.45-.1.4-.35-.35-1.85-1.6c-1.267-.867-2.267-1.3-3-1.3-.7 0-1.083.183-1.15.55l.1.5zM.1-13.7H.05zm-8.5-2.5h-.05zm-1.2 6.1h-.05zm14-3 .9.85c.533 1.033.767 1.867.7 2.5-.133 1.133-.45 1.783-.95 1.95-.2.1-.433-.033-.7-.4l-.45-.75-2.45-3.35.6-.75 1.25-.5c.233-.033.6.117 1.1.45zM6-9.75v.05zM1.95-7.8l.55 1.15c.3.633.083 1.65-.65 3.05-.7 1.333-1.3 2.067-1.8 2.2-.233-.067-.533-.317-.9-.75l-.9-1.5-.55-1.8-.1-1.15 2.7-4.05L1.95-7.8zM6.4-1.65c.5.5.933.417 1.3-.25-.1.733-.617 1.167-1.55 1.3L4.8-.15 4.5.1l.25-1.4 1.5-1.65 1.1-.85.85-.45-1.2 1c-.7.767-.9 1.3-.6 1.6zM4.65 2.2l.1-.25.05.1-.05 1.6c-.133 1-.317 1.6-.55 1.8l-.75.2-.75-.5-.25-.4.8-1.2 1-.9.4-.45zm-2.8 9.9c.5.267.75.6.75 1l-.1.4c-.133-.233-.433-.35-.9-.35l-1.55.05-1.5-.05c-.467 0-.767.117-.9.35l-.1-.4c0-.4.25-.733.75-1 .467-.3 1.05-.45 1.75-.45.7 0 1.3.15 1.8.45zm-3.8-25.15.8.75-3.1 4.1-.65.4H-5c-.467-.167-.767-.8-.9-1.9-.1-.633.133-1.483.7-2.55l.85-.8 1.1-.5a2.8 2.8 0 011.3.5zM-5.9-9.7l-.05-.05zm2.65-3.85h.05zM-7.4-1.3l-.25-.6c.4.667.833.75 1.3.25.3-.3.1-.833-.6-1.6l-1.2-1 .85.45 1.15.85L-4.7-1.3l.25 1.4c-.167-.3-.717-.533-1.65-.7-.567-.067-1-.3-1.3-.7zm2.75 3.25.05.25.45.45.95.9.8 1.2c-.2.533-.517.833-.95.9l-.75-.2c-.233-.2-.417-.8-.55-1.8l-.05-1.6.05-.1z" id="path3357" style="fill: rgb(255, 255, 255); stroke-linecap: round; stroke-linejoin: round;"/></g></g></g></svg>