<?xml version="1.0" encoding="UTF-8" standalone="no"?>
<!-- Created with Inkscape (http://www.inkscape.org/) -->

<svg
   xmlns:dc="http://purl.org/dc/elements/1.1/"
   xmlns:cc="http://creativecommons.org/ns#"
   xmlns:rdf="http://www.w3.org/1999/02/22-rdf-syntax-ns#"
   xmlns:svg="http://www.w3.org/2000/svg"
   xmlns="http://www.w3.org/2000/svg"
   version="1.1"
   width="26.049999"
   height="42"
   viewBox="0 0 26.049999 42"
   id="svg3343"
   style="overflow:visible">
  <metadata
     id="metadata3361">
    <rdf:RDF>
      <cc:Work
         rdf:about="">
        <dc:format>image/svg+xml</dc:format>
        <dc:type
           rdf:resource="http://purl.org/dc/dcmitype/StillImage" />
        <dc:title></dc:title>
      </cc:Work>
    </rdf:RDF>
  </metadata>
  <defs
     id="defs3345" />
  <g
     transform="translate(13,21)"
     id="g3349">
    <g
       id="g3351">
      <g
         id="g3353">
        <path
           d="m 10.85,-17.7 0.05,0.1 0.1,0.15 0,0.15 0.05,0.15 c 0.366667,1.2 0.483334,2.6 0.35,4.2 l -0.05,0.3 1.7,0 0,14.95 c 0,2.4 -0.783334,5.1333334 -2.35,8.2 C 9.966667,11.966666 9.116667,13.316667 8.15,14.55 6.25,17.016666 3.8666668,19.066666 1,20.7 L 0.7,21 -0.6,21 -0.9,20.7 c -2.8333336,-1.633332 -5.216667,-3.683334 -7.15,-6.15 l -2.6,-4.05 C -12.216666,7.4333334 -13,4.7 -13,2.3 l 0,-14.95 1.7,0 0,-0.35 c -0.133333,-1.533334 -0.03333,-2.900001 0.3,-4.1 l 0.05,-0.1 0,-0.1 0.15,-0.4 0.25,-0.35 c 1.333333,-1.7 2.7999995,-2.55 4.4,-2.55 1.2,0 2.1166667,0.466667 2.75,1.4 l 2,-0.55 0.15,0 1.2,0.25 1.65,-0.25 1.75,0.3 C 3.8833334,-20.483334 4.766667,-21 6,-21 c 0.9,0 1.8166666,0.333334 2.75,1 0.8,0.6 1.466667,1.316668 2,2.15 l 0.1,0.15 z m -21.8,0.4 0.05,-0.05 z m -0.05,0.2 0,-0.05 z m 22.05,-0.05 0.05,0.05 z M 11,-17.3 l 0.05,0.05 z m -5,-2.15 c -0.633333,0 -1.083333,0.266666 -1.35,0.8 -0.233333,0.466666 -0.233333,0.983332 0,1.55 -1.1666667,-0.766667 -2.1833333,-1.15 -3.05,-1.15 -0.69999996,0 -1.2666667,0.166666 -1.7,0.5 -0.3,-0.300001 -0.69999995,-0.45 -1.2,-0.45 l -0.05,-0.05 c -0.5666667,0 -1.6166667,0.45 -3.15,1.35 0.1666665,-0.4 0.1666665,-0.783332 0,-1.15 -0.266667,-0.7 -0.816667,-1.05 -1.65,-1.05 -1.0666667,0 -2.133334,0.666666 -3.2,2 l -0.1,0.15 -0.05,0.15 0,0.1 c -0.333333,1.1 -0.433333,2.299999 -0.3,3.6 l 0.05,0.25 0,0.25 0.2,1.15 -0.15,0 -0.85,0.35 -0.9,0 0,13.4 c 0,2.2 0.766667,4.7666666 2.3,7.7 0.866667,1.666667 1.9000005,3.183333 3.1,4.55 1.7,1.966666 3.7333336,3.6 6.1,4.9 2.3666667,-1.3 4.4,-2.933334 6.1,-4.9 1.2,-1.366667 2.233333,-2.883333 3.1,-4.55 1.533334,-2.9333334 2.3,-5.5 2.3,-7.7 l 0,-13.4 -0.9,0 -0.85,-0.35 -0.15,0 0.2,-1.15 0,-0.5 c 0.133334,-1.4 0.050001,-2.6 -0.25,-3.6 l 0,-0.1 -0.05,-0.1 -0.1,-0.1 -1.55,-1.65 c -0.7,-0.533334 -1.3333334,-0.8 -1.9,-0.8 z m -7.35,1.2 -0.05,0 z m -8.15,1.55 -0.05,0 z m 11.55,2.05 -1.5,-1.2 -0.1,-0.5 c 0.0666666,-0.366667 0.45000004,-0.55 1.15,-0.55 0.7333335,0 1.7333335,0.433333 3,1.3 l 1.85,1.6 0.35,0.35 0.1,-0.4 -0.1,-1.45 c -1.3333333,-1.833334 -1.5833333,-2.716667 -0.75,-2.65 0.8666665,0.06667 1.683333,0.716668 2.45,1.95 0.233334,0.766667 0.316667,1.833333 0.25,3.2 L 8.7,-12.55 8,-9.45 c 0.133333,0.133333 0.383333,0.133333 0.75,0 L 9,-9.7 c 0.366667,-0.266667 0.6,-0.4 0.7,-0.4 l 0.35,0.2 c 0.166667,0.4 0.08333,0.85 -0.25,1.35 -0.5,0.8333333 -1.116667,1.416667 -1.85,1.75 -1.066667,0.433333 -2.1500003,1.283333 -3.25,2.55 l -1.35,1.8 -0.25,0.5 -0.1,0.6 0.55,-0.7 0.6,-1.15 C 4.7166667,-3.9 5.4333334,-4.4333334 6.3,-4.8 L 8,-5.5 9,-6 9.95,-5.8 10,-4.7 9.8,-3.65 c -0.166667,0.9666666 -0.450001,1.7 -0.85,2.2 L 7.15,0.4 6.3,1.1 C 6.0666666,1.3666667 5.9333334,1.6666667 5.9,2 L 5.85,4.05 c 0,0.8 -0.1333333,1.433333 -0.4,1.9 L 4.15,8.3 C 3.6166666,9.166667 3.3333333,9.75 3.3,10.05 c -0.1,0.866667 -0.1,1.733334 0,2.6 l 0.05,0.5 -0.05,0.5 -1,0.9 -0.6,0.25 -0.45,0.1 -1.2,0.2 -1.2,-0.2 -0.5,-0.1 -0.55,-0.25 -1,-0.9 -0.05,-0.5 0.05,-0.5 0,-2.6 C -3.2333333,9.783333 -3.35,9.483333 -3.55,9.15 L -4.05,8.3 -5.35,5.95 C -5.616667,5.45 -5.766667,4.8166666 -5.8,4.05 L -5.8,2 C -5.8333335,1.6666666 -5.9833336,1.3666666 -6.25,1.1 l -0.8,-0.7 c -0.7333333,-0.56666672 -1.333333,-1.1833334 -1.8,-1.85 -0.466667,-0.6 -0.749999,-1.3333333 -0.85,-2.2 l -0.2,-1.05 0,-1.1 1,-0.2 1,0.5 1.7,0.7 c 0.8333337,0.3666666 1.5500004,0.9 2.15,1.6 l 0.6,1.15 0.55,0.7 c 0.1,-0.2 -0.033333,-0.5666666 -0.4,-1.1 -1.333333,-2.2 -2.85,-3.6500004 -4.55,-4.35 -0.699999,-0.3 -1.316666,-0.8833334 -1.85,-1.75 -0.366667,-0.566667 -0.45,-1.016667 -0.25,-1.35 l 0.3,-0.2 0.7,0.4 0.3,0.25 0.4,0.05 0.35,-0.05 -0.7,-3.1 -0.05,-0.45 c -0.133334,-1.2 -0.066667,-2.266666 0.2,-3.2 0.9000003,-1.133334 1.7,-1.65 2.4,-1.55 0.7666667,0.1 0.8333333,0.433334 0.2,1 l -0.9,1.25 -0.05,1.45 0.1,0.4 0.3,-0.35 c 0.1666664,-0.233334 0.9333333,-0.766667 2.3,-1.6 1.4333335,-0.9 2.3500002,-1.333332 2.75,-1.3 0.5666667,0.03333 0.83333335,0.4 0.8,1.1 l -1.25,1.05 c 0.7333334,0.133333 1.35000007,0.483334 1.85,1.05 l 1.05,-0.5 0.95,-0.45 z m -2,0.95 0.05,0 z m -8.5,-2.5 0.05,0 z m -1.2,6.1 0.05,0 z M 5.3,-12.25 4.4,-13.1 c -0.5,-0.333333 -0.8666667,-0.483333 -1.1,-0.45 l -1.25,0.5 -0.6,0.75 2.45,3.35 0.45,0.75 c 0.266667,0.3666665 0.5000004,0.4999997 0.7,0.4 0.5,-0.1666667 0.816667,-0.8 0.95,-1.9 0.066667,-0.666667 -0.1666665,-1.516667 -0.7,-2.55 z M 6,-9.7 6,-9.75 z M 2.5,-6.65 1.95,-7.8 0.3,-10.65 l -2.7,4.05 0.1,1.15 0.55,1.8 0.9,1.5 c 0.36666665,0.4333333 0.66666666,0.6833333 0.9,0.75 0.5,-0.1333333 1.1000001,-0.8666667 1.8,-2.2 C 2.5833335,-5 2.8000002,-6.016667 2.5,-6.65 z M 7.7,-1.9 C 7.3333335,-1.2333333 6.9,-1.15 6.4,-1.65 6.1,-1.9499999 6.2999997,-2.4833333 7,-3.25 l 1.2,-1 L 7.35,-3.8 6.25,-2.95 4.75,-1.3 4.5,0.1 4.8,-0.15 6.15,-0.6 C 7.0833335,-0.73333335 7.6,-1.1666667 7.7,-1.9 z m -2.95,3.85 -0.1,0.25 -0.4,0.45 -1,0.9 -0.8,1.2 0.25,0.4 0.75,0.5 0.75,-0.2 C 4.4333334,5.25 4.616667,4.65 4.75,3.65 L 4.8,2.05 4.75,1.95 z M 2.6,13.1 c 0,-0.4 -0.25,-0.733333 -0.75,-1 -0.5,-0.3 -1.1,-0.45 -1.8,-0.45 -0.7,0 -1.2833333,0.15 -1.75,0.45 -0.5,0.266667 -0.75,0.6 -0.75,1 l 0.1,0.4 c 0.1333333,-0.233334 0.4333333,-0.35 0.9,-0.35 l 1.5,0.05 1.55,-0.05 c 0.4666666,0 0.7666666,0.116666 0.9,0.35 l 0.1,-0.4 z m -3.75,-25.4 -0.8,-0.75 c -0.3666666,-0.266667 -0.7833333,-0.433334 -1.25,-0.5 l -1.15,0.5 -0.85,0.8 c -0.566667,1.066667 -0.816667,1.9 -0.75,2.5 0.1666667,1.133333 0.4833333,1.7833333 0.95,1.95 l 0.1,0 0.65,-0.4 3.1,-4.1 z m -4.8,2.55 0.05,0.05 z m 2.75,-3.8 -0.05,0 z m -4.45,11.65 0.25,0.6 c 0.3,0.4 0.7333335,0.6333334 1.3,0.7 0.9333335,0.16666666 1.4833337,0.40000001 1.65,0.7 L -4.7,-1.3 -6.15,-2.95 -7.3,-3.8 l -0.85,-0.45 1.2,1 c 0.7,0.766667 0.9,1.3000002 0.6,1.6 -0.4666666,0.5 -0.9,0.4166667 -1.3,-0.25 z m 3.05,4.1 -0.05,-0.25 -0.05,0.1 0.05,1.6 c 0.1333336,1 0.316667,1.6 0.55,1.8 l 0.75,0.2 C -2.9166667,5.583333 -2.6000001,5.2833333 -2.4,4.75 L -3.2,3.55 -4.15,2.65 -4.6,2.2 z"
           id="path3355"
           style="fill:#000000;stroke-linecap:round;stroke-linejoin:round" />
        <path
           d="m 4.65,-18.65 c 0.266667,-0.533334 0.716667,-0.8 1.35,-0.8 0.5666666,0 1.2,0.266666 1.9,0.8 l 1.55,1.65 0.1,0.1 0.05,0.1 0,0.1 c 0.300001,1 0.383334,2.2 0.25,3.6 l 0,0.5 -0.2,1.15 0.15,0 0.85,0.35 0.9,0 0,13.4 c 0,2.2 -0.766666,4.7666666 -2.3,7.7 -0.866667,1.666667 -1.9,3.183333 -3.1,4.55 -1.7,1.966666 -3.7333335,3.6 -6.1,4.9 -2.3666668,-1.3 -4.4000004,-2.933334 -6.1,-4.9 -1.2,-1.366667 -2.233333,-2.883333 -3.1,-4.55 -1.533333,-2.9333334 -2.3,-5.5 -2.3,-7.7 l 0,-13.4 0.9,0 0.85,-0.35 0.15,0 -0.2,-1.15 0,-0.25 -0.05,-0.25 c -0.133333,-1.300001 -0.05,-2.5 0.25,-3.6 l 0.05,-0.1 0.05,-0.15 0.1,-0.15 c 1.066666,-1.333334 2.133333,-2 3.2,-2 0.8333334,0 1.3833336,0.35 1.65,1.05 0.1666665,0.366668 0.1666665,0.75 0,1.15 1.5333333,-0.9 2.5666666,-1.35 3.1,-1.35 l 0.1,0.05 c 0.50000005,0 0.90000002,0.149999 1.2,0.45 0.43333337,-0.333334 1.0000001,-0.5 1.7,-0.5 0.8666667,0 1.8833336,0.383333 3.05,1.15 -0.233333,-0.566668 -0.233333,-1.083334 0,-1.55 z m -6.05,0.4 0.05,0 z m -8.15,1.55 0.05,0 z m 10.1,0.85 1.5,1.2 -0.95,0.45 -1,0.5 c -0.53333337,-0.566666 -1.1666667,-0.916667 -1.9,-1.05 l 1.25,-1.05 c 0.0333334,-0.7 -0.2333333,-1.066667 -0.8,-1.1 -0.4,-0.03333 -1.3166667,0.399998 -2.75,1.3 -1.3666667,0.833333 -2.1333336,1.366666 -2.3,1.6 l -0.3,0.35 -0.1,-0.4 0.05,-1.45 0.9,-1.25 c 0.6333333,-0.566668 0.5666667,-0.900002 -0.2,-1 -0.7,-0.1 -1.4833333,0.416666 -2.35,1.55 -0.3,0.933333 -0.383333,1.999999 -0.25,3.2 l 0.05,0.45 0.7,3.1 -0.35,0.05 -0.4,-0.05 -0.3,-0.25 -0.65,-0.4 -0.35,0.2 c -0.2,0.333333 -0.116667,0.783333 0.25,1.35 0.533334,0.8666666 1.150001,1.45 1.85,1.75 1.7,0.7 3.216667,2.1500004 4.55,4.35 0.3666666,0.5333334 0.4999998,0.9 0.4,1.1 l -0.55,-0.7 -0.6,-1.15 c -0.6,-0.7 -1.316667,-1.2333334 -2.15,-1.6 l -1.7,-0.7 -1,-0.5 -1,0.2 0,1.1 0.2,1.05 c 0.1,0.8666667 0.383332,1.6 0.85,2.2 0.466667,0.66666664 1.0666667,1.28333331 1.8,1.85 l 0.8,0.7 c 0.266667,0.2666667 0.416667,0.5666667 0.45,0.9 l 0,2.05 c 0.033333,0.7666666 0.183333,1.4 0.45,1.9 l 1.3,2.35 0.5,0.85 c 0.2,0.333333 0.3166667,0.633333 0.35,0.9 l 0,2.6 -0.05,0.5 0.05,0.5 1,0.9 0.55,0.25 0.5,0.1 1.2,0.2 1.2,-0.2 0.45,-0.1 0.6,-0.25 1,-0.9 0.05,-0.5 -0.05,-0.5 C 3.2,11.783334 3.2,10.916667 3.3,10.05 3.3333333,9.75 3.6166666,9.166667 4.15,8.3 l 1.3,-2.35 c 0.2666667,-0.466667 0.4,-1.1 0.4,-1.9 L 5.9,2 C 5.9333334,1.6666666 6.0666666,1.3666666 6.3,1.1 l 0.85,-0.7 1.8,-1.85 c 0.4,-0.5 0.683334,-1.2333334 0.85,-2.2 L 10,-4.7 9.95,-5.8 9,-6 8,-5.5 6.3,-4.8 c -0.8666666,0.3666666 -1.5833333,0.9 -2.15,1.6 l -0.6,1.15 -0.55,0.7 0.1,-0.6 0.25,-0.5 1.35,-1.8 C 5.8,-5.516667 6.8833337,-6.366667 7.95,-6.8 8.683333,-7.1333337 9.3,-7.716667 9.8,-8.55 10.133333,-9.05 10.216666,-9.5 10.05,-9.9 L 9.7,-10.1 c -0.1,0 -0.333333,0.133333 -0.7,0.4 l -0.25,0.25 c -0.366667,0.133333 -0.616667,0.133333 -0.75,0 l 0.7,-3.1 0.05,-0.45 c 0.066667,-1.366667 -0.016666,-2.433333 -0.25,-3.2 -0.766667,-1.233332 -1.5833335,-1.883332 -2.45,-1.95 -0.8333333,-0.06667 -0.5833333,0.816666 0.75,2.65 l 0.1,1.45 -0.1,0.4 L 6.45,-14 4.6,-15.6 c -1.2666667,-0.866667 -2.2666667,-1.3 -3,-1.3 -0.69999996,0 -1.08333335,0.183333 -1.15,0.55 l 0.1,0.5 z m -0.45,2.15 -0.05,0 z m -8.5,-2.5 -0.05,0 z m -1.2,6.1 -0.05,0 z m 14,-3 0.9,0.85 c 0.5333335,1.033334 0.7666666,1.866667 0.7,2.5 -0.133333,1.133333 -0.45,1.7833333 -0.95,1.95 -0.2,0.1 -0.4333337,-0.033334 -0.7,-0.4 L 3.9,-8.95 1.45,-12.3 l 0.6,-0.75 1.25,-0.5 c 0.2333333,-0.03333 0.6,0.116666 1.1,0.45 z M 6,-9.75 6,-9.7 z M 1.95,-7.8 2.5,-6.65 c 0.3,0.6333336 0.083333,1.6500005 -0.65,3.05 -0.6999999,1.3333333 -1.2999999,2.0666667 -1.8,2.2 -0.23333335,-0.066667 -0.53333335,-0.3166667 -0.9,-0.75 l -0.9,-1.5 -0.55,-1.8 -0.1,-1.15 2.7,-4.05 1.65,2.85 z m 4.45,6.15 c 0.5,0.5 0.9333335,0.4166667 1.3,-0.25 -0.1,0.7333333 -0.6166665,1.1666666 -1.55,1.3 L 4.8,-0.15 4.5,0.1 4.75,-1.3 6.25,-2.95 7.35,-3.8 8.2,-4.25 7,-3.25 c -0.7000003,0.766667 -0.9,1.3000002 -0.6,1.6 z M 4.65,2.2 4.75,1.95 4.8,2.05 4.75,3.65 c -0.133333,1 -0.3166666,1.6 -0.55,1.8 L 3.45,5.65 2.7,5.15 2.45,4.75 l 0.8,-1.2 1,-0.9 0.4,-0.45 z m -2.8,9.9 c 0.5,0.266667 0.75,0.6 0.75,1 L 2.5,13.5 C 2.3666666,13.266666 2.0666666,13.15 1.6,13.15 l -1.55,0.05 -1.5,-0.05 c -0.4666667,0 -0.7666667,0.116666 -0.9,0.35 l -0.1,-0.4 c 0,-0.4 0.25,-0.733333 0.75,-1 0.4666667,-0.3 1.05,-0.45 1.75,-0.45 0.70000006,0 1.3000001,0.15 1.8,0.45 z m -3.8,-25.15 0.8,0.75 -3.1,4.1 -0.65,0.4 -0.1,0 c -0.4666667,-0.1666667 -0.766667,-0.8 -0.9,-1.9 -0.1,-0.633333 0.1333336,-1.483333 0.7,-2.55 l 0.85,-0.8 1.1,-0.5 c 0.5,0.06667 0.9333334,0.233333 1.3,0.5 z M -5.9,-9.7 -5.95,-9.75 z m 2.65,-3.85 0.05,0 z M -7.4,-1.3 -7.65,-1.9 c 0.4,0.6666667 0.8333334,0.75 1.3,0.25 0.3,-0.2999999 0.1,-0.8333333 -0.6,-1.6 l -1.2,-1 0.85,0.45 1.15,0.85 1.45,1.65 0.25,1.4 c -0.1666663,-0.30000002 -0.7166665,-0.53333337 -1.65,-0.7 -0.5666665,-0.0666667 -1,-0.3 -1.3,-0.7 z m 2.75,3.25 0.05,0.25 0.45,0.45 0.95,0.9 0.8,1.2 c -0.2000001,0.5333333 -0.5166667,0.8333335 -0.95,0.9 L -4.1,5.45 c -0.233333,-0.2 -0.4166664,-0.8 -0.55,-1.8 l -0.05,-1.6 0.05,-0.1 z"
           id="path3357"
           style="fill:#ffffff;stroke-linecap:round;stroke-linejoin:round" />
      </g>
    </g>
  </g>
</svg>
