<!--version="1.0" encoding="UTF-8"--><svg version="1.1" id="Layer_1" xmlns="http://www.w3.org/2000/svg" width="27" height="42" xml:space="preserve"><g id="PathID_15" transform="matrix(1, 0, 0, 1, 13, 21)"><path style="fill: rgb(255, 255, 255); fill-opacity: 1;" d="m10.85-17.7.05.1.1.15v.15l.05.05v.1l.05.05q.5 1.75.3 4.15l-.05.3h1.7V2.3q0 3.6-2.35 8.2-1.1 2.2-2.55 4.05Q5.3 18.25 1 20.7l-.3.3H-.6l-.3-.3q-4.25-2.45-7.15-6.15l-2.6-4.05Q-13 5.9-13 2.3v-14.95h1.7V-13q-.2-2.3.3-4.1v-.05l.05-.05v-.1l.05-.05.1-.35.25-.35q2-2.55 4.4-2.55 1.8 0 2.75 1.4l2-.55h.15l1.2.25 1.65-.25 1.75.3Q4.15-21 6-21q1.35 0 2.75 1 1.2.9 2 2.15l.1.15M6-19.45q-.95 0-1.35.8-.35.7 0 1.55-1.75-1.15-3.05-1.15-1.05 0-1.7.5-.45-.45-1.2-.45l-.05-.05h-.05q-.8 0-3.1 1.35.25-.6 0-1.15-.4-1.05-1.65-1.05-1.6 0-3.2 2l-.1.15-.05.15v.1h-.05q-.45 1.65-.25 3.6l.05.25v.25l.2 1.15h-.15l-.85.35h-.9V2.3q0 3.3 2.3 7.7 1.3 2.5 3.1 4.55 2.55 2.95 6.1 4.9 3.55-1.95 6.1-4.9 1.8-2.05 3.1-4.55 2.3-4.4 2.3-7.7v-13.4h-.9l-.85-.35h-.15l.2-1.15v-.5q.2-2.1-.25-3.6v-.1l-.05-.1-.1-.1-1.55-1.65q-1.05-.8-1.9-.8m-5.55 3.1q.1-.55 1.15-.55 1.1 0 3 1.3L6.45-14l.35.35.1-.4-.1-1.45q-2-2.75-.75-2.65 1.3.1 2.45 1.95.35 1.15.25 3.2l-.05.45-.7 3.1q.2.2.75 0L9-9.7q.55-.4.7-.4l.35.2q.25.6-.25 1.35Q9.05-7.3 7.95-6.8q-1.6.65-3.25 2.55l-1.35 1.8-.25.5-.1.6.55-.7.6-1.15Q5-4.25 6.3-4.8L8-5.5 9-6l.95.2.05 1.1-.2 1.05q-.25 1.45-.85 2.2L7.15.4l-.85.7q-.35.4-.4.9l-.05 2.05q0 1.2-.4 1.9L4.15 8.3q-.8 1.3-.85 1.75-.15 1.3 0 2.6l.05.5-.05.5-1 .9-.6.25-.45.1-1.2.2-1.2-.2-.5-.1-.55-.25-1-.9-.05-.5.05-.5v-2.6q-.05-.4-.35-.9l-.5-.85-1.3-2.35q-.4-.75-.45-1.9V2q-.05-.5-.45-.9l-.8-.7q-1.1-.85-1.8-1.85-.7-.9-.85-2.2l-.2-1.05v-1.1l1-.2 1 .5 1.7.7q1.25.55 2.15 1.6l.6 1.15.55.7q.15-.3-.4-1.1-2-3.3-4.55-4.35-1.05-.45-1.85-1.75-.55-.85-.25-1.35l.3-.2h.05l.65.4.3.25.4.05.35-.05-.7-3.1-.05-.45q-.2-1.8.2-3.2h.05q1.3-1.7 2.35-1.55 1.15.15.2 1l-.9 1.25-.05 1.45.1.4.3-.35q.25-.35 2.3-1.6 2.15-1.35 2.75-1.3.85.05.8 1.1l-1.25 1.05q1.1.2 1.85 1.05H.1l1-.5.95-.45-1.5-1.2-.1-.5m2.85 2.8-1.25.5-.6.75L3.9-8.95l.45.75q.4.55.7.4.75-.25.95-1.9v-.05q.1-.95-.7-2.5l-.9-.85q-.75-.5-1.1-.45m0 .95 1 .75.35.75H4l-1-1.4.3-.1m-3 1.95L-2.4-6.6l.1 1.15.55 1.8.9 1.5q.55.65.9.75.75-.2 1.8-2.2 1.1-2.1.65-3.05L1.95-7.8.3-10.65M7.35-3.8l-1.1.85-1.5 1.65L4.5.1l.3-.25L6.15-.6q1.4-.2 1.55-1.3-.55 1-1.3.25-.45-.45.6-1.6l1.2-1-.85.45m-2.7 6-.4.45-1 .9-.8 1.2.25.4.75.5.75-.2q.35-.3.55-1.8l.05-1.6-.05-.1-.1.25m-4.6 9.45q-1.05 0-1.75.45-.75.4-.75 1l.1.4q.2-.35.9-.35l1.5.05 1.55-.05q.7 0 .9.35l.1-.4q0-.6-.75-1-.75-.45-1.8-.45m-3.3-25.2-1.1.5-.85.8q-.85 1.6-.75 2.5l.05.05q.2 1.65.9 1.9h.1l.65-.4 3.1-4.1-.8-.75q-.55-.4-1.25-.5h-.05m.55 1.2-.9 1.25h-.95l.35-.75 1-.75q.35.05.45.25h.05M-6.1-.6q1.4.25 1.65.7l-.25-1.4-1.45-1.65-1.15-.85-.85-.45 1.2 1q1.05 1.15.6 1.6-.7.75-1.3-.25l.25.6q.45.6 1.3.7m1.5 2.8-.05-.25-.05.1.05 1.6q.2 1.5.55 1.8l.75.2q.65-.1.95-.9l-.8-1.2-.95-.9-.45-.45"/><path style="fill: rgb(0, 0, 0); fill-opacity: 1;" d="M7.9-18.65 9.45-17l.1.1.05.1v.1q.45 1.5.25 3.6v.5l-.2 1.15h.15l.85.35h.9V2.3q0 3.3-2.3 7.7-1.3 2.5-3.1 4.55-2.55 2.95-6.1 4.9-3.55-1.95-6.1-4.9-1.8-2.05-3.1-4.55-2.3-4.4-2.3-7.7v-13.4h.9l.85-.35h.15l-.2-1.15v-.25l-.05-.25q-.2-1.95.25-3.6h.05v-.1l.05-.15.1-.15q1.6-2 3.2-2 1.25 0 1.65 1.05.25.55 0 1.15 2.3-1.35 3.1-1.35h.05l.05.05q.75 0 1.2.45.65-.5 1.7-.5 1.3 0 3.05 1.15-.35-.85 0-1.55.4-.8 1.35-.8.85 0 1.9.8m-7.35 2.8 1.5 1.2-.95.45-1 .5H.05q-.75-.85-1.85-1.05l1.25-1.05q.05-1.05-.8-1.1-.6-.05-2.75 1.3-2.05 1.25-2.3 1.6l-.3.35-.1-.4.05-1.45.9-1.25q.95-.85-.2-1-1.05-.15-2.35 1.55h-.05q-.4 1.4-.2 3.2l.05.45.7 3.1-.35.05-.4-.05-.3-.25-.65-.4h-.05l-.3.2q-.3.5.25 1.35.8 1.3 1.85 1.75Q-5.3-5.75-3.3-2.45q.55.8.4 1.1l-.55-.7-.6-1.15q-.9-1.05-2.15-1.6l-1.7-.7-1-.5-1 .2v1.1l.2 1.05q.15 1.3.85 2.2.7 1 1.8 1.85l.8.7q.4.4.45.9v2.05q.05 1.15.45 1.9l1.3 2.35.5.85q.3.5.35.9v2.6l-.05.5.05.5 1 .9.55.25.5.1 1.2.2 1.2-.2.45-.1.6-.25 1-.9.05-.5-.05-.5q-.15-1.3 0-2.6.05-.45.85-1.75l1.3-2.35q.4-.7.4-1.9L5.9 2q.05-.5.4-.9l.85-.7 1.8-1.85q.6-.75.85-2.2L10-4.7l-.05-1.1L9-6l-1 .5-1.7.7Q5-4.25 4.15-3.2l-.6 1.15-.55.7.1-.6.25-.5 1.35-1.8q1.65-1.9 3.25-2.55 1.1-.5 1.85-1.75.5-.75.25-1.35l-.35-.2q-.15 0-.7.4l-.25.25q-.55.2-.75 0l.7-3.1.05-.45q.1-2.05-.25-3.2-1.15-1.85-2.45-1.95-1.25-.1.75 2.65l.1 1.45-.1.4-.35-.35-1.85-1.6q-1.9-1.3-3-1.3-1.05 0-1.15.55l.1.5M4.4-13.1l.9.85q.8 1.55.7 2.5v.05q-.2 1.65-.95 1.9-.3.15-.7-.4l-.45-.75-2.45-3.35.6-.75 1.25-.5q.35-.05 1.1.45m-1.4.6 1 1.4h.65l-.35-.75-1-.75-.3.1M1.95-7.8l.55 1.15q.45.95-.65 3.05Q.8-1.6.05-1.4q-.35-.1-.9-.75l-.9-1.5-.55-1.8-.1-1.15 2.7-4.05L1.95-7.8M8.2-4.25l-1.2 1q-1.05 1.15-.6 1.6.75.75 1.3-.25Q7.55-.8 6.15-.6L4.8-.15 4.5.1l.25-1.4 1.5-1.65 1.1-.85.85-.45m-3.45 6.2.05.1-.05 1.6q-.2 1.5-.55 1.8l-.75.2-.75-.5-.25-.4.8-1.2 1-.9.4-.45.1-.25M1.85 12.1q.75.4.75 1l-.1.4q-.2-.35-.9-.35l-1.55.05-1.5-.05q-.7 0-.9.35l-.1-.4q0-.6.75-1 .7-.45 1.75-.45t1.8.45M-3.2-13.55q.7.1 1.25.5l.8.75-3.1 4.1-.65.4H-5q-.7-.25-.9-1.9l-.05-.05q-.1-.9.75-2.5l.85-.8 1.1-.5h.05m.45 1.2q-.1-.2-.45-.25l-1 .75-.35.75h.95l.9-1.25h-.05M-7.4-1.3l-.25-.6q.6 1 1.3.25.45-.45-.6-1.6l-1.2-1 .85.45 1.15.85L-4.7-1.3l.25 1.4Q-4.7-.35-6.1-.6q-.85-.1-1.3-.7m3.25 3.95.95.9.8 1.2q-.3.8-.95.9l-.75-.2q-.35-.3-.55-1.8l-.05-1.6.05-.1.05.25.45.45"/></g></svg>