<!--version="1.0" encoding="UTF-8"--><svg version="1.1" id="Layer_1" xmlns="http://www.w3.org/2000/svg" width="33" height="42" xml:space="preserve"><g id="PathID_56" transform="matrix(1, 0, 0, 1, 16.2, 21)"><path style="fill: rgb(0, 0, 0); fill-opacity: 1;" d="M2.2-8.1-.9-5.95-9.4-18l-3.05 5.25 6.85 7.4 2.15-1.55 2.2 3.1-12.1 8.55L-8.1 7.8-.7.9l-1.55-2.15L.9-3.4 9.4 8.65l3.05-5.25L5.6-4 3.45-2.45l-2.2-3.1 12.05-8.5-5.25-3.05-7.4 6.85L2.2-8.1m3.6 1.95 8.55 9.2-4.8 8.35-3.5-4.9 3.4 11.05L2.9 21h-6.2l-6.2-3.4 2.75-9.05-1.1 1.05-8.35-4.85L-3.45-4.3l-.35-.55-2 1.4-8.6-9.2L-9.55-21-.5-8.25 0-8.6l-1.4-2 9.2-8.55 8.4 4.8L3.4-5.3l.4.55 2-1.4M7.6 16.9 2.8 1.3.6-1.8l-1.2.85 1.45 2-5.1 4.75-3.4 11.2 4.2 2.25h1.8l.6-7.25 2.2-.05.5 7.3H3.1l4.5-2.35"/><path style="fill: rgb(59, 129, 247); fill-opacity: 1;" d="m.65-10.25 7.4-6.85 5.25 3.05-12.05 8.5 2.2 3.1L5.6-4l6.85 7.4L9.4 8.65.9-3.4l-3.15 2.15L-.7.9l-7.4 6.9-5.25-3.05 12.1-8.55-2.2-3.1-2.15 1.55-6.85-7.4L-9.4-18-.9-5.95 2.2-8.1.65-10.25m2.45 29.5H1.65l-.5-7.3-2.2.05-.6 7.25h-1.8L-7.65 17l3.4-11.2 5.1-4.75-1.45-2L.6-1.8l2.2 3.1 4.8 15.6-4.5 2.35"/></g></svg>