<!--version="1.0" encoding="UTF-8"--><svg version="1.1" id="Layer_1" xmlns="http://www.w3.org/2000/svg" width="32" height="42" xml:space="preserve"><g id="PathID_98" transform="matrix(1, 0, 0, 1, 15.6, 21)"><path style="fill: rgb(0, 0, 0); fill-opacity: 1;" d="M14.2-13.3q.1 2.25-.85 3.7l.45.55.15.9q-.15 1.75-1.65 2.6l-.1 1.05q-.4 1.05-1.3 1.75v.15Q11-.9 9.75.15l.1.45q.1 1.85-1.6 3 .4.1.7.45L9.9 5.4l.55.85q.35.5.3 1.05-.05.6-.45 1l.2.05q.65.2 1.35 1.25l.05.1 2.55 4.25.95 1.75.2.75v.2l-.1.55q-.4 1.15-1.8 2.2-1.25 1-2.85 1.05h-1l-.25-.05h-.2l-.35-.05q-.65-.05-1.1-.7-1.25-2.1-3.05-6.3l-.05-.15q-.45-.8-.4-1.45 0-.5.3-.9L1 11.6q-.75 3.3-1 7.15V21h-3.95v-1.75L-4 18.9l.05-7.2q-4.8-.45-7.9-3.45Q-15.3 4.8-15.6-.4v-1.1q.15-2.65 1.2-5.35.75-1.85 2.1-3.9 2.4-3.55 5.55-6.2l.95-.35h.2l.5.1q.25-1.2 1.1-2.35l.95-1.1 1-.35q.6 0 1 .35l1.1 1.2q.9 1.35 1.05 2.7.85-.1 1.35.55l.7 1.55q.2 1.2-.25 2.4l.2.2.4.75.45-.25.45-.1q.4-1.4 1.5-2.15.85-.6 1.65-.6.7 0 1.2.6 1.35-1.05 3.4-1.05 1.6 0 2 1.05l.05.5M.1-14.4q-1.25 1.1-1.7 2.1-.5.95-.25 1.9l.35.7q2.15-1.45 2.9-3 .75-1.6-.15-2.65L.1-14.4m6.65 1.7q-.75.55-.95 1.6-.4 1.7.5 4 1.35-.25 1.6-1.8.15-1-.1-2.65L7.55-13l-.8.3M8.7-9.2l1.15-.15q1.3-.25 2-.9 1.05-1.05.85-3.15-2.05-.3-3.25.9-.75.7-.8 2.1-.05.65.05 1.2m-1.35 2-.1.75 1.45.05 2.45-.35q.85-.35 1.15-1.1l.15-.65-3.85.1q-.95.4-1.25 1.2M3.8-9.85q-.75.65-.75 1.8Q3-6.2 4.35-3.95 5.6-4.4 5.6-6.1l-.5-2.75-.55-1.4q-.35.1-.75.4M1.9-11.3l-1.3.9Q-.8-9.3-1.35-8.35q-.6 1-.4 2l.3.75Q.9-6.95 1.8-8.55q.95-1.55.1-2.75M3.65-.15H5.2q1.8-.1 2.75-.5Q9.5-1.2 9.4-2.5l-4.35.2q-1 .45-1.3 1.35l-.1.8m-.6-2.1-.25-.9Q.05-2-1.15-.4q-.8 1-.7 2.1l.2.9 1.55-.75q1.65-1 2.45-2 .75-.95.7-2.1m2.3-1.1h1.5l2.6-.4q1.4-.6 1.35-1.8l-4.1.15q-.95.45-1.25 1.3l-.1.75M2.45-7.2Q-.1-5.95-1.15-4.35q-.7.95-.55 2l.25.85 1.4-.8Q1.5-3.35 2.2-4.35q1.05-1.55.25-2.85M8.35.55 3.75.8q-1.1.45-1.4 1.45l-.1.8H3.9l2.9-.55q1.05-.35 1.4-1.2l.15-.75M6.1 5.75Q3.75 6.7.55 7.05l1.3-3.8L1.75.8Q.8 3.2-.35 7.1l-1.15.05V2.8h-.95v4.3Q-6.8 6.7-9 3.2q-1.8-2.85-1.85-7-.05-3.3 2.5-7.65l2.6-3.7.2-.4-.05-.35h-.2q-2.95 2.5-5.25 5.9L-13-6.4q-1 2.5-1.05 4.8v1q.2 4.55 3.3 7.65 2.85 2.85 7.9 3.1h.4v8.4l-.05.3h.05l.95-.3q.2-3.95 1.25-8.45 2.7-.2 5.9-1.25.85.95.8 1.6l-.2.7-.3.55.35.95q1.65 3.85 2.95 6.1l1.55.05q1.15-.05 2-.75 1-.75 1.3-1.5v-.25l-.95-1.7-2.5-4.15-.6-.75H9.5q-.7 0-1.25-.45-1.2-1-.45-1.5.4-.3 1.45-.7L7.8 4.9l-1.7.85M-2.05-19.6l-.8.95q-.85 1.2-.85 2.3 0 1.75 1.65 3.2Q-.4-14.6-.4-16.35q0-1.1-.8-2.3l-.85-.95m-3.65 5q-.25.9.2 1.9.75 1.55 2.9 3 .9-1.05.1-2.6-.45-1-1.7-2.1l-1.15-.95-.35.75m1.05 4.2-1.3-.9-.3.8q-.2 1 .4 1.95.9 1.6 3.25 2.95.85-1.15-.1-2.75-.55-.95-1.95-2.05m-2.1 4.05q-.15 1.05.5 2 1.1 1.6 3.65 2.85.2-.3.25-.85.15-1.05-.55-2-.65-1-2.2-2l-1.4-.85-.25.85m-.1 3.2-.25.9q-.1 1.15.7 2.1 1.25 1.6 4 2.75l.2-.9q.1-1.1-.7-2.1l-2.45-1.95-1.5-.8"/><path style="fill: rgb(255, 255, 255); fill-opacity: 1;" d="M1.25-15.35q.9 1.05.15 2.65-.75 1.55-2.9 3l-.35-.7q-.25-.95.25-1.9.45-1 1.7-2.1l1.15-.95M7.55-13l.25 1.45q.25 1.65.1 2.65-.25 1.55-1.6 1.8-.9-2.3-.5-4 .2-1.05.95-1.6l.8-.3m1.1 2.6q.05-1.4.8-2.1 1.2-1.2 3.25-.9.2 2.1-.85 3.15-.7.65-2 .9L8.7-9.2q-.1-.55-.05-1.2m-.05 2 3.85-.1-.15.65q-.3.75-1.15 1.1L8.7-6.4l-1.45-.05.1-.75q.3-.8 1.25-1.2m-4.05-1.85.55 1.4.5 2.75q0 1.7-1.25 2.15Q3-6.2 3.05-8.05q0-1.15.75-1.8.4-.3.75-.4M1.8-8.55Q.9-6.95-1.45-5.6l-.3-.75q-.2-1 .4-2Q-.8-9.3.6-10.4l1.3-.9q.85 1.2-.1 2.75m1.95 7.6q.3-.9 1.3-1.35l4.35-.2q.1 1.3-1.45 1.85-.95.4-2.75.5H3.65l.1-.8m-1.4.8q-.8 1-2.45 2l-1.55.75-.2-.9q-.1-1.1.7-2.1Q.05-2 2.8-3.15l.25.9q.05 1.15-.7 2.1m3.1-3.95q.3-.85 1.25-1.3l4.1-.15q.05 1.2-1.35 1.8l-2.6.4h-1.5l.1-.75M2.2-4.35q-.7 1-2.25 2.05l-1.4.8-.25-.85q-.15-1.05.55-2 1.05-1.6 3.6-2.85.8 1.3-.25 2.85m6 5.65q-.35.85-1.4 1.2l-2.9.55H2.25l.1-.8q.3-1 1.4-1.45l4.6-.25-.15.75m-.4 3.6 1.45 2.15q-1.05.4-1.45.7-.75.5.45 1.5.55.45 1.25.45h.55l.6.75 2.5 4.15.95 1.7v.25q-.3.75-1.3 1.5-.85.7-2 .75l-1.55-.05q-1.3-2.25-2.95-6.1l-.35-.95.3-.55.2-.7q.05-.65-.8-1.6-3.2 1.05-5.9 1.25-1.05 4.5-1.25 8.45l-.95.3h-.05l.05-.3v-8.4h-.4q-5.05-.25-7.9-3.1-3.1-3.1-3.3-7.65v-1Q-14-3.9-13-6.4l1.95-3.6q2.3-3.4 5.25-5.9h.2l.05.35-.2.4-2.6 3.7q-2.55 4.35-2.5 7.65.05 4.15 1.85 7 2.2 3.5 6.55 3.9V2.8h.95v4.35l1.15-.05Q.8 3.2 1.75.8l.1 2.45-1.3 3.8q3.2-.35 5.55-1.3l1.7-.85m-9-23.55q.8 1.2.8 2.3 0 1.75-1.65 3.2-1.65-1.45-1.65-3.2 0-1.1.85-2.3l.8-.95.85.95m-4.15 3.3 1.15.95q1.25 1.1 1.7 2.1.8 1.55-.1 2.6-2.15-1.45-2.9-3-.45-1-.2-1.9l.35-.75m2.65 7q.95 1.6.1 2.75-2.35-1.35-3.25-2.95-.6-.95-.4-1.95l.3-.8 1.3.9q1.4 1.1 1.95 2.05M-6.5-7.2l1.4.85q1.55 1 2.2 2 .7.95.55 2-.05.55-.25.85-2.55-1.25-3.65-2.85-.65-.95-.5-2l.25-.85m1.15 4.85L-2.9-.4q.8 1 .7 2.1l-.2.9q-2.75-1.15-4-2.75-.8-.95-.7-2.1l.25-.9 1.5.8"/></g></svg>