<!--version="1.0" encoding="UTF-8"--><svg version="1.1" id="Layer_1" xmlns="http://www.w3.org/2000/svg" width="42" height="41" xml:space="preserve"><g id="PathID_66" transform="matrix(1, 0, 0, 1, 21, 20.25)"><path style="fill: rgb(59, 129, 247); fill-opacity: 1;" d="M5.5-15.65q1.3 1.3 3 5.55l-.6.85q-.55.95-.45 1.6.2 1.45 1.3 3.85Q5.4-1.1 4.55 7.35q-.1.85.65 2.6.7 1.75 1.4 2.35 1.6 1.5 3.85.9 2.4-.65 3.95-3.4 1.55-2.6 2.05-6.7.45-3.5.05-6.85l-.85-5q-.4-1.95-.2-2.15.25-.3 1.2 1.45Q17.7-7.4 18.4-4.3q.9 3.8.6 8.2-.4 5.05-2.3 8.75-2.05 4.2-5.5 5.25L8 18q-1.5-.4-2.8-1.4-1.65-1.4-3.25-3.7l-1.3-2L2-3.4l-1.3-2 1.35-2.35L6.7-8.2l-2.4-2.55h-8.6L-6.75-8.2l4.7.45L-.7-5.4l-1.35 2L-.7 10.9q-1.85 3.45-4.55 5.7Q-6.5 17.6-8 18l-3.25-.1q-1.6-.5-3-1.85-1.5-1.4-2.45-3.4-1.9-3.7-2.25-8.75-.35-4.4.55-8.2.7-3.1 1.75-5.15.9-1.75 1.2-1.45.2.2-.2 2.15l-.85 5q-.4 3.35.05 6.85.5 4.1 2.05 6.7 1.55 2.75 3.95 3.4 2.25.6 3.85-.9.7-.6 1.4-2.35.7-1.8.6-2.6-.25-3.2-1.05-5.85-1.15-3.75-3.1-5.3 1.15-2.8 1.3-3.85.1-.65-.45-1.6l-.6-.85 1-2.3 1.95-3.25Q-4-17.2-1.9-18.2l.6.3 1.3.55q.95-.3 1.9-.85l1.25.7 2.35 1.85"/><path style="fill: rgb(0, 0, 0); fill-opacity: 1;" d="m3.15-17.5-1.25-.7q-.95.55-1.9.85l-1.3-.55-.6-.3q-2.1 1-3.65 2.55L-7.5-12.4l-1 2.3.6.85q.55.95.45 1.6-.15 1.05-1.3 3.85 1.95 1.55 3.1 5.3.8 2.65 1.05 5.85.1.8-.6 2.6-.7 1.75-1.4 2.35-1.6 1.5-3.85.9-2.4-.65-3.95-3.4-1.55-2.6-2.05-6.7-.45-3.5-.05-6.85l.85-5q.4-1.95.2-2.15-.3-.3-1.2 1.45Q-17.7-7.4-18.4-4.3q-.9 3.8-.55 8.2.35 5.05 2.25 8.75.95 2 2.45 3.4 1.4 1.35 3 1.85L-8 18q1.5-.4 2.75-1.4 2.7-2.25 4.55-5.7L-2.05-3.4l1.35-2-1.35-2.35-4.7-.45 2.45-2.55h8.6L6.7-8.2l-4.65.45L.7-5.4l1.3 2L.65 10.9l1.3 2q1.6 2.3 3.25 3.7 1.3 1 2.8 1.4l3.2-.1q3.45-1.05 5.5-5.25 1.9-3.7 2.3-8.75.3-4.4-.6-8.2-.7-3.1-1.75-5.15-.95-1.75-1.2-1.45-.2.2.2 2.15l.85 5q.4 3.35-.05 6.85-.5 4.1-2.05 6.7-1.55 2.75-3.95 3.4-2.25.6-3.85-.9-.7-.6-1.4-2.35-.75-1.75-.65-2.6Q5.4-1.1 8.75-3.8q-1.1-2.4-1.3-3.85-.1-.65.45-1.6l.6-.85q-1.7-4.25-3-5.55L3.15-17.5m1.05-1.55 2.7 2.15q1.55 1.6 3.4 6.2l.45 1.1-.8.9-.6 1 1.2 3.25.55 1.35-1.15.95q-1.3 1-2.2 3.6-.9 2.6-1.25 6.15 0 .7 2.75 1.55 2.85.9 3.4-.2h.05V8.9q1.4-2.35 1.85-6 .4-3.25 0-6.3l-.8-4.7q-.35-1.75-.35-2.4 0-1.05.7-1.7.55-.55 1.4-.55 2.85 0 4.8 8.1.95 4.2.6 8.95-.4 5.4-2.45 9.35-2.5 4.95-6.65 6.2l-2.35.4q-3 0-5.5-2.05Q2.7 17.15 0 17.15t-4 1.05q-2.45 2.05-5.45 2.05l-2.4-.4q-1.95-.6-3.7-2.2-1.75-1.65-2.9-3.95-2.05-4-2.45-9.4-.4-4.8.6-8.9.55-2.65 1.5-4.8 1.55-3.35 3.3-3.35.75 0 1.4.55.7.65.7 1.7 0 .65-.35 2.4l-.85 4.7q-.35 3.1.05 6.3.5 3.7 1.85 6v.05q.6 1.1 3.45.2 2.75-.85 2.75-1.5-.8-7.7-3.45-9.8l-1.2-.95.6-1.35Q-9.5-6.85-9.4-7.7l-.6-1-.75-.9.45-1.1q1.85-4.6 3.4-6.2 1.75-1.8 4.15-2.95l.95-.4 1.8.95 1.8-.95.95.4 1.45.8"/></g></svg>