<?xml version="1.0" encoding="UTF-8" standalone="no"?>
<!-- Created with Inkscape (http://www.inkscape.org/) -->

<svg
   xmlns:dc="http://purl.org/dc/elements/1.1/"
   xmlns:cc="http://creativecommons.org/ns#"
   xmlns:rdf="http://www.w3.org/1999/02/22-rdf-syntax-ns#"
   xmlns:svg="http://www.w3.org/2000/svg"
   xmlns="http://www.w3.org/2000/svg"
   version="1.1"
   width="20.950001"
   height="40.450001"
   viewBox="0 0 20.950001 40.450001"
   id="svg2985"
   style="overflow:visible">
  <metadata
     id="metadata3003">
    <rdf:RDF>
      <cc:Work
         rdf:about="">
        <dc:format>image/svg+xml</dc:format>
        <dc:type
           rdf:resource="http://purl.org/dc/dcmitype/StillImage" />
        <dc:title></dc:title>
      </cc:Work>
    </rdf:RDF>
  </metadata>
  <defs
     id="defs2987" />
  <g
     transform="translate(10.45,20.15)"
     id="g2991">
    <g
       id="g2993">
      <g
         id="g2995">
        <path
           d="m 1.05,-15.05 -0.7,-3.2 -1,0 -0.55,3.25 -0.7,1.2 c -0.6,0.933333 -1.4666668,1.983333 -2.6,3.15 l -1.7,1.9 c -0.433333,0.666667 -0.65,1.3333335 -0.65,2 l 0,4.25 0.85,-2.2 c 0.5666666,-1.1333335 1.2166667,-2.0166667 1.95,-2.65 0.6666668,-0.6 1.4833336,-1.066666 2.45,-1.4 l -0.3,3 c -0.5666667,0.9 -1.6,2.1333334 -3.1,3.7 l -1.85,2.1 C -7.35,0.78333336 -7.6,1.5333333 -7.6,2.3 l 0,4.7 0.95,-2.45 C -6.0166664,3.2833333 -5.2999997,2.2999997 -4.5,1.6 -3.8666666,1 -3.1333332,0.54999995 -2.3,0.25 l -0.3,3.05 -2.9,3.25 -2,2.3 c -0.566667,0.800001 -0.85,1.616667 -0.85,2.45 l 0,5.15 1.05,-2.7 c 0.6666663,-1.333333 1.4499996,-2.4 2.35,-3.2 0.5333335,-0.466666 1.1833336,-0.899999 1.95,-1.3 l -0.3,4.55 3.45,3.25 3.3,-3.1 L 3.1,9.3 c 0.7000002,0.3 1.316667,0.716667 1.85,1.25 0.8666666,0.733333 1.65,1.799999 2.35,3.2 l 1.05,2.7 0,-5.15 C 8.35,10.466667 8.083334,9.650001 7.55,8.85 L 5.5,6.55 2.7,3.35 C 2.5333333,2.3166666 2.4166665,1.2833333 2.35,0.25 3.1833334,0.55 3.916667,1 4.55,1.6 5.3833337,2.4 6.1000004,3.3833337 6.7,4.55 L 7.65,7 7.65,2.3 C 7.65,1.5333333 7.4,0.7833333 6.9,0.05 L 5.05,-2.05 C 3.65,-3.45 2.6,-4.7166667 1.9,-5.85 l -0.3,-2.9 c 0.9666666,0.266666 1.8,0.733334 2.5,1.4 0.733333,0.6333333 1.383333,1.5166665 1.95,2.65 l 0.85,2.2 0,-4.25 c 0,-0.6666665 -0.2333335,-1.333333 -0.7,-2 l -1.65,-1.9 -1.85,-1.9 -0.95,-1.25 -0.7,-1.25 z m 1.05,-5.1 1,4.75 c 0.2333333,0.5 0.5833334,1.033333 1.05,1.6 l 1.25,1.3 0.7,0.65 2,2.35 c 0.633334,0.966666 0.95,1.983333 0.95,3.05 l 0,6.25 c 0.466666,0.8333334 0.7,1.7666667 0.7,2.8 l 0,6.1 c 0.5,0.933333 0.75,1.9 0.75,2.9 l 0,5.9 -4.15,0 -0.05,-0.15 -0.8,-2.1 -5.35,5.05 -5.55,-5.25 -0.85,2.3 -0.05,0.15 -4.15,0 0,-5.9 c 0,-1.066666 0.233334,-2.033333 0.7,-2.9 l 0,-6.1 c 0,-0.9666668 0.25,-1.90000013 0.75,-2.8 l 0,-6.25 c 0,-1.066667 0.316667,-2.083334 0.95,-3.05 l 2,-2.35 1.7,-1.95 1.1,-1.6 0.8,-4.65 4.55,-0.1 z"
           id="path2997"
           style="fill:#000000;stroke-linecap:round;stroke-linejoin:round" />
        <path
           d="m 0.35,-18.25 0.7,3.2 0.7,1.25 0.95,1.25 1.85,1.9 1.65,1.9 c 0.4666665,0.666667 0.7,1.3333335 0.7,2 l 0,4.25 -0.85,-2.2 C 5.483333,-5.8333335 4.833333,-6.7166667 4.1,-7.35 3.3999999,-8.016666 2.5666666,-8.483334 1.6,-8.75 l 0.3,2.9 c 0.7,1.1333333 1.75,2.4 3.15,3.8 L 6.9,0.05 C 7.4,0.78333336 7.65,1.5333333 7.65,2.3 L 7.65,7 6.7,4.55 C 6.1,3.3833332 5.383333,2.3999996 4.55,1.6 3.9166665,1 3.183333,0.54999995 2.35,0.25 2.4166667,1.2833333 2.5333335,2.3166666 2.7,3.35 l 2.8,3.2 2.05,2.3 c 0.533334,0.800001 0.8,1.616667 0.8,2.45 l 0,5.15 -1.05,-2.7 C 6.6,12.349999 5.8166666,11.283333 4.95,10.55 4.4166665,10.016666 3.7999997,9.599999 3.1,9.3 l 0.35,4.65 -3.3,3.1 L -3.3,13.8 -3,9.25 c -0.766667,0.400001 -1.416667,0.833334 -1.95,1.3 -0.9,0.8 -1.683333,1.866667 -2.35,3.2 l -1.05,2.7 0,-5.15 c 0,-0.833333 0.283333,-1.649999 0.85,-2.45 l 2,-2.3 2.9,-3.25 0.3,-3.05 C -3.1333332,0.55 -3.8666666,1 -4.5,1.6 -5.2999997,2.3000002 -6.0166664,3.2833338 -6.65,4.55 L -7.6,7 l 0,-4.7 c 0,-0.7666667 0.25,-1.5166667 0.75,-2.25 L -5,-2.05 c 1.5,-1.5666668 2.5333333,-2.8000004 3.1,-3.7 l 0.3,-3 c -0.9666666,0.333333 -1.7833334,0.7999997 -2.45,1.4 -0.7333333,0.6333333 -1.3833334,1.5166665 -1.95,2.65 l -0.85,2.2 0,-4.25 c 0,-0.6666665 0.216667,-1.333333 0.65,-2 l 1.7,-1.9 c 1.1333334,-1.166667 2,-2.216667 2.6,-3.15 l 0.7,-1.2 0.55,-3.25 1,0 z"
           id="path2999"
           style="fill:#ffffff;stroke-linecap:round;stroke-linejoin:round" />
      </g>
    </g>
  </g>
</svg>
