<!--version="1.0" encoding="UTF-8" standalone="no"--><!-- Created with Inkscape (http://www.inkscape.org/) --><svg xmlns="http://www.w3.org/2000/svg" version="1.1" width="20.95" height="40.45" viewBox="0 0 20.95 40.45" id="svg2985" style="overflow-x: visible; overflow-y: visible;"><g transform="translate(10.45,20.15)" id="g2991"><g id="g2993"><g id="g2995"><path d="m1.05-15.05-.7-3.2h-1L-1.2-15l-.7 1.2c-.6.933-1.467 1.983-2.6 3.15l-1.7 1.9c-.433.667-.65 1.333-.65 2v4.25L-6-4.7c.567-1.133 1.217-2.017 1.95-2.65.667-.6 1.483-1.067 2.45-1.4l-.3 3c-.567.9-1.6 2.133-3.1 3.7L-6.85.05c-.5.733-.75 1.483-.75 2.25V7l.95-2.45C-6.017 3.283-5.3 2.3-4.5 1.6A6.23 6.23 0 01-2.3.25l-.3 3.05-2.9 3.25-2 2.3c-.567.8-.85 1.617-.85 2.45v5.15l1.05-2.7c.667-1.333 1.45-2.4 2.35-3.2.533-.467 1.183-.9 1.95-1.3l-.3 4.55 3.45 3.25 3.3-3.1L3.1 9.3c.7.3 1.317.717 1.85 1.25.867.733 1.65 1.8 2.35 3.2l1.05 2.7V11.3c0-.833-.267-1.65-.8-2.45L5.5 6.55l-2.8-3.2A32.666 32.666 0 012.35.25c.833.3 1.567.75 2.2 1.35.833.8 1.55 1.783 2.15 2.95L7.65 7V2.3c0-.767-.25-1.517-.75-2.25l-1.85-2.1c-1.4-1.4-2.45-2.667-3.15-3.8l-.3-2.9a5.8 5.8 0 012.5 1.4c.733.633 1.383 1.517 1.95 2.65l.85 2.2v-4.25c0-.667-.233-1.333-.7-2l-1.65-1.9-1.85-1.9-.95-1.25-.7-1.25zm1.05-5.1 1 4.75c.233.5.583 1.033 1.05 1.6l1.25 1.3.7.65 2 2.35c.633.967.95 1.983.95 3.05V-.2c.467.833.7 1.767.7 2.8v6.1c.5.933.75 1.9.75 2.9v5.9H6.35l-.05-.15-.8-2.1L.15 20.3l-5.55-5.25-.85 2.3-.05.15h-4.15v-5.9c0-1.067.233-2.033.7-2.9V2.6c0-.967.25-1.9.75-2.8v-6.25c0-1.067.317-2.083.95-3.05l2-2.35 1.7-1.95 1.1-1.6.8-4.65 4.55-.1z" id="path2997" style="fill: rgb(0, 0, 0); stroke-linecap: round; stroke-linejoin: round;"/><path d="m.35-18.25.7 3.2.7 1.25.95 1.25 1.85 1.9 1.65 1.9c.467.667.7 1.333.7 2v4.25l-.85-2.2C5.483-5.833 4.833-6.717 4.1-7.35a5.8 5.8 0 00-2.5-1.4l.3 2.9c.7 1.133 1.75 2.4 3.15 3.8L6.9.05c.5.733.75 1.483.75 2.25V7L6.7 4.55C6.1 3.383 5.383 2.4 4.55 1.6A6.23 6.23 0 002.35.25c.067 1.033.183 2.067.35 3.1l2.8 3.2 2.05 2.3c.533.8.8 1.617.8 2.45v5.15l-1.05-2.7c-.7-1.4-1.483-2.467-2.35-3.2A5.85 5.85 0 003.1 9.3l.35 4.65-3.3 3.1-3.45-3.25.3-4.55c-.767.4-1.417.833-1.95 1.3-.9.8-1.683 1.867-2.35 3.2l-1.05 2.7V11.3c0-.833.283-1.65.85-2.45l2-2.3 2.9-3.25.3-3.05A6.23 6.23 0 00-4.5 1.6c-.8.7-1.517 1.683-2.15 2.95L-7.6 7V2.3c0-.767.25-1.517.75-2.25L-5-2.05c1.5-1.567 2.533-2.8 3.1-3.7l.3-3c-.967.333-1.783.8-2.45 1.4-.733.633-1.383 1.517-1.95 2.65l-.85 2.2v-4.25c0-.667.217-1.333.65-2l1.7-1.9c1.133-1.167 2-2.217 2.6-3.15l.7-1.2.55-3.25h1z" id="path2999" style="fill: rgb(255, 255, 255); stroke-linecap: round; stroke-linejoin: round;"/></g></g></g></svg>