<!--version="1.0" encoding="UTF-8" standalone="no"--><!-- Created with Inkscape (http://www.inkscape.org/) --><svg xmlns="http://www.w3.org/2000/svg" version="1.1" width="20.85" height="42" viewBox="0 0 20.85 42" id="svg3105" style="overflow-x: visible; overflow-y: visible;"><g transform="translate(10.4,21)" id="g3111"><g id="g3113"><g id="g3115"><path d="M6.25-7.7H1.5v-2.7H-1v2.7h-4.8v-6l12.35-2.35-12.35-2.3v-.7h-2.5V11.5l8.45 7.1 8.6-7.1.05-21.9H6.25v2.7zM4.1-3.1V.85H2.05V-3.1H4.1zM-4.15-20 8.8-17.45l-.95 2.95-10.95 2.15h13.55L10.4 12.3-.05 21l-10.35-8.75V-21h6.25v1z" id="path3117" style="fill: rgb(0, 0, 0); stroke-linecap: round; stroke-linejoin: round;"/><path d="M1.5-7.7h4.75v-2.7H8.8l-.05 21.9-8.6 7.1-8.45-7.1v-30.55h2.5v.7l12.35 2.3L-5.8-13.7v6H-1v-2.7h2.5v2.7zM4.1.85V-3.1H2.05V.85H4.1z" id="path3119" style="fill: rgb(59, 129, 247); stroke-linecap: round; stroke-linejoin: round;"/></g></g></g></svg>