<!--version="1.0" encoding="UTF-8"--><svg version="1.1" id="Layer_1" xmlns="http://www.w3.org/2000/svg" width="23" height="42" xml:space="preserve"><g id="PathID_106" transform="matrix(1, 0, 0, 1, 11.15, 20.7)"><path style="fill: rgb(0, 0, 0); fill-opacity: 1;" d="m.1-18.6-1.4 3 1.4 2.95 1.4-2.95-1.4-3M1.3-1.2.8-3.05l1.6-2.1L.75-10.4l-1.85-2.15-.7 6.3.45.5.25-1.1 1.65-1.5.85 2.9-2.1 2.3-.3 2.1-2.65-3.8.7-8.4-5.7 13 5.75 13.3-1.8-9.8 2.95 1.2 1.7 4.9-1.25 3.55.65 3.5.75 1.75 1.9-4-2.25-1.35 1.5-3.45.5-4.85 3.1-1.25L3 13.05h.05L8.7-.25l-5.6-13L3.85-5 1.3-1.2m9.95.75-9.9 21.1h-2.7l-9.8-21.1 9.6-20.25h3.3l9.5 20.25"/><path style="fill: rgb(255, 255, 255); fill-opacity: 1;" d="M1.5-15.6.1-12.65l-1.4-2.95 1.4-3 1.4 3M3.85-5l-.75-8.25 5.6 13-5.65 13.3H3l1.85-9.8-3.1 1.25-.5 4.85-1.5 3.45L2 14.15l-1.9 4-.75-1.75-.65-3.5 1.25-3.55-1.7-4.9-2.95-1.2 1.8 9.8-5.75-13.3 5.7-13-.7 8.4L-1-1.05l.3-2.1 2.1-2.3-.85-2.9-1.65 1.5-.25 1.1-.45-.5.7-6.3L.75-10.4 2.4-5.15.8-3.05l.5 1.85L3.85-5"/></g></svg>