<?xml version="1.0" encoding="UTF-8"?>
<svg version="1.1" id="Layer_1" xmlns="http://www.w3.org/2000/svg" xmlns:xlink="http://www.w3.org/1999/xlink" width="23px" height="42px" xml:space="preserve">
<g id="PathID_106" transform="matrix(1, 0, 0, 1, 11.15, 20.7)">
<path style="fill:#000000;fill-opacity:1" d="M0.1 -18.6L-1.3 -15.6L0.1 -12.65L1.5 -15.6L0.1 -18.6M1.3 -1.2L0.8 -3.05L2.4 -5.15L0.75 -10.4L-1.1 -12.55L-1.8 -6.25L-1.35 -5.75L-1.1 -6.85L0.55 -8.35L1.4 -5.45L-0.7 -3.15L-1 -1.05L-3.65 -4.85L-2.95 -13.25L-8.65 -0.25L-2.9 13.05L-4.7 3.25L-1.75 4.45L-0.05 9.35L-1.3 12.9L-0.65 16.4L0.1 18.15L2 14.15L-0.25 12.8L1.25 9.35L1.75 4.5L4.85 3.25L3 13.05L3.05 13.05L8.7 -0.25L3.1 -13.25L3.85 -5L1.3 -1.2M11.25 -0.45L1.35 20.65L-1.35 20.65L-11.15 -0.45L-1.55 -20.7L1.75 -20.7L11.25 -0.45"/>
<path style="fill:#FFFFFF;fill-opacity:1" d="M1.5 -15.6L0.1 -12.65L-1.3 -15.6L0.1 -18.6L1.5 -15.6M3.85 -5L3.1 -13.25L8.7 -0.25L3.05 13.05L3 13.05L4.85 3.25L1.75 4.5L1.25 9.35L-0.25 12.8L2 14.15L0.1 18.15L-0.65 16.4L-1.3 12.9L-0.05 9.35L-1.75 4.45L-4.7 3.25L-2.9 13.05L-8.65 -0.25L-2.95 -13.25L-3.65 -4.85L-1 -1.05L-0.7 -3.15L1.4 -5.45L0.55 -8.35L-1.1 -6.85L-1.35 -5.75L-1.8 -6.25L-1.1 -12.55L0.75 -10.4L2.4 -5.15L0.8 -3.05L1.3 -1.2L3.85 -5"/>
</g>
</svg>