<?xml version="1.0" encoding="UTF-8"?>
<svg version="1.1" id="Layer_1" xmlns="http://www.w3.org/2000/svg" xmlns:xlink="http://www.w3.org/1999/xlink" width="32px" height="42px" xml:space="preserve">
<g id="PathID_76" transform="matrix(1, 0, 0, 1, 16, 21)">
<path style="fill:#FFFFFF;fill-opacity:1" d="M10.85 -13.1L10.35 -13.05L10.25 -13.75L9.8 -14.5L8.7 -9.45L6.5 -8.9L8.4 5.05L8.4 5.3L9.7 2.7L10.35 1.65L12.05 4.25Q13.75 7.3 13.8 9.5L14.1 13.95L0.2 18.85L-14.05 14.15L-13.75 9.5Q-13.65 7.3 -11.9 4.25L-10.15 1.65L-8.5 4.75L-6.75 -8.95L-9 -9.45L-10.05 -14.55L-10.5 -13.8L-10.6 -13.1L-11.1 -13.15L-11.4 -13.55L-11.25 -13.9L-11.15 -16.05L-10.8 -15.9Q-10.5 -16.6 -9.8 -16.6L-9.25 -16.5Q-8.45 -16.5 -7.5 -14.45L-5.75 -15.1L-4.75 -16.85L-3.85 -15.15L-3.4 -15.15L-2.5 -16.85L-1.6 -15.15L-1.15 -15.15L-0.25 -16.85L0.65 -15.15L1.1 -15.15L2 -16.85L2.9 -15.15L3.35 -15.15L4.25 -16.85L4.7 -15.95L5.45 -15.1L7.2 -14.45L7.8 -15.45L9 -16.5L9.55 -16.6Q10.25 -16.6 10.55 -15.9L10.85 -16.05L11 -13.85L11.15 -13.5L10.85 -13.1M3.15 -9.85Q2.55 -8.75 2.55 -7.95L2.55 1.05L4.9 1.05L4.9 -7.95Q4.9 -8.75 4.35 -9.85L3.75 -10.8L3.15 -9.85M0.8 -11.85L-0.1 -13.35L-1 -11.85Q-1.9 -10.1 -1.9 -8.9L-1.9 11.5L1.65 11.5L1.65 -8.9Q1.65 -10.1 0.8 -11.85M-4.95 -7.95L-4.95 1.05L-2.65 1.05L-2.65 -7.95Q-2.65 -8.75 -3.2 -9.85L-3.8 -10.8L-4.35 -9.85Q-4.95 -8.75 -4.95 -7.95"/>
<path style="fill:#000000;fill-opacity:1" d="M11.15 -13.5L11 -13.85L10.85 -16.05L10.55 -15.9Q10.25 -16.6 9.55 -16.6L9 -16.5L7.8 -15.45L7.2 -14.45L5.45 -15.1L4.7 -15.95L4.25 -16.85L3.35 -15.15L2.9 -15.15L2 -16.85L1.1 -15.15L0.65 -15.15L-0.25 -16.85L-1.15 -15.15L-1.6 -15.15L-2.5 -16.85L-3.4 -15.15L-3.85 -15.15L-4.75 -16.85L-5.75 -15.1L-7.5 -14.45Q-8.45 -16.5 -9.25 -16.5L-9.8 -16.6Q-10.5 -16.6 -10.8 -15.9L-11.15 -16.05L-11.25 -13.9L-11.4 -13.55L-11.1 -13.15L-10.6 -13.1L-10.5 -13.8L-10.05 -14.55L-9 -9.45L-6.75 -8.95L-8.5 4.75L-10.15 1.65L-11.9 4.25Q-13.65 7.3 -13.75 9.5L-14.05 14.15L0.2 18.85L14.1 13.95L13.8 9.5Q13.75 7.3 12.05 4.25L10.35 1.65L9.7 2.7L8.4 5.3L8.4 5.05L6.5 -8.9L8.7 -9.45L9.8 -14.5L10.25 -13.75L10.35 -13.05L10.85 -13.1L11.15 -13.5M13.4 -13.3L11.85 -11.1L11 -11.05L10.3 -7.7L8.65 -7.3L9.55 -0.6L10.3 -1.7L11.8 0.3Q12.8 1.55 13.85 3.5Q15.6 6.8 15.7 9.45L16 15.45L0.8 20.85L0.25 21L-16 15.7L-15.6 9.4Q-15.5 6.8 -13.7 3.5L-11.6 0.3L-10 -1.65L-9.65 -1.1L-8.85 -7.3L-10.55 -7.7L-11.25 -11.05L-12.1 -11.15L-13.65 -13.3L-13.1 -14.45L-12.85 -19L-11.25 -18.3Q-10.55 -18.7 -9.8 -18.7L-8.8 -18.55Q-7.75 -18.35 -6.8 -17.05L-4.75 -21L-3.6 -18.85L-2.5 -21L-1.35 -18.85L-0.25 -20.95L0.9 -18.85L2 -21L3.15 -18.85L4.25 -20.95L6.25 -17.2L6.45 -16.95Q7.55 -18.3 8.55 -18.5L9.55 -18.7L11 -18.3L12.6 -18.95L12.85 -14.45L13.4 -13.3M3.75 -10.8L4.35 -9.85Q4.9 -8.75 4.9 -7.95L4.9 1.05L2.55 1.05L2.55 -7.95Q2.55 -8.75 3.15 -9.85L3.75 -10.8M1.65 -8.9L1.65 11.5L-1.9 11.5L-1.9 -8.9Q-1.9 -10.1 -1 -11.85L-0.1 -13.35L0.8 -11.85Q1.65 -10.1 1.65 -8.9M-4.35 -9.85L-3.8 -10.8L-3.2 -9.85Q-2.65 -8.75 -2.65 -7.95L-2.65 1.05L-4.95 1.05L-4.95 -7.95Q-4.95 -8.75 -4.35 -9.85"/>
</g>
</svg>