<!--version="1.0" encoding="UTF-8"--><svg version="1.1" id="Layer_1" xmlns="http://www.w3.org/2000/svg" width="32" height="42" xml:space="preserve"><g id="PathID_76" transform="matrix(1, 0, 0, 1, 16, 21)"><path style="fill: rgb(255, 255, 255); fill-opacity: 1;" d="m10.85-13.1-.5.05-.1-.7-.45-.75-1.1 5.05-2.2.55L8.4 5.05v.25l1.3-2.6.65-1.05 1.7 2.6q1.7 3.05 1.75 5.25l.3 4.45-13.9 4.9-14.25-4.7.3-4.65q.1-2.2 1.85-5.25l1.75-2.6 1.65 3.1 1.75-13.7-2.25-.5-1.05-5.1-.45.75-.1.7-.5-.05-.3-.4.15-.35.1-2.15.35.15q.3-.7 1-.7l.55.1q.8 0 1.75 2.05l1.75-.65 1-1.75.9 1.7h.45l.9-1.7.9 1.7h.45l.9-1.7.9 1.7h.45l.9-1.7.9 1.7h.45l.9-1.7.45.9.75.85 1.75.65.6-1L9-16.5l.55-.1q.7 0 1 .7l.3-.15.15 2.2.15.35-.3.4m-7.7 3.25q-.6 1.1-.6 1.9v9H4.9v-9q0-.8-.55-1.9l-.6-.95-.6.95m-2.35-2-.9-1.5-.9 1.5q-.9 1.75-.9 2.95v20.4h3.55V-8.9q0-1.2-.85-2.95m-5.75 3.9v9h2.3v-9q0-.8-.55-1.9l-.6-.95-.55.95q-.6 1.1-.6 1.9"/><path style="fill: rgb(0, 0, 0); fill-opacity: 1;" d="m11.15-13.5-.15-.35-.15-2.2-.3.15q-.3-.7-1-.7l-.55.1-1.2 1.05-.6 1-1.75-.65-.75-.85-.45-.9-.9 1.7H2.9l-.9-1.7-.9 1.7H.65l-.9-1.7-.9 1.7h-.45l-.9-1.7-.9 1.7h-.45l-.9-1.7-1 1.75-1.75.65q-.95-2.05-1.75-2.05l-.55-.1q-.7 0-1 .7l-.35-.15-.1 2.15-.15.35.3.4.5.05.1-.7.45-.75L-9-9.45l2.25.5-1.75 13.7-1.65-3.1-1.75 2.6q-1.75 3.05-1.85 5.25l-.3 4.65L.2 18.85l13.9-4.9-.3-4.45q-.05-2.2-1.75-5.25l-1.7-2.6L9.7 2.7 8.4 5.3v-.25L6.5-8.9l2.2-.55 1.1-5.05.45.75.1.7.5-.05.3-.4m2.25.2-1.55 2.2-.85.05-.7 3.35-1.65.4.9 6.7.75-1.1 1.5 2q1 1.25 2.05 3.2 1.75 3.3 1.85 5.95l.3 6-15.2 5.4-.55.15L-16 15.7l.4-6.3q.1-2.6 1.9-5.9l2.1-3.2 1.6-1.95.35.55.8-6.2-1.7-.4-.7-3.35-.85-.1-1.55-2.15.55-1.15.25-4.55 1.6.7q.7-.4 1.45-.4l1 .15q1.05.2 2 1.5L-4.75-21l1.15 2.15L-2.5-21l1.15 2.15 1.1-2.1 1.15 2.1L2-21l1.15 2.15 1.1-2.1 2 3.75.2.25q1.1-1.35 2.1-1.55l1-.2 1.45.4 1.6-.65.25 4.5.55 1.15m-9.65 2.5.6.95q.55 1.1.55 1.9v9H2.55v-9q0-.8.6-1.9l.6-.95m-2.1 1.9v20.4H-1.9V-8.9q0-1.2.9-2.95l.9-1.5.9 1.5q.85 1.75.85 2.95m-6-.95.55-.95.6.95q.55 1.1.55 1.9v9h-2.3v-9q0-.8.6-1.9"/></g></svg>