<!--version="1.0" encoding="UTF-8" standalone="no"--><!-- Created with Inkscape (http://www.inkscape.org/) --><svg xmlns="http://www.w3.org/2000/svg" xmlns:sodipodi="http://sodipodi.sourceforge.net/DTD/sodipodi-0.dtd" xmlns:inkscape="http://www.inkscape.org/namespaces/inkscape" version="1.1" width="24.75" height="42" viewBox="0 0 24.75 42" id="svg3349" style="overflow-x: visible; overflow-y: visible;" inkscape:version="0.48.2 r9819" sodipodi:docname="lighthouse.svg"><sodipodi:namedview pagecolor="#3b81f7" bordercolor="#666666" borderopacity="1" objecttolerance="10" gridtolerance="10" guidetolerance="10" inkscape:pageopacity="0" inkscape:pageshadow="2" inkscape:window-width="640" inkscape:window-height="480" id="namedview3261" showgrid="false" fit-margin-top="0" fit-margin-left="0" fit-margin-right="0" fit-margin-bottom="0" inkscape:zoom="0.4609375" inkscape:cx="181.65351" inkscape:cy="-154.84664" inkscape:window-x="0" inkscape:window-y="0" inkscape:window-maximized="0" inkscape:current-layer="svg3349"/><g transform="translate(12.35,21)" id="g3355"><g id="g3357"><g id="g3359"><path d="M-.45-21h1l6.75 3.1v4.15l1.3.4v6.3H6.9L8.3 13.7h4.1V21h-24.75v-7.3h4.1l1.4-20.75h-1.7v-6.3l1.3-.4v-4.15l6.8-3.1zm.55 1.9h-.15l-5.3 2.4v1h1v4.8H-6v-.55h-.65v2.5h1.85l-1.65 24.6h-3.95v3.45h20.85v-3.45H6.5L4.85-8.95H6.7v-2.5h-.65v.55H4.4v-4.8h1v-1L.1-19.1zM3.6-.8v5H1.35v-5H3.6zm-4.65-7.45v3.6H-2.7v-3.6h1.65zm.1 17.4v6.4h-2.9v-6.4h2.9z" id="path3361" style="fill: rgb(0, 0, 0); stroke-linecap: round; stroke-linejoin: round;" inkscape:connector-curvature="0"/><path d="M-.05-19.1H.1l5.3 2.4v1h-1v4.8h1.65v-.55h.65v2.5H4.85l1.65 24.6h3.95v3.45H-10.4v-3.45h3.95l1.65-24.6h-1.85v-2.5H-6v.55h1.65v-4.8h-1v-1l5.3-2.4zM3.6 4.2v-5H1.35v5H3.6zm-4.65-8.85v-3.6H-2.7v3.6h1.65zm.1 20.2v-6.4h-2.9v6.4h2.9z" id="path3363" style="fill: rgb(59, 129, 247); stroke-linecap: round; stroke-linejoin: round;" inkscape:connector-curvature="0"/></g></g></g></svg>