<svg width="40" height="40" viewBox="0 0 512 512" xmlns="http://www.w3.org/2000/svg" fill="#000000"><path fill="#ffffff" d="m317.727 108.904-95.192 96.592-26.93 86.815 17.54 36.724 20.417 9.287 33.182-55.08 11.297-3.61 61.75 26.85 20.26-13 4.47-43.7 11.42 53.635-10.62 14.162 3.77 1.64 5.24 6.5 6.83 34.343 55.978-66.775 13.98.23 22.397 28.575-9.453-52.244L434.01 166.81l-116.28-57.906zM123.61 120.896 94.08 173l-4.603 27.62 25.98-8.442 11.704 7.377.085.634 28.295 59.864 13.773-4.543 10.94 4.67 3.922 8.21 19.517-62.918-1.074-33.336-40.15-.522-29.732-23.78 34.06 10.888 42.49-7.727 26.034 15.88 36.282-36.815a332.696 332.696 0 00-8.58-3.52l-79.58 10.126-3.528-.25-56.307-15.52zm249.33 36.422 47.058 66.02 2.107 62.51-25.283-59.698-65.322-60.404 41.44-8.428zm-262.2 55.32-64.234 20.876-16.71 78.552 50.794 5.582.596-7.14 37.662-36.707-8.108-61.16zm56.688 62.45-36.44 12.016-31.644 30.84 22.588 30.867 57.326 1.74 16.5-16.16-28.33-59.3zm110.666 24.19-44.307 73.546-.033 57.14 97.264 12.216 44.242-19.528-17.666-88.806-79.5-34.567zM443.8 313.36l-46.843 55.876.287 1.774 65.147 13.887 25.78-14.926-44.37-56.612zm-138.382 15.89 39.23 22.842 13.41 50.658-26.82 23.838-45.015-2.553 38.562-28.242 2.483-39.23-21.85-27.312zm-238.37 53.838-8.77 28.51 13.152 48.498 91.037-11.91 1.32-26.418-62.582-31.995-34.156-6.684z" id="SVGRepo_tracerCarrier" stroke-linecap="round" stroke-linejoin="round" stroke="#000000" stroke-width="47.104"/><path fill="#ffffff" d="m317.727 108.904-95.192 96.592-26.93 86.815 17.54 36.724 20.417 9.287 33.182-55.08 11.297-3.61 61.75 26.85 20.26-13 4.47-43.7 11.42 53.635-10.62 14.162 3.77 1.64 5.24 6.5 6.83 34.343 55.978-66.775 13.98.23 22.397 28.575-9.453-52.244L434.01 166.81l-116.28-57.906zM123.61 120.896 94.08 173l-4.603 27.62 25.98-8.442 11.704 7.377.085.634 28.295 59.864 13.773-4.543 10.94 4.67 3.922 8.21 19.517-62.918-1.074-33.336-40.15-.522-29.732-23.78 34.06 10.888 42.49-7.727 26.034 15.88 36.282-36.815a332.696 332.696 0 00-8.58-3.52l-79.58 10.126-3.528-.25-56.307-15.52zm249.33 36.422 47.058 66.02 2.107 62.51-25.283-59.698-65.322-60.404 41.44-8.428zm-262.2 55.32-64.234 20.876-16.71 78.552 50.794 5.582.596-7.14 37.662-36.707-8.108-61.16zm56.688 62.45-36.44 12.016-31.644 30.84 22.588 30.867 57.326 1.74 16.5-16.16-28.33-59.3zm110.666 24.19-44.307 73.546-.033 57.14 97.264 12.216 44.242-19.528-17.666-88.806-79.5-34.567zM443.8 313.36l-46.843 55.876.287 1.774 65.147 13.887 25.78-14.926-44.37-56.612zm-138.382 15.89 39.23 22.842 13.41 50.658-26.82 23.838-45.015-2.553 38.562-28.242 2.483-39.23-21.85-27.312zm-238.37 53.838-8.77 28.51 13.152 48.498 91.037-11.91 1.32-26.418-62.582-31.995-34.156-6.684z" id="SVGRepo_iconCarrier"/></svg>