<!DOCTYPE html PUBLIC "-//W3C//DTD SVG 1.1//EN" "http://www.w3.org/Graphics/SVG/1.1/DTD/svg11.dtd"><!-- Uploaded to: SVG Repo, www.svgrepo.com, Transformed by: SVG Repo Mixer Tools --><svg height="40" width="40" version="1.1" id="Layer_1" xmlns="http://www.w3.org/2000/svg" viewBox="-10.07 -10.07 523.61 523.61" xml:space="preserve" fill="#000000" stroke="#000000" stroke-width="11.076274" transform="matrix(1, 0, 0, 1, 0, 0)" preserveAspectRatio="xMidYMid meet" zoomAndPan="magnify" contentScriptType="application/ecmascript" contentStyleType="text/css"><g id="SVGRepo_iconCarrier"><g transform="translate(1 17)"><path style="fill: rgb(255, 255, 255);" d="M498.2 157.507v221.867c0 18.773-15.36 34.133-34.133 34.133H37.4c-18.773 0-34.133-15.36-34.133-34.133V157.507h204.8v34.133H37.4v187.733h426.667V191.64H293.4v-34.133h204.8zM9.24 123.373c13.653-40.107 52.053-68.267 96.427-68.267H395.8c56.32 0 102.4 46.08 102.4 102.4H293.4c0-10.24-6.827-17.067-17.067-17.067h-51.2c-10.24 0-17.067 6.826-17.067 17.066H3.266c0-11.946 1.707-23.04 5.974-34.133z"/><path style="fill: rgb(255, 255, 255);" d="M37.4 276.973V191.64h170.667v42.667c0 23.893 18.773 42.667 42.667 42.667S293.4 258.2 293.4 234.307V191.64h170.667v187.733H37.4v-102.4z"/><path style="fill: rgb(255, 255, 255);" d="M293.4 191.64v42.667c0 23.893-18.773 42.667-42.667 42.667s-42.667-18.773-42.667-42.667v-76.8c0-10.24 6.827-17.067 17.067-17.067h51.2c10.24 0 17.067 6.827 17.067 17.067v34.133z"/></g><path style="fill: rgb(0, 0, 0);" d="M465.067 434.773H38.4c-21.333 0-38.4-17.067-38.4-38.4V208.64c0-2.56 1.707-4.267 4.267-4.267s4.267 1.707 4.267 4.267v187.733c0 16.213 13.653 29.867 29.867 29.867H465.07c16.213 0 29.867-13.653 29.867-29.867V174.507c0-17.067-4.267-33.28-11.947-46.933H379.733c-2.56 0-4.267-1.707-4.267-4.267s1.707-4.267 4.267-4.267h98.133c-17.92-25.6-47.787-42.667-81.067-42.667H106.666c-40.107 0-75.093 24.747-90.453 59.733h56.32c2.56 0 4.267 1.707 4.267 4.267 0 2.56-1.706 4.267-4.266 4.267H12.8c-2.56 8.533-4.267 17.067-4.267 25.6H204.8c1.707-10.24 10.24-17.067 21.333-17.067h51.2c11.093 0 19.627 6.827 21.333 17.067h166.4c2.56 0 4.267 1.707 4.267 4.267 0 2.56-1.707 4.267-4.267 4.267H294.4c-2.56 0-4.267-1.707-4.267-4.267 0-7.68-5.12-12.8-12.8-12.8h-51.2c-7.68 0-12.8 5.12-12.8 12.8 0 2.56-1.707 4.267-4.267 4.267H4.266c-2.56 0-4.266-1.707-4.266-4.267 0-12.8 1.707-23.893 5.973-34.987C20.48 98.56 60.587 68.693 106.667 68.693H396.8c58.88 0 106.667 47.787 106.667 106.667v221.867c0 20.48-17.067 37.546-38.4 37.546zm0-34.133H38.4c-2.56 0-4.267-1.707-4.267-4.267V208.64c0-2.56 1.707-4.267 4.267-4.267h170.667c2.56 0 4.267 1.707 4.267 4.267v42.667c0 21.333 17.067 38.4 38.4 38.4s38.4-17.067 38.4-38.4v-38.4H243.2c-2.56 0-4.267-1.707-4.267-4.267s1.707-4.267 4.267-4.267h221.867c2.56 0 4.267 1.707 4.267 4.267v187.733c0 2.56-1.707 4.267-4.267 4.267zm-422.4-8.533H460.8V298.24h-64c-2.56 0-4.267-1.707-4.267-4.267s1.707-4.267 4.267-4.267h64v-76.8H298.667v38.4c0 25.6-21.333 46.933-46.933 46.933S204.8 276.906 204.8 251.306v-38.4H42.667v76.8h29.867c2.56 0 4.267 1.707 4.267 4.267s-1.706 4.267-4.266 4.267H42.667v93.867zM192 349.44H89.6c-2.56 0-4.267-1.707-4.267-4.267 0-2.56 1.707-4.267 4.267-4.267H192c2.56 0 4.267 1.707 4.267 4.267 0 2.56-1.707 4.267-4.267 4.267zm136.533-17.067H294.4c-2.56 0-4.267-1.707-4.267-4.267s1.707-4.267 4.267-4.267h34.133c2.56 0 4.267 1.706 4.267 4.266s-1.707 4.267-4.267 4.267zm-76.8-76.8c-2.56 0-4.267-1.707-4.267-4.267v-8.533c0-2.56 1.707-4.267 4.267-4.267 2.56 0 4.267 1.707 4.267 4.267v8.533c0 2.56-1.707 4.267-4.267 4.267zm-76.8-145.066H140.8c-2.56 0-4.267-1.707-4.267-4.267 0-2.56 1.707-4.267 4.267-4.267h34.133c2.56 0 4.267 1.707 4.267 4.267 0 2.56-1.707 4.267-4.267 4.267z"/></g></svg>