<svg xmlns="http://www.w3.org/2000/svg" version="1.1" xmlns:xlink="http://www.w3.org/1999/xlink" width="50" height="50" x="0" y="0" viewBox="0 0 506.382 506.382" style="enable-background:new 0 0 512 512" xml:space="preserve" >
  <g>
    <path stroke-width="0" stroke="#000" fill="#3b81f7" d="M44.012 420.101a6.66 6.66 0 0 1 4.322-6.236l4.83-1.812a38.414 38.414 0 0 0 19.151-15.697l12.558-27.533 23.306-18.078 11.989-32.978-49.951 38.744-12.557 27.535a38.423 38.423 0 0 1-19.151 15.697l-4.83 1.812a6.66 6.66 0 0 0-4.321 6.236v13.767a6.66 6.66 0 0 0 7.173 6.64l7.482-.579v-7.518z">
    </path>
    <path stroke-width="0" stroke="#000" fill="#3b81f7" d="m97.916 284.493-7.93 40.085c-2.9 13.45-13.67 23.16-26.41 25.38-4.16.72-8.54.65-12.92-.36l-39.97-9.15c-2.55-.58-4.26 2.56-2.38 4.38l27 26.1c31.5 30.45 84.23 12.78 91.01-30.5l6.12-39.03.49-2.14v-21.364z"  >
    </path>
    <path stroke-width="0" stroke="#000" fill="#3b81f7" d="m296.376 360.738-10.115-39.243-16.042-65.107-69.283 47.044 30.604 32.143 13.594 17.96.088-.184a24.465 24.465 0 0 1 41.041-4.94l10.075 12.347.038-.02zM453.993 310.216l-61.556-1.643-5.435 47.829 13.001.45a23.028 23.028 0 0 1 18.473 10.406 20.224 20.224 0 0 1 3.301 11.074 17.685 17.685 0 0 1-6.594 13.776l-.208.167a23.114 23.114 0 0 0-8.618 18.054v9.68c0 2.889.535 5.655 1.503 8.208h29.719z">
    </path>
    <path stroke-width="0" stroke="#000" fill="#3b81f7" d="m117.436 280.814-19.52 3.679-7.93 40.085c-2.9 13.45-13.67 23.16-26.41 25.38-4.16.72-8.54.65-12.92-.36l-39.97-9.15c-2.55-.58-4.26 2.56-2.38 4.38l13.682 13.226 38.071 8.715a32.63 32.63 0 0 0 12.92.36c12.285-2.141 22.738-11.246 26.07-23.954.244-.932.547-1.845.967-2.713a131.117 131.117 0 0 0 1.645-3.492c1.192-2.706 3.361-4.865 6.054-6.086 8.029-3.641 15.281-7.43 21.888-11.418l2.833-18.069.49-2.14v-21.364zM106.91 303.73l.409-2.066.591-.111z">
    </path>
    <path stroke-width="0" stroke="#000" fill="#3b81f7" d="m158.206 273.539-2.7 2.87c-6.14 9.02-14.26 16.89-23.92 23.83-11.03 7.94-24.07 14.68-38.48 20.62a5.217 5.217 0 0 0-3.12 3.72c-2.9 13.45-13.67 23.16-26.41 25.38l-.06-71.06-2.52-9.5a157.5 157.5 0 0 1 18.53-123.58l4.05-6.5c.69-1.11.65-2.52-.09-3.59l-9.85-14.2c-.93-1.34-.5-3.18.92-3.98l11.52-6.47a3.269 3.269 0 0 0 .83-5.05l-4.91-5.41c-1.18-1.3-.86-3.35.65-4.24l7.45-4.34a101.874 101.874 0 0 1 87.7-7.07l26.02 9.17.02.08c14.24-3.63 29.95 3.1 36.53 17.34l1-.42 42.66-19.38c44.18-20.09 95.38-17.41 137.23 7.17l4.07 2.39c61.44 36.09 88.76 110.59 65.23 177.84l-10.72 30.63a41.149 41.149 0 0 0-1.41 22.13l8.74 41.06c.35 1.66.47 3.35.37 5.05l-2.7 42.5a8.208 8.208 0 0 1-8.19 7.69h-47.09c-4.53 0-8.2-3.67-8.2-8.21v-9.68c0-2.48 1.12-4.83 3.05-6.39l12.37-9.96v-20.92c0-3.41-.99-6.74-2.86-9.6l-8.71-13.31a17.524 17.524 0 0 0-14.06-7.92l-60.62-2.1a3.284 3.284 0 0 0-3.4 3.28v8.959c0 .848-.877 1.413-1.649 1.062l-22.721-10.33-7.48 5.461a2.522 2.522 0 0 1-3.441-.442l-18.529-22.709a10.884 10.884 0 0 0-7.04-3.91l-36.33-4.71a12.35 12.35 0 0 0-12.75 6.94l-25.49 53.47 2.34 29.64c.91 11.525-8.197 21.38-19.759 21.38h-27.081c-6.456 0-11.69-5.234-11.69-11.69v-6.77c0-3.44 1.52-6.7 4.14-8.92l17.32-14.65v-93.1a43.747 43.747 0 0 1-18.76-19.551z">
    </path>
    <path stroke-width="0" stroke="#000" fill="#3b81f7" d="m265.793 122.435-5.651-15.341a56.313 56.313 0 0 0-1.523-3.713l-.03-.066-17.222 7.824-.462.194-73.735 111.086c-7.074 10.658-1.35 25.076 11.094 28.039a53.116 53.116 0 0 0 12.296 1.447 53.277 53.277 0 0 0 22.242-4.858 22.884 22.884 0 0 0 9.759 2.189 22.936 22.936 0 0 0 20.98-13.7l1.758-4.005c6.899-1.454 12.9-6.056 15.976-12.513 14.41-30.091 16.057-65.297 4.518-96.583z">
    </path>
    <path stroke-width="0" stroke="#000" fill="#3b81f7" d="M247.026 129.349c9.74 26.41 8.37 55.64-3.79 81.03-.51 1.07-1.56 1.64-2.62 1.64-.74 0-1.48-.27-2.06-.86l-4.26-4.33-9.07 20.67c-.78 1.77-3.04 2.3-4.52 1.06l-6.54-5.48-5.76 3.65c-13.6 8.6-31.39 6.29-42.34-5.5l9.25-107.3 16.14-13.38c3.78-3.14 8.01-5.22 12.38-6.33 14.24-3.63 29.95 3.1 36.53 17.34.35.78.69 1.58.99 2.4z">
    </path>
    <path stroke-width="0" stroke="#000" fill="#3b81f7" d="m97.445 278.899-2.52-9.5a157.5 157.5 0 0 1 18.53-123.58l4.05-6.5c.69-1.11.65-2.52-.09-3.59l-9.85-14.2c-.93-1.34-.5-3.18.92-3.98l11.52-6.47a3.269 3.269 0 0 0 .83-5.05l-4.91-5.41c-1.18-1.3-.86-3.35.65-4.24l7.45-4.34a101.828 101.828 0 0 1 34.28-12.395 101.89 101.89 0 0 0-68.209 12.395l-7.45 4.34a2.764 2.764 0 0 0-.65 4.24l4.91 5.41a3.269 3.269 0 0 1-.83 5.05l-11.52 6.47c-1.42.8-1.85 2.64-.92 3.98l9.85 14.2c.74 1.07.78 2.48.09 3.59l-4.05 6.5a157.5 157.5 0 0 0-18.53 123.58l2.52 9.5.06 71.06c12.74-2.22 23.51-11.93 26.41-25.38a5.217 5.217 0 0 1 3.12-3.72 274.855 274.855 0 0 0 4.373-1.856z">
    </path>
    <path stroke-width="15" stroke="#000" d="M64.506 176.731a7.47 7.47 0 0 0 2.819.554 7.501 7.501 0 0 0 6.951-4.68 150.628 150.628 0 0 1 11.621-22.826l4.044-6.496a10.764 10.764 0 0 0-.293-11.829l-6.878-9.917 6.981-3.917a10.712 10.712 0 0 0 5.359-7.664 10.71 10.71 0 0 0-2.653-8.962l-.976-1.076 2.392-1.393c24.817-14.448 54.426-16.833 81.235-6.55.064.025.129.049.194.072l10.286 3.624-15.058 12.487a7.5 7.5 0 0 0 9.575 11.547l16.137-13.381c6.111-5.069 14.014-6.796 21.687-4.733 7.669 2.062 13.643 7.518 16.39 14.968l5.672 15.381c8.224 22.299 7.848 47.145-.875 69.149a7.501 7.501 0 0 0-11.693 2.729l-6.603 15.047-1.839-1.54a7.497 7.497 0 0 0-8.828-.586l-5.762 3.648c-10.538 6.675-24.343 4.878-32.825-4.264a7.5 7.5 0 0 0-10.996 10.204c7.975 8.594 18.923 13.076 29.992 13.075a40.775 40.775 0 0 0 21.854-6.342l1.135-.718 2.341 1.96a10.456 10.456 0 0 0 9.049 2.154 10.449 10.449 0 0 0 7.151-5.947l5.08-11.578A10.395 10.395 0 0 0 250 213.615c12.963-27.057 14.444-58.719 4.064-86.866l-4.15-11.253 37.209-16.914c41.915-19.052 90.637-16.505 130.336 6.814l4.068 2.389a142.116 142.116 0 0 1 24.477 18.17 7.472 7.472 0 0 0 5.09 1.993 7.5 7.5 0 0 0 5.094-13.006 157.114 157.114 0 0 0-27.063-20.092l-4.068-2.389c-43.901-25.787-97.785-28.604-144.14-7.536l-37.505 17.048c-5.174-7.228-12.668-12.471-21.59-14.869-5.833-1.569-11.748-1.768-17.411-.707l-24.029-8.466c-31.049-11.88-65.323-9.102-94.057 7.629l-7.451 4.338a10.212 10.212 0 0 0-4.978 7.295 10.212 10.212 0 0 0 2.538 8.461l1.344 1.481-6.897 3.87a10.28 10.28 0 0 0-4.978 6.64 10.289 10.289 0 0 0 1.566 8.152l8.266 11.917-2.574 4.137a165.407 165.407 0 0 0-12.783 25.107 7.503 7.503 0 0 0 4.128 9.773zM157.444 286.358a51.139 51.139 0 0 0 12.026 10.99v24.744c0 4.143 3.357 7.5 7.5 7.5s7.5-3.357 7.5-7.5v-29.007a7.5 7.5 0 0 0-3.965-6.615 36.183 36.183 0 0 1-19.165-31.968v-2.695c0-4.143-3.357-7.5-7.5-7.5s-7.5 3.357-7.5 7.5v2.695a51.253 51.253 0 0 0 3.098 17.513c-.042.058-.089.112-.13.172-11.072 16.275-30.392 29.929-59.062 41.739a12.717 12.717 0 0 0-7.598 9.07c-1.434 6.654-5.385 12.331-11.127 15.984-.151.096-.306.184-.459.277l-.05-60.366a7.558 7.558 0 0 0-.25-1.916l-2.518-9.498c-5.581-21.053-6.52-42.615-2.791-64.087a7.501 7.501 0 0 0-6.106-8.673 7.493 7.493 0 0 0-8.673 6.106c-4.101 23.619-3.067 47.337 3.07 70.497l2.269 8.557.052 62.985a25.67 25.67 0 0 1-3.735-.57l-39.974-9.151c-4.464-1.026-8.933.997-11.116 5.023-2.184 4.027-1.438 8.872 1.856 12.056l26.999 26.104c4.601 4.449 9.689 8.064 15.102 10.835-2.753 2.372-5.903 4.28-9.322 5.562l-4.832 1.812c-5.495 2.062-9.188 7.389-9.188 13.258v13.768c0 3.932 1.655 7.719 4.54 10.39a14.206 14.206 0 0 0 10.712 3.728l10.019-.774c22.174-1.716 41.461-15.449 50.336-35.841l5.831-13.4c16.333-9.099 27.43-24.905 30.434-44.064l5.971-38.075c6.95-5.378 12.844-11.09 17.746-17.165zM45.971 419.945l-9.114.704v-12.276l4.286-1.607c7.673-2.877 14.482-7.822 19.62-14.171a59.87 59.87 0 0 0 11.711 1.157c3.782 0 7.6-.368 11.413-1.086l-.178.409a44.843 44.843 0 0 1-37.738 26.87zm72.939-80.674c-2.745 17.505-14.414 31.316-31.215 36.947-16.796 5.628-34.435 1.639-47.173-10.678l-14.315-13.841 22.776 5.214c10.576 2.423 21.441.547 30.593-5.277 8.808-5.605 14.973-14.195 17.461-24.287 9.476-3.948 18.031-8.123 25.711-12.552zM497.635 281.64c16.568-47.348 9.322-100.196-19.384-141.37a7.498 7.498 0 0 0-10.441-1.863 7.5 7.5 0 0 0-1.863 10.441c25.959 37.234 32.513 85.024 17.53 127.837l-10.718 30.625a48.597 48.597 0 0 0-1.664 26.165l8.733 41.063c.21.988.284 2.001.22 3.012l-2.697 42.508a.704.704 0 0 1-.702.659h-47.091a.704.704 0 0 1-.704-.703v-9.686c0-.214.097-.414.263-.548l12.37-9.965a7.498 7.498 0 0 0 2.795-5.841V373.06c0-4.881-1.413-9.62-4.086-13.706l-8.713-13.312a25.057 25.057 0 0 0-20.075-11.308l-60.624-2.1c-2.911-.109-5.773 1-7.865 3.021a10.843 10.843 0 0 0-3.256 6.888l-13.801-6.273a7.496 7.496 0 0 0-7.524.77l-3.675 2.682-15.545-19.049a18.317 18.317 0 0 0-11.892-6.613l-36.329-4.707a19.805 19.805 0 0 0-20.48 11.149l-24.229 50.831a18.445 18.445 0 0 0-1.733 9.374l2.11 26.726c.273 3.464-.875 6.776-3.233 9.328s-5.57 3.957-9.045 3.957h-27.092a4.19 4.19 0 0 1-4.185-4.185v-6.772c0-1.234.54-2.398 1.481-3.195l17.322-14.65a7.497 7.497 0 0 0 2.657-5.727v-32.111c0-4.143-3.357-7.5-7.5-7.5s-7.5 3.357-7.5 7.5v28.632l-14.665 12.403a19.145 19.145 0 0 0-6.796 14.648v6.772c0 10.578 8.606 19.185 19.185 19.185h27.092a27.395 27.395 0 0 0 20.061-8.775 27.392 27.392 0 0 0 7.171-20.69l-2.11-26.724c-.047-.6.064-1.203.322-1.743l13.274-27.848 10.362 13.69.581 26.962-5.142 6.339a18.11 18.11 0 0 0-4.049 10.58l-.398 8.024a18.31 18.31 0 0 0 5.001 13.471 18.307 18.307 0 0 0 13.207 5.664h27.686c15.078 0 27.346-12.268 27.346-27.347v-29.646c0-2.294-.29-4.58-.861-6.793l-6.46-25.063 7.257 8.893a7.5 7.5 0 0 0 10.231 1.316l5.877-4.288 20.382 9.265a7.5 7.5 0 0 0 10.603-6.828v-6.397l25.09.869-3.287 34.394a.7.7 0 0 1-.391.559l-8.717 4.203c-5.689 2.742-9.365 8.595-9.365 14.911v16.453c0 9.127 7.426 16.553 16.553 16.553h20.658c4.143 0 7.5-3.357 7.5-7.5s-3.357-7.5-7.5-7.5H374.51a1.555 1.555 0 0 1-1.553-1.553v-16.453c0-.593.345-1.142.879-1.398l8.719-4.204c4.914-2.37 8.288-7.215 8.807-12.644l3.374-35.301 16.154.559a10.04 10.04 0 0 1 8.043 4.531l8.713 13.312a10.007 10.007 0 0 1 1.638 5.492v17.325l-9.576 7.714a15.635 15.635 0 0 0-5.852 12.229v9.686c0 8.659 7.045 15.703 15.704 15.703h47.091c8.265 0 15.148-6.461 15.673-14.709l2.697-42.508a26.11 26.11 0 0 0-.519-7.083l-8.733-41.063a33.601 33.601 0 0 1 1.15-18.089zM292.597 407.319c0 6.808-5.538 12.347-12.346 12.347h-27.686a3.209 3.209 0 0 1-2.34-1.004 3.209 3.209 0 0 1-.886-2.387l.398-8.027a3.206 3.206 0 0 1 .716-1.873l6.874-8.474a7.499 7.499 0 0 0 1.674-4.886l-.692-32.141a7.498 7.498 0 0 0-1.518-4.365l-16.519-21.825 3.684-7.73a4.852 4.852 0 0 1 5.011-2.729l31.298 4.056 11.945 46.345c.256.991.386 2.017.386 3.046v29.647z" fill="#000000">
    </path>
    <path stroke-width="0" stroke="#000" d="M109.827 169.802v6.473c0 4.143 3.357 7.5 7.5 7.5s7.5-3.357 7.5-7.5v-6.473c0-4.143-3.357-7.5-7.5-7.5s-7.5 3.357-7.5 7.5z" fill="#000000">
    </path>
  </g>
</svg>