<svg xmlns="http://www.w3.org/2000/svg" version="1.1" width="50" height="50" x="0" y="0" viewBox="0 0 506.382 506.382" style="" xml:space="preserve"><path fill="#ffffff" d="M44.012 420.1a6.66 6.66 0 014.322-6.235l4.83-1.812a38.414 38.414 0 0019.15-15.697l12.56-27.533 23.305-18.078 11.988-32.978-49.95 38.744-12.558 27.536a38.423 38.423 0 01-19.15 15.697l-4.83 1.812a6.66 6.66 0 00-4.322 6.236v13.768a6.66 6.66 0 007.173 6.64l7.483-.58v-7.517z"/><path fill="#f8f7f8" d="m97.916 284.493-7.93 40.085c-2.9 13.45-13.67 23.16-26.41 25.38-4.16.72-8.54.65-12.92-.36l-39.97-9.15c-2.55-.58-4.26 2.56-2.38 4.38l27 26.1c31.5 30.45 84.23 12.78 91.01-30.5l6.12-39.03.49-2.14v-21.364z"/><path fill="#ffffff" d="m296.376 360.738-10.115-39.243-16.04-65.107-69.284 47.044 30.604 32.143 13.594 17.96.088-.184a24.465 24.465 0 0141.04-4.94l10.076 12.348.038-.02zm157.617-50.522-61.556-1.643-5.435 47.83 13 .45a23.028 23.028 0 0118.474 10.405 20.224 20.224 0 013.3 11.074 17.685 17.685 0 01-6.593 13.776l-.208.167a23.114 23.114 0 00-8.618 18.054v9.68c0 2.888.535 5.654 1.503 8.207h29.72z"/><path fill="#ffffff" d="m117.436 280.814-19.52 3.68-7.93 40.084c-2.9 13.45-13.67 23.16-26.41 25.38-4.16.72-8.54.65-12.92-.36l-39.97-9.15c-2.55-.58-4.26 2.56-2.38 4.38l13.682 13.226 38.07 8.715a32.63 32.63 0 0012.92.36c12.286-2.142 22.74-11.247 26.07-23.955.245-.932.548-1.845.968-2.713a131.117 131.117 0 001.645-3.492c1.193-2.706 3.362-4.865 6.055-6.086 8.03-3.64 15.28-7.43 21.888-11.418l2.833-18.07.49-2.14v-21.363zM106.91 303.73l.41-2.066.59-.11z"/><path fill="#ffffff" d="m158.206 273.54-2.7 2.87c-6.14 9.02-14.26 16.89-23.92 23.83-11.03 7.94-24.07 14.68-38.48 20.62a5.217 5.217 0 00-3.12 3.72c-2.9 13.45-13.67 23.16-26.41 25.38l-.06-71.06-2.52-9.5a157.5 157.5 0 0118.53-123.58l4.05-6.5c.69-1.11.65-2.52-.09-3.59l-9.85-14.2a2.76 2.76 0 01.92-3.98l11.52-6.47a3.27 3.27 0 00.83-5.05l-4.91-5.41c-1.18-1.3-.86-3.35.65-4.24l7.45-4.34a101.874 101.874 0 0187.7-7.07l26.02 9.17.02.08c14.24-3.63 29.95 3.1 36.53 17.34l1-.42 42.66-19.38c44.18-20.09 95.38-17.41 137.23 7.17l4.07 2.39c61.44 36.09 88.76 110.59 65.23 177.84l-10.72 30.63a41.15 41.15 0 00-1.41 22.13l8.74 41.06c.35 1.66.47 3.35.37 5.05l-2.7 42.5a8.208 8.208 0 01-8.19 7.69h-47.09c-4.53 0-8.2-3.67-8.2-8.21v-9.68c0-2.48 1.12-4.83 3.05-6.39l12.37-9.96v-20.92c0-3.41-.99-6.74-2.86-9.6l-8.71-13.31a17.524 17.524 0 00-14.06-7.92l-60.62-2.1a3.284 3.284 0 00-3.4 3.28v8.958c0 .848-.877 1.413-1.65 1.062l-22.72-10.33-7.48 5.46a2.522 2.522 0 01-3.44-.44l-18.53-22.71a10.884 10.884 0 00-7.04-3.91l-36.33-4.71a12.35 12.35 0 00-12.75 6.94l-25.49 53.47 2.34 29.64c.91 11.525-8.197 21.38-19.76 21.38h-27.08c-6.456 0-11.69-5.234-11.69-11.69v-6.77c0-3.44 1.52-6.7 4.14-8.92l17.32-14.65v-93.1a43.747 43.747 0 01-18.76-19.55z"/><path fill="#ffffff" d="m265.793 122.435-5.65-15.34a56.313 56.313 0 00-1.524-3.714l-.03-.065-17.223 7.824-.462.193L167.17 222.42c-7.074 10.657-1.35 25.075 11.094 28.038a53.116 53.116 0 0012.296 1.447 53.277 53.277 0 0022.242-4.858 22.884 22.884 0 009.76 2.19 22.936 22.936 0 0020.98-13.7l1.757-4.006c6.898-1.453 12.9-6.055 15.975-12.512 14.41-30.09 16.057-65.297 4.518-96.583z"/><path fill="#ffffff" d="M247.026 129.35c9.74 26.41 8.37 55.64-3.79 81.03-.51 1.07-1.56 1.64-2.62 1.64-.74 0-1.48-.27-2.06-.86l-4.26-4.33-9.07 20.67c-.78 1.77-3.04 2.3-4.52 1.06l-6.54-5.48-5.76 3.65c-13.6 8.6-31.39 6.29-42.34-5.5l9.25-107.3 16.14-13.38c3.78-3.14 8.01-5.22 12.38-6.33 14.24-3.63 29.95 3.1 36.53 17.34.35.78.69 1.58.99 2.4z"/><path fill="#ffffff" d="m97.445 278.9-2.52-9.5a157.5 157.5 0 0118.53-123.58l4.05-6.5c.69-1.11.65-2.52-.09-3.59l-9.85-14.2a2.76 2.76 0 01.92-3.98l11.52-6.47a3.27 3.27 0 00.83-5.05l-4.91-5.41c-1.18-1.3-.86-3.35.65-4.24l7.45-4.34a101.828 101.828 0 0134.28-12.396A101.89 101.89 0 0090.095 92.04l-7.45 4.34a2.764 2.764 0 00-.65 4.24l4.91 5.41a3.27 3.27 0 01-.83 5.05l-11.52 6.47a2.76 2.76 0 00-.92 3.98l9.85 14.2c.74 1.07.78 2.48.09 3.59l-4.05 6.5A157.5 157.5 0 0060.996 269.4l2.52 9.5.06 71.06c12.74-2.22 23.51-11.93 26.41-25.38a5.217 5.217 0 013.12-3.72 274.855 274.855 0 004.374-1.857z"/><path stroke-width="15" stroke="#000" d="M64.506 176.73a7.47 7.47 0 002.82.555 7.5 7.5 0 006.95-4.68 150.628 150.628 0 0111.62-22.826l4.045-6.497a10.764 10.764 0 00-.292-11.83l-6.878-9.916 6.98-3.917a10.712 10.712 0 005.36-7.664 10.71 10.71 0 00-2.653-8.962l-.976-1.076 2.393-1.393c24.817-14.448 54.426-16.833 81.235-6.55.064.025.13.05.194.072l10.286 3.624-15.058 12.488a7.5 7.5 0 009.575 11.547l16.137-13.38c6.11-5.07 14.014-6.797 21.687-4.734 7.668 2.063 13.642 7.52 16.39 14.97l5.67 15.38c8.225 22.3 7.85 47.145-.874 69.15a7.5 7.5 0 00-11.693 2.728l-6.603 15.047-1.84-1.54a7.497 7.497 0 00-8.827-.586l-5.762 3.647c-10.537 6.675-24.342 4.878-32.824-4.264a7.5 7.5 0 00-10.996 10.204c7.975 8.594 18.923 13.076 29.992 13.075a40.775 40.775 0 0021.854-6.342l1.135-.718 2.342 1.96a10.456 10.456 0 009.05 2.154 10.45 10.45 0 007.15-5.947l5.08-11.58A10.395 10.395 0 00250 213.616c12.963-27.057 14.444-58.72 4.064-86.866l-4.15-11.254 37.21-16.914c41.914-19.052 90.636-16.505 130.335 6.814l4.067 2.39a142.116 142.116 0 0124.477 18.17 7.472 7.472 0 005.09 1.992 7.5 7.5 0 005.094-13.006A157.114 157.114 0 00429.125 94.85l-4.068-2.39c-43.9-25.786-97.785-28.603-144.14-7.535l-37.505 17.048c-5.174-7.228-12.668-12.47-21.59-14.87-5.833-1.568-11.748-1.767-17.41-.706l-24.03-8.466c-31.05-11.88-65.323-9.1-94.057 7.63l-7.45 4.338a10.212 10.212 0 00-4.98 7.295 10.212 10.212 0 002.54 8.46l1.343 1.482-6.897 3.87a10.28 10.28 0 00-4.977 6.64 10.29 10.29 0 001.566 8.152l8.265 11.917-2.574 4.137A165.407 165.407 0 0060.38 166.96a7.503 7.503 0 004.128 9.773zm92.938 109.628a51.14 51.14 0 0012.026 10.99v24.744c0 4.143 3.357 7.5 7.5 7.5s7.5-3.357 7.5-7.5v-29.007a7.5 7.5 0 00-3.965-6.615 36.183 36.183 0 01-19.165-31.968v-2.695c0-4.143-3.357-7.5-7.5-7.5s-7.5 3.357-7.5 7.5v2.695a51.253 51.253 0 003.098 17.513c-.042.058-.09.112-.13.172-11.072 16.275-30.392 29.93-59.062 41.74a12.717 12.717 0 00-7.598 9.07c-1.434 6.653-5.385 12.33-11.127 15.983-.15.096-.305.184-.458.277l-.05-60.366a7.558 7.558 0 00-.25-1.915l-2.518-9.498c-5.58-21.053-6.52-42.615-2.79-64.087a7.5 7.5 0 00-6.107-8.673 7.493 7.493 0 00-8.673 6.106c-4.1 23.62-3.067 47.337 3.07 70.497l2.27 8.557.05 62.985a25.67 25.67 0 01-3.734-.57l-39.974-9.15c-4.464-1.027-8.933.996-11.116 5.022-2.184 4.027-1.438 8.872 1.856 12.056l27 26.104c4.6 4.45 9.688 8.064 15.1 10.835-2.752 2.371-5.902 4.28-9.32 5.561l-4.833 1.813c-5.495 2.062-9.188 7.39-9.188 13.258v13.77a14.2 14.2 0 004.54 10.39 14.206 14.206 0 0010.712 3.727l10.02-.774c22.173-1.716 41.46-15.449 50.335-35.84l5.83-13.4c16.334-9.1 27.43-24.906 30.435-44.065l5.97-38.075c6.95-5.378 12.845-11.09 17.747-17.165zM45.97 419.945l-9.113.704v-12.277l4.286-1.607c7.673-2.877 14.482-7.822 19.62-14.17a59.87 59.87 0 0011.71 1.156c3.783 0 7.6-.368 11.414-1.086l-.178.41a44.843 44.843 0 01-37.74 26.87zm72.94-80.674c-2.745 17.506-14.414 31.317-31.215 36.948-16.796 5.628-34.435 1.64-47.173-10.678L26.207 351.7l22.776 5.213c10.576 2.423 21.44.547 30.593-5.277 8.808-5.605 14.973-14.195 17.46-24.287 9.477-3.95 18.032-8.124 25.712-12.553zm378.725-57.63c16.568-47.348 9.322-100.196-19.384-141.37a7.498 7.498 0 00-10.44-1.863 7.5 7.5 0 00-1.863 10.44c25.96 37.235 32.513 85.025 17.53 127.838L472.76 307.31a48.597 48.597 0 00-1.665 26.165l8.733 41.063c.21.988.284 2 .22 3.012l-2.697 42.508a.704.704 0 01-.7.66h-47.092a.704.704 0 01-.704-.704v-9.686c0-.214.097-.414.263-.548l12.37-9.965a7.498 7.498 0 002.795-5.84V373.06c0-4.88-1.413-9.62-4.086-13.706l-8.713-13.312a25.057 25.057 0 00-20.075-11.308l-60.624-2.1c-2.91-.11-5.773 1-7.865 3.02a10.843 10.843 0 00-3.257 6.89l-13.8-6.274a7.496 7.496 0 00-7.525.77l-3.675 2.682-15.545-19.05a18.317 18.317 0 00-11.892-6.612l-36.33-4.707a19.805 19.805 0 00-20.48 11.149l-24.228 50.83a18.445 18.445 0 00-1.733 9.375l2.11 26.726c.273 3.464-.875 6.776-3.233 9.328s-5.57 3.958-9.045 3.958h-27.092a4.19 4.19 0 01-4.185-4.185v-6.772a4.18 4.18 0 011.48-3.194l17.323-14.65a7.497 7.497 0 002.657-5.727v-32.112c0-4.143-3.357-7.5-7.5-7.5s-7.5 3.357-7.5 7.5v28.632l-14.665 12.403a19.145 19.145 0 00-6.796 14.648v6.773c0 10.578 8.605 19.185 19.184 19.185h27.092a27.395 27.395 0 0020.06-8.775 27.392 27.392 0 007.172-20.69l-2.11-26.724c-.047-.601.064-1.204.322-1.744l13.274-27.848 10.362 13.69.58 26.962-5.14 6.339a18.11 18.11 0 00-4.05 10.579l-.398 8.023a18.31 18.31 0 005 13.47 18.307 18.307 0 0013.208 5.665h27.686c15.078 0 27.346-12.268 27.346-27.347v-29.645c0-2.294-.29-4.58-.86-6.793l-6.46-25.063 7.256 8.892a7.5 7.5 0 0010.231 1.316l5.877-4.288 20.382 9.265a7.5 7.5 0 0010.603-6.828v-6.397l25.09.87-3.287 34.393a.7.7 0 01-.39.56l-8.718 4.202c-5.689 2.742-9.365 8.595-9.365 14.91v16.454c0 9.126 7.426 16.552 16.553 16.552h20.658c4.143 0 7.5-3.357 7.5-7.5s-3.357-7.5-7.5-7.5H374.51a1.555 1.555 0 01-1.553-1.553v-16.454c0-.593.345-1.142.88-1.398l8.718-4.204c4.914-2.37 8.288-7.215 8.807-12.644l3.374-35.301 16.154.558a10.04 10.04 0 018.043 4.53l8.713 13.313a10.007 10.007 0 011.638 5.493v17.325l-9.576 7.714a15.635 15.635 0 00-5.852 12.23v9.685c0 8.66 7.045 15.703 15.704 15.703h47.09c8.266 0 15.15-6.46 15.674-14.71l2.697-42.507a26.11 26.11 0 00-.518-7.083l-8.733-41.063a33.6 33.6 0 011.15-18.09zM292.597 407.32c0 6.807-5.538 12.346-12.346 12.346h-27.685a3.21 3.21 0 01-2.34-1.004 3.21 3.21 0 01-.886-2.387l.397-8.027a3.206 3.206 0 01.716-1.873l6.874-8.474a7.5 7.5 0 001.674-4.885l-.69-32.14a7.498 7.498 0 00-1.52-4.366l-16.518-21.826 3.684-7.73a4.852 4.852 0 015.01-2.73l31.3 4.057 11.944 46.346c.256.99.386 2.017.386 3.046v29.647z" fill="#000000"/><path d="M109.827 169.802v6.473c0 4.143 3.357 7.5 7.5 7.5s7.5-3.357 7.5-7.5v-6.473c0-4.143-3.357-7.5-7.5-7.5s-7.5 3.357-7.5 7.5z" fill="#000000"/></svg>