<!--version="1.0" encoding="utf-8"--><svg version="1.1" id="Layer_1" xmlns="http://www.w3.org/2000/svg" width="52" height="42" xml:space="preserve"><g id="PathID_14" transform="matrix(1, 0, 0, 1, 25.95, 21)"><path style="fill: rgb(255, 255, 255); fill-opacity: 1;" d="M14.45-15.85h.15l1.05.05h.15l1.2.45q1.2.7 1.8 1.6h.4l.85.3q1.15.5 1.8 1.7l.7 1.85.7.7q.6.9.75 2.2.05 1.1-.25 1.95l.25.95v.1q.15.85-.25 1.9v.2l-.15.15q-.4.9-1.2 1.6L22 .7q-.4.8-1.6 1.5l-.15.05-2 .5-.85.4-.15.05-1.75.05-.25-.1-1.6-.65-.1-.05-2.05 4.8Q7.5 14.85 0 19.1q-7.55-4.25-11.5-11.85l-2.05-4.85-.15.1-1.6.65-.25.1-1.7-.05-.15-.05-.85-.4h-.05l-2.05-.5-.25-.15-1.45-1.4-.4-.85-1.15-1.6-.05-.15h-.05l-.05-.2q-.4-1-.3-1.9v-.35l.1-.1.2-.55-.25-2q0-1.2.75-2.2l.65-.7.7-1.85q.65-1.15 1.8-1.7l.9-.25.35-.05q.6-.9 1.85-1.6l1.15-.4.2-.05 1-.05h.15l.15.05v-3.3l14.25 3 14.45-3v3.3l.1-.05m-1.55 2.1-1.45-.6-1.35.15-.7.7-.65 1.15-.8-.9-.3-.05H6.3q-.85.15-1.25.65-.3.3-.45.95l-.1.8H3.35q-.8 0-1.6.5l-.9.95L0-7.9l-.85-1.55-.95-.95q-.85-.5-1.5-.5l-1.05 1-.3-1.8q-.05-.55-.4-.95-.45-.55-1.3-.65h-1.3l-.3.05-.8.9-.65-1.15-.75-.7-.85-.2-.45.05-1.5.6-.55.55-.6-.45-.65-.3h-.6l-.3-.9.25.95-.7.25-1.2 1.05-.05.85-1-.1h-.5l-.4.15q-.6.2-1 .9l-.5 1.45.05.55-.5.3-.5.45q-.4.55-.4 1.15l.15 1.35.45.45-.4.65-.25.6v.05l.15.95.15.15v.2q.3.65.8 1l.35.25.05.4.25.55.9.8.05.05 1.15.3h.05l.45-.2.45.4.45.25h.05l.95.05 1.1-.4.55-.5h.2l.5-.2q.55-.35.75-.95.3-.65.2-1.2l-.2-.35.2-.45.05-.6q-.05-.7-.65-1.2l-.05-.05Q-13.9-5-14.55-5l-.3.15.1.05.45.5q.45.6.45 1.15l-.1.45-.05.1v.15l-.1.2-.4.7-.6 1.15-.9-.55h-.65l-.7.1-.6-1.05-1.3-.55.45-.9.1-.45-.15-.35-.45-.75.7-.6.4-.45v-.5l-.2-1.1 1.5-.05.25-.1.2-.35.35-1.1 1 .55.5.2.4-.2.1-.1.8-1.05.75 1.05.7.65h.15l.45-.15 1.1-.65.3 1.25.35.8h.65l1.55-.45-.35 1.55-.1 1 .55.15 1.65.15-1 1.35-.45.75.15.15V-2q.8 1.25 4.1 3.2l.8.5-.5.85-.65 1.7q0 1.15 1.05 1.95l.45.35-.05.6.9 3.8.7 2.35 1.7-6.1-.2-.55L2 6.2l.6-.65q.75-1.25.05-2.5l-.3-.7.55-.45Q6.15-.9 6.95-2.2L7-2.3 6.5-3l-1-1.4 1.7-.15q.35 0 .5-.15l-.05-1-.4-1.55 1.55.45h.65q.2 0 .4-.8l.25-1.25 1.15.65.4.15h.15l.7-.65.75-1.05.8 1 .15.15.35.2q.15 0 .5-.2l1-.55.55 1.45.3.1 1.45.05-.2 1.1v.5l.45.45.65.5-.6 1.2.15.45.4.9-1.25.55-.25.4-.3.75-.8-.2-.35-.05-.3.05-.8.6-.7-1.2-.4-.7-.15-.45-.05-.4q0-.55.4-1.2l.45-.5.1-.05-.25-.15h-.15q-.6 0-1.15.45l-.05.05q-.65.55-.7 1.2l.1.6.15.45-.2.35q-.05.45.2 1.2.25.6.75.95l.55.2.45.25.25.2.95.4.15.05.95-.05h.05l.5-.25.45-.4.45.2 1.15-.3.1-.05.9-.8.2-.55.05-.4.35-.25.9-1.15.2-1.2v-.05l-.2-.55-.4-.6.4-.5.2-1.35-.4-1.15-.5-.45-.5-.3v-.55l-.45-1.45-1-.9-.4-.15h-.5l-1 .1-.05-.85-1.2-1.05-.7-.25-.1-.05h-.6l-.65.3-.6.4-.55-.5M2.5-3 0 1l-2.5-4L0-6.95 2.5-3"/><path style="fill: rgb(0, 0, 0); fill-opacity: 1;" d="M14.35-15.8v-3.3l-14.45 3-14.25-3v3.3l-.15-.05h-.15l-1 .05-.2.05-1.15.4q-1.25.7-1.85 1.6l-.35.05-.9.25q-1.15.55-1.8 1.7l-.7 1.85-.65.7Q-24-8.2-24-7l.25 2-.2.55-.1.1V-4q-.1.9.3 1.9l.05.2h.05l.05.15 1.15 1.6.4.85 1.45 1.4.25.15 2.05.5h.05l.85.4.15.05 1.7.05.25-.1 1.6-.65.15-.1 2.05 4.85Q-7.55 14.85 0 19.1q7.5-4.25 11.5-11.85l2.05-4.8.1.05 1.6.65.25.1 1.75-.05.15-.05.85-.4 2-.5.15-.05q1.2-.7 1.6-1.5l.4-.85q.8-.7 1.2-1.6l.15-.15v-.2q.4-1.05.25-1.9v-.1l-.25-.95q.3-.85.25-1.95-.15-1.3-.75-2.2l-.7-.7-.7-1.85q-.65-1.2-1.8-1.7l-.85-.3h-.4q-.6-.9-1.8-1.6l-1.2-.45h-.15l-1.05-.05h-.15l-.1.05m-.9 2.55.6-.4.65-.3h.6l.1.05.7.25 1.2 1.05.05.85 1-.1h.5l.4.15 1 .9.45 1.45v.55l.5.3.5.45.4 1.15-.2 1.35-.4.5.4.6.2.55v.05l-.2 1.2L21-1.5l-.35.25-.05.4-.2.55-.9.8-.1.05-1.15.3-.45-.2-.45.4-.5.25h-.05l-.95.05-.15-.05-.95-.4-.25-.2-.45-.25-.55-.2Q13-.1 12.75-.7q-.25-.75-.2-1.2l.2-.35-.15-.45-.1-.6q.05-.65.7-1.2l.05-.05Q13.8-5 14.4-5h.15l.25.15-.1.05-.45.5q-.4.65-.4 1.2l.05.4.15.45.4.7.7 1.2.8-.6.3-.05.35.05.8.2.3-.75.25-.4 1.25-.55-.4-.9-.15-.45.6-1.2-.65-.5-.45-.45v-.5l.2-1.1-1.45-.05-.3-.1-.55-1.45-1 .55q-.35.2-.5.2l-.35-.2-.15-.15-.8-1-.75 1.05-.7.65h-.15l-.4-.15-1.15-.65-.25 1.25q-.2.8-.4.8H8.8l-1.55-.45.4 1.55.05 1q-.15.15-.5.15l-1.7.15 1 1.4.5.7-.05.1Q6.15-.9 2.9 1.9l-.55.45.3.7q.7 1.25-.05 2.5L2 6.2l-.55.45.2.55-1.7 6.1-.7-2.35-.9-3.8.05-.6-.45-.35Q-3.1 5.4-3.1 4.25l.65-1.7.5-.85-.8-.5Q-6.05-.75-6.85-2v-.15L-7-2.3l.45-.75 1-1.35-1.65-.15-.55-.15.1-1 .35-1.55-1.55.45h-.65l-.35-.8-.3-1.25-1.1.65-.45.15h-.15l-.7-.65-.75-1.05-.8 1.05-.1.1-.4.2-.5-.2-1-.55-.35 1.1-.2.35-.25.1-1.5.05.2 1.1v.5l-.4.45-.7.6.45.75.15.35-.1.45-.45.9 1.3.55.6 1.05.7-.1h.65l.9.55.6-1.15.4-.7.1-.2v-.15l.05-.1.1-.45q0-.55-.45-1.15l-.45-.5-.1-.05.3-.15q.65 0 1.3.45l.05.05q.6.5.65 1.2l-.05.6-.2.45.2.35q.1.55-.2 1.2-.2.6-.75.95l-.5.2h-.2l-.55.5-1.1.4-.95-.05h-.05l-.45-.25-.45-.4-.45.2h-.05l-1.15-.3-.05-.05-.9-.8-.25-.55-.05-.4-.35-.25q-.5-.35-.8-1v-.2l-.15-.15-.15-.95v-.05l.25-.6.4-.65-.45-.45-.15-1.35q0-.6.4-1.15l.5-.45.5-.3-.05-.55.5-1.45q.4-.7 1-.9l.4-.15h.5l1 .1.05-.85 1.2-1.05.7-.25-.25-.95.3.9h.6l.65.3.6.45.55-.55 1.5-.6.45-.05.85.2.75.7.65 1.15.8-.9.3-.05h1.3q.85.1 1.3.65.35.4.4.95l.3 1.8 1.05-1q.65 0 1.5.5l.95.95L0-7.9l.85-1.55.9-.95q.8-.5 1.6-.5H4.5l.1-.8q.15-.65.45-.95.4-.5 1.25-.65h1.35l.3.05.8.9.65-1.15.7-.7 1.35-.15 1.45.6.55.5m6.35-2.3 1.05.35q1.7.8 2.65 2.45l.8 1.85.45.55q1 1.35 1.15 3.2l-.15 2.05.15.75v.15q.15 1.15-.25 2.4v.7l-.5.5-1.1 1.5-.4.8Q22.9 3 21.3 3.9l-.2.1q-1.1.5-2.3.6l-.8.35h-.1l-.2.1-1.4.15-1.1-.1-.6-.15Q10.65 15.25 1.15 20.6L.8 21H-.8l-.4-.4q-9.45-5.4-13.4-15.65l-.6.15-1.1.1-1.45-.2-.15-.05h-.1l-.8-.3-2.4-.7-.05-.05-.3-.15q-1.45-.9-2.1-2.05l-.45-.8-1.05-1.45-.05-.05-.2-.4v-.1l-.15-.35q-.5-1.25-.4-2.65v-1.05l.15-.15-.15-1.85q.15-1.75 1.15-3.2l.45-.55.8-1.85q1.15-1.7 2.65-2.45l1.05-.35L-17.9-17l1.65-.65V-21h1.9L-.1-18l14.45-3h1.9v3.35l1.65.65 1.9 1.45M0-6.95-2.5-3 0 1l2.5-4L0-6.95"/></g></svg>