<!--version="1.0" encoding="UTF-8"--><svg version="1.1" id="Layer_1" xmlns="http://www.w3.org/2000/svg" width="37" height="37" xml:space="preserve"><g id="PathID_96" transform="matrix(1, 0, 0, 1, 18.3, 18.4)"><path style="fill: rgb(0, 0, 0); fill-opacity: 1;" d="m10.85-12.85-3.05-3.5q-.35-.35-.75 0l-3.2 3.75q-.35.45 0 .85l2.9 3.35L.3-1.5l-7.8-8.45 5.5-5 1-.8q.4-.3-.05-.3l-3.4.6-1.95.5q-2.5.75-4.05 1.8l-.4-.4-.65-.1-.1.1-1.05 1.25q-.35.35-.05.85l.3.35Q-14-8.25-15.45-1.05l-1.15 6.6q-.1.9.15.05L-14 .65l2.5-4.7 2.05-3.45 7.2 8.8-10.4 11.2q-.35.45 0 .85l2.55 2.95q.3.4.7 0L.3 4.4l9.75 11.9q.4.4.7 0l2.55-2.95q.35-.4 0-.85L2.9 1.3 8.85-6l1.35 1.55.85.6L16.2-1.7q.55.2.35-.35l-1.85-6-.55-1-1.45-1.65.65-.75q.3-.5-.05-.85l-1.05-1.25q-.35-.45-.75 0l-.65.7m2.6-2.1 1.05 1.25q1.1 1.2.5 2.85l.35.45.95 1.7 1.85 6q.35 1.15-.25 2.05-.35.6-.95.8L15.65.1 10.45-2Q9.6-2.35 9-3.1l-.1-.1-3.6 4.4 9.15 9.9q.7.7.7 1.8 0 1.15-.65 1.8l-2.55 2.95q-.6.75-1.55.75-.95 0-1.6-.8L.3 7.25-8.15 17.6q-.6.75-1.55.8-.95 0-1.6-.75l-2.55-2.9q-.65-.7-.65-1.85 0-1.1.7-1.8l9.15-9.9-4.6-5.65-2.25 4.1-1.55 3-1.9 3.9q-.55 1.2-1.6 1.2h-.8l-.55-.65q-.5-.7-.35-1.85Q-16.8-5.65-14.4-11q-.45-1.6.55-2.7l1.05-1.25q.5-.55 1.2-.7h.1l1.2.2 1.8-.85q3.15-1.3 7.3-1.7h.2q1.4 0 1.8 1.45.25.9-.1 1.6l-.7.8-4.95 4.3L.3-4.15l4-4.3-1.65-1.95Q2-11.05 2-12.2q0-1.1.65-1.8l3.25-3.7.6-.45.95-.25q.9 0 1.55.7l1.95 2.25 1.3-.2 1.2.7"/><path style="fill: rgb(59, 129, 247); fill-opacity: 1;" d="M11.5-13.55q.4-.45.75 0l1.05 1.25q.35.35.05.85l-.65.75 1.45 1.65.55 1 1.85 6q.2.55-.35.35l-5.15-2.15-.85-.6L8.85-6 2.9 1.3l10.4 11.2q.35.45 0 .85l-2.55 2.95q-.3.4-.7 0L.3 4.4l-9.7 11.9q-.4.4-.7 0l-2.55-2.95q-.35-.4 0-.85l10.4-11.2-7.2-8.8-2.05 3.45-2.5 4.7-2.45 4.95q-.25.85-.15-.05l1.15-6.6Q-14-8.25-12.4-11.1l-.3-.35q-.3-.5.05-.85l1.05-1.25.1-.1.65.1.4.4q1.55-1.05 4.05-1.8l1.95-.5 3.4-.6q.45 0 .05.3l-1 .8-5.5 5L.3-1.5l6.45-6.9-2.9-3.35q-.35-.4 0-.85l3.2-3.75q.4-.35.75 0l3.05 3.5.65-.7"/></g></svg>