<?xml version="1.0" encoding="UTF-8"?>
<svg version="1.1" id="Layer_1" xmlns="http://www.w3.org/2000/svg" xmlns:xlink="http://www.w3.org/1999/xlink" width="37px" height="37px" xml:space="preserve">
<g id="PathID_96" transform="matrix(1, 0, 0, 1, 18.3, 18.4)">
<path style="fill:#000000;fill-opacity:1" d="M10.85 -12.85L7.8 -16.35Q7.45 -16.7 7.05 -16.35L3.85 -12.6Q3.5 -12.15 3.85 -11.75L6.75 -8.4L0.3 -1.5L-7.5 -9.95L-2 -14.95L-1 -15.75Q-0.6 -16.05 -1.05 -16.05L-4.45 -15.45L-6.4 -14.95Q-8.9 -14.2 -10.45 -13.15L-10.85 -13.55L-11.5 -13.65L-11.6 -13.55L-12.65 -12.3Q-13 -11.95 -12.7 -11.45L-12.4 -11.1Q-14 -8.25 -15.45 -1.05L-16.6 5.55Q-16.7 6.45 -16.45 5.6L-14 0.65L-11.5 -4.05L-9.45 -7.5L-2.25 1.3L-12.65 12.5Q-13 12.95 -12.65 13.35L-10.1 16.3Q-9.8 16.7 -9.4 16.3L0.3 4.4L10.05 16.3Q10.45 16.7 10.75 16.3L13.3 13.35Q13.65 12.95 13.3 12.5L2.9 1.3L8.85 -6L10.2 -4.45L11.05 -3.85L16.2 -1.7Q16.75 -1.5 16.55 -2.05L14.7 -8.05L14.15 -9.05L12.7 -10.7L13.35 -11.45Q13.65 -11.95 13.3 -12.3L12.25 -13.55Q11.9 -14 11.5 -13.55L10.85 -12.85M13.45 -14.95L14.5 -13.7Q15.6 -12.5 15 -10.85L15.35 -10.4L16.3 -8.7L18.15 -2.7Q18.5 -1.55 17.9 -0.65Q17.55 -0.05 16.95 0.15L15.65 0.1L10.45 -2Q9.6 -2.35 9 -3.1L8.9 -3.2L5.3 1.2L14.45 11.1Q15.15 11.8 15.15 12.9Q15.15 14.05 14.5 14.7L11.95 17.65Q11.35 18.4 10.4 18.4Q9.45 18.4 8.8 17.6L0.3 7.25L-8.15 17.6Q-8.75 18.35 -9.7 18.4Q-10.65 18.4 -11.3 17.65L-13.85 14.75Q-14.5 14.05 -14.5 12.9Q-14.5 11.8 -13.8 11.1L-4.65 1.2L-9.25 -4.45L-11.5 -0.35L-13.05 2.65L-14.95 6.55Q-15.5 7.75 -16.55 7.75L-17.35 7.75L-17.9 7.1Q-18.4 6.4 -18.25 5.25Q-16.8 -5.65 -14.4 -11Q-14.85 -12.6 -13.85 -13.7L-12.8 -14.95Q-12.3 -15.5 -11.6 -15.65L-11.5 -15.65L-10.3 -15.45L-8.5 -16.3Q-5.35 -17.6 -1.2 -18L-1 -18Q0.4 -18 0.8 -16.55Q1.05 -15.65 0.7 -14.95L0 -14.15L-4.95 -9.85L0.3 -4.15L4.3 -8.45L2.65 -10.4Q2 -11.05 2 -12.2Q2 -13.3 2.65 -14L5.9 -17.7L6.5 -18.15L7.45 -18.4Q8.35 -18.4 9 -17.7L10.95 -15.45L12.25 -15.65L13.45 -14.95"/>
<path style="fill:#FFFFFF;fill-opacity:1" d="M11.5 -13.55Q11.9 -14 12.25 -13.55L13.3 -12.3Q13.65 -11.95 13.35 -11.45L12.7 -10.7L14.15 -9.05L14.7 -8.05L16.55 -2.05Q16.75 -1.5 16.2 -1.7L11.05 -3.85L10.2 -4.45L8.85 -6L2.9 1.3L13.3 12.5Q13.65 12.95 13.3 13.35L10.75 16.3Q10.45 16.7 10.05 16.3L0.3 4.4L-9.4 16.3Q-9.8 16.7 -10.1 16.3L-12.65 13.35Q-13 12.95 -12.65 12.5L-2.25 1.3L-9.45 -7.5L-11.5 -4.05L-14 0.65L-16.45 5.6Q-16.7 6.45 -16.6 5.55L-15.45 -1.05Q-14 -8.25 -12.4 -11.1L-12.7 -11.45Q-13 -11.95 -12.65 -12.3L-11.6 -13.55L-11.5 -13.65L-10.85 -13.55L-10.45 -13.15Q-8.9 -14.2 -6.4 -14.95L-4.45 -15.45L-1.05 -16.05Q-0.6 -16.05 -1 -15.75L-2 -14.95L-7.5 -9.95L0.3 -1.5L6.75 -8.4L3.85 -11.75Q3.5 -12.15 3.85 -12.6L7.05 -16.35Q7.45 -16.7 7.8 -16.35L10.85 -12.85L11.5 -13.55"/>
</g>
</svg>