<svg width="40" height="38" xmlns="http://www.w3.org/2000/svg" preserveAspectRatio="xMidYMid meet">

 <g>
  <title>background</title>
  <rect fill="none" id="canvas_background" height="41" width="42" y="-1" x="-1"/>
 </g>
 <g>
  <title>Layer 1</title>
  <path d="m1.163483,35.956478c0,0 0,-0.128944 0,-0.19342c0,0 0,-0.064472 0,-0.19342c0,0 0,-0.064472 0,-0.193417c0,-0.064476 0.091177,-0.102242 0,-0.19342c-0.091179,-0.091179 -0.128947,-0.064476 -0.128947,-0.064476c-0.064473,0 -0.064473,-0.064472 -0.064473,-0.193417c0,0 0,-0.064476 0,-0.19342c0,-0.064476 0,-0.064476 0,-0.19342c0,-0.064472 0,-0.064472 0,-0.128948c0,-0.128944 0.045591,-0.147827 0,-0.19342c-0.091179,-0.091179 -0.128947,-0.128944 -0.128947,-0.128944c0,-0.064472 0,-0.19342 0,-0.257893c0,0 0,-0.064476 0,-0.19342c0,0 0,-0.064472 0,-0.19342c0,0 0,-0.064472 0,-0.19342c0,-0.064472 0,-0.064472 0,-0.128944c0,-0.128948 0.018884,-0.083359 0.064473,-0.128948c0.045589,-0.045589 0,-0.19342 0,-0.19342c0,-0.064472 0,-0.19342 0,-0.257893c0,0 0,-0.064472 0,-0.19342c0,0 -0.018884,-0.018883 -0.064473,-0.064472c-0.09118,-0.091179 -0.064473,-0.128948 -0.064473,-0.128948c0,-0.064472 0,-0.064472 0,-0.193419c0,-0.064474 -0.128946,-0.064474 -0.128946,-0.064474c0,-0.064472 0,-0.19342 0,-0.19342c0,-0.064472 0,-0.193419 0,-0.193419c0,-0.064474 0,-0.19342 0,-0.19342c0,-0.064474 0,-0.19342 0,-0.257893c0,0 0,-0.064474 0,-0.19342c0,0 0,-0.064474 0,-0.19342c0,0 0,-0.064472 0,-0.19342c0,-0.064472 -0.04559,-0.083357 0,-0.128946c0.045589,-0.045589 0.064473,-0.128946 0.064473,-0.128946c0,-0.064472 0,-0.19342 0,-0.19342c0.064473,0 0.064473,-0.064472 0.064473,-0.193419c0,-0.064474 0,-0.064474 0,-0.128948c0,-0.128946 0,-0.128946 0,-0.193419c0,-0.128946 0.128947,-0.128946 0.128947,-0.19342c0,-0.19342 0.064473,-0.19342 0.064473,-0.257893c0,-0.128946 -0.067791,-0.212679 0,-0.322367c0.075793,-0.122637 0.128947,-0.257893 0.128947,-0.257893c0,-0.064474 0.064473,-0.19342 0.064473,-0.19342c0,-0.064474 0,-0.19342 0,-0.257895c0,-0.128946 -0.009546,-0.272615 0.064473,-0.451313c0.069785,-0.168476 0.128947,-0.193419 0.128947,-0.322365c0,-0.128948 0.064473,-0.257895 0.064473,-0.451315c0,0 0,-0.193419 0,-0.257893c0,-0.19342 0,-0.19342 0,-0.386839c0,-0.064474 0.054929,-0.272617 0.128947,-0.451313c0.034893,-0.08424 0.064473,-0.19342 0.064473,-0.386841c0,-0.128946 -0.056049,-0.330666 0,-0.515785c0.067364,-0.222488 0.128947,-0.386841 0.128947,-0.580261c0,-0.064472 -0.044439,-0.327539 0,-0.515785c0.033123,-0.14031 0.064473,-0.322367 0.064473,-0.386841c0,-0.128946 0,-0.193419 0,-0.257893c0,-0.128946 0,-0.322367 0,-0.515787c0,0 0,-0.128946 0,-0.257893c0,-0.19342 0,-0.257893 0,-0.386839c0,-0.19342 -0.020655,-0.324032 0,-0.451313c0.032658,-0.20125 0.064473,-0.322367 0.064473,-0.386841c0,-0.128946 0,-0.257893 0,-0.322367c0,-0.128946 0,-0.128946 0,-0.257893c0,-0.064474 -0.024673,-0.133854 0,-0.19342c0.069785,-0.168476 0.160297,-0.311003 0.19342,-0.451313c0.029626,-0.125496 0,-0.322367 0,-0.515785c0,-0.128948 0,-0.322367 0,-0.644733c0,-0.128946 0.128947,-0.257895 0.128947,-0.386841c0,-0.128946 0,-0.257893 0,-0.322367c0,-0.128946 0,-0.193419 0,-0.257893c0,-0.064472 0,-0.128946 0,-0.19342c0,-0.128946 0,-0.193419 0,-0.257893c0,-0.128946 -0.031351,-0.182056 -0.064473,-0.322367c-0.044439,-0.188246 0,-0.257893 0,-0.386839c0,-0.19342 0,-0.257895 0,-0.451313c0,-0.128947 -0.064473,-0.257894 -0.064473,-0.386841c0,-0.193419 0,-0.322366 0,-0.515786c0,-0.193419 0,-0.38684 0,-0.580259c0,-0.19342 0,-0.38684 0,-0.644733c0,-0.193419 -0.128947,-0.38684 -0.128947,-0.644732c0,-0.128947 0,-0.257894 0,-0.38684c0,-0.064473 0,-0.128946 0,-0.19342c0,-0.064473 0,-0.128946 0,-0.193419c0,-0.064473 0,-0.128946 0,-0.257894c0,-0.064473 0.03135,-0.117583 0.064473,-0.257893c0.014813,-0.062748 -0.024673,-0.133855 0,-0.19342c0.034893,-0.084238 0.015127,-0.203235 0.064473,-0.322367c0.069785,-0.168477 0.160297,-0.182056 0.19342,-0.322366c0.029626,-0.125498 0.160297,-0.246531 0.19342,-0.38684c0.014813,-0.062748 -0.049346,-0.138762 0,-0.257894c0.034893,-0.084238 0.064473,-0.128946 0.064473,-0.193419c0,-0.064473 -0.045589,-0.147831 0,-0.19342c0.091179,-0.091179 0.128947,-0.064473 0.128947,-0.128946c0,-0.128946 0,-0.193419 0,-0.322367c0,-0.064473 0,-0.128946 0,-0.193419c0,-0.064473 0,-0.128947 0,-0.19342c0,-0.064473 0,-0.128946 0,-0.193419c0,-0.064473 0,-0.128947 0,-0.19342c0,-0.064473 0,-0.128946 0,-0.193419c0,-0.128946 0,-0.19342 0,-0.257894c0,-0.064473 0,-0.128946 0,-0.257893c0,-0.064474 0,-0.19342 0,-0.257894c0,-0.064473 0,-0.19342 0,-0.257893c0,-0.128947 -0.024673,-0.198328 0,-0.257894c0.034893,-0.084239 0.064473,-0.128946 0.064473,-0.19342c0,-0.064473 0,-0.128946 0,-0.193419c0,-0.064474 0,-0.128947 0,-0.19342c0,-0.064474 0,-0.128947 0,-0.257894c0,-0.064473 0,-0.193419 0,-0.257893c0,-0.064473 0.128947,-0.128946 0.128947,-0.257893c0,-0.128947 0.064473,-0.19342 0.064473,-0.322367c0,-0.064473 0,-0.193419 0,-0.322366c0,-0.128947 0.128947,-0.257893 0.128947,-0.322367c0,-0.128946 0.064473,-0.193419 0.064473,-0.322366c0,-0.064473 0.029581,-0.173655 0.064473,-0.257893c0.024673,-0.059566 0.114134,-0.130672 0.128947,-0.19342c0.033123,-0.14031 0.018884,-0.212304 0.064473,-0.257894c0.091179,-0.091179 0.19342,0 0.19342,0c0,-0.064473 0.14783,-0.018884 0.19342,-0.064473c0.045589,-0.045589 0.064473,-0.064473 0.19342,-0.064473c0.064473,0 0.064473,0 0.19342,0c0.064474,0 0.064474,0 0.19342,0c0.064473,0 0.064473,0 0.19342,0c0.064473,0 0.083357,-0.04559 0.128947,0c0.045589,0.045589 0.114133,0.066198 0.128946,0.128946c0.033123,0.14031 0.097548,0.167244 0.19342,0.322367c0.107187,0.173433 0.091479,0.220426 0.19342,0.322367c0.101941,0.101941 0.110829,0.342367 0.322367,0.515786c0.179772,0.147378 0.344126,0.342354 0.451313,0.515786c0.143807,0.232685 0.346063,0.393457 0.38684,0.515787c0.101941,0.305824 0.332101,0.156968 0.451313,0.322366c0.075397,0.104607 0.009816,0.079601 0.128947,0.128947c0.084238,0.034893 0.064473,0.128947 0.193419,0.257893c0.064474,0.064474 0.151267,0.109957 0.257894,0.257893c0.084296,0.116954 0.155951,0.220426 0.257893,0.322367c0.101942,0.101941 0.162998,0.136576 0.19342,0.19342c0.109689,0.204956 0.19342,0.257893 0.257894,0.322366c0.128947,0.128947 0.159524,0.267523 0.193419,0.322367c0.075792,0.122635 0.193419,0.257894 0.193419,0.257894c0,0.064473 0.123635,0.089417 0.19342,0.257893c0.024673,0.059566 0.086793,0.109958 0.193419,0.257894c0.084295,0.116954 0.086793,0.238903 0.19342,0.38684c0.084296,0.116954 0.155951,0.284899 0.257893,0.38684c0.101942,0.101941 0.224771,0.24653 0.257894,0.38684c0.029626,0.125497 0.160297,0.182055 0.19342,0.322366c0.014813,0.062749 0.02958,0.173656 0.064473,0.257894c0.024673,0.059566 -0.04559,0.14783 0,0.19342c0.091179,0.091179 0.128946,0.064473 0.128946,0.128946c0,0.064473 0,0.128946 0,0.193419c0,0 0,0.064473 0,0.128947c0,0.064473 0.064473,0.064473 0.064473,0.128946c0,0.064473 0.083357,0.083357 0.128946,0.128946c0.04559,0.04559 0.064474,0.064473 0.064474,0.128947c0,0 0.083357,0.018884 0.128946,0.064473c0.045589,0.045589 0.064473,0.064473 0.128946,0.064473c0.128946,0 0.128946,0.064473 0.19342,0.064473c0.128946,0 0.128946,0 0.193419,0c0.128947,0 0.19342,0 0.19342,0c0.064473,0 0.193419,0 0.193419,0c0.064473,-0.064473 0.19342,-0.064473 0.19342,-0.128946c0,-0.064473 -0.04559,-0.083357 0,-0.128947c0.045589,-0.045589 0.064473,-0.064473 0.064473,-0.193419c0,-0.064473 0.128946,-0.128946 0.128946,-0.19342c0,-0.064473 0,-0.128946 0,-0.193419c0,-0.064473 -0.064473,-0.064473 -0.064473,-0.128946c0,-0.064473 -0.03135,-0.117584 -0.064473,-0.257894c-0.014812,-0.062748 -0.064473,-0.193419 -0.064473,-0.257894c0,-0.064473 -0.064474,-0.128946 -0.064474,-0.193419c0,-0.064473 -0.02958,-0.109181 -0.064473,-0.193419c-0.024673,-0.059566 0,-0.128947 0,-0.19342c0,-0.064473 0,-0.193419 0,-0.257893c0,-0.128947 0,-0.19342 0,-0.322367c0,-0.064473 0,-0.19342 0,-0.257894c0,-0.128946 0,-0.193419 0,-0.257894c0,-0.128946 0,-0.257893 0,-0.386839c0,-0.064474 0,-0.128947 0,-0.19342c0,-0.064473 0,-0.193419 0,-0.257894c0,-0.064473 0,-0.128946 0,-0.193419c0,-0.064473 0,-0.128947 0,-0.19342c0,-0.064473 0.128947,-0.128947 0.128947,-0.19342c0,-0.064473 0,-0.128947 0,-0.19342c0,-0.064473 0.064473,-0.128947 0.064473,-0.19342c0,-0.064473 -0.033895,-0.138576 0,-0.19342c0.075792,-0.122635 0.128946,-0.128946 0.128946,-0.19342c0,-0.128946 0.064473,-0.19342 0.064473,-0.322366c0,-0.128947 -0.029626,-0.261343 0,-0.38684c0.033123,-0.14031 0.123634,-0.153889 0.19342,-0.322367c0.024673,-0.059566 0.03135,-0.24653 0.064473,-0.386839c0.029626,-0.125497 0.128946,-0.19342 0.128946,-0.322367c0,-0.064473 0.03135,-0.182056 0.064473,-0.322366c0.014813,-0.062749 0.158527,-0.109182 0.19342,-0.19342c0.024673,-0.059566 0.053154,-0.070785 0.128946,-0.19342c0.033895,-0.054844 0.064473,-0.128947 0.064473,-0.257894c0,-0.064473 0.018884,-0.083357 0.064473,-0.128946c0.09118,-0.091179 0.109182,-0.158527 0.19342,-0.19342c0.119131,-0.049346 0.128946,-0.064473 0.193419,-0.128947c0,0 0.128947,-0.064473 0.19342,-0.128947c0,0 0.001725,-0.04966 0.064473,-0.064473c0.14031,-0.033123 0.109181,-0.094054 0.193419,-0.128947c0.119132,-0.049346 0.231188,0.026706 0.322367,-0.064473c0.045589,-0.04559 0.064473,-0.064473 0.064473,0.064473c0,0 0.163795,0.132396 0.19342,0.257893c0.033123,0.14031 0.092495,0.267628 0.257893,0.38684c0.156911,0.113095 0.295661,-0.026706 0.38684,0.064473c0.045589,0.045589 0.05311,0.160297 0.19342,0.19342c0.062749,0.014813 0.212303,0.083357 0.257893,0.128947c0.136769,0.136769 0.257894,0.064473 0.38684,0.064473c0.064473,0 0.173656,0.029581 0.257894,0.064473c0.059566,0.024673 0.193419,0 0.193419,0c0.064473,0 0.19342,0 0.257893,0c0.128948,0 0.19342,0 0.19342,0c0,-0.064473 0.173655,-0.158527 0.257893,-0.19342c0.119133,-0.049347 0.119453,-0.075633 0.19342,-0.128946c0.116953,-0.084296 0.109182,-0.158527 0.19342,-0.19342c0.059566,-0.024673 0.102242,0.026705 0.19342,-0.064473c0.045589,-0.04559 -0.009495,-0.075634 0.064472,-0.128947c0.116953,-0.084296 0.119452,-0.075633 0.19342,-0.128947c0.116955,-0.084295 0.083357,-0.083357 0.128946,-0.128947c0.045589,-0.04559 0.14094,0.019824 0.257895,-0.064473c0.073967,-0.053313 0.193419,-0.064473 0.193419,-0.064473c0.064474,-0.064473 0.147831,-0.083357 0.19342,-0.128947c0.091179,-0.091179 0.257893,-0.064473 0.257893,-0.064473c0.064474,-0.064473 0.183926,-0.075633 0.257895,-0.128947c0.116955,-0.084295 0.257893,-0.128947 0.386839,-0.128947c0,0 0.069649,-0.020035 0.257893,-0.064473c0.14031,-0.033123 0.19342,-0.064473 0.257895,-0.064473c0.064472,0 0.203234,0.049347 0.322367,0c0.084238,-0.034893 0.193419,-0.064473 0.257893,-0.064473c0.064472,0 0.128946,0 0.19342,0c0.064472,0 0.183924,0.01116 0.257893,0.064473c0.116955,0.084295 0.19342,0.064473 0.322367,0.128947c0.128946,0.064473 0.257893,0.19342 0.451313,0.19342c0.064472,0 0.196186,0.04579 0.257893,0.064473c0.222488,0.067364 0.246529,0.160297 0.386841,0.19342c0.062748,0.014812 0.168745,0.069381 0.193419,0.128947c0.034893,0.084239 0.14094,0.04465 0.257895,0.128947c0.073967,0.053313 0.178606,0.130671 0.193419,0.19342c0.033123,0.140311 0.19342,0.128947 0.19342,0.128947c0.128946,0.064473 0.196871,0.09932 0.322367,0.128946c0.14031,0.033123 0.19342,0.064474 0.322367,0.128947c0,0 0.064472,0 0.128946,0c0.064474,0 0.128946,0 0.19342,0c0.128946,0 0.119452,-0.01116 0.193419,-0.064473c0.116955,-0.084297 0.104275,-0.133854 0.128948,-0.19342c0.034891,-0.084238 0.140106,-0.119452 0.193419,-0.19342c0.084295,-0.116954 0.079603,-0.203235 0.128948,-0.322366c0.069786,-0.168477 0.215738,-0.238904 0.322365,-0.38684c0.084295,-0.116954 0.070786,-0.246573 0.19342,-0.322366c0.054844,-0.033896 0.128946,-0.064473 0.257893,-0.128947c0,0 0.064474,0 0.19342,0c0,0 0,0.064473 0.064474,0.064473c0.064472,0 0.064472,0 0.128946,0c0.064472,0 0.083357,0.018884 0.128946,0.064473c0.045589,0.04559 0.067924,0.034847 0.19342,0.064473c0.14031,0.033123 0.147831,0.018883 0.19342,0.064473c0.045589,0.04559 0.044708,0.094054 0.128946,0.128947c0.059565,0.024672 0.064472,0.128947 0.128946,0.128947c0,0 0.018883,0.018884 0.064472,0.064473c0.045589,0.04559 0.166716,0.037768 0.257895,0.128947c0.045589,0.045589 0.044651,0.076465 0.128946,0.19342c0.053312,0.073968 0.155952,0.155952 0.257893,0.257893c0.10194,0.101941 0.257893,0.19342 0.257893,0.19342c0.064474,0.064473 0.083359,0.14783 0.128948,0.19342c0.045589,0.045588 0.094053,0.044708 0.128946,0.128946c0.024673,0.059566 -0.009546,0.14367 0.064472,0.322367c0.034893,0.084239 0.160297,0.182057 0.19342,0.322367c0.029625,0.125497 0.128946,0.193419 0.128946,0.322366c0,0.128947 0.01116,0.248398 0.064474,0.322367c0.084295,0.116953 0.094053,0.302601 0.128946,0.386839c0.074018,0.178697 0.096466,0.316422 0.128946,0.58026c0.007877,0.06399 0.033493,0.260391 0.064474,0.451313c0.032658,0.20125 0.095823,0.375476 0.128946,0.515787c0.029627,0.125497 0.128946,0.322366 0.128946,0.515786c0,0.064473 0,0.19342 0,0.38684c0,0.128946 0,0.257894 0,0.38684c0,0.128946 0.064474,0.193419 0.064474,0.322367c0,0.064473 0,0.193419 0,0.257893c0,0.064474 0,0.128947 0,0.19342c0,0.064473 0.053154,0.070785 0.128946,0.193419c0.033895,0.054845 0,0.128947 0,0.257894c0,0.064473 0,0.128946 0,0.257894c0,0.128946 0,0.193419 0,0.322366c0,0.064473 -0.024673,0.133855 0,0.19342c0.034891,0.084238 0.064472,0.128946 0.064472,0.193419c0,0.064473 0,0.128947 0,0.19342c0,0.064473 0,0.128946 0,0.193419c0,0.064473 0.018885,0.083357 0.064474,0.128946c0.045589,0.045588 0.083357,0.018884 0.128946,0.064474c0.045589,0.045589 0.064474,0.064473 0.128946,0.064473c0.064474,0 0.128946,0 0.257893,0c0,0 -0.045589,-0.018884 0,-0.064473c0.045589,-0.04559 0.104275,-0.069382 0.128948,-0.128947c0.034891,-0.084238 0.160295,-0.117583 0.193419,-0.257893c0.014812,-0.062749 0.094055,-0.173655 0.128948,-0.257894c0.024673,-0.059566 0.031349,-0.117583 0.064472,-0.257894c0.014812,-0.062749 0.053154,-0.135258 0.128946,-0.257893c0.033895,-0.054844 0,-0.128946 0,-0.19342c0,0 -0.024673,-0.069381 0,-0.128946c0.034893,-0.084239 0.095823,-0.117583 0.128946,-0.257893c0.014812,-0.06275 0.049662,-0.130672 0.064474,-0.19342c0.033123,-0.14031 0.160297,-0.182055 0.19342,-0.322367c0.029627,-0.125497 0.064472,-0.193419 0.064472,-0.257893c0,-0.064474 0.030579,-0.20305 0.064474,-0.257894c0.075792,-0.122635 0.128946,-0.128946 0.128946,-0.193419c0,-0.064474 0.015129,-0.138762 0.064474,-0.257894c0.034891,-0.084238 0.083357,-0.083356 0.128946,-0.128946c0.045589,-0.04559 0.044649,-0.205413 0.128946,-0.322367c0.053314,-0.073969 0.109125,-0.205412 0.19342,-0.322367c0.106627,-0.147936 0.128946,-0.257894 0.193419,-0.38684c0.064474,-0.128947 0.109125,-0.205413 0.19342,-0.322366c0.053314,-0.073969 0.155952,-0.220426 0.257893,-0.322367c0.101944,-0.101942 0.19342,-0.193421 0.257893,-0.257893c0.064476,-0.064474 0.128948,-0.193419 0.257896,-0.322367c0.064472,-0.064473 0.109119,-0.14094 0.193417,-0.257893c0.053314,-0.073969 0.155952,-0.155951 0.257896,-0.257893c0.10194,-0.101939 0.155949,-0.220425 0.257893,-0.322367c0.10194,-0.101939 0.220425,-0.155952 0.322365,-0.257893c0.10194,-0.101942 0.173595,-0.205413 0.257893,-0.322366c0.053314,-0.07397 0.173656,-0.158527 0.257893,-0.19342c0.059566,-0.024674 0.109184,-0.094054 0.19342,-0.128947c0.059566,-0.024674 0.083359,-0.018885 0.128948,-0.064473c0.045589,-0.04559 0.064472,-0.064474 0.128944,-0.064474c0.064476,0 0.064476,-0.064473 0.128948,-0.064473c0.064472,0 0.128948,0 0.19342,0c0.064472,0 0.140942,-0.019823 0.257893,0.064473c0.073967,0.053314 0.213409,0.086232 0.386841,0.19342c0.155121,0.095871 0.238903,0.215739 0.386841,0.322367c0.116951,0.084295 0.193417,0.193419 0.322365,0.322367c0.064472,0.064473 0.21574,0.174431 0.322365,0.322366c0.084297,0.116955 0.140106,0.183926 0.19342,0.257893c0.084297,0.116955 0.037769,0.29566 0.128948,0.38684c0.045589,0.045588 0.158527,0.173654 0.19342,0.257893c0.049347,0.119131 0.043819,0.259559 0.064472,0.38684c0.032658,0.20125 0.034847,0.325817 0.064472,0.451313c0.033123,0.140311 0.064476,0.257893 0.064476,0.38684c0,0.064473 0,0.19342 0,0.322367c0,0.128946 0.018883,0.276778 0.064472,0.322366c0.045589,0.045589 0,0.19342 0,0.257894c0,0.064473 0,0.128946 0,0.193419c0,0.19342 0,0.19342 0,0.257894c0,0.128946 0,0.193419 0,0.257893c0,0.064474 0,0.19342 0,0.322367c0,0 0,0.064473 0,0.19342c0,0.128946 0,0.257893 0,0.322367c0,0.128946 0,0.322366 0,0.451313c0,0.064473 -0.031349,0.182056 -0.064472,0.322366c-0.029625,0.125498 0,0.19342 0,0.257894c0,0.064473 -0.064476,0.128946 -0.064476,0.193419c0,0.064474 0.024673,0.133855 0,0.19342c-0.034893,0.084238 -0.064472,0.128946 -0.064472,0.193419c0,0.064473 0,0.128947 0,0.19342c0,0.128946 -0.029579,0.173655 -0.064472,0.257893c-0.024673,0.059566 0,0.19342 0,0.257894c0,0.128946 0,0.193419 0,0.322367c0,0.128946 0,0.193419 0,0.257893c0,0.128947 0,0.19342 0,0.322367c0,0.064473 0,0.19342 0,0.257894c0,0.064473 0,0.128946 0,0.193419c0,0.064473 0,0.19342 0,0.257894c0,0.064473 0,0.128946 0,0.193419c0,0.064473 0,0.128947 0,0.19342c0,0.064473 0,0.193419 0,0.322367c0,0.128946 0,0.193419 0,0.322366c0,0.128947 0,0.257894 0,0.38684c0,0.064473 0,0.128947 0,0.19342c0,0.064473 0.064472,0.064473 0.064472,0.128946c0,0.064473 0,0.128946 0,0.193419c0,0.064474 0.018883,0.083359 0.064472,0.128947c0.045589,0.045589 0,0.128946 0,0.193419c0,0.064474 0,0.128946 0,0.19342c0,0.064472 0,0.128946 0,0.19342c0,0.064472 0.029583,0.10918 0.064476,0.193419c0.024673,0.059566 0,0.128946 0,0.19342c0,0.064474 0,0.128946 0,0.19342c0,0.064472 0,0.128946 0,0.19342c0,0.064472 0,0.128946 0,0.193419c0,0.064474 0,0.128946 0,0.19342c0,0.064474 0,0.128946 0,0.19342c0,0.064472 0,0.128946 0,0.193419c0,0.064474 0,0.128948 0,0.19342c0,0.128946 0,0.19342 0,0.257893c0,0.064474 0,0.128948 0,0.19342c0,0.064474 0,0.128946 0,0.19342c0,0.064474 0,0.128946 0,0.19342c0,0.064472 0,0.128946 0,0.193419c0,0.064474 0,0.128948 0,0.19342c0,0.064474 0,0.128946 0,0.19342c0,0.064472 0,0.128946 0,0.19342c0,0.064472 0,0.128946 0,0.193419c0,0.064474 0,0.128946 0,0.19342c0,0.064474 0,0.128946 0,0.257893c0,0.064474 0,0.128948 0,0.19342c0,0.064474 0,0.128946 0,0.19342c0,0.064472 0,0.19342 0,0.257893c0,0.064474 0,0.128946 0,0.19342c0,0.064472 0,0.19342 0,0.257893c0,0.128946 0,0.19342 0,0.257893c0,0.064474 0,0.128948 0,0.19342c0,0.128946 0,0.19342 0,0.257895c0,0.064472 0,0.128946 0,0.193419c0,0.064474 0.029579,0.109182 0.064472,0.19342c0.024673,0.059566 0,0.128946 0,0.19342c0,0.064472 0,0.128946 0,0.193419c0,0.064474 0.064472,0.064474 0.064472,0.128948c0,0.064472 0,0.128946 0,0.193419c0,0.064474 0.031349,0.117584 0.064472,0.257895c0.014812,0.062748 0,0.128946 0,0.193419c0,0.064474 0.064476,0.128948 0.064476,0.19342c0,0.064474 0,0.128946 0,0.19342c0,0.064472 0.064472,0.064472 0.064472,0.128946c0,0.064474 0,0.128946 0,0.19342c0,0.064472 0,0.128946 0,0.193419c0,0.064474 0.064472,0.128948 0.064472,0.19342c0,0.064474 0,0.128946 0,0.19342c0,0.064474 0.018883,0.083355 0.064476,0.128946c0.045589,0.045589 0,0.128946 0,0.19342c0,0.128946 0,0.193419 0,0.257893c0,0.064474 0.029579,0.173656 0.064472,0.257893c0.024673,0.059566 0,0.128948 0,0.19342c0,0.064474 0.029579,0.109182 0.064472,0.19342c0.049343,0.119131 0,0.19342 0,0.257893c0,0.064474 0,0.128946 0,0.19342c0,0.064472 0,0.128946 0,0.19342c0,0.064472 0.029579,0.109182 0.064472,0.193419c0.049347,0.119133 0,0.19342 0,0.257895c0,0.064472 0,0.128946 0,0.193419c0,0.128948 0,0.19342 0,0.257895c0,0.128946 0.029583,0.173653 0.064476,0.257893c0.024673,0.059566 0,0.19342 0,0.257893c0,0.128948 0.064472,0.128948 0.064472,0.322367c0,0.064474 -0.029625,0.132395 0,0.257895c0.033123,0.14031 0.064472,0.193419 0.064472,0.322365c0,0.064474 0.029583,0.173655 0.064476,0.257895c0.049347,0.119131 0.031349,0.246529 0.064472,0.386839c0.014812,0.06275 0.029579,0.109182 0.064472,0.19342c0.049343,0.119131 -0.010326,0.258726 0,0.322367c0.032661,0.20125 0.095825,0.375477 0.128948,0.515787c0.029625,0.125498 0.043819,0.388504 0.064472,0.515785c0.032658,0.20125 0.096287,0.379011 0.128948,0.580261c0.020657,0.127277 0.064472,0.257893 0.064472,0.322365c0,0.064472 0.064472,0.064472 0.064472,0.128948c0,0.064472 0,0.064472 0,0.19342c0,0.064472 0.064476,0.064472 0.064476,0.128944c0,0.064472 0,0.128948 0,0.19342c0,0.064472 0,0.128948 0,0.19342c0,0 0,0.128944 0,0.19342c0,0.064472 0,0.128944 0,0.19342c0,0.064472 0,0.128944 0,0.193417c0,0.064476 0,0.064476 0,0.19342c0,0.064476 0.064472,0.128948 0.064472,0.19342c0,0.064472 0,0.128948 0,0.19342c0,0.064472 0,0.128948 0,0.128948c0,0.128944 0,0.193417 0,0.193417c0,0.128948 0,0.19342 0,0.257896c0,0.064472 0,0.128944 0,0.193417c0,0 0,0.128948 0,0.19342c0,0 0,0.128948 0,0.19342c0,0.064472 0,0.128948 0,0.19342c0,0.064472 -0.018883,0.018883 -0.064472,0.064472c-0.091179,0.091179 -0.064476,0.19342 -0.128948,0.19342c0,0 -0.083355,-0.045593 -0.128948,0c-0.091179,0.091179 -0.018883,0.147831 -0.064472,0.19342c-0.045589,0.045589 -0.19342,0 -0.19342,0.064472c0,0 -0.064472,0 -0.128944,0c-0.064476,0 -0.064476,0.064476 -0.128948,0.064476c-0.064472,0 -0.083359,0.018883 -0.128948,0.064472c-0.045589,0.045589 -0.147827,-0.045589 -0.193417,0c-0.045589,0.045589 -0.064476,0.064472 -0.128948,0.064472c-0.064472,0 -0.128948,0 -0.19342,0c-0.064472,0 -0.128944,0 -0.19342,0c-0.064472,0 -0.128944,0 -0.19342,0c-0.064472,0 -0.064472,0.128948 -0.193417,0.128948c0,0 -0.064476,0 -0.128948,0c-0.064472,0 -0.128948,0 -0.19342,0c-0.064472,0 -0.064472,0.064472 -0.128944,0.064472c-0.064476,0 -0.19342,0 -0.19342,0c-0.064476,0 -0.128948,0 -0.19342,0c-0.064472,0 -0.128948,0 -0.19342,0c-0.064472,0 -0.128948,0 -0.257893,0c-0.064472,0 -0.128948,0 -0.257893,0c-0.064476,0 -0.19342,0 -0.257893,0c-0.128948,0 -0.257896,0 -0.386841,0c-0.19342,0 -0.322369,0 -0.515789,0c-0.193417,0 -0.322365,0 -0.515785,0c-0.19342,0 -0.386841,0 -0.580257,0c-0.19342,0 -0.386841,0 -0.580261,0c-0.128948,0 -0.322365,0 -0.515787,0c-0.128946,0 -0.322367,0 -0.451313,0c-0.193419,0 -0.386839,0 -0.580259,0c-0.128946,0 -0.322367,0 -0.515787,0c-0.193419,0 -0.386839,0 -0.644732,0c-0.19342,0 -0.451313,0 -0.709208,0c-0.257893,0 -0.515785,0 -0.709206,0c-0.257893,0 -0.428587,-0.062698 -0.709206,-0.128944c-0.250996,-0.05925 -0.451313,0 -0.644733,0c-0.257893,0 -0.451313,0 -0.644733,0c-0.19342,0 -0.386839,0 -0.644733,0c-0.193419,0 -0.388288,0.023632 -0.580259,0c-0.263838,-0.032482 -0.515785,-0.064476 -0.77368,-0.064476c-0.257893,0 -0.451313,0 -0.709206,0c-0.257893,0 -0.451313,0 -0.709208,0c-0.193419,0 -0.451313,0 -0.644732,0c-0.257895,0 -0.580259,0 -0.902626,0c-0.257895,0 -0.580261,0 -0.838154,0c-0.322367,0 -0.644733,0 -0.9671,0c-0.322365,0 -0.580259,0 -0.838152,0c-0.257893,0 -0.451313,0 -0.644733,0c-0.128946,0 -0.322367,0 -0.451313,0c-0.19342,0 -0.386839,0 -0.515785,0c-0.19342,0 -0.322367,0 -0.515787,0c-0.19342,0 -0.445368,-0.031994 -0.709207,-0.064472c-0.25596,-0.031509 -0.38684,0 -0.580259,0c-0.19342,0 -0.451313,0 -0.709207,0c-0.128946,0 -0.38684,0 -0.580259,0c-0.19342,0 -0.38684,-0.128948 -0.644733,-0.128948c-0.193419,0 -0.38684,0 -0.709206,0c-0.257894,0 -0.451314,0 -0.644733,0c-0.19342,0 -0.322367,0 -0.644733,0c-0.193419,0 -0.322366,0 -0.580259,0c-0.257894,0 -0.38684,0 -0.580259,0c-0.257894,0 -0.38684,0 -0.58026,0c-0.193419,0 -0.324864,-0.030983 -0.515786,0c-0.201251,0.032661 -0.38684,0.064476 -0.515786,0.064476c-0.064473,0 -0.117584,0.031349 -0.257894,0.064472c-0.062749,0.014812 -0.257893,0 -0.451313,0c-0.064473,0 -0.257893,0.064472 -0.451313,0.064472c-0.128947,0 -0.257893,0 -0.38684,0c-0.19342,0 -0.38684,0 -0.515786,0c-0.19342,0 -0.322367,0 -0.38684,0c0,0 -0.19342,0 -0.257894,0c-0.193419,0 -0.322366,0 -0.386839,0c-0.19342,0 -0.257894,0 -0.38684,0c-0.19342,0 -0.24653,-0.031349 -0.38684,-0.064472c-0.125497,-0.029625 -0.14367,0.07402 -0.322367,0c-0.168478,-0.069786 -0.193419,-0.128948 -0.322366,-0.128948c-0.064473,0 -0.064473,0 -0.19342,0c-0.064473,0 -0.128947,0 -0.128947,0c-0.128947,0 -0.19342,0 -0.19342,0c-0.128947,-0.064472 -0.19342,-0.064472 -0.322366,-0.064472c-0.064473,0 -0.128947,0 -0.128947,-0.128944c0,0 -0.128947,0 -0.19342,0c0,0 -0.130672,0.014812 -0.19342,0c-0.140311,-0.033123 -0.19342,-0.064476 -0.257893,-0.064476c0,0 -0.128947,0 -0.19342,0c0,0 -0.128947,0 -0.19342,0c0,0 -0.128947,0 -0.128947,0c-0.064474,0 -0.128947,0 -0.128947,0c-0.128947,0 -0.19342,0 -0.19342,0c0,-0.128944 -0.128947,-0.128944 -0.19342,-0.128944l0,0" id="svg_10" stroke-opacity="null" stroke-width="null" stroke="null" fill="#3b81f7"/>
  <g id="svg_1" fill="#000000" transform="translate(0,38) scale(0.10000000149011612,-0.10000000149011612) ">
   <path id="svg_2" d="m120,351c-5,-11 -10,-37 -11,-58c-1,-36 -1,-37 -9,-10c-9,30 -49,77 -66,77c-16,0 -38,-328 -23,-346c15,-19 359,-20 377,-2c14,14 16,80 2,94c-5,5 -10,57 -11,114c-1,113 -5,140 -20,140c-15,0 -51,-41 -59,-69l-8,-26l-1,30c-1,17 -8,41 -17,53c-17,25 -49,31 -40,7c4,-12 2,-13 -14,-2c-16,9 -24,9 -41,-2c-19,-11 -21,-11 -16,3c9,24 -30,21 -43,-3zm110,-32c6,-10 10,-28 10,-41c1,-21 1,-22 11,-5c6,11 8,32 5,48c-3,19 -2,28 4,24c6,-3 10,-26 10,-51c0,-37 3,-44 20,-44c15,0 20,7 21,28c2,23 2,24 6,5c6,-32 23,-29 23,5c0,15 4,33 9,40c5,9 11,-22 15,-80c4,-51 9,-123 13,-161l6,-67l-184,2l-184,3l-3,28c-2,16 1,34 7,41c7,8 12,61 12,130c1,116 11,143 24,65c5,-29 10,-38 16,-28c6,10 9,11 9,2c0,-7 10,-13 23,-13c20,0 23,4 19,29c-2,16 1,37 7,48c9,15 11,11 12,-22c1,-39 1,-39 12,-14c27,59 55,69 77,28z"/>
   <path id="svg_3" d="m182,308c-7,-7 -12,-22 -12,-35c0,-19 5,-23 30,-23c33,0 35,5 20,44c-11,29 -20,32 -38,14z"/>
   <path id="svg_4" d="m67,193c-12,-11 -8,-75 4,-67c7,4 7,-1 -1,-16c-13,-25 -7,-50 13,-50c11,0 15,17 15,70c1,51 -3,70 -12,70c-7,0 -16,-3 -19,-7z"/>
   <path id="svg_5" d="m126,192c-3,-4 -5,-36 -4,-70c1,-53 3,-62 19,-62c16,0 18,8 16,67c-2,61 -15,90 -31,65z"/>
   <path id="svg_6" d="m182,131c0,-63 3,-71 19,-71c21,0 24,21 8,52c-8,15 -8,19 1,13c8,-5 10,4 8,31c-2,27 -8,40 -20,42c-15,3 -17,-6 -16,-67z"/>
   <path id="svg_7" d="m237,194c-11,-11 -8,-76 3,-69c7,4 7,-3 0,-20c-11,-30 -6,-45 15,-45c21,0 26,15 15,44c-6,18 -6,26 1,26c17,0 6,64 -11,68c-9,1 -19,0 -23,-4z"/>
   <path id="svg_8" d="m297,193c-12,-11 -8,-75 4,-67c7,4 7,-1 -1,-16c-13,-25 -7,-50 13,-50c11,0 15,17 15,70c1,51 -3,70 -12,70c-7,0 -16,-3 -19,-7z"/>
  </g>
 </g>
</svg>