<svg width="40" height="38" xmlns="http://www.w3.org/2000/svg" preserveAspectRatio="xMidYMid meet"><rect fill="none" id="canvas_background" height="41" width="42" y="-1" x="-1"/><path d="M1.163 35.956V35.376c0-.064.092-.102 0-.193-.09-.091-.128-.065-.128-.065-.065 0-.065-.064-.065-.193v-.515c0-.13.046-.149 0-.194l-.129-.13.001-.257.001-.195.001-.193.001-.193.001-.13c.001-.13.02-.084.066-.13.045-.045 0-.193 0-.193v-.452l-.065-.064c-.09-.092-.063-.13-.063-.13v-.193c0-.065-.13-.065-.13-.065v-1.418c0-.064-.045-.083 0-.129a.31.31 0 00.065-.129v-.193c.065 0 .065-.065.065-.193v-.323c0-.13.129-.13.129-.194 0-.194.064-.194.064-.258 0-.13-.068-.213 0-.323.076-.122.13-.257.13-.257 0-.065.063-.194.063-.194v-.258c0-.129-.01-.272.065-.45.07-.17.129-.194.129-.323 0-.13.064-.258.064-.452.001.001.001-.192.001-.257l.001-.386c.001-.065.056-.273.13-.452a.952.952 0 00.065-.387c0-.129-.056-.33 0-.515.067-.223.129-.387.129-.58 0-.065-.045-.328 0-.516.033-.14.064-.323.064-.387V21.9c0-.192-.02-.323 0-.45.033-.201.065-.322.065-.387v-.579c0-.065-.025-.134 0-.194.07-.17.16-.312.193-.452.03-.125 0-.322 0-.516v-.644c0-.13.13-.258.13-.387v-1.03c0-.13-.032-.183-.065-.323-.044-.188 0-.258 0-.387V16.1c0-.13-.064-.26-.064-.388V13.97c0-.192-.129-.386-.129-.644v-1.031c0-.065.032-.118.065-.258.014-.063-.025-.134 0-.194.035-.084.015-.203.064-.322.07-.167.16-.18.194-.321.03-.127.16-.248.193-.388.015-.063-.05-.139 0-.258.035-.084.064-.129.064-.193 0-.064-.045-.147 0-.193.092-.09.13-.064.13-.129V7.715c0-.129-.025-.198 0-.258.034-.085.064-.13.064-.194v-.903c0-.064.13-.129.13-.258s.064-.193.064-.322V5.46c0-.128.13-.257.13-.322 0-.129.064-.193.064-.322a.81.81 0 01.064-.258c.025-.06.114-.13.13-.193.032-.14.018-.213.064-.258.09-.092.193 0 .193 0 0-.065.147-.02.192-.065.046-.045.065-.064.194-.064h.579c.065 0 .083-.046.13 0 .045.045.113.066.128.129.033.14.098.167.193.322.108.172.092.22.194.321.103.103.112.344.323.517.18.148.344.343.452.516.143.233.346.393.386.516.103.305.333.156.453.321.075.106.01.08.129.13.084.035.064.13.193.258.064.064.151.11.258.258.084.117.156.22.258.322.103.102.164.137.194.194.11.205.194.258.258.322.13.13.16.268.194.322.075.123.193.258.193.258 0 .065.123.09.192.258.025.06.087.11.194.258.084.117.087.24.193.387.084.117.155.285.257.387s.225.246.258.387c.03.126.16.183.193.323.015.063.03.174.065.258.025.06-.046.149 0 .194.091.091.129.065.129.13v.322c0 .064.064.064.064.129 0 .064.084.083.13.128.045.046.064.065.064.13 0 0 .083.018.129.064.044.045.063.064.128.064.129.001.129.066.193.066H11.222c.066-.065.195-.065.195-.13 0-.064-.046-.082 0-.128.045-.046.064-.065.064-.193 0-.065.128-.13.128-.194v-.192c0-.065-.064-.065-.064-.13 0-.064-.032-.117-.065-.257-.016-.062-.065-.193-.065-.257 0-.065-.065-.13-.065-.193 0-.065-.03-.11-.064-.194-.025-.06 0-.129 0-.193V7.782c0-.065.129-.13.129-.194v-.193c0-.065.064-.13.064-.194 0-.063-.035-.137 0-.192.075-.123.128-.13.128-.193 0-.13.065-.194.065-.323 0-.129-.03-.261 0-.387.033-.14.123-.154.193-.322.025-.06.031-.247.065-.387.03-.125.13-.193.13-.322 0-.065.03-.182.064-.323.015-.061.158-.108.193-.192.025-.06.054-.07.13-.193a.458.458 0 00.064-.258c0-.065.02-.084.065-.13.091-.09.11-.158.194-.193.118-.05.128-.064.192-.129 0 0 .13-.064.194-.129 0 0 .001-.05.064-.064.14-.033.11-.094.193-.13.12-.048.232.028.323-.063.045-.047.064-.066.064.063 0 0 .164.132.194.258a.61.61 0 00.258.388c.156.113.295-.027.386.064.046.046.054.16.194.194a.794.794 0 01.258.129c.136.136.258.064.387.064a.81.81 0 01.257.064c.06.024.194 0 .194 0H16.379c0-.065.173-.16.257-.194.12-.05.12-.076.193-.129.117-.083.11-.157.194-.192.06-.025.102.026.193-.065.046-.045-.01-.075.065-.129.117-.084.12-.075.193-.129.117-.084.084-.083.13-.129.045-.045.14.02.257-.064.074-.053.193-.065.193-.065.065-.064.148-.083.194-.128.09-.093.257-.066.257-.066.064-.064.184-.076.258-.129a.677.677 0 01.387-.129s.07-.02.257-.064c.14-.033.193-.065.257-.065.065 0 .204.05.323 0a.81.81 0 01.258-.064h.193c.065 0 .185.01.259.064.116.084.192.065.321.13.13.064.26.193.453.193.064 0 .196.045.257.064.223.067.247.16.387.193.063.015.17.07.194.13.036.084.142.044.259.128.073.054.177.13.192.194.033.14.193.128.193.128.13.064.197.1.323.129.14.033.193.064.322.129h.323c.129 0 .12-.012.193-.065.117-.083.104-.133.129-.192.035-.085.14-.12.193-.194.085-.117.08-.203.13-.322.07-.169.215-.24.322-.387.084-.117.07-.246.193-.322.055-.034.13-.065.258-.13h.194s0 .065.065.065h.128c.064 0 .083.02.129.065.045.045.068.035.193.064.14.033.148.02.194.065.045.045.044.094.129.129.06.025.064.13.128.13.001 0 .02.018.066.064.046.046.167.038.258.13.045.045.045.075.129.192.053.074.156.156.258.258.103.102.259.194.259.194.063.064.082.148.128.193.045.047.094.046.128.13.025.06-.01.144.065.322.036.085.161.183.194.323.03.125.13.193.13.322 0 .13.01.249.064.323.084.117.094.302.129.386.074.18.096.317.129.58.008.065.033.26.064.452.033.201.096.375.13.516.029.125.128.322.128.516v.773c0 .13.065.194.065.323v.451c0 .064.053.07.128.193.035.055.001.13.001.258l.001.258.001.322c.001.065-.023.134.001.194.036.084.066.129.066.193v.386c0 .065.019.084.064.13.046.045.084.018.13.064.045.045.064.064.128.064h.258s-.045-.019 0-.064c.046-.046.104-.07.13-.13.034-.084.16-.117.193-.257.013-.064.093-.175.128-.26.024-.059.03-.117.064-.257a.96.96 0 01.129-.258c.035-.055 0-.129 0-.193 0 0-.024-.07 0-.13.036-.084.097-.117.13-.257.015-.063.05-.13.064-.194.033-.139.16-.18.194-.32.03-.126.064-.194.064-.259 0-.063.03-.202.065-.257.076-.122.129-.129.129-.193 0-.065.015-.14.064-.258.035-.084.084-.083.13-.13.045-.045.044-.204.128-.321.053-.073.11-.205.193-.322.108-.148.13-.258.195-.387.064-.128.11-.204.193-.32.054-.075.156-.221.258-.323l.258-.258c.065-.066.13-.195.258-.324.064-.064.11-.14.193-.257.054-.075.156-.157.258-.26.102-.101.156-.22.258-.322.103-.102.222-.156.324-.258.101-.102.173-.205.257-.322a.705.705 0 01.26-.193c.059-.025.109-.094.193-.13.06-.024.083-.018.129-.064.045-.044.064-.063.129-.063.065 0 .065-.065.13-.065h.193c.064 0 .14-.02.258.065.075.053.214.086.388.193.155.096.239.216.387.322.117.085.193.194.322.323.064.064.216.174.322.322.084.117.14.184.193.258.084.117.038.296.129.387.045.046.158.174.193.258.05.119.044.26.065.387.032.2.034.325.064.45.033.141.065.259.065.388l-.001.322c-.001.13.017.277.063.323.046.045 0 .193 0 .257V10.295c0 .065-.031.182-.064.322-.031.126-.001.194-.001.258-.001.065-.066.13-.066.194 0 .064.025.134 0 .193-.035.084-.064.13-.064.194v.193c0 .13-.03.174-.065.258-.025.06 0 .193 0 .258v3.223c0 .064.065.064.065.128v.194c0 .064.018.083.064.129.046.046 0 .13 0 .194V16.421c0 .066.03.11.065.194.023.06-.001.13-.001.194l-.001.193-.001.195-.001.193-.001.194-.001.193-.001.193-.001.194-.001.258-.001.193-.001.194-.001.193-.001.193-.001.194-.001.193-.001.194-.001.193-.001.194-.001.258-.001.194-.001.193-.001.258-.001.194-.001.257-.001.258-.001.194-.001.258-.001.193c-.001.065.028.11.063.194.025.06 0 .13 0 .194v.193c0 .065.064.065.064.13v.193c0 .064.032.117.065.258.015.062 0 .129 0 .193 0 .065.064.13.064.194v.194c0 .064.065.064.065.129V24.674c0 .064.065.129.065.193v.193c0 .065.02.084.065.13.045.045 0 .128 0 .193v.258c0 .065.03.174.064.259.025.058 0 .128 0 .192 0 .065.03.11.065.193.048.12-.001.194-.001.258l-.001.194-.001.193c-.001.065.028.11.063.194.05.119 0 .193 0 .258V27.833c0 .129.03.173.065.258.024.06 0 .194 0 .259 0 .128.064.128.064.32 0 .065-.03.133 0 .259.033.14.065.192.065.321 0 .066.03.175.064.26.05.118.033.246.066.386.014.063.03.11.064.193.05.119-.01.258 0 .322.033.2.096.375.13.516.029.125.043.388.064.515.032.202.096.38.128.58.021.128.065.259.065.323 0 .064.064.064.064.129l.001.193c.001.065.066.065.066.13V33.96c0 .064.064.129.064.193V35.7c0 .063-.019.017-.064.063-.091.091-.065.193-.13.193 0 0-.082-.045-.128 0-.091.092-.019.148-.064.194-.046.045-.194 0-.194.064h-.129c-.063 0-.063.065-.128.065-.064-.001-.083.018-.129.063-.045.046-.148-.045-.193 0-.046.046-.065.065-.13.065h-.579c-.064 0-.064.129-.193.129h-.322c-.065 0-.065.064-.13.064l-.193.001-.193.001-.194.001-.258.001-.258.001-.258.001-.387.001-.516.001-.516.001-.58.001-.58.001-.517.001-.451.001-.58.001-.516.001-.645.001-.71.001-.708.001c-.258.001-.429-.061-.71-.128-.25-.06-.45 0-.644 0h-1.29c-.193 0-.388.024-.58 0-.264-.032-.516-.064-.774-.064H16.572c-.194 0-.446-.032-.71-.065-.256-.031-.386 0-.58 0h-1.29c-.193 0-.386-.129-.644-.129H9.609c-.194 0-.325-.03-.516 0-.202.033-.387.065-.516.065-.065-.001-.118.03-.258.063-.063.015-.258 0-.451 0-.066 0-.26.065-.453.065h-2.32c-.193 0-.246-.032-.386-.065-.126-.03-.144.074-.323 0-.168-.07-.193-.129-.322-.129H3.55c-.13-.064-.194-.064-.323-.064-.065 0-.13 0-.13-.13h-.193s-.13.016-.193 0c-.14-.032-.193-.064-.257-.064H1.615c0-.128-.13-.128-.194-.128h.001" id="svg_10" stroke-opacity="null" stroke-width="null" stroke="null" fill="#3b81f7"/><g id="svg_1" fill="#000000" transform="translate(0,38) scale(0.10000000149011612,-0.10000000149011612) "><path id="svg_2" d="M120 351c-5-11-10-37-11-58-1-36-1-37-9-10-9 30-49 77-66 77C18 360-4 32 11 14 26-5 370-6 388 12c14 14 16 80 2 94-5 5-10 57-11 114-1 113-5 140-20 140s-51-41-59-69l-8-26-1 30c-1 17-8 41-17 53-17 25-49 31-40 7 4-12 2-13-14-2-16 9-24 9-41-2-19-11-21-11-16 3 9 24-30 21-43-3zm110-32c6-10 10-28 10-41 1-21 1-22 11-5 6 11 8 32 5 48-3 19-2 28 4 24 6-3 10-26 10-51 0-37 3-44 20-44 15 0 20 7 21 28 2 23 2 24 6 5 6-32 23-29 23 5 0 15 4 33 9 40 5 9 11-22 15-80 4-51 9-123 13-161l6-67-184 2-184 3-3 28c-2 16 1 34 7 41 7 8 12 61 12 130 1 116 11 143 24 65 5-29 10-38 16-28s9 11 9 2c0-7 10-13 23-13 20 0 23 4 19 29-2 16 1 37 7 48 9 15 11 11 12-22 1-39 1-39 12-14 27 59 55 69 77 28z"/><path id="svg_3" d="M182 308c-7-7-12-22-12-35 0-19 5-23 30-23 33 0 35 5 20 44-11 29-20 32-38 14z"/><path id="svg_4" d="M67 193c-12-11-8-75 4-67 7 4 7-1-1-16-13-25-7-50 13-50 11 0 15 17 15 70 1 51-3 70-12 70-7 0-16-3-19-7z"/><path id="svg_5" d="M126 192c-3-4-5-36-4-70 1-53 3-62 19-62s18 8 16 67c-2 61-15 90-31 65z"/><path id="svg_6" d="M182 131c0-63 3-71 19-71 21 0 24 21 8 52-8 15-8 19 1 13 8-5 10 4 8 31s-8 40-20 42c-15 3-17-6-16-67z"/><path id="svg_7" d="M237 194c-11-11-8-76 3-69 7 4 7-3 0-20-11-30-6-45 15-45s26 15 15 44c-6 18-6 26 1 26 17 0 6 64-11 68-9 1-19 0-23-4z"/><path id="svg_8" d="M297 193c-12-11-8-75 4-67 7 4 7-1-1-16-13-25-7-50 13-50 11 0 15 17 15 70 1 51-3 70-12 70-7 0-16-3-19-7z"/></g></svg>