<!--version="1.0" encoding="UTF-8" standalone="no"--><!-- Created with Inkscape (http://www.inkscape.org/) --><svg xmlns="http://www.w3.org/2000/svg" version="1.1" width="32.35" height="42" viewBox="0 0 32.35 42" id="svg3737" style="overflow-x: visible; overflow-y: visible;"><g transform="translate(16.15,21)" id="g3743"><g id="g3745"><g id="g3747"><path d="m1.15-20.9.3-.1.35.1 2.8 2.8.15.3-.15.35-1.2 1.25 6.45 7.6.1.3-.1.3-1.6 1.55.05.2V.9h4.65l.3.1.2.25 2.75 12.1v.25l-.15.2-7.95 7.1-.25.1h-.2l-.2-.15-3.35-4h-8.15l-3.35 4-.15.15h-.3l-.2-.1-7.95-7.1-.1-.2-.05-.25 2.75-12.1.2-.25.25-.1h4.7v-7.15l.05-.2L-9.8-8l-.15-.3.15-.3 6.45-7.6-1.2-1.25-.15-.35.15-.3 2.8-2.8.2-.05h.25l.25.05L0-19.7l1.15-1.2zm1.8 3.1-1.5-1.45L0-17.7l-1.45-1.55-1.5 1.45 1.45 1.5-6.65 7.9 1.55 1.55 1.55-1.55.3 3.05h-2.1V2.3H-8.8v3.4h-.9V2.3h-2.5l-2.45 10.8 6.8 6.05 3.15-3.65h3.1V7.95h3.2v7.55h3.15l3.1 3.65 6.85-6.05-2.5-10.8H9.75v3.4H8.8V2.3H6.9v-7.65H4.8l.3-3.05 1.5 1.55L8.25-8.4l-6.7-7.9 1.4-1.5zM2.5-1.55v-1.8h1.8v1.8H2.5zm-4.95-1.8v1.8H-4.3v-1.8h1.85z" id="path3749" style="fill: rgb(0, 0, 0); stroke-linecap: round; stroke-linejoin: round;"/><path d="m1.45-19.25 1.5 1.45-1.4 1.5 6.7 7.9L6.6-6.85 5.1-8.4l-.3 3.05h2.1V2.3h1.9v3.4h.95V2.3h2.45l2.5 10.8-6.85 6.05-3.1-3.65H1.6V7.95h-3.2v7.55h-3.1l-3.15 3.65-6.8-6.05 2.45-10.8h2.5v3.4h.9V2.3h1.95v-7.65h2.1l-.3-3.05-1.55 1.55-1.55-1.55 6.65-7.9-1.45-1.5 1.5-1.45L0-17.7l1.45-1.55zM2.5-3.35v1.8h1.8v-1.8H2.5zm-4.95 1.8v-1.8H-4.3v1.8h1.85z" id="path3751" style="fill: rgb(255, 255, 255); stroke-linecap: round; stroke-linejoin: round;"/></g></g></g></svg>