<?xml version="1.0" encoding="UTF-8"?>
<svg version="1.1" id="Layer_1" xmlns="http://www.w3.org/2000/svg" xmlns:xlink="http://www.w3.org/1999/xlink" width="40px" height="42px" xml:space="preserve">
<g id="PathID_12" transform="matrix(1, 0, 0, 1, 19.7, 21)">
<path style="fill:#FFFFFF;fill-opacity:1" d="M2.85 -1L0.65 -1.9L0.45 -2L-1.1 -1.5L-1.2 -1.45Q-2.55 -0.7 -3.45 0.7L-3.9 1.35L-4.4 2.5Q-4.9 3.85 -4.8 5.45L-4.25 7.8Q-3.75 9.1 -3 9.7Q-2.25 10.4 -1.2 10.6L-0.45 10.75L0.05 10.7L0.85 10.55L1.2 10.45Q2.15 10.15 2.55 9.25Q2.95 8.45 2.7 7.6Q2.55 6.95 1.95 6.6L1.75 6.55L1.7 6.55L1.4 6.5L1.3 6.45L0.9 6.45L0.8 6.5Q0.4 6.6 0.05 7.2L0.05 7.15Q-0.2 6.8 0.15 6.2L0.35 5.95Q0.65 5.55 1.25 5.4L1.95 5.3L2 5.3Q2.6 5.3 3.25 5.65Q3.95 6.1 4.3 6.75Q5.15 8.25 4.7 9.95L3.85 11.6L2.35 12.75L1.1 13.3L0.15 13.5L-0.75 13.6L-1.4 13.55L-2.05 13.45Q-3.7 13.15 -4.9 12.25Q-7.95 9.65 -8.25 5.6Q-8.5 2.55 -7.2 0L-7.05 -0.35L-6.2 -1.75Q-4.9 -3.55 -2.9 -4.7L-2.7 -4.8L-2.45 -5.95L-2.45 -6.2Q-2.45 -8.2 -3.55 -10L-3.8 -10.4L-4.9 -11.65Q-5.65 -12.35 -6.65 -12.85L-8.3 -13.4L-9.9 -13.6L-10.15 -13.6L-10.7 -13.5L-10.75 -13.5L-11.05 -13.45L-11.25 -13.4Q-12.3 -13 -13.05 -12.1Q-13.8 -11.2 -13.95 -10.1Q-14.15 -9.15 -13.6 -8.35Q-13.1 -7.6 -12.25 -7.35L-11.8 -7.25L-11.4 -7.35L-11.25 -7.35L-11 -7.5Q-10.65 -7.75 -10.4 -8.35L-10.35 -8.45Q-10.2 -8.9 -10.6 -9.45Q-10.1 -9.45 -9.75 -8.9Q-9.3 -8 -9.85 -6.9Q-10.35 -5.95 -11.45 -5.65L-12.15 -5.55L-13.2 -5.6Q-14.4 -5.9 -15.25 -6.8Q-15.9 -7.4 -16.25 -8.35Q-16.6 -9.3 -16.55 -10.25Q-16.55 -12.1 -15.4 -13.8Q-14.25 -15.5 -12.5 -16.25L-11.95 -16.45L-11 -16.7L-9.25 -16.85L-9.2 -16.85L-8.15 -16.8L-7.75 -16.75L-5.45 -16.05L-3.95 -15.3L-2.85 -14.55L-0.9 -12.5L-0.5 -11.9Q1.2 -9.2 1.2 -6.3L1.2 -6.1L2.9 -4.5L2.95 -4.45L2.95 -4.75L2.95 -4.8L4.5 -4.3L6 -4.15L6.5 -4.15L6.6 -4.2L8.15 -4.5L8.5 -4.6Q9.4 -4.9 10.2 -5.45Q12.7 -7.25 13 -9.15Q13.2 -10.25 12.8 -11.35L11.8 -12.85L11.5 -13.15Q10.8 -13.8 10 -13.75L9.3 -13.65L8.25 -13.05L7.8 -12.25L7.75 -11.85L8.15 -10.95L8.25 -10.85Q8.55 -10.55 9.05 -10.55L9.25 -10.55L8.7 -10.15L8.35 -10.1L8.3 -10.1L7.85 -10.15Q7.15 -10.4 6.65 -11.2Q6.35 -11.75 6.35 -12.5Q6.35 -13.3 6.75 -13.95Q7.55 -15.4 9.15 -15.9L9.3 -15.95L9.75 -16.05L9.9 -16.05L10.45 -16.1L11.7 -15.9L12.9 -15.35L14 -14.55L15.45 -12.55L15.75 -11.9Q16.3 -10.4 16.1 -8.8Q15.6 -5.75 13.4 -3.65L12.65 -3L11.7 -2.3Q10.35 -1.45 8.85 -1L7.65 -0.7L6.35 -0.55L6.3 -0.55L4.85 -0.6L4.8 -0.6L3.3 -0.85L2.85 -1M18.9 -13.3Q19.9 -10.85 19.65 -8.35L19.6 -8.25L19.6 -8.2Q18.95 -4.15 15.95 -1.15Q15.4 3.85 12.45 9.1Q8.35 16.4 0.95 20.65L0.55 21L-1.05 21L-1.4 20.65Q-9.4 16.05 -13.55 7.9Q-16.5 2.15 -16.5 -2.35L-16.5 -3.55L-17.4 -4.3Q-18.55 -5.4 -19.2 -7Q-19.8 -8.65 -19.7 -10.3Q-19.6 -14.4 -16.5 -17.35L-16.5 -21L16 -21L16 -17.3Q17.9 -15.7 18.9 -13.3M14.1 -19.1L-14.6 -19.1L-14.6 -16.45Q-16.05 -15.3 -16.9 -13.65Q-17.8 -11.95 -17.8 -10.2Q-17.85 -9 -17.4 -7.75Q-16.9 -6.5 -16.05 -5.7Q-15.35 -5 -14.6 -4.65L-14.6 -2.35Q-14.6 1.75 -11.75 7.25Q-7.75 14.9 -0.25 19.1Q7.1 15 11.1 7.55Q13.95 2.3 14.1 -2.05Q17.05 -4.65 17.75 -8.55Q18 -10.8 17 -12.95Q15.95 -15.1 14.1 -16.3L14.1 -19.1"/>
<path style="fill:#000000;fill-opacity:1" d="M0.05 10.7L-0.45 10.75L-1.2 10.6Q-2.25 10.4 -3 9.7Q-3.75 9.1 -4.25 7.8L-4.8 5.45Q-4.9 3.85 -4.4 2.5L-3.9 1.35L-3.45 0.7Q-2.55 -0.7 -1.2 -1.45L-1.1 -1.5L0.45 -2L0.6 -1.9Q1.65 -1.35 2.8 -1L3.3 -0.85L4.8 -0.6L4.85 -0.6L6.3 -0.55L6.35 -0.55L7.65 -0.7L8.85 -1Q10.35 -1.45 11.7 -2.3L12.65 -3L13.4 -3.65Q15.6 -5.75 16.1 -8.8Q16.3 -10.4 15.75 -11.9L15.45 -12.55L14 -14.55L12.9 -15.35L11.7 -15.9L10.45 -16.1L9.9 -16.05L9.75 -16.05L9.25 -15.95L9.1 -15.9Q7.5 -15.4 6.7 -13.95Q6.3 -13.3 6.3 -12.5Q6.3 -11.75 6.6 -11.2Q7.1 -10.4 7.85 -10.15L8.3 -10.1L8.35 -10.1L8.7 -10.15L9.25 -10.55L9.05 -10.55Q8.55 -10.55 8.25 -10.85L8.15 -10.95L7.75 -11.85L7.8 -12.25L8.25 -13.05L9.3 -13.65L10 -13.75Q10.75 -13.75 11.45 -13.15L11.75 -12.85L12.75 -11.35Q13.15 -10.25 12.95 -9.15Q12.65 -7.25 10.15 -5.45Q9.35 -4.9 8.45 -4.6L8.1 -4.5L6.55 -4.2L6.5 -4.15L6 -4.15L4.5 -4.3L2.95 -4.8L2.95 -4.75L2.9 -4.8L2.9 -4.5L1.2 -6.1L1.2 -6.3Q1.2 -9.2 -0.5 -11.9L-0.9 -12.5L-2.85 -14.55L-3.95 -15.3L-5.45 -16.05L-7.75 -16.75L-8.15 -16.8L-9.2 -16.85L-9.25 -16.85L-11 -16.7L-12 -16.45L-12.55 -16.25Q-14.3 -15.5 -15.45 -13.8Q-16.6 -12.1 -16.6 -10.25Q-16.65 -9.3 -16.3 -8.35Q-15.95 -7.4 -15.3 -6.8Q-14.45 -5.85 -13.2 -5.6L-12.15 -5.55L-11.45 -5.65Q-10.35 -5.95 -9.85 -6.9Q-9.3 -8 -9.75 -8.9Q-10.1 -9.45 -10.6 -9.45L-10.65 -9.45Q-10.25 -8.9 -10.4 -8.45L-10.45 -8.35Q-10.7 -7.75 -11.05 -7.5L-11.25 -7.35L-11.4 -7.35L-11.45 -7.35L-11.8 -7.25L-12.25 -7.35Q-13.1 -7.6 -13.6 -8.35Q-14.15 -9.15 -13.95 -10.1Q-13.8 -11.2 -13.05 -12.1Q-12.3 -13 -11.25 -13.4L-11.05 -13.45L-10.75 -13.5L-10.7 -13.5L-10.15 -13.6L-9.9 -13.6L-8.3 -13.4L-6.7 -12.85L-4.95 -11.65L-3.85 -10.4L-3.6 -10Q-2.5 -8.2 -2.5 -6.2L-2.5 -5.95L-2.75 -4.8L-2.95 -4.7Q-4.95 -3.55 -6.25 -1.75L-7.1 -0.35L-7.25 0Q-8.55 2.55 -8.3 5.6Q-8 9.65 -4.95 12.25Q-3.75 13.15 -2.1 13.45L-1.4 13.55L-0.75 13.6L0.15 13.5L1.1 13.3L2.35 12.75L3.85 11.6L4.7 9.95Q5.15 8.25 4.3 6.75Q3.95 6.1 3.25 5.65Q2.6 5.3 2 5.3L1.95 5.3L1.25 5.4L1.2 5.4Q0.6 5.55 0.3 5.95L0.1 6.2Q-0.25 6.85 0 7.2L0.05 7.15L0.05 7.2Q0.4 6.6 0.8 6.5L0.9 6.45L1.3 6.45L1.4 6.5L1.7 6.55L1.75 6.55L1.9 6.6Q2.5 6.95 2.65 7.6Q2.9 8.45 2.5 9.25Q2.1 10.15 1.15 10.45L0.8 10.55L0.05 10.7M14.1 -16.3Q15.95 -15.1 17 -12.95Q18 -10.8 17.75 -8.55Q17.05 -4.65 14.1 -2.05Q13.95 2.3 11.1 7.55Q7.1 15 -0.25 19.1Q-7.75 14.9 -11.75 7.25Q-14.6 1.75 -14.6 -2.35L-14.6 -4.65Q-15.35 -5 -16.05 -5.7Q-16.9 -6.5 -17.4 -7.75Q-17.85 -9 -17.8 -10.2Q-17.8 -11.95 -16.9 -13.65Q-16.05 -15.3 -14.6 -16.45L-14.6 -19.1L14.1 -19.1L14.1 -16.3"/>
</g>
</svg>