<!--version="1.0" encoding="UTF-8"--><svg version="1.1" id="Layer_1" xmlns="http://www.w3.org/2000/svg" width="40" height="42" xml:space="preserve"><g id="PathID_12" transform="matrix(1, 0, 0, 1, 19.7, 21)"><path style="fill: rgb(255, 255, 255); fill-opacity: 1;" d="m2.85-1-2.2-.9-.2-.1-1.55.5-.1.05Q-2.55-.7-3.45.7l-.45.65-.5 1.15q-.5 1.35-.4 2.95l.55 2.35q.5 1.3 1.25 1.9.75.7 1.8.9l.75.15.5-.05.8-.15.35-.1q.95-.3 1.35-1.2.4-.8.15-1.65-.15-.65-.75-1l-.2-.05H1.7l-.3-.05-.1-.05H.9l-.1.05q-.4.1-.75.7v-.05q-.25-.35.1-.95l.2-.25q.3-.4.9-.55l.7-.1H2q.6 0 1.25.35.7.45 1.05 1.1.85 1.5.4 3.2l-.85 1.65-1.5 1.15-1.25.55-.95.2-.9.1-.65-.05-.65-.1q-1.65-.3-2.85-1.2-3.05-2.6-3.35-6.65Q-8.5 2.55-7.2 0l.15-.35.85-1.4q1.3-1.8 3.3-2.95l.2-.1.25-1.15v-.25q0-2-1.1-3.8l-.25-.4-1.1-1.25q-.75-.7-1.75-1.2l-1.65-.55-1.6-.2h-.25l-.55.1h-.05l-.3.05-.2.05q-1.05.4-1.8 1.3t-.9 2q-.2.95.35 1.75.5.75 1.35 1l.45.1.4-.1h.15l.25-.15q.35-.25.6-.85l.05-.1q.15-.45-.25-1 .5 0 .85.55.45.9-.1 2-.5.95-1.6 1.25l-.7.1-1.05-.05q-1.2-.3-2.05-1.2-.65-.6-1-1.55-.35-.95-.3-1.9 0-1.85 1.15-3.55 1.15-1.7 2.9-2.45l.55-.2.95-.25 1.75-.15h.05l1.05.05.4.05 2.3.7 1.5.75 1.1.75L-.9-12.5l.4.6q1.7 2.7 1.7 5.6v.2l1.7 1.6.05.05V-4.8l1.55.5 1.5.15h.5l.1-.05 1.55-.3.35-.1q.9-.3 1.7-.85 2.5-1.8 2.8-3.7.2-1.1-.2-2.2l-1-1.5-.3-.3q-.7-.65-1.5-.6l-.7.1-1.05.6-.45.8-.05.4.4.9.1.1q.3.3.8.3h.2l-.55.4-.35.05H8.3l-.45-.05q-.7-.25-1.2-1.05-.3-.55-.3-1.3 0-.8.4-1.45.8-1.45 2.4-1.95l.15-.05.45-.1h.15l.55-.05 1.25.2 1.2.55 1.1.8 1.45 2 .3.65q.55 1.5.35 3.1-.5 3.05-2.7 5.15l-.75.65-.95.7q-1.35.85-2.85 1.3l-1.2.3-1.3.15H6.3L4.85-.6H4.8L3.3-.85 2.85-1M18.9-13.3q1 2.45.75 4.95l-.05.1v.05q-.65 4.05-3.65 7.05-.55 5-3.5 10.25-4.1 7.3-11.5 11.55l-.4.35h-1.6l-.35-.35q-8-4.6-12.15-12.75-2.95-5.75-2.95-10.25v-1.2l-.9-.75q-1.15-1.1-1.8-2.7-.6-1.65-.5-3.3.1-4.1 3.2-7.05V-21H16v3.7q1.9 1.6 2.9 4m-4.8-5.8h-28.7v2.65q-1.45 1.15-2.3 2.8-.9 1.7-.9 3.45-.05 1.2.4 2.45.5 1.25 1.35 2.05.7.7 1.45 1.05v2.3q0 4.1 2.85 9.6 4 7.65 11.5 11.85Q7.1 15 11.1 7.55q2.85-5.25 3-9.6 2.95-2.6 3.65-6.5.25-2.25-.75-4.4-1.05-2.15-2.9-3.35v-2.8"/><path style="fill: rgb(0, 0, 0); fill-opacity: 1;" d="m.05 10.7-.5.05-.75-.15q-1.05-.2-1.8-.9-.75-.6-1.25-1.9l-.55-2.35q-.1-1.6.4-2.95l.5-1.15.45-.65q.9-1.4 2.25-2.15l.1-.05L.45-2l.15.1q1.05.55 2.2.9l.5.15 1.5.25h.05l1.45.05h.05l1.3-.15 1.2-.3q1.5-.45 2.85-1.3l.95-.7.75-.65q2.2-2.1 2.7-5.15.2-1.6-.35-3.1l-.3-.65-1.45-2-1.1-.8-1.2-.55-1.25-.2-.55.05h-.15l-.5.1-.15.05q-1.6.5-2.4 1.95-.4.65-.4 1.45 0 .75.3 1.3.5.8 1.25 1.05l.45.05h.05l.35-.05.55-.4h-.2q-.5 0-.8-.3l-.1-.1-.4-.9.05-.4.45-.8 1.05-.6.7-.1q.75 0 1.45.6l.3.3 1 1.5q.4 1.1.2 2.2-.3 1.9-2.8 3.7-.8.55-1.7.85l-.35.1-1.55.3-.05.05H6L4.5-4.3l-1.55-.5v.05L2.9-4.8v.3L1.2-6.1v-.2q0-2.9-1.7-5.6l-.4-.6-1.95-2.05-1.1-.75-1.5-.75-2.3-.7-.4-.05-1.05-.05h-.05l-1.75.15-1 .25-.55.2q-1.75.75-2.9 2.45-1.15 1.7-1.15 3.55-.05.95.3 1.9.35.95 1 1.55.85.95 2.1 1.2l1.05.05.7-.1q1.1-.3 1.6-1.25.55-1.1.1-2-.35-.55-.85-.55h-.05q.4.55.25 1l-.05.1q-.25.6-.6.85l-.2.15h-.2l-.35.1-.45-.1q-.85-.25-1.35-1-.55-.8-.35-1.75.15-1.1.9-2t1.8-1.3l.2-.05.3-.05h.05l.55-.1h.25l1.6.2 1.6.55 1.75 1.2 1.1 1.25.25.4q1.1 1.8 1.1 3.8v.25l-.25 1.15-.2.1q-2 1.15-3.3 2.95l-.85 1.4-.15.35q-1.3 2.55-1.05 5.6.3 4.05 3.35 6.65 1.2.9 2.85 1.2l.7.1.65.05.9-.1.95-.2 1.25-.55 1.5-1.15.85-1.65q.45-1.7-.4-3.2-.35-.65-1.05-1.1Q2.6 5.3 2 5.3h-.05l-.7.1H1.2q-.6.15-.9.55l-.2.25q-.35.65-.1 1l.05-.05v.05q.35-.6.75-.7l.1-.05h.4l.1.05.3.05h.05l.15.05q.6.35.75 1 .25.85-.15 1.65-.4.9-1.35 1.2l-.35.1-.75.15m14.05-27q1.85 1.2 2.9 3.35 1 2.15.75 4.4-.7 3.9-3.65 6.5-.15 4.35-3 9.6Q7.1 15-.25 19.1q-7.5-4.2-11.5-11.85-2.85-5.5-2.85-9.6v-2.3q-.75-.35-1.45-1.05-.85-.8-1.35-2.05-.45-1.25-.4-2.45 0-1.75.9-3.45.85-1.65 2.3-2.8v-2.65h28.7v2.8"/></g></svg>