<!--version="1.0" encoding="UTF-8" standalone="no"--><!-- Created with Inkscape (http://www.inkscape.org/) --><svg xmlns="http://www.w3.org/2000/svg" version="1.1" width="39.414" height="42" viewBox="0 0 39.414 42" id="svg3440" style="overflow-x: visible; overflow-y: visible;"><g transform="translate(19.714286,21)" id="g3446"><g id="g3448"><g id="g3450"><path d="M4.8-.6h.05l1.45.05L7.65-.7l1.2-.3c1-.3 1.95-.733 2.85-1.3l.95-.7.75-.65c1.467-1.4 2.367-3.117 2.7-5.15a6.527 6.527 0 00-.35-3.1l-.3-.65-1.45-2-1.1-.8-1.2-.55-1.25-.2-.55.05h-.15l-.5.1-.15.05c-1.067.333-1.867.983-2.4 1.95a2.71 2.71 0 00-.4 1.45c0 .5.1.933.3 1.3.333.533.75.883 1.25 1.05l.45.05.4-.05.55-.4h-.2c-.333 0-.6-.1-.8-.3l-.1-.1-.4-.9.05-.4.45-.8 1.05-.6.7-.1c.5 0 .983.2 1.45.6l.3.3 1 1.5c.267.733.333 1.467.2 2.2-.2 1.267-1.133 2.5-2.8 3.7-.533.367-1.1.65-1.7.85l-.35.1-1.55.3-.55.05-1.5-.15-1.55-.5-.05.3-1.7-1.6v-.2c0-1.933-.567-3.8-1.7-5.6l-.4-.6-1.95-2.05-1.1-.75-1.5-.75-2.3-.7-.4-.05-1.05-.05-1.8.15-1 .25-.55.2c-1.167.5-2.133 1.317-2.9 2.45-.767 1.133-1.15 2.317-1.15 3.55a4.73 4.73 0 00.3 1.9c.233.633.567 1.15 1 1.55a3.73 3.73 0 002.1 1.2l1.05.05.7-.1c.733-.2 1.267-.617 1.6-1.25.367-.733.4-1.4.1-2-.233-.367-.517-.55-.85-.55.233.367.3.7.2 1l-.05.1c-.167.4-.367.683-.6.85l-.2.15h-.15l-.4.1-.45-.1a2.39 2.39 0 01-1.35-1 2.178 2.178 0 01-.35-1.75c.1-.733.4-1.4.9-2 .5-.6 1.1-1.033 1.8-1.3l.2-.05.3-.05.6-.1h.25l1.6.2 1.6.55 1.75 1.2 1.1 1.25.25.4c.733 1.2 1.1 2.467 1.1 3.8v.25l-.25 1.15-.2.1a10.418 10.418 0 00-3.3 2.95l-.85 1.4-.15.35c-.867 1.7-1.217 3.567-1.05 5.6.2 2.7 1.317 4.917 3.35 6.65.8.6 1.75 1 2.85 1.2l.7.1.65.05.9-.1.95-.2 1.25-.55 1.5-1.15.85-1.65c.3-1.133.167-2.2-.4-3.2-.233-.433-.583-.8-1.05-1.1C2.817 5.417 2.4 5.3 2 5.3l-.75.1c-.433.1-.75.283-.95.55l-.2.25c-.233.433-.267.767-.1 1 .267-.4.533-.633.8-.7l.1-.05h.4l.1.05.3.05.2.05c.4.233.65.567.75 1A2.187 2.187 0 012.5 9.25c-.267.6-.717 1-1.35 1.2l-.35.1-.75.15-.5.05-.75-.15c-.7-.133-1.3-.433-1.8-.9-.5-.4-.917-1.033-1.25-1.9l-.55-2.35c-.067-1.067.067-2.05.4-2.95l.5-1.15.45-.65c.6-.933 1.35-1.65 2.25-2.15l.1-.05L.45-2l.15.1c.7.367 1.433.667 2.2.9l.5.15 1.5.25zM2.95-4.8v.05L2.9-4.8zM0 7.2l.05-.05v.05zM6.3-.55h.05zm2-9.55h.05zM6.55-4.2l-.05.05zM-9.2-16.85h-.05zm-1.4 7.4h-.05zm-.8 2.1h-.05zm.65-6.15h.05zM2 5.3h-.05zm-.75.1H1.2zm.45 1.15h.05zM14.1-19.1v2.8c1.233.8 2.2 1.917 2.9 3.35.667 1.433.917 2.9.75 4.4-.467 2.6-1.683 4.767-3.65 6.5-.1 2.9-1.1 6.1-3 9.6C8.433 12.517 4.65 16.367-.25 19.1c-5-2.8-8.833-6.75-11.5-11.85-1.9-3.667-2.85-6.867-2.85-9.6v-2.3c-.5-.233-.983-.583-1.45-1.05-.567-.533-1.017-1.217-1.35-2.05-.3-.833-.433-1.65-.4-2.45 0-1.167.3-2.317.9-3.45a8.503 8.503 0 012.3-2.8v-2.65h28.7z" id="path3452" style="fill: rgb(59, 129, 247); stroke-linecap: round; stroke-linejoin: round;"/><path d="M4.85-.6H4.8L3.3-.85 2.85-1l-2.2-.9-.2-.1-1.55.5-.1.05C-2.1-.95-2.85-.233-3.45.7l-.45.65-.5 1.15c-.333.9-.467 1.883-.4 2.95l.55 2.35c.333.867.75 1.5 1.25 1.9.5.467 1.1.767 1.8.9l.75.15.5-.05.8-.15.35-.1c.633-.2 1.083-.6 1.35-1.2A2.187 2.187 0 002.7 7.6c-.1-.433-.35-.767-.75-1l-.2-.05-.35-.05-.1-.05H.9l-.1.05c-.267.067-.517.3-.75.7-.167-.267-.133-.6.1-1l.2-.25c.2-.267.5-.45.9-.55l.7-.1c.433 0 .867.117 1.3.35.467.3.817.667 1.05 1.1.567 1 .7 2.067.4 3.2l-.85 1.65-1.5 1.15-1.25.55-.95.2-.9.1-.65-.05-.65-.1c-1.1-.2-2.05-.6-2.85-1.2-2.033-1.733-3.15-3.95-3.35-6.65-.167-2.033.183-3.9 1.05-5.6l.15-.35.85-1.4a10.418 10.418 0 013.3-2.95l.2-.1.25-1.15v-.25c0-1.333-.367-2.6-1.1-3.8l-.25-.4-1.1-1.25a7.384 7.384 0 00-1.75-1.2l-1.65-.55-1.6-.2h-.25l-.55.1-.35.05-.2.05c-.7.267-1.3.7-1.8 1.3a3.9 3.9 0 00-.9 2 2.178 2.178 0 00.35 1.75c.333.5.783.833 1.35 1l.45.1.4-.1h.15l.25-.15c.233-.167.433-.45.6-.85l.05-.1c.1-.3.017-.633-.25-1 .333 0 .617.183.85.55.3.6.267 1.267-.1 2-.333.633-.867 1.05-1.6 1.25l-.7.1-1.05-.05c-.8-.2-1.483-.6-2.05-1.2-.433-.4-.767-.917-1-1.55a4.73 4.73 0 01-.3-1.9c0-1.233.383-2.417 1.15-3.55.767-1.133 1.733-1.95 2.9-2.45l.55-.2.95-.25 1.75-.15 1.1.05.4.05 2.3.7 1.5.75 1.1.75L-.9-12.5l.4.6c1.133 1.8 1.7 3.667 1.7 5.6v.2l1.7 1.6.05-.25 1.55.45 1.5.15h.5l.1-.05 1.55-.3.35-.1c.6-.2 1.167-.483 1.7-.85 1.667-1.2 2.6-2.433 2.8-3.7a4.158 4.158 0 00-.2-2.2l-1-1.5-.3-.3c-.467-.433-.967-.633-1.5-.6l-.7.1-1.05.6-.45.8-.05.4.4.9.1.1c.2.2.467.3.8.3h.2l-.55.4-.35.05-.5-.05c-.467-.167-.867-.517-1.2-1.05-.2-.367-.3-.8-.3-1.3 0-.533.133-1.017.4-1.45.533-.967 1.333-1.617 2.4-1.95l.15-.05.45-.1h.15l.55-.05 1.25.2 1.2.55 1.1.8 1.45 2 .3.65c.367 1 .483 2.033.35 3.1-.333 2.033-1.233 3.75-2.7 5.15l-.75.65-.95.7c-.9.567-1.85 1-2.85 1.3l-1.2.3-1.3.15-1.5-.05zm1.5.05H6.3zm2-9.55H8.3zm-5.4 5.35v-.05zm-.05.25.05.05zM-9.25-16.85h.05zm-1.45 3.35h-.05zM1.95 5.3H2zM.05 7.2v-.05zm1.7-.65H1.7zM16-21v3.7c1.267 1.067 2.233 2.4 2.9 4 .667 1.633.917 3.283.75 4.95l-.05.1c-.433 2.733-1.65 5.1-3.65 7.1-.367 3.333-1.533 6.75-3.5 10.25-2.733 4.867-6.567 8.717-11.5 11.55l-.4.35h-1.6l-.35-.35c-5.333-3.067-9.383-7.317-12.15-12.75C-15.517 4.067-16.5.65-16.5-2.35v-1.2l-.9-.75c-.767-.733-1.367-1.633-1.8-2.7-.4-1.1-.567-2.2-.5-3.3.067-2.733 1.133-5.083 3.2-7.05V-21H16zm3.6 12.75v.05zm-5.5-8.05v-2.8h-28.7v2.65a8.503 8.503 0 00-2.3 2.8c-.6 1.133-.9 2.283-.9 3.45-.033.8.1 1.617.4 2.45.333.833.783 1.517 1.35 2.05.467.467.95.817 1.45 1.05v2.3c0 2.733.95 5.933 2.85 9.6 2.667 5.1 6.5 9.05 11.5 11.85 4.9-2.733 8.683-6.583 11.35-11.55 1.9-3.5 2.9-6.7 3-9.6 1.967-1.733 3.183-3.9 3.65-6.5.167-1.5-.083-2.967-.75-4.4-.7-1.433-1.667-2.55-2.9-3.35z" id="path3454" style="fill: rgb(0, 0, 0); stroke-linecap: round; stroke-linejoin: round;"/></g></g></g></svg>