<?xml version="1.0" encoding="UTF-8" standalone="no"?>
<!-- Created with Inkscape (http://www.inkscape.org/) -->

<svg
   xmlns:dc="http://purl.org/dc/elements/1.1/"
   xmlns:cc="http://creativecommons.org/ns#"
   xmlns:rdf="http://www.w3.org/1999/02/22-rdf-syntax-ns#"
   xmlns:svg="http://www.w3.org/2000/svg"
   xmlns="http://www.w3.org/2000/svg"
   version="1.1"
   width="39.414284"
   height="42"
   viewBox="0 0 39.414284 42"
   id="svg3440"
   style="overflow:visible">
  <metadata
     id="metadata3458">
    <rdf:RDF>
      <cc:Work
         rdf:about="">
        <dc:format>image/svg+xml</dc:format>
        <dc:type
           rdf:resource="http://purl.org/dc/dcmitype/StillImage" />
        <dc:title></dc:title>
      </cc:Work>
    </rdf:RDF>
  </metadata>
  <defs
     id="defs3442" />
  <g
     transform="translate(19.714286,21)"
     id="g3446">
    <g
       id="g3448">
      <g
         id="g3450">
        <path
           d="m 4.8,-0.6 0.05,0 1.45,0.05 1.35,-0.15 1.2,-0.3 c 1,-0.3000001 1.95,-0.7333333 2.85,-1.3 L 12.65,-3 13.4,-3.65 c 1.466667,-1.4 2.366667,-3.116667 2.7,-5.15 0.133334,-1.066667 0.01667,-2.1 -0.35,-3.1 l -0.3,-0.65 -1.45,-2 -1.1,-0.8 -1.2,-0.55 -1.25,-0.2 -0.55,0.05 -0.15,0 -0.5,0.1 -0.15,0.05 c -1.066666,0.333333 -1.8666664,0.983333 -2.4,1.95 -0.2666666,0.433334 -0.4,0.916667 -0.4,1.45 0,0.5 0.1,0.933333 0.3,1.3 0.3333334,0.533334 0.75,0.883334 1.25,1.05 l 0.45,0.05 0.4,-0.05 0.55,-0.4 -0.2,0 c -0.333333,0 -0.599999,-0.100001 -0.8,-0.3 l -0.1,-0.1 -0.4,-0.9 0.05,-0.4 0.45,-0.8 1.05,-0.6 0.7,-0.1 c 0.5,0 0.983334,0.2 1.45,0.6 l 0.3,0.3 1,1.5 c 0.266666,0.733333 0.333333,1.466667 0.2,2.2 -0.2,1.266667 -1.133333,2.5000004 -2.8,3.7 -0.533333,0.3666665 -1.1,0.65 -1.7,0.85 L 8.1,-4.5 6.55,-4.2 6,-4.15 4.5,-4.3 2.95,-4.8 2.9,-4.5 1.2,-6.1 l 0,-0.2 c 0,-1.933334 -0.5666667,-3.8 -1.7,-5.6 l -0.4,-0.6 -1.95,-2.05 -1.1,-0.75 -1.5,-0.75 -2.3,-0.7 -0.4,-0.05 -1.05,-0.05 -1.8,0.15 -1,0.25 -0.55,0.2 c -1.166667,0.5 -2.133333,1.316667 -2.9,2.45 -0.766667,1.133333 -1.15,2.316666 -1.15,3.55 -0.03333,0.633333 0.06667,1.266666 0.3,1.9 0.233334,0.6333333 0.566667,1.15 1,1.55 0.566666,0.6333335 1.266666,1.0333336 2.1,1.2 l 1.05,0.05 0.7,-0.1 c 0.733333,-0.2 1.266666,-0.6166664 1.6,-1.25 0.366666,-0.733333 0.4,-1.399999 0.1,-2 -0.233334,-0.366666 -0.516667,-0.55 -0.85,-0.55 0.233333,0.366667 0.3,0.7 0.2,1 l -0.05,0.1 c -0.166667,0.3999997 -0.366667,0.683333 -0.6,0.85 l -0.2,0.15 -0.15,0 -0.4,0.1 -0.45,-0.1 c -0.566667,-0.1666664 -1.016666,-0.5 -1.35,-1 -0.366666,-0.533333 -0.483333,-1.116666 -0.35,-1.75 0.1,-0.733333 0.4,-1.4 0.9,-2 0.5,-0.6 1.1,-1.033333 1.8,-1.3 l 0.2,-0.05 0.3,-0.05 0.6,-0.1 0.25,0 1.6,0.2 1.6,0.55 1.75,1.2 1.1,1.25 0.25,0.4 c 0.7333334,1.2 1.1,2.4666667 1.1,3.8 l 0,0.25 -0.25,1.15 -0.2,0.1 c -1.3333333,0.7666668 -2.433333,1.7500002 -3.3,2.95 L -7.1,-0.35 -7.25,0 c -0.866667,1.7 -1.216667,3.5666666 -1.05,5.6 0.2,2.699999 1.3166664,4.916666 3.35,6.65 0.8,0.599999 1.75,0.999999 2.85,1.2 l 0.7,0.1 0.65,0.05 0.9,-0.1 L 1.1,13.3 2.35,12.75 3.85,11.6 4.7,9.95 C 5,8.816667 4.866667,7.75 4.3,6.75 4.0666666,6.3166666 3.7166665,5.95 3.25,5.65 2.8166666,5.416667 2.3999999,5.3 2,5.3 L 1.25,5.4 C 0.81666666,5.5 0.5,5.6833334 0.3,5.95 L 0.1,6.2 C -0.13333333,6.633333 -0.16666666,6.9666667 0,7.2 0.26666668,6.7999997 0.53333336,6.5666666 0.8,6.5 L 0.9,6.45 1.3,6.45 1.4,6.5 1.7,6.55 1.9,6.6 C 2.3,6.833333 2.55,7.1666665 2.65,7.6 2.8166668,8.166666 2.766667,8.716666 2.5,9.25 2.2333333,9.849999 1.7833333,10.249999 1.15,10.45 L 0.8,10.55 0.05,10.7 -0.45,10.75 -1.2,10.6 C -1.9000001,10.466666 -2.5,10.166666 -3,9.7 -3.5,9.3 -3.9166667,8.666667 -4.25,7.8 L -4.8,5.45 C -4.866667,4.383333 -4.7333336,3.3999999 -4.4,2.5 L -3.9,1.35 -3.45,0.7 c 0.6,-0.93333335 1.35,-1.65000005 2.25,-2.15 L -1.1,-1.5 0.45,-2 0.6,-1.9 c 0.7,0.3666667 1.4333333,0.6666667 2.2,0.9 l 0.5,0.15 1.5,0.25 z m -1.85,-4.2 0,0.05 L 2.9,-4.8 z M 0,7.2 0.05,7.15 l 0,0.05 z m 6.3,-7.75 0.05,0 z m 2,-9.55 0.05,0 z M 6.55,-4.2 6.5,-4.15 z m -15.75,-12.65 -0.05,0 z m -1.4,7.4 -0.05,0 z m -0.8,2.1 -0.05,0 z m 0.65,-6.15 0.05,0 z M 2,5.3 1.95,5.3 z M 1.25,5.4 1.2,5.4 z m 0.45,1.15 0.05,0 z m 12.4,-25.65 0,2.8 c 1.233333,0.8 2.2,1.916667 2.9,3.35 0.666666,1.433334 0.916666,2.9 0.75,4.4 -0.466667,2.6 -1.683334,4.766667 -3.65,6.5 -0.1,2.90000014 -1.1,6.1 -3,9.6 -2.666667,4.966666 -6.4500004,8.816667 -11.35,11.55 -5,-2.8 -8.833334,-6.750002 -11.5,-11.85 -1.900001,-3.6666667 -2.85,-6.86666703 -2.85,-9.6 l 0,-2.3 c -0.5,-0.233333 -0.983333,-0.583333 -1.45,-1.05 -0.566667,-0.533333 -1.016668,-1.2166665 -1.35,-2.05 -0.3,-0.833333 -0.433334,-1.65 -0.4,-2.45 0,-1.166667 0.3,-2.316666 0.9,-3.45 0.566668,-1.1 1.333334,-2.033333 2.3,-2.8 l 0,-2.65 28.7,0 z"
           id="path3452"
           style="fill:#ffffff;stroke-linecap:round;stroke-linejoin:round" />
        <path
           d="M 4.85,-0.6 4.8,-0.6 3.3,-0.85 2.85,-1 0.65,-1.9 0.45,-2 -1.1,-1.5 -1.2,-1.45 c -0.9,0.5 -1.65,1.21666671 -2.25,2.15 L -3.9,1.35 -4.4,2.5 c -0.3333336,0.9 -0.466667,1.883333 -0.4,2.95 l 0.55,2.35 c 0.3333333,0.866667 0.75,1.5 1.25,1.9 0.5,0.466666 1.1,0.766666 1.8,0.9 l 0.75,0.15 0.5,-0.05 0.8,-0.15 0.35,-0.1 C 1.8333335,10.25 2.2833335,9.85 2.55,9.25 2.8166666,8.716666 2.8666666,8.166666 2.7,7.6 2.6,7.1666665 2.35,6.833333 1.95,6.6 L 1.75,6.55 1.4,6.5 1.3,6.45 0.9,6.45 0.8,6.5 C 0.5333333,6.5666666 0.2833333,6.7999997 0.05,7.2 -0.11666668,6.9333334 -0.08333334,6.6 0.15,6.2 L 0.35,5.95 C 0.54999995,5.6833334 0.84999996,5.5 1.25,5.4 l 0.7,-0.1 c 0.4333332,0 0.8666666,0.116667 1.3,0.35 0.4666667,0.3 0.8166666,0.6666666 1.05,1.1 0.566667,1 0.7,2.066667 0.4,3.2 l -0.85,1.65 -1.5,1.15 -1.25,0.55 -0.95,0.2 -0.9,0.1 -0.65,-0.05 -0.65,-0.1 c -1.1,-0.2 -2.0500004,-0.6 -2.85,-1.2 C -6.9333334,10.516666 -8.05,8.299999 -8.25,5.6 -8.416667,3.5666666 -8.066667,1.6999999 -7.2,0 l 0.15,-0.35 0.85,-1.4 c 0.8666665,-1.2 1.9666664,-2.1833334 3.3,-2.95 l 0.2,-0.1 0.25,-1.15 0,-0.25 c 0,-1.3333333 -0.3666666,-2.6 -1.1,-3.8 l -0.25,-0.4 -1.1,-1.25 c -0.5,-0.466667 -1.0833336,-0.866667 -1.75,-1.2 l -1.65,-0.55 -1.6,-0.2 -0.25,0 -0.55,0.1 -0.35,0.05 -0.2,0.05 c -0.7,0.266667 -1.3,0.7 -1.8,1.3 -0.5,0.6 -0.8,1.266667 -0.9,2 -0.133333,0.633334 -0.01667,1.216667 0.35,1.75 0.333333,0.5 0.783332,0.8333336 1.35,1 l 0.45,0.1 0.4,-0.1 0.15,0 0.25,-0.15 c 0.233334,-0.1666665 0.433333,-0.45 0.6,-0.85 l 0.05,-0.1 c 0.1,-0.3 0.01667,-0.633333 -0.25,-1 0.333333,0 0.616666,0.183334 0.85,0.55 0.3,0.6 0.266666,1.2666663 -0.1,2 -0.333333,0.6333336 -0.866666,1.05 -1.6,1.25 l -0.7,0.1 -1.05,-0.05 c -0.8,-0.2 -1.483333,-0.6000003 -2.05,-1.2 -0.433333,-0.4000003 -0.766666,-0.916667 -1,-1.55 -0.233334,-0.633334 -0.333334,-1.266667 -0.3,-1.9 0,-1.233334 0.383334,-2.416667 1.15,-3.55 0.766667,-1.133333 1.733333,-1.95 2.9,-2.45 l 0.55,-0.2 0.95,-0.25 1.75,-0.15 1.1,0.05 0.4,0.05 2.3,0.7 1.5,0.75 1.1,0.75 1.95,2.05 0.4,0.6 c 1.13333344,1.800001 1.7000002,3.666667 1.7,5.6 l 0,0.2 1.7,1.6 0.05,-0.25 1.55,0.45 1.5,0.15 0.5,0 0.1,-0.05 1.55,-0.3 0.35,-0.1 c 0.599999,-0.2 1.166666,-0.4833335 1.7,-0.85 1.666667,-1.2 2.6,-2.433333 2.8,-3.7 0.133333,-0.733333 0.06667,-1.466667 -0.2,-2.2 l -1,-1.5 -0.3,-0.3 c -0.466666,-0.433333 -0.966666,-0.633333 -1.5,-0.6 l -0.7,0.1 -1.05,0.6 -0.45,0.8 -0.05,0.4 0.4,0.9 0.1,0.1 c 0.2,0.199999 0.466666,0.3 0.8,0.3 l 0.2,0 -0.55,0.4 -0.35,0.05 -0.5,-0.05 c -0.466667,-0.166667 -0.866667,-0.516667 -1.2,-1.05 -0.2,-0.366667 -0.3,-0.8 -0.3,-1.3 0,-0.533334 0.133333,-1.016667 0.4,-1.45 0.5333333,-0.966666 1.333333,-1.616666 2.4,-1.95 l 0.15,-0.05 0.45,-0.1 0.15,0 0.55,-0.05 1.25,0.2 1.2,0.55 1.1,0.8 1.45,2 0.3,0.65 c 0.366667,1 0.483334,2.033333 0.35,3.1 -0.333333,2.0333336 -1.233333,3.7500003 -2.7,5.15 L 12.65,-3 11.7,-2.3 c -0.9,0.5666667 -1.85,1 -2.85,1.3 l -1.2,0.3 -1.3,0.15 -1.5,-0.05 z m 1.5,0.05 -0.05,0 z m 2,-9.55 -0.05,0 z m -5.4,5.35 0,-0.05 z M 2.9,-4.5 2.95,-4.45 z m -12.15,-12.35 0.05,0 z m -1.45,3.35 -0.05,0 z M 1.95,5.3 2,5.3 z m -1.9,1.9 0,-0.05 z m 1.7,-0.65 -0.05,0 z M 16,-21 l 0,3.7 c 1.266666,1.066666 2.233334,2.399999 2.9,4 0.666666,1.633333 0.916666,3.283333 0.75,4.95 l -0.05,0.1 c -0.433332,2.7333336 -1.65,5.1000004 -3.65,7.1 C 15.583333,2.1833334 14.416666,5.6000004 12.45,9.1 9.716667,13.966667 5.8833337,17.816668 0.95,20.65 L 0.55,21 -1.05,21 -1.4,20.65 C -6.733333,17.583332 -10.783333,13.333332 -13.55,7.9 -15.516666,4.0666666 -16.5,0.64999986 -16.5,-2.35 l 0,-1.2 -0.9,-0.75 c -0.766666,-0.7333333 -1.366666,-1.6333334 -1.8,-2.7 -0.4,-1.099999 -0.566666,-2.2 -0.5,-3.3 0.06667,-2.733333 1.133334,-5.083333 3.2,-7.05 l 0,-3.65 32.5,0 z m 3.6,12.75 0,0.05 z m -5.5,-8.05 0,-2.8 -28.7,0 0,2.65 c -0.966667,0.766667 -1.733332,1.7 -2.3,2.8 -0.6,1.133334 -0.9,2.283333 -0.9,3.45 -0.03333,0.8 0.1,1.616667 0.4,2.45 0.333334,0.8333335 0.783335,1.516667 1.35,2.05 0.466667,0.466667 0.95,0.816667 1.45,1.05 l 0,2.3 c 0,2.73333344 0.949999,5.9333337 2.85,9.6 2.666667,5.1 6.5000005,9.050001 11.5,11.85 4.9,-2.733333 8.683333,-6.583334 11.35,-11.55 1.9,-3.5 2.9,-6.7000001 3,-9.6 1.966666,-1.7333333 3.183333,-3.9 3.65,-6.5 0.166666,-1.5 -0.08333,-2.966666 -0.75,-4.4 -0.7,-1.433333 -1.666667,-2.55 -2.9,-3.35 z"
           id="path3454"
           style="fill:#000000;stroke-linecap:round;stroke-linejoin:round" />
      </g>
    </g>
  </g>
</svg>
