<?xml version="1.0" encoding="UTF-8" standalone="no"?>
<!-- Created with Inkscape (http://www.inkscape.org/) -->

<svg
   xmlns:dc="http://purl.org/dc/elements/1.1/"
   xmlns:cc="http://creativecommons.org/ns#"
   xmlns:rdf="http://www.w3.org/1999/02/22-rdf-syntax-ns#"
   xmlns:svg="http://www.w3.org/2000/svg"
   xmlns="http://www.w3.org/2000/svg"
   version="1.1"
   width="42"
   height="32.799999"
   viewBox="0 0 42 32.799999"
   id="svg3052"
   style="overflow:visible">
  <metadata
     id="metadata3070">
    <rdf:RDF>
      <cc:Work
         rdf:about="">
        <dc:format>image/svg+xml</dc:format>
        <dc:type
           rdf:resource="http://purl.org/dc/dcmitype/StillImage" />
        <dc:title></dc:title>
      </cc:Work>
    </rdf:RDF>
  </metadata>
  <defs
     id="defs3054" />
  <g
     transform="translate(21,16.4)"
     id="g3058">
    <g
       id="g3060">
      <g
         id="g3062">
        <path
           d="m -1.15,-16.4 2.25,0 c 4.766667,0 8.983334,2.166667 12.65,6.5 3.666666,4.3333334 6.016666,9.91666689 7.05,16.75 L 21,8.05 8.85,15 9.75,11 C 10.616667,7.2666664 10.533334,3.833333 9.5,0.7 L 5.05,1.75 6.7,14.1 0.6,16.15 0.5,16.15 -0.1,16.4 -6.75,14.1 -5.1,1.75 -9.55,0.7 C -10.583334,3.8333337 -10.666667,7.2666674 -9.8,11 l 0.9,4 -12.1,-6.95 0.15,-1.2 c 1.033334,-6.83333359 3.383335,-12.416667 7.05,-16.75 3.666667,-4.333334 7.883334,-6.5 12.65,-6.5 z m 9.9,11.9 c -1.766667,1.1666667 -3.7000003,1.8666668 -5.8,2.1 l -0.2,-6.55 c 2.166667,0.5 4.166667,1.983334 6,4.45 z m -7.65,-10.05 -2.25,0 c -4.3333336,0 -8.183334,2.066666 -11.55,6.2 -3.3,4.0666667 -5.416667,9.2333337 -6.35,15.5 l 7.5,4.3 c -1.133333,-4.966667 -0.8,-9.3166673 1,-13.05 2.333333,1 4.833333,1.6 7.5,1.8 l -1.7,12.7 4.65,1.6 0.15,0 L 4.7,12.9 3,0.2 C 5.666667,-1.4901161e-8 8.166667,-0.6 10.5,-1.6 c 1.766666,3.8333336 2.099999,8.183334 1,13.05 L 19,7.15 C 18.066668,0.8833337 15.950001,-4.2833333 12.65,-8.35 9.283333,-12.483334 5.433333,-14.55 1.1,-14.55 z M -8.8,-4.5 c 1.8333333,-2.4666667 3.8333333,-3.95 6,-4.45 L -3,-2.4 c -2.1000004,-0.2333334 -4.033334,-0.9333335 -5.8,-2.1 z"
           id="path3064"
           style="fill:#000000;stroke-linecap:round;stroke-linejoin:round" />
        <path
           d="m 2.95,-2.4 c 2.1,-0.2333334 4.0333336,-0.9333335 5.8,-2.1 -1.8333335,-2.4666667 -3.8333335,-3.95 -6,-4.45 l 0.2,6.55 z m -4.1,-12.15 2.25,0 c 4.3333334,0 8.183333,2.066666 11.55,6.2 3.300001,4.0666667 5.416668,9.2333337 6.35,15.5 l -7.5,4.3 C 12.599999,6.583333 12.266666,2.2333326 10.5,-1.6 8.166666,-0.6 5.666666,0 3,0.2 l 1.7,12.7 -4.65,1.6 -0.15,0 -4.65,-1.6 1.7,-12.7 C -5.7166667,-1.4901161e-8 -8.216667,-0.6 -10.55,-1.6 c -1.8,3.7333332 -2.133333,8.0833336 -1,13.05 l -7.5,-4.3 c 0.933333,-6.2666663 3.05,-11.4333333 6.35,-15.5 3.366667,-4.133334 7.2166674,-6.2 11.55,-6.2 z m -1.65,5.6 c -2.166667,0.5 -4.166667,1.983334 -6,4.45 1.7666667,1.1666667 3.7,1.8666668 5.8,2.1 l 0.2,-6.55 z"
           id="path3066"
           style="fill:#ffffff;stroke-linecap:round;stroke-linejoin:round" />
      </g>
    </g>
  </g>
</svg>
