<!--version="1.0" encoding="UTF-8"--><svg version="1.1" id="Layer_1" xmlns="http://www.w3.org/2000/svg" width="28" height="42" xml:space="preserve"><g id="PathID_68" transform="matrix(1, 0, 0, 1, 13.55, 21)"><path style="fill: rgb(0, 0, 0); fill-opacity: 1;" d="m1.8-18.05 3.1 2.4-.15 2.45 2.75.6 2.2 1.95v.85l3.9-.6-.7 8.75.55 3.35-.05.25-.25 2.9V5l-.05.1-.5 2.45.9.7-.85 8.4L5.05 21h-5l-9.45-5.2.2-4.6-.5-3-.5-1.7v-.15l-.25-1.65-3.1-5.65 3.2-.45.35-2.25-.35-3.45q-.45-3.95-.3-5.75.1-1.25.55-1.8.25-.6.65-3.15l.15-1.2 5.55-2 4.7 1.15.85 1.8M0-16.75l-.65-1.4-3.2-.8-3.85 1.4q-.5 3.6-1 4.1-.3.3-.15 3.25l.25 2.9.4 3.7-.65 3.95-1.75.25 1.9 3.45.25 2.05.5 1.65.5 3.35-.1 3.55L.35 19H4.3l6.3-3.6.6-6.25-1-.75.75-3.7.25-2.95-.5-3.3.5-6.5-1.65.25L8.4-6.75 7.5-8.5v-1.25L6.35-10.8l-1.9-.35L2.3-9.1l.35-5.6L0-16.75m-2.85 8.3H-4.5v-3.35h1.65v3.35m8.2 12.7 1.4.2v8.15h-6l.55-2.85q.75-3.1 1.6-4.3.9-1.2 2.45-1.2"/><path style="fill: rgb(59, 129, 247); fill-opacity: 1;" d="M2.65-14.7 2.3-9.1l2.15-2.05 1.9.35L7.5-9.75v1.25l.9 1.75L9.55-7.8l1.65-.25-.5 6.5.5 3.3-.25 2.95-.75 3.7 1 .75-.6 6.25L4.3 19H.35l-7.9-4.35.1-3.55-.5-3.35-.5-1.65-.25-2.05L-10.6.6l1.75-.25.65-3.95-.4-3.7-.25-2.9q-.15-2.95.15-3.25.5-.5 1-4.1l3.85-1.4 3.2.8.65 1.4 2.65 2.05m-5.5 2.9H-4.5v3.35h1.65v-3.35M2.9 5.45q-.85 1.2-1.6 4.3L.75 12.6h6V4.45l-1.4-.2q-1.55 0-2.45 1.2"/></g></svg>