<!--version="1.0" encoding="UTF-8" standalone="no"--><!-- Created with Inkscape (http://www.inkscape.org/) --><svg xmlns="http://www.w3.org/2000/svg" version="1.1" width="42" height="32.8" viewBox="0 0 42 32.8" id="svg3052" style="overflow-x: visible; overflow-y: visible;"><g transform="translate(21,16.4)" id="g3058"><g id="g3060"><g id="g3062"><path d="M-1.15-16.4H1.1c4.767 0 8.983 2.167 12.65 6.5C17.417-5.567 19.767.017 20.8 6.85l.2 1.2L8.85 15l.9-4c.867-3.733.783-7.167-.25-10.3L5.05 1.75 6.7 14.1.6 16.15H.5l-.6.25-6.65-2.3L-5.1 1.75-9.55.7c-1.033 3.133-1.117 6.567-.25 10.3l.9 4L-21 8.05l.15-1.2C-19.817.017-17.467-5.567-13.8-9.9c3.667-4.333 7.883-6.5 12.65-6.5zm9.9 11.9a12.984 12.984 0 01-5.8 2.1l-.2-6.55c2.167.5 4.167 1.983 6 4.45zM1.1-14.55h-2.25c-4.333 0-8.183 2.067-11.55 6.2-3.3 4.067-5.417 9.233-6.35 15.5l7.5 4.3c-1.133-4.967-.8-9.317 1-13.05 2.333 1 4.833 1.6 7.5 1.8l-1.7 12.7 4.65 1.6h.15l4.65-1.6L3 .2c2.667-.2 5.167-.8 7.5-1.8 1.767 3.833 2.1 8.183 1 13.05l7.5-4.3c-.933-6.267-3.05-11.433-6.35-15.5-3.367-4.133-7.217-6.2-11.55-6.2zM-8.8-4.5c1.833-2.467 3.833-3.95 6-4.45L-3-2.4a12.984 12.984 0 01-5.8-2.1z" id="path3064" style="fill: rgb(0, 0, 0); stroke-linecap: round; stroke-linejoin: round;"/><path d="M2.95-2.4c2.1-.233 4.033-.933 5.8-2.1-1.833-2.467-3.833-3.95-6-4.45l.2 6.55zm-4.1-12.15H1.1c4.333 0 8.183 2.067 11.55 6.2C15.95-4.283 18.067.883 19 7.15l-7.5 4.3c1.1-4.867.767-9.217-1-13.05C8.167-.6 5.667 0 3 .2l1.7 12.7-4.65 1.6H-.1l-4.65-1.6L-3.05.2c-2.667-.2-5.167-.8-7.5-1.8-1.8 3.733-2.133 8.083-1 13.05l-7.5-4.3C-18.117.883-16-4.283-12.7-8.35c3.367-4.133 7.217-6.2 11.55-6.2zm-1.65 5.6c-2.167.5-4.167 1.983-6 4.45A12.984 12.984 0 00-3-2.4l.2-6.55z" id="path3066" style="fill: rgb(59, 129, 247); stroke-linecap: round; stroke-linejoin: round;"/></g></g></g></svg>