<!--version="1.0" encoding="UTF-8"--><svg version="1.1" id="Layer_1" xmlns="http://www.w3.org/2000/svg" width="42" height="39" xml:space="preserve"><g id="PathID_65" transform="matrix(1, 0, 0, 1, 21, 19.2)"><path style="fill: rgb(255, 255, 255); fill-opacity: 1;" d="M14.8-.5q4.25 6.15 4.45 13.3l-1.3.5-.6-3.4q-1-4.05-2.9-7.5-2.85-5.25-8.4-8.6l-5-2.35v3.85l4 1.4q4.55 2.1 7 5.7 2.5 3.55 4 7.65L17 13.4 3.95 16.6q-.3-5.1-3.95-9.75-3.65 4.65-3.95 9.75L-17 13.4l1-3.35q1.45-4.1 3.95-7.65 2.45-3.6 7-5.7 2.25-1.05 4-1.4v-3.85Q-3.25-7.9-6-6.2q-5.55 3.35-8.45 8.6-1.85 3.45-2.9 7.5l-.65 3.4-1.25-.5q.2-7.2 4.45-13.3Q-10-7.45-1.05-11.25v-.9L0-14.6l1.05 2.45v.9Q9.95-7.45 14.8-.5M-9.8 5.95h4.3l-2.15-3.1-2.15 3.1m19.55 0-2.1-3.1-2.15 3.1h4.25"/><path style="fill: rgb(0, 0, 0); fill-opacity: 1;" d="M1.05-11.25v-.9L0-14.6l-1.05 2.45v.9Q-10-7.45-14.8-.5q-4.25 6.1-4.45 13.3l1.25.5.65-3.4q1.05-4.05 2.9-7.5 2.9-5.25 8.45-8.6 2.75-1.7 4.95-2.35v3.85q-1.75.35-4 1.4-4.55 2.1-7 5.7-2.5 3.55-3.95 7.65l-1 3.35 13.05 3.2q.3-5.1 3.95-9.75 3.65 4.65 3.95 9.75L17 13.4l-.95-3.35q-1.5-4.1-4-7.65-2.45-3.6-7-5.7l-4-1.4v-3.85l5 2.35q5.55 3.35 8.4 8.6 1.9 3.45 2.9 7.5l.6 3.4 1.3-.5q-.2-7.15-4.45-13.3Q9.95-7.45 1.05-11.25m14.8 8.9q4.85 6.7 5.1 14.85l.05 1.6L.1 19.2-21 14.1l.05-1.6q.25-8.15 5.05-14.85 4.8-6.7 13.15-10.55l2.7-6.3 2.7 6.3Q11-9.05 15.85-2.35m-23.5 5.2 2.15 3.1h-4.3l2.15-3.1M5.5 5.95l2.15-3.1 2.1 3.1H5.5"/></g></svg>