<!--version="1.0" encoding="UTF-8" standalone="no"--><!-- Created with Inkscape (http://www.inkscape.org/) --><svg xmlns="http://www.w3.org/2000/svg" version="1.1" width="27.3" height="42" viewBox="0 0 27.3 42" id="svg3361" style="overflow-x: visible; overflow-y: visible;"><g transform="translate(13.65,21)" id="g3367"><g id="g3369"><g id="g3371"><path d="m.45-14 .1.1 3 7.35v1.1l-.1-.1-1.4-1.3-1.15-1C.567-8.183.4-8.467.4-8.7v-5.2l.05-.1zm.1 6.95 1.35 1.3 1.15 1 .5.85v1.15l-.1-.15-1.4-1.25L.9-5.2.4-6v-1.05l.05-.1.1.1zm0 2.7L1.9-3.1l1.15 1 .5.85V-.1l-.1-.1-1.4-1.3-1.1-1C.583-2.867.4-3.15.4-3.35V-4.4l.05-.1.1.15zM5.6-10.9 6-2.35l2.05-3.1 5.4 7.95.2.35V13.8l-.65.35-.25.1-12 6.3-.2.15-.6.3-13.6-7.15v-11L-8-5.45l2.05 3.1.35-8.25.05-.3.1-.25L0-21l5.6 10.1zM0-18.65l-4.3 7.85-.6 12.15L-8-3.4l-4.35 6.35v9.85l12.3 6.5 12.25-6.4.2-.15v-9.8L8.05-3.4l-3.1 4.75-.6-12.15L0-18.65zm11.55 24.3-.1-.1-1.35-1.3-1.15-1c-.333-.333-.5-.617-.5-.85V1.25l.1.15 1.4 1.25L11.1 3.7l.45.65v1.3zm-1.45-1.4h-.05zm-2.45-2-.5.85L6 4.1 4.6 5.4l-.1.1V4.35c0-.2.167-.483.5-.85l2.55-2.25.05-.15.05.1v1.05zM7.6 3.8l.05.05V4.9l-.5.85L6 6.8 4.6 8.05l-.1.15V7.05c0-.233.167-.517.5-.85l1.1-1 1.4-1.3.1-.1zM6.1 5.2h.05v-.05zm1.4 1.35.1-.1.05.1v6.15L4.5 14.4V9.7l1.6-1.85 1.4-1.3zm-1.4 1.3h.05zM-.4-14l.05 5.3c0 .2-.183.483-.55.85l-1.1 1-1.5 1.4-.05-1.1L-.5-13.9l.1-.1zM-2-6.85h-.05zm0 2.7h-.05L-3.4-2.9l-.1.15-.05-.1V-3.9l.55-.85 2.6-2.4L-.35-6c-.067.233-.25.5-.55.8L-2-4.15zm1.5-.2.1-.15v1.15c0 .233-.167.517-.5.85l-1.1 1-1.4 1.3-.1.1-.05-.1v-1.05L-3-2.1l1.1-1 1.4-1.25zM-2-1.5h-.05zm1.5-.2.1-.1-.4 18.15-2.75-1.45V1.45L-3 .6l1.1-1 1.4-1.3zm-3.95 6.05V5.4l-.05.1-.1-.1-1.35-1.3-1.15-1-.5-.85V1.1l.1.15 2.55 2.25c.333.433.5.717.5.85zM-8.4 2.4c0 .233-.167.517-.5.85l-1.15 1-1.4 1.3-.05.1v-1.3l.45-.65 1.15-1.05 1.4-1.25.05-.15.05.1V2.4zm.8 1.4.1.1 1.4 1.25 1.15 1.05c.333.333.5.617.5.85V8.1l-.05.1-.05-.15-1.4-1.25-1.15-1.05-.5-.85V3.8zm1.5 1.35v.05zM-8.3 3.8l.05.05v8.55l-3.1-1.6-.05-3.75.5-.85 1.15-1 1.35-1.3.1-.1z" id="path3373" style="fill: rgb(0, 0, 0); stroke-linecap: round; stroke-linejoin: round;"/><path d="m.55-13.9-.1-.1-.05.1v5.2c0 .233.167.517.5.85l1.15 1 1.4 1.3.1.1v-1.1l-3-7.35zM1.9-5.75.55-7.05l-.1-.1-.05.1V-6l.5.8 1.15 1.05 1.4 1.25.1.15V-3.9l-.5-.85-1.15-1zm0 2.65L.55-4.35l-.1-.15-.05.1v1.05c0 .2.183.483.55.85l1.1 1 1.4 1.3.1.1v-1.15l-.5-.85-1.15-1zm-6.2-7.7L0-18.65l4.35 7.85.6 12.15 3.1-4.75 4.35 6.35v9.8l-.2.15-12.25 6.4-12.3-6.5V2.95L-8-3.4l3.1 4.75.6-12.15zM11.45 5.55l.1.1v-1.3l-.45-.65-1.15-1.05-1.4-1.25-.1-.15V2.4c0 .233.167.517.5.85l1.1 1 1.4 1.3zm-1.4-1.3h.05zM7.15 3.1l.5-.85V1.2l-.05-.1-.05.15L5 3.5c-.333.367-.5.65-.5.85V5.5l.1-.1L6 4.1l1.15-1zm.5.75L7.6 3.8l-.1.1-1.35 1.25L5 6.2c-.333.333-.5.617-.5.85V8.2l.1-.15L6 6.8l1.15-1.05.5-.85V3.85zM6.15 5.2H6.1h.05zM7.6 6.45l-.1.1-1.35 1.3L4.5 9.7v4.7l3.15-1.7V6.55l-.05-.1zm-1.45 1.4H6.1zM-.35-8.7-.4-14l-.1.1-3.05 7.35.05 1.1 1.45-1.4 1.15-1c.367-.367.55-.65.55-.85zm-1.7 1.85H-2zm0 2.7H-2L-.9-5.2c.3-.3.483-.567.55-.8L-.4-7.15-3-4.75l-.55.85v1.05l.05.1.1-.15 1.35-1.25zM-.4-4.5l-.1.15-1.4 1.25-1.1 1-.55.85V-.2l.05.1.1-.1 1.35-1.3 1.15-1c.333-.333.5-.617.5-.85V-4.5zm-1.65 3H-2zm1.65-.3-.1.1-1.4 1.3-1.1 1-.55.85V14.9l2.75 1.45.4-18.15zm-4.05 7.2V4.35c0-.133-.167-.417-.5-.85L-7.5 1.25l-.1-.15v1.15l.5.85 1.15 1 1.35 1.3.1.1.05-.1zM-8.9 3.25c.333-.333.5-.617.5-.85V1.35l-.05-.1-.05.15-1.4 1.25-1.15 1.05-.45.65v1.3l.05-.1 1.4-1.3 1.15-1zm1.4.65-.1-.1v1.1l.5.85 1.15 1.05 1.4 1.25.05.15.05-.1V7.05c0-.233-.167-.517-.5-.85l-1.15-1-1.4-1.3zm1.4 1.3v-.05zm-2.15-1.35-.05-.05-.1.1-1.35 1.3-1.15 1-.5.85.05 3.75 3.1 1.6V3.85z" id="path3375" style="fill: rgb(255, 255, 255); stroke-linecap: round; stroke-linejoin: round;"/></g></g></g></svg>