<?xml version="1.0" encoding="UTF-8" standalone="no"?>
<!-- Created with Inkscape (http://www.inkscape.org/) -->

<svg
   xmlns:dc="http://purl.org/dc/elements/1.1/"
   xmlns:cc="http://creativecommons.org/ns#"
   xmlns:rdf="http://www.w3.org/1999/02/22-rdf-syntax-ns#"
   xmlns:svg="http://www.w3.org/2000/svg"
   xmlns="http://www.w3.org/2000/svg"
   version="1.1"
   width="27.299999"
   height="42"
   viewBox="0 0 27.299999 42"
   id="svg3361"
   style="overflow:visible">
  <metadata
     id="metadata3379">
    <rdf:RDF>
      <cc:Work
         rdf:about="">
        <dc:format>image/svg+xml</dc:format>
        <dc:type
           rdf:resource="http://purl.org/dc/dcmitype/StillImage" />
        <dc:title></dc:title>
      </cc:Work>
    </rdf:RDF>
  </metadata>
  <defs
     id="defs3363" />
  <g
     transform="translate(13.65,21)"
     id="g3367">
    <g
       id="g3369">
      <g
         id="g3371">
        <path
           d="m 0.45,-14 0.1,0.1 3,7.35 0,1.1 -0.1,-0.1 -1.4,-1.3 -1.15,-1 C 0.56666666,-8.183333 0.4,-8.466667 0.4,-8.7 l 0,-5.2 0.05,-0.1 z m 0.1,6.95 1.35,1.3 1.15,1 0.5,0.85 0,1.15 L 3.45,-2.9 2.05,-4.15 0.9,-5.2 0.4,-6 l 0,-1.05 0.05,-0.1 0.1,0.1 z m 0,2.7 1.35,1.25 1.15,1 0.5,0.85 0,1.15 -0.1,-0.1 -1.4,-1.3 -1.1,-1 C 0.5833334,-2.8666666 0.40000004,-3.1499999 0.4,-3.35 l 0,-1.05 0.05,-0.1 0.1,0.15 z m 5.05,-6.55 0.4,8.55 2.05,-3.1 5.4,7.95 0.2,0.35 0,10.95 -0.65,0.35 -0.25,0.1 -12,6.3 -0.2,0.15 -0.6,0.3 -13.6,-7.15 0,-11 5.65,-8.3 2.05,3.1 0.35,-8.25 0.05,-0.3 0.1,-0.25 L 0,-21 5.6,-10.9 z M 0,-18.65 -4.3,-10.8 -4.9,1.35 -8,-3.4 l -4.35,6.35 0,9.85 12.3,6.5 12.25,-6.4 0.2,-0.15 0,-9.8 L 8.05,-3.4 4.95,1.35 4.35,-10.8 0,-18.65 z m 11.55,24.3 -0.1,-0.1 -1.35,-1.3 -1.15,-1 C 8.616667,2.9166667 8.45,2.6333334 8.45,2.4 l 0,-1.15 0.1,0.15 1.4,1.25 1.15,1.05 0.45,0.65 0,1.3 z m -1.45,-1.4 -0.05,0 z M 7.65,2.25 7.15,3.1 6,4.1 4.6,5.4 4.5,5.5 4.5,4.35 C 4.5,4.15 4.6666665,3.8666668 5,3.5 L 7.55,1.25 7.6,1.1 l 0.05,0.1 0,1.05 z M 7.6,3.8 7.65,3.85 7.65,4.9 7.15,5.75 6,6.8 4.6,8.05 4.5,8.2 4.5,7.05 C 4.5,6.8166666 4.6666665,6.5333333 5,6.2 L 6.1,5.2 7.5,3.9 7.6,3.8 z m -1.5,1.4 0.05,0 0,-0.05 z m 1.4,1.35 0.1,-0.1 0.05,0.1 0,6.15 -3.15,1.7 0,-4.7 1.6,-1.85 1.4,-1.3 z m -1.4,1.3 0.05,0 z M -0.4,-14 l 0.05,5.3 c 0,0.2 -0.1833333,0.483333 -0.55,0.85 l -1.1,1 -1.5,1.4 -0.05,-1.1 3.05,-7.35 0.1,-0.1 z m -1.6,7.15 -0.05,0 z m 0,2.7 -0.05,0 -1.35,1.25 -0.1,0.15 -0.05,-0.1 0,-1.05 0.55,-0.85 2.6,-2.4 0.05,1.15 c -0.0666667,0.233333 -0.24999996,0.5 -0.55,0.8 L -2,-4.15 z m 1.5,-0.2 0.1,-0.15 0,1.15 c 0,0.2333334 -0.16666666,0.5166667 -0.5,0.85 l -1.1,1 -1.4,1.3 -0.1,0.1 -0.05,-0.1 0,-1.05 0.55,-0.85 1.1,-1 1.4,-1.25 z m -1.5,2.85 -0.05,0 z m 1.5,-0.2 0.1,-0.1 -0.4,18.15 -2.75,-1.45 0,-13.45 0.55,-0.85 1.1,-1 1.4,-1.3 z m -3.95,6.05 0,1.05 -0.05,0.1 -0.1,-0.1 -1.35,-1.3 -1.15,-1 -0.5,-0.85 0,-1.15 0.1,0.15 2.55,2.25 c 0.3333337,0.4333334 0.5,0.7166667 0.5,0.85 z M -8.4,2.4 c 0,0.2333334 -0.166667,0.5166667 -0.5,0.85 l -1.15,1 -1.4,1.3 -0.05,0.1 0,-1.3 0.45,-0.65 1.15,-1.05 1.4,-1.25 0.05,-0.15 0.05,0.1 0,1.05 z m 0.8,1.4 0.1,0.1 1.4,1.25 1.15,1.05 c 0.3333337,0.3333333 0.5,0.6166666 0.5,0.85 l 0,1.05 L -4.5,8.2 -4.55,8.05 -5.95,6.8 -7.1,5.75 -7.6,4.9 l 0,-1.1 z m 1.5,1.35 0,0.05 z m -2.2,-1.35 0.05,0.05 0,8.55 -3.1,-1.6 -0.05,-3.75 0.5,-0.85 1.15,-1 1.35,-1.3 0.1,-0.1 z"
           id="path3373"
           style="fill:#000000;stroke-linecap:round;stroke-linejoin:round" />
        <path
           d="m 0.55,-13.9 -0.1,-0.1 -0.05,0.1 0,5.2 c 0,0.233333 0.16666666,0.516666 0.5,0.85 l 1.15,1 1.4,1.3 0.1,0.1 0,-1.1 -3,-7.35 z m 1.35,8.15 -1.35,-1.3 -0.1,-0.1 -0.05,0.1 0,1.05 0.5,0.8 1.15,1.05 1.4,1.25 0.1,0.15 0,-1.15 -0.5,-0.85 -1.15,-1 z m 0,2.65 -1.35,-1.25 -0.1,-0.15 -0.05,0.1 0,1.05 c 0,0.2000001 0.1833333,0.4833334 0.55,0.85 l 1.1,1 1.4,1.3 0.1,0.1 0,-1.15 -0.5,-0.85 -1.15,-1 z m -6.2,-7.7 4.3,-7.85 4.35,7.85 0.6,12.15 3.1,-4.75 4.35,6.35 0,9.8 -0.2,0.15 -12.25,6.4 -12.3,-6.5 0,-9.85 4.35,-6.35 3.1,4.75 0.6,-12.15 z m 15.75,16.35 0.1,0.1 0,-1.3 L 11.1,3.7 9.95,2.65 8.55,1.4 8.45,1.25 l 0,1.15 c 0,0.2333334 0.166667,0.5166667 0.5,0.85 l 1.1,1 1.4,1.3 z m -1.4,-1.3 0.05,0 z M 7.15,3.1 7.65,2.25 7.65,1.2 7.6,1.1 7.55,1.25 5,3.5 C 4.6666665,3.8666668 4.5,4.15 4.5,4.35 L 4.5,5.5 4.6,5.4 6,4.1 7.15,3.1 z M 7.65,3.85 7.6,3.8 7.5,3.9 6.15,5.15 5,6.2 C 4.6666665,6.5333333 4.5,6.8166666 4.5,7.05 L 4.5,8.2 4.6,8.05 6,6.8 7.15,5.75 7.65,4.9 l 0,-1.05 z m -1.5,1.35 -0.05,0 0.05,0 z M 7.6,6.45 7.5,6.55 6.15,7.85 4.5,9.7 l 0,4.7 3.15,-1.7 0,-6.15 -0.05,-0.1 z m -1.45,1.4 -0.05,0 z M -0.35,-8.7 -0.4,-14 l -0.1,0.1 -3.05,7.35 0.05,1.1 1.45,-1.4 1.15,-1 c 0.3666667,-0.366666 0.55000004,-0.65 0.55,-0.85 z m -1.7,1.85 0.05,0 z m 0,2.7 0.05,0 1.1,-1.05 c 0.30000004,-0.3 0.48333337,-0.566667 0.55,-0.8 l -0.05,-1.15 -2.6,2.4 -0.55,0.85 0,1.05 0.05,0.1 0.1,-0.15 1.35,-1.25 z m 1.65,-0.35 -0.1,0.15 -1.4,1.25 -1.1,1 -0.55,0.85 0,1.05 0.05,0.1 0.1,-0.1 1.35,-1.3 1.15,-1 c 0.33333334,-0.3333333 0.5,-0.6166666 0.5,-0.85 l 0,-1.15 z m -1.65,3 0.05,0 z m 1.65,-0.3 -0.1,0.1 -1.4,1.3 -1.1,1 -0.55,0.85 0,13.45 2.75,1.45 0.4,-18.15 z m -4.05,7.2 0,-1.05 c 0,-0.1333333 -0.1666663,-0.4166666 -0.5,-0.85 L -7.5,1.25 -7.6,1.1 l 0,1.15 0.5,0.85 1.15,1 1.35,1.3 0.1,0.1 0.05,-0.1 z M -8.9,3.25 C -8.566667,2.9166667 -8.4,2.6333334 -8.4,2.4 l 0,-1.05 -0.05,-0.1 -0.05,0.15 -1.4,1.25 -1.15,1.05 -0.45,0.65 0,1.3 0.05,-0.1 1.4,-1.3 1.15,-1 z m 1.4,0.65 -0.1,-0.1 0,1.1 0.5,0.85 1.15,1.05 1.4,1.25 0.05,0.15 0.05,-0.1 0,-1.05 c 0,-0.2333334 -0.1666663,-0.5166667 -0.5,-0.85 L -6.1,5.2 -7.5,3.9 z m 1.4,1.3 0,-0.05 z M -8.25,3.85 -8.3,3.8 l -0.1,0.1 -1.35,1.3 -1.15,1 -0.5,0.85 0.05,3.75 3.1,1.6 0,-8.55 z"
           id="path3375"
           style="fill:#ffffff;stroke-linecap:round;stroke-linejoin:round" />
      </g>
    </g>
  </g>
</svg>
