<!--version="1.0" encoding="UTF-8" standalone="no"--><!-- Created with Inkscape (http://www.inkscape.org/) --><svg xmlns="http://www.w3.org/2000/svg" version="1.1" width="43" height="46.427" viewBox="0 0 43 46.427" id="svg3157" style="overflow-x: visible; overflow-y: visible;"><g transform="matrix(0.09067723,0,0,0.09067723,19.736327,21.309147)" id="g3163"><g transform="matrix(12.190475,0,0,12.190475,19.45,21)" id="g3165"><path d="m.85-20.4 1.05.2L8.85-6.75l2.4-.9 8.2 14.05-11.6 7.8-2.9-2.55L.65 21l-20.1-9.7 9.2-20.7 2.55 2.45L-3.35-21l1.45.2 1.9 8.4.85-8zm1.3 3.5-1 9.1 3.6 13.3 4.95 4.55L17.2 5 10.55-6.4 8-5.5 2.15-16.9zm-9 12.25-2.8-2.65-7.55 16.9 17.05 8.25L1.8 13.2l-4.6-31.05-4.05 13.2z" id="path3167" style="fill: rgb(0, 0, 0); stroke-linecap: round; stroke-linejoin: round;"/><path d="m1.15-7.8 1-9.1L8-5.5l2.55-.9L17.2 5l-7.5 5.05L4.75 5.5 1.15-7.8zm-10.8.5 2.8 2.65 4.05-13.2L1.8 13.2l-1.95 4.65L-17.2 9.6l7.55-16.9z" id="path3169" style="fill: rgb(59, 129, 247); stroke-linecap: round; stroke-linejoin: round;"/></g></g></svg>