<?xml version="1.0" encoding="UTF-8" standalone="no"?>
<!-- Created with Inkscape (http://www.inkscape.org/) -->

<svg
   xmlns:dc="http://purl.org/dc/elements/1.1/"
   xmlns:cc="http://creativecommons.org/ns#"
   xmlns:rdf="http://www.w3.org/1999/02/22-rdf-syntax-ns#"
   xmlns:svg="http://www.w3.org/2000/svg"
   xmlns="http://www.w3.org/2000/svg"
   version="1.1"
   width="43"
   height="46.426739"
   viewBox="0 0 43 46.426739"
   id="svg3157"
   style="overflow:visible">
  <metadata
     id="metadata3173">
    <rdf:RDF>
      <cc:Work
         rdf:about="">
        <dc:format>image/svg+xml</dc:format>
        <dc:type
           rdf:resource="http://purl.org/dc/dcmitype/StillImage" />
        <dc:title></dc:title>
      </cc:Work>
    </rdf:RDF>
  </metadata>
  <defs
     id="defs3159" />
  <g
     transform="matrix(0.09067723,0,0,0.09067723,19.736327,21.309147)"
     id="g3163">
    <g
       transform="matrix(12.190475,0,0,12.190475,19.45,21)"
       id="g3165">
      <path
         d="m 0.85,-20.4 1.05,0.2 6.95,13.45 2.4,-0.9 8.2,14.05 -11.6,7.8 -2.9,-2.55 -4.3,9.35 -20.1,-9.7 9.2,-20.7 2.55,2.45 4.35,-14.05 1.45,0.2 1.9,8.4 0.85,-8 z m 1.3,3.5 -1,9.1 L 4.75,5.5 9.7,10.05 17.2,5 10.55,-6.4 8,-5.5 2.15,-16.9 z m -9,12.25 -2.8,-2.65 -7.55,16.9 17.05,8.25 1.95,-4.65 -4.6,-31.05 -4.05,13.2 z"
         id="path3167"
         style="fill:#000000;stroke-linecap:round;stroke-linejoin:round" />
      <path
         d="m 1.15,-7.8 1,-9.1 L 8,-5.5 10.55,-6.4 17.2,5 9.7,10.05 4.75,5.5 1.15,-7.8 z m -10.8,0.5 2.8,2.65 4.05,-13.2 L 1.8,13.2 -0.15,17.85 -17.2,9.6 -9.65,-7.3 z"
         id="path3169"
         style="fill:#ffffff;stroke-linecap:round;stroke-linejoin:round" />
    </g>
  </g>
</svg>
