<?xml version="1.0" encoding="UTF-8"?>
<svg version="1.1" id="Layer_1" xmlns="http://www.w3.org/2000/svg" xmlns:xlink="http://www.w3.org/1999/xlink" width="20px" height="40px" xml:space="preserve">
<g id="PathID_101" transform="matrix(1, 0, 0, 1, 9.7, 19.75)">
<path style="fill:#000000;fill-opacity:1" d="M2.15 -1.75Q1.5 1.1 0.05 4.75Q-1.45 1.15 -2.05 -1.75Q-2.9 -5.55 -2.95 -10.35L-2.95 -10.75L3.05 -10.75L3.05 -10.45Q3 -5.6 2.15 -1.75M9.75 -10.3Q9.7 -3.25 8.2 2.5Q7.35 5.75 5 11.45Q3.15 15.65 2.35 18.5L1.9 19.9L-1.85 19.9L-2.3 18.5Q-3.1 15.65 -4.95 11.45Q-7.3 5.75 -8.15 2.5Q-9.65 -3.25 -9.7 -10.25L-9.7 -19.75L9.75 -19.75L9.75 -10.3M7.75 -17.75L-7.7 -17.75L-7.7 -10.3Q-7.6 -1.4 -5 5.9L-0.35 17.9L0.45 17.9L5.05 5.9Q7.65 -1.45 7.75 -10.35L7.75 -17.75"/>
<path style="fill:#FFFFFF;fill-opacity:1" d="M3.05 -10.45L3.05 -10.75L-2.95 -10.75L-2.95 -10.35Q-2.9 -5.55 -2.05 -1.75Q-1.45 1.15 0.05 4.75Q1.5 1.1 2.15 -1.75Q3 -5.6 3.05 -10.45M7.75 -10.35Q7.65 -1.45 5.05 5.9L0.45 17.9L-0.35 17.9L-5 5.9Q-7.6 -1.4 -7.7 -10.3L-7.7 -17.75L7.75 -17.75L7.75 -10.35"/>
</g>
</svg>