<!--version="1.0" encoding="UTF-8"--><svg version="1.1" id="Layer_1" xmlns="http://www.w3.org/2000/svg" width="20" height="40" xml:space="preserve"><g id="PathID_101" transform="matrix(1, 0, 0, 1, 9.7, 19.75)"><path style="fill: rgb(0, 0, 0); fill-opacity: 1;" d="M2.15-1.75Q1.5 1.1.05 4.75q-1.5-3.6-2.1-6.5-.85-3.8-.9-8.6v-.4h6v.3Q3-5.6 2.15-1.75m7.6-8.55Q9.7-3.25 8.2 2.5 7.35 5.75 5 11.45q-1.85 4.2-2.65 7.05l-.45 1.4h-3.75l-.45-1.4q-.8-2.85-2.65-7.05-2.35-5.7-3.2-8.95-1.5-5.75-1.55-12.75v-9.5H9.75v9.45m-2-7.45H-7.7v7.45Q-7.6-1.4-5 5.9l4.65 12h.8l4.6-12q2.6-7.35 2.7-16.25v-7.4"/><path style="fill: rgb(255, 255, 255); fill-opacity: 1;" d="M3.05-10.45v-.3h-6v.4q.05 4.8.9 8.6.6 2.9 2.1 6.5 1.45-3.65 2.1-6.5.85-3.85.9-8.7m4.7.1q-.1 8.9-2.7 16.25l-4.6 12h-.8L-5 5.9q-2.6-7.3-2.7-16.2v-7.45H7.75v7.4"/></g></svg>