<!--version="1.0" encoding="UTF-8"--><svg version="1.1" id="Layer_1" xmlns="http://www.w3.org/2000/svg" width="43" height="35" xml:space="preserve"><g id="PathID_60" transform="matrix(1, 0, 0, 1, 21, 17.15)"><path style="fill: rgb(0, 0, 0); fill-opacity: 1;" d="m14.4-16.35.95.05.6-.05.35-.35 1.1-.45h.05q.65 0 1.15.5l.6.9.25 1q-.05.5-.45.9l-.15.15.25 1.4.05.1q.6 2.05-.2 3.05l-.8 1q-.2.35-.6.5.1.9-.4 1.6L16.4-4.9l-.45.5q.1.8-.25 1.55l-.25.4-.5 1-.3.4.05.4.1-.05L18-2.05l.65-.15.75.15q1.05.6 1.55 2.05.4 1.1-.6 1.85-1.75 1.2-3.25 2.9-1.8 2.05-1.95 3.45l-.35.9-.15.15L14 10l-.35.3 1.65 2.2q.65 1 .1 2.1l-.6.8-1.45 1q-1.45.75-2.65.75-1.35 0-2.05-.95l-.7-.95Q5.6 12 4.3 10.75 2 8.6-.45 8.35l-.9-.05q-2.7 0-5.1 1.5-2.35 1.5-3.8 4.05-.95 1.65-3.75 2.3l-.85.05q-1.4 0-2.1-1-.5-1.05.05-2.15 1.1-1.9 2.4-3.3l-.1-.1-.5-1q-.15-1.4-1.95-3.45-1.45-1.65-3.2-2.9-1-.65-.65-1.9.55-1.5 1.55-2l.75-.2.65.15 3.3 1.45.05-.45-.3-.4-.5-1-.25-.4q-.35-.7-.25-1.5l-.45-.5-.75-1.2q-.5-.7-.4-1.55l-.6-.55-.6-.75-.2-.2q-.8-1-.2-3.1l.05-.05.25-1.45-.15-.15q-.8-.8-.2-1.9l.6-.9q.5-.5 1.15-.5h.05q.65 0 1.1.45l.35.35.6.05.95-.05h.15l.8-.05q1.55 0 2.35.95l.05.1.95 1.2q.3.45.3.95 1.15.3 1.7 1.15l1 1.5.2.85q1 .35 1.5 1.25l.9 1.8.2.7Q-3.3-5-3-4.1l.85 1.95.1.7q.8.6 1.05 1.4l.05.1.7 2.25.05.6.35-.05H.3V1.9L1-.4l.05-.05Q1.3-1.3 2.1-1.9l.1-.65.85-2q.35-.85 1.25-1.4l.2-.75.9-1.75q.45-.85 1.5-1.3l.2-.8 1-1.55q.55-.8 1.7-1.1 0-.55.3-.95l.95-1.2.05-.1q.8-.95 2.35-.95h.85l.1.05m-2.15 2.75 1.3-.1-2.1 1.95q-1.6 0-2 .55L8.5-9.7l.9-.55 1.5-.25-1.95 2q-1.8.2-2.1.85l-.9 1.7.9-.65Q7.6-7 8.5-7.1L6.8-5q-1.95.35-2.25 1.1l-.85 2 .95-.85q.85-.55 1.7-.7L4.9-1.35Q2.85-.75 2.55.1l-.7 2.3.95-1Q3.6.7 4.6.45L6.75.4l.2.05Q6.1 2.3 5.2 5.05 2.8 4.3.25 4.5q-2.85.25-5.35 1.1L-6.9.85l.2-.05 2.15.05q.9.2 1.8.95l.95 1-.7-2.25Q-2.85-.4-4.85-.9L-6.3-3q1 .2 1.7.7l.95.8-.8-2q-.35-.75-2.3-1.1l-1.7-2.05 1.65.45.9.65-.9-1.7q-.3-.6-2.1-.8l-1.95-2.05 1.5.3.9.5-.95-1.45q-.35-.55-2-.55l-2.1-2 1.3.15.85.35-.95-1.2q-.4-.45-1.8-.35l-2.65-.15-.6-.6-.4.6.45.5q.25.9-.2 2.6-.45 1.35-.15 1.7l.85 1.05-.1-.8.2-1.3 1.2 2.4q-.55 1.45-.25 1.85l.8 1.25v-.9l.35-1.4.9 2.35q-.75 1.45-.5 2.05l.75 1.4.05-1 .6-1.45.55 2.3Q-13.2-.35-13 .25l.45 2.25-6.05-2.65q-.55.25-.75 1.1l2.8 2.45q2.85 2.9 3.05 5.1l.75.85-.05-.7.15-1.15.65-1.25.1-.05 1.5 2.1q-3.35 2.4-5.05 5.55-.35.55.2.75h.95q2.1-.5 2.65-1.5 1.75-3.15 4.7-4.85Q-3.8 6.45-.3 6.8q3.2.3 5.95 3.05l4.3 5.4q.55.8 2.55-.2 1.95-.95 1.5-1.55l-3.05-4-.65-.8-.25-.25 1.9-2.7.1.1.65 1.2.15 1.2-.05.7.75-.85q.1-1.4 1.25-3L16.6 3Q18 1.55 19.4.55q-.2-.85-.75-1.1l-6.05 2.6.45-2.25q.2-.55-.75-2.1l.55-2.35.6 1.5.05 1 .75-1.45q.3-.5-.5-2l.9-2.35.15.35.2 1v.95l.8-1.25q.3-.45-.25-1.9l1.2-2.35.2 1.25-.1.85.85-1.05q.3-.4-.15-1.7-.45-1.75-.2-2.6l.45-.55-.4-.55-.6.55-2 .25-.65-.05q-1.45-.1-1.8.35l-.95 1.2.85-.4m-1 18.65-2 2.05-1.9-1 .2-1.15Q8 2.4 8.4 1l.2.05 1.15.9.65.7.7.9-.55-.1q-1.4-.15-1.8.25l-.3.6q-.1.3.1.25l1.35-.1 1.25.5.1.1m-19.75-.1q.2.1.15-.25l-.35-.6-1.8-.25-.55.1 1.05-1.2 1.45-1.3.2-.05q.4 1.4.85 3.95l.2 1.15-1.9 1-2-2 .1-.1q.65-.5 1.25-.55l1.35.1"/><path style="fill: rgb(59, 129, 247); fill-opacity: 1;" d="m11.4-13.2.95-1.2q.35-.45 1.8-.35l.65.05 2-.25.6-.55.4.55-.45.55q-.25.85.2 2.6.45 1.3.15 1.7l-.85 1.05.1-.85-.2-1.25-1.2 2.35q.55 1.45.25 1.9L15-5.65v-.95l-.2-1-.15-.35-.9 2.35q.8 1.5.5 2l-.75 1.45-.05-1-.6-1.5-.55 2.35q.95 1.55.75 2.1l-.45 2.25 6.05-2.6q.55.25.75 1.1-1.4 1-2.8 2.45l-1.8 2.1q-1.15 1.6-1.25 3l-.75.85.05-.7-.15-1.2-.65-1.2-.1-.1-1.9 2.7.25.25.65.8 3.05 4q.45.6-1.5 1.55-2 1-2.55.2l-4.3-5.4Q2.9 7.1-.3 6.8q-3.5-.35-6.65 1.45-2.95 1.7-4.7 4.85-.55 1-2.65 1.5h-.95q-.55-.2-.2-.75 1.7-3.15 5.05-5.55l-1.5-2.1-.1.05-.65 1.25-.15 1.15.05.7-.75-.85q-.2-2.2-3.05-5.1l-2.8-2.45q.2-.85.75-1.1l6.05 2.65L-13 .25q-.2-.6.75-2.15l-.55-2.3-.6 1.45-.05 1-.75-1.4q-.25-.6.5-2.05l-.9-2.35-.35 1.4v.9l-.8-1.25q-.3-.4.25-1.85l-1.2-2.4-.2 1.3.1.8-.85-1.05q-.3-.35.15-1.7.45-1.7.2-2.6l-.45-.5.4-.6.6.6 2.65.15q1.4-.1 1.8.35l.95 1.2-.85-.35-1.3-.15 2.1 2q1.65 0 2 .55l.95 1.45-.9-.5-1.5-.3 1.95 2.05q1.8.2 2.1.8l.9 1.7-.9-.65-1.65-.45 1.7 2.05q1.95.35 2.3 1.1l.8 2-.95-.8q-.7-.5-1.7-.7l1.45 2.1q2 .5 2.35 1.45l.7 2.25-.95-1q-.9-.75-1.8-.95L-6.7.8l-.2.05 1.8 4.75q2.5-.85 5.35-1.1 2.55-.2 4.95.55.9-2.75 1.75-4.6L6.75.4 4.6.45q-1 .25-1.8.95l-.95 1 .7-2.3q.3-.85 2.35-1.45l1.45-2.1q-.85.15-1.7.7l-.95.85.85-2q.3-.75 2.25-1.1l1.7-2.1q-.9.1-1.65.5l-.9.65.9-1.7q.3-.65 2.1-.85l1.95-2-1.5.25-.9.55.95-1.5q.4-.55 2-.55l2.1-1.95-1.3.1-.85.4m-.25 18.15-1.25-.5-1.35.1q-.2.05-.1-.25l.3-.6q.4-.4 1.8-.25l.55.1-.7-.9-.65-.7-1.15-.9L8.4 1Q8 2.4 7.55 4.95l-.2 1.15 1.9 1 2-2.05-.1-.1m-21-.1q-.6.05-1.25.55l-.1.1 2 2 1.9-1-.2-1.15q-.45-2.55-.85-3.95l-.2.05-1.45 1.3-1.05 1.2.55-.1 1.8.25.35.6q.05.35-.15.25l-1.35-.1"/></g></svg>