<svg width="44" height="35" xmlns="http://www.w3.org/2000/svg" preserveAspectRatio="xMidYMid meet"><rect fill="none" id="canvas_background" height="41" width="42" y="-1" x="-1"/><path d="M19.196 33.94h-4.028c-.259 0-.519-.13-.779-.13-.325 0-.645-.033-.974-.066-.324-.032-.585 0-.78 0H9.254c-.195 0-.415.06-.715-.065a2.212 2.212 0 00-.52-.13c-.203-.034-.466-.17-.65-.26-.21-.103-.263-.164-.455-.195-.203-.033-.33-.187-.455-.26-.203-.118-.39-.325-.39-.325-.195-.065-.298-.164-.455-.26a1.82 1.82 0 00-.52-.195c-.14-.033-.246-.212-.324-.26-.174-.108-.436-.209-.584-.39-.058-.07-.092-.244-.195-.455-.09-.184.038-.484-.064-.65a2.197 2.197 0 01-.195-.39c-.092-.25-.084-.436-.259-.65-.147-.18-.207-.312-.324-.454-.148-.181-.157-.417-.26-.52-.102-.103-.195-.195-.26-.325 0 .001-.115 0-.13-.064-.033-.141-.065-.195-.065-.26.001-.13-.064-.324-.064-.52 0-.064-.031-.261 0-.52.033-.265.182-.59.26-.779.112-.268.195-.52.325-.91.066-.195.14-.516.261-.844.072-.193.09-.374.261-.65.154-.247.167-.657.26-.975.1-.335.151-.525.196-.714.067-.283.214-.447.325-.715.08-.191.166-.437.26-.65.11-.246.004-.596.066-.78.102-.309.332-.453.39-.65.074-.258.295-.497.454-.78.172-.305.35-.46.455-.715.1-.24.229-.363.325-.52.108-.175.28-.347.455-.455.234-.145.352-.276.455-.584.04-.124.157-.403.26-.65.145-.35.357-.645.39-.975.038-.387.028-.717.065-.909.066-.342.195-.648.195-.908s.116-.525.194-.715a2.78 2.78 0 00.195-.65c.032-.203.185-.34.26-.52.105-.254.256-.295.324-.52.038-.124.065-.194.065-.324s.026-.266.064-.39c.068-.224.13-.325.13-.455v-1.56c0-.194.05-.334 0-.454a.818.818 0 01-.065-.26v-.715c0-.13.064-.326.064-.456 0-.065.14-.028.26-.195a.454.454 0 01.195-.13c.18-.075.585-.033 1.039 0 .457.032.978-.008 1.493.064.468.066.971.293 1.43.325.583.04 1.236.037 1.689 0 .394-.033.78-.13 1.04-.13.195 0 .383-.033.65-.066a8.72 8.72 0 01.91-.065c.389 0 .65.007.974-.066.261-.058.46-.05.65-.13.134-.055.244-.157.454-.26.185-.09.245-.157.455-.26.185-.09.254-.209.39-.26.251-.092.44-.156.65-.26a2.56 2.56 0 01.65-.194c.128-.02.194 0 .324 0s.339-.018.584.195c.208.18.426.48.65.714.35.367.532.586.845.78.348.215.651.276 1.038.324.266.033.65.13 1.105.13h2.534c.39 0 .78.065 1.17.065.26 0 .578.031.844.064.26.032.586 0 .846 0h.65c.195 0 .328.03.455 0 .142-.033.176-.095.26-.13.12-.05.176-.095.26-.13.06-.025.168.027.26-.065.046-.047.065-.066.13-.066h.195c.065 0 .097.122.13.325.031.191.097.446.13.649.031.191 0 .454 0 .584 0 .195.065.39.065.584 0 .26-.031.458 0 .65.033.203.065.39.065.585 0 .26.033.522.065.78.033.266.097.577.13.78.042.256.033.521.065.78.033.265.065.39.13.584l.195.585c.065.195.087.345.195.52.096.156.228.298.325.454.108.175.163.299.26.455.108.176.13.391.26.521.065.066.207.253.324.456.146.251.28.436.455.65.148.18.26.39.454.65.195.26.372.534.585.78.18.207.35.374.454.584.09.185.13.39.195.52.064.13.147.316.259.585.077.19.14.382.259.584.071.125.155.309.258.52.09.184.152.344.26.52.097.155.26.389.39.519.13.129.175.27.26.389.054.073.116.199.195.389.056.133.13.323.195.453l.195.39c.065.13.14.32.195.455.078.19.195.39.26.585s.195.52.325.845c.13.324.257.49.325.714.056.187.072.388.13.585.074.257.064.455.064.585v.65c0 .13.045.265 0 .455-.033.14-.065.324-.13.454-.064.131-.11.338-.194.456-.054.075-.22.2-.325.455-.025.061.025.136 0 .196-.035.085-.162.248-.195.39-.03.126-.02.214-.065.26-.046.046-.052.07-.13.26-.056.134-.235.265-.26.325-.035.085-.195.195-.325.325s-.325.26-.39.325-.11.153-.26.26c-.118.085-.337.175-.455.26-.149.108-.305.218-.454.325-.12.085-.3.163-.456.26-.175.108-.435.16-.52.195-.12.05-.325.13-.455.195-.13.065-.24.095-.326.13-.06.025-.195 0-.325 0-.196 0-.392.109-.52.13-.203.033-.32.097-.585.13-.258.031-.587.057-.91.13-.261.058-.39.065-.455.065-.13 0-.26.065-.52.065-.325 0-.652-.032-.844 0-.203.032-.392.033-.715.065-.329.032-.656.005-.909.065-.282.066-.39.11-.584.13-.33.032-.584.064-.78.064h-1.754c-.195 0-.456.104-.714.13-.33.032-.52.064-.715.064-.13 0-.327.042-.52.065-.266.032-.455.13-.715.13-.26 0-.457-.032-.65 0-.202.032-.324.064-.52.064H19.65c-.065 0-.149.046-.195 0-.045-.046-.064-.065-.13-.065h-.064" id="svg_9" stroke-opacity="null" stroke-width="null" stroke="null" fill="#ffffff"/><g id="svg_1" fill="#000000" transform="translate(0,35) scale(0.10000000149011612,-0.10000000149011612) "><path id="svg_2" d="M193 322c-3-15-14-17-60-15l-55 2 4-31c4-24-5-50-33-103C-1 85-2 47 43 19 72 1 89-1 225 2c131 3 154 6 178 23 25 18 27 25 24 62-3 25-19 68-39 101-26 44-34 66-30 90l4 32-55-4c-48-3-56-1-60 15-7 25-47 25-54 1zm45-34c14-14 73-17 90-4 10 7 12 4 7-15s5-45 34-100c47-85 49-99 20-125-22-19-22-19-10 3 19 36-6 38-54 4-65-47-74-43-77 37-3 64-4 67-28 67-23 0-25-3-27-55-1-30-2-61-2-67-2-22-35-14-73 17-42 35-75 33-56-3 11-22 11-22-11-3-29 26-27 40 20 125 29 55 39 81 34 100s-3 22 7 15c17-13 76-10 90 4 7 7 15 12 18 12s11-5 18-12z"/><path id="svg_3" d="M160 262c0-7-3-11-7-11-20 3-23-3-12-23 12-22 11-22-6-8s-18 13-13-7c4-16 2-20-10-16-12 5-14 1-10-15 3-12 3-21-1-20-18 2-22-4-11-17 17-20 44-20 36 1-4 10-2 13 6 8s9-1 4 12c-4 10-4 15 0 11 9-8 36 42 29 53-3 5 1 10 7 13 10 4 11 7 1 18-10 9-13 10-13 1z"/><path id="svg_4" d="M264 259c-4-7-3-14 4-17 6-2 9-9 6-17-3-7-1-16 5-19 5-4 13 4 17 16 8 25 7 28-2 27-4 0-10 5-14 11-6 9-9 9-16-1z"/><path id="svg_5" d="M198 223c-21-24-34-52-42-88-6-28-5-27 17 10 17 29 29 40 47 40s30-11 47-40c22-37 23-38 17-10-11 48-45 105-64 105-4 0-14-8-22-17z"/><path id="svg_6" d="M299 209c-6-12-7-24-3-28 5-3 9-12 10-18 2-29 5-33 18-33 19 0 40 26 27 34-5 4-12 2-16-4-3-5-12-10-18-10-7 0-4 5 6 11 20 12 24 44 3 36-10-4-12 0-9 14 7 25-3 24-18-2z"/><path id="svg_7" d="M66 124c-10-27-7-34 18-34 33 0 43 18 20 35-25 19-31 18-38-1z"/><path id="svg_8" d="M338 126c-20-15-6-36 24-36 19 0 22 8 12 34-7 19-14 20-36 2z"/></g></svg>