<!--version="1.0" encoding="UTF-8" standalone="no"--><!-- Created with Inkscape (http://www.inkscape.org/) --><svg xmlns="http://www.w3.org/2000/svg" version="1.1" width="38.25" height="42" viewBox="0 0 38.25 42" id="svg3537" style="overflow-x: visible; overflow-y: visible;"><g transform="translate(19.1,21)" id="g3543"><g id="g3545"><g id="g3547"><path d="m13.65-19.55-.45.8-.7 1.3h1.9V-1l-.3 3 1.1.85 3.95 3.05-.45 5.25-.2.05-5.25.4L8.1 4.75l-.5-.15-.5.15-.5.1-.6.1-.05 9c1.8-1.8 3.3-3.8 4.5-6l.85 1.1c-2.533 4.433-5.983 7.9-10.35 10.4l-.3.25H-.4l-.25-.25c-4.5-2.533-7.983-6.083-10.45-10.65l-.85 1.05-1.3 1.65h-.1l-.1.05-5.25-.45-.4-5.25 4.3-3.2 1-.65v-.1l-.35-2.9v-16.45h1.8l-.45-.8-.7-1.3.7-.65.7-.75.1.05.1-.1 4 2.25 2.3 1.3H5.9l1.45-.8 4.7-2.65.2-.05 1.4 1.4zm-1.6-1.35.05.05zM5.9-17.45h.05zm-18.7-2.75v-.05zM6 4.95h-.05zm-3-19.4c-.033.567-1.033 2-3 4.3-2-2.333-3.017-3.783-3.05-4.35l-8.8-4.95 4.9 8.8 1.3.65 3.2 2.5-3.2 2.85-.4.3c-1.6 1.3-2.7 2.1-3.3 2.4-.1-1 .1-1.883.6-2.65l.2-.2v-.1l-.1-1-.05-.15h-.15l-1.1.15h-.1l-.2.3c-.567.833-.883 1.783-.95 2.85a5.784 5.784 0 00.6 3c-.367.233-.517.567-.45 1l-6.7 5.05.25 3.45 3.45.3 5.25-6.8.75-.3.2.05 2.2.55h.75a5.91 5.91 0 002.8-1l.3-.2.2-1.15V1h-.2l-1-.1-.3.15a3.648 3.648 0 01-2.55.65c.3-.6 1.117-1.7 2.45-3.3L0-5.2C3.1-1.9 4.967.4 5.6 1.7c-1 .1-1.883-.1-2.65-.6l-.2-.2-.1.05-1 .1H1.5v.15l.15 1.1v.1l.3.2c.833.567 1.783.883 2.85.95L6 3.5l1.8-.55c.233.367.567.517 1 .45l5.05 6.7 3.45-.25.3-3.45-6.8-5.25-.3-.75V.2c.467-.933.65-1.917.55-2.95a5.52 5.52 0 00-.95-2.8l-.2-.3L8.7-6l-.15-.05v.2l-.1 1 .15.3c.5.7.717 1.55.65 2.55L6-4.35 2.45-7.5 6-10.25l.85-.35 5-8.75-.05-.1-8.8 5zm-14.85-5h-.05zm-2.2 29.5L-14 10zm12.25-7.7.05-.05zM-2.8.9h-.05zM9.9-5.85l-.05-.05zm-1.45 1v.05zm3.4-14.5v-.05zM7.3-7.25l1.5.05 1.3.2h.1l.5.1.3.45.15.3c.667.933 1.067 2 1.2 3.2A6.98 6.98 0 0111.9.45l1 .8.2-2.25v-15.15h-1.55l-3.9 6.9-.6.05L6-8.55l-.05 2.6L7.1-5l.2-2.25zm4.6 7.7V.5zm-4.25-9.7H7.6zM6-8.55l-.05.05zM7.1-5l.05.05zm-18.65-11.15h-1.3V-1l.2 2-.15.15.55-.45.15-.5a7.374 7.374 0 01-.35-3.3 6.87 6.87 0 011.15-3.1l.5-.7.5-.1 1.3-.2 1.55-.1.05 1.55.1.75 1.6-1.25v-2l-1.5-.95-.55-.05-.95-1.7-2.85-5.2zM-10.3-7l.05-.05zm2.85-.3h.05zM-7.3-5v.05zm-.65 9.5H-8l-2.3 3.05c1.167 2.333 2.7 4.467 4.6 6.4V5l-1.1-.15-.55-.15-.6-.2z" id="path3549" style="fill: rgb(255, 255, 255); stroke-linecap: round; stroke-linejoin: round;"/><path d="M5.95-17.45H-5.6l-2.3-1.3H8.15l-.8.5-1.4.8zm-18.75-.8.45.8h-1.8V-1l.35 2.9V2l-1 .65-.15.1c-.333-1.333-.5-2.583-.5-3.75v-17.75h2.35l.3.5zm.85 28.1.85-1.05c2.467 4.567 5.95 8.117 10.45 10.65l.25.25H.65l.3-.25c4.367-2.5 7.817-5.967 10.35-10.4l.8 1.1C9.533 14.517 6.067 17.967 1.7 20.5l-.1.15-.4.35H-.95l-.5-.5c-4.467-2.6-7.967-6.15-10.5-10.65zm22.4-1.9c-1.2 2.2-2.7 4.2-4.5 6v-9l.65-.1.5-.1.5-.15.45.15 2.4 3.2zm-4.5-3H6zm9.25-2.1L14.1 2l.3-3v-16.45h-1.9l.7-1.3h2.5V-1c0 1.2-.167 2.483-.5 3.85zM0-10.15c1.967-2.3 2.967-3.733 3-4.3l8.8-5 .05.05-5 8.8-.85.35L2.45-7.5 6-4.35 9.25-2c.067-1-.15-1.85-.65-2.55l-.15-.25.1-1.05v-.2L8.7-6l1.15.1.25.35a5.52 5.52 0 01.95 2.8A5.325 5.325 0 0110.5.2v.2l.3.75 6.8 5.25-.3 3.45-3.45.25L8.8 3.4c-.433.067-.767-.083-1-.45L6 3.5l-1.2.05c-1.067-.067-2.017-.383-2.85-.95l-.3-.2v-.1L1.5 1.2v-.15h.15l1-.1.1-.05.2.2c.767.5 1.65.7 2.65.6C4.967.4 3.1-1.9 0-5.2l-3.2 3.6C-4.533 0-5.35 1.1-5.65 1.7c.933.1 1.783-.117 2.55-.65l.25-.15 1.05.1h.2v.2l-.15 1.1-.35.25a5.91 5.91 0 01-2.8 1h-.75L-7.85 3l-.2-.05-.75.3L-14 10l-3.5-.25-.25-3.45 6.7-5.05c-.067-.433.083-.767.45-1a5.785 5.785 0 01-.6-3c.067-1.067.383-2.017.95-2.85l.2-.3h.1l1.1-.15h.15l.05.15.1 1v.1l-.2.2c-.5.767-.7 1.65-.6 2.65.6-.3 1.7-1.1 3.3-2.4l.4-.3 3.2-2.85-3.2-2.5-1.3-.65-4.95-8.8 8.85 4.95c.033.567 1.05 2.017 3.05 4.35zm-11.9-9.3h.05zM-14 10l-.05.05zm12.25-7.7-.05.05zM-2.85.9h.05zm12.7-6.8.05.05zm-1.4 1.1v-.05zm3.4-14.6v.05zM10.1-7l-1.3-.2-1.5-.05L7.1-5l-1.15-.95V-8.5l1.1-.7.55-.05 3.95-6.9h1.55V-1l-.2 2.25-1-.75a7.232 7.232 0 00.45-3.45c-.133-1.2-.533-2.267-1.2-3.2l-.15-.3-.3-.45-.5-.1h-.1zM11.9.5V.45zM7.6-9.25h.05zm-1.65.75L6-8.55zM7.3-7.25h-.05zm-18.9-8.9h.05l2.85 5.2.9 1.7.6.05 1.5.95v2l-1.6 1.3-.1-.8V-7.3l-1.6.1-1.25.15-.1.05-.5.1-.5.7a6.87 6.87 0 00-1.15 3.1 7.374 7.374 0 00.35 3.3l-.15.5-.35.3-.2-2v-15.15h1.25zm1.35 9.1h-.05zm2.85-.25h-.05zm.1 2.35V-5zm-.5-4.3h.05zm.45 13.95.55.15 1.1.15v8.95c-1.9-1.933-3.433-4.067-4.6-6.4L-8 4.5l.65.2z" id="path3551" style="fill: rgb(0, 0, 0); stroke-linecap: round; stroke-linejoin: round;"/></g></g></g></svg>