<!--version="1.0" encoding="UTF-8"--><svg version="1.1" id="Layer_1" xmlns="http://www.w3.org/2000/svg" width="39" height="42" xml:space="preserve"><g id="PathID_10" transform="matrix(1, 0, 0, 1, 19.1, 21)"><path style="fill: rgb(0, 0, 0); fill-opacity: 1;" d="m11.85-19.4-.05-.05-8.8 5q-.05.85-3 4.3-3-3.5-3.05-4.35l-8.8-4.95h-.05l4.95 8.8 1.3.65 3.2 2.5-3.2 2.85-.4.3q-2.4 1.95-3.3 2.4-.15-1.5.6-2.65l.2-.2v-.1l-.1-1-.05-.15h-.15l-1.1.15h-.1l-.2.3q-.85 1.25-.95 2.85-.1 1.6.6 3-.55.35-.45 1l-6.7 5.05.25 3.45 3.45.3.05-.05 5.2-6.75.75-.3.2.05 2.2.55h.75q1.55-.15 2.8-1l.3-.2.05-.05.15-1.1V1h-.2l-1-.1h-.05l-.25.15q-1.15.8-2.55.65.45-.9 2.45-3.3L0-5.2Q4.65-.25 5.6 1.7q-1.5.15-2.65-.6l-.2-.2-.1.05-1 .1H1.5v.15l.15 1.1v.1l.3.2q1.25.85 2.85.95L6 3.5l1.8-.55q.35.55 1 .45l5.05 6.7 3.45-.25.3-3.45-6.8-5.25-.3-.75V.2q.7-1.4.55-2.95-.1-1.55-.95-2.8l-.2-.3-.05-.05L8.7-6l-.15-.05v.2l-.1 1v.05l.15.25Q9.35-3.5 9.25-2L6-4.35 2.45-7.5 6-10.25l.85-.35 5-8.75v-.05m.65 1.95h1.9V-1l-.3 3 1.1.85 3.95 3.05-.45 5.25-.2.05-5.25.4L8.1 4.75l-.5-.15-.5.15-.5.1-.6.1h-.05v9q2.7-2.7 4.5-6l.85 1.1Q7.5 15.7.95 19.45l-.3.25H-.4l-.25-.25Q-7.4 15.65-11.1 8.8l-.85 1.05-1.3 1.65h-.1l-.1.05-5.25-.45-.4-5.25 4.3-3.2 1-.65v-.1l-.35-2.9v-16.45h1.8l-.45-.8-.7-1.3.7-.65v-.05l.7-.7.1.05.1-.1 4 2.25 2.3 1.3H5.95l1.4-.8 4.7-2.65.05.05.15-.1 1.4 1.4-.45.8-.7 1.3M7.15-4.95l.15-2.3 1.5.05 1.3.2h.1l.5.1.3.45.15.3q1 1.4 1.2 3.2.2 1.75-.45 3.4V.5l1 .75.2-2.25v-15.15h-1.55l-3.9 6.9H7.6l-.55.05L6-8.55l-.05.05v2.55L7.1-5l.05.05m-17.4-2.1L-9-7.2l1.55-.1h.05v1.55l.1.75v.05l1.6-1.3v-2l-1.5-.95-.55-.05-.95-1.7-2.85-5.2h-1.3V-1l.2 2-.15.15.55-.45.15-.5q-.55-1.6-.35-3.3.2-1.7 1.15-3.1l.5-.7.5-.1.05-.05m2.3 11.55H-8l-2.3 3.05q1.75 3.5 4.6 6.4V5l-1.1-.15-.55-.15-.6-.2"/><path style="fill: rgb(255, 255, 255); fill-opacity: 1;" d="m11.85-19.35-5 8.75-.85.35L2.45-7.5 6-4.35 9.25-2q.1-1.5-.65-2.55l-.15-.25v-.05l.1-1v-.2L8.7-6l1.15.1.05.05.2.3q.85 1.25.95 2.8Q11.2-1.2 10.5.2v.2l.3.75 6.8 5.25-.3 3.45-3.45.25L8.8 3.4q-.65.1-1-.45L6 3.5l-1.2.05q-1.6-.1-2.85-.95l-.3-.2v-.1L1.5 1.2v-.15h.15l1-.1.1-.05.2.2q1.15.75 2.65.6Q4.65-.25 0-5.2l-3.2 3.6q-2 2.4-2.45 3.3 1.4.15 2.55-.65l.25-.15h.05l1 .1h.2v.2l-.15 1.1-.05.05-.3.2q-1.25.85-2.8 1h-.75L-7.85 3l-.2-.05-.75.3L-14 10l-.05.05-3.45-.3-.25-3.45 6.7-5.05q-.1-.65.45-1-.7-1.4-.6-3 .1-1.6.95-2.85l.2-.3h.1l1.1-.15h.15l.05.15.1 1v.1l-.2.2q-.75 1.15-.6 2.65.9-.45 3.3-2.4l.4-.3 3.2-2.85-3.2-2.5-1.3-.65-4.95-8.8h.05l8.8 4.95q.05.85 3.05 4.35 2.95-3.45 3-4.3l8.8-5 .05.05v.05m-3.7.6-.8.5-1.4.8H-5.6l-2.3-1.3H8.15m-23.1 21.5q-.5-2-.5-3.75v-17.75h2.35l.3.5.45.8h-1.8V-1l.35 2.9V2l-1 .65-.15.1m27.05 7.4Q8.25 16.7 1.7 20.5l-.1.15-.4.35H-.95l-.5-.5q-6.7-3.9-10.5-10.65l.85-1.05q3.7 6.85 10.45 10.65l.25.25H.65l.3-.25Q7.5 15.7 11.3 9.05l.8 1.1m-4.05-5.4 2.4 3.2q-1.8 3.3-4.5 6v-9H6l.6-.1.5-.1.5-.15.45.15m7.15-1.9L14.1 2l.3-3v-16.45h-1.9l.7-1.3h2.5V-1q0 1.8-.5 3.85M7.25-7.25 7.1-5l-1.15-.95V-8.5L6-8.55l1.05-.65.55-.05h.05l3.9-6.9h1.55V-1l-.2 2.25-1-.75V.45q.65-1.65.45-3.4-.2-1.8-1.2-3.2l-.15-.3-.3-.45-.5-.1h-.1l-1.3-.2-1.5-.05h-.05m-15.05-2h.05l.55.05 1.5.95v2l-1.6 1.3V-5l-.1-.75V-7.3h-.05L-9-7.2l-1.25.15h-.05l-.05.05-.5.1-.5.7q-.95 1.4-1.15 3.1-.2 1.7.35 3.3l-.15.5-.35.3-.2-2v-15.15h1.3l2.85 5.2.9 1.7m.45 13.95.55.15 1.1.15v8.95q-2.85-2.9-4.6-6.4L-8 4.5l.65.2"/></g></svg>