<!--version="1.0" encoding="UTF-8" standalone="no"--><!-- Created with Inkscape (http://www.inkscape.org/) --><svg xmlns="http://www.w3.org/2000/svg" version="1.1" width="42" height="41.6" viewBox="0 0 42 41.6" id="svg3149" style="overflow-x: visible; overflow-y: visible;"><g transform="translate(21,20.8)" id="g3155"><g id="g3157"><g id="g3159"><path d="M-1.8-13.65 13.95 11.4l4-1.35-19.15-28.4-17.6 13.2 2.05 2.85L-1.8-13.65zM-17.35-.15-21-5.25-.25-20.8 21 10.45-2.6 20.8l-10.3-5.05V-3.5l-4.45 3.35zm6.1-3.5V14.7l8.9 4.35L11.7 12.8-2.25-10.7l-9 7.05zm9.95 1.2L-2.35 5-5.8 3.55-7.55-2.1l6.25-.35z" id="path3161" style="fill: rgb(0, 0, 0); stroke-linecap: round; stroke-linejoin: round;"/><path d="M13.95 11.4-1.8-13.65-16.75-2.3l-2.05-2.85 17.6-13.2 19.15 28.4-4 1.35zm-25.2 3.3V-3.65l9-7.05L11.7 12.8l-14.05 6.25-8.9-4.35zm8.9-9.7 1.05-7.45-6.25.35 1.75 5.65L-2.35 5z" id="path3163" style="fill: rgb(59, 129, 247); stroke-linecap: round; stroke-linejoin: round;"/></g></g></g></svg>