<?xml version="1.0" encoding="UTF-8"?>
<svg version="1.1" id="Layer_1" xmlns="http://www.w3.org/2000/svg" xmlns:xlink="http://www.w3.org/1999/xlink" width="32px" height="40px" xml:space="preserve">
<g id="PathID_90" transform="matrix(1, 0, 0, 1, 15.65, 19.6)">
<path style="fill:#000000;fill-opacity:1" d="M0.75 -13.1L0.75 -17.6L-0.9 -17.6L-0.9 -13.1L-3.55 -13.1Q-5.6 -13.05 -7.2 -10.6Q-8.8 -8.2 -8.8 -5.1Q-8.8 -0.75 -7.2 2.2Q-5.7 4.95 -3.55 5L-0.9 5L-0.9 9.5L-7.1 9.35Q-9.15 9.3 -10.1 6.3Q-10.55 4.9 -10.6 3.65L-10.6 2.8L-10.5 1.95Q-10 -0.25 -10.25 -1.55L-10.6 -2.5L-11 -3.1Q-11.7 -3.95 -12.4 -2.9Q-13.05 -1.95 -12.7 -1.35L-12.2 -0.95L-11.7 -1.4Q-11.25 -1.6 -11.25 -0.25Q-11.25 0.25 -12.45 2.95Q-13.65 5.65 -13.65 9.6Q-13.65 13.95 -10.6 16.1L-10.35 16.25Q-7.95 17.75 -4.1 17.75L4.1 17.75Q7.95 17.75 10.4 16.25Q13.65 14.15 13.65 9.6Q13.65 5.65 12.45 2.95Q11.25 0.25 11.25 -0.25Q11.25 -1.6 11.75 -1.4L12.2 -0.95L12.7 -1.35Q13.05 -1.95 12.4 -2.9Q11.7 -3.95 11 -3.1Q10.5 -2.55 10.25 -1.55Q10 -0.25 10.5 1.95Q10.9 3.8 10.1 6.3Q9.15 9.3 7.1 9.35L0.75 9.55L0.75 5L7.1 5L7.1 3.9Q5.95 2.85 5.1 -0.1Q4.3 -2.85 4.3 -5.1Q4.3 -7.15 5.1 -9.05Q5.85 -10.9 7.1 -12L7.1 -13.1L0.75 -13.1M2.75 -15.1L9.1 -15.1L9.1 -11.1L8.45 -10.5Q7.55 -9.75 6.95 -8.4Q6.3 -6.85 6.3 -5.1Q6.3 -3.05 7.05 -0.6Q7.75 1.8 8.45 2.4L8.55 2.55L8.55 2.4Q7.95 -0.3 8.3 -1.95Q8.55 -3.2 9.3 -4.15Q10.3 -5.5 11.65 -5.5Q13.1 -5.5 14.1 -4.05Q15.2 -2.35 14.65 -0.85Q14.4 -0.05 13.55 0.6L13.75 1.05L15 4.1Q15.65 6.45 15.65 9.6Q15.65 14.35 12.6 17.05Q9.55 19.75 4.1 19.75L-4.1 19.75Q-7.95 19.75 -10.6 18.4L-12.6 17.05Q-15.65 14.35 -15.65 9.6Q-15.65 6.45 -15 4.1L-13.75 1.05L-13.55 0.6Q-14.3 0 -14.65 -0.85Q-15.2 -2.35 -14.05 -4.05Q-13.1 -5.5 -11.65 -5.5L-10.8 -5.35L-10.6 -7.35Q-10.15 -10 -8.6 -12.1L-7 -13.8Q-5.45 -15.05 -3.6 -15.1L-2.9 -15.1L-2.9 -19.6L2.75 -19.6L2.75 -15.1"/>
<path style="fill:#FFFFFF;fill-opacity:1" d="M7.1 -13.1L7.1 -12Q5.85 -10.9 5.1 -9.05Q4.3 -7.15 4.3 -5.1Q4.3 -2.85 5.1 -0.1Q5.95 2.85 7.1 3.9L7.1 5L0.75 5L0.75 9.55L7.1 9.35Q9.15 9.3 10.1 6.3Q10.9 3.8 10.5 1.95Q10 -0.25 10.25 -1.55Q10.5 -2.55 11 -3.1Q11.7 -3.95 12.4 -2.9Q13.05 -1.95 12.7 -1.35L12.2 -0.95L11.75 -1.4Q11.25 -1.6 11.25 -0.25Q11.25 0.25 12.45 2.95Q13.65 5.65 13.65 9.6Q13.65 14.15 10.4 16.25Q7.95 17.75 4.1 17.75L-4.1 17.75Q-7.95 17.75 -10.35 16.25L-10.6 16.1Q-13.65 13.95 -13.65 9.6Q-13.65 5.65 -12.45 2.95Q-11.25 0.25 -11.25 -0.25Q-11.25 -1.6 -11.7 -1.4L-12.2 -0.95L-12.7 -1.35Q-13.05 -1.95 -12.4 -2.9Q-11.7 -3.95 -11 -3.1L-10.6 -2.5L-10.25 -1.55Q-10 -0.25 -10.5 1.95L-10.6 2.8L-10.6 3.65Q-10.55 4.9 -10.1 6.3Q-9.15 9.3 -7.1 9.35L-0.9 9.5L-0.9 5L-3.55 5Q-5.7 4.95 -7.2 2.2Q-8.8 -0.75 -8.8 -5.1Q-8.8 -8.2 -7.2 -10.6Q-5.6 -13.05 -3.55 -13.1L-0.9 -13.1L-0.9 -17.6L0.75 -17.6L0.75 -13.1L7.1 -13.1"/>
</g>
</svg>