<!--version="1.0" encoding="UTF-8"--><svg version="1.1" id="Layer_1" xmlns="http://www.w3.org/2000/svg" width="32" height="40" xml:space="preserve"><g id="PathID_90" transform="matrix(1, 0, 0, 1, 15.65, 19.6)"><path style="fill: rgb(0, 0, 0); fill-opacity: 1;" d="M.75-13.1v-4.5H-.9v4.5h-2.65q-2.05.05-3.65 2.5-1.6 2.4-1.6 5.5 0 4.35 1.6 7.3Q-5.7 4.95-3.55 5H-.9v4.5l-6.2-.15q-2.05-.05-3-3.05-.45-1.4-.5-2.65V2.8l.1-.85q.5-2.2.25-3.5l-.35-.95-.4-.6q-.7-.85-1.4.2-.65.95-.3 1.55l.5.4.5-.45q.45-.2.45 1.15 0 .5-1.2 3.2t-1.2 6.65q0 4.35 3.05 6.5l.25.15q2.4 1.5 6.25 1.5h8.2q3.85 0 6.3-1.5 3.25-2.1 3.25-6.65 0-3.95-1.2-6.65t-1.2-3.2q0-1.35.5-1.15l.45.45.5-.4q.35-.6-.3-1.55-.7-1.05-1.4-.2-.5.55-.75 1.55-.25 1.3.25 3.5.4 1.85-.4 4.35-.95 3-3 3.05l-6.35.2V5H7.1V3.9q-1.15-1.05-2-4-.8-2.75-.8-5 0-2.05.8-3.95.75-1.85 2-2.95v-1.1H.75m2-2H9.1v4l-.65.6q-.9.75-1.5 2.1-.65 1.55-.65 3.3 0 2.05.75 4.5.7 2.4 1.4 3l.1.15V2.4q-.6-2.7-.25-4.35.25-1.25 1-2.2 1-1.35 2.35-1.35 1.45 0 2.45 1.45 1.1 1.7.55 3.2-.25.8-1.1 1.45l.2.45L15 4.1q.65 2.35.65 5.5 0 4.75-3.05 7.45-3.05 2.7-8.5 2.7h-8.2q-3.85 0-6.5-1.35l-2-1.35q-3.05-2.7-3.05-7.45 0-3.15.65-5.5l1.25-3.05.2-.45q-.75-.6-1.1-1.45-.55-1.5.6-3.2.95-1.45 2.4-1.45l.85.15.2-2q.45-2.65 2-4.75l1.6-1.7q1.55-1.25 3.4-1.3h.7v-4.5h5.65v4.5"/><path style="fill: rgb(59, 129, 247); fill-opacity: 1;" d="M7.1-13.1v1.1q-1.25 1.1-2 2.95-.8 1.9-.8 3.95 0 2.25.8 5 .85 2.95 2 4V5H.75v4.55l6.35-.2q2.05-.05 3-3.05.8-2.5.4-4.35-.5-2.2-.25-3.5.25-1 .75-1.55.7-.85 1.4.2.65.95.3 1.55l-.5.4-.45-.45q-.5-.2-.5 1.15 0 .5 1.2 3.2t1.2 6.65q0 4.55-3.25 6.65-2.45 1.5-6.3 1.5h-8.2q-3.85 0-6.25-1.5l-.25-.15q-3.05-2.15-3.05-6.5 0-3.95 1.2-6.65t1.2-3.2q0-1.35-.45-1.15l-.5.45-.5-.4q-.35-.6.3-1.55.7-1.05 1.4-.2l.4.6.35.95q.25 1.3-.25 3.5l-.1.85v.85q.05 1.25.5 2.65.95 3 3 3.05l6.2.15V5h-2.65Q-5.7 4.95-7.2 2.2-8.8-.75-8.8-5.1q0-3.1 1.6-5.5 1.6-2.45 3.65-2.5H-.9v-4.5H.75v4.5H7.1"/></g></svg>