<svg version="1.1" xmlns="http://www.w3.org/2000/svg" width="50" height="50" viewBox="0 0 256 256"><g fill="none" fill-rule="nonzero" stroke="none" stroke-width="none" stroke-linecap="butt" stroke-linejoin="none" stroke-miterlimit="10" stroke-dashoffset="0" font-family="none" font-weight="none" font-size="none" text-anchor="none" style="" transform="translate(15.36,15.36) scale(0.88,0.88)"><path transform="scale(5.12,5.12)" d="M24 9.781c0 9.27-3.277 11.22-6.031 11.22-4.255 0-6.97-6.586-6.97-10.031 0-4.349 2.504-8.97 7.156-8.97C21.211 2 24 5.707 24 9.78zm16 .783C40 16.101 37.28 22 32.25 22 27.148 22 26 13.668 26 10.75 26 7.078 28.688 2 33.75 2 36.367 2 40 4.97 40 10.562zM13 25.688C13 30.75 10.598 36 6.562 36 2.562 36 0 31.062 0 27.656 0 22.88 3.383 18 6.72 18c3.163 0 6.28 3.8 6.28 7.688zm33.219-7.563c1.135.27 2.092 1.082 2.78 2.375 1.16 2.18 1.332 5.312.406 7.781-1.797 4.767-4.87 7.72-8 7.72-.386 0-.777-.035-1.156-.125-1.676-.39-2.984-1.48-3.688-3.031-1.003-2.215-.68-5.102.938-8.125 2.32-4.345 4.988-6.665 7.594-6.72a4.58 4.58 0 011.125.125zM31.343 32.406c.64.965 1.328 1.942 2.094 2.875.925 1.126 2.421 1.794 3.875 2.439C39.512 38.69 42 39.784 42 42.686c0 3.797-2.387 5.75-7.094 5.75-1.785 0-3.472-.347-5.093-.656-1.66-.315-3.364-.624-5.25-.624-1.73 0-3.09.407-4.532.844-1.624.492-3.303 1-5.624 1C10.203 49 8 46.062 8 43.156c0-3.215 1.762-4.629 3.812-6.25.864-.683 1.872-1.457 2.844-2.468.809-.836 1.52-1.696 2.22-2.532C19 29.38 21.02 27 24.218 27c3.557 0 5.276 2.629 7.124 5.406z" id="strokeMainSVG" fill="#000000" stroke="#000000" stroke-width="7" stroke-linejoin="round"/><path d="M18.156 2C13.504 2 11 6.62 11 10.97c0 3.444 2.715 10.03 6.969 10.03 2.753 0 6.03-1.95 6.03-11.219 0-4.073-2.79-7.78-5.844-7.78zM33.75 2C28.688 2 26 7.078 26 10.75 26 13.668 27.148 22 32.25 22 37.28 22 40 16.102 40 10.562 40 4.97 36.367 2 33.75 2zM6.72 18c-3.337 0-6.72 4.879-6.72 9.656C0 31.062 2.562 36 6.562 36 10.598 36 13 30.75 13 25.688 13 21.8 9.883 18 6.72 18zm38.374 0c-2.606.055-5.274 2.375-7.594 6.719-1.617 3.022-1.941 5.909-.938 8.124.704 1.55 2.012 2.64 3.688 3.03.379.09.77.126 1.156.126 3.13 0 6.203-2.953 8-7.719.926-2.468.754-5.6-.406-7.78-.688-1.293-1.645-2.105-2.781-2.375A4.58 4.58 0 0045.093 18zm-20.875 9c-3.2 0-5.22 2.379-7.345 4.906-.7.836-1.41 1.696-2.219 2.531-.972 1.012-1.98 1.786-2.844 2.47C9.762 38.526 8 39.94 8 43.156 8 46.061 10.203 49 14.406 49c2.32 0 4-.508 5.625-1 1.443-.438 2.802-.844 4.532-.844 1.887 0 3.59.309 5.25.625 1.622.31 3.31.658 5.094.658 4.707 0 7.094-1.954 7.094-5.75 0-2.903-2.488-3.997-4.688-4.97-1.453-.644-2.949-1.312-3.875-2.437a35.323 35.323 0 01-2.093-2.874C29.496 29.63 27.777 27 24.219 27z" transform="scale(5.12,5.12)" fill="#ffffff" stroke="none" stroke-width="1" stroke-linejoin="miter"/></g></svg>