<!--version="1.0" encoding="UTF-8" standalone="no"--><!-- Created with Inkscape (http://www.inkscape.org/) --><svg xmlns="http://www.w3.org/2000/svg" version="1.1" width="29.55" height="42" viewBox="0 0 29.55 42" id="svg3634" style="overflow-x: visible; overflow-y: visible;"><g transform="translate(14.75,21)" id="g3640"><g id="g3642"><g id="g3644"><path d="M12.4-13.25H9.1l-.25-.4-.2.4h-.4l.15-1.95h4v1.95zM10.9-21l-.3 3.5h4.2V-.45c0 2.133-.65 4.717-1.95 7.75A29.63 29.63 0 018.5 14.4l-.75.85-3 2.8C3.417 19.117 2.117 20 .85 20.7l-.3.3H-.5l-.25-.2-.1-.1-3.85-2.65-2.95-2.8c-2.167-2.3-3.883-4.95-5.15-7.95-1.3-3-1.95-5.583-1.95-7.75V-17.5h4.1l-.2-3.5h2.1l3.8 3.5H4.9L8.6-21h2.3zm-5.5 4.8H-5.5l-4.05-3.75.25 3.75h-4.25V-.45c0 2.067.65 4.567 1.95 7.5 1.4 3.133 3.267 5.867 5.6 8.2l2 1.8 3.95 2.65 3.9-2.65 2-1.8L8.5 12.2a27.05 27.05 0 003-5.15c1.3-2.933 1.95-5.433 1.95-7.5V-16.2H9.2l.3-3.9-4.1 3.9zm-2.2 4.4 4.2-4.15-.25 3.4c-.133 2.3-.167 3.633-.1 4l1.85-3.1.4.7-.25 3.65 1.1 2.4-2.75 4-2.7 6.85L3.45 1.8 2.2-2.9l.6.4c.467.267.867.4 1.2.4.733 0 1.1-.667 1.1-2l.15-.1 1.35.55c.733.367 1.167.55 1.3.55 0-.833-.383-2.217-1.15-4.15l-1.4-2.2c.267 1.2.417 2.583.45 4.15L3.2-5c-.633.133-1.317.667-2.05 1.6C2.483 2.467 2.9 6.017 2.4 7.25c-.233.6-.967.95-2.2 1.05 1.1-1.5 1.667-2.467 1.7-2.9L.05 5.2l-1.9.2c.033.433.6 1.4 1.7 2.9-1.233-.1-1.983-.45-2.25-1.05-.3-.767-.183-2.75.35-5.95l.9-4.7c-.633-.9-1.3-1.433-2-1.6l-2.6-.3.4-4.15-1.3 1.95c-.8 2.267-1.2 3.717-1.2 4.35.133.033.567-.133 1.3-.5l1.35-.55.15.1c-.133 1.3.2 1.95 1 1.95.533 0 1.167-.25 1.9-.75l-1.3 4.7c-.7 2.733-1.1 4.117-1.2 4.15 0-.1-.917-2.383-2.75-6.85l-2.7-4 1.05-2.4-.25-4.05.45-.3 1.75 2.9c.1-.533 0-2.933-.3-7.2l4.3 4.1c1.133-.8 2.017-1.2 2.65-1.2L-.9-4.3 0-3.25.9-4.3l-.4-8.75c.633 0 1.533.417 2.7 1.25zM0-3.25h.05zm-7.85.1v.05zm2.1-2.15h-.05zM.05 5.2H0zM5.8-5.3h-.05zm2.1 2.2v-.05zm4.5 2.65c0 1.933-.617 4.283-1.85 7.05L8.5 10.35a25.27 25.27 0 01-4.15 4.9l-.5.45V6.55l.45.35 1.35.5.05-1.3L8.35-.4l2.95-4.35-.3-.7h1.4v5zM-8.25-13.3h-4.3v-1.9h4.2l.1 1.9zm-4.3 7.85h1.6l-.1.15-.2.55L-8.3-.4l2.65 6.5.05 1.3 1.3-.5.3-.15v8.95l-.5-.45c-2.6-2.4-4.65-5.283-6.15-8.65-1.267-2.767-1.9-5.117-1.9-7.05v-5z" id="path3646" style="fill: rgb(0, 0, 0); stroke-linecap: round; stroke-linejoin: round;"/><path d="M9.1-13.25h3.3v-1.95h-4l-.15 1.95h.4l.2-.4.25.4zM-5.5-16.2H5.4l4.1-3.9-.3 3.9h4.25V-.45c0 2.067-.65 4.567-1.95 7.5a27.05 27.05 0 01-3 5.15l-2.65 3.05-2 1.8-3.9 2.65L-4 17.05l-2-1.8c-2.333-2.333-4.2-5.067-5.6-8.2-1.3-2.933-1.95-5.433-1.95-7.5V-16.2h4.25l-.25-3.75 4.05 3.75zm12.9.25L3.2-11.8c-1.167-.833-2.067-1.25-2.7-1.25L.9-4.3.05-3.25-.9-4.3l.45-8.75c-.633 0-1.517.4-2.65 1.2l-4.3-4.1c.3 4.267.4 6.667.3 7.2l-1.75-2.9-.45.3.25 4.05-1.05 2.4 2.7 4c1.833 4.467 2.75 6.75 2.75 6.85.1-.033.5-1.417 1.2-4.15l1.3-4.7c-.733.5-1.367.75-1.9.75-.8 0-1.133-.65-1-1.95l-.15-.1-1.35.55c-.733.367-1.167.55-1.3.55 0-.667.4-2.133 1.2-4.4l1.3-1.95-.45 4.15 2.65.3c.7.167 1.367.7 2 1.6l-.9 4.7c-.533 3.2-.65 5.183-.35 5.95.267.6 1.017.95 2.25 1.05-1.1-1.5-1.667-2.467-1.7-2.9L0 5.2l1.9.2c-.033.433-.6 1.4-1.7 2.9 1.233-.1 1.967-.45 2.2-1.05.5-1.233.083-4.783-1.25-10.65.733-.933 1.417-1.467 2.05-1.6l2.55-.3c0-1.567-.133-2.95-.4-4.15l1.4 2.2c.767 1.933 1.15 3.3 1.15 4.1-.133.033-.567-.133-1.3-.5L5.25-4.2l-.15.1c0 1.333-.367 2-1.1 2-.333 0-.733-.133-1.2-.4l-.6-.4 1.25 4.7L4.7 5.95 7.4-.9l2.75-4-1.1-2.4.25-3.65-.4-.7-1.85 3.1c-.067-.367-.033-1.7.1-4l.25-3.4zM.05-3.25H0zm-7.9.15v-.05zm2.05-2.2h.05zM0 5.2h.05zM5.75-5.3h.05zM7.9-3.15v.05zm2.65 9.75c1.233-2.767 1.85-5.117 1.85-7.05v-5H11l.3.7L8.35-.4 5.7 6.1l-.05 1.3-1.35-.5-.45-.35v9.15l.5-.45a25.27 25.27 0 004.15-4.9l2.05-3.75zm-23.1-19.9h4.3l-.1-1.9h-4.2v1.9zm1.6 7.85h-1.6v5c0 1.933.633 4.283 1.9 7.05 1.5 3.367 3.55 6.25 6.15 8.65l.5.45V6.75l-.3.15-1.3.5-.05-1.3L-8.3-.4l-2.95-4.35.2-.55.1-.15z" id="path3648" style="fill: rgb(59, 129, 247); stroke-linecap: round; stroke-linejoin: round;"/></g></g></g></svg>