<?xml version="1.0" encoding="UTF-8"?>
<svg version="1.1" id="Layer_1" xmlns="http://www.w3.org/2000/svg" xmlns:xlink="http://www.w3.org/1999/xlink" width="30px" height="42px" xml:space="preserve">
<g id="PathID_8" transform="matrix(1, 0, 0, 1, 14.75, 21)">
<path style="fill:#FFFFFF;fill-opacity:1" d="M12.4 -13.25L9.1 -13.25L8.85 -13.65L8.65 -13.25L8.25 -13.25L8.4 -15.2L12.4 -15.2L12.4 -13.25M14.8 -17.5L14.8 -0.45Q14.8 2.75 12.85 7.3Q11.15 11.2 8.5 14.4L7.75 15.25L4.75 18.05Q2.75 19.65 0.85 20.7L0.55 21L-0.5 21L-0.75 20.8L-0.85 20.7L-4.7 18.05L-7.65 15.25Q-10.9 11.8 -12.8 7.3Q-14.75 2.8 -14.75 -0.45L-14.75 -17.5L-10.65 -17.5L-10.85 -21L-8.75 -21L-4.95 -17.5L4.9 -17.5L8.6 -21L10.9 -21L10.6 -17.5L14.8 -17.5M3.85 -15.2L5.25 -15.2L3.85 -13.85L3.85 -15.2M7.15 -12.55Q6.95 -9.1 7.05 -8.55L8.9 -11.65L9.3 -10.95L9.05 -7.3L10.15 -4.9L7.4 -0.9L4.7 5.95L3.45 1.8L2.2 -2.9L2.8 -2.5Q3.5 -2.1 4 -2.1Q5.1 -2.1 5.1 -4.1L5.25 -4.2L6.6 -3.65Q7.7 -3.1 7.9 -3.1L7.9 -3.15Q7.9 -4.35 6.75 -7.25L5.35 -9.45Q5.75 -7.65 5.8 -5.3L5.75 -5.3L3.2 -5Q2.25 -4.8 1.15 -3.4Q3.15 5.4 2.4 7.25Q2.05 8.15 0.2 8.3Q1.85 6.05 1.9 5.4L0.05 5.2L0 5.2L-1.85 5.4Q-1.8 6.05 -0.15 8.3Q-2 8.15 -2.4 7.25Q-2.85 6.1 -2.05 1.3L-1.15 -3.4Q-2.1 -4.75 -3.15 -5L-5.75 -5.3L-5.8 -5.3L-5.35 -9.45L-6.65 -7.5Q-7.85 -4.1 -7.85 -3.15L-7.85 -3.1Q-7.65 -3.1 -6.55 -3.65L-5.2 -4.2L-5.05 -4.1Q-5.25 -2.15 -4.05 -2.15Q-3.25 -2.15 -2.15 -2.9L-3.45 1.8Q-4.5 5.9 -4.65 5.95Q-4.65 5.8 -7.4 -0.9L-10.1 -4.9L-9.05 -7.3L-9.3 -11.35L-8.85 -11.65L-7.1 -8.75Q-6.95 -9.55 -7.4 -15.95L-3.1 -11.85Q-1.4 -13.05 -0.45 -13.05L-0.9 -4.3L0 -3.25L0.05 -3.25L0.9 -4.3L0.5 -13.05Q1.45 -13.05 3.2 -11.8L7.4 -15.95L7.15 -12.55M9.5 -20.1L5.4 -16.2L-5.5 -16.2L-9.55 -19.95L-9.3 -16.2L-13.55 -16.2L-13.55 -0.45Q-13.55 2.65 -11.6 7.05Q-9.5 11.75 -6 15.25L-4 17.05L-0.05 19.7L3.85 17.05L5.85 15.25L8.5 12.2Q10.25 9.85 11.5 7.05Q13.45 2.65 13.45 -0.45L13.45 -16.2L9.2 -16.2L9.5 -20.1M12.4 -5.45L12.4 -0.45Q12.4 2.45 10.55 6.6L8.5 10.35Q6.75 13.05 4.35 15.25L3.85 15.7L3.85 6.55L4.3 6.9L5.65 7.4L5.7 6.1L8.35 -0.4L11.3 -4.75L11 -5.45L12.4 -5.45M-8.25 -13.3L-12.55 -13.3L-12.55 -15.2L-8.35 -15.2L-8.25 -13.3M-5.1 -15.2L-4 -15.2L-4 -14.15L-5.1 -15.2M-12.55 -5.45L-10.95 -5.45L-11.05 -5.3L-11.25 -4.75L-8.3 -0.4L-5.65 6.1L-5.6 7.4L-4.3 6.9L-4 6.75L-4 15.7L-4.5 15.25Q-8.4 11.65 -10.65 6.6Q-12.55 2.45 -12.55 -0.45L-12.55 -5.45"/>
<path style="fill:#000000;fill-opacity:1" d="M12.4 -15.2L8.4 -15.2L8.25 -13.25L8.65 -13.25L8.85 -13.65L9.1 -13.25L12.4 -13.25L12.4 -15.2M3.85 -13.85L5.25 -15.2L3.85 -15.2L3.85 -13.85M7.4 -15.95L3.2 -11.8Q1.45 -13.05 0.5 -13.05L0.9 -4.3L0.05 -3.25L0 -3.25L-0.9 -4.3L-0.45 -13.05Q-1.4 -13.05 -3.1 -11.85L-7.4 -15.95Q-6.95 -9.55 -7.1 -8.75L-8.85 -11.65L-9.3 -11.35L-9.05 -7.3L-10.1 -4.9L-7.4 -0.9Q-4.65 5.8 -4.65 5.95Q-4.5 5.9 -3.45 1.8L-2.15 -2.9Q-3.25 -2.15 -4.05 -2.15Q-5.25 -2.15 -5.05 -4.1L-5.2 -4.2L-6.55 -3.65Q-7.65 -3.1 -7.85 -3.1L-7.85 -3.15Q-7.85 -4.1 -6.65 -7.5L-5.35 -9.45L-5.8 -5.3L-5.75 -5.3L-3.15 -5Q-2.1 -4.75 -1.15 -3.4L-2.05 1.3Q-2.85 6.1 -2.4 7.25Q-2 8.15 -0.15 8.3Q-1.8 6.05 -1.85 5.4L0 5.2L0.05 5.2L1.9 5.4Q1.85 6.05 0.2 8.3Q2.05 8.15 2.4 7.25Q3.15 5.4 1.15 -3.4Q2.25 -4.8 3.2 -5L5.75 -5.3L5.8 -5.3Q5.75 -7.65 5.35 -9.45L6.75 -7.25Q7.9 -4.35 7.9 -3.15L7.9 -3.1Q7.7 -3.1 6.6 -3.65L5.25 -4.2L5.1 -4.1Q5.1 -2.1 4 -2.1Q3.5 -2.1 2.8 -2.5L2.2 -2.9L3.45 1.8L4.7 5.95L7.4 -0.9L10.15 -4.9L9.05 -7.3L9.3 -10.95L8.9 -11.65L7.05 -8.55Q6.95 -9.1 7.15 -12.55L7.4 -15.95M9.2 -16.2L13.45 -16.2L13.45 -0.45Q13.45 2.65 11.5 7.05Q10.25 9.85 8.5 12.2L5.85 15.25L3.85 17.05L-0.05 19.7L-4 17.05L-6 15.25Q-9.5 11.75 -11.6 7.05Q-13.55 2.65 -13.55 -0.45L-13.55 -16.2L-9.3 -16.2L-9.55 -19.95L-5.5 -16.2L5.4 -16.2L9.5 -20.1L9.2 -16.2M11 -5.45L11.3 -4.75L8.35 -0.4L5.7 6.1L5.65 7.4L4.3 6.9L3.85 6.55L3.85 15.7L4.35 15.25Q6.75 13.05 8.5 10.35L10.55 6.6Q12.4 2.45 12.4 -0.45L12.4 -5.45L11 -5.45M-8.35 -15.2L-12.55 -15.2L-12.55 -13.3L-8.25 -13.3L-8.35 -15.2M-4 -14.15L-4 -15.2L-5.1 -15.2L-4 -14.15M-12.55 -0.45Q-12.55 2.45 -10.65 6.6Q-8.4 11.65 -4.5 15.25L-4 15.7L-4 6.75L-4.3 6.9L-5.6 7.4L-5.65 6.1L-8.3 -0.4L-11.25 -4.75L-11.05 -5.3L-10.95 -5.45L-12.55 -5.45L-12.55 -0.45"/>
</g>
</svg>