<!--version="1.0" encoding="UTF-8"--><svg version="1.1" id="Layer_1" xmlns="http://www.w3.org/2000/svg" width="30" height="42" xml:space="preserve"><g id="PathID_8" transform="matrix(1, 0, 0, 1, 14.75, 21)"><path style="fill: rgb(255, 255, 255); fill-opacity: 1;" d="M12.4-13.25H9.1l-.25-.4-.2.4h-.4l.15-1.95h4v1.95m2.4-4.25V-.45q0 3.2-1.95 7.75-1.7 3.9-4.35 7.1l-.75.85-3 2.8q-2 1.6-3.9 2.65l-.3.3H-.5l-.25-.2-.1-.1-3.85-2.65-2.95-2.8Q-10.9 11.8-12.8 7.3q-1.95-4.5-1.95-7.75V-17.5h4.1l-.2-3.5h2.1l3.8 3.5H4.9L8.6-21h2.3l-.3 3.5h4.2M3.85-15.2h1.4l-1.4 1.35v-1.35m3.3 2.65q-.2 3.45-.1 4l1.85-3.1.4.7-.25 3.65 1.1 2.4-2.75 4-2.7 6.85L3.45 1.8 2.2-2.9l.6.4q.7.4 1.2.4 1.1 0 1.1-2l.15-.1 1.35.55q1.1.55 1.3.55v-.05q0-1.2-1.15-4.1l-1.4-2.2q.4 1.8.45 4.15h-.05L3.2-5q-.95.2-2.05 1.6 2 8.8 1.25 10.65-.35.9-2.2 1.05 1.65-2.25 1.7-2.9L.05 5.2H0l-1.85.2q.05.65 1.7 2.9Q-2 8.15-2.4 7.25q-.45-1.15.35-5.95l.9-4.7q-.95-1.35-2-1.6l-2.6-.3h-.05l.45-4.15-1.3 1.95q-1.2 3.4-1.2 4.35v.05q.2 0 1.3-.55l1.35-.55.15.1q-.2 1.95 1 1.95.8 0 1.9-.75l-1.3 4.7q-1.05 4.1-1.2 4.15 0-.15-2.75-6.85l-2.7-4 1.05-2.4-.25-4.05.45-.3 1.75 2.9q.15-.8-.3-7.2l4.3 4.1q1.7-1.2 2.65-1.2L-.9-4.3 0-3.25h.05L.9-4.3l-.4-8.75q.95 0 2.7 1.25l4.2-4.15-.25 3.4M9.5-20.1l-4.1 3.9H-5.5l-4.05-3.75.25 3.75h-4.25V-.45q0 3.1 1.95 7.5 2.1 4.7 5.6 8.2l2 1.8 3.95 2.65 3.9-2.65 2-1.8L8.5 12.2q1.75-2.35 3-5.15 1.95-4.4 1.95-7.5V-16.2H9.2l.3-3.9m2.9 14.65v5q0 2.9-1.85 7.05L8.5 10.35q-1.75 2.7-4.15 4.9l-.5.45V6.55l.45.35 1.35.5.05-1.3L8.35-.4l2.95-4.35-.3-.7h1.4M-8.25-13.3h-4.3v-1.9h4.2l.1 1.9m3.15-1.9H-4v1.05l-1.1-1.05m-7.45 9.75h1.6l-.1.15-.2.55L-8.3-.4l2.65 6.5.05 1.3 1.3-.5.3-.15v8.95l-.5-.45q-3.9-3.6-6.15-8.65-1.9-4.15-1.9-7.05v-5"/><path style="fill: rgb(0, 0, 0); fill-opacity: 1;" d="M12.4-15.2h-4l-.15 1.95h.4l.2-.4.25.4h3.3v-1.95m-8.55 1.35 1.4-1.35h-1.4v1.35m3.55-2.1L3.2-11.8Q1.45-13.05.5-13.05L.9-4.3.05-3.25H0L-.9-4.3l.45-8.75q-.95 0-2.65 1.2l-4.3-4.1q.45 6.4.3 7.2l-1.75-2.9-.45.3.25 4.05-1.05 2.4 2.7 4q2.75 6.7 2.75 6.85.15-.05 1.2-4.15l1.3-4.7q-1.1.75-1.9.75-1.2 0-1-1.95l-.15-.1-1.35.55q-1.1.55-1.3.55v-.05q0-.95 1.2-4.35l1.3-1.95-.45 4.15h.05l2.6.3q1.05.25 2 1.6l-.9 4.7q-.8 4.8-.35 5.95.4.9 2.25 1.05-1.65-2.25-1.7-2.9L0 5.2h.05l1.85.2q-.05.65-1.7 2.9 1.85-.15 2.2-1.05Q3.15 5.4 1.15-3.4 2.25-4.8 3.2-5l2.55-.3h.05q-.05-2.35-.45-4.15l1.4 2.2q1.15 2.9 1.15 4.1v.05q-.2 0-1.3-.55L5.25-4.2l-.15.1q0 2-1.1 2-.5 0-1.2-.4l-.6-.4 1.25 4.7L4.7 5.95 7.4-.9l2.75-4-1.1-2.4.25-3.65-.4-.7-1.85 3.1q-.1-.55.1-4l.25-3.4m1.8-.25h4.25V-.45q0 3.1-1.95 7.5-1.25 2.8-3 5.15l-2.65 3.05-2 1.8-3.9 2.65L-4 17.05l-2-1.8q-3.5-3.5-5.6-8.2-1.95-4.4-1.95-7.5V-16.2h4.25l-.25-3.75 4.05 3.75H5.4l4.1-3.9-.3 3.9M11-5.45l.3.7L8.35-.4 5.7 6.1l-.05 1.3-1.35-.5-.45-.35v9.15l.5-.45q2.4-2.2 4.15-4.9l2.05-3.75Q12.4 2.45 12.4-.45v-5H11M-8.35-15.2h-4.2v1.9h4.3l-.1-1.9M-4-14.15v-1.05h-1.1l1.1 1.05m-8.55 13.7q0 2.9 1.9 7.05 2.25 5.05 6.15 8.65l.5.45V6.75l-.3.15-1.3.5-.05-1.3L-8.3-.4l-2.95-4.35.2-.55.1-.15h-1.6v5"/></g></svg>