<?xml version="1.0" encoding="UTF-8" standalone="no"?>
<!-- Created with Inkscape (http://www.inkscape.org/) -->

<svg
   xmlns:dc="http://purl.org/dc/elements/1.1/"
   xmlns:cc="http://creativecommons.org/ns#"
   xmlns:rdf="http://www.w3.org/1999/02/22-rdf-syntax-ns#"
   xmlns:svg="http://www.w3.org/2000/svg"
   xmlns="http://www.w3.org/2000/svg"
   version="1.1"
   width="29.549999"
   height="42"
   viewBox="0 0 29.549999 42"
   id="svg3634"
   style="overflow:visible">
  <metadata
     id="metadata3652">
    <rdf:RDF>
      <cc:Work
         rdf:about="">
        <dc:format>image/svg+xml</dc:format>
        <dc:type
           rdf:resource="http://purl.org/dc/dcmitype/StillImage" />
        <dc:title></dc:title>
      </cc:Work>
    </rdf:RDF>
  </metadata>
  <defs
     id="defs3636" />
  <g
     transform="translate(14.75,21)"
     id="g3640">
    <g
       id="g3642">
      <g
         id="g3644">
        <path
           d="m 12.4,-13.25 -3.3,0 -0.25,-0.4 -0.2,0.4 -0.4,0 0.15,-1.95 4,0 0,1.95 z m -1.5,-7.75 -0.3,3.5 4.2,0 0,17.05 c 0,2.1333334 -0.649999,4.716667 -1.95,7.75 -1.133334,2.6 -2.583334,4.966666 -4.35,7.1 l -0.75,0.85 -3,2.8 C 3.4166665,19.116667 2.1166663,20 0.85,20.7 l -0.3,0.3 -1.05,0 -0.25,-0.2 -0.1,-0.1 -3.85,-2.65 -2.95,-2.8 c -2.166667,-2.3 -3.883333,-4.950001 -5.15,-7.95 -1.3,-3 -1.95,-5.5833333 -1.95,-7.75 l 0,-17.05 4.1,0 -0.2,-3.5 2.1,0 3.8,3.5 9.85,0 3.7,-3.5 2.3,0 z m -5.5,4.8 -10.9,0 -4.05,-3.75 0.25,3.75 -4.25,0 0,15.75 c 0,2.0666668 0.649999,4.566667 1.95,7.5 1.4,3.133333 3.266667,5.866667 5.6,8.2 l 2,1.8 3.95,2.65 3.9,-2.65 2,-1.8 2.65,-3.05 c 1.166667,-1.566667 2.166667,-3.283333 3,-5.15 1.3,-2.933333 1.95,-5.4333332 1.95,-7.5 l 0,-15.75 -4.25,0 0.3,-3.9 -4.1,3.9 z m -2.2,4.4 4.2,-4.15 -0.25,3.4 c -0.1333336,2.3 -0.166667,3.633333 -0.1,4 l 1.85,-3.1 0.4,0.7 -0.25,3.65 1.1,2.4 -2.75,4 L 4.7,5.95 3.45,1.8 2.2,-2.9 2.8,-2.5 c 0.4666667,0.2666667 0.8666667,0.4 1.2,0.4 0.733333,0 1.1,-0.6666667 1.1,-2 l 0.15,-0.1 1.35,0.55 c 0.733333,0.3666667 1.1666664,0.55 1.3,0.55 0,-0.8333334 -0.383333,-2.2166666 -1.15,-4.15 l -1.4,-2.2 c 0.266667,1.2 0.416667,2.583333 0.45,4.15 L 3.2,-5 C 2.5666666,-4.866667 1.8833332,-4.3333335 1.15,-3.4 2.4833333,2.4666667 2.9,6.0166664 2.4,7.25 2.1666667,7.85 1.4333334,8.2 0.2,8.3 1.3000001,6.8 1.8666668,5.8333335 1.9,5.4 L 0.05,5.2 -1.85,5.4 c 0.033333,0.4333335 0.6000001,1.4 1.7,2.9 C -1.3833333,8.2 -2.1333332,7.85 -2.4,7.25 -2.7,6.483333 -2.5833333,4.5 -2.05,1.3 l 0.9,-4.7 c -0.6333333,-0.9 -1.3,-1.4333335 -2,-1.6 l -2.6,-0.3 0.4,-4.15 -1.3,1.95 c -0.8,2.266667 -1.2,3.716667 -1.2,4.35 0.1333333,0.033333 0.5666667,-0.1333333 1.3,-0.5 l 1.35,-0.55 0.15,0.1 c -0.1333334,1.3 0.2,1.95 1,1.95 0.5333333,0 1.1666668,-0.25 1.9,-0.75 l -1.3,4.7 c -0.7,2.733334 -1.1,4.116667 -1.2,4.15 0,-0.1 -0.9166666,-2.3833334 -2.75,-6.85 l -2.7,-4 1.05,-2.4 -0.25,-4.05 0.45,-0.3 1.75,2.9 c 0.1,-0.533334 0,-2.933334 -0.3,-7.2 l 4.3,4.1 c 1.1333334,-0.800001 2.0166667,-1.2 2.65,-1.2 L -0.9,-4.3 0,-3.25 0.9,-4.3 0.5,-13.05 c 0.6333334,0 1.5333335,0.416667 2.7,1.25 z m -3.2,8.55 0.05,0 z m -7.85,0.1 0,0.05 z m 2.1,-2.15 -0.05,0 z M 0.05,5.2 0,5.2 z m 5.75,-10.5 -0.05,0 z m 2.1,2.2 0,-0.05 z m 4.5,2.65 c 0,1.9333333 -0.616667,4.2833333 -1.85,7.05 L 8.5,10.35 c -1.166667,1.800001 -2.55,3.433334 -4.15,4.9 L 3.85,15.7 3.85,6.55 4.3,6.9 5.65,7.4 5.7,6.1 8.35,-0.4 11.3,-4.75 11,-5.45 l 1.4,0 0,5 z m -20.65,-12.85 -4.3,0 0,-1.9 4.2,0 0.1,1.9 z m -4.3,7.85 1.6,0 -0.1,0.15 -0.2,0.55 2.95,4.35 2.65,6.5 0.05,1.3 1.3,-0.5 0.3,-0.15 0,8.95 -0.5,-0.45 c -2.6,-2.400001 -4.65,-5.283334 -6.15,-8.65 -1.266667,-2.7666665 -1.9,-5.1166664 -1.9,-7.05 l 0,-5 z"
           id="path3646"
           style="fill:#000000;stroke-linecap:round;stroke-linejoin:round" />
        <path
           d="m 9.1,-13.25 3.3,0 0,-1.95 -4,0 -0.15,1.95 0.4,0 0.2,-0.4 0.25,0.4 z m -14.6,-2.95 10.9,0 4.1,-3.9 -0.3,3.9 4.25,0 0,15.75 c 0,2.0666668 -0.65,4.566667 -1.95,7.5 -0.833333,1.866667 -1.833333,3.583333 -3,5.15 l -2.65,3.05 -2,1.8 -3.9,2.65 -3.95,-2.65 -2,-1.8 c -2.333334,-2.333334 -4.200001,-5.066668 -5.6,-8.2 -1.300001,-2.933333 -1.95,-5.4333332 -1.95,-7.5 l 0,-15.75 4.25,0 -0.25,-3.75 4.05,3.75 z m 12.9,0.25 -4.2,4.15 c -1.1666667,-0.833333 -2.0666668,-1.25 -2.7,-1.25 l 0.4,8.75 -0.85,1.05 -0.95,-1.05 0.45,-8.75 c -0.6333333,0 -1.5166666,0.399999 -2.65,1.2 l -4.3,-4.1 c 0.3,4.266667 0.4,6.666667 0.3,7.2 l -1.75,-2.9 -0.45,0.3 0.25,4.05 -1.05,2.4 2.7,4 c 1.8333334,4.466667 2.75,6.7500004 2.75,6.85 0.1,-0.033334 0.5,-1.4166667 1.2,-4.15 l 1.3,-4.7 c -0.7333334,0.5 -1.366667,0.75 -1.9,0.75 -0.8,0 -1.1333334,-0.6500002 -1,-1.95 l -0.15,-0.1 -1.35,0.55 c -0.7333333,0.3666667 -1.1666667,0.55 -1.3,0.55 0,-0.6666667 0.4,-2.1333336 1.2,-4.4 l 1.3,-1.95 -0.45,4.15 2.65,0.3 c 0.7000002,0.1666665 1.3666669,0.7 2,1.6 l -0.9,4.7 C -2.5833333,4.5 -2.7,6.4833336 -2.4,7.25 -2.1333334,7.85 -1.3833334,8.2 -0.15,8.3 -1.25,6.8 -1.8166667,5.8333335 -1.85,5.4 L 0,5.2 1.9,5.4 C 1.8666667,5.8333335 1.3,6.8 0.2,8.3 1.4333334,8.2 2.1666667,7.85 2.4,7.25 2.9,6.0166664 2.4833333,2.4666665 1.15,-3.4 1.8833333,-4.3333335 2.5666666,-4.866667 3.2,-5 l 2.55,-0.3 c 0,-1.566667 -0.133333,-2.95 -0.4,-4.15 l 1.4,2.2 c 0.766667,1.9333334 1.15,3.3000002 1.15,4.1 -0.1333336,0.033333 -0.566667,-0.1333333 -1.3,-0.5 L 5.25,-4.2 5.1,-4.1 c 0,1.3333336 -0.366667,2.0000003 -1.1,2 -0.3333333,0 -0.7333333,-0.1333333 -1.2,-0.4 L 2.2,-2.9 3.45,1.8 4.7,5.95 7.4,-0.9 l 2.75,-4 -1.1,-2.4 0.25,-3.65 -0.4,-0.7 -1.85,3.1 c -0.066667,-0.366667 -0.033334,-1.7 0.1,-4 l 0.25,-3.4 z m -7.35,12.7 -0.05,0 z m -7.9,0.15 0,-0.05 z m 2.05,-2.2 0.05,0 z M 0,5.2 l 0.05,0 z m 5.75,-10.5 0.05,0 z m 2.15,2.15 0,0.05 z M 10.55,6.6 C 11.783333,3.8333335 12.4,1.4833336 12.4,-0.45 l 0,-5 -1.4,0 0.3,0.7 L 8.35,-0.4 5.7,6.1 5.65,7.4 4.3,6.9 3.85,6.55 l 0,9.15 0.5,-0.45 c 1.6,-1.466666 2.983333,-3.099999 4.15,-4.9 L 10.55,6.6 z m -23.1,-19.9 4.3,0 -0.1,-1.9 -4.2,0 0,1.9 z m 1.6,7.85 -1.6,0 0,5 c 0,1.9333333 0.633333,4.2833333 1.9,7.05 1.5,3.366666 3.5500006,6.249999 6.15,8.65 L -4,15.7 -4,6.75 -4.3,6.9 -5.6,7.4 -5.65,6.1 -8.3,-0.4 l -2.95,-4.35 0.2,-0.55 0.1,-0.15 z"
           id="path3648"
           style="fill:#ffffff;stroke-linecap:round;stroke-linejoin:round" />
      </g>
    </g>
  </g>
</svg>
