<?xml version="1.0" encoding="UTF-8" standalone="no"?>
<!-- Created with Inkscape (http://www.inkscape.org/) -->

<svg
   xmlns:dc="http://purl.org/dc/elements/1.1/"
   xmlns:cc="http://creativecommons.org/ns#"
   xmlns:rdf="http://www.w3.org/1999/02/22-rdf-syntax-ns#"
   xmlns:svg="http://www.w3.org/2000/svg"
   xmlns="http://www.w3.org/2000/svg"
   version="1.1"
   width="19.5"
   height="40.950001"
   viewBox="0 0 19.5 40.950001"
   id="svg3005"
   style="overflow:visible">
  <metadata
     id="metadata3023">
    <rdf:RDF>
      <cc:Work
         rdf:about="">
        <dc:format>image/svg+xml</dc:format>
        <dc:type
           rdf:resource="http://purl.org/dc/dcmitype/StillImage" />
        <dc:title></dc:title>
      </cc:Work>
    </rdf:RDF>
  </metadata>
  <defs
     id="defs3007" />
  <g
     transform="translate(9.75,20.45)"
     id="g3011">
    <g
       id="g3013">
      <g
         id="g3015">
        <path
           d="m -0.65,-20.45 5.35,1.1 4.9,5.75 0.15,2.5 -0.65,5.6 0,2.1 -0.6,1.95 -0.25,1.4 0.05,3.85 -0.9,5.4 0.05,1.75 -0.6,3.85 -0.1,2.4 -2.3,3.1 -3.1,-0.05 -2,0.25 -2.1,-0.1 -2.85,-2.45 -1.95,-3.2 -0.6,-1.5 -0.2,-4.05 -0.45,-1.85 0,-3.9 -0.35,-1.95 0.15,-2.1 -0.75,-7.35 0.05,-3 2.7,-3.35 1,-0.65 0.6,-1.2 1.45,-1.55 3.3,-2.75 z m 4.05,3.3 -3.35,-0.7 -2.3,1.95 -1.05,1.15 -0.8,1.45 -1.1,0.75 -2.05,2.5 0,1.9 0.75,7.5 -0.15,1.95 0.35,1.85 0,3.85 0.45,1.8 0.2,3.8 0.45,1.15 1.5,2.45 1.95,1.7 1.05,0.05 1.9,-0.25 2,0 1.05,-1.45 0.1,-1.85 0.6,-3.65 L 4.9,8.9 5.8,3.45 5.75,-0.3 l 0.3,-1.8 0.55,-1.75 0,-1.9 0.65,-5.5 -0.1,-1.45 -3.75,-4.45 z m 0.25,12.3 c -1.9999999,3.1000002 -3.19999995,4.80000029 -3.6,5.1 -0.26666668,0 -1.5,-1.65 -3.7,-4.95 l 0,-0.55 c 2.1666667,-3.3 3.3666667,-4.95 3.6,-4.95 l 0.25,0 3.45,4.95 0,0.4 z"
           id="path3017"
           style="fill:#000000;stroke-linecap:round;stroke-linejoin:round" />
        <path
           d="m 0.05,-17.85 3.35,0.7 3.75,4.45 0.1,1.45 -0.65,5.5 0,1.9 -0.55,1.75 -0.3,1.8 0.05,3.75 -0.9,5.45 0.05,1.85 -0.6,3.65 -0.1,1.85 -1.05,1.45 -2,0 -1.9,0.25 L -1.75,17.9 -3.7,16.2 -5.2,13.75 -5.65,12.6 -5.85,8.8 -6.3,7 l 0,-3.85 -0.35,-1.85 0.15,-1.95 -0.75,-7.5 0,-1.9 2.05,-2.5 1.1,-0.75 0.8,-1.45 1.05,-1.15 2.3,-1.95 z m 0,18.1 c 0.4,-0.30000001 1.6000001,-2 3.6,-5.1 l 0,-0.4 -3.45,-4.95 -0.25,0 c -0.23333333,0 -1.4333333,1.65 -3.6,4.95 l 0,0.55 c 2.2000002,3.3000001 3.43333354,4.95000012 3.7,4.95 z"
           id="path3019"
           style="fill:#ffffff;stroke-linecap:round;stroke-linejoin:round" />
      </g>
    </g>
  </g>
</svg>
