<svg width="31" height="39" xmlns="http://www.w3.org/2000/svg" preserveAspectRatio="xMidYMid meet"><rect fill="none" id="canvas_background" height="41" width="42" y="-1" x="-1"/><path d="m16.013.574.066.065.13.13c.046.047.065 0 .13 0 .066 0 .046.161.132.197.06.025.085-.046.13 0 .093.093.066.196.132.196.065 0 .11.161.196.197.06.025.131.065.197.065l.13.131.066.066c.066 0 .085.084.131.13.046.047.066.066.131.066.066 0 .085.085.131.131.046.046.085.018.131.065l.066.065c.065 0 .084.085.13.131.047.047.085.02.132.067.092.092 0 .196.065.196.066 0 .066.131.13.197.066.065.112.077.197.196.055.075.046.078.131.197.055.075.076.03.131.065.124.077.084.15.13.196.047.047-.027.104.066.197.046.047.075.032.13.066.125.077.066.197.132.197 0 0 .02.15.065.196.047.046.085.019.131.065.093.092.066.196.066.196.065.001.065.132.13.198 0 0 .066.13.066.196 0 0 .016.076.066.197.035.086.097.055.13.197.016.064.03.177.066.262.025.06.066.196.066.261 0 .132.032.186.065.329.014.062-.093.233 0 .326.045.046.065.196.065.196v.328c0 .065.031.12.065.262.015.064 0 .065 0 .196 0 .066-.046.216 0 .262.046.047.066.197.066.262v.197c.065.195.065.26.065.457l.001.197.001.261c.001.131.067.197.067.197v.393c.065.065.05.198.065.262.034.142.066.196.066.196 0 .197-.047.216 0 .262.046.047.065.131.065.197 0 .13.066.196.066.196-.001.197-.016.198-.001.262.032.143.064.131.064.328 0 .065.032.053.066.196.015.064 0 .066 0 .262v.196c0 .066.031.054.065.197.015.063 0 .13 0 .26v.263s-.025.136 0 .196a.824.824 0 01.066.261v.198c0 .196-.075.211 0 .393a.824.824 0 01.066.263c0 .196.032.184.065.327.017.064.001.065.001.262.001.065.067.196.067.262v.196c0 .066.065.197.065.262v.197c0 .195.066.195.066.26 0 .132.032.186.065.328.015.064 0 .066 0 .197 0 .065 0 .13.066.262l-.001.196c-.001 0 .018.02.064.066.093.091 0 .195 0 .195V21.464c0 .132.02.085.066.132.046.046 0 .196 0 .196v.458a.66.66 0 00.065.197v2.684c0 .13-.13.13-.13.196v1.443s.065 0 .065.065v.394c.065.065.065.196.065.196 0 .066-.025.136 0 .197.036.086.066.131.066.262 0 0 .066.066.066.197v1.111c0 .066.066.066.066.197 0-.001.065-.001.065.064 0 .066.02.085.066.131.046.046.084.02.13.066.047.047.02.085.066.132.046.046.084.019.13.065.047.046.131.066.197.066.065 0 .084-.085.13-.131.047-.047.098-.054.132-.197.014-.064.029-.11.064-.196.025-.062.02-.086.066-.132.046-.047-.047-.15 0-.197.046-.045.065-.064.065-.13v-.196c0-.066.032-.12.066-.262.016-.064-.014-.133 0-.197.034-.142.066-.196.066-.262 0-.065.066-.13.066-.262 0-.064.065-.13.065-.195 0-.13.03-.176.066-.262.05-.12 0-.196 0-.327 0-.066.065-.131.065-.262v-.655c0-.067.066-.067.066-.132v-.916c0-.064.065-.064.065-.13v-.196c0-.066.065-.066.065-.131 0-.066.03-.111.065-.197.025-.06.03-.11.066-.196.025-.06.03-.177.065-.262.026-.06.033-.12.066-.262.016-.064 0-.131 0-.197s.02-.15.066-.197c.046-.046 0-.131 0-.197 0-.065.02-.084.065-.13.047-.047.02-.085.066-.132.046-.046.04-.07.065-.13.036-.086.085-.085.131-.132.046-.046.07-.04.13-.065.086-.035.131-.066.197-.066.065.001.136.027.196.001.086-.034.131-.064.197-.064.065 0 .206-.034.262 0 .124.077.196.13.262.13.13 0 .206.016.327.066.172.071.263.131.329.131.064 0 .14.031.195.066.125.076.13.13.196.13.001 0 .086-.046.132 0 .047.046.085.02.131.065.047.047.085.02.131.066.093.093.066.132.131.132 0 0 .085-.046.131 0 .047.046.085.02.131.065.093.093.066.131.131.131l.066.066c.046.046.13 0 .196 0s.066.13.131.13h.329c.064 0 .083.02.13.066.046.047.15-.046.196 0 .046.047-.092.104 0 .197.093.092.131 0 .131.065 0 .131.066.131.066.131v.197c.065 0 .065.065.065.13 0 .132.02.085.066.132.046.046 0 .196 0 .196v.197c.065 0 .065.065.065.13 0 .131-.047.15 0 .197.045.046.065.13.065.13a.66.66 0 00.065.197c.066.065-.027.169.066.261.046.048.065.067.065.198v.196s.132.066.132.131c0 .066-.046.15 0 .197.046.046.065.13.065.13 0 .066-.015.199 0 .263.034.142.066.196.066.262v.196c0 .13.032.185.065.328.015.064 0 .262 0 .328 0 .13-.03.33 0 .458.034.143.066.328.066.393 0 .196-.01.407.065.589a.967.967 0 01.065.392c0 .13.065.262.065.327 0 .13-.015.263 0 .326.034.143.066.328.066.459 0 .13.03.242.065.327.052.121.001.328.001.328.001.13.067.196.067.327s-.05.207 0 .328c.035.085.065.13.065.262 0 .065.066.13.066.262 0 .13.03.11.065.195.025.06 0 .13 0 .196 0 .132.066.198.066.263l-.001.262c-.001.131.064.197.064.328V36.198c0 .065.066.065.066.13 0 .066.03.111.065.197.025.06-.025.136 0 .196.036.086.066.131.066.197 0 .065.066.065.066.13V37.838c0 .065-.019.084-.065.13-.046.047-.065.066-.196.066l-.065.066c-.094.091-.132-.001-.198-.001l-.196-.001-.197-.001c-.197-.001-.216-.048-.263-.001-.046.045-.13.064-.196.064h-.195c-.066.066-.197.066-.197.066-.196 0-.262.065-.262.065h-.196c-.066.066-.197.066-.197.066h-.852s-.066.066-.262.066h-3.47c-.066 0-.197-.065-.263-.065h-.589c-.131 0-.32.14-.459 0-.047-.046-.197-.065-.263-.065H16.67c-.13 0-.196-.065-.262-.065h-5.892c-.196 0-.33-.03-.458 0a2.26 2.26 0 01-.458.065h-.393c-.131 0-.331-.03-.459 0-.142.034-.262.066-.393.066H6.322c-.064 0-.197.016-.26 0-.143-.033-.263-.065-.394-.065-.13 0-.262-.065-.327-.065-.132 0-.2.02-.329 0-.203-.034-.26-.066-.326-.066-.065 0-.196-.065-.262-.065-.13-.001-.196-.067-.262-.067a.854.854 0 01-.327-.065c-.121-.05-.177-.03-.262-.066-.06-.025-.176-.03-.261-.065-.122-.05-.203.025-.263 0-.086-.036-.141-.016-.262-.066-.086-.034-.15-.018-.197-.064-.046-.047-.067-.05-.13-.066-.143-.033-.216-.02-.263-.065-.046-.047-.084-.02-.13-.066-.047-.047-.02-.085-.066-.132-.047-.046-.02-.084-.066-.13-.047-.047-.032-.12-.066-.263-.03-.127-.065-.196-.065-.262v-.262c0-.064-.03-.11-.066-.195-.025-.06 0-.131 0-.197v-2.293c0-.13.066-.196.066-.262 0-.065.03-.11.065-.196.025-.06-.046-.15 0-.197.046-.045.02-.083.066-.13.092-.092.13-.065.13-.13v-.393c0-.066.066-.131.066-.262 0-.066.06-.091.13-.262.026-.06 0-.131 0-.197v-.196c0-.066.03-.111.066-.197.026-.06 0-.196 0-.262v-.457c0-.066.066-.13.066-.262v-.588c0-.066.02-.085.065-.131.047-.046 0-.13 0-.196 0-.065.03-.11.066-.196.025-.06-.025-.136 0-.197.035-.084.065-.13.065-.26 0-.066.03-.112.066-.197.05-.121 0-.197 0-.262v-.392c0-.066.065-.13.065-.262V25.72c0-.064.031-.184.065-.326.015-.064 0-.197 0-.262v-.262c0-.065.13-.196.13-.262v-.786c0-.13-.05-.206 0-.327a.824.824 0 00.066-.262l.001-.262.001-.392.001-.328.001-.327.001-.393.001-.327.001-.393c.001-.131.034-.254.067-.459.02-.128.065-.26.065-.392a.96.96 0 01.066-.327.605.605 0 01.13-.195c.14-.14.03-.242.066-.328.025-.06.031-.14.066-.196.077-.124.13-.13.13-.13s-.046-.15 0-.197c.047-.046.02-.084.066-.13.047-.047.02-.085.066-.132.046-.045.019-.083.065-.13.046-.046.066-.065.131-.065 0 0 .005-.106.066-.131.085-.036.17-.039.262-.131.046-.047-.047-.085 0-.131.046-.046.065-.066.13-.066.066 0 .085-.019.132-.065.046-.045.13-.065.196-.065s.196 0 .196-.065h.524c.131 0 .131.065.131.065.066 0 .066.131.197.131 0 0-.046.02 0 .066s.065.13.13.13l.066.066.131.131.065.065c.065 0 .084.019.13.065l.132.131.065.067c.093.092.066.13.066.13 0 .066.019.15.065.197l.066.066c-.001.065.064.065.064.196 0 0 .066 0 .066.066 0 .13.019.084.065.13.046.047 0 .197 0 .263 0 0 .066.065.066.196 0 0 0 .066.132.197v.327c0 .132-.047.15 0 .197.046.048.065.132.065.132v.197c.066.064.066.13.066.26 0 0 0 .066.065.197v.197l.066.065c.046.045 0 .196 0 .196v.196c0 .066-.026.202 0 .262.035.086.065.196.065.196 0 .066-.016.199 0 .262.033.143.065.197.065.328v.13c0 .132-.047.15 0 .197.046.047.065.131.065.131v.655c0 .197-.015.264 0 .328.034.143.065.328.065.394v.654c0 .131-.068.282 0 .393.077.126.131.198.131.263v.982c0 .13.066.262.066.327 0 .13-.025.136 0 .197.035.085.065.13.065.196v.196c.066.066.066.197.066.197 0 .064.065.064.065.13v.196c0 .131-.046.15 0 .197.047.046.066.13.066.13 0 .066.03.112.065.197.024.06-.047.15 0 .197.046.046.065.065.065.13 0 .132.065.132.065.132 0 .064.039.037.131.13.048.046.001.13.001.196l.001.131.001.197c.067 0 .02.084.067.13.046.047.065.066.065.132 0 .065.066.13.066.196 0 .065-.027.104.065.196l.066.066c.045.046.064.13.064.13.066 0 .085.02.131.066.047.047.085.02.131.066.047.046.02.085.066.13.046.047 0 .197.065.197l.066.066c.092.091.019.083.065.13.046.046.02.084.066.13.046.047.13 0 .196 0s.15.047.197 0c.046-.046-.025-.135 0-.196.035-.085.065-.13.065-.196v-.197c0-.064.03-.11.066-.195.025-.06 0-.131 0-.197 0-.065.065-.065.065-.13 0-.066.02-.085.066-.132.045-.046.018-.084.064-.13.046-.047.03-.111.066-.197.025-.061 0-.132 0-.197 0-.066.065-.131.065-.197 0-.065.03-.11.065-.196.026-.06 0-.131 0-.197v-.457c0-.066-.025-.136 0-.197.036-.085.066-.13.066-.196v-.262c0-.066.03-.176.065-.262.027-.06-.014-.133.001-.197.035-.14.067-.195.067-.26 0-.131.065-.197.065-.328 0-.065.032-.12.066-.262.015-.064.03-.11.065-.196.025-.06 0-.131 0-.197 0-.065.03-.11.066-.196.024-.06-.001-.13-.001-.196-.001-.13.064-.196.064-.327 0-.066.066-.131.066-.197 0-.065.03-.11.065-.196.05-.121.03-.176.066-.262.026-.06-.024-.201 0-.262.036-.086.066-.13.066-.196s.032-.12.066-.262c.015-.064 0-.197 0-.262 0-.131.065-.262.065-.328v-.196c0-.066.03-.111.066-.197.025-.061 0-.132 0-.197 0-.066-.025-.136 0-.197.035-.085.065-.13.065-.196v-.786c0-.065.03-.11.066-.196.025-.06 0-.131 0-.197V19.437c0-.197-.066-.328-.066-.459V12.49c0-.197.032-.316.066-.459.03-.127.032-.316.065-.458a3.05 3.05 0 00.065-.393c.033-.268.087-.413.196-.59.05-.078.082-.337.132-.458.036-.085.081-.272.131-.393.036-.085.056-.277.131-.458.036-.086.055-.197.066-.262.033-.204.055-.394.065-.458.033-.205.097-.316.131-.459.03-.127.032-.188.066-.393.031-.194.034-.264.065-.458.033-.205.096-.308.131-.393.075-.18.02-.266.066-.458.033-.142.055-.197.065-.262.032-.204.065-.196.13-.392 0 0 .02-.15.065-.197.093-.092.066-.26.066-.26.066-.197-.072-.255.066-.394.047-.046.066-.13.066-.196s.065-.197.065-.262c0-.131.02-.15.066-.197.093-.091 0-.26 0-.26 0-.132.02-.15.065-.197.093-.093 0-.197 0-.197 0-.13.066-.196.066-.196 0-.066.02-.15.065-.196.046-.047-.093-.104 0-.197l.065-.065c.065-.131.065-.197.065-.197 0-.065.066-.065.066-.196 0-.067.05-.2.065-.263.035-.143.086-.15.132-.197.047-.046.055-.197.066-.262.033-.204.084-.15.13-.196.093-.093 0-.197.066-.197l.066-.065c.092-.093.065-.197.065-.197.066 0 .039-.038.131-.13.047-.047.066-.066.131-.066 0 0 .085.046.131 0 .093-.093.02-.15.066-.197.046-.046.13 0 .196 0h.524" id="svg_4" stroke-opacity="null" stroke-width="null" stroke="null" fill="#3b81f7"/><g id="svg_1" fill="#000000" transform="translate(0,39) scale(0.10000000149011612,-0.10000000149011612) "><path id="svg_2" d="M116 316c-10-40-16-89-13-107 3-19 2-56-2-84l-8-50-8 62c-9 74-36 109-55 74-6-12-9-25-7-29 6-10-8-143-18-164C-2 1 9 0 155 0h158l-7 73c-7 74-20 97-57 97-14 0-19-10-22-47-3-35-4-28-5 27-3 173-21 240-65 240-20 0-25-9-41-74zm65 42c16-30 19-52 26-180 4-82 9-108 19-108 15 0 17 8 14 59-1 28 1 33 15 27 9-3 21-6 26-6s8-17 7-37c0-21 2-53 6-71l8-32H160C30 10 19 11 24 28c2 9 8 54 11 99 4 46 11 83 15 83 12 0 20-27 20-65 0-19 5-46 10-61 18-47 32-12 37 88 7 174 32 246 64 186z"/></g></svg>