<!--version="1.0" encoding="UTF-8" standalone="no"--><!-- Created with Inkscape (http://www.inkscape.org/) --><svg xmlns="http://www.w3.org/2000/svg" version="1.1" width="19.5" height="40.95" viewBox="0 0 19.5 40.95" id="svg3005" style="overflow-x: visible; overflow-y: visible;"><g transform="translate(9.75,20.45)" id="g3011"><g id="g3013"><g id="g3015"><path d="m-.65-20.45 5.35 1.1 4.9 5.75.15 2.5-.65 5.6v2.1l-.6 1.95-.25 1.4.05 3.85-.9 5.4.05 1.75-.6 3.85-.1 2.4-2.3 3.1-3.1-.05-2 .25-2.1-.1-2.85-2.45-1.95-3.2-.6-1.5-.2-4.05-.45-1.85v-3.9l-.35-1.95L-9-.6l-.75-7.35.05-3L-7-14.3l1-.65.6-1.2 1.45-1.55 3.3-2.75zm4.05 3.3-3.35-.7-2.3 1.95-1.05 1.15-.8 1.45-1.1.75-2.05 2.5v1.9l.75 7.5-.15 1.95.35 1.85V7l.45 1.8.2 3.8.45 1.15 1.5 2.45 1.95 1.7 1.05.05 1.9-.25h2l1.05-1.45.1-1.85.6-3.65L4.9 8.9l.9-5.45L5.75-.3l.3-1.8.55-1.75v-1.9l.65-5.5-.1-1.45-3.75-4.45zm.25 12.3c-2 3.1-3.2 4.8-3.6 5.1-.267 0-1.5-1.65-3.7-4.95v-.55c2.167-3.3 3.367-4.95 3.6-4.95H.2l3.45 4.95v.4z" id="path3017" style="fill: rgb(0, 0, 0); stroke-linecap: round; stroke-linejoin: round;"/><path d="m.05-17.85 3.35.7 3.75 4.45.1 1.45-.65 5.5v1.9L6.05-2.1l-.3 1.8.05 3.75-.9 5.45.05 1.85-.6 3.65-.1 1.85L3.2 17.7h-2l-1.9.25-1.05-.05-1.95-1.7-1.5-2.45-.45-1.15-.2-3.8L-6.3 7V3.15l-.35-1.85.15-1.95-.75-7.5v-1.9l2.05-2.5 1.1-.75.8-1.45 1.05-1.15 2.3-1.95zm0 18.1c.4-.3 1.6-2 3.6-5.1v-.4L.2-10.2h-.25c-.233 0-1.433 1.65-3.6 4.95v.55C-1.45-1.4-.217.25.05.25z" id="path3019" style="fill: rgb(255, 255, 255); stroke-linecap: round; stroke-linejoin: round;"/></g></g></g></svg>