<svg xmlns="http://www.w3.org/2000/svg" width="50px" height="50px" viewBox="0,0,100, 100"><g fill="none" fill-rule="nonzero" stroke="none" stroke-width="1" stroke-linecap="butt" stroke-linejoin="miter" stroke-miterlimit="10" stroke-dasharray="" stroke-dashoffset="0" font-family="none" font-weight="none" font-size="none" text-anchor="none" style="mix-blend-mode: normal"><g transform=""><path d="M50.4,19.4l9.9,20.2l22.1,3.2l-16,15.7l3.8,22.2l-19.8,-10.5l-19.8,10.5l3.8,-22.2l-16,-15.7l22.1,-3.2z" fill="#e1e1e1"></path><path d="M49.2,19.6l0.1,-0.2l0.3,0.4l0.1,30.2l-32.8,-7.2l23.2,-3.2zM82.4,42.8l-31.6,7.6l19.6,30.6l-4,-22.5z" fill="#b7b7b7"></path><path d="M30.8,81.2c-0.1,0 -0.2,0 -0.3,-0.1c-0.2,-0.1 -0.3,-0.5 -0.1,-0.7l3.5,-5.4c0.1,-0.2 0.5,-0.3 0.7,-0.1c0.2,0.1 0.3,0.5 0.1,0.7l-3.5,5.4c-0.1,0.1 -0.3,0.2 -0.4,0.2zM35.4,74c-0.1,0 -0.2,0 -0.3,-0.1c-0.2,-0.1 -0.3,-0.5 -0.1,-0.7l1.6,-2.6c0.1,-0.2 0.5,-0.3 0.7,-0.1c0.2,0.1 0.3,0.5 0.1,0.7l-1.6,2.6c-0.1,0.1 -0.2,0.2 -0.4,0.2zM38.2,69c-0.1,0 -0.2,0 -0.3,-0.1c-0.2,-0.1 -0.3,-0.5 -0.1,-0.7l11.8,-18.4v-3.5c0,-0.3 0.2,-0.5 0.5,-0.5c0.3,0 0.5,0.2 0.5,0.5v3.7c0,0.1 0,0.2 -0.1,0.3l-11.9,18.5c-0.1,0.1 -0.2,0.2 -0.4,0.2zM50.1,44.9c-0.3,0 -0.5,-0.2 -0.5,-0.5v-1c0,-0.3 0.2,-0.5 0.5,-0.5c0.3,0 0.5,0.2 0.5,0.5v1c0,0.3 -0.2,0.5 -0.5,0.5zM50.1,40.9c-0.3,0 -0.5,-0.2 -0.5,-0.5v-21c0,-0.3 0.2,-0.5 0.5,-0.5c0.3,0 0.5,0.2 0.5,0.5v21c0,0.3 -0.2,0.5 -0.5,0.5z" fill="#000000"></path><path d="M70.2,81.2c-0.2,0 -0.3,-0.1 -0.4,-0.2l-19.7,-30.7c-0.1,-0.1 -0.1,-0.3 0,-0.5c0.1,-0.2 0.2,-0.3 0.4,-0.3l31.9,-7.2c0.3,-0.1 0.5,0.1 0.6,0.4c0.1,0.3 -0.1,0.5 -0.4,0.6l-31.2,7.1l19.3,30.1c0.1,0.2 0.1,0.5 -0.2,0.7c-0.1,0 -0.2,0 -0.3,0z" fill="#000000"></path><path d="M50.5,50.5h-0.1l-33,-7.2c-0.3,-0.1 -0.4,-0.3 -0.4,-0.6c0,-0.3 0.3,-0.4 0.6,-0.4l33,7.2c0.3,0.1 0.4,0.3 0.4,0.6c0,0.3 -0.2,0.4 -0.5,0.4z" fill="#000000"></path><path d="M50.4,19.4l9.9,20.2l22.1,3.2l-16,15.7l3.8,22.2l-19.8,-10.5l-19.8,10.5l3.8,-22.2l-16,-15.7l22.1,-3.2l9.9,-20.2M50.4,17.4c-0.8,0 -1.5,0.4 -1.8,1.1l-9.4,19.2l-21.1,3.1c-0.8,0.1 -1.4,0.6 -1.6,1.4c-0.2,0.7 0,1.5 0.5,2l15.3,15l-3.6,21.2c-0.1,0.8 0.2,1.5 0.8,2c0.3,0.3 0.8,0.4 1.2,0.4c0.3,0 0.6,-0.1 0.9,-0.2l18.9,-10l18.9,10c0.3,0.2 0.6,0.2 0.9,0.2c0.4,0 0.8,-0.1 1.2,-0.4c0.6,-0.4 0.9,-1.2 0.8,-2l-3.6,-21.2l15.3,-15c0.5,-0.5 0.7,-1.3 0.5,-2c-0.2,-0.7 -0.9,-1.2 -1.6,-1.4l-21.1,-3.1l-9.4,-19.2c-0.5,-0.7 -1.2,-1.1 -2,-1.1z" fill="#000000"></path></g></g></svg>