<svg xmlns="http://www.w3.org/2000/svg" width="50" height="50" viewBox="0 0 100 100"><g fill="none" fill-rule="nonzero" stroke="none" stroke-width="1" stroke-linecap="butt" stroke-linejoin="miter" stroke-miterlimit="10" stroke-dashoffset="0" font-family="none" font-weight="none" font-size="none" text-anchor="none" style=""><path d="m50.4 19.4 9.9 20.2 22.1 3.2-16 15.7 3.8 22.2-19.8-10.5-19.8 10.5 3.8-22.2-16-15.7 22.1-3.2z" fill="#e1e1e1"/><path d="m49.2 19.6.1-.2.3.4.1 30.2-32.8-7.2 23.2-3.2zm33.2 23.2-31.6 7.6L70.4 81l-4-22.5z" fill="#b7b7b7"/><path d="M30.8 81.2c-.1 0-.2 0-.3-.1-.2-.1-.3-.5-.1-.7l3.5-5.4c.1-.2.5-.3.7-.1.2.1.3.5.1.7L31.2 81c-.1.1-.3.2-.4.2zm4.6-7.2c-.1 0-.2 0-.3-.1-.2-.1-.3-.5-.1-.7l1.6-2.6c.1-.2.5-.3.7-.1.2.1.3.5.1.7l-1.6 2.6c-.1.1-.2.2-.4.2zm2.8-5c-.1 0-.2 0-.3-.1-.2-.1-.3-.5-.1-.7l11.8-18.4v-3.5c0-.3.2-.5.5-.5s.5.2.5.5V50c0 .1 0 .2-.1.3L38.6 68.8c-.1.1-.2.2-.4.2zm11.9-24.1c-.3 0-.5-.2-.5-.5v-1c0-.3.2-.5.5-.5s.5.2.5.5v1c0 .3-.2.5-.5.5zm0-4c-.3 0-.5-.2-.5-.5v-21c0-.3.2-.5.5-.5s.5.2.5.5v21c0 .3-.2.5-.5.5z" fill="#000000"/><path d="M70.2 81.2c-.2 0-.3-.1-.4-.2L50.1 50.3c-.1-.1-.1-.3 0-.5.1-.2.2-.3.4-.3l31.9-7.2c.3-.1.5.1.6.4.1.3-.1.5-.4.6l-31.2 7.1 19.3 30.1c.1.2.1.5-.2.7h-.3z" fill="#000000"/><path d="M50.5 50.5h-.1l-33-7.2c-.3-.1-.4-.3-.4-.6s.3-.4.6-.4l33 7.2c.3.1.4.3.4.6s-.2.4-.5.4z" fill="#000000"/><path d="m50.4 19.4 9.9 20.2 22.1 3.2-16 15.7 3.8 22.2-19.8-10.5-19.8 10.5 3.8-22.2-16-15.7 22.1-3.2 9.9-20.2m0-2c-.8 0-1.5.4-1.8 1.1l-9.4 19.2-21.1 3.1c-.8.1-1.4.6-1.6 1.4-.2.7 0 1.5.5 2l15.3 15-3.6 21.2c-.1.8.2 1.5.8 2 .3.3.8.4 1.2.4.3 0 .6-.1.9-.2l18.9-10 18.9 10c.3.2.6.2.9.2.4 0 .8-.1 1.2-.4.6-.4.9-1.2.8-2l-3.6-21.2 15.3-15c.5-.5.7-1.3.5-2-.2-.7-.9-1.2-1.6-1.4l-21.1-3.1-9.4-19.2c-.5-.7-1.2-1.1-2-1.1z" fill="#000000"/></g></svg>