<!--version="1.0" encoding="UTF-8"--><svg version="1.1" id="Layer_1" xmlns="http://www.w3.org/2000/svg" width="33" height="40" xml:space="preserve"><g id="PathID_107" transform="matrix(1, 0, 0, 1, 16.5, 19.85)"><path style="fill: rgb(0, 0, 0); fill-opacity: 1;" d="m12.1-14.05.15.2.85 2 .15.45 1.1 4.25q1.1 1.2 1.75 2.95.65 2 .2 3.95-.45 1.9-1.75 2.9l-1 .55q1.7 2.2 1.7 3.95.05 1.6-.7 2.85l-1.35 1.65q-.9.8-1.15 1.35l-.5 1.3-1.7 3.45Q8.5 19.6 6.55 19.8l-1.8.1Q2 19.9-.2 18.8l-3.35-2.35q-2.05-1.7-3.25-2.15l-.5-.15q-6.5-1.85-7.85-5.1-.95-2.25.35-4.8l.3-.5q-.85-.4-1.4-1.4-.7-1.25-.6-3.35.05-1.75.5-3.2.65-1.75 1.7-2.9l1.3-4.75.6-1.7.15-.3q.75-1.3 1.9-1.4h.2q.9 0 1.5.7 1.6-3.75 3.95-4.05h.25q.7 0 1.3.5.1-.85.85-1.4l1.1-.35q1.55 0 3.1 2.7l.25-.5q.55-.8 1.55-.8h.2q2.7.3 4.45 4.55l.35-.55q.65-.65 1.5-.65h.15q1 .05 1.75 1.05m-7.6.6v1.6l-.2 2.5-.3.15q-.9.8-.85 3.45.1 2.8 1.4 3.8.7.55 1.85.6 1.2.1 1.6-.5Q8.85-3 9.05-5.8q.35-2.6-1-3.7l-.7-.2-.25-2.15-.25-.65-.55-1.35q-1.15-2.45-2.6-2.6-.15 0 .2 1l.5 1.6.1.4M1.05-14.5l-1.2-2.25Q-1-18-1.25-17.85l.05 1.2q.25 1.3.05 2.25l-.1.55L-1.7-12v.15l-.25 1.8-.2.2q-1.1 1.35-1 3.85Q-3-3.5-1.9-3q1.8.75 3.3-.9.9-1 1.25-3 .4-2.1-.3-3.2l-.9-.85v-.9l-.2-2-.2-.65M10-10.8l.35 4.25q-.7.65-1.1 3-.3 2.1-.15 3.5.1 1.05 1.7 1.6 1.65.55 2.65-.2.85-.65 1.1-2.05.25-1.35-.2-2.75-.65-1.8-1.7-2.65l-1.15-4.6-.4-1.15q-.55-1.2-.9-1.25-.3-.05-.25 1.25L10-10.8m3.4 18.15q0-2.4-4.25-5.8-3.9-3.05-6.5-3.65-2.45-.55-5.15.65-1.55.65-4.35 2.6l-3.4 1.55q-1.95.8-2.9 2.55-1.8 3.4 2.05 5.65 2 1.15 4.95 1.85L-.9 16.4q3.05 2.2 7.25 1.75Q7.8 18 8.85 16l1.55-3.6q.35-.7 1.9-2.3 1.15-1.15 1.1-2.75m-18.6-21.2.55-1.75q.35-1 .2-1-1.3.15-2.4 2.75l-.3.65-.45 1.35q-.6 1.85-.6 3.2-.65 1-.65 2.65l.4 2.65q.4 1.35 1 2.05.55.65 1.75.2 1.05-.35 1.6-1 .7-.85.7-3.5 0-2.3-.55-3.4-.45-.95-1.5-1.1l.1-1.75.1-1.7.05-.3m-7.45 7.8q-1.05 1-1.55 2.6-.55 1.6-.45 3.4.1 2.1 1.1 2.35l1.4-.15.85-.65 1.15-.25 1-.65q.45-.7.05-3.8-.45-3.25-1.45-3.55h-.15l.5-4.15.15-.95q.15-1.45-.15-1.4l-.75 1.4-1.7 5.8"/><path style="fill: rgb(255, 255, 255); fill-opacity: 1;" d="m4.4-13.85-.5-1.6q-.35-1-.2-1 1.45.15 2.6 2.6l.55 1.35.25.65.25 2.15.7.2q1.35 1.1 1 3.7Q8.85-3 8-1.85q-.4.6-1.6.5-1.15-.05-1.85-.6-1.3-1-1.4-3.8Q3.1-8.4 4-9.2l.3-.15.2-2.5v-1.6l-.1-.4m-3.15 0 .2 2v.9l.9.85q.7 1.1.3 3.2-.35 2-1.25 3-1.5 1.65-3.3.9-1.1-.5-1.25-3-.1-2.5 1-3.85l.2-.2.25-1.8V-12l.45-1.85.1-.55q.2-.95-.05-2.25l-.05-1.2q.25-.15 1.1 1.1l1.2 2.25.2.65m8.7 2q-.05-1.3.25-1.25.35.05.9 1.25l.4 1.15 1.15 4.6q1.05.85 1.7 2.65.45 1.4.2 2.75-.25 1.4-1.1 2.05-1 .75-2.65.2Q9.2 1 9.1-.05q-.15-1.4.15-3.5.4-2.35 1.1-3L10-10.8l-.05-1.05M12.3 10.1q-1.55 1.6-1.9 2.3L8.85 16q-1.05 2-2.5 2.15-4.2.45-7.25-1.75l-5.25-3.65q-2.95-.7-4.95-1.85-3.85-2.25-2.05-5.65.95-1.75 2.9-2.55l3.4-1.55q2.8-1.95 4.35-2.6 2.7-1.2 5.15-.65 2.6.6 6.5 3.65 4.25 3.4 4.25 5.8.05 1.6-1.1 2.75M-5.25-13.55l-.1 1.7-.1 1.75q1.05.15 1.5 1.1.55 1.1.55 3.4 0 2.65-.7 3.5-.55.65-1.6 1-1.2.45-1.75-.2-.6-.7-1-2.05L-8.85-6q0-1.65.65-2.65 0-1.35.6-3.2l.45-1.35.3-.65q1.1-2.6 2.4-2.75.15 0-.2 1l-.55 1.75-.05.3m-5.7 1.7.75-1.4q.3-.05.15 1.4l-.15.95-.5 4.15h.15q1 .3 1.45 3.55.4 3.1-.05 3.8l-1 .65-1.15.25-.85.65-1.4.15q-1-.25-1.1-2.35-.1-1.8.45-3.4.5-1.6 1.55-2.6l1.7-5.8"/></g></svg>