<svg width="43" height="35" xmlns="http://www.w3.org/2000/svg" preserveAspectRatio="xMidYMid meet"><rect fill="none" id="canvas_background" height="402" width="582" y="-1" x="-1"/><path id="svg_8" d="M1.79 11.77c-.3.24 6.029-3.58 5.971-3.59.059.01 9.257-4.13 8.897-4.538-.36-.408 4.833-2.558 4.776-2.567.057.01 7.4 1.144 7.343 1.134.058.009 6.326 3.054 6.269 3.044.057.01 4.659 3.453 4.895 3.164.237-.289 1.137 1.483 1.373 2.269.237.786-.24 1.442-.36 1.442-.12 0-2.388.596-2.388.537 0-.06-5.01-1.035-4.834-.309.178.726-3.762.07-3.046.846.717.776-2.626 2.09-2.684 2.08.714.726-1.972 1.502-2.03 1.492.953 1.144-.599 1.144-.657 1.134.058.01 3.342 5.92 3.284 5.91.834-.467 1.67 2.28 1.612 2.27.415-1.006 1.609 1.323 1.551 1.313.178-1.005 1.432.487 1.374.478-.121-.945 1.431.488 1.373.478-.24-.885 1.192.249 1.135.24 2.326 1.98-1.316.904-1.375.964-.06.06-.836 1.85-.894 1.84 2.326 1.026-.659.847-.716.837.057.785-4.241.546-4.241.546s-12.18 0-12.237-.01c.057.607-4.6-.348-4.658-.358-1.315.368-1.076-1.005-1.134-1.015-.838.189-1.793-2.319-1.733-2.319.06 0 2.567-1.134 2.51-1.144.415-.647 2.146-1.124 2.266-1.124.12 0 2.33-3.224 2.271-3.234-.359-.408 1.85-3.692 1.793-3.701-.36-.11.833-1.78.776-1.79-.72.368-.123-1.364-.18-1.374-.72.428-1.734-2.02-1.792-2.03-1.076.309-1.494-1.363-1.552-1.373-.599.428-13.494.25-12.418-.238" stroke-width="1.5" stroke="#fff" fill="#fff"/><g id="svg_1" fill="#000" transform="translate(0,35) scale(0.10000000149011612,-0.10000000149011612) "><path id="svg_2" d="M136 315c-27-19-62-37-77-40s-35-15-44-25c-15-16-16-22-5-35 10-12 25-15 64-10 40 4 56 2 74-13l23-18-24-44c-15-29-32-46-48-50-31-8-35-30-9-58C109 2 120 0 220 0c115 0 140 4 140 25 0 7 5 15 12 17 18 6 1 38-21 38-21 0-56 38-67 72-10 32 19 52 84 58 53 5 57 7 57 30 0 19-14 34-58 64-50 35-66 41-120 43-57 3-66 0-111-32zm202-11c39-20 73-43 76-51 10-26-5-36-49-30-36 5-47 2-75-21l-33-28 18-34c24-48 45-70 67-70 35 0 18-20-19-21-31-2-33-3-10-6 15-2 27-9 27-14s-53-9-122-9c-111 0-142 9-83 23 11 3 3 5-18 6-38 1-45 21-7 21 20 0 70 73 70 101 0 9-13 25-29 37-24 18-38 20-80 15-69-8-67 11 5 43 31 13 72 36 92 49 50 34 88 31 170-11z"/><path id="svg_3" d="M160 225c7-8 17-15 22-15 6 0 5 7-2 15s-17 15-22 15c-6 0-5-7 2-15z"/><path id="svg_4" d="M206 215c17-27 13-83-12-142l-13-33h41c34 0 39 3 33 18-20 51-29 124-18 152 11 29 10 30-18 30-29 0-29 0-13-25z"/><path id="svg_5" d="m264 218-19-21 28 18c28 18 33 25 19 25-5 0-17-10-28-22z"/><path id="svg_6" d="M176 113c-3-10-9-24-12-30-3-7-1-13 4-13s13 12 16 26c8 30 2 44-8 17z"/><path id="svg_7" d="M260 98c0-9 5-20 11-23 17-11 18-2 3 19-12 17-14 17-14 4z"/></g></svg>