<!--version="1.0" encoding="UTF-8"--><svg version="1.1" id="Layer_1" xmlns="http://www.w3.org/2000/svg" width="31" height="42" xml:space="preserve"><g id="PathID_100" transform="matrix(1, 0, 0, 1, 15.1, 20.8)"><path style="fill: rgb(0, 0, 0); fill-opacity: 1;" d="M3.6-17.35v8.7l5.25 5.8 1.65.35 3.6 6.85 1.05 10.55-9.8.5L0 21l-5.3-5.6-9.8-.5L-14 4.15l3.55-6.65 1.65-.35 5.25-5.8v-8.7l1.95-3.45h3.2l2 3.45M.45-18.8h-.9l-1.15 2v8.9L-7.8-1l-1.3.25-2.95 5.5-.85 8.15h5.35l-.5-2.05.25-4.15L-5.15.55l1.6-2.45 1.95-1.35.05 2.7L-3.2 14.7 0 18.1l3.25-3.4L1.6-.5v-2.75l2 1.35L5.15.45l2.7 6.25.25 4.15-.5 2.05h5.35l-.8-8-3-5.65L7.85-1 1.6-7.9v-8.9l-1.15-2"/><path style="fill: rgb(59, 129, 247); fill-opacity: 1;" d="M1.6-16.8v8.9L7.85-1l1.3.25 3 5.65.8 8H7.6l.5-2.05-.25-4.15L5.15.45 3.6-1.9l-2-1.35V-.5l1.65 15.2L0 18.1l-3.2-3.4L-1.55-.55l-.05-2.7-1.95 1.35-1.6 2.45L-7.8 6.7l-.25 4.15.5 2.05h-5.35l.85-8.15 2.95-5.5L-7.8-1l6.2-6.9v-8.9l1.15-2h.9l1.15 2"/></g></svg>