<?xml version="1.0" encoding="UTF-8"?>
<svg version="1.1" id="Layer_1" xmlns="http://www.w3.org/2000/svg" xmlns:xlink="http://www.w3.org/1999/xlink" width="26px" height="41px" xml:space="preserve">
<g id="PathID_53" transform="matrix(1, 0, 0, 1, 12.5, 20.1)">
<path style="fill:#000000;fill-opacity:1" d="M7.5 -14.75L4.6 -14.75L4.6 -18.1L1.5 -18.1L1.5 -14.75L-1.4 -14.75L-1.4 -18.1L-4.5 -18.1L-4.5 -14.75L-7.4 -14.75L-7.4 -18.1L-10.5 -18.1L-10.5 -11.65L-8.05 -8.7L-8.05 11.35L-0.05 17.7L8.1 11.35L8.1 -8.7L10.55 -11.65L10.55 -18.1L7.5 -18.1L7.5 -14.75M12.55 -10.9L10.1 -7.95L10.1 12.3L-0.05 20.25L-10.05 12.3L-10.05 -7.95L-12.5 -10.9L-12.5 -20.1L12.55 -20.1L12.55 -10.9M-0.8 -6.4L1 -6.4L1 -3L-0.8 -3L-0.8 -6.4M3.7 -3L3.7 -6.4L5.5 -6.4L5.5 -3L3.7 -3M-5.4 -3L-5.4 -6.4L-3.65 -6.4L-3.65 -3L-5.4 -3"/>
<path style="fill:#FFFFFF;fill-opacity:1" d="M7.5 -18.1L10.55 -18.1L10.55 -11.65L8.1 -8.7L8.1 11.35L-0.05 17.7L-8.05 11.35L-8.05 -8.7L-10.5 -11.65L-10.5 -18.1L-7.4 -18.1L-7.4 -14.75L-4.5 -14.75L-4.5 -18.1L-1.4 -18.1L-1.4 -14.75L1.5 -14.75L1.5 -18.1L4.6 -18.1L4.6 -14.75L7.5 -14.75L7.5 -18.1M-0.8 -3L1 -3L1 -6.4L-0.8 -6.4L-0.8 -3M5.5 -3L5.5 -6.4L3.7 -6.4L3.7 -3L5.5 -3M-3.65 -3L-3.65 -6.4L-5.4 -6.4L-5.4 -3L-3.65 -3"/>
</g>
</svg>