<!--version="1.0" encoding="UTF-8"--><svg version="1.1" id="Layer_1" xmlns="http://www.w3.org/2000/svg" width="26" height="41" xml:space="preserve"><g id="PathID_53" transform="matrix(1, 0, 0, 1, 12.5, 20.1)"><path style="fill: rgb(0, 0, 0); fill-opacity: 1;" d="M7.5-14.75H4.6v-3.35H1.5v3.35h-2.9v-3.35h-3.1v3.35h-2.9v-3.35h-3.1v6.45l2.45 2.95v20.05l8 6.35 8.15-6.35V-8.7l2.45-2.95v-6.45H7.5v3.35m5.05 3.85L10.1-7.95V12.3L-.05 20.25l-10-7.95V-7.95l-2.45-2.95v-9.2h25.05v9.2M-.8-6.4H1V-3H-.8v-3.4M3.7-3v-3.4h1.8V-3H3.7m-9.1 0v-3.4h1.75V-3H-5.4"/><path style="fill: rgb(59, 129, 247); fill-opacity: 1;" d="M7.5-18.1h3.05v6.45L8.1-8.7v20.05L-.05 17.7l-8-6.35V-8.7l-2.45-2.95v-6.45h3.1v3.35h2.9v-3.35h3.1v3.35h2.9v-3.35h3.1v3.35h2.9v-3.35M-.8-3H1v-3.4H-.8V-3m6.3 0v-3.4H3.7V-3h1.8m-9.15 0v-3.4H-5.4V-3h1.75"/></g></svg>