<?xml version="1.0" encoding="UTF-8"?>
<svg version="1.1" id="Layer_1" xmlns="http://www.w3.org/2000/svg" xmlns:xlink="http://www.w3.org/1999/xlink" width="33px" height="40px" xml:space="preserve">
<g id="PathID_89" transform="matrix(1, 0, 0, 1, 16.05, 19.9)">
<path style="fill:#000000;fill-opacity:1" d="M3.3 -17.85L2.35 -17.85L2.35 -16.75L-4.3 -5.95L-1.4 -4.05L-1.4 -2.65L-13.85 4.15L-13.85 7.35L-11.15 9.95L-11.15 15.75L-9.1 15.8L-9.05 8.2L-4.95 6.15L-4.85 16.35L1.8 18L10.6 15.45L10.6 5.15L12.65 3.8L7.1 0.15L7.1 -4.05L10 -5.95L3.3 -16.75L3.3 -17.85M5.15 -19.9L5.15 -17.35L12.5 -5.4L8.9 -3L8.9 -1L16.05 3.75L12.4 6.15L12.4 16.9L1.65 20.05L-7 17.9L-13.35 17.65L-13.35 10.75L-16.05 8.2L-16.05 2.9L-4.3 -3.5L-7.25 -5.4L0.15 -17.35L0.15 -19.9L5.15 -19.9M2 -9.1L2 -5.7L0.2 -5.7L0.2 -9.1L2 -9.1M3.3 -9.1L5.1 -9.1L5.1 -5.7L3.3 -5.7L3.3 -9.1M1.95 12.8L-1.5 12.8L-1.5 7.95L1.95 7.95L1.95 12.8"/>
<path style="fill:#FFFFFF;fill-opacity:1" d="M3.3 -16.75L10 -5.95L7.1 -4.05L7.1 0.15L12.65 3.8L10.6 5.15L10.6 15.45L1.8 18L-4.85 16.35L-4.95 6.15L-9.05 8.2L-9.1 15.8L-11.15 15.75L-11.15 9.95L-13.85 7.35L-13.85 4.15L-1.4 -2.65L-1.4 -4.05L-4.3 -5.95L2.35 -16.75L2.35 -17.85L3.3 -17.85L3.3 -16.75M0.2 -9.1L0.2 -5.7L2 -5.7L2 -9.1L0.2 -9.1M3.3 -5.7L5.1 -5.7L5.1 -9.1L3.3 -9.1L3.3 -5.7M1.95 7.95L-1.5 7.95L-1.5 12.8L1.95 12.8L1.95 7.95"/>
</g>
</svg>