<!--version="1.0" encoding="UTF-8"--><svg version="1.1" id="Layer_1" xmlns="http://www.w3.org/2000/svg" width="33" height="40" xml:space="preserve"><g id="PathID_89" transform="matrix(1, 0, 0, 1, 16.05, 19.9)"><path style="fill: rgb(0, 0, 0); fill-opacity: 1;" d="M3.3-17.85h-.95v1.1L-4.3-5.95l2.9 1.9v1.4l-12.45 6.8v3.2l2.7 2.6v5.8l2.05.05.05-7.6 4.1-2.05.1 10.2L1.8 18l8.8-2.55V5.15l2.05-1.35L7.1.15v-4.2l2.9-1.9-6.7-10.8v-1.1m1.85-2.05v2.55L12.5-5.4 8.9-3v2l7.15 4.75-3.65 2.4V16.9L1.65 20.05-7 17.9l-6.35-.25v-6.9l-2.7-2.55V2.9L-4.3-3.5l-2.95-1.9 7.4-11.95v-2.55h5M2-9.1v3.4H.2v-3.4H2m1.3 0h1.8v3.4H3.3v-3.4M1.95 12.8H-1.5V7.95h3.45v4.85"/><path style="fill: rgb(255, 255, 255); fill-opacity: 1;" d="M3.3-16.75 10-5.95l-2.9 1.9v4.2l5.55 3.65-2.05 1.35v10.3L1.8 18l-6.65-1.65-.1-10.2-4.1 2.05-.05 7.6-2.05-.05v-5.8l-2.7-2.6v-3.2l12.45-6.8v-1.4l-2.9-1.9 6.65-10.8v-1.1h.95v1.1M.2-9.1v3.4H2v-3.4H.2m3.1 3.4h1.8v-3.4H3.3v3.4M1.95 7.95H-1.5v4.85h3.45V7.95"/></g></svg>