<?xml version="1.0" encoding="UTF-8" standalone="no"?>
<!-- Created with Inkscape (http://www.inkscape.org/) -->

<svg
   xmlns:dc="http://purl.org/dc/elements/1.1/"
   xmlns:cc="http://creativecommons.org/ns#"
   xmlns:rdf="http://www.w3.org/1999/02/22-rdf-syntax-ns#"
   xmlns:svg="http://www.w3.org/2000/svg"
   xmlns="http://www.w3.org/2000/svg"
   version="1.1"
   width="33.400002"
   height="42"
   viewBox="0 0 33.400002 42"
   id="svg3931"
   style="overflow:visible">
  <metadata
     id="metadata3949">
    <rdf:RDF>
      <cc:Work
         rdf:about="">
        <dc:format>image/svg+xml</dc:format>
        <dc:type
           rdf:resource="http://purl.org/dc/dcmitype/StillImage" />
        <dc:title></dc:title>
      </cc:Work>
    </rdf:RDF>
  </metadata>
  <defs
     id="defs3933" />
  <g
     transform="translate(16.7,21)"
     id="g3937">
    <g
       id="g3939">
      <g
         id="g3941">
        <path
           d="m 14.15,-13.8 -1.5,-1.2 -0.75,0.95 c -0.533333,-1.633333 -1.633333,-2.7 -3.3,-3.2 l -1.25,-1 0,-1.25 -0.35,0 0,1.25 -1,0.95 c -0.8333335,0.2 -1.5666666,0.6 -2.2,1.2 -0.6333335,0.566666 -1.0833335,1.25 -1.35,2.05 L 1.7,-15 l -1.45,1.2 1.1,1.4 -0.1,1.45 -0.5,1.45 -0.55,0 -0.8,2.25 c 0.9,0.2999997 1.2,0.6666665 0.9,1.1 -0.20000001,0.266667 -0.40000002,0.3833336 -0.6,0.35 l -0.3,-0.1 -0.05,0.8 1.35,0.55 0,5.4 -15,0 0,12.05 -0.8,0 0,5 3.15,0 0,-5 -0.45,0 0,-0.35 c 0.03333,-0.666667 0.283333,-1.216667 0.75,-1.65 0.466667,-0.466667 1.016667,-0.7 1.65,-0.7 0.666667,0 1.233334,0.233333 1.7,0.7 0.4666665,0.433333 0.7166665,0.983333 0.75,1.65 l 0.05,0.35 -0.5,0 0,5 3.15,0 0,-5 -0.75,0 0,-0.35 c 0,-0.633333 0.233333,-1.183333 0.7,-1.65 0.4666666,-0.466667 1.0333332,-0.7 1.7,-0.7 0.6666667,0 1.2333334,0.233333 1.7,0.7 0.4666667,0.466667 0.70000005,1.016667 0.7,1.65 l 0.05,0.35 -0.5,0 0,5 8.1,1.65 0.2,0 0,-6.55 -0.45,0 0,-0.35 c 0.033333,-0.666667 0.283333,-1.233334 0.75,-1.7 0.4666666,-0.466666 1.033333,-0.7 1.7,-0.7 0.633333,0 1.183334,0.233334 1.65,0.7 0.466666,0.466666 0.716666,1.033333 0.75,1.7 L 11.5,13 11,13 l 0,5.65 2.65,-0.7 0,-7.3 0.9,-0.5 0,-2.9 -1,0 0,-3.65 1.5,-1.6 0,-0.65 -1.4,-0.45 0,-5.45 L 15,-5.1 14.95,-5.9 c -0.3,0.266667 -0.600001,0.1833333 -0.9,-0.25 -0.2,-0.266667 -0.1,-0.5333334 0.3,-0.8 l 0.6,-0.3 -0.8,-2.25 -0.55,0 -0.5,-1.45 -0.1,-1.45 1.15,-1.4 z m -21.7,26.35 0.05,0 z m 6.75,0 0.05,0 z m 12.25,0.1 0.05,0 z m 0.5,-29.3 0.3,-0.4 3.8,3 -1.7,2.15 0.05,0.65 0.1,0.3 0.5,0 0.85,2.35 0.25,-0.2 0.05,1 0.55,1.45 -0.45,0.15 0,0.25 0.15,1.8 -1.45,0.6 0,3.35 1.4,0.45 0,2.3 -1.5,1.65 0,1.6 1,0 0,5.2 -0.75,0.45 -0.15,0.05 0,7.6 -8.05,1.9 -0.5,0 -8.1,-1.65 -15,0 0,-7.9 0.75,0 0.05,-12.05 15,0 0,-2.95 -1.45,-0.6 0.1,-1.8 0.05,-0.25 -0.45,-0.15 0.5,-1.4 0.1,-1.05 0.2,0.2 0.9,-2.35 0.5,0 0.1,-0.3 0.05,-0.65 -1.7,-2.15 3.8,-3 0.3,0.4 c 0.9,-1.033334 1.95,-1.716669 3.15,-2.05 l 0.1,-0.1 0,-2.2 3.3,0 0,2.15 0.3,0.2 c 1.166667,0.4 2.166667,1.066666 3,2 z m -14.1,8.9 0.05,-0.05 z m 18.3,-0.05 0.05,0.05 z m -7.5,3 1.7,0 0,2.05 -1.7,0 0,-2.05 z M 3.5,7.7 l 0,-4.5 1.65,0 0,4.5 -1.65,0 z m -9.1,-0.65 4.85,0 0,2.2 c -0.7,-0.533334 -1.516667,-0.8 -2.45,-0.8 -0.933333,0 -1.7333334,0.25 -2.4,0.75 l 0,-2.15 z m -4.4,1.4 c -0.933333,0 -1.733334,0.25 -2.4,0.75 l 0,-2.15 4.9,0 0,2.2 C -8.233334,8.716666 -9.066667,8.45 -10,8.45 z"
           id="path3943"
           style="fill:#000000;stroke-linecap:round;stroke-linejoin:round" />
        <path
           d="m 12.65,-15 1.5,1.2 -1.15,1.4 0.1,1.45 0.5,1.45 0.55,0 0.8,2.25 -0.6,0.3 c -0.4,0.2666666 -0.500001,0.533333 -0.3,0.8 0.3,0.4333333 0.600001,0.516667 0.9,0.25 l 0.05,0.8 -1.35,0.55 0,5.45 1.4,0.45 0,0.65 -1.5,1.6 0,3.65 1,0 0,2.9 -0.9,0.5 0,7.3 -2.65,0.7 0,-5.65 0.5,0 0,-0.35 c -0.06667,-0.666667 -0.333333,-1.233334 -0.8,-1.7 -0.466666,-0.466666 -1.016667,-0.7 -1.65,-0.7 -0.666667,0 -1.2333334,0.233334 -1.7,0.7 -0.466667,0.466666 -0.716667,1.033333 -0.75,1.7 l 0,0.35 0.45,0 0,6.55 -0.2,0 -8.1,-1.65 0,-5 0.5,0 0,-0.35 c -0.0333334,-0.633333 -0.2833333,-1.183333 -0.75,-1.65 -0.4666667,-0.466667 -1.0333333,-0.7 -1.7,-0.7 -0.6666666,0 -1.2333334,0.233333 -1.7,0.7 -0.466667,0.466667 -0.7,1.016667 -0.7,1.65 l 0,0.35 0.75,0 0,5 -3.15,0 0,-5 0.5,0 0,-0.35 c -0.066667,-0.666667 -0.3333335,-1.216667 -0.8,-1.65 -0.466666,-0.466667 -1.033333,-0.7 -1.7,-0.7 -0.633333,0 -1.183333,0.233333 -1.65,0.7 -0.466667,0.433333 -0.716667,0.983333 -0.75,1.65 l 0,0.35 0.45,0 0,5 -3.15,0 0,-5 0.8,0 0,-12.05 15,0 0,-5.4 -1.35,-0.55 0.05,-0.8 0.3,0.1 c 0.20000001,0.033333 0.40000002,-0.083334 0.6,-0.35 0.3,-0.4333335 0,-0.8000003 -0.9,-1.1 l 0.8,-2.25 0.55,0 0.5,-1.45 0.1,-1.45 -1.1,-1.4 1.45,-1.2 0.75,0.95 c 0.2666667,-0.8 0.7166667,-1.483334 1.35,-2.05 0.6333334,-0.6 1.366667,-1 2.2,-1.2 l 1,-0.95 0,-1.25 0.35,0 0,1.25 1.25,1 c 1.666667,0.5 2.766667,1.566667 3.3,3.2 L 12.65,-15 z m -20.15,27.55 -0.05,0 z m 6.75,0 -0.05,0 z m 12.25,0.1 -0.05,0 z m -1.15,-17.45 -1.7,0 0,2.05 1.7,0 0,-2.05 z m -6.85,8 0,4.5 1.65,0 0,-4.5 -1.65,0 z m -4.25,3.85 -4.85,0 0,2.15 c 0.6666666,-0.5 1.466667,-0.75 2.4,-0.75 0.9333333,0 1.7500001,0.266666 2.45,0.8 l 0,-2.2 z M -12.4,9.2 c 0.666667,-0.5 1.466668,-0.75 2.4,-0.75 0.933333,0 1.766666,0.266666 2.5,0.8 l 0,-2.2 -4.9,0 0,2.15 z"
           id="path3945"
           style="fill:#ffffff;stroke-linecap:round;stroke-linejoin:round" />
      </g>
    </g>
  </g>
</svg>
