<!--version="1.0" encoding="UTF-8" standalone="no"--><!-- Created with Inkscape (http://www.inkscape.org/) --><svg xmlns="http://www.w3.org/2000/svg" version="1.1" width="33.4" height="42" viewBox="0 0 33.4 42" id="svg3931" style="overflow-x: visible; overflow-y: visible;"><g transform="translate(16.7,21)" id="g3937"><g id="g3939"><g id="g3941"><path d="m14.15-13.8-1.5-1.2-.75.95c-.533-1.633-1.633-2.7-3.3-3.2l-1.25-1v-1.25H7v1.25l-1 .95c-.833.2-1.567.6-2.2 1.2a4.703 4.703 0 00-1.35 2.05L1.7-15 .25-13.8l1.1 1.4-.1 1.45-.5 1.45H.2l-.8 2.25c.9.3 1.2.667.9 1.1-.2.267-.4.383-.6.35l-.3-.1-.05.8 1.35.55v5.4h-15V12.9h-.8v5h3.15v-5h-.45v-.35c.033-.667.283-1.217.75-1.65.467-.467 1.017-.7 1.65-.7.667 0 1.233.233 1.7.7.467.433.717.983.75 1.65l.05.35H-8v5h3.15v-5h-.75v-.35c0-.633.233-1.183.7-1.65a2.314 2.314 0 011.7-.7c.667 0 1.233.233 1.7.7s.7 1.017.7 1.65l.05.35h-.5v5l8.1 1.65h.2V13H6.6v-.35a2.5 2.5 0 01.75-1.7 2.314 2.314 0 011.7-.7c.633 0 1.183.233 1.65.7a2.5 2.5 0 01.75 1.7l.05.35H11v5.65l2.65-.7v-7.3l.9-.5v-2.9h-1V3.6l1.5-1.6v-.65L13.65.9v-5.45L15-5.1l-.05-.8c-.3.267-.6.183-.9-.25-.2-.267-.1-.533.3-.8l.6-.3-.8-2.25h-.55l-.5-1.45-.1-1.45 1.15-1.4zm-21.7 26.35h.05zm6.75 0h.05zm12.25.1h.05zm.5-29.3.3-.4 3.8 3-1.7 2.15.05.65.1.3h.5l.85 2.35.25-.2.05 1 .55 1.45-.45.15v.25l.15 1.8-1.45.6V-.2l1.4.45v2.3l-1.5 1.65v1.6h1V11l-.75.45-.15.05v7.6L6.9 21h-.5l-8.1-1.65h-15v-7.9h.75L-15.9-.6h15v-2.95l-1.45-.6.1-1.8.05-.25-.45-.15.5-1.4.1-1.05.2.2.9-2.35h.5l.1-.3.05-.65-1.7-2.15 3.8-3 .3.4c.9-1.033 1.95-1.717 3.15-2.05l.1-.1V-21h3.3v2.15l.3.2a7.01 7.01 0 013 2zm-14.1 8.9.05-.05zm18.3-.05.05.05zm-7.5 3h1.7v2.05h-1.7V-4.8zM3.5 7.7V3.2h1.65v4.5H3.5zm-9.1-.65h4.85v2.2c-.7-.533-1.517-.8-2.45-.8-.933 0-1.733.25-2.4.75V7.05zm-4.4 1.4c-.933 0-1.733.25-2.4.75V7.05h4.9v2.2a4.143 4.143 0 00-2.5-.8z" id="path3943" style="fill: rgb(0, 0, 0); stroke-linecap: round; stroke-linejoin: round;"/><path d="m12.65-15 1.5 1.2L13-12.4l.1 1.45.5 1.45h.55l.8 2.25-.6.3c-.4.267-.5.533-.3.8.3.433.6.517.9.25l.05.8-1.35.55V.9l1.4.45V2l-1.5 1.6v3.65h1v2.9l-.9.5v7.3l-2.65.7V13h.5v-.35a2.716 2.716 0 00-.8-1.7c-.467-.467-1.017-.7-1.65-.7-.667 0-1.233.233-1.7.7a2.5 2.5 0 00-.75 1.7V13h.45v6.55h-.2l-8.1-1.65v-5h.5v-.35c-.033-.633-.283-1.183-.75-1.65a2.314 2.314 0 00-1.7-.7c-.667 0-1.233.233-1.7.7s-.7 1.017-.7 1.65v.35h.75v5H-8v-5h.5v-.35c-.067-.667-.333-1.217-.8-1.65a2.314 2.314 0 00-1.7-.7c-.633 0-1.183.233-1.65.7-.467.433-.717.983-.75 1.65v.35h.45v5h-3.15v-5h.8V.85h15v-5.4L-.65-5.1l.05-.8.3.1c.2.033.4-.083.6-.35.3-.433 0-.8-.9-1.1L.2-9.5h.55l.5-1.45.1-1.45-1.1-1.4L1.7-15l.75.95c.267-.8.717-1.483 1.35-2.05.633-.6 1.367-1 2.2-1.2l1-.95v-1.25h.35v1.25l1.25 1c1.667.5 2.767 1.567 3.3 3.2l.75-.95zM-7.5 12.55h-.05zm6.75 0H-.8zm12.25.1h-.05zM10.35-4.8h-1.7v2.05h1.7V-4.8zm-6.85 8v4.5h1.65V3.2H3.5zM-.75 7.05H-5.6V9.2c.667-.5 1.467-.75 2.4-.75.933 0 1.75.267 2.45.8v-2.2zM-12.4 9.2c.667-.5 1.467-.75 2.4-.75.933 0 1.767.267 2.5.8v-2.2h-4.9V9.2z" id="path3945" style="fill: rgb(59, 129, 247); stroke-linecap: round; stroke-linejoin: round;"/></g></g></g></svg>