<!--version="1.0" encoding="UTF-8" standalone="no"--><!-- Created with Inkscape (http://www.inkscape.org/) --><svg xmlns="http://www.w3.org/2000/svg" version="1.1" width="26.5" height="42" viewBox="0 0 26.5 42" id="svg3731" style="overflow-x: visible; overflow-y: visible;"><g transform="translate(13.25,21)" id="g3737"><g id="g3739"><g id="g3741"><path d="M1.45-19.55c-3.233 0-5.983 1.283-8.25 3.85l-1.35 1.65.3.3-1.65 2.6h-2.2v13.6c0 2.333.817 4.983 2.45 7.95 2.1 3.833 5.017 6.817 8.75 8.95l.2.25h.9l.2-.25c3.733-2.133 6.65-5.117 8.75-8.95 1.6-2.967 2.4-5.617 2.4-7.95v-13.6H8.6l-.5-1.05v-.65c0-1.867-.5-3.383-1.5-4.55-1.133-1.367-2.783-2.083-4.95-2.15h-.2zM-8-16.65C-5.4-19.55-2.3-21 1.3-21h.25c2.6.067 4.617.967 6.05 2.7 1.2 1.5 1.8 3.3 1.8 5.4v.3h3.85V2.45c0 2.5-.85 5.333-2.55 8.5-2.167 4.067-5.217 7.25-9.15 9.55l-.5.5h-2.1l-.5-.5c-3.9-2.3-6.95-5.483-9.15-9.55-1.7-3.2-2.55-6.033-2.55-8.5V-12.6h2.75l.6-.95-.3-.3 2.2-2.8zm14.1 4.1c-.7-.7-1.367-1.2-2-1.5l-1.3-.25-.6.1c-.133-.567-.467-1.017-1-1.35-.867-.567-2.017-.55-3.45.05-1.367.633-2.517 1.383-3.45 2.25l.6-.7c1.967-2.167 4.25-3.233 6.85-3.2 1.5.067 2.617.533 3.35 1.4.667.833 1 1.9 1 3.2zm-5.5.2L0-15.1l1.6 1.35.05.05c.633-.033 1.433.2 2.4.7 1 .5 1.683 1.05 2.05 1.65l3.65 8.2c0 .533-.067.8-.2.8.133 1.1 0 1.717-.4 1.85l-.95.15H8c-.133-.067-.3-.533-.5-1.4l-.35-1.4-.7.1c-.333.267-.433.55-.3.85l.15.3.95 1.4c-.633.267-1.067.333-1.3.2L5.2-1.45c-.1-.133-.117-.367-.05-.7l.05-.9c-.1-.267-.883-.667-2.35-1.2l-2.4-.8C.117-5.383-.033-6.267 0-7.7c.033-1.267.117-2.1.25-2.5.133-.333.633-.633 1.5-.9l.55-.15-.55-.15c-.633-.1-1-.367-1.1-.8l-.05-.15zm8.95 10v.05zM1.65-13.7h.05zm5.8 7.65L5.75-9.8c.033-.333-.05-.483-.25-.45h-.7c-.467-.067-.817-.2-1.05-.4-.233-.2-.433-.517-.6-.95L3-12.2c-.2.567-.017 1.2.55 1.9.067.833.417 1.383 1.05 1.65l.9.15 1.6 2.45h.35zM-7.75-9.4c1.567-3.5 4.05-5.45 7.45-5.85-.2.3-.217.9-.05 1.8.167.833.4 1.567.7 2.2-.7.133-1.083 1.167-1.15 3.1-.067 1.8.083 2.967.45 3.5.367.533 1.217.85 2.55.95-.933.6-.85 1.933.25 4 1.333 2.567 1.9 4.433 1.7 5.6L3.4 4.1c-.6-1-1.267-1.833-2-2.5C.767 1.067-.9.367-3.6-.5c-2.467-.767-4.333-1.883-5.6-3.35.167-1.9.65-3.75 1.45-5.55zm4.45-1.1 1.75-2.4h-.7c-.567.067-1.15.25-1.75.55l-.5 1.65c-.267 1.267-.25 2.35.05 3.25.5 1.467 1.25 2.667 2.25 3.6-1.567-2.367-1.933-4.583-1.1-6.65zm-6 18.3H9.65l-.9 1.85-.6 1.1h-16l-.6-1.1-.85-1.85z" id="path3743" style="fill: rgb(0, 0, 0); stroke-linecap: round; stroke-linejoin: round;"/><path d="M-6.8-15.7c2.267-2.567 5.017-3.85 8.25-3.85h.2c2.167.067 3.817.783 4.95 2.15 1 1.167 1.5 2.683 1.5 4.55v.65l.5 1.05h3.35v13.6c0 2.333-.8 4.983-2.4 7.95-2.1 3.833-5.017 6.817-8.75 8.95l-.2.25h-.9l-.2-.25c-3.733-2.133-6.65-5.117-8.75-8.95-1.633-2.967-2.45-5.617-2.45-7.95v-13.6h2.2l1.65-2.6-.3-.3 1.35-1.65zm10.9 1.65c.633.3 1.3.8 2 1.5 0-1.3-.333-2.367-1-3.2-.733-.867-1.85-1.333-3.35-1.4-2.6-.033-4.883 1.033-6.85 3.2l-.6.7c.933-.867 2.083-1.617 3.45-2.25 1.433-.6 2.583-.617 3.45-.05.533.333.867.783 1 1.35l.6-.1 1.3.25zM0-15.1l.6 2.75.05.15c.1.433.467.7 1.1.8l.55.15-.55.15c-.867.267-1.367.567-1.5.9C.117-9.8.033-8.967 0-7.7c-.033 1.433.117 2.317.45 2.65l2.4.8c1.467.533 2.25.933 2.35 1.2l-.05.9c-.067.333-.05.567.05.7L5.95-.3c.233.133.667.067 1.3-.2L6.3-1.9l-.15-.3c-.133-.3-.033-.583.3-.85l.7-.1.35 1.4c.2.867.367 1.333.5 1.4h.2l.95-.15c.4-.133.533-.733.4-1.8.133-.033.2-.317.2-.85l-3.65-8.2c-.367-.6-1.05-1.15-2.05-1.65-.967-.5-1.75-.733-2.35-.7l-.1-.05L0-15.1zM9.55-2.3v-.05zM1.7-13.7h-.05zm4.05 3.9 1.7 3.75H7.1L5.5-8.5l-.9-.15c-.633-.267-.983-.817-1.05-1.65-.567-.7-.75-1.333-.55-1.9l.15.6c.167.433.367.75.6.95.233.2.583.333 1.05.4h.7c.2-.033.283.117.25.45zM-.3-15.25c-3.4.4-5.883 2.35-7.45 5.85A17.31 17.31 0 00-9.2-3.85C-7.933-2.383-6.067-1.267-3.6-.5c2.7.867 4.367 1.567 5 2.1.733.667 1.4 1.5 2 2.5l.75 1.8c.2-1.167-.367-3.033-1.7-5.6-1.1-2.067-1.183-3.4-.25-4C.867-3.8.017-4.117-.35-4.65c-.367-.533-.517-1.7-.45-3.5.067-1.933.45-2.967 1.15-3.1-.3-.633-.533-1.367-.7-2.2-.167-.9-.15-1.5.05-1.8zm-1.25 2.35-1.75 2.4c-.833 2.067-.467 4.283 1.1 6.65-1-.933-1.75-2.133-2.25-3.6-.3-.9-.317-1.983-.05-3.25l.5-1.65c.6-.3 1.183-.483 1.75-.55h.7zM9.65 7.8H-9.3l.85 1.85.6 1.1h16l.6-1.1.9-1.85z" id="path3745" style="fill: rgb(255, 255, 255); stroke-linecap: round; stroke-linejoin: round;"/></g></g></g></svg>