<!--version="1.0" encoding="UTF-8"--><svg version="1.1" id="Layer_1" xmlns="http://www.w3.org/2000/svg" width="27" height="42" xml:space="preserve"><g id="PathID_6" transform="matrix(1, 0, 0, 1, 13.25, 21)"><path style="fill: rgb(0, 0, 0); fill-opacity: 1;" d="M1.65-19.55q3.25.1 4.95 2.15 1.5 1.75 1.5 4.55v.65l.5 1.05h3.35v13.6q0 3.5-2.4 7.95Q6.4 16.15.8 19.35l-.2.25h-.9l-.2-.25q-5.6-3.2-8.75-8.95-2.45-4.45-2.45-7.95v-13.6h2.2l1.65-2.6-.3-.3 1.35-1.65q3.4-3.85 8.25-3.85h.2m0 5.85-.05-.05L0-15.1l.6 2.75.05.15q.15.65 1.1.8l.55.15-.55.15q-1.3.4-1.5.9-.2.6-.25 2.5-.05 2.15.45 2.65l2.4.8q2.2.8 2.35 1.2l-.05.9q-.1.5.05.7L5.95-.3q.35.2 1.3-.2L6.3-1.9l-.15-.3q-.2-.45.3-.85l.7-.1.35 1.4q.3 1.3.5 1.4h.2l.95-.15q.6-.2.4-1.8v-.05q.2 0 .2-.8l-3.65-8.2q-.55-.9-2.05-1.65-1.45-.75-2.35-.7h-.05m2.45-.35q.95.45 2 1.5 0-1.95-1-3.2-1.1-1.3-3.35-1.4-3.9-.05-6.85 3.2l-.6.7q1.4-1.3 3.45-2.25 2.15-.9 3.45-.05.8.5 1 1.35l.6-.1 1.3.25M5.75-9.8l1.7 3.75H7.1L5.5-8.5l-.9-.15q-.95-.4-1.05-1.65-.85-1.05-.55-1.9l.15.6q.25.65.6.95.35.3 1.05.4h.7q.3-.05.25.45m-7.3-3.1-1.75 2.4q-1.25 3.1 1.1 6.65-1.5-1.4-2.25-3.6-.45-1.35-.05-3.25l.5-1.65q.9-.45 1.75-.55h.7m1.25-2.35q-5.1.6-7.45 5.85-1.2 2.7-1.45 5.55 1.9 2.2 5.6 3.35Q.45.8 1.4 1.6q1.1 1 2 2.5l.75 1.8q.3-1.75-1.7-5.6-1.65-3.1-.25-4-2-.15-2.55-.95-.55-.8-.45-3.5.1-2.9 1.15-3.1-.45-.95-.7-2.2-.25-1.35.05-1.8m-7.55 26h16l.6-1.1.9-1.85H-9.3l.85 1.85.6 1.1"/><path style="fill: rgb(255, 255, 255); fill-opacity: 1;" d="M1.55-21q3.9.1 6.05 2.7 1.8 2.25 1.8 5.4v.3h3.85V2.45q0 3.75-2.55 8.5-3.25 6.1-9.15 9.55l-.5.5h-2.1l-.5-.5q-5.85-3.45-9.15-9.55-2.55-4.8-2.55-8.5V-12.6h2.75l.6-.95-.3-.3 2.2-2.8Q-4.1-21 1.3-21h.25m-.1 1.45q-4.85 0-8.25 3.85l-1.35 1.65.3.3-1.65 2.6h-2.2v13.6q0 3.5 2.45 7.95 3.15 5.75 8.75 8.95l.2.25h.9l.2-.25q5.6-3.2 8.75-8.95 2.4-4.45 2.4-7.95v-13.6H8.6l-.5-1.05v-.65q0-2.8-1.5-4.55-1.7-2.05-4.95-2.15h-.2m.25 5.85q.9-.05 2.35.7 1.5.75 2.05 1.65l3.65 8.2q0 .8-.2.8v.05q.2 1.6-.4 1.8l-.95.15H8q-.2-.1-.5-1.4l-.35-1.4-.7.1q-.5.4-.3.85l.15.3.95 1.4q-.95.4-1.3.2L5.2-1.45q-.15-.2-.05-.7l.05-.9q-.15-.4-2.35-1.2l-2.4-.8q-.5-.5-.45-2.65.05-1.9.25-2.5.2-.5 1.5-.9l.55-.15-.55-.15q-.95-.15-1.1-.8l-.05-.15L0-15.1l1.6 1.35.05.05h.05m1.1-.6-.6.1q-.2-.85-1-1.35-1.3-.85-3.45.05-2.05.95-3.45 2.25l.6-.7q2.95-3.25 6.85-3.2 2.25.1 3.35 1.4 1 1.25 1 3.2-1.05-1.05-2-1.5l-1.3-.25m2.7 4.05h-.7q-.7-.1-1.05-.4-.35-.3-.6-.95L3-12.2q-.3.85.55 1.9.1 1.25 1.05 1.65l.9.15 1.6 2.45h.35L5.75-9.8q.05-.5-.25-.45m-7.75-2.65q-.85.1-1.75.55l-.5 1.65q-.4 1.9.05 3.25.75 2.2 2.25 3.6-2.35-3.55-1.1-6.65l1.75-2.4h-.7m1.9-.55q.25 1.25.7 2.2-1.05.2-1.15 3.1-.1 2.7.45 3.5.55.8 2.55.95-1.4.9.25 4 2 3.85 1.7 5.6L3.4 4.1q-.9-1.5-2-2.5-.95-.8-5-2.1-3.7-1.15-5.6-3.35.25-2.85 1.45-5.55 2.35-5.25 7.45-5.85-.3.45-.05 1.8m-8.1 23.1L-9.3 7.8H9.65l-.9 1.85-.6 1.1h-16l-.6-1.1"/></g></svg>