<?xml version="1.0" encoding="UTF-8" standalone="no"?>
<!-- Created with Inkscape (http://www.inkscape.org/) -->

<svg
   xmlns:dc="http://purl.org/dc/elements/1.1/"
   xmlns:cc="http://creativecommons.org/ns#"
   xmlns:rdf="http://www.w3.org/1999/02/22-rdf-syntax-ns#"
   xmlns:svg="http://www.w3.org/2000/svg"
   xmlns="http://www.w3.org/2000/svg"
   version="1.1"
   width="26.5"
   height="42"
   viewBox="0 0 26.5 42"
   id="svg3731"
   style="overflow:visible">
  <metadata
     id="metadata3749">
    <rdf:RDF>
      <cc:Work
         rdf:about="">
        <dc:format>image/svg+xml</dc:format>
        <dc:type
           rdf:resource="http://purl.org/dc/dcmitype/StillImage" />
        <dc:title></dc:title>
      </cc:Work>
    </rdf:RDF>
  </metadata>
  <defs
     id="defs3733" />
  <g
     transform="translate(13.25,21)"
     id="g3737">
    <g
       id="g3739">
      <g
         id="g3741">
        <path
           d="m 1.45,-19.55 c -3.2333335,0 -5.983334,1.283334 -8.25,3.85 l -1.35,1.65 0.3,0.3 -1.65,2.6 -2.2,0 0,13.6 c 0,2.3333333 0.816667,4.9833334 2.45,7.95 2.1000004,3.833334 5.0166674,6.816667 8.75,8.95 l 0.2,0.25 0.9,0 0.2,-0.25 c 3.7333333,-2.133333 6.65,-5.116666 8.75,-8.95 1.6,-2.966667 2.4,-5.616667 2.4,-7.95 l 0,-13.6 -3.35,0 -0.5,-1.05 0,-0.65 c 0,-1.866666 -0.4999996,-3.383334 -1.5,-4.55 -1.1333333,-1.366666 -2.7833334,-2.083334 -4.95,-2.15 l -0.2,0 z m -9.45,2.9 c 2.6000004,-2.9 5.7000005,-4.35 9.3,-4.35 l 0.25,0 c 2.5999996,0.06667 4.6166665,0.966667 6.05,2.7 1.199999,1.5 1.8,3.300001 1.8,5.4 l 0,0.3 3.85,0 0,15.05 c 0,2.5 -0.85,5.3333333 -2.55,8.5 -2.166667,4.066666 -5.2166674,7.25 -9.15,9.55 l -0.5,0.5 -2.1,0 -0.5,-0.5 c -3.9000003,-2.300001 -6.95,-5.483335 -9.15,-9.55 -1.7,-3.2 -2.55,-6.0333335 -2.55,-8.5 l 0,-15.05 2.75,0 0.6,-0.95 -0.3,-0.3 2.2,-2.8 z m 14.1,4.1 c -0.7,-0.7 -1.3666664,-1.2 -2,-1.5 l -1.3,-0.25 -0.6,0.1 c -0.1333334,-0.566666 -0.4666668,-1.016666 -1,-1.35 -0.8666667,-0.566667 -2.0166668,-0.55 -3.45,0.05 -1.3666668,0.633333 -2.516667,1.383333 -3.45,2.25 l 0.6,-0.7 c 1.9666668,-2.166667 4.2500001,-3.233334 6.85,-3.2 1.5,0.06667 2.616667,0.533335 3.35,1.4 0.6666664,0.833333 1,1.9 1,3.2 z m -5.5,0.2 -0.6,-2.75 1.6,1.35 0.05,0.05 c 0.6333333,-0.03333 1.4333335,0.2 2.4,0.7 1,0.5 1.6833336,1.05 2.05,1.65 l 3.65,8.2 c 0,0.5333334 -0.066667,0.8 -0.2,0.8 0.133333,1.1 0,1.7166667 -0.4,1.85 L 8.2,-0.35 8,-0.35 C 7.866667,-0.41666666 7.7000003,-0.8833333 7.5,-1.75 l -0.35,-1.4 -0.7,0.1 C 6.1166663,-2.7833333 6.0166664,-2.5 6.15,-2.2 l 0.15,0.3 0.95,1.4 c -0.633333,0.26666668 -1.0666666,0.33333334 -1.3,0.2 L 5.2,-1.45 C 5.1,-1.5833334 5.0833335,-1.8166667 5.15,-2.15 L 5.2,-3.05 C 5.1,-3.3166666 4.3166666,-3.7166667 2.85,-4.25 l -2.4,-0.8 C 0.11666665,-5.3833337 -0.03333336,-6.266667 0,-7.7 c 0.03333333,-1.266667 0.11666668,-2.1 0.25,-2.5 0.13333333,-0.333333 0.6333333,-0.633333 1.5,-0.9 L 2.3,-11.25 1.75,-11.4 c -0.6333333,-0.1 -1,-0.366666 -1.1,-0.8 L 0.6,-12.35 z m 8.95,10 0,0.05 z m -7.9,-11.35 0.05,0 z m 5.8,7.65 -1.7,-3.75 C 5.783333,-10.133333 5.7,-10.283333 5.5,-10.25 l -0.7,0 c -0.4666665,-0.06667 -0.8166667,-0.2 -1.05,-0.4 -0.2333333,-0.199999 -0.4333334,-0.516666 -0.6,-0.95 L 3,-12.2 c -0.2,0.566667 -0.016667,1.2 0.55,1.9 0.066667,0.833333 0.4166667,1.383333 1.05,1.65 l 0.9,0.15 1.6,2.45 0.35,0 z M -7.75,-9.4 c 1.5666666,-3.5 4.05,-5.449999 7.45,-5.85 -0.2,0.3 -0.21666665,0.900001 -0.05,1.8 0.16666668,0.833333 0.40000001,1.566667 0.7,2.2 -0.7,0.133333 -1.08333335,1.166667 -1.15,3.1 -0.0666667,1.8000006 0.0833333,2.966667 0.45,3.5 0.36666668,0.533333 1.2166667,0.8499998 2.55,0.95 -0.9333333,0.6 -0.85,1.9333335 0.25,4 1.3333333,2.5666668 1.9,4.4333336 1.7,5.6 L 3.4,4.1 C 2.8,3.1 2.1333332,2.2666664 1.4,1.6 0.76666665,1.0666666 -0.9000001,0.36666662 -3.6,-0.5 c -2.4666666,-0.7666667 -4.3333334,-1.8833332 -5.6,-3.35 0.166667,-1.9 0.650001,-3.75 1.45,-5.55 z m 4.45,-1.1 1.75,-2.4 -0.7,0 c -0.5666666,0.06667 -1.15,0.25 -1.75,0.55 l -0.5,1.65 c -0.266667,1.266667 -0.25,2.35 0.05,3.25 0.5,1.466667 1.25,2.666667 2.25,3.6 -1.566667,-2.3666667 -1.9333337,-4.583333 -1.1,-6.65 z m -6,18.3 18.95,0 -0.9,1.85 -0.6,1.1 -16,0 -0.6,-1.1 L -9.3,7.8 z"
           id="path3743"
           style="fill:#000000;stroke-linecap:round;stroke-linejoin:round" />
        <path
           d="m -6.8,-15.7 c 2.2666667,-2.566666 5.0166667,-3.85 8.25,-3.85 l 0.2,0 c 2.1666666,0.06667 3.8166667,0.783334 4.95,2.15 1.0000004,1.166666 1.5,2.683333 1.5,4.55 l 0,0.65 0.5,1.05 3.35,0 0,13.6 c 0,2.3333333 -0.8,4.9833334 -2.4,7.95 -2.1,3.833334 -5.016667,6.816667 -8.75,8.95 l -0.2,0.25 -0.9,0 -0.2,-0.25 C -4.2333336,17.216667 -7.1500006,14.233334 -9.25,10.4 -10.883333,7.433333 -11.7,4.783333 -11.7,2.45 l 0,-13.6 2.2,0 1.65,-2.6 -0.3,-0.3 1.35,-1.65 z m 10.9,1.65 c 0.6333336,0.3 1.3,0.8 2,1.5 0,-1.3 -0.3333336,-2.366667 -1,-3.2 -0.733333,-0.866667 -1.85,-1.333334 -3.35,-1.4 -2.60000014,-0.03333 -4.8833334,1.033331 -6.85,3.2 l -0.6,0.7 c 0.933333,-0.866667 2.0833332,-1.616667 3.45,-2.25 1.4333334,-0.6 2.5833335,-0.616667 3.45,-0.05 0.5333333,0.333333 0.8666666,0.783333 1,1.35 l 0.6,-0.1 1.3,0.25 z M 0,-15.1 l 0.6,2.75 0.05,0.15 c 0.1,0.433334 0.4666667,0.7 1.1,0.8 l 0.55,0.15 -0.55,0.15 c -0.8666667,0.266667 -1.36666667,0.566667 -1.5,0.9 -0.13333334,0.4 -0.21666668,1.233333 -0.25,2.5 -0.03333333,1.4333336 0.11666668,2.316667 0.45,2.65 l 2.4,0.8 c 1.4666666,0.5333333 2.25,0.9333334 2.35,1.2 l -0.05,0.9 c -0.066667,0.3333334 -0.05,0.5666667 0.05,0.7 l 0.75,1.15 c 0.2333334,0.13333334 0.666667,0.0666667 1.3,-0.2 L 6.3,-1.9 6.15,-2.2 C 6.0166664,-2.5 6.116666,-2.7833333 6.45,-3.05 l 0.7,-0.1 0.35,1.4 c 0.2000003,0.8666667 0.366667,1.33333334 0.5,1.4 l 0.2,0 0.95,-0.15 c 0.4,-0.1333333 0.533333,-0.7333333 0.4,-1.8 0.133333,-0.033333 0.2,-0.3166666 0.2,-0.85 L 6.1,-11.35 C 5.7333336,-11.95 5.05,-12.5 4.05,-13 3.0833333,-13.5 2.2999997,-13.733334 1.7,-13.7 L 1.6,-13.75 0,-15.1 z m 9.55,12.8 0,-0.05 z m -7.85,-11.4 -0.05,0 z m 4.05,3.9 1.7,3.75 -0.35,0 L 5.5,-8.5 4.6,-8.65 C 3.9666667,-8.916667 3.6166668,-9.466667 3.55,-10.3 2.9833333,-11 2.8,-11.633333 3,-12.2 l 0.15,0.6 c 0.1666668,0.433333 0.366667,0.75 0.6,0.95 0.2333333,0.2 0.5833335,0.333333 1.05,0.4 l 0.7,0 c 0.2000003,-0.03333 0.283334,0.116666 0.25,0.45 z m -6.05,-5.45 c -3.4,0.400001 -5.8833334,2.35 -7.45,5.85 -0.8,1.8000006 -1.283334,3.6500005 -1.45,5.55 1.2666666,1.4666668 3.1333334,2.5833335 5.6,3.35 2.6999999,0.86666667 4.36666665,1.5666666 5,2.1 0.7333332,0.6666667 1.4,1.5 2,2.5 L 4.15,5.9 C 4.35,4.7333336 3.7833333,2.8666668 2.45,0.3 1.3499999,-1.7666667 1.2666665,-3.1 2.2,-3.7 0.8666667,-3.8 0.01666665,-4.116667 -0.35,-4.65 c -0.36666664,-0.5333334 -0.5166667,-1.7 -0.45,-3.5 0.0666667,-1.933333 0.44999998,-2.966667 1.15,-3.1 -0.30000002,-0.633333 -0.53333335,-1.366667 -0.7,-2.2 -0.16666665,-0.9 -0.15,-1.500001 0.05,-1.8 z m -1.25,2.35 -1.75,2.4 c -0.833333,2.066667 -0.4666667,4.2833333 1.1,6.65 -1,-0.9333333 -1.75,-2.1333336 -2.25,-3.6 -0.3,-0.9 -0.316667,-1.983333 -0.05,-3.25 l 0.5,-1.65 c 0.6000001,-0.300001 1.1833334,-0.483334 1.75,-0.55 l 0.7,0 z m 11.2,20.7 -18.95,0 0.85,1.85 0.6,1.1 16,0 0.6,-1.1 0.9,-1.85 z"
           id="path3745"
           style="fill:#ffffff;stroke-linecap:round;stroke-linejoin:round" />
      </g>
    </g>
  </g>
</svg>
