<?xml version="1.0" encoding="UTF-8" standalone="no"?>
<!-- Created with Inkscape (http://www.inkscape.org/) -->

<svg
   xmlns:dc="http://purl.org/dc/elements/1.1/"
   xmlns:cc="http://creativecommons.org/ns#"
   xmlns:rdf="http://www.w3.org/1999/02/22-rdf-syntax-ns#"
   xmlns:svg="http://www.w3.org/2000/svg"
   xmlns="http://www.w3.org/2000/svg"
   version="1.1"
   width="26.875"
   height="38.700001"
   viewBox="0 0 26.875 38.700001"
   id="svg3828"
   style="overflow:visible">
  <metadata
     id="metadata3846">
    <rdf:RDF>
      <cc:Work
         rdf:about="">
        <dc:format>image/svg+xml</dc:format>
        <dc:type
           rdf:resource="http://purl.org/dc/dcmitype/StillImage" />
        <dc:title></dc:title>
      </cc:Work>
    </rdf:RDF>
  </metadata>
  <defs
     id="defs3830" />
  <g
     transform="translate(13.425,19.35)"
     id="g3834">
    <g
       id="g3836">
      <g
         id="g3838">
        <path
           d="m 1.7,-15.65 0.75,0.35 0.85,0.8 c 0.1666667,0.666667 0.4,1.183333 0.7,1.55 l 1.75,1.6 c 1.033334,0.966667 1.533334,1.616667 1.5,1.95 0.266667,0.566667 0.616667,0.866667 1.05,0.9 l 0.4,0.05 1.15,-0.1 c 0.5,0.4 0.516667,0.833334 0.05,1.3 -0.033333,0.7000003 -0.216667,1.166667 -0.55,1.4 l -0.9,0.3 C 8.283333,-4.85 8.066667,-4.5 7.8,-4.5 L 7.65,-5.05 7.4,-5.35 6.75,-5.2 6.3,-4.8 c -0.3,0.3333333 -0.2833336,0.9000001 0.05,1.7 0,0.1333333 0.2166666,0.2 0.65,0.2 l 0.2,0 c 0.066667,0.1666667 -0.133333,0.3166667 -0.6,0.45 l 0.15,0.5 c -0.066667,0.2333333 -0.4,0.35 -1,0.35 L 5.25,-1.7 C 5.0499997,-1.7666667 4.6166663,-2.05 3.95,-2.55 l -1.2,-0.8 -1.05,0.4 -0.75,0.75 1.3,3.8 C 1.4166666,1.2333333 0.5166666,0.6666666 -0.45,-0.1 c -1.9666667,-1.5333336 -3.3,-3.266667 -4,-5.2 l -1.7,-4.05 c -1.266667,-3.100001 -2.983333,-5.25 -5.15,-6.45 l 0,-0.15 2.3,-0.25 2.35,0.15 -1.4,-0.95 -0.05,-0.15 1.3,-0.15 c 1.6333335,0 3.3833335,0.450002 5.25,1.35 0.4666667,-0.6 1.05000012,-0.899998 1.75,-0.9 L 1,-16.7 c 0.4666667,0.266668 0.7,0.616668 0.7,1.05 z m 6.1,11.15 -0.05,0 z M 2.75,-3.35 2.7,-3.4 z M 0.7,-13.95 c -0.2,-0.633333 -0.23333333,-1.233333 -0.1,-1.8 0.1,-0.333334 -0.1166667,-0.5 -0.65,-0.5 -0.5333334,0.06667 -0.85000004,0.283334 -0.95,0.65 -0.1999999,0.6 -0.1666666,1.3 0.1,2.1 0.0333333,0.2 0.2333333,0.3 0.6,0.3 l 0.75,-0.2 0.25,-0.55 z m -0.75,-2.3 -0.05,0 z m 4.4,1.5 c -0.1666666,-0.633333 -0.75,-1.2 -1.75,-1.7 -0.2000001,-0.433333 -0.5833333,-0.833333 -1.15,-1.2 -1.1000001,-0.466667 -2.18333347,-0.316667 -3.25,0.45 -1.6333334,-0.766667 -3.3000004,-1.15 -5,-1.15 l -1.55,0.15 c -0.5,0.133332 -0.783333,0.45 -0.85,0.95 l -2.4,0.3 c -0.533333,0.133332 -0.8,0.45 -0.8,0.95 -0.06667,0.466666 0.116667,0.833333 0.55,1.1 l 1.95,1.55 -2.1,0 0,14.05 c 0,2.4000001 0.833333,5.1333335 2.5,8.2 2.133333,3.933334 5.116667,7.000002 8.95,9.2 l 0.25,0.25 1.05,0 L 1,18.1 c 3.8333335,-2.2 6.8166666,-5.266668 8.95,-9.2 1.666667,-3.066667 2.5,-5.8000003 2.5,-8.2 l 0,-14.05 -7.35,0 -0.25,-0.25 c -0.266667,-0.333333 -0.4333335,-0.716667 -0.5,-1.15 z M -1.9,-18.3 c 1.2333334,-0.733333 2.4833334,-0.816667 3.75,-0.25 l 1.5,1.35 c 1.1,0.633332 1.75,1.383332 1.95,2.25 l 0.25,0.6 7.9,0 0,15.05 c 0,2.5 -0.850001,5.35 -2.55,8.55 -2.233334,4.133333 -5.333334,7.35 -9.3,9.65 l -0.45,0.45 -1.85,0 -0.45,-0.45 C -5.116667,16.6 -8.216667,13.383333 -10.45,9.25 -12.15,6.0499997 -13,3.1999996 -13,0.7 l 0,-15.05 0.2,0 c -0.5,-0.566667 -0.7,-1.166666 -0.6,-1.8 0.1,-0.933332 0.616666,-1.516666 1.55,-1.75 l 1.95,-0.35 c 0.333333,-0.5 0.766667,-0.8 1.3,-0.9 l 1.8,-0.2 c 1.666667,0 3.3000002,0.35 4.9,1.05 z m 8.15,8.05 -1.45,0.3 c -0.7,0.2 -1.0500002,0.333333 -1.05,0.4 l 1.35,0.45 0.4,0.4 0.35,0.9 -0.1,1 L 6,-6.45 6.1,-6.6 c 0.266667,-0.533333 0.3500003,-1.0666665 0.25,-1.6 l 0,-0.5 0.05,-0.15 0.1,-0.65 -0.1,-0.7 -0.15,-0.05 z m 5.1,8.15 0,2.8 L 11.1,2.8 0.35,13.5 -10.4,2.7 l -0.25,-2 0,-2.9 11,11.05 11,-10.95 z"
           id="path3840"
           style="fill:#000000;stroke-linecap:round;stroke-linejoin:round" />
        <path
           d="M 2.45,-15.3 1.7,-15.65 c 0,-0.433332 -0.2333333,-0.783332 -0.7,-1.05 l -0.8,-0.15 c -0.70000006,0 -1.2833335,0.3 -1.75,0.9 -1.8666665,-0.899998 -3.6166665,-1.35 -5.25,-1.35 l -1.3,0.15 0.05,0.15 1.4,0.95 -2.35,-0.15 -2.3,0.25 0,0.15 c 2.166667,1.2 3.8833335,3.349999 5.15,6.45 l 1.7,4.05 c 0.7,1.9333332 2.0333333,3.6666667 4,5.2 0.9666667,0.7666666 1.8666667,1.3333333 2.7,1.7 l -1.3,-3.8 0.75,-0.75 1,-0.45 1.25,0.85 c 0.666667,0.5 1.1,0.7833333 1.3,0.85 l 0.5,0.1 c 0.6,0 0.9333334,-0.1166667 1,-0.35 L 6.6,-2.45 C 7.0666666,-2.5833335 7.2666664,-2.7333336 7.2,-2.9 L 7,-2.9 C 6.5666666,-2.9 6.35,-2.9666667 6.35,-3.1 6.0166664,-3.9 6,-4.4666667 6.3,-4.8 l 0.45,-0.4 0.65,-0.15 0.25,0.3 0.1,0.55 c 0.3,0 0.533334,-0.35 0.7,-1.05 l 0.9,-0.3 c 0.333333,-0.233333 0.516667,-0.6999997 0.55,-1.4 0.466667,-0.4666667 0.45,-0.9 -0.05,-1.3 L 8.7,-8.45 8.3,-8.5 C 7.866667,-8.533334 7.516667,-8.833334 7.25,-9.4 7.2833333,-9.733333 6.7833333,-10.383333 5.75,-11.35 L 4,-12.95 C 3.7,-13.316667 3.4666667,-13.833333 3.3,-14.5 l -0.85,-0.8 z m 5.3,10.8 0.05,0 z M 2.7,-3.4 2.75,-3.35 z M 0.6,-15.75 c -0.13333333,0.566667 -0.1,1.166667 0.1,1.8 l -0.25,0.55 -0.75,0.2 c -0.3666667,0 -0.5666667,-0.1 -0.6,-0.3 -0.2666666,-0.8 -0.2999999,-1.5 -0.1,-2.1 0.1,-0.366666 0.4,-0.583332 0.9,-0.65 0.56666673,0 0.80000005,0.166666 0.7,0.5 z m -0.7,-0.5 0.05,0 z m 2.7,-0.2 c 1,0.5 1.5833334,1.066667 1.75,1.7 0.066667,0.433333 0.233333,0.816667 0.5,1.15 l 0.25,0.25 7.35,0 0,14.05 c 0,2.4000001 -0.833333,5.1333335 -2.5,8.2 C 7.8166666,12.833334 4.833333,15.900002 1,18.1 l -0.25,0.25 -1.05,0 -0.25,-0.25 C -4.3833337,15.9 -7.366667,12.833332 -9.5,8.9 -11.166667,5.833333 -12,3.0999997 -12,0.7 l 0,-14.05 2.1,0 -1.95,-1.55 c -0.433334,-0.266667 -0.616667,-0.633334 -0.55,-1.1 0,-0.5 0.266667,-0.816668 0.8,-0.95 l 2.4,-0.3 c 0.066667,-0.5 0.35,-0.816668 0.85,-0.95 l 1.55,-0.15 c 1.7,0 3.3666668,0.383333 5,1.15 1.06666665,-0.766667 2.15000002,-0.916667 3.25,-0.45 0.5666667,0.366667 0.9499999,0.766667 1.15,1.2 z m 2.2,6.5 1.45,-0.3 0.15,0.05 0.1,0.7 -0.1,0.65 -0.05,0.15 0,0.5 c 0.1,0.5333335 0.016666,1.066667 -0.25,1.6 L 6,-6.45 5.75,-6.8 5.85,-7.8 5.5,-8.7 5.1,-9.1 3.75,-9.55 c 0,-0.066667 0.35,-0.2 1.05,-0.4 z m 6.55,10.65 0,-2.8 -11,10.95 -11,-11.05 0,2.9 0.25,2 L 0.35,13.5 11.1,2.8 11.35,0.7 z"
           id="path3842"
           style="fill:#ffffff;stroke-linecap:round;stroke-linejoin:round" />
      </g>
    </g>
  </g>
</svg>
