<!--version="1.0" encoding="UTF-8"--><svg version="1.1" id="Layer_1" xmlns="http://www.w3.org/2000/svg" width="27" height="39" xml:space="preserve"><g id="PathID_4" transform="matrix(1, 0, 0, 1, 13.45, 19.35)"><path style="fill: rgb(0, 0, 0); fill-opacity: 1;" d="M.2-16.85q-1.05 0-1.75.9-2.8-1.35-5.25-1.35l-1.3.15.05.15 1.4.95L-9-16.2l-2.3.25v.15q3.25 1.8 5.15 6.45l1.7 4.05q1.05 2.9 4 5.2Q1 1.05 2.25 1.6L.95-2.2l.75-.75 1-.45.05.05 1.2.8q1 .75 1.3.85l.5.1q.9 0 1-.35l-.15-.5q.7-.2.6-.45H7q-.65 0-.65-.2-.5-1.2-.05-1.7l.45-.4.65-.15.25.3.1.55h.05q.4 0 .65-1.05l.9-.3q.5-.35.55-1.4.7-.7-.05-1.3l-1.15.1-.4-.05q-.65-.05-1.05-.9.05-.5-1.5-1.95L4-12.95q-.45-.55-.7-1.55l-.85-.8-.75-.35q0-.65-.7-1.05l-.8-.15m.25 3.45-.75.2q-.55 0-.6-.3-.4-1.2-.1-2.1.15-.55.9-.65h.05q.8 0 .65.5-.2.85.1 1.8l-.25.55m4.4-.2.25.25h7.35V.7q0 3.6-2.5 8.2-3.2 5.9-8.95 9.2l-.25.25H-.3l-.25-.25Q-6.3 14.8-9.5 8.9-12 4.3-12 .7v-14.05h2.1l-1.95-1.55q-.65-.4-.55-1.1 0-.75.8-.95l2.4-.3q.1-.75.85-.95l1.55-.15q2.55 0 5 1.15 1.6-1.15 3.25-.45.85.55 1.15 1.2 1.5.75 1.75 1.7.1.65.5 1.15m1.55 3.4.1.7-.1.65-.05.15v.5q.15.8-.25 1.6l-.1.15-.25-.35.1-1-.35-.9-.4-.4-1.35-.45q0-.1 1.05-.4l1.45-.3.15.05m4.7 13 .25-2.1v-2.8L.35 8.85l-11-11.05V.7l.25 2L.35 13.5 11.1 2.8"/><path style="fill: rgb(255, 255, 255); fill-opacity: 1;" d="M1-16.7q.7.4.7 1.05l.75.35.85.8q.25 1 .7 1.55l1.75 1.6Q7.3-9.9 7.25-9.4q.4.85 1.05.9l.4.05 1.15-.1q.75.6.05 1.3-.05 1.05-.55 1.4l-.9.3Q8.2-4.5 7.8-4.5h-.05l-.1-.55-.25-.3-.65.15-.45.4q-.45.5.05 1.7 0 .2.65.2h.2q.1.25-.6.45l.15.5q-.1.35-1 .35l-.5-.1q-.3-.1-1.3-.85l-1.2-.8-.05-.05-1 .45-.75.75 1.3 3.8Q1 1.05-.45-.1q-2.95-2.3-4-5.2l-1.7-4.05Q-8.05-14-11.3-15.8v-.15l2.3-.25 2.35.15-1.4-.95-.05-.15 1.3-.15q2.45 0 5.25 1.35.7-.9 1.75-.9l.8.15m-.3 2.75q-.3-.95-.1-1.8.15-.5-.65-.5H-.1q-.75.1-.9.65-.3.9.1 2.1.05.3.6.3l.75-.2.25-.55m3.65-.8q-.25-.95-1.75-1.7-.3-.65-1.15-1.2-1.65-.7-3.25.45-2.45-1.15-5-1.15l-1.55.15q-.75.2-.85.95l-2.4.3q-.8.2-.8.95-.1.7.55 1.1l1.95 1.55H-12V.7q0 3.6 2.5 8.2 3.2 5.9 8.95 9.2l.25.25H.75L1 18.1q5.75-3.3 8.95-9.2 2.5-4.6 2.5-8.2v-14.05H5.1l-.25-.25q-.4-.5-.5-1.15m-1-2.45q1.65.95 1.95 2.25l.25.6h7.9V.7q0 3.75-2.55 8.55-3.35 6.2-9.3 9.65l-.45.45H-.7l-.45-.45q-5.95-3.45-9.3-9.65Q-13 4.45-13 .7v-15.05h.2q-.75-.85-.6-1.8.15-1.4 1.55-1.75l1.95-.35q.5-.75 1.3-.9l1.8-.2q2.5 0 4.9 1.05 1.85-1.1 3.75-.25l1.5 1.35m2.9 6.95-1.45.3q-1.05.3-1.05.4l1.35.45.4.4.35.9-.1 1 .25.35.1-.15q.4-.8.25-1.6v-.5l.05-.15.1-.65-.1-.7-.15-.05M.35 13.5-10.4 2.7l-.25-2v-2.9l11 11.05 11-10.95V.7l-.25 2.1L.35 13.5"/></g></svg>