<!--version="1.0" encoding="UTF-8" standalone="no"--><!-- Created with Inkscape (http://www.inkscape.org/) --><svg xmlns="http://www.w3.org/2000/svg" version="1.1" width="26.875" height="38.7" viewBox="0 0 26.875 38.7" id="svg3828" style="overflow-x: visible; overflow-y: visible;"><g transform="translate(13.425,19.35)" id="g3834"><g id="g3836"><g id="g3838"><path d="m1.7-15.65.75.35.85.8c.167.667.4 1.183.7 1.55l1.75 1.6c1.033.967 1.533 1.617 1.5 1.95.267.567.617.867 1.05.9l.4.05 1.15-.1c.5.4.517.833.05 1.3-.033.7-.217 1.167-.55 1.4l-.9.3c-.167.7-.383 1.05-.65 1.05l-.15-.55-.25-.3-.65.15-.45.4c-.3.333-.283.9.05 1.7 0 .133.217.2.65.2h.2c.067.167-.133.317-.6.45l.15.5c-.067.233-.4.35-1 .35l-.5-.1c-.2-.067-.633-.35-1.3-.85l-1.2-.8-1.05.4-.75.75 1.3 3.8C1.417 1.233.517.667-.45-.1c-1.967-1.533-3.3-3.267-4-5.2l-1.7-4.05c-1.267-3.1-2.983-5.25-5.15-6.45v-.15l2.3-.25 2.35.15-1.4-.95-.05-.15 1.3-.15c1.633 0 3.383.45 5.25 1.35.467-.6 1.05-.9 1.75-.9l.8.15c.467.267.7.617.7 1.05zM7.8-4.5h-.05zM2.75-3.35 2.7-3.4zM.7-13.95c-.2-.633-.233-1.233-.1-1.8.1-.333-.117-.5-.65-.5-.533.067-.85.283-.95.65-.2.6-.167 1.3.1 2.1.033.2.233.3.6.3l.75-.2.25-.55zm-.75-2.3H-.1zm4.4 1.5c-.167-.633-.75-1.2-1.75-1.7-.2-.433-.583-.833-1.15-1.2-1.1-.467-2.183-.317-3.25.45-1.633-.767-3.3-1.15-5-1.15l-1.55.15c-.5.133-.783.45-.85.95l-2.4.3c-.533.133-.8.45-.8.95-.067.467.117.833.55 1.1l1.95 1.55H-12V.7c0 2.4.833 5.133 2.5 8.2 2.133 3.933 5.117 7 8.95 9.2l.25.25H.75L1 18.1c3.833-2.2 6.817-5.267 8.95-9.2 1.667-3.067 2.5-5.8 2.5-8.2v-14.05H5.1l-.25-.25a2.39 2.39 0 01-.5-1.15zM-1.9-18.3c1.233-.733 2.483-.817 3.75-.25l1.5 1.35c1.1.633 1.75 1.383 1.95 2.25l.25.6h7.9V.7c0 2.5-.85 5.35-2.55 8.55-2.233 4.133-5.333 7.35-9.3 9.65l-.45.45H-.7l-.45-.45c-3.967-2.3-7.067-5.517-9.3-9.65C-12.15 6.05-13 3.2-13 .7v-15.05h.2c-.5-.567-.7-1.167-.6-1.8.1-.933.617-1.517 1.55-1.75l1.95-.35c.333-.5.767-.8 1.3-.9l1.8-.2c1.667 0 3.3.35 4.9 1.05zm8.15 8.05-1.45.3c-.7.2-1.05.333-1.05.4l1.35.45.4.4.35.9-.1 1 .25.35.1-.15c.267-.533.35-1.067.25-1.6v-.5l.05-.15.1-.65-.1-.7-.15-.05zm5.1 8.15V.7l-.25 2.1L.35 13.5-10.4 2.7l-.25-2v-2.9l11 11.05 11-10.95z" id="path3840" style="fill: rgb(0, 0, 0); stroke-linecap: round; stroke-linejoin: round;"/><path d="m2.45-15.3-.75-.35c0-.433-.233-.783-.7-1.05l-.8-.15c-.7 0-1.283.3-1.75.9-1.867-.9-3.617-1.35-5.25-1.35l-1.3.15.05.15 1.4.95L-9-16.2l-2.3.25v.15c2.167 1.2 3.883 3.35 5.15 6.45l1.7 4.05c.7 1.933 2.033 3.667 4 5.2.967.767 1.867 1.333 2.7 1.7L.95-2.2l.75-.75 1-.45 1.25.85c.667.5 1.1.783 1.3.85l.5.1c.6 0 .933-.117 1-.35l-.15-.5c.467-.133.667-.283.6-.45H7c-.433 0-.65-.067-.65-.2-.333-.8-.35-1.367-.05-1.7l.45-.4.65-.15.25.3.1.55c.3 0 .533-.35.7-1.05l.9-.3c.333-.233.517-.7.55-1.4.467-.467.45-.9-.05-1.3l-1.15.1-.4-.05c-.433-.033-.783-.333-1.05-.9.033-.333-.467-.983-1.5-1.95L4-12.95c-.3-.367-.533-.883-.7-1.55l-.85-.8zm5.3 10.8h.05zM2.7-3.4l.05.05zM.6-15.75c-.133.567-.1 1.167.1 1.8l-.25.55-.75.2c-.367 0-.567-.1-.6-.3-.267-.8-.3-1.5-.1-2.1.1-.367.4-.583.9-.65.567 0 .8.167.7.5zm-.7-.5h.05zm2.7-.2c1 .5 1.583 1.067 1.75 1.7.067.433.233.817.5 1.15l.25.25h7.35V.7c0 2.4-.833 5.133-2.5 8.2-2.133 3.933-5.117 7-8.95 9.2l-.25.25H-.3l-.25-.25c-3.833-2.2-6.817-5.267-8.95-9.2C-11.167 5.833-12 3.1-12 .7v-14.05h2.1l-1.95-1.55c-.433-.267-.617-.633-.55-1.1 0-.5.267-.817.8-.95l2.4-.3c.067-.5.35-.817.85-.95l1.55-.15c1.7 0 3.367.383 5 1.15 1.067-.767 2.15-.917 3.25-.45.567.367.95.767 1.15 1.2zm2.2 6.5 1.45-.3.15.05.1.7-.1.65-.05.15v.5c.1.533.017 1.067-.25 1.6l-.1.15-.25-.35.1-1-.35-.9-.4-.4-1.35-.45c0-.067.35-.2 1.05-.4zM11.35.7v-2.8L.35 8.85l-11-11.05V.7l.25 2L.35 13.5 11.1 2.8l.25-2.1z" id="path3842" style="fill: rgb(255, 255, 255); stroke-linecap: round; stroke-linejoin: round;"/></g></g></g></svg>