<!--version="1.0" encoding="utf-8"--><svg version="1.1" id="Layer_1" xmlns="http://www.w3.org/2000/svg" width="33" height="42" xml:space="preserve"><g id="PathID_2" transform="matrix(1, 0, 0, 1, 16.25, 21)"><path style="fill: rgb(255, 255, 255); fill-opacity: 1;" d="m.1-17.65-.3.1-.65 1.25-.6 1.85-.7 3q-.9.75-.9 1.95l.45 1.75q-.75 1.15-.15 2.7L-4-2.95l-1 1.9-.25.2-.05.05-.5.1q-.3 0-.5-.25l-.2-.25-.35-.7q.5-.9.5-1.75 0-1.2-.9-1.95l-.7-3-.6-1.85q-.35-1.05-.65-1.25l-.15-.1h-.15l-.35.1-.65 1.25-1.1 3.8-.2 1.1-.5.65q-.8 1.45-.1 2.9-.45.85-.4 1.7v.05l.05.15.05.05 2.65 4.65.15.2.3.2.05-.05 4.75-1h.05l.35-.05 4.5-.4q3.8 0 9.25 1.4l.25.05.05.05.3-.2.15-.2 2.65-4.65.05-.05.05-.15V-.3q.1-.85-.4-1.7.7-1.45-.1-2.9l-.5-.65-.25-1.1-1.05-3.8-.65-1.25-.35-.1H9.4l-.15.1q-.3.2-.65 1.25L8-8.6l-.7 3q-.9.75-.9 1.95 0 .75.45 1.75l-.3.7-.2.25q-.2.25-.5.25-.55 0-2.35-3.6L3-5.1q.8-1.2.05-2.65L3-7.85q.7-1.45-.1-2.9l-.5-.65-1.3-4.9-.65-1.25-.35-.1M2.4-1 0 2.8-2.35-1 0-4.8 2.4-1m11.95-1.35q0 4.1-2.85 9.6Q7.55 14.85.05 19.1H0q-7.5-4.25-11.45-11.85-2.85-5.5-2.85-9.6V-19.1h28.65v16.75M0 6.5l-2.35 3.75L0 14.05l2.4-3.8L0 6.5"/><path style="fill: rgb(0, 0, 0); fill-opacity: 1;" d="m.45-17.55.65 1.25 1.3 4.9.5.65q.8 1.45.1 2.9l.05.1Q3.8-6.3 3-5.1l.5.8Q5.3-.7 5.85-.7q.3 0 .5-.25l.2-.25.3-.7q-.45-1-.45-1.75 0-1.2.9-1.95l.7-3 .6-1.85q.35-1.05.65-1.25l.15-.1h.15l.35.1.65 1.25 1.05 3.8.25 1.1.5.65q.8 1.45.1 2.9.5.85.4 1.7v.05l-.05.15-.05.05L10.1 4.6l-.15.2-.3.2-.05-.05-.25-.05Q3.9 3.5.1 3.5l-4.5.4-.35.05h-.05l-4.75 1-.05.05-.3-.2-.15-.2-2.65-4.65-.05-.05-.05-.15V-.3q-.05-.85.4-1.7-.7-1.45.1-2.9l.5-.65.2-1.1 1.1-3.8.65-1.25.35-.1h.15l.15.1q.3.2.65 1.25l.6 1.85.7 3q.9.75.9 1.95 0 .85-.5 1.75l.35.7.2.25q.2.25.5.25l.5-.1.05-.05.25-.2 1-1.9 1.25-2.1q-.6-1.55.15-2.7l-.45-1.75q0-1.2.9-1.95l.7-3 .6-1.85.65-1.25.3-.1.35.1M0-4.8-2.35-1 0 2.8 2.4-1 0-4.8m14.35-14.3H-14.3v16.75q0 4.1 2.85 9.6Q-7.5 14.85 0 19.1h.05q7.5-4.25 11.45-11.85 2.85-5.5 2.85-9.6V-19.1M16.3-2.35q0 4.5-2.95 10.25Q9.25 16 1.2 20.6l-.4.4H-.8l-.35-.4q-8-4.6-12.15-12.7-2.95-5.75-2.95-10.25V-21H16.3v18.65M2.4 10.25l-2.4 3.8-2.35-3.8L0 6.5l2.4 3.75"/></g></svg>