<!--version="1.0" encoding="UTF-8" standalone="no"--><!-- Created with Inkscape (http://www.inkscape.org/) --><svg xmlns="http://www.w3.org/2000/svg" version="1.1" width="40.8" height="42" viewBox="0 0 40.8 42" id="svg3446" style="overflow-x: visible; overflow-y: visible;"><g transform="translate(20.4,21)" id="g3452"><g id="g3454"><g id="g3456"><path d="M7.25-1.7-.7-5l7.95-3.3v6.6zM6.2-10.9l-7.95 3.25 3.3-7.95 4.65 4.7zM-11.05-21H2.2l9.35 9.35V1.6L8.9 4.25l1.05.55c1.233.667 2.1 1 2.6 1 .433 0 1.167-.317 2.2-.95 1.7-1 3-1.5 3.9-1.5l1.75.15-.1 8h.1l-.1 7.1-1.75-.05c-.433.033-1.167.367-2.2 1-1.5.967-2.783 1.45-3.85 1.45-.833 0-1.65-.2-2.45-.6l-2.6-1.35-1.5-.5c-.467 0-1.233.333-2.3 1C2.15 20.517.883 21-.15 21c-.967 0-2.317-.467-4.05-1.4-1.2-.7-2.05-1.05-2.55-1.05-.4 0-1.167.333-2.3 1-1.533.967-2.817 1.45-3.85 1.45-.767 0-1.583-.2-2.45-.6l-2.6-1.35-1.1-.45-1.1-.25V3.05l1.6.45-1.85-1.9v-13.25l9.35-9.35zM1.6-19.5h-12l-8.45 8.5V1l6.3 6.3-.25.05c-.667 0-1.783-.417-3.35-1.25A16.978 16.978 0 00-18.6 5v4.2l1.4.55 2.55 1.35 1.8.4c.8 0 1.817-.4 3.05-1.2l1.6-.85h3.05l1.7.85c1.5.8 2.617 1.2 3.35 1.2.767 0 1.767-.4 3-1.2C4.233 9.467 5.267 9.05 6 9.05c.533 0 1.267.233 2.2.7l2.5 1.35 1.85.4c.733 0 1.75-.4 3.05-1.2 1.333-.833 2.367-1.25 3.1-1.25l.15.05V4.9h-.15c-.667 0-1.7.4-3.1 1.2-1.367.833-2.383 1.25-3.05 1.25-.633 0-1.733-.417-3.3-1.25-1.4-.767-2.433-1.167-3.1-1.2L10.1 1v-12l-8.5-8.5zm-2.65 2.85L-4.4-8.7l-3.25-7.95h6.6zm-15 8.3L-8.1-5l-7.95 3.25v-6.6zm9.05.7-7.95-3.3 4.65-4.65L-7-7.65zm.3 12.55H-7l2.6-6.2 3.3 7.95h-1.3l-1.05-.55c-1.5-.8-2.583-1.2-3.25-1.2zM-14.95.85-7-2.4l-3.3 7.95-4.65-4.7zM-18.6 13v4.15l1.4.55 2.55 1.35 1.8.45c.8 0 1.817-.417 3.05-1.25 1.367-.8 2.4-1.2 3.1-1.2.733 0 1.817.4 3.25 1.2 1.467.833 2.583 1.25 3.35 1.25.767 0 1.767-.417 3-1.25 1.367-.8 2.4-1.2 3.1-1.2.6 0 1.333.217 2.2.65l2.5 1.35 1.85.45c.767 0 1.783-.417 3.05-1.25 1.367-.8 2.4-1.2 3.1-1.2h.15v-4.2h-.15c-.7 0-1.733.417-3.1 1.25-1.3.8-2.317 1.2-3.05 1.2-.7 0-1.8-.4-3.3-1.2-1.467-.833-2.55-1.25-3.25-1.25-.7 0-1.733.417-3.1 1.25-1.233.8-2.233 1.2-3 1.2-.733 0-1.85-.4-3.35-1.2-1.467-.833-2.55-1.25-3.25-1.25-.7 0-1.733.417-3.1 1.25-1.233.8-2.233 1.2-3 1.2-.733 0-1.85-.4-3.35-1.2-.933-.567-1.75-.933-2.45-1.1zM1.5 5.55-1.8-2.4 6.15.9 1.5 5.55z" id="path3458" style="fill: rgb(0, 0, 0); stroke-linecap: round; stroke-linejoin: round;"/><path d="m-.7-5 7.95 3.3v-6.6L-.7-5zm-1.05-2.65L6.2-10.9l-4.65-4.7-3.3 7.95zM-10.4-19.5h12l8.5 8.5V1L6.15 4.9c.667.033 1.7.433 3.1 1.2 1.567.833 2.667 1.25 3.3 1.25.667 0 1.683-.417 3.05-1.25 1.4-.8 2.433-1.2 3.1-1.2h.15v4.2l-.15-.05c-.733 0-1.767.417-3.1 1.25-1.3.8-2.317 1.2-3.05 1.2l-1.85-.4-2.5-1.35c-.933-.467-1.667-.7-2.2-.7-.733 0-1.767.417-3.1 1.25-1.233.8-2.233 1.2-3 1.2-.733 0-1.85-.4-3.35-1.2l-1.7-.85H-8.2l-1.6.85c-1.233.8-2.25 1.2-3.05 1.2l-1.8-.4-2.55-1.35-1.4-.55V5c.767.267 1.583.633 2.45 1.1 1.567.833 2.683 1.25 3.35 1.25l.25-.05-6.3-6.3v-12l8.45-8.5zm6 10.8 3.35-7.95h-6.6L-4.4-8.7zM-8.1-5l-7.95-3.35v6.6L-8.1-5zm-6.85-5.95L-7-7.65l-3.3-7.95-4.65 4.65zM-7 4.9h.3c.667 0 1.75.4 3.25 1.2l1.05.55h1.3L-4.4-1.3-7 4.9zm0-7.3L-14.95.85l4.65 4.7L-7-2.4zm-11.6 19.55V13c.7.167 1.517.533 2.45 1.1 1.5.8 2.617 1.2 3.35 1.2.767 0 1.767-.4 3-1.2 1.367-.833 2.4-1.25 3.1-1.25.7 0 1.783.417 3.25 1.25 1.5.8 2.617 1.2 3.35 1.2.767 0 1.767-.4 3-1.2 1.367-.833 2.4-1.25 3.1-1.25.7 0 1.783.417 3.25 1.25 1.5.8 2.6 1.2 3.3 1.2.733 0 1.75-.4 3.05-1.2 1.367-.833 2.4-1.25 3.1-1.25h.15v4.2h-.15c-.7 0-1.733.4-3.1 1.2-1.267.833-2.283 1.25-3.05 1.25l-1.85-.45-2.5-1.35c-.867-.433-1.6-.65-2.2-.65-.7 0-1.733.4-3.1 1.2-1.233.833-2.233 1.25-3 1.25-.767 0-1.883-.417-3.35-1.25-1.433-.8-2.517-1.2-3.25-1.2-.7 0-1.733.4-3.1 1.2-1.233.833-2.25 1.25-3.05 1.25l-1.8-.45-2.55-1.35-1.4-.55zM-1.8-2.4l3.3 7.95L6.15.9-1.8-2.4z" id="path3460" style="fill: rgb(59, 129, 247); stroke-linecap: round; stroke-linejoin: round;"/></g></g></g></svg>