<svg xmlns="http://www.w3.org/2000/svg" version="1.1" xmlns:xlink="http://www.w3.org/1999/xlink" width="512" height="512" x="0" y="0" viewBox="0 0 511.999 511.999" style="enable-background:new 0 0 512 512" xml:space="preserve" class=""><g><path fill="#e7e6ef" d="M307.144 74.057H204.856c-9.562 0-17.313 7.694-17.313 17.186 0 9.491 7.751 17.186 17.313 17.186h102.288c9.562 0 17.313-7.694 17.313-17.186-.001-9.491-7.752-17.186-17.313-17.186z" opacity="1" data-original="#e7e6ef" class=""></path><path fill="#d0cee7" d="M307.144 74.058h-30c9.562 0 17.313 7.694 17.313 17.186s-7.751 17.186-17.313 17.186h30c9.562 0 17.313-7.694 17.313-17.186s-7.752-17.186-17.313-17.186z" opacity="1" data-original="#d0cee7"></path><path fill="#515151" d="M289.831 7.5h-67.662c-9.562 0-17.313 7.694-17.313 17.186v49.372h102.288V24.686c0-9.492-7.752-17.186-17.313-17.186z" opacity="1" data-original="#e19974" class=""></path><path fill="#363636" d="M289.831 7.5h-30c9.562 0 17.313 7.694 17.313 17.186v49.372h30V24.686c0-9.492-7.752-17.186-17.313-17.186z" opacity="1" data-original="#dc8758" class=""></path><path fill="#f9f6f6" d="M308.239 164.436v-56.008H205.951v55.189c0 5.042-3.153 9.547-7.893 11.266-65.605 23.802-112.384 86.862-111.935 160.792.57 93.864 78.064 169.92 171.923 168.812 92.879-1.097 167.833-76.729 167.833-169.867 0-72.701-45.673-134.724-109.887-158.969a11.987 11.987 0 0 1-7.753-11.215z" opacity="1" data-original="#f9f6f6" class=""></path><path fill="#e7e6ef" d="M315.993 175.651a11.987 11.987 0 0 1-7.754-11.215v-56.008h-30v56.008c0 4.988 3.087 9.453 7.754 11.215C350.207 199.896 395.88 261.92 395.88 334.62c0 88.741-68.043 161.587-154.802 169.218 5.587.493 11.247.717 16.969.649 92.879-1.097 167.833-76.729 167.833-169.867-.001-72.7-45.673-134.724-109.887-158.969z" opacity="1" data-original="#e7e6ef" class=""></path><path fill="#ff4545" d="M155.448 237.413c5.593-5.76 14.146-7.605 21.555-4.514 9.828 4.1 14.742 11.101 31.526 11.101 23.73 0 23.73-14 47.46-14 23.74 0 23.74 14 47.47 14 16.82 0 21.718-7.035 31.598-11.129 7.442-3.084 16.01-1.198 21.6 4.604a141.74 141.74 0 0 1 11.882 14.065c17.632 23.822 27.066 52.073 27.334 81.776.691 76.516-60.992 139.889-137.501 141.164-78.212 1.303-142.253-61.941-142.253-139.86 0-30.51 9.64-59.5 27.89-83.83a139.574 139.574 0 0 1 11.439-13.377z" opacity="1" data-original="#95d6a4" class=""></path><path fill="#ff2222" d="M368.54 251.54a141.74 141.74 0 0 0-11.882-14.065c-5.59-5.801-14.157-7.688-21.6-4.604-3.16 1.31-5.811 2.919-8.504 4.504.034.034.07.065.104.1a141.855 141.855 0 0 1 11.882 14.065c17.632 23.822 27.066 52.073 27.334 81.776.653 72.268-54.338 132.801-124.905 140.375 5.708.612 11.515.887 17.404.789 76.509-1.275 138.192-64.648 137.501-141.164-.268-29.703-9.702-57.954-27.334-81.776z" opacity="1" data-original="#78c2a4" class=""></path><g fill="#b3e59f"><circle cx="198.408" cy="327.595" r="20.099" fill="#ff0000" opacity="1" data-original="#b3e59f" class=""></circle><circle cx="262.998" cy="408.049" r="15.923" fill="#ff0000" opacity="1" data-original="#b3e59f" class=""></circle></g><path d="M374.57 247.08a150.004 150.004 0 0 0-12.511-14.81c-7.826-8.122-19.552-10.606-29.872-6.328-3.398 1.408-6.15 3.031-8.812 4.601-5.644 3.328-10.102 5.957-19.916 5.957-9.816 0-14.274-2.63-19.918-5.959-6.391-3.769-13.633-8.041-27.552-8.041-13.913 0-21.153 4.271-27.541 8.04-5.645 3.33-10.102 5.96-19.919 5.96-9.82 0-14.278-2.63-19.922-5.96-2.636-1.556-5.36-3.163-8.718-4.563-10.286-4.293-21.993-1.854-29.823 6.212a147.17 147.17 0 0 0-12.058 14.102c-19.227 25.632-29.39 56.177-29.39 88.33 0 80.358 68.198 148.721 149.878 147.359 40.35-.673 77.796-17.455 105.441-47.257a7.5 7.5 0 0 0-.397-10.599 7.499 7.499 0 0 0-10.599.397c-24.841 26.776-58.471 41.856-94.695 42.46-74.155 1.235-134.628-58.741-134.628-132.361 0-28.882 9.125-56.314 26.387-79.326a132.045 132.045 0 0 1 10.822-12.656c3.454-3.56 8.796-4.691 13.287-2.817 2.401 1.002 4.571 2.282 6.869 3.638 6.389 3.77 13.629 8.042 27.545 8.042 13.912 0 21.152-4.271 27.54-8.04 5.645-3.33 10.103-5.96 19.92-5.96 9.824 0 14.284 2.631 19.931 5.961 6.388 3.769 13.629 8.039 27.539 8.039 13.908 0 21.148-4.27 27.536-8.037 2.317-1.366 4.507-2.657 6.934-3.663 4.515-1.868 9.868-.711 13.327 2.878a134.982 134.982 0 0 1 11.255 13.324c16.665 22.516 25.608 49.273 25.862 77.382a131.96 131.96 0 0 1-16.08 64.258 7.5 7.5 0 0 0 2.99 10.176 7.498 7.498 0 0 0 10.176-2.99 146.992 146.992 0 0 0 17.914-71.578c-.281-31.298-10.242-61.096-28.802-86.171zM239.576 408.049c0 12.915 10.507 23.423 23.422 23.423s23.423-10.508 23.423-23.423-10.508-23.423-23.423-23.423-23.422 10.508-23.422 23.423zm31.845 0c0 4.645-3.778 8.423-8.423 8.423-4.644 0-8.422-3.778-8.422-8.423s3.778-8.423 8.422-8.423 8.423 3.778 8.423 8.423zm-100.612-80.454c0 15.218 12.381 27.599 27.599 27.599s27.599-12.381 27.599-27.599-12.381-27.599-27.599-27.599-27.599 12.381-27.599 27.599zm40.198 0c0 6.947-5.651 12.599-12.599 12.599s-12.599-5.651-12.599-12.599 5.651-12.599 12.599-12.599 12.599 5.651 12.599 12.599zm107.634-158.96a4.51 4.51 0 0 1-2.902-4.198V114.4c9.458-3.486 16.218-12.55 16.218-23.157 0-11.012-7.286-20.36-17.313-23.53V24.686C314.643 11.074 303.513 0 289.831 0h-67.662c-13.682 0-24.813 11.074-24.813 24.686v43.027c-10.027 3.17-17.313 12.519-17.313 23.53 0 11.408 7.821 21.03 18.408 23.847v48.528a4.495 4.495 0 0 1-2.95 4.215C125.138 193.361 78.169 260.83 78.624 335.722c.581 95.686 81.914 177.417 179.512 176.266 46.931-.554 90.965-19.25 123.989-52.644 33.052-33.421 51.254-77.715 51.254-124.723 0-74.098-46.011-140.049-114.738-165.986zM195.043 91.243c0-5.341 4.402-9.686 9.813-9.686h21.222c4.143 0 7.5-3.357 7.5-7.5s-3.357-7.5-7.5-7.5h-13.722V24.686c0-5.341 4.402-9.686 9.813-9.686h67.662c5.41 0 9.813 4.345 9.813 9.686v41.872h-38.565c-4.143 0-7.5 3.357-7.5 7.5s3.357 7.5 7.5 7.5h46.065c5.411 0 9.813 4.345 9.813 9.686s-4.402 9.686-9.813 9.686H204.856c-5.411-.001-9.813-4.346-9.813-9.687zM371.46 448.796c-30.232 30.57-70.541 47.686-113.502 48.193-90.256 1.067-163.791-72.068-164.334-161.359-.417-68.561 42.58-130.326 106.992-153.695 7.677-2.785 12.835-10.146 12.835-18.316V115.93h87.288v48.508c0 8.059 5.065 15.386 12.604 18.231 62.163 23.464 105.035 84.902 105.035 151.953.001 43.031-16.662 83.58-46.918 114.174z" fill="#000000" opacity="1" data-original="#000000" class=""></path></g></svg>