<?xml version="1.0"?>
<svg width="640" height="512" xmlns="http://www.w3.org/2000/svg" xmlns:svg="http://www.w3.org/2000/svg" stroke-width="4">
 <g class="layer">
  <title>Layer 1</title>
  <ellipse cx="285.73" cy="280.82" fill="#ffffff" id="svg_3" rx="152" ry="174" stroke="#000000" transform="matrix(1 0 0 1 0 0)"/>
  <path d="m525.84,225.59c3.85,-11.25 6.01,-23.55 6.01,-36.38c0,-55.72 -40.38,-100.93 -90.15,-100.93c-18.5,0 -35.78,6.31 -50.05,17.03c-26.01,-50.46 -74.56,-84.32 -130.25,-84.32c-83.01,0 -150.25,75.28 -150.25,168.21c0,2.84 0.09,5.68 0.19,8.52c-52.59,20.71 -90.34,76.85 -90.34,142.88c0,83.58 60.57,151.39 135.23,151.39l345.58,0c66.39,0 120.2,-60.24 120.2,-134.57c0,-65.08 -41.32,-119.43 -96.16,-131.84zm-135.41,64.55l-61.41,0l0,117.75c0,9.25 -6.76,16.82 -15.03,16.82l-45.08,0c-8.26,0 -15.03,-7.57 -15.03,-16.82l0,-117.75l-61.41,0c-13.43,0 -20.1,-18.08 -10.61,-28.7l98.98,-110.81c5.82,-6.52 15.4,-6.52 21.22,0l98.98,110.81c9.48,10.62 2.72,28.7 -10.61,28.7z" fill="#ffffff" id="svg_1" stroke="#000000" stroke-width="40"/>
 </g>
</svg>