<svg xmlns="http://www.w3.org/2000/svg" version="1.1" xmlns:xlink="http://www.w3.org/1999/xlink" width="512" height="512" x="0" y="0" viewBox="0 0 682.667 682.667" style="enable-background:new 0 0 512 512" xml:space="preserve" class=""><g><defs><clipPath id="a" clipPathUnits="userSpaceOnUse"><path d="M0 512h512V0H0Z" fill="#000000" opacity="1" data-original="#000000" class=""></path></clipPath></defs><g clip-path="url(#a)" transform="matrix(1.33333 0 0 -1.33333 0 682.667)"><path d="M0 0c-96.441 0-177.655 72.102-189.077 167.865l-11.689 98C-215.116 386.171-121.159 492 0 492c121.159 0 215.115-105.829 200.766-226.135l-11.689-98C177.655 72.102 96.441 0 0 0" style="fill-opacity:1;fill-rule:nonzero;stroke:none" transform="translate(256 10)" fill="#ffbd7e" data-original="#ff7e99" class="" opacity="1"></path><path d="M0 0s3.116 4.65 7.758 11.636c-36.65 38.644-88.516 63.022-146.655 63.022h-.001c-60.717 0-114.6-26.58-151.446-68.239 7.718-3.901 12.547-6.327 12.547-6.327l.001-.092c42.354 19.178 89.379 29.856 138.899 29.856C-89.379 29.856-42.354 19.178 0 0" style="fill-opacity:1;fill-rule:nonzero;stroke:none" transform="translate(394.897 427.342)" fill="#bf9d7c" data-original="#7caabf" class="" opacity="1"></path><path d="M0 0c-7.897 39.648-27.506 75.401-55.247 103.218l-4.09 1.467V90.398c0-17.147-13.9-31.047-31.047-31.047-48.558 0-87.941-39.352-87.954-87.91v-.026a105.058 105.058 0 0 0 9.557-20.459l-.013.08h35.669v11.232C-133.125-16.893-116.232 0-95.393 0h39.372z" style="fill-opacity:1;fill-rule:nonzero;stroke:none" transform="translate(454.337 339.426)" fill="#bf9d7c" data-original="#7caabf" class="" opacity="1"></path><path d="M0 0c7.897 39.648 27.506 75.401 55.247 103.218l4.09 1.467V90.398c0-17.147 13.9-31.047 31.047-31.047 48.558 0 87.941-39.352 87.954-87.91v-.026a105.058 105.058 0 0 1-9.557-20.459l.013.08h-35.669v11.232C133.125-16.893 116.232 0 95.393 0H56.021Z" style="fill-opacity:1;fill-rule:nonzero;stroke:none" transform="translate(57.663 339.426)" fill="#bf9d7c" data-original="#7caabf" class="" opacity="1"></path><path d="M0 0v0" style="stroke-width:20;stroke-linecap:round;stroke-linejoin:round;stroke-miterlimit:10;stroke-dasharray:none;stroke-opacity:1" transform="translate(256 457.198)" fill="none" stroke="#000000" stroke-width="20" stroke-linecap="round" stroke-linejoin="round" stroke-miterlimit="10" stroke-dasharray="none" stroke-opacity="" data-original="#000000" class=""></path><path d="M0 0h-129.792c-49.296-7.532-87.06-50.115-87.06-101.517l.462-2.059c34.98-45.874 90.153-75.049 151.494-75.049 61.436 0 116.686 29.265 151.658 75.261l.298 1.847C87.06-50.115 49.297-7.532 0 0" style="fill-opacity:1;fill-rule:nonzero;stroke:none" transform="translate(320.896 188.625)" fill="#bf9d7c" data-original="#7caabf" class="" opacity="1"></path><path d="M0 0v0c-96.441 0-177.655 72.102-189.077 167.865l-11.689 98C-215.116 386.171-121.159 492 0 492v0c121.159 0 215.115-105.829 200.766-226.135l-11.689-98C177.655 72.102 96.441 0 0 0Z" style="stroke-width:20;stroke-linecap:round;stroke-linejoin:round;stroke-miterlimit:10;stroke-dasharray:none;stroke-opacity:1" transform="translate(256 10)" fill="none" stroke="#000000" stroke-width="20" stroke-linecap="round" stroke-linejoin="round" stroke-miterlimit="10" stroke-dasharray="none" stroke-opacity="" data-original="#000000" class=""></path><path d="m0 0-3.873-3.288c5.548 5.62 13.457 8.903 22.117 8.244 13.772-1.048 24.879-12.312 25.75-26.097C45.023-37.429 32.118-50.96 16.051-50.96h-97.624c-15.257 0-28.154 11.962-28.572 27.213C-110.579-7.924-97.881 5.04-82.156 5.04c7.796 0 14.848-3.186 19.925-8.328L-66.104 0" style="stroke-width:20;stroke-linecap:round;stroke-linejoin:round;stroke-miterlimit:10;stroke-dasharray:none;stroke-opacity:1" transform="translate(289.052 234.742)" fill="none" stroke="#000000" stroke-width="20" stroke-linecap="round" stroke-linejoin="round" stroke-miterlimit="10" stroke-dasharray="none" stroke-opacity="" data-original="#000000" class=""></path><path d="M0 0c-2.547 0-5.134.488-7.634 1.522l-21.791 9.009a21.448 21.448 0 0 1-23.428-4.669c-7.81-7.81-20.474-7.81-28.285 0a21.446 21.446 0 0 1-23.427 4.669l-21.791-9.009c-10.208-4.22-21.905.634-26.124 10.842-4.221 10.207.633 21.904 10.84 26.123l21.792 9.009c17.484 7.229 36.831 5.964 52.853-2.764 16.023 8.727 35.369 9.994 52.853 2.764l21.791-9.009c10.207-4.219 15.062-15.916 10.841-26.123C15.304 4.655 7.853 0 0 0" style="fill-opacity:1;fill-rule:nonzero;stroke:none" transform="translate(322.995 91.589)" fill="#ffffff" data-original="#ffffff" class=""></path><path d="M0 0c-2.547 0-5.134.488-7.634 1.522l-21.791 9.009a21.448 21.448 0 0 1-23.428-4.669c-7.81-7.81-20.474-7.81-28.285 0a21.446 21.446 0 0 1-23.427 4.669l-21.791-9.009c-10.208-4.22-21.905.634-26.124 10.842-4.221 10.207.633 21.904 10.84 26.123l21.792 9.009c17.484 7.229 36.831 5.964 52.853-2.764 16.023 8.727 35.369 9.994 52.853 2.764l21.791-9.009c10.207-4.219 15.062-15.916 10.841-26.123C15.304 4.655 7.853 0 0 0Z" style="stroke-width:20;stroke-linecap:round;stroke-linejoin:round;stroke-miterlimit:10;stroke-dasharray:none;stroke-opacity:1" transform="translate(322.995 91.589)" fill="none" stroke="#000000" stroke-width="20" stroke-linecap="round" stroke-linejoin="round" stroke-miterlimit="10" stroke-dasharray="none" stroke-opacity="" data-original="#000000" class=""></path><path d="M0 0c0 51.402-37.763 93.985-87.06 101.517" style="stroke-width:20;stroke-linecap:round;stroke-linejoin:round;stroke-miterlimit:10;stroke-dasharray:none;stroke-opacity:1" transform="translate(407.956 87.108)" fill="none" stroke="#000000" stroke-width="20" stroke-linecap="round" stroke-linejoin="round" stroke-miterlimit="10" stroke-dasharray="none" stroke-opacity="" data-original="#000000" class=""></path><path d="M0 0c0 51.402 37.763 93.985 87.06 101.517" style="stroke-width:20;stroke-linecap:round;stroke-linejoin:round;stroke-miterlimit:10;stroke-dasharray:none;stroke-opacity:1" transform="translate(104.044 87.108)" fill="none" stroke="#000000" stroke-width="20" stroke-linecap="round" stroke-linejoin="round" stroke-miterlimit="10" stroke-dasharray="none" stroke-opacity="" data-original="#000000" class=""></path><path d="M0 0h-39.372c-20.839 0-37.732-16.893-37.732-37.732v-11.232h39.372C-16.893-48.964 0-32.071 0-11.232Z" style="fill-opacity:1;fill-rule:nonzero;stroke:none" transform="translate(398 339.426)" fill="#ffffff" data-original="#ffffff" class=""></path><path d="M0 0h39.372c20.839 0 37.732-16.893 37.732-37.732v-11.232H37.732C16.893-48.964 0-32.071 0-11.232Z" style="fill-opacity:1;fill-rule:nonzero;stroke:none" transform="translate(114 339.426)" fill="#ffffff" data-original="#ffffff" class=""></path><path d="M0 0h-39.372c-20.839 0-37.732-16.893-37.732-37.732v-11.232h39.372C-16.893-48.964 0-32.071 0-11.232Z" style="stroke-width:20;stroke-linecap:round;stroke-linejoin:round;stroke-miterlimit:10;stroke-dasharray:none;stroke-opacity:1" transform="translate(398 339.426)" fill="none" stroke="#000000" stroke-width="20" stroke-linecap="round" stroke-linejoin="round" stroke-miterlimit="10" stroke-dasharray="none" stroke-opacity="" data-original="#000000" class=""></path><path d="M0 0h39.372c20.839 0 37.732-16.893 37.732-37.732v-11.232H37.732C16.893-48.964 0-32.071 0-11.232Z" style="stroke-width:20;stroke-linecap:round;stroke-linejoin:round;stroke-miterlimit:10;stroke-dasharray:none;stroke-opacity:1" transform="translate(114 339.426)" fill="none" stroke="#000000" stroke-width="20" stroke-linecap="round" stroke-linejoin="round" stroke-miterlimit="10" stroke-dasharray="none" stroke-opacity="" data-original="#000000" class=""></path><path d="M0 0h50" style="stroke-width:20;stroke-linecap:round;stroke-linejoin:round;stroke-miterlimit:10;stroke-dasharray:none;stroke-opacity:1" transform="translate(398 339.426)" fill="none" stroke="#000000" stroke-width="20" stroke-linecap="round" stroke-linejoin="round" stroke-miterlimit="10" stroke-dasharray="none" stroke-opacity="" data-original="#000000" class=""></path><path d="M0 0h-50" style="stroke-width:20;stroke-linecap:round;stroke-linejoin:round;stroke-miterlimit:10;stroke-dasharray:none;stroke-opacity:1" transform="translate(114 339.426)" fill="none" stroke="#000000" stroke-width="20" stroke-linecap="round" stroke-linejoin="round" stroke-miterlimit="10" stroke-dasharray="none" stroke-opacity="" data-original="#000000" class=""></path><path d="M0 0v-14.287c0-17.146 13.9-31.046 31.046-31.046h.001c48.558 0 87.941-39.353 87.953-87.911v-.026c-9.667-15.94-15.233-34.645-15.233-54.65 0-7.349.751-14.523 2.181-21.449" style="stroke-width:20;stroke-linecap:round;stroke-linejoin:round;stroke-miterlimit:10;stroke-dasharray:none;stroke-opacity:1" transform="translate(117 444.111)" fill="none" stroke="#000000" stroke-width="20" stroke-linecap="round" stroke-linejoin="round" stroke-miterlimit="10" stroke-dasharray="none" stroke-opacity="" data-original="#000000" class=""></path><path d="M0 0v-14.287c0-17.146-13.9-31.046-31.046-31.046h-.001c-48.558 0-87.941-39.353-87.953-87.911v-.026c9.667-15.94 15.233-34.645 15.233-54.65 0-7.349-.751-14.523-2.181-21.449" style="stroke-width:20;stroke-linecap:round;stroke-linejoin:round;stroke-miterlimit:10;stroke-dasharray:none;stroke-opacity:1" transform="translate(395 444.111)" fill="none" stroke="#000000" stroke-width="20" stroke-linecap="round" stroke-linejoin="round" stroke-miterlimit="10" stroke-dasharray="none" stroke-opacity="" data-original="#000000" class=""></path><path d="M0 0v0" style="stroke-width:20;stroke-linecap:round;stroke-linejoin:round;stroke-miterlimit:10;stroke-dasharray:none;stroke-opacity:1" transform="translate(117.107 237.778)" fill="none" stroke="#000000" stroke-width="20" stroke-linecap="round" stroke-linejoin="round" stroke-miterlimit="10" stroke-dasharray="none" stroke-opacity="" data-original="#000000" class=""></path><path d="M0 0v0" style="stroke-width:20;stroke-linecap:round;stroke-linejoin:round;stroke-miterlimit:10;stroke-dasharray:none;stroke-opacity:1" transform="translate(394.893 237.778)" fill="none" stroke="#000000" stroke-width="20" stroke-linecap="round" stroke-linejoin="round" stroke-miterlimit="10" stroke-dasharray="none" stroke-opacity="" data-original="#000000" class=""></path><path d="M0 0a334.762 334.762 0 0 1-94.059-26.9" style="stroke-width:20;stroke-linecap:round;stroke-linejoin:round;stroke-miterlimit:10;stroke-dasharray:none;stroke-opacity:1" transform="translate(211.16 454.241)" fill="none" stroke="#000000" stroke-width="20" stroke-linecap="round" stroke-linejoin="round" stroke-miterlimit="10" stroke-dasharray="none" stroke-opacity="" data-original="#000000" class=""></path><path d="M0 0a334.765 334.765 0 0 1-93.997 26.892" style="stroke-width:20;stroke-linecap:round;stroke-linejoin:round;stroke-miterlimit:10;stroke-dasharray:none;stroke-opacity:1" transform="translate(394.897 427.342)" fill="none" stroke="#000000" stroke-width="20" stroke-linecap="round" stroke-linejoin="round" stroke-miterlimit="10" stroke-dasharray="none" stroke-opacity="" data-original="#000000" class=""></path><path d="M0 0v.072l-.005-.07L0 0" style="fill-opacity:1;fill-rule:nonzero;stroke:none" transform="translate(394.897 427.342)" fill="#ffffff" data-original="#ffffff" class=""></path><path d="m0 0 .006.003-.007.089Z" style="fill-opacity:1;fill-rule:nonzero;stroke:none" transform="translate(117.101 427.341)" fill="#ffffff" data-original="#ffffff" class=""></path><path d="M0 0c0-.805.041-1.601.101-2.391Z" style="fill-opacity:1;fill-rule:nonzero;stroke:none" transform="translate(117 429.824)" fill="#ffffff" data-original="#ffffff" class=""></path><path d="M0 0h35.354" style="stroke-width:20;stroke-linecap:round;stroke-linejoin:round;stroke-miterlimit:10;stroke-dasharray:none;stroke-opacity:1" transform="translate(191.104 290.462)" fill="none" stroke="#000000" stroke-width="20" stroke-linecap="round" stroke-linejoin="round" stroke-miterlimit="10" stroke-dasharray="none" stroke-opacity="" data-original="#000000" class=""></path><path d="M0 0h-35.353" style="stroke-width:20;stroke-linecap:round;stroke-linejoin:round;stroke-miterlimit:10;stroke-dasharray:none;stroke-opacity:1" transform="translate(320.896 290.462)" fill="none" stroke="#000000" stroke-width="20" stroke-linecap="round" stroke-linejoin="round" stroke-miterlimit="10" stroke-dasharray="none" stroke-opacity="" data-original="#000000" class=""></path></g></g></svg>