<svg version="1.1" xmlns="http://www.w3.org/2000/svg" xmlns:xlink="http://www.w3.org/1999/xlink" width="50px" height="50px" viewBox="0,0,255.99599,255.99599"><g fill="none" fill-rule="nonzero" stroke="none" stroke-width="none" stroke-linecap="butt" stroke-linejoin="none" stroke-miterlimit="10" stroke-dasharray="" stroke-dashoffset="0" font-family="none" font-weight="none" font-size="none" text-anchor="none" style="mix-blend-mode: normal"><path transform="scale(5.12,5.12)" d="M24.90625,2c0.03125,0 0.0625,0 0.09375,0c0.02344,0 0.03906,0 0.0625,0c0.52734,0 1.02344,0.00391 1.5,0.03125c0.01172,0 0.01953,0 0.03125,0c0.48438,0.02734 0.94141,0.07813 1.375,0.125c0.01953,0.00391 0.04297,-0.00391 0.0625,0c0.85547,0.09375 1.60156,0.21484 2.21875,0.34375c1.33203,0.27344 2.09375,0.5625 2.09375,0.5625c0.28125,0.08594 0.50781,0.29297 0.625,0.5625l1.21875,1.1875c-0.10156,1.19922 -0.1875,2.09375 -0.1875,2.09375v0.09375c0,0.19922 -0.19922,5.20703 -9,8.90625c-8.80078,-3.69922 -9,-8.70703 -9,-8.90625v-0.09375c0,0 -0.08594,-0.89453 -0.1875,-2.09375l1.25,-1.25c0.12109,-0.23828 0.33594,-0.42187 0.59375,-0.5c0,0 0.20703,-0.04687 0.46875,-0.125c0.03125,-0.01172 0.02734,-0.01953 0.0625,-0.03125c0.01563,-0.00391 0.04688,-0.02734 0.0625,-0.03125c0.32422,-0.10156 0.83203,-0.21875 1.40625,-0.34375c0.02734,-0.00781 0.0625,-0.02344 0.09375,-0.03125c0.53516,-0.11328 1.18359,-0.22266 1.90625,-0.3125c0.92578,-0.11328 1.98047,-0.17969 3.15625,-0.1875c0.03125,0 0.0625,0 0.09375,0zM14.09375,7.09375c0,0.60156 0.3125,4.09375 4.8125,7.59375c-0.80078,1.39844 -3.50781,4.91406 -8.90625,5.3125c-0.30078,-3.5 -1.99219,-6.10547 -4.59375,-6.90625c-0.19922,-0.10156 -0.50781,-0.20703 -0.90625,-0.40625c1.5,-3.69922 5.69922,-6.19531 9.5,-6.59375c0,0.5 0.09375,0.89844 0.09375,1zM45.5,12.8125c-0.39844,0.10156 -0.70703,0.17969 -0.90625,0.28125h-0.09375c-2.5,0.89844 -4.19922,3.50781 -4.5,6.90625c-5.39844,-0.39844 -8.00781,-4.01172 -8.90625,-5.3125c4.39844,-3.5 4.8125,-6.99219 4.8125,-7.59375c0,-0.10156 0.09375,-0.5 0.09375,-1c3.80078,0.5 8,3.01953 9.5,6.71875zM48,21.8125c0,0.5 -0.3125,0.89844 -0.8125,1c-1.5,0.30078 -2.69531,0.98828 -3.59375,1.6875c-0.30078,-1.30078 -0.80078,-2.61328 -1.5,-3.8125c0.10156,-3 1.3125,-5.17969 3.3125,-5.78125h0.09375c0.10156,-0.10156 0.30078,-0.11719 0.5,-0.21875c0.69922,1.5 2,4.32422 2,7.125zM4.59375,15h0.09375c2,0.60156 3.21094,2.8125 3.3125,5.8125c-0.69922,1.19922 -1.19531,2.48047 -1.59375,3.78125c-0.80078,-0.69922 -1.99219,-1.38672 -3.59375,-1.6875c-0.5,-0.10156 -0.8125,-0.5 -0.8125,-1c0,-2.89844 1.29297,-5.69531 2.09375,-7.09375c0.30078,0.10156 0.5,0.1875 0.5,0.1875zM40.40625,21.90625c1,1.69922 1.49219,3.60547 1.59375,5.40625c0.10156,3.60156 -0.51172,6.29297 -1.3125,8.09375c-2.39844,2.19922 -7.98828,5.5 -15.6875,5.5c-1.69922,0 -3.21094,-0.10547 -4.8125,-0.40625c-0.60156,-0.10156 -1.08594,0.3125 -1.1875,0.8125c-0.10156,0.60156 0.3125,1.08594 0.8125,1.1875c1.69922,0.30078 3.38672,0.5 5.1875,0.5c6.10156,0 11.19531,-1.89453 14.59375,-4.09375l1.3125,2.6875c0.10156,0.30078 0.08203,0.79297 -0.21875,1.09375c-3.10156,3.30078 -8.88672,5.3125 -15.6875,5.3125c-6.80078,0 -12.60547,-2 -15.90625,-5.5c-0.30078,-0.30078 -0.38672,-0.69531 -0.1875,-1.09375l1.40625,-2.71875c1.89844,1.10156 3.88672,2 5.1875,2.5c0.10156,0.10156 0.30469,0.125 0.40625,0.125c0.39844,0 0.70703,-0.22656 0.90625,-0.625c0.19922,-0.5 -0.125,-1.08203 -0.625,-1.28125c-2.89844,-1.19922 -5.5,-2.61328 -7,-3.8125c-0.69922,-1.80078 -1.38281,-4.48047 -1.28125,-8.28125c0.19922,-1.80078 0.59375,-3.70703 1.59375,-5.40625c6.60156,-0.19922 9.80469,-4.29297 10.90625,-6.09375c1.19922,0.69922 2.58594,1.39453 4.1875,2.09375c0.10156,0.10156 0.30469,0.09375 0.40625,0.09375c0.10156,0 0.30469,0.01172 0.40625,-0.1875c1.60156,-0.69922 2.89453,-1.42578 4.09375,-2.125c1.10156,1.80078 4.40625,6.01953 10.90625,6.21875z" id="strokeMainSVG" fill="#000000" stroke="#000000" stroke-width="3" stroke-linejoin="round"></path><g transform="scale(5.12,5.12)" fill="#dddddd" stroke="none" stroke-width="1" stroke-linejoin="miter"><path d="M24.8125,2c-1.17578,0.00781 -2.23047,0.07422 -3.15625,0.1875c-0.72266,0.08984 -1.37109,0.19922 -1.90625,0.3125c-0.03125,0.00781 -0.06641,0.02344 -0.09375,0.03125c-0.57422,0.125 -1.08203,0.24219 -1.40625,0.34375c-0.01562,0.00391 -0.04687,0.02734 -0.0625,0.03125c-0.03516,0.01172 -0.03125,0.01953 -0.0625,0.03125c-0.26172,0.07813 -0.46875,0.125 -0.46875,0.125c-0.25781,0.07813 -0.47266,0.26172 -0.59375,0.5l-1.25,1.25c0.10156,1.19922 0.1875,2.09375 0.1875,2.09375v0.09375c0,0.19922 0.19922,5.20703 9,8.90625c8.80078,-3.69922 9,-8.70703 9,-8.90625v-0.09375c0,0 0.08594,-0.89453 0.1875,-2.09375l-1.21875,-1.1875c-0.11719,-0.26953 -0.34375,-0.47656 -0.625,-0.5625c0,0 -0.76172,-0.28906 -2.09375,-0.5625c-0.61719,-0.12891 -1.36328,-0.25 -2.21875,-0.34375c-0.01953,-0.00391 -0.04297,0.00391 -0.0625,0c-0.43359,-0.04687 -0.89062,-0.09766 -1.375,-0.125c-0.01172,0 -0.01953,0 -0.03125,0c-0.47656,-0.02734 -0.97266,-0.03125 -1.5,-0.03125c-0.02344,0 -0.03906,0 -0.0625,0c-0.03125,0 -0.0625,0 -0.09375,0c-0.03125,0 -0.0625,0 -0.09375,0zM24.84375,4c0.05078,0.00391 0.10547,0.00391 0.15625,0c3.66797,0 5.9375,0.70703 6.4375,0.875c-0.80859,1.15625 -2.42187,3.11719 -4.4375,3.8125l-2,5.3125l-2,-5.3125c-2.01562,-0.69531 -3.62891,-2.65625 -4.4375,-3.8125c0.49219,-0.16797 2.70703,-0.85547 6.28125,-0.875zM14,6.09375c-3.80078,0.39844 -8,2.89453 -9.5,6.59375c0.39844,0.19922 0.70703,0.30469 0.90625,0.40625c2.60156,0.80078 4.29297,3.40625 4.59375,6.90625c5.39844,-0.39844 8.10547,-3.91406 8.90625,-5.3125c-4.5,-3.5 -4.8125,-6.99219 -4.8125,-7.59375c0,-0.10156 -0.09375,-0.5 -0.09375,-1zM36,6.09375c0,0.5 -0.09375,0.89844 -0.09375,1c0,0.60156 -0.41406,4.09375 -4.8125,7.59375c0.89844,1.30078 3.50781,4.91406 8.90625,5.3125c0.30078,-3.39844 2,-6.00781 4.5,-6.90625h0.09375c0.19922,-0.10156 0.50781,-0.17969 0.90625,-0.28125c-1.5,-3.69922 -5.69922,-6.21875 -9.5,-6.71875zM46,14.6875c-0.19922,0.10156 -0.39844,0.11719 -0.5,0.21875h-0.09375c-2,0.60156 -3.21094,2.78125 -3.3125,5.78125c0.69922,1.19922 1.19922,2.51172 1.5,3.8125c0.89844,-0.69922 2.09375,-1.38672 3.59375,-1.6875c0.5,-0.10156 0.8125,-0.5 0.8125,-1c0,-2.80078 -1.30078,-5.625 -2,-7.125zM4.09375,14.8125c-0.80078,1.39844 -2.09375,4.19531 -2.09375,7.09375c0,0.5 0.3125,0.89844 0.8125,1c1.60156,0.30078 2.79297,0.98828 3.59375,1.6875c0.39844,-1.30078 0.89453,-2.58203 1.59375,-3.78125c-0.10156,-3 -1.3125,-5.21094 -3.3125,-5.8125h-0.09375c0,0 -0.19922,-0.08594 -0.5,-0.1875zM29.5,15.6875c-1.19922,0.69922 -2.49219,1.42578 -4.09375,2.125c-0.10156,0.19922 -0.30469,0.1875 -0.40625,0.1875c-0.10156,0 -0.30469,0.00781 -0.40625,-0.09375c-1.60156,-0.69922 -2.98828,-1.39453 -4.1875,-2.09375c-1.10156,1.80078 -4.30469,5.89453 -10.90625,6.09375c-1,1.69922 -1.39453,3.60547 -1.59375,5.40625c-0.10156,3.80078 0.58203,6.48047 1.28125,8.28125c1.5,1.19922 4.10156,2.61328 7,3.8125c0.5,0.19922 0.82422,0.78125 0.625,1.28125c-0.19922,0.39844 -0.50781,0.625 -0.90625,0.625c-0.10156,0 -0.30469,-0.02344 -0.40625,-0.125c-1.30078,-0.5 -3.28906,-1.39844 -5.1875,-2.5l-1.40625,2.71875c-0.19922,0.39844 -0.11328,0.79297 0.1875,1.09375c3.30078,3.5 9.10547,5.5 15.90625,5.5c6.80078,0 12.58594,-2.01172 15.6875,-5.3125c0.30078,-0.30078 0.32031,-0.79297 0.21875,-1.09375l-1.3125,-2.6875c-3.39844,2.19922 -8.49219,4.09375 -14.59375,4.09375c-1.80078,0 -3.48828,-0.19922 -5.1875,-0.5c-0.5,-0.10156 -0.91406,-0.58594 -0.8125,-1.1875c0.10156,-0.5 0.58594,-0.91406 1.1875,-0.8125c1.60156,0.30078 3.11328,0.40625 4.8125,0.40625c7.69922,0 13.28906,-3.30078 15.6875,-5.5c0.80078,-1.80078 1.41406,-4.49219 1.3125,-8.09375c-0.10156,-1.80078 -0.59375,-3.70703 -1.59375,-5.40625c-6.5,-0.19922 -9.80469,-4.41797 -10.90625,-6.21875z"></path></g></g></svg>