<svg height="200px" width="200px" version="1.1" id="Layer_1" xmlns="http://www.w3.org/2000/svg" xmlns:xlink="http://www.w3.org/1999/xlink" viewBox="-20.08 -20.08 542.16 542.16" xml:space="preserve" fill="#000000"><g id="SVGRepo_bgCarrier" stroke-width="0"></g><g id="SVGRepo_tracerCarrier" stroke-linecap="round" stroke-linejoin="round" stroke="#030303" stroke-width="28.112000000000002"> <g> <g> <path style="fill:#ffffff;" d="M492,276.648v-51.295c0-13.06-10.587-23.648-23.648-23.648h-43.924 c-3.841-13.538-9.234-26.421-15.958-38.46l31.079-31.079c9.235-9.235,9.235-24.208,0-33.443l-36.271-36.271 c-9.235-9.235-24.208-9.235-33.443,0l-31.08,31.078c-12.039-6.724-24.922-12.117-38.46-15.958V33.648 c0-13.06-10.587-23.648-23.648-23.648h-51.295c-13.06,0-23.648,10.587-23.648,23.648v43.924 c-13.538,3.841-26.421,9.234-38.46,15.958l-31.079-31.079c-9.235-9.235-24.208-9.235-33.443,0l-36.27,36.272 c-9.235,9.235-9.235,24.208,0,33.443l31.079,31.079c-6.724,12.039-12.117,24.922-15.958,38.46H33.649 c-13.06,0-23.648,10.587-23.648,23.648v51.295c0,13.06,10.587,23.648,23.648,23.648h43.924 c3.841,13.538,9.234,26.421,15.958,38.46l-31.079,31.079c-9.235,9.235-9.235,24.208,0,33.443l36.271,36.271 c9.235,9.235,24.208,9.235,33.443,0l31.079-31.079c12.039,6.724,24.922,12.117,38.46,15.958v43.924 c0,13.06,10.587,23.648,23.648,23.648h51.295c13.06,0,23.648-10.587,23.648-23.648v-43.924 c13.538-3.841,26.421-9.234,38.46-15.958l31.079,31.079c9.235,9.235,24.208,9.235,33.443,0l36.271-36.271 c9.235-9.235,9.235-24.208,0-33.443l-31.079-31.079c6.724-12.039,12.117-24.922,15.958-38.46h43.924 C481.414,300.295,492,289.708,492,276.648z M251.001,344.612c-51.7,0-93.612-41.911-93.612-93.612s41.912-93.612,93.612-93.612 S344.612,199.3,344.612,251S302.701,344.612,251.001,344.612z"></path> <path d="M276.648,502h-51.295c-18.554,0-33.648-15.094-33.648-33.648v-36.527c-9.116-2.992-18.026-6.689-26.623-11.049 l-25.844,25.844c-13.119,13.119-34.467,13.119-47.586,0l-36.271-36.272c-13.118-13.119-13.118-34.465,0-47.585l25.845-25.845 c-4.359-8.596-8.058-17.506-11.049-26.623H33.648c-18.553,0-33.647-15.094-33.647-33.647v-51.296 c0-18.553,15.094-33.647,33.647-33.647h36.528c2.991-9.117,6.689-18.027,11.049-26.623l-25.844-25.845 c-13.118-13.12-13.118-34.466,0-47.585L91.652,55.38c13.119-13.118,34.467-13.118,47.586,0l25.844,25.844 c8.597-4.36,17.507-8.058,26.623-11.049V33.648C191.704,15.094,206.799,0,225.354,0h51.295c18.554,0,33.648,15.094,33.648,33.648 v36.527c9.116,2.992,18.026,6.689,26.623,11.049l25.844-25.844c13.119-13.119,34.467-13.119,47.586,0l36.271,36.271 c13.118,13.119,13.118,34.465,0,47.585l-25.845,25.845c4.359,8.596,8.058,17.506,11.049,26.623h36.528 c18.554,0,33.647,15.094,33.647,33.647v51.296c0,18.553-15.094,33.647-33.647,33.647h-36.528 c-2.991,9.117-6.689,18.027-11.049,26.623l25.845,25.844c13.118,13.12,13.118,34.466,0,47.585l-36.271,36.272 c-13.119,13.118-34.467,13.118-47.586,0l-25.844-25.844c-8.597,4.36-17.507,8.058-26.623,11.049v36.527 C310.297,486.906,295.201,502,276.648,502z M163.247,398.469c1.666,0,3.344,0.416,4.873,1.27 c11.511,6.429,23.729,11.499,36.313,15.068c4.303,1.221,7.271,5.149,7.271,9.621v43.924c0,7.525,6.123,13.648,13.648,13.648 h51.295c7.525,0,13.648-6.123,13.648-13.648v-43.924c0-4.472,2.969-8.4,7.271-9.621c12.584-3.57,24.802-8.639,36.313-15.068 c3.904-2.18,8.784-1.504,11.947,1.66l31.078,31.079c5.32,5.32,13.98,5.322,19.301,0l36.271-36.271 c5.321-5.321,5.321-13.979,0-19.301l-31.079-31.078c-3.163-3.163-3.841-8.042-1.659-11.947 c6.428-11.51,11.498-23.728,15.068-36.313c1.221-4.302,5.148-7.271,9.62-7.271h43.925c7.525,0,13.647-6.122,13.647-13.647v-51.296 c0-7.525-6.122-13.647-13.647-13.647h-43.925c-4.472,0-8.399-2.969-9.62-7.271c-3.57-12.585-8.641-24.803-15.068-36.313 c-2.182-3.905-1.504-8.784,1.659-11.947l31.079-31.079c5.321-5.321,5.321-13.979,0-19.301l-36.271-36.271 c-5.32-5.32-13.98-5.322-19.301,0l-31.078,31.078c-3.162,3.164-8.04,3.84-11.947,1.66c-11.511-6.429-23.729-11.499-36.313-15.068 c-4.303-1.221-7.271-5.149-7.271-9.621V33.648c0-7.525-6.123-13.648-13.648-13.648h-51.295c-7.525,0-13.648,6.123-13.648,13.648 v43.924c0,4.472-2.969,8.4-7.271,9.621c-12.584,3.57-24.802,8.639-36.313,15.068c-3.904,2.181-8.784,1.503-11.947-1.66 l-31.078-31.079c-5.32-5.32-13.98-5.322-19.301,0l-36.271,36.271c-5.321,5.321-5.321,13.979,0,19.301l31.079,31.078 c3.163,3.163,3.841,8.042,1.659,11.947c-6.428,11.51-11.498,23.728-15.068,36.313c-1.221,4.302-5.148,7.271-9.62,7.271H33.648 c-7.525,0-13.647,6.122-13.647,13.647v51.296c0,7.525,6.122,13.647,13.647,13.647h43.925c4.472,0,8.399,2.969,9.62,7.271 c3.57,12.585,8.641,24.803,15.068,36.313c2.182,3.905,1.504,8.784-1.659,11.947l-31.079,31.079 c-5.321,5.321-5.321,13.979,0,19.301l36.271,36.271c5.32,5.32,13.98,5.322,19.301,0l31.078-31.078 C158.099,399.474,160.659,398.469,163.247,398.469z M251.001,354.611c-57.132,0-103.611-46.48-103.611-103.611 s46.479-103.611,103.611-103.611S354.612,193.869,354.612,251S308.133,354.611,251.001,354.611z M251.001,167.389 c-46.104,0-83.611,37.508-83.611,83.611s37.508,83.611,83.611,83.611s83.611-37.508,83.611-83.611 S297.104,167.389,251.001,167.389z"></path> </g> <g> <path d="M121.001,261c-5.522,0-10-4.477-10-10c0-27.143,7.779-53.472,22.498-76.142c14.331-22.074,34.479-39.62,58.267-50.743 c5.002-2.341,10.954-0.18,13.294,4.823c2.34,5.003,0.18,10.955-4.823,13.294c-42.059,19.667-69.236,62.361-69.236,108.768 C131.001,256.523,126.523,261,121.001,261z"></path> </g> <g> <path d="M302.995,141.819c-1.337,0-2.695-0.27-3.999-0.839c-15.157-6.622-31.306-9.98-47.995-9.98c-5.522,0-10-4.477-10-10 s4.478-10,10-10c19.463,0,38.305,3.92,56.003,11.653c5.061,2.211,7.371,8.106,5.16,13.167 C310.521,139.578,306.849,141.819,302.995,141.819z"></path> </g> </g> </g><g id="SVGRepo_iconCarrier"> <g> <g> <path style="fill:#ffffff;" d="M492,276.648v-51.295c0-13.06-10.587-23.648-23.648-23.648h-43.924 c-3.841-13.538-9.234-26.421-15.958-38.46l31.079-31.079c9.235-9.235,9.235-24.208,0-33.443l-36.271-36.271 c-9.235-9.235-24.208-9.235-33.443,0l-31.08,31.078c-12.039-6.724-24.922-12.117-38.46-15.958V33.648 c0-13.06-10.587-23.648-23.648-23.648h-51.295c-13.06,0-23.648,10.587-23.648,23.648v43.924 c-13.538,3.841-26.421,9.234-38.46,15.958l-31.079-31.079c-9.235-9.235-24.208-9.235-33.443,0l-36.27,36.272 c-9.235,9.235-9.235,24.208,0,33.443l31.079,31.079c-6.724,12.039-12.117,24.922-15.958,38.46H33.649 c-13.06,0-23.648,10.587-23.648,23.648v51.295c0,13.06,10.587,23.648,23.648,23.648h43.924 c3.841,13.538,9.234,26.421,15.958,38.46l-31.079,31.079c-9.235,9.235-9.235,24.208,0,33.443l36.271,36.271 c9.235,9.235,24.208,9.235,33.443,0l31.079-31.079c12.039,6.724,24.922,12.117,38.46,15.958v43.924 c0,13.06,10.587,23.648,23.648,23.648h51.295c13.06,0,23.648-10.587,23.648-23.648v-43.924 c13.538-3.841,26.421-9.234,38.46-15.958l31.079,31.079c9.235,9.235,24.208,9.235,33.443,0l36.271-36.271 c9.235-9.235,9.235-24.208,0-33.443l-31.079-31.079c6.724-12.039,12.117-24.922,15.958-38.46h43.924 C481.414,300.295,492,289.708,492,276.648z M251.001,344.612c-51.7,0-93.612-41.911-93.612-93.612s41.912-93.612,93.612-93.612 S344.612,199.3,344.612,251S302.701,344.612,251.001,344.612z"></path> <path d="M276.648,502h-51.295c-18.554,0-33.648-15.094-33.648-33.648v-36.527c-9.116-2.992-18.026-6.689-26.623-11.049 l-25.844,25.844c-13.119,13.119-34.467,13.119-47.586,0l-36.271-36.272c-13.118-13.119-13.118-34.465,0-47.585l25.845-25.845 c-4.359-8.596-8.058-17.506-11.049-26.623H33.648c-18.553,0-33.647-15.094-33.647-33.647v-51.296 c0-18.553,15.094-33.647,33.647-33.647h36.528c2.991-9.117,6.689-18.027,11.049-26.623l-25.844-25.845 c-13.118-13.12-13.118-34.466,0-47.585L91.652,55.38c13.119-13.118,34.467-13.118,47.586,0l25.844,25.844 c8.597-4.36,17.507-8.058,26.623-11.049V33.648C191.704,15.094,206.799,0,225.354,0h51.295c18.554,0,33.648,15.094,33.648,33.648 v36.527c9.116,2.992,18.026,6.689,26.623,11.049l25.844-25.844c13.119-13.119,34.467-13.119,47.586,0l36.271,36.271 c13.118,13.119,13.118,34.465,0,47.585l-25.845,25.845c4.359,8.596,8.058,17.506,11.049,26.623h36.528 c18.554,0,33.647,15.094,33.647,33.647v51.296c0,18.553-15.094,33.647-33.647,33.647h-36.528 c-2.991,9.117-6.689,18.027-11.049,26.623l25.845,25.844c13.118,13.12,13.118,34.466,0,47.585l-36.271,36.272 c-13.119,13.118-34.467,13.118-47.586,0l-25.844-25.844c-8.597,4.36-17.507,8.058-26.623,11.049v36.527 C310.297,486.906,295.201,502,276.648,502z M163.247,398.469c1.666,0,3.344,0.416,4.873,1.27 c11.511,6.429,23.729,11.499,36.313,15.068c4.303,1.221,7.271,5.149,7.271,9.621v43.924c0,7.525,6.123,13.648,13.648,13.648 h51.295c7.525,0,13.648-6.123,13.648-13.648v-43.924c0-4.472,2.969-8.4,7.271-9.621c12.584-3.57,24.802-8.639,36.313-15.068 c3.904-2.18,8.784-1.504,11.947,1.66l31.078,31.079c5.32,5.32,13.98,5.322,19.301,0l36.271-36.271 c5.321-5.321,5.321-13.979,0-19.301l-31.079-31.078c-3.163-3.163-3.841-8.042-1.659-11.947 c6.428-11.51,11.498-23.728,15.068-36.313c1.221-4.302,5.148-7.271,9.62-7.271h43.925c7.525,0,13.647-6.122,13.647-13.647v-51.296 c0-7.525-6.122-13.647-13.647-13.647h-43.925c-4.472,0-8.399-2.969-9.62-7.271c-3.57-12.585-8.641-24.803-15.068-36.313 c-2.182-3.905-1.504-8.784,1.659-11.947l31.079-31.079c5.321-5.321,5.321-13.979,0-19.301l-36.271-36.271 c-5.32-5.32-13.98-5.322-19.301,0l-31.078,31.078c-3.162,3.164-8.04,3.84-11.947,1.66c-11.511-6.429-23.729-11.499-36.313-15.068 c-4.303-1.221-7.271-5.149-7.271-9.621V33.648c0-7.525-6.123-13.648-13.648-13.648h-51.295c-7.525,0-13.648,6.123-13.648,13.648 v43.924c0,4.472-2.969,8.4-7.271,9.621c-12.584,3.57-24.802,8.639-36.313,15.068c-3.904,2.181-8.784,1.503-11.947-1.66 l-31.078-31.079c-5.32-5.32-13.98-5.322-19.301,0l-36.271,36.271c-5.321,5.321-5.321,13.979,0,19.301l31.079,31.078 c3.163,3.163,3.841,8.042,1.659,11.947c-6.428,11.51-11.498,23.728-15.068,36.313c-1.221,4.302-5.148,7.271-9.62,7.271H33.648 c-7.525,0-13.647,6.122-13.647,13.647v51.296c0,7.525,6.122,13.647,13.647,13.647h43.925c4.472,0,8.399,2.969,9.62,7.271 c3.57,12.585,8.641,24.803,15.068,36.313c2.182,3.905,1.504,8.784-1.659,11.947l-31.079,31.079 c-5.321,5.321-5.321,13.979,0,19.301l36.271,36.271c5.32,5.32,13.98,5.322,19.301,0l31.078-31.078 C158.099,399.474,160.659,398.469,163.247,398.469z M251.001,354.611c-57.132,0-103.611-46.48-103.611-103.611 s46.479-103.611,103.611-103.611S354.612,193.869,354.612,251S308.133,354.611,251.001,354.611z M251.001,167.389 c-46.104,0-83.611,37.508-83.611,83.611s37.508,83.611,83.611,83.611s83.611-37.508,83.611-83.611 S297.104,167.389,251.001,167.389z"></path> </g> <g> <path d="M121.001,261c-5.522,0-10-4.477-10-10c0-27.143,7.779-53.472,22.498-76.142c14.331-22.074,34.479-39.62,58.267-50.743 c5.002-2.341,10.954-0.18,13.294,4.823c2.34,5.003,0.18,10.955-4.823,13.294c-42.059,19.667-69.236,62.361-69.236,108.768 C131.001,256.523,126.523,261,121.001,261z"></path> </g> <g> <path d="M302.995,141.819c-1.337,0-2.695-0.27-3.999-0.839c-15.157-6.622-31.306-9.98-47.995-9.98c-5.522,0-10-4.477-10-10 s4.478-10,10-10c19.463,0,38.305,3.92,56.003,11.653c5.061,2.211,7.371,8.106,5.16,13.167 C310.521,139.578,306.849,141.819,302.995,141.819z"></path> </g> </g> </g></svg>