<!DOCTYPE svg PUBLIC "-//W3C//DTD SVG 1.1//EN" "http://www.w3.org/Graphics/SVG/1.1/DTD/svg11.dtd">

<!-- Uploaded to: SVG Repo, www.svgrepo.com, Transformed by: SVG Repo Mixer Tools -->
<svg width="80px" height="80px" viewBox="-1.98 0 20.002 20.002" xmlns="http://www.w3.org/2000/svg" fill="#000000">

<g id="SVGRepo_bgCarrier" stroke-width="0"/>

<g id="SVGRepo_tracerCarrier" stroke-linecap="round" stroke-linejoin="round"/>

<g id="SVGRepo_iconCarrier"> <g id="skull-2" transform="translate(-3.971 -1.998)"> <path id="secondary" fill="rgb(255, 58, 58)" d="M18.47,12.67a3.47,3.47,0,0,1-1.78,5.11,1,1,0,0,0-.69.94h0a1.88,1.88,0,0,1-1.32,1.8A9,9,0,0,1,12,21a9,9,0,0,1-2.68-.48A1.88,1.88,0,0,1,8,18.72H8a1,1,0,0,0-.69-.94,3.47,3.47,0,0,1-1.78-5.11A6.94,6.94,0,0,1,5,10.29,7.09,7.09,0,0,1,11.85,3a7,7,0,0,1,6.62,9.67Z"/> <line id="primary-upstroke" x2="0.1" transform="translate(9.45 11.5)" fill="none" stroke="#000000" stroke-linecap="round" stroke-linejoin="round" stroke-width="2.5"/> <line id="primary-upstroke-2" data-name="primary-upstroke" x2="0.1" transform="translate(14.45 11.5)" fill="none" stroke="#000000" stroke-linecap="round" stroke-linejoin="round" stroke-width="2.5"/> <path id="primary" d="M12,15v1m7-6a7,7,0,0,0-7.15-7A7.09,7.09,0,0,0,5,10.29a6.94,6.94,0,0,0,.52,2.38A3.47,3.47,0,0,0,7.3,17.78a1,1,0,0,1,.69.94H8a1.88,1.88,0,0,0,1.32,1.8A9,9,0,0,0,12,21a9,9,0,0,0,2.68-.48A1.88,1.88,0,0,0,16,18.72h0a1,1,0,0,1,.69-.94,3.47,3.47,0,0,0,1.78-5.11A7,7,0,0,0,19,10Z" fill="none" stroke="#000000" stroke-linecap="round" stroke-linejoin="round" stroke-width="1.5"/> </g> </g>

</svg>