<!DOCTYPE svg PUBLIC "-//W3C//DTD SVG 1.1//EN" "http://www.w3.org/Graphics/SVG/1.1/DTD/svg11.dtd">
<!-- Uploaded to: SVG Repo, www.svgrepo.com, Transformed by: SVG Repo Mixer Tools -->
<svg height="800px" width="800px" version="1.1" id="Layer_1" xmlns="http://www.w3.org/2000/svg" xmlns:xlink="http://www.w3.org/1999/xlink" viewBox="0 0 511.998 511.998" xml:space="preserve" fill="#000000" stroke="#000000">
<g id="SVGRepo_bgCarrier" stroke-width="0"/>
<g id="SVGRepo_tracerCarrier" stroke-linecap="round" stroke-linejoin="round" stroke="#000000" stroke-width="16.383936"> <path style="fill:#a3d3ff;" d="M474.3,309.4c-2.68-10.007-12.968-15.943-22.973-13.264l-60.315,16.162l-44.265-25.557v-61.474 l44.265-25.556l60.316,16.162c1.626,0.435,3.259,0.644,4.867,0.644c8.282,0,15.861-5.528,18.107-13.908 c2.682-10.007-3.256-20.293-13.264-22.974l-24.078-6.452l26.958-15.564c8.972-5.18,12.046-16.652,6.866-25.623 c-5.181-8.972-16.652-12.047-25.623-6.866l-26.959,15.565l6.452-24.079c2.682-10.007-3.256-20.293-13.264-22.974 c-10.01-2.679-20.293,3.258-22.973,13.264l-16.163,60.317l-44.267,25.558l-53.233-30.734v-51.12l44.153-44.153 c7.327-7.326,7.327-19.203,0-26.528c-7.326-7.326-19.202-7.326-26.527,0l-17.626,17.626v-31.13c0-10.36-8.398-18.758-18.758-18.758 s-18.758,8.399-18.758,18.758V57.87l-17.626-17.626c-7.326-7.326-19.202-7.326-26.527,0c-7.327,7.326-7.327,19.203,0,26.528 l44.153,44.153v51.123l-53.229,30.732l-44.273-25.561l-16.16-60.316c-2.68-10.007-12.968-15.944-22.973-13.264 c-10.007,2.681-15.945,12.967-13.264,22.974l6.452,24.079l-26.958-15.564c-8.97-5.179-20.445-2.105-25.623,6.866 c-5.181,8.972-2.107,20.444,6.866,25.623l26.958,15.564l-24.079,6.452c-10.007,2.681-15.945,12.967-13.264,22.974 c2.245,8.381,9.824,13.908,18.107,13.908c1.606,0,3.241-0.209,4.867-0.644l60.317-16.162l44.27,25.56v61.468l-44.272,25.561 l-60.318-16.162c-10.008-2.68-20.293,3.258-22.974,13.264c-2.681,10.007,3.256,20.293,13.264,22.974l24.078,6.452L48.071,354.39 c-8.972,5.18-12.046,16.652-6.866,25.623c3.474,6.018,9.779,9.382,16.263,9.382c3.183,0,6.407-0.811,9.361-2.516l26.959-15.564 l-6.452,24.079c-2.681,10.007,3.256,20.293,13.264,22.974c1.626,0.435,3.259,0.644,4.867,0.644c8.282,0,15.861-5.528,18.107-13.908 l16.162-60.316l44.272-25.561l53.229,30.732v51.115l-44.153,44.153c-7.327,7.326-7.327,19.203,0,26.528 c3.663,3.663,8.463,5.494,13.264,5.494s9.601-1.831,13.263-5.494l17.626-17.626v31.129c0,10.36,8.398,18.758,18.758,18.758 c10.359,0,18.758-8.399,18.758-18.758v-31.129l17.626,17.626c3.663,3.663,8.463,5.494,13.264,5.494 c4.801,0,9.601-1.831,13.264-5.494c7.327-7.326,7.327-19.203,0-26.528l-44.153-44.153v-51.112l53.233-30.734l44.267,25.557 l16.163,60.317c2.245,8.381,9.824,13.908,18.107,13.908c1.606,0,3.241-0.209,4.867-0.644c10.007-2.681,15.945-12.967,13.264-22.974 l-6.453-24.08l26.959,15.565c2.954,1.706,6.179,2.516,9.362,2.516c6.482,0,12.788-3.365,16.263-9.382 c5.181-8.972,2.107-20.444-6.866-25.623l-26.958-15.564l24.077-6.452C471.044,329.693,476.982,319.407,474.3,309.4z M309.23,286.737 l-53.232,30.734l-53.232-30.734v-61.468l53.232-30.734l53.232,30.734V286.737z"/> <path style="opacity:0.1;enable-background:new ;" d="M125.341,309.779l-4.363,2.518l-60.316-16.162 c-10.008-2.68-20.293,3.258-22.974,13.264c-2.681,10.007,3.256,20.293,13.264,22.974l24.078,6.452L48.071,354.39 c-8.971,5.18-12.046,16.652-6.866,25.623c3.474,6.018,9.779,9.382,16.263,9.382c3.182,0,6.407-0.811,9.361-2.516l26.959-15.564 l-6.452,24.079c-2.681,10.007,3.256,20.293,13.264,22.974c1.626,0.435,3.259,0.644,4.867,0.644c8.281,0,15.861-5.528,18.106-13.908 l16.162-60.316l6.952-4.013C139.024,330.861,131.885,320.522,125.341,309.779z"/> <path style="opacity:0.1;enable-background:new ;" d="M37.688,202.607c2.246,8.381,9.824,13.908,18.107,13.908 c1.606,0,3.24-0.209,4.867-0.644l23.901-6.404c-5.575-24.391-8.526-49.78-8.526-75.859c0-1.051,0.03-2.094,0.039-3.142l-9.246-5.338 c-8.97-5.179-20.445-2.105-25.623,6.866c-5.181,8.972-2.105,20.444,6.866,25.623l26.958,15.564l-24.079,6.452 C40.945,182.315,35.006,192.6,37.688,202.607z"/> <path style="opacity:0.1;enable-background:new ;" d="M224.35,413.96l-31.268,31.268c-7.327,7.326-7.327,19.203,0,26.528 c3.663,3.663,8.463,5.494,13.264,5.494s9.601-1.831,13.263-5.494l17.626-17.626v31.129c0,10.36,8.398,18.758,18.758,18.758 c10.36,0,18.758-8.399,18.758-18.758V454.13l17.626,17.626c3.663,3.663,8.463,5.494,13.264,5.494c4.801,0,9.601-1.831,13.264-5.494 c3.184-3.184,4.981-7.229,5.397-11.384C288.207,450.361,254.532,434.537,224.35,413.96z"/> <path style="fill:#8ac2ff;" d="M479.341,327.626c3.571-6.187,4.52-13.393,2.671-20.293v0.001 c-3.815-14.241-18.507-22.723-32.751-18.91l-57.12,15.306l-37.41-21.599v-52.255l37.41-21.599l57.123,15.306 c2.267,0.608,4.6,0.915,6.932,0.915c12.074,0,22.691-8.153,25.818-19.824c1.849-6.9,0.902-14.106-2.671-20.293 c-3.571-6.186-9.338-10.61-16.238-12.459l-5.462-1.463l10.268-5.928c6.186-3.571,10.611-9.337,12.459-16.237 c1.849-6.9,0.901-14.106-2.672-20.293c-3.572-6.187-9.338-10.61-16.237-12.459c-6.901-1.849-14.107-0.899-20.292,2.673 l-10.269,5.928l1.464-5.462c1.849-6.9,0.902-14.106-2.671-20.292c-3.571-6.187-9.338-10.611-16.24-12.46 c-14.244-3.812-28.934,4.672-32.749,18.91l-15.307,57.123l-37.411,21.6l-45.25-26.125v-43.204l41.815-41.816 c5.052-5.051,7.833-11.766,7.833-18.909c0-7.144-2.781-13.858-7.832-18.909s-11.766-7.832-18.91-7.832 c-7.143,0-13.859,2.781-18.909,7.832l-3.998,3.998V26.741C282.736,11.995,270.74,0,255.995,0c-14.746,0-26.742,11.995-26.742,26.741 v11.856l-3.998-3.998c-5.05-5.052-11.765-7.832-18.909-7.832c-7.144,0-13.859,2.781-18.909,7.831 c-5.052,5.052-7.833,11.766-7.833,18.91c0,7.142,2.781,13.858,7.832,18.909l41.816,41.816v43.207l-45.245,26.123L146.59,161.96 l-15.305-57.123c-1.848-6.899-6.274-12.666-12.459-16.237c-6.187-3.57-13.388-4.521-20.292-2.672 c-6.899,1.849-12.666,6.274-16.238,12.46c-3.571,6.187-4.52,13.393-2.671,20.292l1.464,5.462l-10.268-5.928 c-12.77-7.371-29.155-2.983-36.529,9.787c-3.572,6.187-4.521,13.393-2.672,20.293c1.848,6.9,6.274,12.667,12.459,16.237 l10.268,5.928l-5.463,1.463c-14.242,3.816-22.725,18.509-18.909,32.752c3.127,11.673,13.743,19.825,25.818,19.825 c2.332,0,4.665-0.308,6.934-0.915l57.123-15.306l37.414,21.602v52.25l-37.415,21.602l-57.124-15.307 c-14.242-3.816-28.936,4.669-32.751,18.91c-3.816,14.243,4.667,28.935,18.909,32.751l5.462,1.464l-10.266,5.927 c-6.187,3.571-10.611,9.338-12.459,16.237c-1.849,6.9-0.901,14.106,2.672,20.292c4.762,8.249,13.642,13.374,23.176,13.374 c4.673,0,9.289-1.24,13.352-3.586l10.268-5.928l-1.464,5.462c-1.849,6.9-0.902,14.106,2.671,20.293 c3.571,6.186,9.338,10.61,16.236,12.459c2.266,0.608,4.599,0.915,6.935,0.915c12.074,0,22.691-8.153,25.818-19.825l15.306-57.123 l37.416-21.602l45.245,26.123v43.2l-41.815,41.816c-5.052,5.051-7.833,11.766-7.833,18.909c0,7.144,2.781,13.858,7.833,18.91 c5.051,5.051,11.766,7.831,18.909,7.831c7.144,0,13.859-2.781,18.909-7.832l3.998-3.998v11.856 c0,14.746,11.997,26.741,26.742,26.741s26.741-11.996,26.741-26.741v-11.854l3.998,3.997c5.05,5.051,11.765,7.832,18.909,7.832 c7.142,0,13.857-2.781,18.909-7.831c5.052-5.052,7.833-11.766,7.833-18.91c0-7.142-2.781-13.858-7.832-18.909l-41.816-41.816V354.57 l45.25-26.125l37.411,21.6l15.307,57.124c3.127,11.673,13.743,19.825,25.818,19.825c2.333,0,4.667-0.308,6.933-0.915 c6.899-1.849,12.666-6.274,16.238-12.46c3.571-6.187,4.52-13.393,2.671-20.293l-1.464-5.463l10.269,5.928 c4.063,2.346,8.68,3.586,13.352,3.586c9.533,0,18.415-5.124,23.176-13.373c3.571-6.187,4.521-13.393,2.672-20.293 c-1.848-6.9-6.274-12.666-12.459-16.237l-10.267-5.927l5.461-1.464C470.003,338.237,475.77,333.812,479.341,327.626z M434.893,331.114c-3.119,0.836-5.428,3.468-5.848,6.67c-0.422,3.202,1.127,6.342,3.924,7.956l26.957,15.563 c2.493,1.439,4.276,3.763,5.021,6.543c0.744,2.779,0.363,5.683-1.077,8.176c-1.92,3.324-5.502,5.389-9.349,5.389 c-1.873,0-3.73-0.5-5.369-1.447l-26.959-15.565c-2.796-1.616-6.29-1.386-8.851,0.58c-2.562,1.966-3.687,5.282-2.852,8.401 l6.452,24.08c0.744,2.78,0.363,5.683-1.076,8.176c-1.44,2.493-3.763,4.276-6.544,5.021c-0.918,0.246-1.86,0.371-2.798,0.371 c-4.86,0-9.135-3.286-10.396-7.991l-16.163-60.318c-0.548-2.045-1.885-3.788-3.719-4.848l-44.267-25.557 c-2.47-1.426-5.514-1.426-7.983,0l-53.233,30.734c-2.47,1.426-3.992,4.062-3.992,6.914v51.112c0,2.117,0.841,4.148,2.338,5.645 l44.155,44.153c2.035,2.035,3.156,4.741,3.156,7.619s-1.121,5.584-3.156,7.618c-2.035,2.035-4.741,3.156-7.619,3.156 c-2.878,0-5.583-1.121-7.617-3.155l-17.627-17.626c-2.284-2.284-5.717-2.968-8.701-1.731c-2.984,1.236-4.928,4.147-4.928,7.376 v31.129c0,5.942-4.834,10.774-10.774,10.774c-5.942,0-10.775-4.833-10.775-10.774v-31.129c0-3.23-1.945-6.14-4.928-7.376 c-0.988-0.409-2.025-0.608-3.053-0.608c-2.078,0-4.119,0.811-5.648,2.339l-17.627,17.627c-2.034,2.034-4.739,3.155-7.617,3.155 s-5.584-1.121-7.619-3.156c-2.035-2.035-3.156-4.741-3.156-7.618c0-2.878,1.121-5.584,3.157-7.619l44.153-44.153 c1.497-1.497,2.338-3.528,2.338-5.645V349.96c0-2.852-1.522-5.487-3.992-6.914l-53.229-30.733c-2.47-1.426-5.514-1.426-7.983,0 l-44.273,25.561c-1.834,1.059-3.171,2.803-3.719,4.847l-16.162,60.317c-1.261,4.704-5.535,7.99-10.396,7.99 c-0.939,0-1.881-0.125-2.799-0.371c-2.78-0.745-5.104-2.528-6.543-5.02c-1.439-2.492-1.82-5.396-1.076-8.176l6.453-24.079 c0.836-3.119-0.288-6.435-2.852-8.401c-2.56-1.965-6.055-2.195-8.851-0.58l-26.957,15.564c-1.639,0.946-3.496,1.447-5.369,1.447 c-3.847,0-7.429-2.065-9.349-5.39c-1.44-2.492-1.821-5.396-1.077-8.175c0.745-2.78,2.528-5.104,5.021-6.543l26.957-15.563 c2.796-1.615,4.345-4.754,3.924-7.956c-0.422-3.201-2.729-5.833-5.848-6.67l-24.078-6.452c-5.74-1.537-9.157-7.458-7.619-13.196 c1.537-5.738,7.46-9.16,13.196-7.618l60.316,16.162c2.044,0.547,4.224,0.262,6.058-0.797l44.272-25.561 c2.47-1.426,3.992-4.061,3.992-6.914v-61.47c0-2.853-1.522-5.487-3.992-6.914l-44.27-25.56c-1.835-1.059-4.014-1.345-6.058-0.797 L58.597,208.16c-0.921,0.247-1.863,0.371-2.802,0.371c-4.86,0-9.135-3.286-10.396-7.99c-1.537-5.74,1.881-11.659,7.619-13.196 l24.079-6.452c3.119-0.836,5.428-3.468,5.848-6.67c0.422-3.201-1.127-6.341-3.924-7.956l-26.958-15.564 c-2.493-1.439-4.276-3.763-5.021-6.542c-0.744-2.78-0.363-5.683,1.077-8.176c2.971-5.144,9.572-6.915,14.718-3.944l26.958,15.564 c2.796,1.616,6.29,1.386,8.851-0.58c2.562-1.966,3.687-5.281,2.852-8.4l-6.452-24.079c-0.744-2.78-0.363-5.683,1.076-8.176 c1.44-2.493,3.763-4.276,6.543-5.02c2.778-0.744,5.681-0.362,8.175,1.077c2.493,1.439,4.276,3.763,5.021,6.542l16.162,60.316 c0.548,2.045,1.885,3.789,3.719,4.848l44.273,25.561c2.47,1.426,5.514,1.426,7.983,0l53.229-30.732 c2.47-1.426,3.992-4.061,3.992-6.914v-51.124c0-2.117-0.841-4.148-2.338-5.645l-44.154-44.154c-2.035-2.035-3.156-4.741-3.156-7.619 c0-2.878,1.121-5.584,3.157-7.619c2.034-2.035,4.74-3.155,7.618-3.155c2.877,0,5.583,1.12,7.618,3.155l17.626,17.626 c2.283,2.283,5.715,2.967,8.701,1.731c2.984-1.236,4.928-4.147,4.928-7.376V26.741c0-5.942,4.834-10.774,10.775-10.774 c5.941,0,10.774,4.834,10.774,10.774V57.87c0,3.23,1.945,6.14,4.928,7.376c2.984,1.236,6.417,0.554,8.701-1.731l17.627-17.626 c2.034-2.035,4.74-3.155,7.617-3.155c2.878,0,5.584,1.121,7.619,3.156s3.156,4.741,3.156,7.618c0,2.878-1.121,5.584-3.157,7.619 l-44.153,44.154c-1.497,1.497-2.338,3.528-2.338,5.645v51.119c0,2.853,1.522,5.487,3.992,6.914l53.233,30.734 c2.47,1.426,5.514,1.426,7.983,0l44.267-25.558c1.834-1.059,3.171-2.803,3.719-4.848l16.163-60.317 c1.538-5.737,7.462-9.153,13.195-7.618c2.78,0.745,5.104,2.528,6.543,5.02c1.439,2.492,1.82,5.396,1.076,8.176l-6.452,24.079 c-0.836,3.119,0.29,6.435,2.852,8.401c2.561,1.965,6.056,2.197,8.851,0.58l26.96-15.565c2.493-1.439,5.395-1.82,8.175-1.077 c2.779,0.745,5.103,2.528,6.542,5.021c1.44,2.492,1.821,5.396,1.077,8.176c-0.745,2.779-2.528,5.103-5.021,6.542l-26.958,15.564 c-2.796,1.615-4.345,4.754-3.924,7.956c0.422,3.201,2.729,5.834,5.848,6.67l24.078,6.452c2.78,0.745,5.104,2.527,6.544,5.02 c1.439,2.493,1.821,5.396,1.076,8.177c-1.26,4.704-5.535,7.99-10.396,7.99c-0.938,0-1.881-0.126-2.801-0.371l-60.315-16.162 c-2.043-0.546-4.223-0.261-6.058,0.797l-44.265,25.557c-2.47,1.426-3.992,4.061-3.992,6.914v61.473c0,2.853,1.522,5.487,3.992,6.914 l44.265,25.556c1.835,1.06,4.014,1.344,6.058,0.798l60.314-16.162c5.737-1.534,11.659,1.88,13.197,7.618l0,0 c0.745,2.78,0.363,5.683-1.076,8.176c-1.44,2.493-3.763,4.276-6.544,5.02L434.893,331.114z M313.221,218.356l-53.232-30.734 c-2.47-1.426-5.514-1.426-7.983,0l-53.233,30.734c-2.47,1.425-3.992,4.061-3.992,6.914v61.468c0,2.853,1.522,5.487,3.992,6.914 l53.233,30.733c1.235,0.713,2.613,1.07,3.992,1.07c1.378,0,2.757-0.357,3.992-1.07l53.232-30.733 c2.47-1.426,3.992-4.061,3.992-6.914v-61.468C317.213,222.418,315.692,219.782,313.221,218.356z M301.246,282.128l-45.248,26.125 l-45.25-26.125v-52.25l45.25-26.124l45.249,26.124v52.25H301.246z"/> </g>
<g id="SVGRepo_iconCarrier"> <path style="fill:#a3d3ff;" d="M474.3,309.4c-2.68-10.007-12.968-15.943-22.973-13.264l-60.315,16.162l-44.265-25.557v-61.474 l44.265-25.556l60.316,16.162c1.626,0.435,3.259,0.644,4.867,0.644c8.282,0,15.861-5.528,18.107-13.908 c2.682-10.007-3.256-20.293-13.264-22.974l-24.078-6.452l26.958-15.564c8.972-5.18,12.046-16.652,6.866-25.623 c-5.181-8.972-16.652-12.047-25.623-6.866l-26.959,15.565l6.452-24.079c2.682-10.007-3.256-20.293-13.264-22.974 c-10.01-2.679-20.293,3.258-22.973,13.264l-16.163,60.317l-44.267,25.558l-53.233-30.734v-51.12l44.153-44.153 c7.327-7.326,7.327-19.203,0-26.528c-7.326-7.326-19.202-7.326-26.527,0l-17.626,17.626v-31.13c0-10.36-8.398-18.758-18.758-18.758 s-18.758,8.399-18.758,18.758V57.87l-17.626-17.626c-7.326-7.326-19.202-7.326-26.527,0c-7.327,7.326-7.327,19.203,0,26.528 l44.153,44.153v51.123l-53.229,30.732l-44.273-25.561l-16.16-60.316c-2.68-10.007-12.968-15.944-22.973-13.264 c-10.007,2.681-15.945,12.967-13.264,22.974l6.452,24.079l-26.958-15.564c-8.97-5.179-20.445-2.105-25.623,6.866 c-5.181,8.972-2.107,20.444,6.866,25.623l26.958,15.564l-24.079,6.452c-10.007,2.681-15.945,12.967-13.264,22.974 c2.245,8.381,9.824,13.908,18.107,13.908c1.606,0,3.241-0.209,4.867-0.644l60.317-16.162l44.27,25.56v61.468l-44.272,25.561 l-60.318-16.162c-10.008-2.68-20.293,3.258-22.974,13.264c-2.681,10.007,3.256,20.293,13.264,22.974l24.078,6.452L48.071,354.39 c-8.972,5.18-12.046,16.652-6.866,25.623c3.474,6.018,9.779,9.382,16.263,9.382c3.183,0,6.407-0.811,9.361-2.516l26.959-15.564 l-6.452,24.079c-2.681,10.007,3.256,20.293,13.264,22.974c1.626,0.435,3.259,0.644,4.867,0.644c8.282,0,15.861-5.528,18.107-13.908 l16.162-60.316l44.272-25.561l53.229,30.732v51.115l-44.153,44.153c-7.327,7.326-7.327,19.203,0,26.528 c3.663,3.663,8.463,5.494,13.264,5.494s9.601-1.831,13.263-5.494l17.626-17.626v31.129c0,10.36,8.398,18.758,18.758,18.758 c10.359,0,18.758-8.399,18.758-18.758v-31.129l17.626,17.626c3.663,3.663,8.463,5.494,13.264,5.494 c4.801,0,9.601-1.831,13.264-5.494c7.327-7.326,7.327-19.203,0-26.528l-44.153-44.153v-51.112l53.233-30.734l44.267,25.557 l16.163,60.317c2.245,8.381,9.824,13.908,18.107,13.908c1.606,0,3.241-0.209,4.867-0.644c10.007-2.681,15.945-12.967,13.264-22.974 l-6.453-24.08l26.959,15.565c2.954,1.706,6.179,2.516,9.362,2.516c6.482,0,12.788-3.365,16.263-9.382 c5.181-8.972,2.107-20.444-6.866-25.623l-26.958-15.564l24.077-6.452C471.044,329.693,476.982,319.407,474.3,309.4z M309.23,286.737 l-53.232,30.734l-53.232-30.734v-61.468l53.232-30.734l53.232,30.734V286.737z"/> <path style="opacity:0.1;enable-background:new ;" d="M125.341,309.779l-4.363,2.518l-60.316-16.162 c-10.008-2.68-20.293,3.258-22.974,13.264c-2.681,10.007,3.256,20.293,13.264,22.974l24.078,6.452L48.071,354.39 c-8.971,5.18-12.046,16.652-6.866,25.623c3.474,6.018,9.779,9.382,16.263,9.382c3.182,0,6.407-0.811,9.361-2.516l26.959-15.564 l-6.452,24.079c-2.681,10.007,3.256,20.293,13.264,22.974c1.626,0.435,3.259,0.644,4.867,0.644c8.281,0,15.861-5.528,18.106-13.908 l16.162-60.316l6.952-4.013C139.024,330.861,131.885,320.522,125.341,309.779z"/> <path style="opacity:0.1;enable-background:new ;" d="M37.688,202.607c2.246,8.381,9.824,13.908,18.107,13.908 c1.606,0,3.24-0.209,4.867-0.644l23.901-6.404c-5.575-24.391-8.526-49.78-8.526-75.859c0-1.051,0.03-2.094,0.039-3.142l-9.246-5.338 c-8.97-5.179-20.445-2.105-25.623,6.866c-5.181,8.972-2.105,20.444,6.866,25.623l26.958,15.564l-24.079,6.452 C40.945,182.315,35.006,192.6,37.688,202.607z"/> <path style="opacity:0.1;enable-background:new ;" d="M224.35,413.96l-31.268,31.268c-7.327,7.326-7.327,19.203,0,26.528 c3.663,3.663,8.463,5.494,13.264,5.494s9.601-1.831,13.263-5.494l17.626-17.626v31.129c0,10.36,8.398,18.758,18.758,18.758 c10.36,0,18.758-8.399,18.758-18.758V454.13l17.626,17.626c3.663,3.663,8.463,5.494,13.264,5.494c4.801,0,9.601-1.831,13.264-5.494 c3.184-3.184,4.981-7.229,5.397-11.384C288.207,450.361,254.532,434.537,224.35,413.96z"/> <path style="fill:#8ac2ff;" d="M479.341,327.626c3.571-6.187,4.52-13.393,2.671-20.293v0.001 c-3.815-14.241-18.507-22.723-32.751-18.91l-57.12,15.306l-37.41-21.599v-52.255l37.41-21.599l57.123,15.306 c2.267,0.608,4.6,0.915,6.932,0.915c12.074,0,22.691-8.153,25.818-19.824c1.849-6.9,0.902-14.106-2.671-20.293 c-3.571-6.186-9.338-10.61-16.238-12.459l-5.462-1.463l10.268-5.928c6.186-3.571,10.611-9.337,12.459-16.237 c1.849-6.9,0.901-14.106-2.672-20.293c-3.572-6.187-9.338-10.61-16.237-12.459c-6.901-1.849-14.107-0.899-20.292,2.673 l-10.269,5.928l1.464-5.462c1.849-6.9,0.902-14.106-2.671-20.292c-3.571-6.187-9.338-10.611-16.24-12.46 c-14.244-3.812-28.934,4.672-32.749,18.91l-15.307,57.123l-37.411,21.6l-45.25-26.125v-43.204l41.815-41.816 c5.052-5.051,7.833-11.766,7.833-18.909c0-7.144-2.781-13.858-7.832-18.909s-11.766-7.832-18.91-7.832 c-7.143,0-13.859,2.781-18.909,7.832l-3.998,3.998V26.741C282.736,11.995,270.74,0,255.995,0c-14.746,0-26.742,11.995-26.742,26.741 v11.856l-3.998-3.998c-5.05-5.052-11.765-7.832-18.909-7.832c-7.144,0-13.859,2.781-18.909,7.831 c-5.052,5.052-7.833,11.766-7.833,18.91c0,7.142,2.781,13.858,7.832,18.909l41.816,41.816v43.207l-45.245,26.123L146.59,161.96 l-15.305-57.123c-1.848-6.899-6.274-12.666-12.459-16.237c-6.187-3.57-13.388-4.521-20.292-2.672 c-6.899,1.849-12.666,6.274-16.238,12.46c-3.571,6.187-4.52,13.393-2.671,20.292l1.464,5.462l-10.268-5.928 c-12.77-7.371-29.155-2.983-36.529,9.787c-3.572,6.187-4.521,13.393-2.672,20.293c1.848,6.9,6.274,12.667,12.459,16.237 l10.268,5.928l-5.463,1.463c-14.242,3.816-22.725,18.509-18.909,32.752c3.127,11.673,13.743,19.825,25.818,19.825 c2.332,0,4.665-0.308,6.934-0.915l57.123-15.306l37.414,21.602v52.25l-37.415,21.602l-57.124-15.307 c-14.242-3.816-28.936,4.669-32.751,18.91c-3.816,14.243,4.667,28.935,18.909,32.751l5.462,1.464l-10.266,5.927 c-6.187,3.571-10.611,9.338-12.459,16.237c-1.849,6.9-0.901,14.106,2.672,20.292c4.762,8.249,13.642,13.374,23.176,13.374 c4.673,0,9.289-1.24,13.352-3.586l10.268-5.928l-1.464,5.462c-1.849,6.9-0.902,14.106,2.671,20.293 c3.571,6.186,9.338,10.61,16.236,12.459c2.266,0.608,4.599,0.915,6.935,0.915c12.074,0,22.691-8.153,25.818-19.825l15.306-57.123 l37.416-21.602l45.245,26.123v43.2l-41.815,41.816c-5.052,5.051-7.833,11.766-7.833,18.909c0,7.144,2.781,13.858,7.833,18.91 c5.051,5.051,11.766,7.831,18.909,7.831c7.144,0,13.859-2.781,18.909-7.832l3.998-3.998v11.856 c0,14.746,11.997,26.741,26.742,26.741s26.741-11.996,26.741-26.741v-11.854l3.998,3.997c5.05,5.051,11.765,7.832,18.909,7.832 c7.142,0,13.857-2.781,18.909-7.831c5.052-5.052,7.833-11.766,7.833-18.91c0-7.142-2.781-13.858-7.832-18.909l-41.816-41.816V354.57 l45.25-26.125l37.411,21.6l15.307,57.124c3.127,11.673,13.743,19.825,25.818,19.825c2.333,0,4.667-0.308,6.933-0.915 c6.899-1.849,12.666-6.274,16.238-12.46c3.571-6.187,4.52-13.393,2.671-20.293l-1.464-5.463l10.269,5.928 c4.063,2.346,8.68,3.586,13.352,3.586c9.533,0,18.415-5.124,23.176-13.373c3.571-6.187,4.521-13.393,2.672-20.293 c-1.848-6.9-6.274-12.666-12.459-16.237l-10.267-5.927l5.461-1.464C470.003,338.237,475.77,333.812,479.341,327.626z M434.893,331.114c-3.119,0.836-5.428,3.468-5.848,6.67c-0.422,3.202,1.127,6.342,3.924,7.956l26.957,15.563 c2.493,1.439,4.276,3.763,5.021,6.543c0.744,2.779,0.363,5.683-1.077,8.176c-1.92,3.324-5.502,5.389-9.349,5.389 c-1.873,0-3.73-0.5-5.369-1.447l-26.959-15.565c-2.796-1.616-6.29-1.386-8.851,0.58c-2.562,1.966-3.687,5.282-2.852,8.401 l6.452,24.08c0.744,2.78,0.363,5.683-1.076,8.176c-1.44,2.493-3.763,4.276-6.544,5.021c-0.918,0.246-1.86,0.371-2.798,0.371 c-4.86,0-9.135-3.286-10.396-7.991l-16.163-60.318c-0.548-2.045-1.885-3.788-3.719-4.848l-44.267-25.557 c-2.47-1.426-5.514-1.426-7.983,0l-53.233,30.734c-2.47,1.426-3.992,4.062-3.992,6.914v51.112c0,2.117,0.841,4.148,2.338,5.645 l44.155,44.153c2.035,2.035,3.156,4.741,3.156,7.619s-1.121,5.584-3.156,7.618c-2.035,2.035-4.741,3.156-7.619,3.156 c-2.878,0-5.583-1.121-7.617-3.155l-17.627-17.626c-2.284-2.284-5.717-2.968-8.701-1.731c-2.984,1.236-4.928,4.147-4.928,7.376 v31.129c0,5.942-4.834,10.774-10.774,10.774c-5.942,0-10.775-4.833-10.775-10.774v-31.129c0-3.23-1.945-6.14-4.928-7.376 c-0.988-0.409-2.025-0.608-3.053-0.608c-2.078,0-4.119,0.811-5.648,2.339l-17.627,17.627c-2.034,2.034-4.739,3.155-7.617,3.155 s-5.584-1.121-7.619-3.156c-2.035-2.035-3.156-4.741-3.156-7.618c0-2.878,1.121-5.584,3.157-7.619l44.153-44.153 c1.497-1.497,2.338-3.528,2.338-5.645V349.96c0-2.852-1.522-5.487-3.992-6.914l-53.229-30.733c-2.47-1.426-5.514-1.426-7.983,0 l-44.273,25.561c-1.834,1.059-3.171,2.803-3.719,4.847l-16.162,60.317c-1.261,4.704-5.535,7.99-10.396,7.99 c-0.939,0-1.881-0.125-2.799-0.371c-2.78-0.745-5.104-2.528-6.543-5.02c-1.439-2.492-1.82-5.396-1.076-8.176l6.453-24.079 c0.836-3.119-0.288-6.435-2.852-8.401c-2.56-1.965-6.055-2.195-8.851-0.58l-26.957,15.564c-1.639,0.946-3.496,1.447-5.369,1.447 c-3.847,0-7.429-2.065-9.349-5.39c-1.44-2.492-1.821-5.396-1.077-8.175c0.745-2.78,2.528-5.104,5.021-6.543l26.957-15.563 c2.796-1.615,4.345-4.754,3.924-7.956c-0.422-3.201-2.729-5.833-5.848-6.67l-24.078-6.452c-5.74-1.537-9.157-7.458-7.619-13.196 c1.537-5.738,7.46-9.16,13.196-7.618l60.316,16.162c2.044,0.547,4.224,0.262,6.058-0.797l44.272-25.561 c2.47-1.426,3.992-4.061,3.992-6.914v-61.47c0-2.853-1.522-5.487-3.992-6.914l-44.27-25.56c-1.835-1.059-4.014-1.345-6.058-0.797 L58.597,208.16c-0.921,0.247-1.863,0.371-2.802,0.371c-4.86,0-9.135-3.286-10.396-7.99c-1.537-5.74,1.881-11.659,7.619-13.196 l24.079-6.452c3.119-0.836,5.428-3.468,5.848-6.67c0.422-3.201-1.127-6.341-3.924-7.956l-26.958-15.564 c-2.493-1.439-4.276-3.763-5.021-6.542c-0.744-2.78-0.363-5.683,1.077-8.176c2.971-5.144,9.572-6.915,14.718-3.944l26.958,15.564 c2.796,1.616,6.29,1.386,8.851-0.58c2.562-1.966,3.687-5.281,2.852-8.4l-6.452-24.079c-0.744-2.78-0.363-5.683,1.076-8.176 c1.44-2.493,3.763-4.276,6.543-5.02c2.778-0.744,5.681-0.362,8.175,1.077c2.493,1.439,4.276,3.763,5.021,6.542l16.162,60.316 c0.548,2.045,1.885,3.789,3.719,4.848l44.273,25.561c2.47,1.426,5.514,1.426,7.983,0l53.229-30.732 c2.47-1.426,3.992-4.061,3.992-6.914v-51.124c0-2.117-0.841-4.148-2.338-5.645l-44.154-44.154c-2.035-2.035-3.156-4.741-3.156-7.619 c0-2.878,1.121-5.584,3.157-7.619c2.034-2.035,4.74-3.155,7.618-3.155c2.877,0,5.583,1.12,7.618,3.155l17.626,17.626 c2.283,2.283,5.715,2.967,8.701,1.731c2.984-1.236,4.928-4.147,4.928-7.376V26.741c0-5.942,4.834-10.774,10.775-10.774 c5.941,0,10.774,4.834,10.774,10.774V57.87c0,3.23,1.945,6.14,4.928,7.376c2.984,1.236,6.417,0.554,8.701-1.731l17.627-17.626 c2.034-2.035,4.74-3.155,7.617-3.155c2.878,0,5.584,1.121,7.619,3.156s3.156,4.741,3.156,7.618c0,2.878-1.121,5.584-3.157,7.619 l-44.153,44.154c-1.497,1.497-2.338,3.528-2.338,5.645v51.119c0,2.853,1.522,5.487,3.992,6.914l53.233,30.734 c2.47,1.426,5.514,1.426,7.983,0l44.267-25.558c1.834-1.059,3.171-2.803,3.719-4.848l16.163-60.317 c1.538-5.737,7.462-9.153,13.195-7.618c2.78,0.745,5.104,2.528,6.543,5.02c1.439,2.492,1.82,5.396,1.076,8.176l-6.452,24.079 c-0.836,3.119,0.29,6.435,2.852,8.401c2.561,1.965,6.056,2.197,8.851,0.58l26.96-15.565c2.493-1.439,5.395-1.82,8.175-1.077 c2.779,0.745,5.103,2.528,6.542,5.021c1.44,2.492,1.821,5.396,1.077,8.176c-0.745,2.779-2.528,5.103-5.021,6.542l-26.958,15.564 c-2.796,1.615-4.345,4.754-3.924,7.956c0.422,3.201,2.729,5.834,5.848,6.67l24.078,6.452c2.78,0.745,5.104,2.527,6.544,5.02 c1.439,2.493,1.821,5.396,1.076,8.177c-1.26,4.704-5.535,7.99-10.396,7.99c-0.938,0-1.881-0.126-2.801-0.371l-60.315-16.162 c-2.043-0.546-4.223-0.261-6.058,0.797l-44.265,25.557c-2.47,1.426-3.992,4.061-3.992,6.914v61.473c0,2.853,1.522,5.487,3.992,6.914 l44.265,25.556c1.835,1.06,4.014,1.344,6.058,0.798l60.314-16.162c5.737-1.534,11.659,1.88,13.197,7.618l0,0 c0.745,2.78,0.363,5.683-1.076,8.176c-1.44,2.493-3.763,4.276-6.544,5.02L434.893,331.114z M313.221,218.356l-53.232-30.734 c-2.47-1.426-5.514-1.426-7.983,0l-53.233,30.734c-2.47,1.425-3.992,4.061-3.992,6.914v61.468c0,2.853,1.522,5.487,3.992,6.914 l53.233,30.733c1.235,0.713,2.613,1.07,3.992,1.07c1.378,0,2.757-0.357,3.992-1.07l53.232-30.733 c2.47-1.426,3.992-4.061,3.992-6.914v-61.468C317.213,222.418,315.692,219.782,313.221,218.356z M301.246,282.128l-45.248,26.125 l-45.25-26.125v-52.25l45.25-26.124l45.249,26.124v52.25H301.246z"/> </g>
</svg>