<svg width="40" height="39" xmlns="http://www.w3.org/2000/svg" preserveAspectRatio="xMidYMid meet">

 <g>
  <path d="m2.265241,35.401951c0,0 -0.072161,-0.202915 0,-0.377121c0.034016,-0.082119 0.026575,-0.279572 0.125707,-0.439972c0.073889,-0.119556 0.111267,-0.190247 0.125707,-0.251415c0.03229,-0.136787 0.043527,-0.200253 0.125707,-0.31427c0.051973,-0.072109 0.073733,-0.242157 0.125707,-0.314266c0.082177,-0.114014 0.156723,-0.180927 0.188561,-0.377121c0.030204,-0.186127 0.122889,-0.22308 0.188561,-0.439976c0.054642,-0.18047 0.062854,-0.377121 0.125707,-0.565681c0.062854,-0.18856 0.154545,-0.357853 0.188561,-0.439976c0.072158,-0.174208 0.071923,-0.247274 0.125707,-0.377121c0.076062,-0.18363 0.158357,-0.316704 0.188561,-0.502829c0.031838,-0.196194 0.084067,-0.396605 0.188561,-0.565681c0.046732,-0.075613 0.151847,-0.236399 0.251414,-0.439976c0.087326,-0.178549 0.175352,-0.382051 0.251414,-0.565681c0.053784,-0.129847 0.096826,-0.317631 0.125707,-0.439976c0.064581,-0.273569 0.101235,-0.449986 0.188561,-0.628534c0.099567,-0.203577 0.145238,-0.319313 0.18856,-0.502829c0.03229,-0.136786 0.141829,-0.30151 0.18856,-0.377123c0.104494,-0.169077 0.141829,-0.364361 0.188561,-0.439974c0.104495,-0.169075 0.084067,-0.396606 0.18856,-0.565681c0.046731,-0.075615 0.105571,-0.190186 0.125707,-0.314268c0.031838,-0.196194 0.136587,-0.305012 0.188561,-0.377123c0.082177,-0.114016 0.071923,-0.247274 0.125707,-0.377121c0.076062,-0.18363 0.125707,-0.251413 0.18856,-0.377121c0.062853,-0.125708 0.157952,-0.28875 0.251414,-0.439974c0.104496,-0.169077 0.08706,-0.400505 0.251414,-0.628536c0.051974,-0.072111 0.178959,-0.254013 0.251414,-0.502829c0.055571,-0.190834 0.139799,-0.371014 0.18856,-0.502829c0.089911,-0.243055 0.15627,-0.30319 0.18856,-0.439976c0.043322,-0.183516 0.095503,-0.316702 0.125707,-0.502829c0.031838,-0.196194 0.15627,-0.303188 0.188561,-0.439974c0.028882,-0.122345 0.074718,-0.277517 0.125707,-0.314268c0.161242,-0.116217 0.112498,-0.319199 0.18856,-0.502829c0.053784,-0.129847 0.175353,-0.319199 0.251415,-0.502829c0.107568,-0.259691 0.18087,-0.444122 0.251413,-0.565681c0.113748,-0.196009 0.180871,-0.381269 0.251414,-0.502829c0.113748,-0.196009 0.12373,-0.403023 0.251414,-0.628536c0.043796,-0.077351 0.175352,-0.256344 0.251414,-0.439974c0.107569,-0.259695 0.260484,-0.49869 0.314268,-0.628536c0.076062,-0.18363 0.175352,-0.382051 0.251414,-0.565681c0.107569,-0.259693 0.214702,-0.299252 0.314268,-0.502829c0.087325,-0.178549 0.18856,-0.314268 0.251414,-0.439976c0.062853,-0.125707 0.183381,-0.150023 0.251413,-0.314267c0.048106,-0.116138 0.084614,-0.170048 0.188561,-0.314268c0.082178,-0.114017 0.169236,-0.200252 0.251414,-0.314268c0.103948,-0.144219 0.199441,-0.242158 0.251414,-0.314267c0.082178,-0.114016 0.199441,-0.179305 0.251414,-0.251414c0.082178,-0.114016 0.164508,-0.256199 0.18856,-0.314268c0.034016,-0.082122 0.125707,-0.18856 0.18856,-0.18856c0.062854,0 0.127388,-0.111267 0.18856,-0.125708c0.136786,-0.03229 0.247275,-0.071922 0.377122,-0.125707c0.183631,-0.076062 0.382165,-0.082386 0.565681,-0.125708c0.136786,-0.03229 0.314267,-0.125708 0.439975,-0.251414c0.062854,-0.062853 0.132207,-0.182673 0.18856,-0.251413c0.143676,-0.175257 0.175352,-0.319199 0.251414,-0.502829c0.053784,-0.129848 0.112499,-0.382051 0.188561,-0.565682c0.107569,-0.259693 0.18856,-0.502829 0.251414,-0.754243c0.062853,-0.251414 0.156722,-0.495195 0.18856,-0.691389c0.040273,-0.248168 0.030563,-0.428897 0.062854,-0.565682c0.043323,-0.183517 0.031015,-0.369488 0.062853,-0.565681c0.030204,-0.186126 -0.023039,-0.378534 0,-0.565682c0.031664,-0.257211 0.062854,-0.439975 0.062854,-0.628535c0,-0.18856 0.062854,-0.377121 0.062854,-0.565682c0,-0.188561 0,-0.314268 0,-0.502829c0,-0.125707 0,-0.251414 0,-0.439975c0,-0.125707 0,-0.251414 0,-0.439975c0,-0.125707 0,-0.314268 0,-0.439975c0,-0.125707 0,-0.251414 0,-0.377121c0,-0.125707 0,-0.251414 0,-0.377121c0,-0.125707 0,-0.18856 0,-0.314268c0,-0.062854 -0.044444,-0.144116 0,-0.188561c0.044444,-0.044444 0.106439,-0.091691 0.18856,-0.125707c0.116138,-0.048106 0.193345,-0.038801 0.251414,-0.062854c0.082122,-0.034016 0.125707,-0.062853 0.18856,-0.062853c0.062854,0 0.125708,0 0.18856,0c0.062854,0 0.125708,0 0.188561,0c0.062853,0 0.125707,0 0.18856,0c0.125708,0 0.200253,0.043529 0.314268,0.125707c0.072109,0.051974 0.18856,0.125707 0.314268,0.18856c0.125706,0.062853 0.270899,0.14692 0.439974,0.251414c0.151226,0.093463 0.251415,0.18856 0.314268,0.251414c0.062853,0.062853 0.136587,0.116451 0.18856,0.18856c0.082178,0.114016 0.144117,0.081264 0.18856,0.125707c0.088888,0.088888 0.062853,0.125707 0.125708,0.18856c0.062853,0.062853 0.067638,0.101654 0.125708,0.125707c0.082121,0.034016 0.136585,0.11645 0.18856,0.188561c0.082178,0.114016 0.106382,0.137398 0.18856,0.251414c0.051973,0.072109 0.137398,0.106383 0.251413,0.18856c0.072111,0.051974 0.152035,0.214888 0.251415,0.314268c0.09938,0.099379 0.18856,0.125708 0.251413,0.188561c0.062855,0.062854 0.10644,0.154544 0.18856,0.18856c0.058071,0.024054 0.125708,0.062854 0.18856,0.125707c0.125708,0.125708 0.179306,0.136587 0.251415,0.188561c0.114016,0.082179 0.169292,0.154544 0.251413,0.18856c0.116138,0.048107 0.190243,0.048413 0.251415,0.062854c0.136786,0.03229 0.177483,0.15627 0.314268,0.18856c0.122343,0.028881 0.18856,0 0.314268,0c0.062853,0 0.125706,0 0.251413,0c0.062853,0 0.125708,0 0.18856,0c0.062853,0 0.190243,0.014441 0.251415,0c0.136784,-0.032291 0.19813,-0.077602 0.314266,-0.125707c0.082123,-0.034016 0.12907,-0.096826 0.251415,-0.125707c0.136786,-0.03229 0.191923,-0.033971 0.314268,-0.062853c0.136784,-0.032291 0.256458,-0.019532 0.439974,-0.062854c0.136786,-0.03229 0.314268,-0.062853 0.502829,-0.062853c0.18856,0 0.314268,0 0.565683,0c0.251413,0 0.377121,0 0.628534,0c0.251415,0 0.377121,0 0.628536,0c0.125708,0 0.251413,0 0.377121,0c0.125708,0 0.18856,0 0.439976,0c0.125706,0 0.251413,0 0.314268,0c0.062853,0 0.251413,0 0.314266,0c0.125708,0 0.254778,-0.028882 0.377123,0c0.136784,0.03229 0.253096,0.048413 0.314266,0.062853c0.136786,0.032291 0.232147,0.154545 0.314268,0.188561c0.116138,0.048107 0.200253,0.043529 0.314268,0.125707c0.14422,0.103948 0.240379,0.069006 0.314268,0.188561c0.033045,0.053467 0.12739,0.17412 0.18856,0.18856c0.136786,0.03229 0.193344,0.101655 0.251413,0.125708c0.082123,0.034016 0.144117,0.081262 0.188562,0.125707c0.044445,0.044444 0.144115,0.081263 0.18856,0.125708c0.044443,0.044444 0.135094,0.092662 0.18856,0.125707c0.119555,0.073889 0.125708,0.125708 0.18856,0.18856c0.062853,0.062854 0.179304,0.136587 0.251413,0.18856c0.114016,0.082178 0.193346,0.101654 0.251415,0.125708c0.082121,0.034017 0.125708,0.125707 0.18856,0.251414c0,0 0.125708,0 0.18856,0.062853c0,0 0.081263,0.081264 0.125708,0.125708c0.044443,0.044444 0.043585,0.091691 0.125708,0.125708c0.058069,0.024053 0.081261,0.081263 0.125706,0.125707c0.044445,0.044445 -0.026033,0.099672 0.062855,0.18856c0.088888,0.088887 0.164507,0.067638 0.18856,0.125708c0.068031,0.164243 0.217398,0.232146 0.251413,0.314267c0.024054,0.058069 0.062855,0.125708 0.125708,0.188561c0.062853,0.062853 -0.003237,0.144482 0.062853,0.251414c0.073889,0.119555 0.144117,0.081263 0.18856,0.125707c0.088888,0.088888 -0.044445,0.20697 0,0.251414c0.088888,0.088889 0.0776,0.072423 0.125708,0.18856c0.034018,0.082123 0.038803,0.130492 0.062855,0.18856c0.068031,0.164244 0.140455,0.198129 0.18856,0.314268c0.034016,0.082121 0.029808,0.197948 0.062851,0.251414c0.073891,0.119556 0.188564,0.125707 0.188564,0.251414c0,0.062854 0.051819,0.131861 0.125706,0.251414c0.066086,0.106933 0.062855,0.251414 0.062855,0.377121c0,0.062854 -0.024052,0.130492 0,0.18856c0.068031,0.164244 0.154545,0.169292 0.18856,0.251414c0.048107,0.116138 0.028835,0.169294 0.062851,0.251414c0.048107,0.116139 0,0.188561 0,0.314268c0,0.062854 -0.06609,0.207335 0,0.314268c0.073891,0.119555 0.12571,0.18856 0.12571,0.314267c0,0.188561 0,0.314268 0,0.439975c0,0.125708 0,0.251414 0,0.377122c0,0.062854 0,0.18856 0,0.314268c0,0.062853 0,0.18856 0,0.251413c0,0.125708 0,0.251415 0,0.314268c0,0.062853 0,0.125708 0,0.251415c0,0.062853 0,0.18856 0,0.251413c0,0.062853 -0.062855,0.18856 -0.062855,0.251415c0,0.125706 -0.062855,0.251413 -0.062855,0.314266c0,0.062855 0,0.18856 0,0.251415c0,0.062853 -0.062851,0.125708 -0.062851,0.18856c0,0.062853 -0.12571,0.125708 -0.12571,0.18856c0,0.062853 -0.028835,0.10644 -0.062851,0.18856c-0.024052,0.058071 0,0.18856 0,0.251415c0,0.125706 0,0.251413 0,0.314266c0,0.062855 0,0.125708 0,0.188562c0,0.062853 0,0.18856 0,0.251413c0,0.062853 0,0.125708 0,0.18856c0,0.062853 0,0.125708 0,0.18856c0,0.062855 0.125706,0.125708 0.125706,0.18856c0,0.062855 0.038803,0.130491 0.062855,0.18856c0.034016,0.082121 0.062851,0.125708 0.062851,0.188562c0,0.062853 0.051819,0.069004 0.12571,0.18856c0.033043,0.053465 0.062851,0.125706 0.062851,0.18856c0,0.062853 0.011692,0.10638 0.12571,0.18856c0.072109,0.051973 0.062851,0.125708 0.062851,0.125708c0,0.062853 0.101658,0.067636 0.12571,0.125706c0.034016,0.082121 0.081261,0.081263 0.125706,0.125708c0.044445,0.044443 0.051819,0.069004 0.12571,0.18856c0.033043,0.053465 0.062851,0.062853 0.062851,0.125708c0,0 0.144119,0.01841 0.18856,0.062853c0.044445,0.044445 -0.044445,0.081264 0,0.125708c0.08889,0.08889 0.144115,0.01841 0.18856,0.062853c0.044445,0.044445 0.081264,0.01841 0.12571,0.062855c0.044445,0.044443 0.081261,0.018408 0.125706,0.062853c0.044445,0.044443 -0.044445,0.081263 0,0.125708c0.088886,0.088888 0.144115,0.018408 0.18856,0.062853c0.044445,0.044445 0.036819,0.036819 0.125706,0.125708c0.044445,0.044443 0.062855,0.062853 0.12571,0.125708c0.062855,0.062853 0.081261,0.081263 0.125706,0.125706c0.044445,0.044445 0.099674,-0.026033 0.18856,0.062855c0.044445,0.044443 0.01841,0.081263 0.062855,0.125706c0.088886,0.088888 0.125706,0.062855 0.18856,0.062855c0,0 0.036819,-0.026035 0.125706,0.062853c0.044445,0.044445 0.081264,0.01841 0.12571,0.062855c0.044445,0.044443 -0.044445,0.081263 0,0.125706c0.088886,0.088888 0.18856,0 0.18856,0.062855c0,0 0,0.062853 0.125706,0.062853c0.062855,0 0.062855,0.062853 0.062855,0.062853c0.125706,0.062855 0.18856,0.125708 0.251415,0.125708c0,0 -0.011078,0.093418 0.125706,0.125708c0.061172,0.014441 0.01841,0.01841 0.062855,0.062853c0.088886,0.088888 0.144115,0.01841 0.18856,0.062855c0.044445,0.044443 -0.044445,0.081263 0,0.125706c0.088886,0.088888 0.144115,0.01841 0.18856,0.062855c0.044441,0.044443 0.062851,0.062853 0.062851,0.062853c0,0.062853 0.081264,0.144117 0.12571,0.18856c0.044441,0.044443 0.029808,0.072243 0.062851,0.125708c0.073891,0.119556 0.081264,0.144117 0.12571,0.18856c0.044445,0.044445 0.062855,0.062853 0.062855,0.125708c0,0 0,0.062853 0,0.125708c0,0.062853 0,0.125706 0,0.18856c0,0.062853 0,0.125706 0,0.251413c0,0.062853 0,0.125708 0,0.125708c0,0.062853 -0.081264,0.081263 -0.12571,0.125708c-0.044445,0.044445 -0.062855,0.062853 -0.251415,0.062853c0,0 -0.18856,0.062853 -0.377121,0.062853c-0.251411,0 -0.502827,0 -0.879948,0c-0.18856,0 -0.439976,0 -0.565681,0c-0.12571,0 -0.31427,0 -0.502831,0c-0.18856,0 -0.377121,0 -0.439976,0c-0.125706,0 -0.193604,-0.043324 -0.377121,0c-0.136784,0.032291 -0.251415,0.062855 -0.439976,0.062855c-0.18856,0 -0.377121,0.062853 -0.628532,0.062853c-0.18856,0 -0.379559,-0.030203 -0.565683,0c-0.196194,0.031837 -0.251415,0.062853 -0.439976,0.062853c-0.062853,0 -0.260983,0.014748 -0.377121,0.062855c-0.082121,0.034016 -0.20697,0.081263 -0.251413,0.125706c-0.133333,0.133333 -0.25646,0.019533 -0.439976,0.062855c-0.136786,0.03229 -0.179304,0.073732 -0.251413,0.125708c-0.114016,0.082178 -0.30151,0.078974 -0.377123,0.125706c-0.169077,0.104494 -0.263105,0.04353 -0.377121,0.125708c-0.072109,0.051973 -0.251413,0.062855 -0.439974,0.125708c-0.188562,0.062855 -0.253038,0.105572 -0.377123,0.125708c-0.196194,0.031837 -0.253096,0.111265 -0.314266,0.125706c-0.136786,0.032291 -0.200253,0.043531 -0.314268,0.125708c-0.072111,0.051973 -0.20697,0.081263 -0.251415,0.125708c-0.044443,0.044443 -0.151808,0.074717 -0.18856,0.125708c-0.116217,0.161242 -0.263105,0.106382 -0.377121,0.18856c-0.072109,0.051973 -0.251415,0.125706 -0.314268,0.18856c-0.125706,0.125708 -0.332678,0.144117 -0.377121,0.18856c-0.044443,0.044443 0.009256,0.136587 -0.062853,0.18856c-0.114016,0.082178 -0.240379,0.069008 -0.314268,0.18856c-0.033043,0.053465 0.009256,0.136587 -0.062855,0.18856c-0.114016,0.082178 -0.116449,0.136587 -0.18856,0.18856c-0.114016,0.082178 -0.164509,0.130491 -0.18856,0.18856c-0.034016,0.082123 -0.131859,0.177526 -0.251413,0.251415c-0.106934,0.06609 -0.314268,0.18856 -0.439976,0.251413c-0.125708,0.062855 -0.301508,0.204683 -0.377121,0.251415c-0.169075,0.104496 -0.333799,0.159327 -0.439976,0.251413c-0.150154,0.130228 -0.432182,0.147276 -0.754242,0.251415c-0.246582,0.079733 -0.439976,0.125706 -0.628536,0.18856c-0.18856,0.062853 -0.327753,-0.028215 -0.628534,0.062853c-0.2169,0.065672 -0.439976,0.18856 -0.628536,0.251415c-0.18856,0.062853 -0.439976,0.125706 -0.628536,0.18856c-0.18856,0.062853 -0.449986,0.101233 -0.628536,0.18856c-0.203577,0.099567 -0.439974,0.251413 -0.628534,0.314268c-0.18856,0.062853 -0.314268,0.125706 -0.439976,0.18856c-0.251413,0.125708 -0.41098,0.163824 -0.565681,0.251413c-0.225515,0.127684 -0.437702,0.13299 -0.628536,0.18856c-0.248816,0.072456 -0.444904,0.049646 -0.628534,0.125708c-0.259695,0.107569 -0.427761,0.216743 -0.691389,0.314266c-0.243055,0.089912 -0.56761,0.245903 -0.754244,0.31427c-0.317823,0.116421 -0.562125,0.197845 -0.87995,0.314266c-0.186633,0.068367 -0.421286,0.222588 -0.628535,0.31427c-0.236998,0.104839 -0.495039,0.210129 -0.817097,0.314266c-0.246582,0.079735 -0.599542,0.289532 -0.754243,0.377121c-0.225514,0.127682 -0.456102,0.21489 -0.754243,0.31427c-0.238513,0.079506 -0.504412,0.118248 -0.817096,0.18856c-0.252838,0.056854 -0.504413,0.118248 -0.817097,0.18856c-0.252838,0.056854 -0.498164,0.156979 -0.817096,0.18856c-0.312738,0.030968 -0.628536,0.062855 -0.754243,0.062855c-0.18856,0 -0.371325,0.156895 -0.628535,0.18856c-0.249531,0.03072 -0.502829,0.125706 -0.69139,0.18856c-0.18856,0.062851 -0.439974,0.125706 -0.628536,0.18856c-0.18856,0.062851 -0.385212,0.008209 -0.565682,0.062851c-0.216899,0.065674 -0.377121,0.18856 -0.565682,0.18856c-0.125707,0 -0.264717,-0.017967 -0.439975,0.12571c-0.06874,0.056351 -0.240336,0.093414 -0.377121,0.125706c-0.183517,0.043324 -0.319312,0.019535 -0.502829,0.062855c-0.136784,0.032288 -0.243781,0.093868 -0.439975,0.125706c-0.124084,0.020138 -0.314268,0 -0.439975,0c-0.125707,0 -0.251414,0 -0.439975,0c-0.125707,0 -0.251414,0 -0.314268,0c-0.062854,0 -0.027318,-0.072342 -0.188561,-0.18856c-0.050989,-0.036751 -0.062854,-0.18856 -0.062854,-0.251415c0,-0.18856 -0.040272,-0.380367 0,-0.628532c0.031838,-0.196194 0.070136,-0.374851 0.125707,-0.565685c0.072455,-0.248814 0.062853,-0.439972 0.125707,-0.628532c0.062854,-0.18856 0.115639,-0.440788 0.125707,-0.502831c0.031838,-0.196194 0.069353,-0.371235 0.125707,-0.439976c0.143675,-0.175255 -0.05207,-0.387905 0.125707,-0.565681c0.044444,-0.044445 0.111267,-0.190243 0.125707,-0.251413c0.032291,-0.136786 0.115639,-0.315081 0.125707,-0.377121c0.031838,-0.196194 0.071923,-0.247276 0.125707,-0.377123c0.076062,-0.18363 0.183382,-0.338583 0.251414,-0.502829c0.048105,-0.116137 0.016122,-0.301508 0.062854,-0.377121c0.104494,-0.169077 0.151847,-0.362104 0.251414,-0.565681c0.087326,-0.178549 0.053547,-0.265768 0.125707,-0.439976c0.034016,-0.082121 -0.003235,-0.270187 0.062854,-0.377121c0.073889,-0.119555 0.125707,-0.125708 0.125707,-0.251413l0,0l0.062853,0" id="svg_3" stroke-opacity="null" stroke-width="null" stroke="null" fill="#fff"/>
  <g id="svg_1" fill="#000" transform="translate(0,39) scale(0.10000000149011612,-0.10000000149011612) ">
   <path fill="#000" id="svg_2" d="m130,336c0,-53 -8,-76 -25,-76c-7,0 -25,-35 -41,-77c-15,-43 -35,-100 -45,-126c-16,-44 -16,-47 -1,-43c9,3 70,19 134,37c88,24 118,36 121,51c4,14 15,18 55,18c28,0 53,4 56,8c3,5 -8,21 -23,36c-24,23 -28,34 -24,65c4,30 0,43 -23,70c-25,30 -32,33 -70,28c-37,-4 -46,-1 -70,24c-15,16 -31,29 -36,29c-4,0 -8,-20 -8,-44zm58,-21c12,-15 23,-21 27,-15c11,17 64,11 85,-10c21,-21 27,-74 10,-85c-6,-3 4,-18 22,-33l32,-27l-50,-7c-97,-13 -124,-10 -124,12c0,11 5,20 10,20c6,0 10,-4 10,-10c0,-12 56,-12 84,-1c18,7 18,8 -5,25c-22,16 -23,18 -6,27c21,12 22,52 3,69c-21,16 -60,9 -64,-13c-3,-15 1,-17 24,-11c26,7 27,6 21,-26c-4,-18 -7,-41 -7,-51c0,-11 -4,-19 -10,-19c-5,0 -10,6 -10,13c0,8 -15,11 -50,9c-45,-4 -50,-2 -50,17c0,12 5,21 10,21c6,0 10,-4 10,-10c0,-5 20,-10 45,-10c33,0 45,4 45,14c0,23 -22,31 -35,13c-18,-25 -21,-21 -17,16c2,22 -2,38 -12,46c-14,12 -16,10 -16,-8c0,-11 -4,-21 -10,-21c-5,0 -10,18 -10,40c0,46 10,50 38,15zm2,-75c0,-5 -14,-10 -30,-10c-26,0 -31,-5 -36,-30c-8,-38 -4,-45 25,-41c21,2 23,0 19,-29c-4,-28 -2,-31 16,-26c80,19 82,19 66,4c-14,-14 -200,-72 -207,-64c-7,7 61,182 75,194c19,14 72,16 72,2z"/>
  </g>
 </g>
</svg>