<svg xmlns="http://www.w3.org/2000/svg" version="1.1" xmlns:xlink="http://www.w3.org/1999/xlink" width="512" height="512" x="0" y="0" viewBox="0 0 64 64" style="enable-background:new 0 0 512 512" xml:space="preserve" class=""><g><path d="M24.8 24.46c-.64-.94-1.65-1.53-3.02-1.77-.39-.07-.8-.11-1.2-.11-2.12 0-4.06.92-5.77 1.72-1.26.6-2.44 1.15-3.35 1.15-2.46 0-4.26-.3-4.28-.31-.1-.02-.21 0-.31.05-.12.06-1.16.6-1.36 1.5-.07.29-.06.75.32 1.24.75.96 2.84 1.99 4.91 1.99.92 0 1.75-.2 2.46-.59 1.56-.86 3.18-1.43 4.02-1.43.28 0 .37.06.38.08.02.03.04.24-.17.7-1.41 3.02-8.77 18.17-14.61 20.04-.19.06-.32.22-.35.42-.02.19.07.38.24.48.27.17.71.26 1.28.26 3.77 0 15.8-4.05 21.44-22.08.02-.07.37-1.85-.63-3.34zm-.33 3.09C19.39 43.74 9.14 48.27 4.85 48.82c5.64-3.68 11.65-15.79 13.49-19.72.33-.71.36-1.25.11-1.66-.23-.36-.64-.54-1.23-.54-1.23 0-3.13.8-4.5 1.55-.57.31-1.23.47-1.98.47-1.84 0-3.61-.95-4.13-1.61-.15-.19-.14-.32-.12-.4.06-.29.44-.59.7-.75.52.08 2.14.29 4.27.29 1.13 0 2.42-.6 3.78-1.24 1.61-.76 3.45-1.63 5.34-1.63.34 0 .69.03 1.02.09 1.09.19 1.89.64 2.36 1.34.46.67.55 1.44.55 1.95 0 .34-.04.57-.04.59z" fill="#000000" opacity="1" data-original="#000000" class=""></path><path fill="#99e7ff" d="M24.51 26.96c0 .34-.04.57-.04.59C19.39 43.74 9.14 48.27 4.85 48.82c5.64-3.68 11.65-15.79 13.49-19.72.33-.71.36-1.25.11-1.66-.23-.36-.64-.54-1.23-.54-1.23 0-3.13.8-4.5 1.55-.57.31-1.23.47-1.98.47-1.84 0-3.61-.95-4.13-1.61-.15-.19-.14-.32-.12-.4.06-.29.44-.59.7-.75.52.08 2.14.29 4.27.29 1.13 0 2.42-.6 3.78-1.24 1.61-.76 3.45-1.63 5.34-1.63.34 0 .69.03 1.02.09 1.09.19 1.89.64 2.36 1.34.46.67.55 1.44.55 1.95z" opacity="1" data-original="#ed1c24" class=""></path><path d="M61.51 47.03c-.18-.73-1.46-1.67-2.3-1.67-.06 0-6.61-.39-11.46-5.24-3.82-3.82-8.43-8.17-9.97-9.6 7.8-3.97 16.68-8.88 16.37-10.46-.37-1.86-8.26-4.26-9.8-4.26-.73 0-.85.41-.87.58-.02.26.02.62.09 1.12.14 1.13.39 3.01-.44 3.61-1.26.91-5.55 5.79-6.8 7.22l-3.6-3.32c-.21-4.87-.06-11.97.96-12.89.68-.61 2.25-2.2 2.11-3.58-.05-.5-.31-.91-.76-1.18-.06-.04-7.1-3.56-7.48-3.56-.18 0-1.79.03-2.44 1.03-.35.54-.35 1.2 0 1.97.36.79.74 1.4 1.08 1.94.68 1.07 1.18 1.85 1.18 3.57 0 2.55-1.1 33.87-1.25 38.33-2.51-.23-6.2-.93-6.87-2.02-.46-.76-.92-.92-1.22-.92-.37 0-.69.24-.83.63-.27.75.1 2.11 1.54 3.31l.18.15c2.31 1.93 6.18 5.15 7.06 7.2.34.78 1.09 1.21 2.13 1.21 2.06 0 5.18-1.79 5.94-4.02.71-2.07.08-5.86-.47-9.2-.23-1.35-.44-2.63-.53-3.62-.24-2.51-.21-8.96-.18-12.05 2.73 4.34 10.25 16.06 12.6 17.37.75.42 2.07.62 4.02.62 4.43 0 10.99-1.1 11.6-1.4.34-.17.49-.5.41-.87zM49.5 48.3c-2.18 0-3.12-.27-3.53-.49-2.12-1.19-10.21-13.74-13.15-18.47a.485.485 0 0 0-.55-.22.49.49 0 0 0-.37.47c-.01.43-.16 10.46.16 13.86.1 1.03.31 2.32.54 3.69.51 3.07 1.15 6.88.52 8.72-.61 1.77-3.31 3.34-5 3.34-.63 0-1.04-.2-1.21-.6-.98-2.28-4.8-5.47-7.34-7.58l-.18-.14c-1.08-.91-1.29-1.76-1.26-2.1.07.06.16.17.28.36 1.21 1.99 7.45 2.49 8.16 2.54.14.01.27-.04.37-.13s.16-.22.17-.35c.05-1.48 1.27-36.14 1.27-38.89 0-2.01-.62-2.98-1.34-4.11-.33-.53-.68-1.08-1.01-1.81-.2-.44-.22-.78-.07-1.01.27-.43 1.11-.56 1.5-.58.81.38 6 2.78 7.06 3.42.18.1.27.23.29.42.06.62-.64 1.7-1.79 2.74-1.76 1.59-1.37 11.84-1.28 13.88.01.13.07.26.16.35l4.13 3.8c.1.1.23.14.36.14.14-.01.27-.07.35-.18 1.94-2.23 5.89-6.66 6.98-7.45 1.31-.95 1.03-3.11.84-4.54-.02-.2-.05-.41-.07-.57 2.01.11 8.2 2.4 8.66 3.4-.59 1.17-8.76 5.84-16.45 9.74-.15.07-.25.21-.27.38-.03.16.03.32.15.43.06.06 5.84 5.44 10.46 10.06 4.55 4.56 10.86 5.54 12.17 5.54.34 0 .94.42 1.2.71-1.31.31-6.84 1.23-10.91 1.23z" fill="#000000" opacity="1" data-original="#000000" class=""></path><path fill="#99e7ff" d="M60.41 47.07c-1.31.31-6.84 1.23-10.91 1.23-2.18 0-3.12-.27-3.53-.49-2.12-1.19-10.21-13.74-13.15-18.47a.485.485 0 0 0-.55-.22.49.49 0 0 0-.37.47c-.01.43-.16 10.46.16 13.86.1 1.03.31 2.32.54 3.69.51 3.07 1.15 6.88.52 8.72-.61 1.77-3.31 3.34-5 3.34-.63 0-1.04-.2-1.21-.6-.98-2.28-4.8-5.47-7.34-7.58l-.18-.14c-1.08-.91-1.29-1.76-1.26-2.1.07.06.16.17.28.36 1.21 1.99 7.45 2.49 8.16 2.54.14.01.27-.04.37-.13s.16-.22.17-.35c.05-1.48 1.27-36.14 1.27-38.89 0-2.01-.62-2.98-1.34-4.11-.33-.53-.68-1.08-1.01-1.81-.2-.44-.22-.78-.07-1.01.27-.43 1.11-.56 1.5-.58.81.38 6 2.78 7.06 3.42.18.1.27.23.29.42.06.62-.64 1.7-1.79 2.74-1.76 1.59-1.37 11.84-1.28 13.88.01.13.07.26.16.35l4.13 3.8c.1.1.23.14.36.14.14-.01.27-.07.35-.18 1.94-2.23 5.89-6.66 6.98-7.45 1.31-.95 1.03-3.11.84-4.54-.02-.2-.05-.41-.07-.57 2.01.11 8.2 2.4 8.66 3.4-.59 1.17-8.76 5.84-16.45 9.74-.15.07-.25.21-.27.38-.03.16.03.32.15.43.06.06 5.84 5.44 10.46 10.06 4.55 4.56 10.86 5.54 12.17 5.54.34 0 .94.42 1.2.71z" opacity="1" data-original="#ed1c24" class=""></path></g></svg>