<!DOCTYPE svg PUBLIC "-//W3C//DTD SVG 1.1//EN" "http://www.w3.org/Graphics/SVG/1.1/DTD/svg11.dtd">

<!-- Uploaded to: SVG Repo, www.svgrepo.com, Transformed by: SVG Repo Mixer Tools -->
<svg width="800px" height="800px" viewBox="0 0 960 960" fill="none" xmlns="http://www.w3.org/2000/svg">

<g id="SVGRepo_bgCarrier" stroke-width="0"/>

<g id="SVGRepo_tracerCarrier" stroke-linecap="round" stroke-linejoin="round"/>

<g id="SVGRepo_iconCarrier"> <path d="M443.87 247.455C667.389 -39.5332 990.619 381.664 572.552 780.123C545.987 813.483 504.572 852.198 464.392 814.963C-162.967 372.85 214.731 -75.3562 443.87 247.455ZM177.06 331.441C174.33 408.012 235.824 411.076 230.236 356.639C201.705 222.58 339.096 244.019 295.34 197.111C225.13 178.616 175.576 270.568 177.06 331.441ZM574.029 193.567C549.948 194.607 522.575 208.018 508.576 227.488C497.104 241.361 495.036 268.589 518.218 269.196C544.181 265.293 546.214 236.776 584.787 244.131C616.645 247.528 628.053 195.962 574.029 193.567Z" fill="#ff2e2e"/> <path d="M725.619 890.037C708.245 975.682 610.045 850.601 604.925 817.896C603.603 789.306 640.302 782.744 655.835 803.865C676.9 831.364 719.806 855.43 725.619 890.037Z" fill="#ff2e2e"/> <path d="M71.9575 766.286C33.2335 765.861 34.1595 720.539 64.1345 707.685C92.2465 690.751 118.05 668.664 148.157 655.6C170.225 648.632 188.921 675.279 174.655 693.516C143.913 720.064 108.421 748.831 71.9575 766.286Z" fill="#ff2e2e"/> <path d="M731.397 40.5204C808.344 40.3994 698.594 214.709 676.844 131.959C678.958 112.791 705.346 39.0944 731.397 40.5204Z" fill="#ff2e2e"/> <path d="M846.065 415.555C939.529 419.284 929.379 488.175 875.218 481.706C857.793 477.534 839.356 476.41 822.597 469.903C786.386 447.554 813.344 415.114 846.065 415.555Z" fill="#ff2e2e"/> <path d="M84.9692 54.8086C117.204 56.0476 126.505 93.8236 144.815 114.683C159.267 136.771 131.841 162.713 109.971 148.404C81.9122 129.728 25.5852 68.1306 84.9692 54.8086Z" fill="#ff2e2e"/> <path d="M439.882 105.251C437.684 69.7381 488.222 56.5071 494.943 94.1071C501.199 158.17 439.399 153.504 439.882 105.251Z" fill="#ff2e2e"/> <path d="M739.117 705.153C704.933 706.019 679.644 658.579 719.191 647.583C758.106 636.551 782.987 698.23 739.117 705.153Z" fill="#ff2e2e"/> <path d="M836.604 243.286C822.847 286.582 763.178 281.572 774.426 240.687C786.211 206.319 831.17 206.668 836.604 243.286Z" fill="#ff2e2e"/> <path d="M335.931 796.276C335.845 838.04 268.402 846.724 280.227 798.692C289.313 771.149 332.765 759.198 335.931 796.276Z" fill="#ff2e2e"/> <path d="M70.9497 422.242C104.922 420.459 112.838 457.534 80.6247 468.616C43.3367 481.551 32.6017 424.748 70.9497 422.242Z" fill="#ff2e2e"/> <path d="M177.063 331.443C175.535 270.602 225.169 178.586 295.339 197.106C339.161 243.544 201.53 223.242 230.243 356.644C235.863 410.993 174.359 408.121 177.063 331.443Z" fill="white"/> <path d="M574.033 193.57C628.062 195.966 616.645 247.533 584.79 244.134C546.239 236.785 544.347 265.172 518.221 269.201C506.575 269.807 497.493 257.894 500.234 246.079C507.707 214.691 543.469 195.388 574.033 193.57Z" fill="white"/> </g>

</svg>